%TF.GenerationSoftware,KiCad,Pcbnew,6.0.9*%
%TF.CreationDate,2022-12-15T21:25:06+01:00*%
%TF.ProjectId,Expansion_Card,45787061-6e73-4696-9f6e-5f436172642e,X1*%
%TF.SameCoordinates,Original*%
%TF.FileFunction,Soldermask,Top*%
%TF.FilePolarity,Negative*%
%FSLAX46Y46*%
G04 Gerber Fmt 4.6, Leading zero omitted, Abs format (unit mm)*
G04 Created by KiCad (PCBNEW 6.0.9) date 2022-12-15 21:25:06*
%MOMM*%
%LPD*%
G01*
G04 APERTURE LIST*
G04 Aperture macros list*
%AMRoundRect*
0 Rectangle with rounded corners*
0 $1 Rounding radius*
0 $2 $3 $4 $5 $6 $7 $8 $9 X,Y pos of 4 corners*
0 Add a 4 corners polygon primitive as box body*
4,1,4,$2,$3,$4,$5,$6,$7,$8,$9,$2,$3,0*
0 Add four circle primitives for the rounded corners*
1,1,$1+$1,$2,$3*
1,1,$1+$1,$4,$5*
1,1,$1+$1,$6,$7*
1,1,$1+$1,$8,$9*
0 Add four rect primitives between the rounded corners*
20,1,$1+$1,$2,$3,$4,$5,0*
20,1,$1+$1,$4,$5,$6,$7,0*
20,1,$1+$1,$6,$7,$8,$9,0*
20,1,$1+$1,$8,$9,$2,$3,0*%
G04 Aperture macros list end*
%ADD10RoundRect,0.062500X-0.337500X-0.062500X0.337500X-0.062500X0.337500X0.062500X-0.337500X0.062500X0*%
%ADD11RoundRect,0.062500X-0.062500X-0.337500X0.062500X-0.337500X0.062500X0.337500X-0.062500X0.337500X0*%
%ADD12R,5.300000X5.300000*%
%ADD13R,3.350000X3.350000*%
%ADD14RoundRect,0.100000X-0.100000X0.130000X-0.100000X-0.130000X0.100000X-0.130000X0.100000X0.130000X0*%
%ADD15RoundRect,0.100000X0.130000X0.100000X-0.130000X0.100000X-0.130000X-0.100000X0.130000X-0.100000X0*%
%ADD16RoundRect,0.100000X0.100000X-0.130000X0.100000X0.130000X-0.100000X0.130000X-0.100000X-0.130000X0*%
%ADD17RoundRect,0.100000X-0.130000X-0.100000X0.130000X-0.100000X0.130000X0.100000X-0.130000X0.100000X0*%
%ADD18R,1.600000X2.200000*%
%ADD19R,2.200000X1.600000*%
%ADD20RoundRect,0.200000X-0.275000X0.200000X-0.275000X-0.200000X0.275000X-0.200000X0.275000X0.200000X0*%
%ADD21RoundRect,0.250000X0.250000X0.475000X-0.250000X0.475000X-0.250000X-0.475000X0.250000X-0.475000X0*%
%ADD22R,0.650000X1.060000*%
%ADD23R,0.700000X1.150000*%
%ADD24R,0.380000X1.000000*%
%ADD25C,2.200000*%
%ADD26R,1.500000X1.500000*%
G04 APERTURE END LIST*
D10*
%TO.C,U3*%
X133075000Y-141050000D03*
X133075000Y-141550000D03*
X133075000Y-142050000D03*
X133075000Y-142550000D03*
X133075000Y-143050000D03*
X133075000Y-143550000D03*
X133075000Y-144050000D03*
X133075000Y-144550000D03*
X133075000Y-145050000D03*
X133075000Y-145550000D03*
X133075000Y-146050000D03*
X133075000Y-146550000D03*
D11*
X133775000Y-147250000D03*
X134275000Y-147250000D03*
X134775000Y-147250000D03*
X135275000Y-147250000D03*
X135775000Y-147250000D03*
X136275000Y-147250000D03*
X136775000Y-147250000D03*
X137275000Y-147250000D03*
X137775000Y-147250000D03*
X138275000Y-147250000D03*
X138775000Y-147250000D03*
X139275000Y-147250000D03*
D10*
X139975000Y-146550000D03*
X139975000Y-146050000D03*
X139975000Y-145550000D03*
X139975000Y-145050000D03*
X139975000Y-144550000D03*
X139975000Y-144050000D03*
X139975000Y-143550000D03*
X139975000Y-143050000D03*
X139975000Y-142550000D03*
X139975000Y-142050000D03*
X139975000Y-141550000D03*
X139975000Y-141050000D03*
D11*
X139275000Y-140350000D03*
X138775000Y-140350000D03*
X138275000Y-140350000D03*
X137775000Y-140350000D03*
X137275000Y-140350000D03*
X136775000Y-140350000D03*
X136275000Y-140350000D03*
X135775000Y-140350000D03*
X135275000Y-140350000D03*
X134775000Y-140350000D03*
X134275000Y-140350000D03*
X133775000Y-140350000D03*
D12*
X136525000Y-143800000D03*
%TD*%
D10*
%TO.C,U2*%
X144600000Y-134775000D03*
X144600000Y-135275000D03*
X144600000Y-135775000D03*
X144600000Y-136275000D03*
X144600000Y-136775000D03*
X144600000Y-137275000D03*
X144600000Y-137775000D03*
D11*
X145550000Y-138725000D03*
X146050000Y-138725000D03*
X146550000Y-138725000D03*
X147050000Y-138725000D03*
X147550000Y-138725000D03*
X148050000Y-138725000D03*
X148550000Y-138725000D03*
D10*
X149500000Y-137775000D03*
X149500000Y-137275000D03*
X149500000Y-136775000D03*
X149500000Y-136275000D03*
X149500000Y-135775000D03*
X149500000Y-135275000D03*
X149500000Y-134775000D03*
D11*
X148550000Y-133825000D03*
X148050000Y-133825000D03*
X147550000Y-133825000D03*
X147050000Y-133825000D03*
X146550000Y-133825000D03*
X146050000Y-133825000D03*
X145550000Y-133825000D03*
D13*
X147050000Y-136275000D03*
%TD*%
D14*
%TO.C,R23*%
X143225000Y-140480000D03*
X143225000Y-141120000D03*
%TD*%
D15*
%TO.C,R22*%
X137320000Y-149250000D03*
X136680000Y-149250000D03*
%TD*%
D16*
%TO.C,R21*%
X142400000Y-141120000D03*
X142400000Y-140480000D03*
%TD*%
D17*
%TO.C,R4*%
X143070000Y-139625000D03*
X142430000Y-139625000D03*
%TD*%
%TO.C,R3*%
X148120000Y-128000000D03*
X147480000Y-128000000D03*
%TD*%
%TO.C,R2*%
X150855000Y-130050000D03*
X151495000Y-130050000D03*
%TD*%
D15*
%TO.C,D2*%
X149620000Y-128000000D03*
X148980000Y-128000000D03*
%TD*%
%TO.C,D1*%
X152420000Y-131050000D03*
X151780000Y-131050000D03*
%TD*%
D18*
%TO.C,C19*%
X147625000Y-150625000D03*
X147625000Y-147625000D03*
%TD*%
D19*
%TO.C,C16*%
X135150000Y-135200000D03*
X138150000Y-135200000D03*
%TD*%
%TO.C,C15*%
X131225000Y-138975000D03*
X128225000Y-138975000D03*
%TD*%
D18*
%TO.C,C6*%
X150875000Y-143750000D03*
X150875000Y-140750000D03*
%TD*%
%TO.C,C5*%
X146775000Y-141250000D03*
X146775000Y-144250000D03*
%TD*%
D19*
%TO.C,C4*%
X141200000Y-149975000D03*
X144200000Y-149975000D03*
%TD*%
%TO.C,C3*%
X132225000Y-149150000D03*
X129225000Y-149150000D03*
%TD*%
D20*
%TO.C,R1*%
X133540000Y-131675000D03*
X133540000Y-133325000D03*
%TD*%
D21*
%TO.C,C2*%
X131450000Y-135802000D03*
X129550000Y-135802000D03*
%TD*%
D22*
%TO.C,U1*%
X131450000Y-131400000D03*
X130500000Y-131400000D03*
X129550000Y-131400000D03*
X129550000Y-133600000D03*
X131450000Y-133600000D03*
%TD*%
D21*
%TO.C,C1*%
X129550000Y-129198000D03*
X131450000Y-129198000D03*
%TD*%
D23*
%TO.C,P1*%
X136580000Y-129880000D03*
D24*
X142750000Y-129040000D03*
X142250000Y-129040000D03*
X141750000Y-129040000D03*
X141250000Y-129040000D03*
X140750000Y-129040000D03*
X140250000Y-129040000D03*
X139750000Y-129040000D03*
X139250000Y-129040000D03*
X138750000Y-129040000D03*
X138250000Y-129040000D03*
X137750000Y-129040000D03*
X137250000Y-129040000D03*
%TD*%
D25*
%TO.C,H1*%
X128700000Y-146500000D03*
%TD*%
%TO.C,H2*%
X151300000Y-146500000D03*
%TD*%
D26*
%TO.C,TP1*%
X134300000Y-128000000D03*
%TD*%
%TO.C,TP3*%
X145700000Y-128000000D03*
%TD*%
M02*
