%TF.GenerationSoftware,KiCad,Pcbnew,6.0.9*%
%TF.CreationDate,2022-12-15T21:25:06+01:00*%
%TF.ProjectId,Expansion_Card,45787061-6e73-4696-9f6e-5f436172642e,X1*%
%TF.SameCoordinates,Original*%
%TF.FileFunction,Copper,L2,Bot*%
%TF.FilePolarity,Positive*%
%FSLAX46Y46*%
G04 Gerber Fmt 4.6, Leading zero omitted, Abs format (unit mm)*
G04 Created by KiCad (PCBNEW 6.0.9) date 2022-12-15 21:25:06*
%MOMM*%
%LPD*%
G01*
G04 APERTURE LIST*
%TA.AperFunction,SMDPad,CuDef*%
%ADD10R,0.700000X1.150000*%
%TD*%
%TA.AperFunction,SMDPad,CuDef*%
%ADD11R,0.380000X1.000000*%
%TD*%
%TA.AperFunction,SMDPad,CuDef*%
%ADD12R,1.500000X1.500000*%
%TD*%
%TA.AperFunction,ViaPad*%
%ADD13C,0.800000*%
%TD*%
%TA.AperFunction,ViaPad*%
%ADD14C,0.500000*%
%TD*%
%TA.AperFunction,Conductor*%
%ADD15C,0.250000*%
%TD*%
%TA.AperFunction,Conductor*%
%ADD16C,0.160000*%
%TD*%
%TA.AperFunction,Conductor*%
%ADD17C,0.200000*%
%TD*%
G04 APERTURE END LIST*
D10*
%TO.P,P1,S1,SHIELD*%
%TO.N,GND*%
X143420000Y-129880000D03*
D11*
%TO.P,P1,B12,GND*%
X137250000Y-129040000D03*
%TO.P,P1,B11*%
%TO.N,N/C*%
X137750000Y-129040000D03*
%TO.P,P1,B10*%
X138250000Y-129040000D03*
%TO.P,P1,B9,VBUS*%
%TO.N,VBUS*%
X138750000Y-129040000D03*
%TO.P,P1,B8*%
%TO.N,N/C*%
X139250000Y-129040000D03*
%TO.P,P1,B5,VCONN*%
%TO.N,unconnected-(P1-PadB5)*%
X140750000Y-129040000D03*
%TO.P,P1,B4,VBUS*%
%TO.N,VBUS*%
X141250000Y-129040000D03*
%TO.P,P1,B3*%
%TO.N,N/C*%
X141750000Y-129040000D03*
%TO.P,P1,B2*%
X142250000Y-129040000D03*
%TO.P,P1,B1,GND*%
%TO.N,GND*%
X142750000Y-129040000D03*
%TD*%
D12*
%TO.P,TP2,1,1*%
%TO.N,GND*%
X134300000Y-128000000D03*
%TD*%
%TO.P,TP4,1,1*%
%TO.N,GND*%
X145700000Y-128000000D03*
%TD*%
D13*
%TO.N,VBUS*%
X144875000Y-146950000D03*
%TO.N,GND*%
X138512820Y-149912820D03*
%TO.N,VBUS*%
X144225000Y-138875000D03*
X150212299Y-138412701D03*
%TO.N,Net-(C5-Pad1)*%
X143286883Y-137086335D03*
X144925000Y-140650000D03*
%TO.N,/RXD*%
X148651992Y-131775000D03*
X138000000Y-137600000D03*
%TO.N,/TXD*%
X146550000Y-131750000D03*
X137275000Y-138400500D03*
%TO.N,/VDD33A*%
X130325000Y-142550000D03*
%TO.N,Net-(U3-Pad18)*%
X136250000Y-148500000D03*
X143775000Y-142075000D03*
%TO.N,/VDD33A*%
X139275000Y-139125000D03*
X136000000Y-139125000D03*
%TO.N,GND*%
X147625000Y-146150000D03*
X136525000Y-143800000D03*
%TO.N,/VDD33A*%
X142787500Y-142562500D03*
%TO.N,GND*%
X147475000Y-128800000D03*
X149675000Y-130050000D03*
%TO.N,VBUS*%
X138179117Y-132359492D03*
X134950000Y-130450000D03*
%TO.N,/D-*%
X140449500Y-131374204D03*
X139037876Y-131848084D03*
D14*
%TO.N,GND*%
X133858000Y-127571500D03*
X133858000Y-128460500D03*
X146177000Y-127571500D03*
X146177000Y-128460500D03*
X134747000Y-127571500D03*
X145224500Y-128460500D03*
X145224500Y-127571500D03*
X134747000Y-128460500D03*
%TD*%
D15*
%TO.N,VBUS*%
X144875000Y-146950000D02*
X147850305Y-146950000D01*
X147850305Y-146950000D02*
X148350000Y-146450305D01*
X148350000Y-143000000D02*
X144225000Y-138875000D01*
X148350000Y-146450305D02*
X148350000Y-143000000D01*
%TO.N,GND*%
X142575305Y-145850335D02*
X142575305Y-143800000D01*
X138512820Y-149912820D02*
X142575305Y-145850335D01*
%TO.N,VBUS*%
X144687299Y-138412701D02*
X144225000Y-138875000D01*
X150212299Y-138412701D02*
X144687299Y-138412701D01*
%TO.N,Net-(C5-Pad1)*%
X143286883Y-137086335D02*
X143286883Y-139011883D01*
X143286883Y-139011883D02*
X144925000Y-140650000D01*
%TO.N,/RXD*%
X138000000Y-137600000D02*
X139674695Y-137600000D01*
X146249695Y-131025000D02*
X147901992Y-131025000D01*
X139674695Y-137600000D02*
X146249695Y-131025000D01*
X147901992Y-131025000D02*
X148651992Y-131775000D01*
%TO.N,/TXD*%
X137275000Y-138400500D02*
X139899500Y-138400500D01*
X139899500Y-138400500D02*
X146550000Y-131750000D01*
D16*
%TO.N,VBUS*%
X138179117Y-132359492D02*
X138179117Y-132004117D01*
X138179117Y-132004117D02*
X136625000Y-130450000D01*
X136625000Y-130450000D02*
X134950000Y-130450000D01*
D15*
%TO.N,/VDD33A*%
X136000000Y-139125000D02*
X139275000Y-139125000D01*
%TO.N,GND*%
X136525000Y-143800000D02*
X142575305Y-143800000D01*
X144925305Y-146150000D02*
X147625000Y-146150000D01*
X142575305Y-143800000D02*
X144925305Y-146150000D01*
%TO.N,Net-(U3-Pad18)*%
X136250000Y-148500000D02*
X135800000Y-148050000D01*
X135800000Y-148050000D02*
X135800000Y-143499695D01*
X135800000Y-143499695D02*
X136224695Y-143075000D01*
X137037805Y-143287500D02*
X143087805Y-143287500D01*
X143775000Y-142600305D02*
X143775000Y-142075000D01*
X136224695Y-143075000D02*
X136825305Y-143075000D01*
X143087805Y-143287500D02*
X143775000Y-142600305D01*
X136825305Y-143075000D02*
X137037805Y-143287500D01*
%TO.N,/VDD33A*%
X130325000Y-142550000D02*
X142775000Y-142550000D01*
X142775000Y-142550000D02*
X142787500Y-142562500D01*
%TO.N,GND*%
X148725000Y-130050000D02*
X147475000Y-128800000D01*
X149675000Y-130050000D02*
X148725000Y-130050000D01*
D17*
%TO.N,/D-*%
X139975620Y-131848084D02*
X140449500Y-131374204D01*
X139037876Y-131848084D02*
X139975620Y-131848084D01*
D15*
%TO.N,GND*%
X143420000Y-129880000D02*
X143420000Y-129655000D01*
X143420000Y-129655000D02*
X142820000Y-129055000D01*
X142765000Y-128215000D02*
X137235000Y-128215000D01*
X142820000Y-129055000D02*
X142820000Y-128270000D01*
X142820000Y-128270000D02*
X142765000Y-128215000D01*
X137235000Y-128215000D02*
X137235000Y-129040000D01*
X143420000Y-129880000D02*
X142765000Y-129225000D01*
X142765000Y-129225000D02*
X142765000Y-129040000D01*
X143420000Y-129880000D02*
X144020000Y-129880000D01*
X144020000Y-129880000D02*
X145700000Y-128200000D01*
X145700000Y-128200000D02*
X145700000Y-128000000D01*
%TD*%
M02*
