M48
; DRILL file {KiCad 6.0.9} date Thu 15 Dec 2022 21:23:54 CET
; FORMAT={-:-/ absolute / metric / decimal}
; #@! TF.CreationDate,2022-12-15T21:23:54+01:00
; #@! TF.GenerationSoftware,Kicad,Pcbnew,6.0.9
; #@! TF.FileFunction,Plated,1,2,PTH
FMAT,2
METRIC
; #@! TA.AperFunction,Plated,PTH,ViaDrill
T1C0.300
; #@! TA.AperFunction,Plated,PTH,ViaDrill
T2C0.400
%
G90
G05
T1
X133.858Y-127.572
X133.858Y-128.46
X134.747Y-127.572
X134.747Y-128.46
X145.225Y-127.572
X145.225Y-128.46
X146.177Y-127.572
X146.177Y-128.46
T2
X130.325Y-142.55
X134.95Y-130.45
X136.0Y-139.125
X136.25Y-148.5
X136.525Y-143.8
X137.275Y-138.4
X138.0Y-137.6
X138.179Y-132.359
X138.513Y-149.913
X139.038Y-131.848
X139.275Y-139.125
X140.45Y-131.374
X142.787Y-142.562
X143.287Y-137.086
X143.775Y-142.075
X144.225Y-138.875
X144.875Y-146.95
X144.925Y-140.65
X146.55Y-131.75
X147.475Y-128.8
X147.625Y-146.15
X148.652Y-131.775
X149.675Y-130.05
X150.212Y-138.413
T0
M30
