%TF.GenerationSoftware,KiCad,Pcbnew,6.0.9*%
%TF.CreationDate,2022-12-15T21:24:13+01:00*%
%TF.ProjectId,Expansion_Card,45787061-6e73-4696-9f6e-5f436172642e,X1*%
%TF.SameCoordinates,Original*%
%TF.FileFunction,AssemblyDrawing,Top*%
%FSLAX46Y46*%
G04 Gerber Fmt 4.6, Leading zero omitted, Abs format (unit mm)*
G04 Created by KiCad (PCBNEW 6.0.9) date 2022-12-15 21:24:13*
%MOMM*%
%LPD*%
G01*
G04 APERTURE LIST*
%ADD10C,0.150000*%
%ADD11C,0.040000*%
%ADD12C,0.090000*%
%ADD13C,0.100000*%
G04 APERTURE END LIST*
D10*
%TO.C,U3*%
X130405952Y-148528571D02*
X130739285Y-148528571D01*
X130882142Y-149052380D02*
X130405952Y-149052380D01*
X130405952Y-148052380D01*
X130882142Y-148052380D01*
X131263095Y-149004761D02*
X131405952Y-149052380D01*
X131644047Y-149052380D01*
X131739285Y-149004761D01*
X131786904Y-148957142D01*
X131834523Y-148861904D01*
X131834523Y-148766666D01*
X131786904Y-148671428D01*
X131739285Y-148623809D01*
X131644047Y-148576190D01*
X131453571Y-148528571D01*
X131358333Y-148480952D01*
X131310714Y-148433333D01*
X131263095Y-148338095D01*
X131263095Y-148242857D01*
X131310714Y-148147619D01*
X131358333Y-148100000D01*
X131453571Y-148052380D01*
X131691666Y-148052380D01*
X131834523Y-148100000D01*
X132263095Y-149052380D02*
X132263095Y-148052380D01*
X132644047Y-148052380D01*
X132739285Y-148100000D01*
X132786904Y-148147619D01*
X132834523Y-148242857D01*
X132834523Y-148385714D01*
X132786904Y-148480952D01*
X132739285Y-148528571D01*
X132644047Y-148576190D01*
X132263095Y-148576190D01*
X133167857Y-148052380D02*
X133786904Y-148052380D01*
X133453571Y-148433333D01*
X133596428Y-148433333D01*
X133691666Y-148480952D01*
X133739285Y-148528571D01*
X133786904Y-148623809D01*
X133786904Y-148861904D01*
X133739285Y-148957142D01*
X133691666Y-149004761D01*
X133596428Y-149052380D01*
X133310714Y-149052380D01*
X133215476Y-149004761D01*
X133167857Y-148957142D01*
X134167857Y-148147619D02*
X134215476Y-148100000D01*
X134310714Y-148052380D01*
X134548809Y-148052380D01*
X134644047Y-148100000D01*
X134691666Y-148147619D01*
X134739285Y-148242857D01*
X134739285Y-148338095D01*
X134691666Y-148480952D01*
X134120238Y-149052380D01*
X134739285Y-149052380D01*
X135167857Y-148671428D02*
X135929761Y-148671428D01*
X136405952Y-149052380D02*
X136405952Y-148052380D01*
X136786904Y-148052380D01*
X136882142Y-148100000D01*
X136929761Y-148147619D01*
X136977380Y-148242857D01*
X136977380Y-148385714D01*
X136929761Y-148480952D01*
X136882142Y-148528571D01*
X136786904Y-148576190D01*
X136405952Y-148576190D01*
X137405952Y-149052380D02*
X137405952Y-148052380D01*
X138453571Y-148957142D02*
X138405952Y-149004761D01*
X138263095Y-149052380D01*
X138167857Y-149052380D01*
X138025000Y-149004761D01*
X137929761Y-148909523D01*
X137882142Y-148814285D01*
X137834523Y-148623809D01*
X137834523Y-148480952D01*
X137882142Y-148290476D01*
X137929761Y-148195238D01*
X138025000Y-148100000D01*
X138167857Y-148052380D01*
X138263095Y-148052380D01*
X138405952Y-148100000D01*
X138453571Y-148147619D01*
X139072619Y-148052380D02*
X139263095Y-148052380D01*
X139358333Y-148100000D01*
X139453571Y-148195238D01*
X139501190Y-148385714D01*
X139501190Y-148719047D01*
X139453571Y-148909523D01*
X139358333Y-149004761D01*
X139263095Y-149052380D01*
X139072619Y-149052380D01*
X138977380Y-149004761D01*
X138882142Y-148909523D01*
X138834523Y-148719047D01*
X138834523Y-148385714D01*
X138882142Y-148195238D01*
X138977380Y-148100000D01*
X139072619Y-148052380D01*
X139929761Y-148671428D02*
X140691666Y-148671428D01*
X141167857Y-149052380D02*
X141167857Y-148052380D01*
X141405952Y-148052380D01*
X141548809Y-148100000D01*
X141644047Y-148195238D01*
X141691666Y-148290476D01*
X141739285Y-148480952D01*
X141739285Y-148623809D01*
X141691666Y-148814285D01*
X141644047Y-148909523D01*
X141548809Y-149004761D01*
X141405952Y-149052380D01*
X141167857Y-149052380D01*
X142596428Y-148385714D02*
X142596428Y-149052380D01*
X142358333Y-148004761D02*
X142120238Y-148719047D01*
X142739285Y-148719047D01*
X135763095Y-143252380D02*
X135763095Y-144061904D01*
X135810714Y-144157142D01*
X135858333Y-144204761D01*
X135953571Y-144252380D01*
X136144047Y-144252380D01*
X136239285Y-144204761D01*
X136286904Y-144157142D01*
X136334523Y-144061904D01*
X136334523Y-143252380D01*
X136715476Y-143252380D02*
X137334523Y-143252380D01*
X137001190Y-143633333D01*
X137144047Y-143633333D01*
X137239285Y-143680952D01*
X137286904Y-143728571D01*
X137334523Y-143823809D01*
X137334523Y-144061904D01*
X137286904Y-144157142D01*
X137239285Y-144204761D01*
X137144047Y-144252380D01*
X136858333Y-144252380D01*
X136763095Y-144204761D01*
X136715476Y-144157142D01*
%TO.C,U2*%
X135946428Y-137332142D02*
X135898809Y-137379761D01*
X135755952Y-137427380D01*
X135660714Y-137427380D01*
X135517857Y-137379761D01*
X135422619Y-137284523D01*
X135375000Y-137189285D01*
X135327380Y-136998809D01*
X135327380Y-136855952D01*
X135375000Y-136665476D01*
X135422619Y-136570238D01*
X135517857Y-136475000D01*
X135660714Y-136427380D01*
X135755952Y-136427380D01*
X135898809Y-136475000D01*
X135946428Y-136522619D01*
X136375000Y-137427380D02*
X136375000Y-136427380D01*
X136755952Y-136427380D01*
X136851190Y-136475000D01*
X136898809Y-136522619D01*
X136946428Y-136617857D01*
X136946428Y-136760714D01*
X136898809Y-136855952D01*
X136851190Y-136903571D01*
X136755952Y-136951190D01*
X136375000Y-136951190D01*
X137327380Y-136522619D02*
X137375000Y-136475000D01*
X137470238Y-136427380D01*
X137708333Y-136427380D01*
X137803571Y-136475000D01*
X137851190Y-136522619D01*
X137898809Y-136617857D01*
X137898809Y-136713095D01*
X137851190Y-136855952D01*
X137279761Y-137427380D01*
X137898809Y-137427380D01*
X138851190Y-137427380D02*
X138279761Y-137427380D01*
X138565476Y-137427380D02*
X138565476Y-136427380D01*
X138470238Y-136570238D01*
X138375000Y-136665476D01*
X138279761Y-136713095D01*
X139470238Y-136427380D02*
X139565476Y-136427380D01*
X139660714Y-136475000D01*
X139708333Y-136522619D01*
X139755952Y-136617857D01*
X139803571Y-136808333D01*
X139803571Y-137046428D01*
X139755952Y-137236904D01*
X139708333Y-137332142D01*
X139660714Y-137379761D01*
X139565476Y-137427380D01*
X139470238Y-137427380D01*
X139375000Y-137379761D01*
X139327380Y-137332142D01*
X139279761Y-137236904D01*
X139232142Y-137046428D01*
X139232142Y-136808333D01*
X139279761Y-136617857D01*
X139327380Y-136522619D01*
X139375000Y-136475000D01*
X139470238Y-136427380D01*
X140184523Y-136522619D02*
X140232142Y-136475000D01*
X140327380Y-136427380D01*
X140565476Y-136427380D01*
X140660714Y-136475000D01*
X140708333Y-136522619D01*
X140755952Y-136617857D01*
X140755952Y-136713095D01*
X140708333Y-136855952D01*
X140136904Y-137427380D01*
X140755952Y-137427380D01*
X141184523Y-137427380D02*
X141184523Y-136427380D01*
X141755952Y-137427380D01*
X141755952Y-136427380D01*
X142232142Y-137046428D02*
X142994047Y-137046428D01*
X143422619Y-137141666D02*
X143898809Y-137141666D01*
X143327380Y-137427380D02*
X143660714Y-136427380D01*
X143994047Y-137427380D01*
X144232142Y-137427380D02*
X144755952Y-136760714D01*
X144232142Y-136760714D02*
X144755952Y-137427380D01*
X145041666Y-137427380D02*
X145565476Y-136760714D01*
X145041666Y-136760714D02*
X145565476Y-137427380D01*
X145946428Y-137046428D02*
X146708333Y-137046428D01*
X147089285Y-137427380D02*
X147613095Y-136760714D01*
X147089285Y-136760714D02*
X147613095Y-137427380D01*
X148660714Y-137522619D02*
X148565476Y-137475000D01*
X148470238Y-137379761D01*
X148327380Y-137236904D01*
X148232142Y-137189285D01*
X148136904Y-137189285D01*
X148184523Y-137427380D02*
X148089285Y-137379761D01*
X147994047Y-137284523D01*
X147946428Y-137094047D01*
X147946428Y-136760714D01*
X147994047Y-136570238D01*
X148089285Y-136475000D01*
X148184523Y-136427380D01*
X148375000Y-136427380D01*
X148470238Y-136475000D01*
X148565476Y-136570238D01*
X148613095Y-136760714D01*
X148613095Y-137094047D01*
X148565476Y-137284523D01*
X148470238Y-137379761D01*
X148375000Y-137427380D01*
X148184523Y-137427380D01*
X149375000Y-136903571D02*
X149041666Y-136903571D01*
X149041666Y-137427380D02*
X149041666Y-136427380D01*
X149517857Y-136427380D01*
X149898809Y-137427380D02*
X149898809Y-136427380D01*
X150470238Y-137427380D01*
X150470238Y-136427380D01*
X150898809Y-136522619D02*
X150946428Y-136475000D01*
X151041666Y-136427380D01*
X151279761Y-136427380D01*
X151375000Y-136475000D01*
X151422619Y-136522619D01*
X151470238Y-136617857D01*
X151470238Y-136713095D01*
X151422619Y-136855952D01*
X150851190Y-137427380D01*
X151470238Y-137427380D01*
X152041666Y-136855952D02*
X151946428Y-136808333D01*
X151898809Y-136760714D01*
X151851190Y-136665476D01*
X151851190Y-136617857D01*
X151898809Y-136522619D01*
X151946428Y-136475000D01*
X152041666Y-136427380D01*
X152232142Y-136427380D01*
X152327380Y-136475000D01*
X152375000Y-136522619D01*
X152422619Y-136617857D01*
X152422619Y-136665476D01*
X152375000Y-136760714D01*
X152327380Y-136808333D01*
X152232142Y-136855952D01*
X152041666Y-136855952D01*
X151946428Y-136903571D01*
X151898809Y-136951190D01*
X151851190Y-137046428D01*
X151851190Y-137236904D01*
X151898809Y-137332142D01*
X151946428Y-137379761D01*
X152041666Y-137427380D01*
X152232142Y-137427380D01*
X152327380Y-137379761D01*
X152375000Y-137332142D01*
X152422619Y-137236904D01*
X152422619Y-137046428D01*
X152375000Y-136951190D01*
X152327380Y-136903571D01*
X152232142Y-136855952D01*
X146288095Y-135727380D02*
X146288095Y-136536904D01*
X146335714Y-136632142D01*
X146383333Y-136679761D01*
X146478571Y-136727380D01*
X146669047Y-136727380D01*
X146764285Y-136679761D01*
X146811904Y-136632142D01*
X146859523Y-136536904D01*
X146859523Y-135727380D01*
X147288095Y-135822619D02*
X147335714Y-135775000D01*
X147430952Y-135727380D01*
X147669047Y-135727380D01*
X147764285Y-135775000D01*
X147811904Y-135822619D01*
X147859523Y-135917857D01*
X147859523Y-136013095D01*
X147811904Y-136155952D01*
X147240476Y-136727380D01*
X147859523Y-136727380D01*
%TO.C,R23*%
X142627380Y-141490476D02*
X142627380Y-142061904D01*
X142627380Y-141776190D02*
X141627380Y-141776190D01*
X141770238Y-141871428D01*
X141865476Y-141966666D01*
X141913095Y-142061904D01*
X141627380Y-140871428D02*
X141627380Y-140776190D01*
X141675000Y-140680952D01*
X141722619Y-140633333D01*
X141817857Y-140585714D01*
X142008333Y-140538095D01*
X142246428Y-140538095D01*
X142436904Y-140585714D01*
X142532142Y-140633333D01*
X142579761Y-140680952D01*
X142627380Y-140776190D01*
X142627380Y-140871428D01*
X142579761Y-140966666D01*
X142532142Y-141014285D01*
X142436904Y-141061904D01*
X142246428Y-141109523D01*
X142008333Y-141109523D01*
X141817857Y-141061904D01*
X141722619Y-141014285D01*
X141675000Y-140966666D01*
X141627380Y-140871428D01*
X142627380Y-140109523D02*
X141627380Y-140109523D01*
X142627380Y-139538095D02*
X142055952Y-139966666D01*
X141627380Y-139538095D02*
X142198809Y-140109523D01*
D11*
X144018095Y-140960714D02*
X143899047Y-141044047D01*
X144018095Y-141103571D02*
X143768095Y-141103571D01*
X143768095Y-141008333D01*
X143780000Y-140984523D01*
X143791904Y-140972619D01*
X143815714Y-140960714D01*
X143851428Y-140960714D01*
X143875238Y-140972619D01*
X143887142Y-140984523D01*
X143899047Y-141008333D01*
X143899047Y-141103571D01*
X143791904Y-140865476D02*
X143780000Y-140853571D01*
X143768095Y-140829761D01*
X143768095Y-140770238D01*
X143780000Y-140746428D01*
X143791904Y-140734523D01*
X143815714Y-140722619D01*
X143839523Y-140722619D01*
X143875238Y-140734523D01*
X144018095Y-140877380D01*
X144018095Y-140722619D01*
X143768095Y-140639285D02*
X143768095Y-140484523D01*
X143863333Y-140567857D01*
X143863333Y-140532142D01*
X143875238Y-140508333D01*
X143887142Y-140496428D01*
X143910952Y-140484523D01*
X143970476Y-140484523D01*
X143994285Y-140496428D01*
X144006190Y-140508333D01*
X144018095Y-140532142D01*
X144018095Y-140603571D01*
X144006190Y-140627380D01*
X143994285Y-140639285D01*
D10*
%TO.C,R22*%
X136309523Y-148652380D02*
X135738095Y-148652380D01*
X136023809Y-148652380D02*
X136023809Y-147652380D01*
X135928571Y-147795238D01*
X135833333Y-147890476D01*
X135738095Y-147938095D01*
X136928571Y-147652380D02*
X137023809Y-147652380D01*
X137119047Y-147700000D01*
X137166666Y-147747619D01*
X137214285Y-147842857D01*
X137261904Y-148033333D01*
X137261904Y-148271428D01*
X137214285Y-148461904D01*
X137166666Y-148557142D01*
X137119047Y-148604761D01*
X137023809Y-148652380D01*
X136928571Y-148652380D01*
X136833333Y-148604761D01*
X136785714Y-148557142D01*
X136738095Y-148461904D01*
X136690476Y-148271428D01*
X136690476Y-148033333D01*
X136738095Y-147842857D01*
X136785714Y-147747619D01*
X136833333Y-147700000D01*
X136928571Y-147652380D01*
X137690476Y-148652380D02*
X137690476Y-147652380D01*
X138261904Y-148652380D02*
X137833333Y-148080952D01*
X138261904Y-147652380D02*
X137690476Y-148223809D01*
D11*
X136839285Y-150043095D02*
X136755952Y-149924047D01*
X136696428Y-150043095D02*
X136696428Y-149793095D01*
X136791666Y-149793095D01*
X136815476Y-149805000D01*
X136827380Y-149816904D01*
X136839285Y-149840714D01*
X136839285Y-149876428D01*
X136827380Y-149900238D01*
X136815476Y-149912142D01*
X136791666Y-149924047D01*
X136696428Y-149924047D01*
X136934523Y-149816904D02*
X136946428Y-149805000D01*
X136970238Y-149793095D01*
X137029761Y-149793095D01*
X137053571Y-149805000D01*
X137065476Y-149816904D01*
X137077380Y-149840714D01*
X137077380Y-149864523D01*
X137065476Y-149900238D01*
X136922619Y-150043095D01*
X137077380Y-150043095D01*
X137172619Y-149816904D02*
X137184523Y-149805000D01*
X137208333Y-149793095D01*
X137267857Y-149793095D01*
X137291666Y-149805000D01*
X137303571Y-149816904D01*
X137315476Y-149840714D01*
X137315476Y-149864523D01*
X137303571Y-149900238D01*
X137160714Y-150043095D01*
X137315476Y-150043095D01*
D10*
%TO.C,R21*%
X142902380Y-141347619D02*
X142902380Y-141252380D01*
X142950000Y-141157142D01*
X142997619Y-141109523D01*
X143092857Y-141061904D01*
X143283333Y-141014285D01*
X143521428Y-141014285D01*
X143711904Y-141061904D01*
X143807142Y-141109523D01*
X143854761Y-141157142D01*
X143902380Y-141252380D01*
X143902380Y-141347619D01*
X143854761Y-141442857D01*
X143807142Y-141490476D01*
X143711904Y-141538095D01*
X143521428Y-141585714D01*
X143283333Y-141585714D01*
X143092857Y-141538095D01*
X142997619Y-141490476D01*
X142950000Y-141442857D01*
X142902380Y-141347619D01*
X143902380Y-140014285D02*
X143426190Y-140347619D01*
X143902380Y-140585714D02*
X142902380Y-140585714D01*
X142902380Y-140204761D01*
X142950000Y-140109523D01*
X142997619Y-140061904D01*
X143092857Y-140014285D01*
X143235714Y-140014285D01*
X143330952Y-140061904D01*
X143378571Y-140109523D01*
X143426190Y-140204761D01*
X143426190Y-140585714D01*
D11*
X141833095Y-140960714D02*
X141714047Y-141044047D01*
X141833095Y-141103571D02*
X141583095Y-141103571D01*
X141583095Y-141008333D01*
X141595000Y-140984523D01*
X141606904Y-140972619D01*
X141630714Y-140960714D01*
X141666428Y-140960714D01*
X141690238Y-140972619D01*
X141702142Y-140984523D01*
X141714047Y-141008333D01*
X141714047Y-141103571D01*
X141606904Y-140865476D02*
X141595000Y-140853571D01*
X141583095Y-140829761D01*
X141583095Y-140770238D01*
X141595000Y-140746428D01*
X141606904Y-140734523D01*
X141630714Y-140722619D01*
X141654523Y-140722619D01*
X141690238Y-140734523D01*
X141833095Y-140877380D01*
X141833095Y-140722619D01*
X141833095Y-140484523D02*
X141833095Y-140627380D01*
X141833095Y-140555952D02*
X141583095Y-140555952D01*
X141618809Y-140579761D01*
X141642619Y-140603571D01*
X141654523Y-140627380D01*
D10*
%TO.C,R4*%
X142059523Y-141127380D02*
X141488095Y-141127380D01*
X141773809Y-141127380D02*
X141773809Y-140127380D01*
X141678571Y-140270238D01*
X141583333Y-140365476D01*
X141488095Y-140413095D01*
X142678571Y-140127380D02*
X142773809Y-140127380D01*
X142869047Y-140175000D01*
X142916666Y-140222619D01*
X142964285Y-140317857D01*
X143011904Y-140508333D01*
X143011904Y-140746428D01*
X142964285Y-140936904D01*
X142916666Y-141032142D01*
X142869047Y-141079761D01*
X142773809Y-141127380D01*
X142678571Y-141127380D01*
X142583333Y-141079761D01*
X142535714Y-141032142D01*
X142488095Y-140936904D01*
X142440476Y-140746428D01*
X142440476Y-140508333D01*
X142488095Y-140317857D01*
X142535714Y-140222619D01*
X142583333Y-140175000D01*
X142678571Y-140127380D01*
X143440476Y-141127380D02*
X143440476Y-140127380D01*
X144011904Y-141127380D02*
X143583333Y-140555952D01*
X144011904Y-140127380D02*
X143440476Y-140698809D01*
D11*
X142708333Y-139058095D02*
X142625000Y-138939047D01*
X142565476Y-139058095D02*
X142565476Y-138808095D01*
X142660714Y-138808095D01*
X142684523Y-138820000D01*
X142696428Y-138831904D01*
X142708333Y-138855714D01*
X142708333Y-138891428D01*
X142696428Y-138915238D01*
X142684523Y-138927142D01*
X142660714Y-138939047D01*
X142565476Y-138939047D01*
X142922619Y-138891428D02*
X142922619Y-139058095D01*
X142863095Y-138796190D02*
X142803571Y-138974761D01*
X142958333Y-138974761D01*
D10*
%TO.C,R3*%
X147585714Y-129502380D02*
X147014285Y-129502380D01*
X147300000Y-129502380D02*
X147300000Y-128502380D01*
X147204761Y-128645238D01*
X147109523Y-128740476D01*
X147014285Y-128788095D01*
X148014285Y-129502380D02*
X148014285Y-128502380D01*
X148585714Y-129502380D02*
X148157142Y-128930952D01*
X148585714Y-128502380D02*
X148014285Y-129073809D01*
D11*
X147758333Y-127433095D02*
X147675000Y-127314047D01*
X147615476Y-127433095D02*
X147615476Y-127183095D01*
X147710714Y-127183095D01*
X147734523Y-127195000D01*
X147746428Y-127206904D01*
X147758333Y-127230714D01*
X147758333Y-127266428D01*
X147746428Y-127290238D01*
X147734523Y-127302142D01*
X147710714Y-127314047D01*
X147615476Y-127314047D01*
X147841666Y-127183095D02*
X147996428Y-127183095D01*
X147913095Y-127278333D01*
X147948809Y-127278333D01*
X147972619Y-127290238D01*
X147984523Y-127302142D01*
X147996428Y-127325952D01*
X147996428Y-127385476D01*
X147984523Y-127409285D01*
X147972619Y-127421190D01*
X147948809Y-127433095D01*
X147877380Y-127433095D01*
X147853571Y-127421190D01*
X147841666Y-127409285D01*
D10*
%TO.C,R2*%
X150960714Y-131552380D02*
X150389285Y-131552380D01*
X150675000Y-131552380D02*
X150675000Y-130552380D01*
X150579761Y-130695238D01*
X150484523Y-130790476D01*
X150389285Y-130838095D01*
X151389285Y-131552380D02*
X151389285Y-130552380D01*
X151960714Y-131552380D02*
X151532142Y-130980952D01*
X151960714Y-130552380D02*
X151389285Y-131123809D01*
D11*
X151133333Y-129483095D02*
X151050000Y-129364047D01*
X150990476Y-129483095D02*
X150990476Y-129233095D01*
X151085714Y-129233095D01*
X151109523Y-129245000D01*
X151121428Y-129256904D01*
X151133333Y-129280714D01*
X151133333Y-129316428D01*
X151121428Y-129340238D01*
X151109523Y-129352142D01*
X151085714Y-129364047D01*
X150990476Y-129364047D01*
X151228571Y-129256904D02*
X151240476Y-129245000D01*
X151264285Y-129233095D01*
X151323809Y-129233095D01*
X151347619Y-129245000D01*
X151359523Y-129256904D01*
X151371428Y-129280714D01*
X151371428Y-129304523D01*
X151359523Y-129340238D01*
X151216666Y-129483095D01*
X151371428Y-129483095D01*
D10*
%TO.C,D2*%
X149038095Y-127402380D02*
X149038095Y-126402380D01*
X149276190Y-126402380D01*
X149419047Y-126450000D01*
X149514285Y-126545238D01*
X149561904Y-126640476D01*
X149609523Y-126830952D01*
X149609523Y-126973809D01*
X149561904Y-127164285D01*
X149514285Y-127259523D01*
X149419047Y-127354761D01*
X149276190Y-127402380D01*
X149038095Y-127402380D01*
D11*
X149115476Y-128793095D02*
X149115476Y-128543095D01*
X149175000Y-128543095D01*
X149210714Y-128555000D01*
X149234523Y-128578809D01*
X149246428Y-128602619D01*
X149258333Y-128650238D01*
X149258333Y-128685952D01*
X149246428Y-128733571D01*
X149234523Y-128757380D01*
X149210714Y-128781190D01*
X149175000Y-128793095D01*
X149115476Y-128793095D01*
X149353571Y-128566904D02*
X149365476Y-128555000D01*
X149389285Y-128543095D01*
X149448809Y-128543095D01*
X149472619Y-128555000D01*
X149484523Y-128566904D01*
X149496428Y-128590714D01*
X149496428Y-128614523D01*
X149484523Y-128650238D01*
X149341666Y-128793095D01*
X149496428Y-128793095D01*
D10*
%TO.C,D1*%
X151838095Y-130452380D02*
X151838095Y-129452380D01*
X152076190Y-129452380D01*
X152219047Y-129500000D01*
X152314285Y-129595238D01*
X152361904Y-129690476D01*
X152409523Y-129880952D01*
X152409523Y-130023809D01*
X152361904Y-130214285D01*
X152314285Y-130309523D01*
X152219047Y-130404761D01*
X152076190Y-130452380D01*
X151838095Y-130452380D01*
D11*
X151915476Y-131843095D02*
X151915476Y-131593095D01*
X151975000Y-131593095D01*
X152010714Y-131605000D01*
X152034523Y-131628809D01*
X152046428Y-131652619D01*
X152058333Y-131700238D01*
X152058333Y-131735952D01*
X152046428Y-131783571D01*
X152034523Y-131807380D01*
X152010714Y-131831190D01*
X151975000Y-131843095D01*
X151915476Y-131843095D01*
X152296428Y-131843095D02*
X152153571Y-131843095D01*
X152225000Y-131843095D02*
X152225000Y-131593095D01*
X152201190Y-131628809D01*
X152177380Y-131652619D01*
X152153571Y-131664523D01*
D10*
%TO.C,C19*%
X149777380Y-150767857D02*
X149777380Y-150672619D01*
X149825000Y-150577380D01*
X149872619Y-150529761D01*
X149967857Y-150482142D01*
X150158333Y-150434523D01*
X150396428Y-150434523D01*
X150586904Y-150482142D01*
X150682142Y-150529761D01*
X150729761Y-150577380D01*
X150777380Y-150672619D01*
X150777380Y-150767857D01*
X150729761Y-150863095D01*
X150682142Y-150910714D01*
X150586904Y-150958333D01*
X150396428Y-151005952D01*
X150158333Y-151005952D01*
X149967857Y-150958333D01*
X149872619Y-150910714D01*
X149825000Y-150863095D01*
X149777380Y-150767857D01*
X150682142Y-150005952D02*
X150729761Y-149958333D01*
X150777380Y-150005952D01*
X150729761Y-150053571D01*
X150682142Y-150005952D01*
X150777380Y-150005952D01*
X150777380Y-149005952D02*
X150777380Y-149577380D01*
X150777380Y-149291666D02*
X149777380Y-149291666D01*
X149920238Y-149386904D01*
X150015476Y-149482142D01*
X150063095Y-149577380D01*
X150110714Y-148148809D02*
X150777380Y-148148809D01*
X150110714Y-148577380D02*
X150634523Y-148577380D01*
X150729761Y-148529761D01*
X150777380Y-148434523D01*
X150777380Y-148291666D01*
X150729761Y-148196428D01*
X150682142Y-148148809D01*
X150253571Y-147339285D02*
X150253571Y-147672619D01*
X150777380Y-147672619D02*
X149777380Y-147672619D01*
X149777380Y-147196428D01*
D12*
X147839285Y-149510714D02*
X147867857Y-149539285D01*
X147896428Y-149625000D01*
X147896428Y-149682142D01*
X147867857Y-149767857D01*
X147810714Y-149825000D01*
X147753571Y-149853571D01*
X147639285Y-149882142D01*
X147553571Y-149882142D01*
X147439285Y-149853571D01*
X147382142Y-149825000D01*
X147325000Y-149767857D01*
X147296428Y-149682142D01*
X147296428Y-149625000D01*
X147325000Y-149539285D01*
X147353571Y-149510714D01*
X147896428Y-148939285D02*
X147896428Y-149282142D01*
X147896428Y-149110714D02*
X147296428Y-149110714D01*
X147382142Y-149167857D01*
X147439285Y-149225000D01*
X147467857Y-149282142D01*
X147896428Y-148653571D02*
X147896428Y-148539285D01*
X147867857Y-148482142D01*
X147839285Y-148453571D01*
X147753571Y-148396428D01*
X147639285Y-148367857D01*
X147410714Y-148367857D01*
X147353571Y-148396428D01*
X147325000Y-148425000D01*
X147296428Y-148482142D01*
X147296428Y-148596428D01*
X147325000Y-148653571D01*
X147353571Y-148682142D01*
X147410714Y-148710714D01*
X147553571Y-148710714D01*
X147610714Y-148682142D01*
X147639285Y-148653571D01*
X147667857Y-148596428D01*
X147667857Y-148482142D01*
X147639285Y-148425000D01*
X147610714Y-148396428D01*
X147553571Y-148367857D01*
D10*
%TO.C,C16*%
X135007142Y-131952380D02*
X135102380Y-131952380D01*
X135197619Y-132000000D01*
X135245238Y-132047619D01*
X135292857Y-132142857D01*
X135340476Y-132333333D01*
X135340476Y-132571428D01*
X135292857Y-132761904D01*
X135245238Y-132857142D01*
X135197619Y-132904761D01*
X135102380Y-132952380D01*
X135007142Y-132952380D01*
X134911904Y-132904761D01*
X134864285Y-132857142D01*
X134816666Y-132761904D01*
X134769047Y-132571428D01*
X134769047Y-132333333D01*
X134816666Y-132142857D01*
X134864285Y-132047619D01*
X134911904Y-132000000D01*
X135007142Y-131952380D01*
X135769047Y-132857142D02*
X135816666Y-132904761D01*
X135769047Y-132952380D01*
X135721428Y-132904761D01*
X135769047Y-132857142D01*
X135769047Y-132952380D01*
X136769047Y-132952380D02*
X136197619Y-132952380D01*
X136483333Y-132952380D02*
X136483333Y-131952380D01*
X136388095Y-132095238D01*
X136292857Y-132190476D01*
X136197619Y-132238095D01*
X137626190Y-132285714D02*
X137626190Y-132952380D01*
X137197619Y-132285714D02*
X137197619Y-132809523D01*
X137245238Y-132904761D01*
X137340476Y-132952380D01*
X137483333Y-132952380D01*
X137578571Y-132904761D01*
X137626190Y-132857142D01*
X138435714Y-132428571D02*
X138102380Y-132428571D01*
X138102380Y-132952380D02*
X138102380Y-131952380D01*
X138578571Y-131952380D01*
D12*
X136264285Y-135414285D02*
X136235714Y-135442857D01*
X136150000Y-135471428D01*
X136092857Y-135471428D01*
X136007142Y-135442857D01*
X135950000Y-135385714D01*
X135921428Y-135328571D01*
X135892857Y-135214285D01*
X135892857Y-135128571D01*
X135921428Y-135014285D01*
X135950000Y-134957142D01*
X136007142Y-134900000D01*
X136092857Y-134871428D01*
X136150000Y-134871428D01*
X136235714Y-134900000D01*
X136264285Y-134928571D01*
X136835714Y-135471428D02*
X136492857Y-135471428D01*
X136664285Y-135471428D02*
X136664285Y-134871428D01*
X136607142Y-134957142D01*
X136550000Y-135014285D01*
X136492857Y-135042857D01*
X137350000Y-134871428D02*
X137235714Y-134871428D01*
X137178571Y-134900000D01*
X137150000Y-134928571D01*
X137092857Y-135014285D01*
X137064285Y-135128571D01*
X137064285Y-135357142D01*
X137092857Y-135414285D01*
X137121428Y-135442857D01*
X137178571Y-135471428D01*
X137292857Y-135471428D01*
X137350000Y-135442857D01*
X137378571Y-135414285D01*
X137407142Y-135357142D01*
X137407142Y-135214285D01*
X137378571Y-135157142D01*
X137350000Y-135128571D01*
X137292857Y-135100000D01*
X137178571Y-135100000D01*
X137121428Y-135128571D01*
X137092857Y-135157142D01*
X137064285Y-135214285D01*
D10*
%TO.C,C15*%
X128653571Y-142127380D02*
X128082142Y-142127380D01*
X128367857Y-142127380D02*
X128367857Y-141127380D01*
X128272619Y-141270238D01*
X128177380Y-141365476D01*
X128082142Y-141413095D01*
X129272619Y-141127380D02*
X129367857Y-141127380D01*
X129463095Y-141175000D01*
X129510714Y-141222619D01*
X129558333Y-141317857D01*
X129605952Y-141508333D01*
X129605952Y-141746428D01*
X129558333Y-141936904D01*
X129510714Y-142032142D01*
X129463095Y-142079761D01*
X129367857Y-142127380D01*
X129272619Y-142127380D01*
X129177380Y-142079761D01*
X129129761Y-142032142D01*
X129082142Y-141936904D01*
X129034523Y-141746428D01*
X129034523Y-141508333D01*
X129082142Y-141317857D01*
X129129761Y-141222619D01*
X129177380Y-141175000D01*
X129272619Y-141127380D01*
X130463095Y-141460714D02*
X130463095Y-142127380D01*
X130034523Y-141460714D02*
X130034523Y-141984523D01*
X130082142Y-142079761D01*
X130177380Y-142127380D01*
X130320238Y-142127380D01*
X130415476Y-142079761D01*
X130463095Y-142032142D01*
X131272619Y-141603571D02*
X130939285Y-141603571D01*
X130939285Y-142127380D02*
X130939285Y-141127380D01*
X131415476Y-141127380D01*
D12*
X129339285Y-139189285D02*
X129310714Y-139217857D01*
X129225000Y-139246428D01*
X129167857Y-139246428D01*
X129082142Y-139217857D01*
X129025000Y-139160714D01*
X128996428Y-139103571D01*
X128967857Y-138989285D01*
X128967857Y-138903571D01*
X128996428Y-138789285D01*
X129025000Y-138732142D01*
X129082142Y-138675000D01*
X129167857Y-138646428D01*
X129225000Y-138646428D01*
X129310714Y-138675000D01*
X129339285Y-138703571D01*
X129910714Y-139246428D02*
X129567857Y-139246428D01*
X129739285Y-139246428D02*
X129739285Y-138646428D01*
X129682142Y-138732142D01*
X129625000Y-138789285D01*
X129567857Y-138817857D01*
X130453571Y-138646428D02*
X130167857Y-138646428D01*
X130139285Y-138932142D01*
X130167857Y-138903571D01*
X130225000Y-138875000D01*
X130367857Y-138875000D01*
X130425000Y-138903571D01*
X130453571Y-138932142D01*
X130482142Y-138989285D01*
X130482142Y-139132142D01*
X130453571Y-139189285D01*
X130425000Y-139217857D01*
X130367857Y-139246428D01*
X130225000Y-139246428D01*
X130167857Y-139217857D01*
X130139285Y-139189285D01*
D10*
%TO.C,C6*%
X153360714Y-143654761D02*
X154027380Y-143654761D01*
X152979761Y-143892857D02*
X153694047Y-144130952D01*
X153694047Y-143511904D01*
X153932142Y-143130952D02*
X153979761Y-143083333D01*
X154027380Y-143130952D01*
X153979761Y-143178571D01*
X153932142Y-143130952D01*
X154027380Y-143130952D01*
X153027380Y-142750000D02*
X153027380Y-142083333D01*
X154027380Y-142511904D01*
X153360714Y-141273809D02*
X154027380Y-141273809D01*
X153360714Y-141702380D02*
X153884523Y-141702380D01*
X153979761Y-141654761D01*
X154027380Y-141559523D01*
X154027380Y-141416666D01*
X153979761Y-141321428D01*
X153932142Y-141273809D01*
X153503571Y-140464285D02*
X153503571Y-140797619D01*
X154027380Y-140797619D02*
X153027380Y-140797619D01*
X153027380Y-140321428D01*
D12*
X151089285Y-142350000D02*
X151117857Y-142378571D01*
X151146428Y-142464285D01*
X151146428Y-142521428D01*
X151117857Y-142607142D01*
X151060714Y-142664285D01*
X151003571Y-142692857D01*
X150889285Y-142721428D01*
X150803571Y-142721428D01*
X150689285Y-142692857D01*
X150632142Y-142664285D01*
X150575000Y-142607142D01*
X150546428Y-142521428D01*
X150546428Y-142464285D01*
X150575000Y-142378571D01*
X150603571Y-142350000D01*
X150546428Y-141835714D02*
X150546428Y-141950000D01*
X150575000Y-142007142D01*
X150603571Y-142035714D01*
X150689285Y-142092857D01*
X150803571Y-142121428D01*
X151032142Y-142121428D01*
X151089285Y-142092857D01*
X151117857Y-142064285D01*
X151146428Y-142007142D01*
X151146428Y-141892857D01*
X151117857Y-141835714D01*
X151089285Y-141807142D01*
X151032142Y-141778571D01*
X150889285Y-141778571D01*
X150832142Y-141807142D01*
X150803571Y-141835714D01*
X150775000Y-141892857D01*
X150775000Y-142007142D01*
X150803571Y-142064285D01*
X150832142Y-142092857D01*
X150889285Y-142121428D01*
D10*
%TO.C,C5*%
X143527380Y-144392857D02*
X143527380Y-144297619D01*
X143575000Y-144202380D01*
X143622619Y-144154761D01*
X143717857Y-144107142D01*
X143908333Y-144059523D01*
X144146428Y-144059523D01*
X144336904Y-144107142D01*
X144432142Y-144154761D01*
X144479761Y-144202380D01*
X144527380Y-144297619D01*
X144527380Y-144392857D01*
X144479761Y-144488095D01*
X144432142Y-144535714D01*
X144336904Y-144583333D01*
X144146428Y-144630952D01*
X143908333Y-144630952D01*
X143717857Y-144583333D01*
X143622619Y-144535714D01*
X143575000Y-144488095D01*
X143527380Y-144392857D01*
X144432142Y-143630952D02*
X144479761Y-143583333D01*
X144527380Y-143630952D01*
X144479761Y-143678571D01*
X144432142Y-143630952D01*
X144527380Y-143630952D01*
X144527380Y-142630952D02*
X144527380Y-143202380D01*
X144527380Y-142916666D02*
X143527380Y-142916666D01*
X143670238Y-143011904D01*
X143765476Y-143107142D01*
X143813095Y-143202380D01*
X143860714Y-141773809D02*
X144527380Y-141773809D01*
X143860714Y-142202380D02*
X144384523Y-142202380D01*
X144479761Y-142154761D01*
X144527380Y-142059523D01*
X144527380Y-141916666D01*
X144479761Y-141821428D01*
X144432142Y-141773809D01*
X144003571Y-140964285D02*
X144003571Y-141297619D01*
X144527380Y-141297619D02*
X143527380Y-141297619D01*
X143527380Y-140821428D01*
D12*
X146989285Y-142850000D02*
X147017857Y-142878571D01*
X147046428Y-142964285D01*
X147046428Y-143021428D01*
X147017857Y-143107142D01*
X146960714Y-143164285D01*
X146903571Y-143192857D01*
X146789285Y-143221428D01*
X146703571Y-143221428D01*
X146589285Y-143192857D01*
X146532142Y-143164285D01*
X146475000Y-143107142D01*
X146446428Y-143021428D01*
X146446428Y-142964285D01*
X146475000Y-142878571D01*
X146503571Y-142850000D01*
X146446428Y-142307142D02*
X146446428Y-142592857D01*
X146732142Y-142621428D01*
X146703571Y-142592857D01*
X146675000Y-142535714D01*
X146675000Y-142392857D01*
X146703571Y-142335714D01*
X146732142Y-142307142D01*
X146789285Y-142278571D01*
X146932142Y-142278571D01*
X146989285Y-142307142D01*
X147017857Y-142335714D01*
X147046428Y-142392857D01*
X147046428Y-142535714D01*
X147017857Y-142592857D01*
X146989285Y-142621428D01*
D10*
%TO.C,C4*%
X143009523Y-153032142D02*
X142961904Y-153079761D01*
X142819047Y-153127380D01*
X142723809Y-153127380D01*
X142580952Y-153079761D01*
X142485714Y-152984523D01*
X142438095Y-152889285D01*
X142390476Y-152698809D01*
X142390476Y-152555952D01*
X142438095Y-152365476D01*
X142485714Y-152270238D01*
X142580952Y-152175000D01*
X142723809Y-152127380D01*
X142819047Y-152127380D01*
X142961904Y-152175000D01*
X143009523Y-152222619D01*
D12*
X142600000Y-150189285D02*
X142571428Y-150217857D01*
X142485714Y-150246428D01*
X142428571Y-150246428D01*
X142342857Y-150217857D01*
X142285714Y-150160714D01*
X142257142Y-150103571D01*
X142228571Y-149989285D01*
X142228571Y-149903571D01*
X142257142Y-149789285D01*
X142285714Y-149732142D01*
X142342857Y-149675000D01*
X142428571Y-149646428D01*
X142485714Y-149646428D01*
X142571428Y-149675000D01*
X142600000Y-149703571D01*
X143114285Y-149846428D02*
X143114285Y-150246428D01*
X142971428Y-149617857D02*
X142828571Y-150046428D01*
X143200000Y-150046428D01*
D10*
%TO.C,C3*%
X131034523Y-146807142D02*
X130986904Y-146854761D01*
X130844047Y-146902380D01*
X130748809Y-146902380D01*
X130605952Y-146854761D01*
X130510714Y-146759523D01*
X130463095Y-146664285D01*
X130415476Y-146473809D01*
X130415476Y-146330952D01*
X130463095Y-146140476D01*
X130510714Y-146045238D01*
X130605952Y-145950000D01*
X130748809Y-145902380D01*
X130844047Y-145902380D01*
X130986904Y-145950000D01*
X131034523Y-145997619D01*
D12*
X130625000Y-149364285D02*
X130596428Y-149392857D01*
X130510714Y-149421428D01*
X130453571Y-149421428D01*
X130367857Y-149392857D01*
X130310714Y-149335714D01*
X130282142Y-149278571D01*
X130253571Y-149164285D01*
X130253571Y-149078571D01*
X130282142Y-148964285D01*
X130310714Y-148907142D01*
X130367857Y-148850000D01*
X130453571Y-148821428D01*
X130510714Y-148821428D01*
X130596428Y-148850000D01*
X130625000Y-148878571D01*
X130825000Y-148821428D02*
X131196428Y-148821428D01*
X130996428Y-149050000D01*
X131082142Y-149050000D01*
X131139285Y-149078571D01*
X131167857Y-149107142D01*
X131196428Y-149164285D01*
X131196428Y-149307142D01*
X131167857Y-149364285D01*
X131139285Y-149392857D01*
X131082142Y-149421428D01*
X130910714Y-149421428D01*
X130853571Y-149392857D01*
X130825000Y-149364285D01*
D10*
%TO.C,R1*%
X131562380Y-133380952D02*
X131562380Y-133857142D01*
X132038571Y-133904761D01*
X131990952Y-133857142D01*
X131943333Y-133761904D01*
X131943333Y-133523809D01*
X131990952Y-133428571D01*
X132038571Y-133380952D01*
X132133809Y-133333333D01*
X132371904Y-133333333D01*
X132467142Y-133380952D01*
X132514761Y-133428571D01*
X132562380Y-133523809D01*
X132562380Y-133761904D01*
X132514761Y-133857142D01*
X132467142Y-133904761D01*
X132467142Y-132904761D02*
X132514761Y-132857142D01*
X132562380Y-132904761D01*
X132514761Y-132952380D01*
X132467142Y-132904761D01*
X132562380Y-132904761D01*
X132562380Y-131904761D02*
X132562380Y-132476190D01*
X132562380Y-132190476D02*
X131562380Y-132190476D01*
X131705238Y-132285714D01*
X131800476Y-132380952D01*
X131848095Y-132476190D01*
X132562380Y-131476190D02*
X131562380Y-131476190D01*
X132181428Y-131380952D02*
X132562380Y-131095238D01*
X131895714Y-131095238D02*
X132276666Y-131476190D01*
X133992380Y-132666666D02*
X133516190Y-133000000D01*
X133992380Y-133238095D02*
X132992380Y-133238095D01*
X132992380Y-132857142D01*
X133040000Y-132761904D01*
X133087619Y-132714285D01*
X133182857Y-132666666D01*
X133325714Y-132666666D01*
X133420952Y-132714285D01*
X133468571Y-132761904D01*
X133516190Y-132857142D01*
X133516190Y-133238095D01*
X133992380Y-131714285D02*
X133992380Y-132285714D01*
X133992380Y-132000000D02*
X132992380Y-132000000D01*
X133135238Y-132095238D01*
X133230476Y-132190476D01*
X133278095Y-132285714D01*
%TO.C,C2*%
X129428571Y-134574380D02*
X128857142Y-134574380D01*
X129142857Y-134574380D02*
X129142857Y-133574380D01*
X129047619Y-133717238D01*
X128952380Y-133812476D01*
X128857142Y-133860095D01*
X130047619Y-133574380D02*
X130142857Y-133574380D01*
X130238095Y-133622000D01*
X130285714Y-133669619D01*
X130333333Y-133764857D01*
X130380952Y-133955333D01*
X130380952Y-134193428D01*
X130333333Y-134383904D01*
X130285714Y-134479142D01*
X130238095Y-134526761D01*
X130142857Y-134574380D01*
X130047619Y-134574380D01*
X129952380Y-134526761D01*
X129904761Y-134479142D01*
X129857142Y-134383904D01*
X129809523Y-134193428D01*
X129809523Y-133955333D01*
X129857142Y-133764857D01*
X129904761Y-133669619D01*
X129952380Y-133622000D01*
X130047619Y-133574380D01*
X131238095Y-133907714D02*
X131238095Y-134574380D01*
X130809523Y-133907714D02*
X130809523Y-134431523D01*
X130857142Y-134526761D01*
X130952380Y-134574380D01*
X131095238Y-134574380D01*
X131190476Y-134526761D01*
X131238095Y-134479142D01*
X132047619Y-134050571D02*
X131714285Y-134050571D01*
X131714285Y-134574380D02*
X131714285Y-133574380D01*
X132190476Y-133574380D01*
X130333333Y-136159142D02*
X130285714Y-136206761D01*
X130142857Y-136254380D01*
X130047619Y-136254380D01*
X129904761Y-136206761D01*
X129809523Y-136111523D01*
X129761904Y-136016285D01*
X129714285Y-135825809D01*
X129714285Y-135682952D01*
X129761904Y-135492476D01*
X129809523Y-135397238D01*
X129904761Y-135302000D01*
X130047619Y-135254380D01*
X130142857Y-135254380D01*
X130285714Y-135302000D01*
X130333333Y-135349619D01*
X130714285Y-135349619D02*
X130761904Y-135302000D01*
X130857142Y-135254380D01*
X131095238Y-135254380D01*
X131190476Y-135302000D01*
X131238095Y-135349619D01*
X131285714Y-135444857D01*
X131285714Y-135540095D01*
X131238095Y-135682952D01*
X130666666Y-136254380D01*
X131285714Y-136254380D01*
%TO.C,U1*%
X127766666Y-137452380D02*
X127766666Y-136976190D01*
X128052380Y-137547619D02*
X127052380Y-137214285D01*
X128052380Y-136880952D01*
X128052380Y-136547619D02*
X127052380Y-136547619D01*
X127052380Y-136166666D01*
X127100000Y-136071428D01*
X127147619Y-136023809D01*
X127242857Y-135976190D01*
X127385714Y-135976190D01*
X127480952Y-136023809D01*
X127528571Y-136071428D01*
X127576190Y-136166666D01*
X127576190Y-136547619D01*
X127147619Y-135595238D02*
X127100000Y-135547619D01*
X127052380Y-135452380D01*
X127052380Y-135214285D01*
X127100000Y-135119047D01*
X127147619Y-135071428D01*
X127242857Y-135023809D01*
X127338095Y-135023809D01*
X127480952Y-135071428D01*
X128052380Y-135642857D01*
X128052380Y-135023809D01*
X128052380Y-134071428D02*
X128052380Y-134642857D01*
X128052380Y-134357142D02*
X127052380Y-134357142D01*
X127195238Y-134452380D01*
X127290476Y-134547619D01*
X127338095Y-134642857D01*
X128052380Y-133119047D02*
X128052380Y-133690476D01*
X128052380Y-133404761D02*
X127052380Y-133404761D01*
X127195238Y-133500000D01*
X127290476Y-133595238D01*
X127338095Y-133690476D01*
X127147619Y-132738095D02*
X127100000Y-132690476D01*
X127052380Y-132595238D01*
X127052380Y-132357142D01*
X127100000Y-132261904D01*
X127147619Y-132214285D01*
X127242857Y-132166666D01*
X127338095Y-132166666D01*
X127480952Y-132214285D01*
X128052380Y-132785714D01*
X128052380Y-132166666D01*
X128052380Y-131738095D02*
X127052380Y-131738095D01*
X128052380Y-131166666D02*
X127480952Y-131595238D01*
X127052380Y-131166666D02*
X127623809Y-131738095D01*
X127671428Y-130738095D02*
X127671428Y-129976190D01*
X127052380Y-129595238D02*
X127052380Y-128976190D01*
X127433333Y-129309523D01*
X127433333Y-129166666D01*
X127480952Y-129071428D01*
X127528571Y-129023809D01*
X127623809Y-128976190D01*
X127861904Y-128976190D01*
X127957142Y-129023809D01*
X128004761Y-129071428D01*
X128052380Y-129166666D01*
X128052380Y-129452380D01*
X128004761Y-129547619D01*
X127957142Y-129595238D01*
X127957142Y-128547619D02*
X128004761Y-128500000D01*
X128052380Y-128547619D01*
X128004761Y-128595238D01*
X127957142Y-128547619D01*
X128052380Y-128547619D01*
X127052380Y-128166666D02*
X127052380Y-127547619D01*
X127433333Y-127880952D01*
X127433333Y-127738095D01*
X127480952Y-127642857D01*
X127528571Y-127595238D01*
X127623809Y-127547619D01*
X127861904Y-127547619D01*
X127957142Y-127595238D01*
X128004761Y-127642857D01*
X128052380Y-127738095D01*
X128052380Y-128023809D01*
X128004761Y-128119047D01*
X127957142Y-128166666D01*
X129738095Y-132032380D02*
X129738095Y-132841904D01*
X129785714Y-132937142D01*
X129833333Y-132984761D01*
X129928571Y-133032380D01*
X130119047Y-133032380D01*
X130214285Y-132984761D01*
X130261904Y-132937142D01*
X130309523Y-132841904D01*
X130309523Y-132032380D01*
X131309523Y-133032380D02*
X130738095Y-133032380D01*
X131023809Y-133032380D02*
X131023809Y-132032380D01*
X130928571Y-132175238D01*
X130833333Y-132270476D01*
X130738095Y-132318095D01*
%TO.C,C1*%
X129428571Y-127970380D02*
X128857142Y-127970380D01*
X129142857Y-127970380D02*
X129142857Y-126970380D01*
X129047619Y-127113238D01*
X128952380Y-127208476D01*
X128857142Y-127256095D01*
X130047619Y-126970380D02*
X130142857Y-126970380D01*
X130238095Y-127018000D01*
X130285714Y-127065619D01*
X130333333Y-127160857D01*
X130380952Y-127351333D01*
X130380952Y-127589428D01*
X130333333Y-127779904D01*
X130285714Y-127875142D01*
X130238095Y-127922761D01*
X130142857Y-127970380D01*
X130047619Y-127970380D01*
X129952380Y-127922761D01*
X129904761Y-127875142D01*
X129857142Y-127779904D01*
X129809523Y-127589428D01*
X129809523Y-127351333D01*
X129857142Y-127160857D01*
X129904761Y-127065619D01*
X129952380Y-127018000D01*
X130047619Y-126970380D01*
X131238095Y-127303714D02*
X131238095Y-127970380D01*
X130809523Y-127303714D02*
X130809523Y-127827523D01*
X130857142Y-127922761D01*
X130952380Y-127970380D01*
X131095238Y-127970380D01*
X131190476Y-127922761D01*
X131238095Y-127875142D01*
X132047619Y-127446571D02*
X131714285Y-127446571D01*
X131714285Y-127970380D02*
X131714285Y-126970380D01*
X132190476Y-126970380D01*
X130333333Y-129555142D02*
X130285714Y-129602761D01*
X130142857Y-129650380D01*
X130047619Y-129650380D01*
X129904761Y-129602761D01*
X129809523Y-129507523D01*
X129761904Y-129412285D01*
X129714285Y-129221809D01*
X129714285Y-129078952D01*
X129761904Y-128888476D01*
X129809523Y-128793238D01*
X129904761Y-128698000D01*
X130047619Y-128650380D01*
X130142857Y-128650380D01*
X130285714Y-128698000D01*
X130333333Y-128745619D01*
X131285714Y-129650380D02*
X130714285Y-129650380D01*
X131000000Y-129650380D02*
X131000000Y-128650380D01*
X130904761Y-128793238D01*
X130809523Y-128888476D01*
X130714285Y-128936095D01*
%TO.C,P1*%
X132738095Y-126492380D02*
X132738095Y-127301904D01*
X132785714Y-127397142D01*
X132833333Y-127444761D01*
X132928571Y-127492380D01*
X133119047Y-127492380D01*
X133214285Y-127444761D01*
X133261904Y-127397142D01*
X133309523Y-127301904D01*
X133309523Y-126492380D01*
X133738095Y-127444761D02*
X133880952Y-127492380D01*
X134119047Y-127492380D01*
X134214285Y-127444761D01*
X134261904Y-127397142D01*
X134309523Y-127301904D01*
X134309523Y-127206666D01*
X134261904Y-127111428D01*
X134214285Y-127063809D01*
X134119047Y-127016190D01*
X133928571Y-126968571D01*
X133833333Y-126920952D01*
X133785714Y-126873333D01*
X133738095Y-126778095D01*
X133738095Y-126682857D01*
X133785714Y-126587619D01*
X133833333Y-126540000D01*
X133928571Y-126492380D01*
X134166666Y-126492380D01*
X134309523Y-126540000D01*
X135071428Y-126968571D02*
X135214285Y-127016190D01*
X135261904Y-127063809D01*
X135309523Y-127159047D01*
X135309523Y-127301904D01*
X135261904Y-127397142D01*
X135214285Y-127444761D01*
X135119047Y-127492380D01*
X134738095Y-127492380D01*
X134738095Y-126492380D01*
X135071428Y-126492380D01*
X135166666Y-126540000D01*
X135214285Y-126587619D01*
X135261904Y-126682857D01*
X135261904Y-126778095D01*
X135214285Y-126873333D01*
X135166666Y-126920952D01*
X135071428Y-126968571D01*
X134738095Y-126968571D01*
X135500000Y-127587619D02*
X136261904Y-127587619D01*
X137071428Y-127397142D02*
X137023809Y-127444761D01*
X136880952Y-127492380D01*
X136785714Y-127492380D01*
X136642857Y-127444761D01*
X136547619Y-127349523D01*
X136500000Y-127254285D01*
X136452380Y-127063809D01*
X136452380Y-126920952D01*
X136500000Y-126730476D01*
X136547619Y-126635238D01*
X136642857Y-126540000D01*
X136785714Y-126492380D01*
X136880952Y-126492380D01*
X137023809Y-126540000D01*
X137071428Y-126587619D01*
X137261904Y-127587619D02*
X138023809Y-127587619D01*
X138261904Y-127492380D02*
X138261904Y-126492380D01*
X138642857Y-126492380D01*
X138738095Y-126540000D01*
X138785714Y-126587619D01*
X138833333Y-126682857D01*
X138833333Y-126825714D01*
X138785714Y-126920952D01*
X138738095Y-126968571D01*
X138642857Y-127016190D01*
X138261904Y-127016190D01*
X139404761Y-127492380D02*
X139309523Y-127444761D01*
X139261904Y-127349523D01*
X139261904Y-126492380D01*
X140214285Y-126825714D02*
X140214285Y-127492380D01*
X139785714Y-126825714D02*
X139785714Y-127349523D01*
X139833333Y-127444761D01*
X139928571Y-127492380D01*
X140071428Y-127492380D01*
X140166666Y-127444761D01*
X140214285Y-127397142D01*
X141119047Y-126825714D02*
X141119047Y-127635238D01*
X141071428Y-127730476D01*
X141023809Y-127778095D01*
X140928571Y-127825714D01*
X140785714Y-127825714D01*
X140690476Y-127778095D01*
X141119047Y-127444761D02*
X141023809Y-127492380D01*
X140833333Y-127492380D01*
X140738095Y-127444761D01*
X140690476Y-127397142D01*
X140642857Y-127301904D01*
X140642857Y-127016190D01*
X140690476Y-126920952D01*
X140738095Y-126873333D01*
X140833333Y-126825714D01*
X141023809Y-126825714D01*
X141119047Y-126873333D01*
X141357142Y-127587619D02*
X142119047Y-127587619D01*
X142357142Y-126492380D02*
X142357142Y-127301904D01*
X142404761Y-127397142D01*
X142452380Y-127444761D01*
X142547619Y-127492380D01*
X142738095Y-127492380D01*
X142833333Y-127444761D01*
X142880952Y-127397142D01*
X142928571Y-127301904D01*
X142928571Y-126492380D01*
X143357142Y-127444761D02*
X143500000Y-127492380D01*
X143738095Y-127492380D01*
X143833333Y-127444761D01*
X143880952Y-127397142D01*
X143928571Y-127301904D01*
X143928571Y-127206666D01*
X143880952Y-127111428D01*
X143833333Y-127063809D01*
X143738095Y-127016190D01*
X143547619Y-126968571D01*
X143452380Y-126920952D01*
X143404761Y-126873333D01*
X143357142Y-126778095D01*
X143357142Y-126682857D01*
X143404761Y-126587619D01*
X143452380Y-126540000D01*
X143547619Y-126492380D01*
X143785714Y-126492380D01*
X143928571Y-126540000D01*
X144690476Y-126968571D02*
X144833333Y-127016190D01*
X144880952Y-127063809D01*
X144928571Y-127159047D01*
X144928571Y-127301904D01*
X144880952Y-127397142D01*
X144833333Y-127444761D01*
X144738095Y-127492380D01*
X144357142Y-127492380D01*
X144357142Y-126492380D01*
X144690476Y-126492380D01*
X144785714Y-126540000D01*
X144833333Y-126587619D01*
X144880952Y-126682857D01*
X144880952Y-126778095D01*
X144833333Y-126873333D01*
X144785714Y-126920952D01*
X144690476Y-126968571D01*
X144357142Y-126968571D01*
X145309523Y-126587619D02*
X145357142Y-126540000D01*
X145452380Y-126492380D01*
X145690476Y-126492380D01*
X145785714Y-126540000D01*
X145833333Y-126587619D01*
X145880952Y-126682857D01*
X145880952Y-126778095D01*
X145833333Y-126920952D01*
X145261904Y-127492380D01*
X145880952Y-127492380D01*
X146309523Y-127397142D02*
X146357142Y-127444761D01*
X146309523Y-127492380D01*
X146261904Y-127444761D01*
X146309523Y-127397142D01*
X146309523Y-127492380D01*
X146976190Y-126492380D02*
X147071428Y-126492380D01*
X147166666Y-126540000D01*
X147214285Y-126587619D01*
X147261904Y-126682857D01*
X147309523Y-126873333D01*
X147309523Y-127111428D01*
X147261904Y-127301904D01*
X147214285Y-127397142D01*
X147166666Y-127444761D01*
X147071428Y-127492380D01*
X146976190Y-127492380D01*
X146880952Y-127444761D01*
X146833333Y-127397142D01*
X146785714Y-127301904D01*
X146738095Y-127111428D01*
X146738095Y-126873333D01*
X146785714Y-126682857D01*
X146833333Y-126587619D01*
X146880952Y-126540000D01*
X146976190Y-126492380D01*
%TO.C,H1*%
X124014285Y-143477380D02*
X124014285Y-142477380D01*
X124347619Y-143191666D01*
X124680952Y-142477380D01*
X124680952Y-143477380D01*
X125300000Y-143477380D02*
X125204761Y-143429761D01*
X125157142Y-143382142D01*
X125109523Y-143286904D01*
X125109523Y-143001190D01*
X125157142Y-142905952D01*
X125204761Y-142858333D01*
X125300000Y-142810714D01*
X125442857Y-142810714D01*
X125538095Y-142858333D01*
X125585714Y-142905952D01*
X125633333Y-143001190D01*
X125633333Y-143286904D01*
X125585714Y-143382142D01*
X125538095Y-143429761D01*
X125442857Y-143477380D01*
X125300000Y-143477380D01*
X126490476Y-142810714D02*
X126490476Y-143477380D01*
X126061904Y-142810714D02*
X126061904Y-143334523D01*
X126109523Y-143429761D01*
X126204761Y-143477380D01*
X126347619Y-143477380D01*
X126442857Y-143429761D01*
X126490476Y-143382142D01*
X126966666Y-142810714D02*
X126966666Y-143477380D01*
X126966666Y-142905952D02*
X127014285Y-142858333D01*
X127109523Y-142810714D01*
X127252380Y-142810714D01*
X127347619Y-142858333D01*
X127395238Y-142953571D01*
X127395238Y-143477380D01*
X127728571Y-142810714D02*
X128109523Y-142810714D01*
X127871428Y-142477380D02*
X127871428Y-143334523D01*
X127919047Y-143429761D01*
X128014285Y-143477380D01*
X128109523Y-143477380D01*
X128442857Y-143477380D02*
X128442857Y-142810714D01*
X128442857Y-142477380D02*
X128395238Y-142525000D01*
X128442857Y-142572619D01*
X128490476Y-142525000D01*
X128442857Y-142477380D01*
X128442857Y-142572619D01*
X128919047Y-142810714D02*
X128919047Y-143477380D01*
X128919047Y-142905952D02*
X128966666Y-142858333D01*
X129061904Y-142810714D01*
X129204761Y-142810714D01*
X129300000Y-142858333D01*
X129347619Y-142953571D01*
X129347619Y-143477380D01*
X130252380Y-142810714D02*
X130252380Y-143620238D01*
X130204761Y-143715476D01*
X130157142Y-143763095D01*
X130061904Y-143810714D01*
X129919047Y-143810714D01*
X129823809Y-143763095D01*
X130252380Y-143429761D02*
X130157142Y-143477380D01*
X129966666Y-143477380D01*
X129871428Y-143429761D01*
X129823809Y-143382142D01*
X129776190Y-143286904D01*
X129776190Y-143001190D01*
X129823809Y-142905952D01*
X129871428Y-142858333D01*
X129966666Y-142810714D01*
X130157142Y-142810714D01*
X130252380Y-142858333D01*
X130728571Y-143477380D02*
X130728571Y-142477380D01*
X130728571Y-142953571D02*
X131300000Y-142953571D01*
X131300000Y-143477380D02*
X131300000Y-142477380D01*
X131919047Y-143477380D02*
X131823809Y-143429761D01*
X131776190Y-143382142D01*
X131728571Y-143286904D01*
X131728571Y-143001190D01*
X131776190Y-142905952D01*
X131823809Y-142858333D01*
X131919047Y-142810714D01*
X132061904Y-142810714D01*
X132157142Y-142858333D01*
X132204761Y-142905952D01*
X132252380Y-143001190D01*
X132252380Y-143286904D01*
X132204761Y-143382142D01*
X132157142Y-143429761D01*
X132061904Y-143477380D01*
X131919047Y-143477380D01*
X132823809Y-143477380D02*
X132728571Y-143429761D01*
X132680952Y-143334523D01*
X132680952Y-142477380D01*
X133585714Y-143429761D02*
X133490476Y-143477380D01*
X133300000Y-143477380D01*
X133204761Y-143429761D01*
X133157142Y-143334523D01*
X133157142Y-142953571D01*
X133204761Y-142858333D01*
X133300000Y-142810714D01*
X133490476Y-142810714D01*
X133585714Y-142858333D01*
X133633333Y-142953571D01*
X133633333Y-143048809D01*
X133157142Y-143144047D01*
X128238095Y-146952380D02*
X128238095Y-145952380D01*
X128238095Y-146428571D02*
X128809523Y-146428571D01*
X128809523Y-146952380D02*
X128809523Y-145952380D01*
X129809523Y-146952380D02*
X129238095Y-146952380D01*
X129523809Y-146952380D02*
X129523809Y-145952380D01*
X129428571Y-146095238D01*
X129333333Y-146190476D01*
X129238095Y-146238095D01*
%TO.C,H2*%
X143389285Y-140102380D02*
X143389285Y-139102380D01*
X143722619Y-139816666D01*
X144055952Y-139102380D01*
X144055952Y-140102380D01*
X144675000Y-140102380D02*
X144579761Y-140054761D01*
X144532142Y-140007142D01*
X144484523Y-139911904D01*
X144484523Y-139626190D01*
X144532142Y-139530952D01*
X144579761Y-139483333D01*
X144675000Y-139435714D01*
X144817857Y-139435714D01*
X144913095Y-139483333D01*
X144960714Y-139530952D01*
X145008333Y-139626190D01*
X145008333Y-139911904D01*
X144960714Y-140007142D01*
X144913095Y-140054761D01*
X144817857Y-140102380D01*
X144675000Y-140102380D01*
X145865476Y-139435714D02*
X145865476Y-140102380D01*
X145436904Y-139435714D02*
X145436904Y-139959523D01*
X145484523Y-140054761D01*
X145579761Y-140102380D01*
X145722619Y-140102380D01*
X145817857Y-140054761D01*
X145865476Y-140007142D01*
X146341666Y-139435714D02*
X146341666Y-140102380D01*
X146341666Y-139530952D02*
X146389285Y-139483333D01*
X146484523Y-139435714D01*
X146627380Y-139435714D01*
X146722619Y-139483333D01*
X146770238Y-139578571D01*
X146770238Y-140102380D01*
X147103571Y-139435714D02*
X147484523Y-139435714D01*
X147246428Y-139102380D02*
X147246428Y-139959523D01*
X147294047Y-140054761D01*
X147389285Y-140102380D01*
X147484523Y-140102380D01*
X147817857Y-140102380D02*
X147817857Y-139435714D01*
X147817857Y-139102380D02*
X147770238Y-139150000D01*
X147817857Y-139197619D01*
X147865476Y-139150000D01*
X147817857Y-139102380D01*
X147817857Y-139197619D01*
X148294047Y-139435714D02*
X148294047Y-140102380D01*
X148294047Y-139530952D02*
X148341666Y-139483333D01*
X148436904Y-139435714D01*
X148579761Y-139435714D01*
X148675000Y-139483333D01*
X148722619Y-139578571D01*
X148722619Y-140102380D01*
X149627380Y-139435714D02*
X149627380Y-140245238D01*
X149579761Y-140340476D01*
X149532142Y-140388095D01*
X149436904Y-140435714D01*
X149294047Y-140435714D01*
X149198809Y-140388095D01*
X149627380Y-140054761D02*
X149532142Y-140102380D01*
X149341666Y-140102380D01*
X149246428Y-140054761D01*
X149198809Y-140007142D01*
X149151190Y-139911904D01*
X149151190Y-139626190D01*
X149198809Y-139530952D01*
X149246428Y-139483333D01*
X149341666Y-139435714D01*
X149532142Y-139435714D01*
X149627380Y-139483333D01*
X150103571Y-140102380D02*
X150103571Y-139102380D01*
X150103571Y-139578571D02*
X150675000Y-139578571D01*
X150675000Y-140102380D02*
X150675000Y-139102380D01*
X151294047Y-140102380D02*
X151198809Y-140054761D01*
X151151190Y-140007142D01*
X151103571Y-139911904D01*
X151103571Y-139626190D01*
X151151190Y-139530952D01*
X151198809Y-139483333D01*
X151294047Y-139435714D01*
X151436904Y-139435714D01*
X151532142Y-139483333D01*
X151579761Y-139530952D01*
X151627380Y-139626190D01*
X151627380Y-139911904D01*
X151579761Y-140007142D01*
X151532142Y-140054761D01*
X151436904Y-140102380D01*
X151294047Y-140102380D01*
X152198809Y-140102380D02*
X152103571Y-140054761D01*
X152055952Y-139959523D01*
X152055952Y-139102380D01*
X152960714Y-140054761D02*
X152865476Y-140102380D01*
X152675000Y-140102380D01*
X152579761Y-140054761D01*
X152532142Y-139959523D01*
X152532142Y-139578571D01*
X152579761Y-139483333D01*
X152675000Y-139435714D01*
X152865476Y-139435714D01*
X152960714Y-139483333D01*
X153008333Y-139578571D01*
X153008333Y-139673809D01*
X152532142Y-139769047D01*
X150838095Y-146952380D02*
X150838095Y-145952380D01*
X150838095Y-146428571D02*
X151409523Y-146428571D01*
X151409523Y-146952380D02*
X151409523Y-145952380D01*
X151838095Y-146047619D02*
X151885714Y-146000000D01*
X151980952Y-145952380D01*
X152219047Y-145952380D01*
X152314285Y-146000000D01*
X152361904Y-146047619D01*
X152409523Y-146142857D01*
X152409523Y-146238095D01*
X152361904Y-146380952D01*
X151790476Y-146952380D01*
X152409523Y-146952380D01*
%TO.C,TP1*%
X130966666Y-129202380D02*
X131538095Y-129202380D01*
X131252380Y-130202380D02*
X131252380Y-129202380D01*
X132252380Y-130154761D02*
X132157142Y-130202380D01*
X131966666Y-130202380D01*
X131871428Y-130154761D01*
X131823809Y-130059523D01*
X131823809Y-129678571D01*
X131871428Y-129583333D01*
X131966666Y-129535714D01*
X132157142Y-129535714D01*
X132252380Y-129583333D01*
X132300000Y-129678571D01*
X132300000Y-129773809D01*
X131823809Y-129869047D01*
X132680952Y-130154761D02*
X132776190Y-130202380D01*
X132966666Y-130202380D01*
X133061904Y-130154761D01*
X133109523Y-130059523D01*
X133109523Y-130011904D01*
X133061904Y-129916666D01*
X132966666Y-129869047D01*
X132823809Y-129869047D01*
X132728571Y-129821428D01*
X132680952Y-129726190D01*
X132680952Y-129678571D01*
X132728571Y-129583333D01*
X132823809Y-129535714D01*
X132966666Y-129535714D01*
X133061904Y-129583333D01*
X133395238Y-129535714D02*
X133776190Y-129535714D01*
X133538095Y-129202380D02*
X133538095Y-130059523D01*
X133585714Y-130154761D01*
X133680952Y-130202380D01*
X133776190Y-130202380D01*
X134109523Y-130202380D02*
X134109523Y-129202380D01*
X134490476Y-129202380D01*
X134585714Y-129250000D01*
X134633333Y-129297619D01*
X134680952Y-129392857D01*
X134680952Y-129535714D01*
X134633333Y-129630952D01*
X134585714Y-129678571D01*
X134490476Y-129726190D01*
X134109523Y-129726190D01*
X135252380Y-130202380D02*
X135157142Y-130154761D01*
X135109523Y-130107142D01*
X135061904Y-130011904D01*
X135061904Y-129726190D01*
X135109523Y-129630952D01*
X135157142Y-129583333D01*
X135252380Y-129535714D01*
X135395238Y-129535714D01*
X135490476Y-129583333D01*
X135538095Y-129630952D01*
X135585714Y-129726190D01*
X135585714Y-130011904D01*
X135538095Y-130107142D01*
X135490476Y-130154761D01*
X135395238Y-130202380D01*
X135252380Y-130202380D01*
X136014285Y-130202380D02*
X136014285Y-129535714D01*
X136014285Y-129202380D02*
X135966666Y-129250000D01*
X136014285Y-129297619D01*
X136061904Y-129250000D01*
X136014285Y-129202380D01*
X136014285Y-129297619D01*
X136490476Y-129535714D02*
X136490476Y-130202380D01*
X136490476Y-129630952D02*
X136538095Y-129583333D01*
X136633333Y-129535714D01*
X136776190Y-129535714D01*
X136871428Y-129583333D01*
X136919047Y-129678571D01*
X136919047Y-130202380D01*
X137252380Y-129535714D02*
X137633333Y-129535714D01*
X137395238Y-129202380D02*
X137395238Y-130059523D01*
X137442857Y-130154761D01*
X137538095Y-130202380D01*
X137633333Y-130202380D01*
X133038095Y-125802380D02*
X133609523Y-125802380D01*
X133323809Y-126802380D02*
X133323809Y-125802380D01*
X133942857Y-126802380D02*
X133942857Y-125802380D01*
X134323809Y-125802380D01*
X134419047Y-125850000D01*
X134466666Y-125897619D01*
X134514285Y-125992857D01*
X134514285Y-126135714D01*
X134466666Y-126230952D01*
X134419047Y-126278571D01*
X134323809Y-126326190D01*
X133942857Y-126326190D01*
X135466666Y-126802380D02*
X134895238Y-126802380D01*
X135180952Y-126802380D02*
X135180952Y-125802380D01*
X135085714Y-125945238D01*
X134990476Y-126040476D01*
X134895238Y-126088095D01*
%TO.C,TP3*%
X142366666Y-129202380D02*
X142938095Y-129202380D01*
X142652380Y-130202380D02*
X142652380Y-129202380D01*
X143652380Y-130154761D02*
X143557142Y-130202380D01*
X143366666Y-130202380D01*
X143271428Y-130154761D01*
X143223809Y-130059523D01*
X143223809Y-129678571D01*
X143271428Y-129583333D01*
X143366666Y-129535714D01*
X143557142Y-129535714D01*
X143652380Y-129583333D01*
X143700000Y-129678571D01*
X143700000Y-129773809D01*
X143223809Y-129869047D01*
X144080952Y-130154761D02*
X144176190Y-130202380D01*
X144366666Y-130202380D01*
X144461904Y-130154761D01*
X144509523Y-130059523D01*
X144509523Y-130011904D01*
X144461904Y-129916666D01*
X144366666Y-129869047D01*
X144223809Y-129869047D01*
X144128571Y-129821428D01*
X144080952Y-129726190D01*
X144080952Y-129678571D01*
X144128571Y-129583333D01*
X144223809Y-129535714D01*
X144366666Y-129535714D01*
X144461904Y-129583333D01*
X144795238Y-129535714D02*
X145176190Y-129535714D01*
X144938095Y-129202380D02*
X144938095Y-130059523D01*
X144985714Y-130154761D01*
X145080952Y-130202380D01*
X145176190Y-130202380D01*
X145509523Y-130202380D02*
X145509523Y-129202380D01*
X145890476Y-129202380D01*
X145985714Y-129250000D01*
X146033333Y-129297619D01*
X146080952Y-129392857D01*
X146080952Y-129535714D01*
X146033333Y-129630952D01*
X145985714Y-129678571D01*
X145890476Y-129726190D01*
X145509523Y-129726190D01*
X146652380Y-130202380D02*
X146557142Y-130154761D01*
X146509523Y-130107142D01*
X146461904Y-130011904D01*
X146461904Y-129726190D01*
X146509523Y-129630952D01*
X146557142Y-129583333D01*
X146652380Y-129535714D01*
X146795238Y-129535714D01*
X146890476Y-129583333D01*
X146938095Y-129630952D01*
X146985714Y-129726190D01*
X146985714Y-130011904D01*
X146938095Y-130107142D01*
X146890476Y-130154761D01*
X146795238Y-130202380D01*
X146652380Y-130202380D01*
X147414285Y-130202380D02*
X147414285Y-129535714D01*
X147414285Y-129202380D02*
X147366666Y-129250000D01*
X147414285Y-129297619D01*
X147461904Y-129250000D01*
X147414285Y-129202380D01*
X147414285Y-129297619D01*
X147890476Y-129535714D02*
X147890476Y-130202380D01*
X147890476Y-129630952D02*
X147938095Y-129583333D01*
X148033333Y-129535714D01*
X148176190Y-129535714D01*
X148271428Y-129583333D01*
X148319047Y-129678571D01*
X148319047Y-130202380D01*
X148652380Y-129535714D02*
X149033333Y-129535714D01*
X148795238Y-129202380D02*
X148795238Y-130059523D01*
X148842857Y-130154761D01*
X148938095Y-130202380D01*
X149033333Y-130202380D01*
X144438095Y-125802380D02*
X145009523Y-125802380D01*
X144723809Y-126802380D02*
X144723809Y-125802380D01*
X145342857Y-126802380D02*
X145342857Y-125802380D01*
X145723809Y-125802380D01*
X145819047Y-125850000D01*
X145866666Y-125897619D01*
X145914285Y-125992857D01*
X145914285Y-126135714D01*
X145866666Y-126230952D01*
X145819047Y-126278571D01*
X145723809Y-126326190D01*
X145342857Y-126326190D01*
X146247619Y-125802380D02*
X146866666Y-125802380D01*
X146533333Y-126183333D01*
X146676190Y-126183333D01*
X146771428Y-126230952D01*
X146819047Y-126278571D01*
X146866666Y-126373809D01*
X146866666Y-126611904D01*
X146819047Y-126707142D01*
X146771428Y-126754761D01*
X146676190Y-126802380D01*
X146390476Y-126802380D01*
X146295238Y-126754761D01*
X146247619Y-126707142D01*
D13*
%TO.C,U3*%
X140025000Y-140300000D02*
X140025000Y-147300000D01*
X140025000Y-147300000D02*
X133025000Y-147300000D01*
X133025000Y-141300000D02*
X134025000Y-140300000D01*
X134025000Y-140300000D02*
X140025000Y-140300000D01*
X133025000Y-147300000D02*
X133025000Y-141300000D01*
%TO.C,U2*%
X149550000Y-133775000D02*
X149550000Y-138775000D01*
X144550000Y-134775000D02*
X145550000Y-133775000D01*
X144550000Y-138775000D02*
X144550000Y-134775000D01*
X149550000Y-138775000D02*
X144550000Y-138775000D01*
X145550000Y-133775000D02*
X149550000Y-133775000D01*
%TO.C,R23*%
X143075000Y-140500000D02*
X143375000Y-140500000D01*
X143375000Y-141100000D02*
X143075000Y-141100000D01*
X143375000Y-140500000D02*
X143375000Y-141100000D01*
X143075000Y-141100000D02*
X143075000Y-140500000D01*
%TO.C,R22*%
X137300000Y-149100000D02*
X137300000Y-149400000D01*
X136700000Y-149400000D02*
X136700000Y-149100000D01*
X137300000Y-149400000D02*
X136700000Y-149400000D01*
X136700000Y-149100000D02*
X137300000Y-149100000D01*
%TO.C,R21*%
X142550000Y-141100000D02*
X142250000Y-141100000D01*
X142250000Y-140500000D02*
X142550000Y-140500000D01*
X142250000Y-141100000D02*
X142250000Y-140500000D01*
X142550000Y-140500000D02*
X142550000Y-141100000D01*
%TO.C,R4*%
X143050000Y-139775000D02*
X142450000Y-139775000D01*
X142450000Y-139475000D02*
X143050000Y-139475000D01*
X143050000Y-139475000D02*
X143050000Y-139775000D01*
X142450000Y-139775000D02*
X142450000Y-139475000D01*
%TO.C,R3*%
X148100000Y-128150000D02*
X147500000Y-128150000D01*
X147500000Y-127850000D02*
X148100000Y-127850000D01*
X148100000Y-127850000D02*
X148100000Y-128150000D01*
X147500000Y-128150000D02*
X147500000Y-127850000D01*
%TO.C,R2*%
X150875000Y-130200000D02*
X150875000Y-129900000D01*
X151475000Y-129900000D02*
X151475000Y-130200000D01*
X150875000Y-129900000D02*
X151475000Y-129900000D01*
X151475000Y-130200000D02*
X150875000Y-130200000D01*
%TO.C,D2*%
X149500000Y-127850000D02*
X149500000Y-128150000D01*
X149600000Y-127850000D02*
X149600000Y-128150000D01*
X149000000Y-127850000D02*
X149600000Y-127850000D01*
X149000000Y-128150000D02*
X149000000Y-127850000D01*
X149600000Y-128150000D02*
X149000000Y-128150000D01*
X149400000Y-127850000D02*
X149400000Y-128150000D01*
%TO.C,D1*%
X152300000Y-130900000D02*
X152300000Y-131200000D01*
X152400000Y-130900000D02*
X152400000Y-131200000D01*
X151800000Y-130900000D02*
X152400000Y-130900000D01*
X151800000Y-131200000D02*
X151800000Y-130900000D01*
X152400000Y-131200000D02*
X151800000Y-131200000D01*
X152200000Y-130900000D02*
X152200000Y-131200000D01*
%TO.C,C19*%
X146800000Y-150775000D02*
X145975000Y-149950000D01*
X145975000Y-149950000D02*
X145975000Y-147475000D01*
X146675000Y-150085469D02*
X146975000Y-150085469D01*
X146825000Y-150235469D02*
X146825000Y-149935469D01*
X145975000Y-147475000D02*
X149275000Y-147475000D01*
X146800000Y-150775000D02*
X148450000Y-150775000D01*
X149275000Y-149950000D02*
X149275000Y-147475000D01*
X148450000Y-150775000D02*
X149275000Y-149950000D01*
X149125000Y-149125000D02*
G75*
G03*
X149125000Y-149125000I-1500000J0D01*
G01*
%TO.C,C16*%
X138150000Y-135200000D02*
G75*
G03*
X138150000Y-135200000I-1500000J0D01*
G01*
X138300000Y-134375000D02*
X137475000Y-133550000D01*
X137475000Y-133550000D02*
X135000000Y-133550000D01*
X138300000Y-136025000D02*
X138300000Y-134375000D01*
X135000000Y-136850000D02*
X135000000Y-133550000D01*
X137760469Y-136000000D02*
X137460469Y-136000000D01*
X137610469Y-136150000D02*
X137610469Y-135850000D01*
X137475000Y-136850000D02*
X135000000Y-136850000D01*
X138300000Y-136025000D02*
X137475000Y-136850000D01*
%TO.C,C15*%
X131225000Y-138975000D02*
G75*
G03*
X131225000Y-138975000I-1500000J0D01*
G01*
X128075000Y-139800000D02*
X128900000Y-140625000D01*
X128900000Y-140625000D02*
X131375000Y-140625000D01*
X128075000Y-138150000D02*
X128075000Y-139800000D01*
X131375000Y-137325000D02*
X131375000Y-140625000D01*
X128614531Y-138175000D02*
X128914531Y-138175000D01*
X128764531Y-138025000D02*
X128764531Y-138325000D01*
X128900000Y-137325000D02*
X131375000Y-137325000D01*
X128075000Y-138150000D02*
X128900000Y-137325000D01*
%TO.C,C6*%
X150050000Y-143900000D02*
X149225000Y-143075000D01*
X149225000Y-143075000D02*
X149225000Y-140600000D01*
X149925000Y-143210469D02*
X150225000Y-143210469D01*
X150075000Y-143360469D02*
X150075000Y-143060469D01*
X149225000Y-140600000D02*
X152525000Y-140600000D01*
X150050000Y-143900000D02*
X151700000Y-143900000D01*
X152525000Y-143075000D02*
X152525000Y-140600000D01*
X151700000Y-143900000D02*
X152525000Y-143075000D01*
X152375000Y-142250000D02*
G75*
G03*
X152375000Y-142250000I-1500000J0D01*
G01*
%TO.C,C5*%
X147600000Y-141100000D02*
X148425000Y-141925000D01*
X148425000Y-141925000D02*
X148425000Y-144400000D01*
X147725000Y-141789531D02*
X147425000Y-141789531D01*
X147575000Y-141639531D02*
X147575000Y-141939531D01*
X148425000Y-144400000D02*
X145125000Y-144400000D01*
X147600000Y-141100000D02*
X145950000Y-141100000D01*
X145125000Y-141925000D02*
X145125000Y-144400000D01*
X145950000Y-141100000D02*
X145125000Y-141925000D01*
X148275000Y-142750000D02*
G75*
G03*
X148275000Y-142750000I-1500000J0D01*
G01*
%TO.C,C4*%
X141050000Y-149150000D02*
X141875000Y-148325000D01*
X141875000Y-148325000D02*
X144350000Y-148325000D01*
X141739531Y-149025000D02*
X141739531Y-149325000D01*
X141589531Y-149175000D02*
X141889531Y-149175000D01*
X144350000Y-148325000D02*
X144350000Y-151625000D01*
X141050000Y-149150000D02*
X141050000Y-150800000D01*
X141875000Y-151625000D02*
X144350000Y-151625000D01*
X141050000Y-150800000D02*
X141875000Y-151625000D01*
X144200000Y-149975000D02*
G75*
G03*
X144200000Y-149975000I-1500000J0D01*
G01*
%TO.C,C3*%
X132375000Y-149975000D02*
X131550000Y-150800000D01*
X131550000Y-150800000D02*
X129075000Y-150800000D01*
X131685469Y-150100000D02*
X131685469Y-149800000D01*
X131835469Y-149950000D02*
X131535469Y-149950000D01*
X129075000Y-150800000D02*
X129075000Y-147500000D01*
X132375000Y-149975000D02*
X132375000Y-148325000D01*
X131550000Y-147500000D02*
X129075000Y-147500000D01*
X132375000Y-148325000D02*
X131550000Y-147500000D01*
X132225000Y-149150000D02*
G75*
G03*
X132225000Y-149150000I-1500000J0D01*
G01*
%TO.C,R1*%
X133952500Y-131700000D02*
X133952500Y-133300000D01*
X133127500Y-133300000D02*
X133127500Y-131700000D01*
X133127500Y-131700000D02*
X133952500Y-131700000D01*
X133952500Y-133300000D02*
X133127500Y-133300000D01*
%TO.C,C2*%
X131500000Y-136427000D02*
X129500000Y-136427000D01*
X129500000Y-136427000D02*
X129500000Y-135177000D01*
X129500000Y-135177000D02*
X131500000Y-135177000D01*
X131500000Y-135177000D02*
X131500000Y-136427000D01*
%TO.C,U1*%
X131400000Y-131600000D02*
X132050000Y-132250000D01*
X132050000Y-133400000D02*
X128950000Y-133400000D01*
X131400000Y-131600000D02*
X128950000Y-131600000D01*
X128950000Y-133400000D02*
X128950000Y-131600000D01*
X132050000Y-133400000D02*
X132050000Y-132250000D01*
%TO.C,C1*%
X129500000Y-128573000D02*
X131500000Y-128573000D01*
X129500000Y-129823000D02*
X129500000Y-128573000D01*
X131500000Y-128573000D02*
X131500000Y-129823000D01*
X131500000Y-129823000D02*
X129500000Y-129823000D01*
%TD*%
M02*
