%TF.GenerationSoftware,KiCad,Pcbnew,7.0.7*%
%TF.CreationDate,2023-09-14T22:30:26+02:00*%
%TF.ProjectId,CAN,43414e2e-6b69-4636-9164-5f7063625858,X1*%
%TF.SameCoordinates,Original*%
%TF.FileFunction,Copper,L2,Bot*%
%TF.FilePolarity,Positive*%
%FSLAX46Y46*%
G04 Gerber Fmt 4.6, Leading zero omitted, Abs format (unit mm)*
G04 Created by KiCad (PCBNEW 7.0.7) date 2023-09-14 22:30:26*
%MOMM*%
%LPD*%
G01*
G04 APERTURE LIST*
%TA.AperFunction,SMDPad,CuDef*%
%ADD10R,1.500000X1.500000*%
%TD*%
%TA.AperFunction,SMDPad,CuDef*%
%ADD11R,0.380000X1.000000*%
%TD*%
%TA.AperFunction,SMDPad,CuDef*%
%ADD12R,0.700000X1.150000*%
%TD*%
%TA.AperFunction,ComponentPad*%
%ADD13R,1.700000X1.700000*%
%TD*%
%TA.AperFunction,ComponentPad*%
%ADD14O,1.700000X1.700000*%
%TD*%
%TA.AperFunction,ViaPad*%
%ADD15C,0.800000*%
%TD*%
%TA.AperFunction,Conductor*%
%ADD16C,0.125000*%
%TD*%
G04 APERTURE END LIST*
D10*
%TO.P,TP8,1,1*%
%TO.N,+3.3V*%
X64770000Y-90551000D03*
%TD*%
%TO.P,TP7,1,1*%
%TO.N,VBUS*%
X64770000Y-87884000D03*
%TD*%
D11*
%TO.P,P1,B1,GND*%
%TO.N,GND*%
X77980000Y-88414000D03*
%TO.P,P1,B2*%
%TO.N,N/C*%
X77480000Y-88414000D03*
%TO.P,P1,B3*%
X76980000Y-88414000D03*
%TO.P,P1,B4,VBUS*%
%TO.N,VBUS*%
X76480000Y-88414000D03*
%TO.P,P1,B5,VCONN*%
%TO.N,unconnected-(P1-VCONN-PadB5)*%
X75980000Y-88414000D03*
%TO.P,P1,B8*%
%TO.N,N/C*%
X74480000Y-88414000D03*
%TO.P,P1,B9,VBUS*%
%TO.N,VBUS*%
X73980000Y-88414000D03*
%TO.P,P1,B10*%
%TO.N,N/C*%
X73480000Y-88414000D03*
%TO.P,P1,B11*%
X72980000Y-88414000D03*
%TO.P,P1,B12,GND*%
%TO.N,GND*%
X72480000Y-88414000D03*
D12*
%TO.P,P1,S1,SHIELD*%
X78650000Y-89254000D03*
%TD*%
D13*
%TO.P,J1,1,Pin_1*%
%TO.N,VBUS*%
X74150000Y-106200000D03*
D14*
%TO.P,J1,2,Pin_2*%
%TO.N,CAN_H*%
X76690000Y-106200000D03*
%TO.P,J1,3,Pin_3*%
%TO.N,CAN_L*%
X79230000Y-106200000D03*
%TO.P,J1,4,Pin_4*%
%TO.N,GND*%
X81770000Y-106200000D03*
%TD*%
D10*
%TO.P,TP2,1,1*%
%TO.N,GND*%
X69530000Y-87374000D03*
%TD*%
%TO.P,TP4,1,1*%
%TO.N,GND*%
X80930000Y-87374000D03*
%TD*%
D15*
%TO.N,Net-(P1-CC)*%
X69395000Y-90678000D03*
X70559000Y-90043000D03*
%TO.N,+3.3V*%
X72263000Y-97155000D03*
X64770000Y-90551000D03*
%TO.N,VBUS*%
X64770000Y-87884000D03*
%TO.N,GND*%
X80930000Y-87374000D03*
X69530000Y-87374000D03*
%TO.N,+3.3V*%
X65405000Y-93424000D03*
X86095000Y-87390000D03*
%TO.N,VBUS*%
X77442500Y-90091500D03*
X83820000Y-87390000D03*
%TO.N,/D+*%
X73660000Y-91454000D03*
X81280000Y-100344000D03*
%TO.N,/D-*%
X81280000Y-101524498D03*
X74597631Y-91339443D03*
%TO.N,/TERM*%
X72000000Y-111000000D03*
X77300000Y-103673000D03*
%TD*%
D16*
%TO.N,Net-(P1-CC)*%
X70559000Y-90043000D02*
X70358000Y-90043000D01*
X69723000Y-90678000D02*
X69395000Y-90678000D01*
X70358000Y-90043000D02*
X69723000Y-90678000D01*
%TO.N,/D-*%
X65747762Y-92596500D02*
X64835964Y-92596500D01*
X74242500Y-91212720D02*
X73901280Y-90871500D01*
X71833518Y-92934000D02*
X66085262Y-92934000D01*
X74597631Y-91339443D02*
X74470908Y-91212720D01*
X73077500Y-91690018D02*
X71833518Y-92934000D01*
X66085262Y-92934000D02*
X65747762Y-92596500D01*
X64835964Y-92596500D02*
X64417500Y-93014964D01*
X73077500Y-91212720D02*
X73077500Y-91690018D01*
X73418720Y-90871500D02*
X73077500Y-91212720D01*
X74470908Y-91212720D02*
X74242500Y-91212720D01*
X73901280Y-90871500D02*
X73418720Y-90871500D01*
X64417500Y-93014964D02*
X64417500Y-93833037D01*
X64417500Y-93833037D02*
X72108961Y-101524498D01*
X72108961Y-101524498D02*
X81280000Y-101524498D01*
%TO.N,/D+*%
X71388083Y-100344000D02*
X81280000Y-100344000D01*
X65983780Y-93179000D02*
X65646280Y-92841500D01*
X71935000Y-93179000D02*
X65983780Y-93179000D01*
X65050583Y-92841500D02*
X64742500Y-93149583D01*
X65646280Y-92841500D02*
X65050583Y-92841500D01*
X64742500Y-93149583D02*
X64742500Y-93698417D01*
X73660000Y-91454000D02*
X71935000Y-93179000D01*
X64742500Y-93698417D02*
X71388083Y-100344000D01*
%TO.N,VBUS*%
X64770000Y-87884000D02*
X65659000Y-88773000D01*
X65659000Y-88773000D02*
X71784000Y-88773000D01*
X71784000Y-88773000D02*
X72107500Y-89096500D01*
X72107500Y-89096500D02*
X73922500Y-89096500D01*
X73922500Y-89096500D02*
X73980000Y-89039000D01*
X73980000Y-89039000D02*
X73980000Y-88414000D01*
%TO.N,+3.3V*%
X72263000Y-94313000D02*
X72263000Y-97155000D01*
X71374000Y-93424000D02*
X72263000Y-94313000D01*
X80061000Y-93424000D02*
X71374000Y-93424000D01*
X71374000Y-93424000D02*
X65405000Y-93424000D01*
%TO.N,GND*%
X79050000Y-89254000D02*
X80930000Y-87374000D01*
X69530000Y-87374000D02*
X69614352Y-87374000D01*
X72456033Y-88437967D02*
X72480000Y-88414000D01*
X78650000Y-89084000D02*
X77980000Y-88414000D01*
X78650000Y-89254000D02*
X78650000Y-89084000D01*
X69614352Y-87374000D02*
X70678319Y-88437967D01*
X78650000Y-89254000D02*
X79050000Y-89254000D01*
X70678319Y-88437967D02*
X72456033Y-88437967D01*
%TO.N,+3.3V*%
X86095000Y-87390000D02*
X80061000Y-93424000D01*
%TO.N,VBUS*%
X83820000Y-87390000D02*
X81118500Y-90091500D01*
X86757500Y-101242500D02*
X86757500Y-87115583D01*
X74150000Y-106200000D02*
X74150000Y-105450000D01*
X85813002Y-102186998D02*
X86757500Y-101242500D01*
X84738000Y-86727500D02*
X84075500Y-87390000D01*
X77413002Y-102186998D02*
X85813002Y-102186998D01*
X76425000Y-87644000D02*
X74035000Y-87644000D01*
X84075500Y-87390000D02*
X83820000Y-87390000D01*
X74150000Y-105450000D02*
X77413002Y-102186998D01*
X76480000Y-88414000D02*
X76480000Y-87699000D01*
X73980000Y-87699000D02*
X73980000Y-88414000D01*
X76480000Y-87699000D02*
X76425000Y-87644000D01*
X76480000Y-89129000D02*
X76480000Y-88414000D01*
X74035000Y-87644000D02*
X73980000Y-87699000D01*
X86757500Y-87115583D02*
X86369417Y-86727500D01*
X77442500Y-90091500D02*
X76480000Y-89129000D01*
X86369417Y-86727500D02*
X84738000Y-86727500D01*
X81118500Y-90091500D02*
X77442500Y-90091500D01*
%TO.N,/TERM*%
X77027000Y-103673000D02*
X77300000Y-103673000D01*
X75500000Y-105200000D02*
X77027000Y-103673000D01*
X75500000Y-107500000D02*
X75500000Y-105200000D01*
X72000000Y-111000000D02*
X75500000Y-107500000D01*
%TD*%
M02*
