M48
; DRILL file {KiCad 7.0.8} date Sun 29 Oct 2023 11:41:34 PM CDT
; FORMAT={-:-/ absolute / inch / decimal}
; #@! TF.CreationDate,2023-10-29T23:41:34-05:00
; #@! TF.GenerationSoftware,Kicad,Pcbnew,7.0.8
; #@! TF.FileFunction,Plated,1,4,PTH
FMAT,2
INCH
; #@! TA.AperFunction,Plated,PTH,ViaDrill
T1C0.0157
; #@! TA.AperFunction,Plated,PTH,ComponentDrill
T2C0.0394
%
G90
G05
T1
X2.49Y-4.305
X2.4963Y-3.62
X2.5Y-3.9556
X2.5Y-4.0344
X2.54Y-3.4606
X2.54Y-3.5394
X2.575Y-3.62
X2.575Y-3.6781
X2.58Y-4.035
X2.631Y-3.4596
X2.631Y-3.5404
X2.635Y-4.2845
X2.635Y-4.5355
X2.675Y-3.873
X2.685Y-4.5355
X2.73Y-3.75
X2.7374Y-3.4399
X2.7779Y-3.545
X2.7807Y-3.812
X2.822Y-3.908
X2.8798Y-3.5202
X2.94Y-3.5273
X2.9753Y-3.5305
X2.98Y-3.69
X3.0097Y-3.55
X3.0198Y-4.0779
X3.06Y-3.53
X3.07Y-4.0779
X3.16Y-3.83
X3.1862Y-3.4399
X3.1901Y-3.8501
X3.2Y-3.9506
X3.2Y-3.997
X3.3Y-3.4406
X3.35Y-3.9206
X3.35Y-3.9994
X3.3542Y-3.68
X3.3896Y-3.4406
X3.3994Y-4.335
X3.4008Y-4.415
T2
X2.8092Y-4.18
X2.9092Y-4.18
X3.0092Y-4.18
X3.1092Y-4.18
X3.2092Y-4.18
T0
M30
