%TF.GenerationSoftware,KiCad,Pcbnew,7.0.6*%
%TF.CreationDate,2023-08-15T22:29:45+09:00*%
%TF.ProjectId,CAN,43414e2e-6b69-4636-9164-5f7063625858,X1*%
%TF.SameCoordinates,Original*%
%TF.FileFunction,Legend,Top*%
%TF.FilePolarity,Positive*%
%FSLAX46Y46*%
G04 Gerber Fmt 4.6, Leading zero omitted, Abs format (unit mm)*
G04 Created by KiCad (PCBNEW 7.0.6) date 2023-08-15 22:29:45*
%MOMM*%
%LPD*%
G01*
G04 APERTURE LIST*
%ADD10C,0.100000*%
%ADD11C,0.080000*%
%ADD12C,0.060000*%
%ADD13C,0.125000*%
%ADD14C,0.150000*%
%ADD15C,0.120000*%
G04 APERTURE END LIST*
D10*
X65500000Y-107000000D02*
X72000000Y-107000000D01*
X72000000Y-116000000D01*
X65500000Y-116000000D01*
X65500000Y-107000000D01*
X63000000Y-92000000D02*
X69000000Y-92000000D01*
X69000000Y-100000000D01*
X63000000Y-100000000D01*
X63000000Y-92000000D01*
D11*
X64834649Y-115999749D02*
X64834649Y-115714035D01*
X65334649Y-115856892D02*
X64834649Y-115856892D01*
X65310840Y-115356893D02*
X65334649Y-115404512D01*
X65334649Y-115404512D02*
X65334649Y-115499750D01*
X65334649Y-115499750D02*
X65310840Y-115547369D01*
X65310840Y-115547369D02*
X65263220Y-115571178D01*
X65263220Y-115571178D02*
X65072744Y-115571178D01*
X65072744Y-115571178D02*
X65025125Y-115547369D01*
X65025125Y-115547369D02*
X65001316Y-115499750D01*
X65001316Y-115499750D02*
X65001316Y-115404512D01*
X65001316Y-115404512D02*
X65025125Y-115356893D01*
X65025125Y-115356893D02*
X65072744Y-115333083D01*
X65072744Y-115333083D02*
X65120363Y-115333083D01*
X65120363Y-115333083D02*
X65167982Y-115571178D01*
X65334649Y-115118798D02*
X65001316Y-115118798D01*
X65096554Y-115118798D02*
X65048935Y-115094988D01*
X65048935Y-115094988D02*
X65025125Y-115071179D01*
X65025125Y-115071179D02*
X65001316Y-115023560D01*
X65001316Y-115023560D02*
X65001316Y-114975941D01*
X65334649Y-114809274D02*
X65001316Y-114809274D01*
X65048935Y-114809274D02*
X65025125Y-114785464D01*
X65025125Y-114785464D02*
X65001316Y-114737845D01*
X65001316Y-114737845D02*
X65001316Y-114666417D01*
X65001316Y-114666417D02*
X65025125Y-114618798D01*
X65025125Y-114618798D02*
X65072744Y-114594988D01*
X65072744Y-114594988D02*
X65334649Y-114594988D01*
X65072744Y-114594988D02*
X65025125Y-114571179D01*
X65025125Y-114571179D02*
X65001316Y-114523560D01*
X65001316Y-114523560D02*
X65001316Y-114452131D01*
X65001316Y-114452131D02*
X65025125Y-114404512D01*
X65025125Y-114404512D02*
X65072744Y-114380702D01*
X65072744Y-114380702D02*
X65334649Y-114380702D01*
X65334649Y-114142607D02*
X65001316Y-114142607D01*
X64834649Y-114142607D02*
X64858459Y-114166416D01*
X64858459Y-114166416D02*
X64882268Y-114142607D01*
X64882268Y-114142607D02*
X64858459Y-114118797D01*
X64858459Y-114118797D02*
X64834649Y-114142607D01*
X64834649Y-114142607D02*
X64882268Y-114142607D01*
X65001316Y-113904512D02*
X65334649Y-113904512D01*
X65048935Y-113904512D02*
X65025125Y-113880702D01*
X65025125Y-113880702D02*
X65001316Y-113833083D01*
X65001316Y-113833083D02*
X65001316Y-113761655D01*
X65001316Y-113761655D02*
X65025125Y-113714036D01*
X65025125Y-113714036D02*
X65072744Y-113690226D01*
X65072744Y-113690226D02*
X65334649Y-113690226D01*
X65334649Y-113237845D02*
X65072744Y-113237845D01*
X65072744Y-113237845D02*
X65025125Y-113261655D01*
X65025125Y-113261655D02*
X65001316Y-113309274D01*
X65001316Y-113309274D02*
X65001316Y-113404512D01*
X65001316Y-113404512D02*
X65025125Y-113452131D01*
X65310840Y-113237845D02*
X65334649Y-113285464D01*
X65334649Y-113285464D02*
X65334649Y-113404512D01*
X65334649Y-113404512D02*
X65310840Y-113452131D01*
X65310840Y-113452131D02*
X65263220Y-113475940D01*
X65263220Y-113475940D02*
X65215601Y-113475940D01*
X65215601Y-113475940D02*
X65167982Y-113452131D01*
X65167982Y-113452131D02*
X65144173Y-113404512D01*
X65144173Y-113404512D02*
X65144173Y-113285464D01*
X65144173Y-113285464D02*
X65120363Y-113237845D01*
X65001316Y-113071178D02*
X65001316Y-112880702D01*
X64834649Y-112999750D02*
X65263220Y-112999750D01*
X65263220Y-112999750D02*
X65310840Y-112975940D01*
X65310840Y-112975940D02*
X65334649Y-112928321D01*
X65334649Y-112928321D02*
X65334649Y-112880702D01*
X65334649Y-112714036D02*
X65001316Y-112714036D01*
X64834649Y-112714036D02*
X64858459Y-112737845D01*
X64858459Y-112737845D02*
X64882268Y-112714036D01*
X64882268Y-112714036D02*
X64858459Y-112690226D01*
X64858459Y-112690226D02*
X64834649Y-112714036D01*
X64834649Y-112714036D02*
X64882268Y-112714036D01*
X65334649Y-112404512D02*
X65310840Y-112452131D01*
X65310840Y-112452131D02*
X65287030Y-112475941D01*
X65287030Y-112475941D02*
X65239411Y-112499750D01*
X65239411Y-112499750D02*
X65096554Y-112499750D01*
X65096554Y-112499750D02*
X65048935Y-112475941D01*
X65048935Y-112475941D02*
X65025125Y-112452131D01*
X65025125Y-112452131D02*
X65001316Y-112404512D01*
X65001316Y-112404512D02*
X65001316Y-112333084D01*
X65001316Y-112333084D02*
X65025125Y-112285465D01*
X65025125Y-112285465D02*
X65048935Y-112261655D01*
X65048935Y-112261655D02*
X65096554Y-112237846D01*
X65096554Y-112237846D02*
X65239411Y-112237846D01*
X65239411Y-112237846D02*
X65287030Y-112261655D01*
X65287030Y-112261655D02*
X65310840Y-112285465D01*
X65310840Y-112285465D02*
X65334649Y-112333084D01*
X65334649Y-112333084D02*
X65334649Y-112404512D01*
X65001316Y-112023560D02*
X65334649Y-112023560D01*
X65048935Y-112023560D02*
X65025125Y-111999750D01*
X65025125Y-111999750D02*
X65001316Y-111952131D01*
X65001316Y-111952131D02*
X65001316Y-111880703D01*
X65001316Y-111880703D02*
X65025125Y-111833084D01*
X65025125Y-111833084D02*
X65072744Y-111809274D01*
X65072744Y-111809274D02*
X65334649Y-111809274D01*
X65334649Y-110904513D02*
X65096554Y-111071179D01*
X65334649Y-111190227D02*
X64834649Y-111190227D01*
X64834649Y-111190227D02*
X64834649Y-110999751D01*
X64834649Y-110999751D02*
X64858459Y-110952132D01*
X64858459Y-110952132D02*
X64882268Y-110928322D01*
X64882268Y-110928322D02*
X64929887Y-110904513D01*
X64929887Y-110904513D02*
X65001316Y-110904513D01*
X65001316Y-110904513D02*
X65048935Y-110928322D01*
X65048935Y-110928322D02*
X65072744Y-110952132D01*
X65072744Y-110952132D02*
X65096554Y-110999751D01*
X65096554Y-110999751D02*
X65096554Y-111190227D01*
X65310840Y-110499751D02*
X65334649Y-110547370D01*
X65334649Y-110547370D02*
X65334649Y-110642608D01*
X65334649Y-110642608D02*
X65310840Y-110690227D01*
X65310840Y-110690227D02*
X65263220Y-110714036D01*
X65263220Y-110714036D02*
X65072744Y-110714036D01*
X65072744Y-110714036D02*
X65025125Y-110690227D01*
X65025125Y-110690227D02*
X65001316Y-110642608D01*
X65001316Y-110642608D02*
X65001316Y-110547370D01*
X65001316Y-110547370D02*
X65025125Y-110499751D01*
X65025125Y-110499751D02*
X65072744Y-110475941D01*
X65072744Y-110475941D02*
X65120363Y-110475941D01*
X65120363Y-110475941D02*
X65167982Y-110714036D01*
X65310840Y-110285465D02*
X65334649Y-110237846D01*
X65334649Y-110237846D02*
X65334649Y-110142608D01*
X65334649Y-110142608D02*
X65310840Y-110094989D01*
X65310840Y-110094989D02*
X65263220Y-110071180D01*
X65263220Y-110071180D02*
X65239411Y-110071180D01*
X65239411Y-110071180D02*
X65191792Y-110094989D01*
X65191792Y-110094989D02*
X65167982Y-110142608D01*
X65167982Y-110142608D02*
X65167982Y-110214037D01*
X65167982Y-110214037D02*
X65144173Y-110261656D01*
X65144173Y-110261656D02*
X65096554Y-110285465D01*
X65096554Y-110285465D02*
X65072744Y-110285465D01*
X65072744Y-110285465D02*
X65025125Y-110261656D01*
X65025125Y-110261656D02*
X65001316Y-110214037D01*
X65001316Y-110214037D02*
X65001316Y-110142608D01*
X65001316Y-110142608D02*
X65025125Y-110094989D01*
X65334649Y-109856894D02*
X65001316Y-109856894D01*
X64834649Y-109856894D02*
X64858459Y-109880703D01*
X64858459Y-109880703D02*
X64882268Y-109856894D01*
X64882268Y-109856894D02*
X64858459Y-109833084D01*
X64858459Y-109833084D02*
X64834649Y-109856894D01*
X64834649Y-109856894D02*
X64882268Y-109856894D01*
X65310840Y-109642608D02*
X65334649Y-109594989D01*
X65334649Y-109594989D02*
X65334649Y-109499751D01*
X65334649Y-109499751D02*
X65310840Y-109452132D01*
X65310840Y-109452132D02*
X65263220Y-109428323D01*
X65263220Y-109428323D02*
X65239411Y-109428323D01*
X65239411Y-109428323D02*
X65191792Y-109452132D01*
X65191792Y-109452132D02*
X65167982Y-109499751D01*
X65167982Y-109499751D02*
X65167982Y-109571180D01*
X65167982Y-109571180D02*
X65144173Y-109618799D01*
X65144173Y-109618799D02*
X65096554Y-109642608D01*
X65096554Y-109642608D02*
X65072744Y-109642608D01*
X65072744Y-109642608D02*
X65025125Y-109618799D01*
X65025125Y-109618799D02*
X65001316Y-109571180D01*
X65001316Y-109571180D02*
X65001316Y-109499751D01*
X65001316Y-109499751D02*
X65025125Y-109452132D01*
X65001316Y-109285465D02*
X65001316Y-109094989D01*
X64834649Y-109214037D02*
X65263220Y-109214037D01*
X65263220Y-109214037D02*
X65310840Y-109190227D01*
X65310840Y-109190227D02*
X65334649Y-109142608D01*
X65334649Y-109142608D02*
X65334649Y-109094989D01*
X65334649Y-108856894D02*
X65310840Y-108904513D01*
X65310840Y-108904513D02*
X65287030Y-108928323D01*
X65287030Y-108928323D02*
X65239411Y-108952132D01*
X65239411Y-108952132D02*
X65096554Y-108952132D01*
X65096554Y-108952132D02*
X65048935Y-108928323D01*
X65048935Y-108928323D02*
X65025125Y-108904513D01*
X65025125Y-108904513D02*
X65001316Y-108856894D01*
X65001316Y-108856894D02*
X65001316Y-108785466D01*
X65001316Y-108785466D02*
X65025125Y-108737847D01*
X65025125Y-108737847D02*
X65048935Y-108714037D01*
X65048935Y-108714037D02*
X65096554Y-108690228D01*
X65096554Y-108690228D02*
X65239411Y-108690228D01*
X65239411Y-108690228D02*
X65287030Y-108714037D01*
X65287030Y-108714037D02*
X65310840Y-108737847D01*
X65310840Y-108737847D02*
X65334649Y-108785466D01*
X65334649Y-108785466D02*
X65334649Y-108856894D01*
X65334649Y-108475942D02*
X65001316Y-108475942D01*
X65096554Y-108475942D02*
X65048935Y-108452132D01*
X65048935Y-108452132D02*
X65025125Y-108428323D01*
X65025125Y-108428323D02*
X65001316Y-108380704D01*
X65001316Y-108380704D02*
X65001316Y-108333085D01*
D12*
X62709832Y-99636717D02*
X62728880Y-99655765D01*
X62728880Y-99655765D02*
X62747927Y-99712907D01*
X62747927Y-99712907D02*
X62747927Y-99751003D01*
X62747927Y-99751003D02*
X62728880Y-99808146D01*
X62728880Y-99808146D02*
X62690784Y-99846241D01*
X62690784Y-99846241D02*
X62652689Y-99865288D01*
X62652689Y-99865288D02*
X62576499Y-99884336D01*
X62576499Y-99884336D02*
X62519356Y-99884336D01*
X62519356Y-99884336D02*
X62443165Y-99865288D01*
X62443165Y-99865288D02*
X62405070Y-99846241D01*
X62405070Y-99846241D02*
X62366975Y-99808146D01*
X62366975Y-99808146D02*
X62347927Y-99751003D01*
X62347927Y-99751003D02*
X62347927Y-99712907D01*
X62347927Y-99712907D02*
X62366975Y-99655765D01*
X62366975Y-99655765D02*
X62386022Y-99636717D01*
X62633641Y-99484336D02*
X62633641Y-99293860D01*
X62747927Y-99522431D02*
X62347927Y-99389098D01*
X62347927Y-99389098D02*
X62747927Y-99255765D01*
X62747927Y-99122431D02*
X62347927Y-99122431D01*
X62347927Y-99122431D02*
X62747927Y-98893860D01*
X62747927Y-98893860D02*
X62347927Y-98893860D01*
X62347927Y-98455764D02*
X62347927Y-98227193D01*
X62747927Y-98341479D02*
X62347927Y-98341479D01*
X62747927Y-98093859D02*
X62481260Y-98093859D01*
X62557451Y-98093859D02*
X62519356Y-98074812D01*
X62519356Y-98074812D02*
X62500308Y-98055764D01*
X62500308Y-98055764D02*
X62481260Y-98017669D01*
X62481260Y-98017669D02*
X62481260Y-97979574D01*
X62747927Y-97674812D02*
X62538403Y-97674812D01*
X62538403Y-97674812D02*
X62500308Y-97693859D01*
X62500308Y-97693859D02*
X62481260Y-97731955D01*
X62481260Y-97731955D02*
X62481260Y-97808145D01*
X62481260Y-97808145D02*
X62500308Y-97846240D01*
X62728880Y-97674812D02*
X62747927Y-97712907D01*
X62747927Y-97712907D02*
X62747927Y-97808145D01*
X62747927Y-97808145D02*
X62728880Y-97846240D01*
X62728880Y-97846240D02*
X62690784Y-97865288D01*
X62690784Y-97865288D02*
X62652689Y-97865288D01*
X62652689Y-97865288D02*
X62614594Y-97846240D01*
X62614594Y-97846240D02*
X62595546Y-97808145D01*
X62595546Y-97808145D02*
X62595546Y-97712907D01*
X62595546Y-97712907D02*
X62576499Y-97674812D01*
X62481260Y-97484335D02*
X62747927Y-97484335D01*
X62519356Y-97484335D02*
X62500308Y-97465288D01*
X62500308Y-97465288D02*
X62481260Y-97427193D01*
X62481260Y-97427193D02*
X62481260Y-97370050D01*
X62481260Y-97370050D02*
X62500308Y-97331954D01*
X62500308Y-97331954D02*
X62538403Y-97312907D01*
X62538403Y-97312907D02*
X62747927Y-97312907D01*
X62728880Y-97141478D02*
X62747927Y-97103383D01*
X62747927Y-97103383D02*
X62747927Y-97027192D01*
X62747927Y-97027192D02*
X62728880Y-96989097D01*
X62728880Y-96989097D02*
X62690784Y-96970049D01*
X62690784Y-96970049D02*
X62671737Y-96970049D01*
X62671737Y-96970049D02*
X62633641Y-96989097D01*
X62633641Y-96989097D02*
X62614594Y-97027192D01*
X62614594Y-97027192D02*
X62614594Y-97084335D01*
X62614594Y-97084335D02*
X62595546Y-97122430D01*
X62595546Y-97122430D02*
X62557451Y-97141478D01*
X62557451Y-97141478D02*
X62538403Y-97141478D01*
X62538403Y-97141478D02*
X62500308Y-97122430D01*
X62500308Y-97122430D02*
X62481260Y-97084335D01*
X62481260Y-97084335D02*
X62481260Y-97027192D01*
X62481260Y-97027192D02*
X62500308Y-96989097D01*
X62728880Y-96627192D02*
X62747927Y-96665287D01*
X62747927Y-96665287D02*
X62747927Y-96741478D01*
X62747927Y-96741478D02*
X62728880Y-96779573D01*
X62728880Y-96779573D02*
X62709832Y-96798620D01*
X62709832Y-96798620D02*
X62671737Y-96817668D01*
X62671737Y-96817668D02*
X62557451Y-96817668D01*
X62557451Y-96817668D02*
X62519356Y-96798620D01*
X62519356Y-96798620D02*
X62500308Y-96779573D01*
X62500308Y-96779573D02*
X62481260Y-96741478D01*
X62481260Y-96741478D02*
X62481260Y-96665287D01*
X62481260Y-96665287D02*
X62500308Y-96627192D01*
X62728880Y-96303382D02*
X62747927Y-96341478D01*
X62747927Y-96341478D02*
X62747927Y-96417668D01*
X62747927Y-96417668D02*
X62728880Y-96455763D01*
X62728880Y-96455763D02*
X62690784Y-96474811D01*
X62690784Y-96474811D02*
X62538403Y-96474811D01*
X62538403Y-96474811D02*
X62500308Y-96455763D01*
X62500308Y-96455763D02*
X62481260Y-96417668D01*
X62481260Y-96417668D02*
X62481260Y-96341478D01*
X62481260Y-96341478D02*
X62500308Y-96303382D01*
X62500308Y-96303382D02*
X62538403Y-96284335D01*
X62538403Y-96284335D02*
X62576499Y-96284335D01*
X62576499Y-96284335D02*
X62614594Y-96474811D01*
X62747927Y-96112906D02*
X62481260Y-96112906D01*
X62347927Y-96112906D02*
X62366975Y-96131954D01*
X62366975Y-96131954D02*
X62386022Y-96112906D01*
X62386022Y-96112906D02*
X62366975Y-96093859D01*
X62366975Y-96093859D02*
X62347927Y-96112906D01*
X62347927Y-96112906D02*
X62386022Y-96112906D01*
X62481260Y-95960526D02*
X62747927Y-95865288D01*
X62747927Y-95865288D02*
X62481260Y-95770049D01*
X62728880Y-95465287D02*
X62747927Y-95503383D01*
X62747927Y-95503383D02*
X62747927Y-95579573D01*
X62747927Y-95579573D02*
X62728880Y-95617668D01*
X62728880Y-95617668D02*
X62690784Y-95636716D01*
X62690784Y-95636716D02*
X62538403Y-95636716D01*
X62538403Y-95636716D02*
X62500308Y-95617668D01*
X62500308Y-95617668D02*
X62481260Y-95579573D01*
X62481260Y-95579573D02*
X62481260Y-95503383D01*
X62481260Y-95503383D02*
X62500308Y-95465287D01*
X62500308Y-95465287D02*
X62538403Y-95446240D01*
X62538403Y-95446240D02*
X62576499Y-95446240D01*
X62576499Y-95446240D02*
X62614594Y-95636716D01*
X62747927Y-95274811D02*
X62481260Y-95274811D01*
X62557451Y-95274811D02*
X62519356Y-95255764D01*
X62519356Y-95255764D02*
X62500308Y-95236716D01*
X62500308Y-95236716D02*
X62481260Y-95198621D01*
X62481260Y-95198621D02*
X62481260Y-95160526D01*
D13*
X83990666Y-92887190D02*
X83966857Y-92911000D01*
X83966857Y-92911000D02*
X83895428Y-92934809D01*
X83895428Y-92934809D02*
X83847809Y-92934809D01*
X83847809Y-92934809D02*
X83776381Y-92911000D01*
X83776381Y-92911000D02*
X83728762Y-92863380D01*
X83728762Y-92863380D02*
X83704952Y-92815761D01*
X83704952Y-92815761D02*
X83681143Y-92720523D01*
X83681143Y-92720523D02*
X83681143Y-92649095D01*
X83681143Y-92649095D02*
X83704952Y-92553857D01*
X83704952Y-92553857D02*
X83728762Y-92506238D01*
X83728762Y-92506238D02*
X83776381Y-92458619D01*
X83776381Y-92458619D02*
X83847809Y-92434809D01*
X83847809Y-92434809D02*
X83895428Y-92434809D01*
X83895428Y-92434809D02*
X83966857Y-92458619D01*
X83966857Y-92458619D02*
X83990666Y-92482428D01*
X84181143Y-92482428D02*
X84204952Y-92458619D01*
X84204952Y-92458619D02*
X84252571Y-92434809D01*
X84252571Y-92434809D02*
X84371619Y-92434809D01*
X84371619Y-92434809D02*
X84419238Y-92458619D01*
X84419238Y-92458619D02*
X84443047Y-92482428D01*
X84443047Y-92482428D02*
X84466857Y-92530047D01*
X84466857Y-92530047D02*
X84466857Y-92577666D01*
X84466857Y-92577666D02*
X84443047Y-92649095D01*
X84443047Y-92649095D02*
X84157333Y-92934809D01*
X84157333Y-92934809D02*
X84466857Y-92934809D01*
X83990666Y-91109190D02*
X83966857Y-91133000D01*
X83966857Y-91133000D02*
X83895428Y-91156809D01*
X83895428Y-91156809D02*
X83847809Y-91156809D01*
X83847809Y-91156809D02*
X83776381Y-91133000D01*
X83776381Y-91133000D02*
X83728762Y-91085380D01*
X83728762Y-91085380D02*
X83704952Y-91037761D01*
X83704952Y-91037761D02*
X83681143Y-90942523D01*
X83681143Y-90942523D02*
X83681143Y-90871095D01*
X83681143Y-90871095D02*
X83704952Y-90775857D01*
X83704952Y-90775857D02*
X83728762Y-90728238D01*
X83728762Y-90728238D02*
X83776381Y-90680619D01*
X83776381Y-90680619D02*
X83847809Y-90656809D01*
X83847809Y-90656809D02*
X83895428Y-90656809D01*
X83895428Y-90656809D02*
X83966857Y-90680619D01*
X83966857Y-90680619D02*
X83990666Y-90704428D01*
X84466857Y-91156809D02*
X84181143Y-91156809D01*
X84324000Y-91156809D02*
X84324000Y-90656809D01*
X84324000Y-90656809D02*
X84276381Y-90728238D01*
X84276381Y-90728238D02*
X84228762Y-90775857D01*
X84228762Y-90775857D02*
X84181143Y-90799666D01*
D14*
X65833333Y-89954819D02*
X65500000Y-89478628D01*
X65261905Y-89954819D02*
X65261905Y-88954819D01*
X65261905Y-88954819D02*
X65642857Y-88954819D01*
X65642857Y-88954819D02*
X65738095Y-89002438D01*
X65738095Y-89002438D02*
X65785714Y-89050057D01*
X65785714Y-89050057D02*
X65833333Y-89145295D01*
X65833333Y-89145295D02*
X65833333Y-89288152D01*
X65833333Y-89288152D02*
X65785714Y-89383390D01*
X65785714Y-89383390D02*
X65738095Y-89431009D01*
X65738095Y-89431009D02*
X65642857Y-89478628D01*
X65642857Y-89478628D02*
X65261905Y-89478628D01*
X66785714Y-89954819D02*
X66214286Y-89954819D01*
X66500000Y-89954819D02*
X66500000Y-88954819D01*
X66500000Y-88954819D02*
X66404762Y-89097676D01*
X66404762Y-89097676D02*
X66309524Y-89192914D01*
X66309524Y-89192914D02*
X66214286Y-89240533D01*
D13*
X83990666Y-94665190D02*
X83966857Y-94689000D01*
X83966857Y-94689000D02*
X83895428Y-94712809D01*
X83895428Y-94712809D02*
X83847809Y-94712809D01*
X83847809Y-94712809D02*
X83776381Y-94689000D01*
X83776381Y-94689000D02*
X83728762Y-94641380D01*
X83728762Y-94641380D02*
X83704952Y-94593761D01*
X83704952Y-94593761D02*
X83681143Y-94498523D01*
X83681143Y-94498523D02*
X83681143Y-94427095D01*
X83681143Y-94427095D02*
X83704952Y-94331857D01*
X83704952Y-94331857D02*
X83728762Y-94284238D01*
X83728762Y-94284238D02*
X83776381Y-94236619D01*
X83776381Y-94236619D02*
X83847809Y-94212809D01*
X83847809Y-94212809D02*
X83895428Y-94212809D01*
X83895428Y-94212809D02*
X83966857Y-94236619D01*
X83966857Y-94236619D02*
X83990666Y-94260428D01*
X84157333Y-94212809D02*
X84466857Y-94212809D01*
X84466857Y-94212809D02*
X84300190Y-94403285D01*
X84300190Y-94403285D02*
X84371619Y-94403285D01*
X84371619Y-94403285D02*
X84419238Y-94427095D01*
X84419238Y-94427095D02*
X84443047Y-94450904D01*
X84443047Y-94450904D02*
X84466857Y-94498523D01*
X84466857Y-94498523D02*
X84466857Y-94617571D01*
X84466857Y-94617571D02*
X84443047Y-94665190D01*
X84443047Y-94665190D02*
X84419238Y-94689000D01*
X84419238Y-94689000D02*
X84371619Y-94712809D01*
X84371619Y-94712809D02*
X84228762Y-94712809D01*
X84228762Y-94712809D02*
X84181143Y-94689000D01*
X84181143Y-94689000D02*
X84157333Y-94665190D01*
D14*
X66819333Y-108372819D02*
X66486000Y-107896628D01*
X66247905Y-108372819D02*
X66247905Y-107372819D01*
X66247905Y-107372819D02*
X66628857Y-107372819D01*
X66628857Y-107372819D02*
X66724095Y-107420438D01*
X66724095Y-107420438D02*
X66771714Y-107468057D01*
X66771714Y-107468057D02*
X66819333Y-107563295D01*
X66819333Y-107563295D02*
X66819333Y-107706152D01*
X66819333Y-107706152D02*
X66771714Y-107801390D01*
X66771714Y-107801390D02*
X66724095Y-107849009D01*
X66724095Y-107849009D02*
X66628857Y-107896628D01*
X66628857Y-107896628D02*
X66247905Y-107896628D01*
X67200286Y-107468057D02*
X67247905Y-107420438D01*
X67247905Y-107420438D02*
X67343143Y-107372819D01*
X67343143Y-107372819D02*
X67581238Y-107372819D01*
X67581238Y-107372819D02*
X67676476Y-107420438D01*
X67676476Y-107420438D02*
X67724095Y-107468057D01*
X67724095Y-107468057D02*
X67771714Y-107563295D01*
X67771714Y-107563295D02*
X67771714Y-107658533D01*
X67771714Y-107658533D02*
X67724095Y-107801390D01*
X67724095Y-107801390D02*
X67152667Y-108372819D01*
X67152667Y-108372819D02*
X67771714Y-108372819D01*
X66890761Y-110514057D02*
X66795523Y-110466438D01*
X66795523Y-110466438D02*
X66700285Y-110371200D01*
X66700285Y-110371200D02*
X66557428Y-110228342D01*
X66557428Y-110228342D02*
X66462190Y-110180723D01*
X66462190Y-110180723D02*
X66366952Y-110180723D01*
X66414571Y-110418819D02*
X66319333Y-110371200D01*
X66319333Y-110371200D02*
X66224095Y-110275961D01*
X66224095Y-110275961D02*
X66176476Y-110085485D01*
X66176476Y-110085485D02*
X66176476Y-109752152D01*
X66176476Y-109752152D02*
X66224095Y-109561676D01*
X66224095Y-109561676D02*
X66319333Y-109466438D01*
X66319333Y-109466438D02*
X66414571Y-109418819D01*
X66414571Y-109418819D02*
X66605047Y-109418819D01*
X66605047Y-109418819D02*
X66700285Y-109466438D01*
X66700285Y-109466438D02*
X66795523Y-109561676D01*
X66795523Y-109561676D02*
X66843142Y-109752152D01*
X66843142Y-109752152D02*
X66843142Y-110085485D01*
X66843142Y-110085485D02*
X66795523Y-110275961D01*
X66795523Y-110275961D02*
X66700285Y-110371200D01*
X66700285Y-110371200D02*
X66605047Y-110418819D01*
X66605047Y-110418819D02*
X66414571Y-110418819D01*
X67795523Y-110418819D02*
X67224095Y-110418819D01*
X67509809Y-110418819D02*
X67509809Y-109418819D01*
X67509809Y-109418819D02*
X67414571Y-109561676D01*
X67414571Y-109561676D02*
X67319333Y-109656914D01*
X67319333Y-109656914D02*
X67224095Y-109704533D01*
D13*
X83990666Y-96443190D02*
X83966857Y-96467000D01*
X83966857Y-96467000D02*
X83895428Y-96490809D01*
X83895428Y-96490809D02*
X83847809Y-96490809D01*
X83847809Y-96490809D02*
X83776381Y-96467000D01*
X83776381Y-96467000D02*
X83728762Y-96419380D01*
X83728762Y-96419380D02*
X83704952Y-96371761D01*
X83704952Y-96371761D02*
X83681143Y-96276523D01*
X83681143Y-96276523D02*
X83681143Y-96205095D01*
X83681143Y-96205095D02*
X83704952Y-96109857D01*
X83704952Y-96109857D02*
X83728762Y-96062238D01*
X83728762Y-96062238D02*
X83776381Y-96014619D01*
X83776381Y-96014619D02*
X83847809Y-95990809D01*
X83847809Y-95990809D02*
X83895428Y-95990809D01*
X83895428Y-95990809D02*
X83966857Y-96014619D01*
X83966857Y-96014619D02*
X83990666Y-96038428D01*
X84419238Y-96157476D02*
X84419238Y-96490809D01*
X84300190Y-95967000D02*
X84181143Y-96324142D01*
X84181143Y-96324142D02*
X84490666Y-96324142D01*
D14*
X81238095Y-88954819D02*
X81238095Y-89764342D01*
X81238095Y-89764342D02*
X81285714Y-89859580D01*
X81285714Y-89859580D02*
X81333333Y-89907200D01*
X81333333Y-89907200D02*
X81428571Y-89954819D01*
X81428571Y-89954819D02*
X81619047Y-89954819D01*
X81619047Y-89954819D02*
X81714285Y-89907200D01*
X81714285Y-89907200D02*
X81761904Y-89859580D01*
X81761904Y-89859580D02*
X81809523Y-89764342D01*
X81809523Y-89764342D02*
X81809523Y-88954819D01*
X82809523Y-89954819D02*
X82238095Y-89954819D01*
X82523809Y-89954819D02*
X82523809Y-88954819D01*
X82523809Y-88954819D02*
X82428571Y-89097676D01*
X82428571Y-89097676D02*
X82333333Y-89192914D01*
X82333333Y-89192914D02*
X82238095Y-89240533D01*
X83693095Y-101703819D02*
X83693095Y-102513342D01*
X83693095Y-102513342D02*
X83740714Y-102608580D01*
X83740714Y-102608580D02*
X83788333Y-102656200D01*
X83788333Y-102656200D02*
X83883571Y-102703819D01*
X83883571Y-102703819D02*
X84074047Y-102703819D01*
X84074047Y-102703819D02*
X84169285Y-102656200D01*
X84169285Y-102656200D02*
X84216904Y-102608580D01*
X84216904Y-102608580D02*
X84264523Y-102513342D01*
X84264523Y-102513342D02*
X84264523Y-101703819D01*
X85216904Y-101703819D02*
X84740714Y-101703819D01*
X84740714Y-101703819D02*
X84693095Y-102180009D01*
X84693095Y-102180009D02*
X84740714Y-102132390D01*
X84740714Y-102132390D02*
X84835952Y-102084771D01*
X84835952Y-102084771D02*
X85074047Y-102084771D01*
X85074047Y-102084771D02*
X85169285Y-102132390D01*
X85169285Y-102132390D02*
X85216904Y-102180009D01*
X85216904Y-102180009D02*
X85264523Y-102275247D01*
X85264523Y-102275247D02*
X85264523Y-102513342D01*
X85264523Y-102513342D02*
X85216904Y-102608580D01*
X85216904Y-102608580D02*
X85169285Y-102656200D01*
X85169285Y-102656200D02*
X85074047Y-102703819D01*
X85074047Y-102703819D02*
X84835952Y-102703819D01*
X84835952Y-102703819D02*
X84740714Y-102656200D01*
X84740714Y-102656200D02*
X84693095Y-102608580D01*
X66819333Y-115484819D02*
X66486000Y-115008628D01*
X66247905Y-115484819D02*
X66247905Y-114484819D01*
X66247905Y-114484819D02*
X66628857Y-114484819D01*
X66628857Y-114484819D02*
X66724095Y-114532438D01*
X66724095Y-114532438D02*
X66771714Y-114580057D01*
X66771714Y-114580057D02*
X66819333Y-114675295D01*
X66819333Y-114675295D02*
X66819333Y-114818152D01*
X66819333Y-114818152D02*
X66771714Y-114913390D01*
X66771714Y-114913390D02*
X66724095Y-114961009D01*
X66724095Y-114961009D02*
X66628857Y-115008628D01*
X66628857Y-115008628D02*
X66247905Y-115008628D01*
X67152667Y-114484819D02*
X67771714Y-114484819D01*
X67771714Y-114484819D02*
X67438381Y-114865771D01*
X67438381Y-114865771D02*
X67581238Y-114865771D01*
X67581238Y-114865771D02*
X67676476Y-114913390D01*
X67676476Y-114913390D02*
X67724095Y-114961009D01*
X67724095Y-114961009D02*
X67771714Y-115056247D01*
X67771714Y-115056247D02*
X67771714Y-115294342D01*
X67771714Y-115294342D02*
X67724095Y-115389580D01*
X67724095Y-115389580D02*
X67676476Y-115437200D01*
X67676476Y-115437200D02*
X67581238Y-115484819D01*
X67581238Y-115484819D02*
X67295524Y-115484819D01*
X67295524Y-115484819D02*
X67200286Y-115437200D01*
X67200286Y-115437200D02*
X67152667Y-115389580D01*
X63238095Y-100454819D02*
X63238095Y-101264342D01*
X63238095Y-101264342D02*
X63285714Y-101359580D01*
X63285714Y-101359580D02*
X63333333Y-101407200D01*
X63333333Y-101407200D02*
X63428571Y-101454819D01*
X63428571Y-101454819D02*
X63619047Y-101454819D01*
X63619047Y-101454819D02*
X63714285Y-101407200D01*
X63714285Y-101407200D02*
X63761904Y-101359580D01*
X63761904Y-101359580D02*
X63809523Y-101264342D01*
X63809523Y-101264342D02*
X63809523Y-100454819D01*
X64238095Y-100550057D02*
X64285714Y-100502438D01*
X64285714Y-100502438D02*
X64380952Y-100454819D01*
X64380952Y-100454819D02*
X64619047Y-100454819D01*
X64619047Y-100454819D02*
X64714285Y-100502438D01*
X64714285Y-100502438D02*
X64761904Y-100550057D01*
X64761904Y-100550057D02*
X64809523Y-100645295D01*
X64809523Y-100645295D02*
X64809523Y-100740533D01*
X64809523Y-100740533D02*
X64761904Y-100883390D01*
X64761904Y-100883390D02*
X64190476Y-101454819D01*
X64190476Y-101454819D02*
X64809523Y-101454819D01*
X71266666Y-104654819D02*
X71266666Y-105369104D01*
X71266666Y-105369104D02*
X71219047Y-105511961D01*
X71219047Y-105511961D02*
X71123809Y-105607200D01*
X71123809Y-105607200D02*
X70980952Y-105654819D01*
X70980952Y-105654819D02*
X70885714Y-105654819D01*
X72266666Y-105654819D02*
X71695238Y-105654819D01*
X71980952Y-105654819D02*
X71980952Y-104654819D01*
X71980952Y-104654819D02*
X71885714Y-104797676D01*
X71885714Y-104797676D02*
X71790476Y-104892914D01*
X71790476Y-104892914D02*
X71695238Y-104940533D01*
X66890761Y-113562057D02*
X66795523Y-113514438D01*
X66795523Y-113514438D02*
X66700285Y-113419200D01*
X66700285Y-113419200D02*
X66557428Y-113276342D01*
X66557428Y-113276342D02*
X66462190Y-113228723D01*
X66462190Y-113228723D02*
X66366952Y-113228723D01*
X66414571Y-113466819D02*
X66319333Y-113419200D01*
X66319333Y-113419200D02*
X66224095Y-113323961D01*
X66224095Y-113323961D02*
X66176476Y-113133485D01*
X66176476Y-113133485D02*
X66176476Y-112800152D01*
X66176476Y-112800152D02*
X66224095Y-112609676D01*
X66224095Y-112609676D02*
X66319333Y-112514438D01*
X66319333Y-112514438D02*
X66414571Y-112466819D01*
X66414571Y-112466819D02*
X66605047Y-112466819D01*
X66605047Y-112466819D02*
X66700285Y-112514438D01*
X66700285Y-112514438D02*
X66795523Y-112609676D01*
X66795523Y-112609676D02*
X66843142Y-112800152D01*
X66843142Y-112800152D02*
X66843142Y-113133485D01*
X66843142Y-113133485D02*
X66795523Y-113323961D01*
X66795523Y-113323961D02*
X66700285Y-113419200D01*
X66700285Y-113419200D02*
X66605047Y-113466819D01*
X66605047Y-113466819D02*
X66414571Y-113466819D01*
X67224095Y-112562057D02*
X67271714Y-112514438D01*
X67271714Y-112514438D02*
X67366952Y-112466819D01*
X67366952Y-112466819D02*
X67605047Y-112466819D01*
X67605047Y-112466819D02*
X67700285Y-112514438D01*
X67700285Y-112514438D02*
X67747904Y-112562057D01*
X67747904Y-112562057D02*
X67795523Y-112657295D01*
X67795523Y-112657295D02*
X67795523Y-112752533D01*
X67795523Y-112752533D02*
X67747904Y-112895390D01*
X67747904Y-112895390D02*
X67176476Y-113466819D01*
X67176476Y-113466819D02*
X67795523Y-113466819D01*
D15*
%TO.C,TP1*%
X68580000Y-86424000D02*
X70480000Y-86424000D01*
X68580000Y-88324000D02*
X68580000Y-86424000D01*
X70480000Y-86424000D02*
X70480000Y-88324000D01*
X70480000Y-88324000D02*
X68580000Y-88324000D01*
%TO.C,TP3*%
X79980000Y-86424000D02*
X81880000Y-86424000D01*
X79980000Y-88324000D02*
X79980000Y-86424000D01*
X81880000Y-86424000D02*
X81880000Y-88324000D01*
X81880000Y-88324000D02*
X79980000Y-88324000D01*
%TO.C,C2*%
X86213733Y-92200000D02*
X86506267Y-92200000D01*
X86213733Y-93220000D02*
X86506267Y-93220000D01*
%TO.C,C1*%
X86213733Y-90422000D02*
X86506267Y-90422000D01*
X86213733Y-91442000D02*
X86506267Y-91442000D01*
%TO.C,R1*%
X69267224Y-90071500D02*
X68757776Y-90071500D01*
X69267224Y-89026500D02*
X68757776Y-89026500D01*
%TO.C,C3*%
X86213733Y-93978000D02*
X86506267Y-93978000D01*
X86213733Y-94998000D02*
X86506267Y-94998000D01*
%TO.C,R2*%
X70034724Y-108454500D02*
X69525276Y-108454500D01*
X70034724Y-107409500D02*
X69525276Y-107409500D01*
%TO.C,Q1*%
X70492000Y-108856000D02*
X69082000Y-108856000D01*
X69082000Y-111176000D02*
X71112000Y-111176000D01*
X69082000Y-111176000D02*
X69082000Y-110516000D01*
X69082000Y-109516000D02*
X69082000Y-108856000D01*
%TO.C,C4*%
X86506267Y-96776000D02*
X86213733Y-96776000D01*
X86506267Y-95756000D02*
X86213733Y-95756000D01*
%TO.C,U1*%
X84957500Y-86780000D02*
X83157500Y-86780000D01*
X84957500Y-86780000D02*
X85757500Y-86780000D01*
X84957500Y-89900000D02*
X84157500Y-89900000D01*
X84957500Y-89900000D02*
X85757500Y-89900000D01*
%TO.C,U5*%
X69730000Y-102624000D02*
X69730000Y-103424000D01*
X69730000Y-103424000D02*
X70530000Y-103424000D01*
X69930000Y-90724000D02*
X83130000Y-90724000D01*
X69930000Y-103224000D02*
X69930000Y-90724000D01*
X70605000Y-90524000D02*
X69755000Y-90524000D01*
X82580000Y-90524000D02*
X83330000Y-90524000D01*
X83130000Y-90724000D02*
X83130000Y-103224000D01*
X83130000Y-103224000D02*
X69930000Y-103224000D01*
X83330000Y-90524000D02*
X83330000Y-91174000D01*
X83330000Y-102624000D02*
X83330000Y-103424000D01*
X83330000Y-103424000D02*
X82530000Y-103424000D01*
%TO.C,R3*%
X70138224Y-115552500D02*
X69628776Y-115552500D01*
X70138224Y-114507500D02*
X69628776Y-114507500D01*
%TO.C,U2*%
X68600000Y-95899000D02*
X68600000Y-92449000D01*
X68600000Y-95899000D02*
X68600000Y-97849000D01*
X63480000Y-95899000D02*
X63480000Y-93949000D01*
X63480000Y-95899000D02*
X63480000Y-97849000D01*
%TO.C,J1*%
X72820000Y-116290000D02*
X83100000Y-116290000D01*
X72820000Y-116290000D02*
X72820000Y-107660000D01*
X72940000Y-116290000D02*
X72940000Y-107660000D01*
X73058095Y-116290000D02*
X73058095Y-107660000D01*
X73176190Y-116290000D02*
X73176190Y-107660000D01*
X73294285Y-116290000D02*
X73294285Y-107660000D01*
X73412380Y-116290000D02*
X73412380Y-107660000D01*
X73530475Y-116290000D02*
X73530475Y-107660000D01*
X73648570Y-116290000D02*
X73648570Y-107660000D01*
X73766665Y-116290000D02*
X73766665Y-107660000D01*
X73884760Y-116290000D02*
X73884760Y-107660000D01*
X74002855Y-116290000D02*
X74002855Y-107660000D01*
X74120950Y-116290000D02*
X74120950Y-107660000D01*
X74239045Y-116290000D02*
X74239045Y-107660000D01*
X74357140Y-116290000D02*
X74357140Y-107660000D01*
X74475235Y-116290000D02*
X74475235Y-107660000D01*
X74593330Y-116290000D02*
X74593330Y-107660000D01*
X74711425Y-116290000D02*
X74711425Y-107660000D01*
X74829520Y-116290000D02*
X74829520Y-107660000D01*
X74947615Y-116290000D02*
X74947615Y-107660000D01*
X75065710Y-116290000D02*
X75065710Y-107660000D01*
X75183805Y-116290000D02*
X75183805Y-107660000D01*
X75301900Y-116290000D02*
X75301900Y-107660000D01*
X75420000Y-116290000D02*
X75420000Y-107660000D01*
X77960000Y-116290000D02*
X77960000Y-107660000D01*
X80500000Y-116290000D02*
X80500000Y-107660000D01*
X83100000Y-116290000D02*
X83100000Y-107660000D01*
X72820000Y-107660000D02*
X83100000Y-107660000D01*
X73790000Y-107660000D02*
X73790000Y-107310000D01*
X74510000Y-107660000D02*
X74510000Y-107310000D01*
X76330000Y-107660000D02*
X76330000Y-107250000D01*
X77050000Y-107660000D02*
X77050000Y-107250000D01*
X78870000Y-107660000D02*
X78870000Y-107250000D01*
X79590000Y-107660000D02*
X79590000Y-107250000D01*
X81410000Y-107660000D02*
X81410000Y-107250000D01*
X82130000Y-107660000D02*
X82130000Y-107250000D01*
X72820000Y-106200000D02*
X72820000Y-105090000D01*
X72820000Y-105090000D02*
X74150000Y-105090000D01*
%TO.C,Q2*%
X70476000Y-111762000D02*
X69066000Y-111762000D01*
X69066000Y-114082000D02*
X71096000Y-114082000D01*
X69066000Y-114082000D02*
X69066000Y-113422000D01*
X69066000Y-112422000D02*
X69066000Y-111762000D01*
%TD*%
M02*
