%TF.GenerationSoftware,KiCad,Pcbnew,7.0.8*%
%TF.CreationDate,2023-10-29T23:41:36-05:00*%
%TF.ProjectId,CAN,43414e2e-6b69-4636-9164-5f7063625858,X1*%
%TF.SameCoordinates,Original*%
%TF.FileFunction,Legend,Top*%
%TF.FilePolarity,Positive*%
%FSLAX46Y46*%
G04 Gerber Fmt 4.6, Leading zero omitted, Abs format (unit mm)*
G04 Created by KiCad (PCBNEW 7.0.8) date 2023-10-29 23:41:36*
%MOMM*%
%LPD*%
G01*
G04 APERTURE LIST*
%ADD10C,0.150000*%
%ADD11C,0.125000*%
%ADD12C,0.100000*%
%ADD13C,0.120000*%
G04 APERTURE END LIST*
D10*
X67564095Y-106388819D02*
X67564095Y-107198342D01*
X67564095Y-107198342D02*
X67611714Y-107293580D01*
X67611714Y-107293580D02*
X67659333Y-107341200D01*
X67659333Y-107341200D02*
X67754571Y-107388819D01*
X67754571Y-107388819D02*
X67945047Y-107388819D01*
X67945047Y-107388819D02*
X68040285Y-107341200D01*
X68040285Y-107341200D02*
X68087904Y-107293580D01*
X68087904Y-107293580D02*
X68135523Y-107198342D01*
X68135523Y-107198342D02*
X68135523Y-106388819D01*
X69087904Y-106388819D02*
X68611714Y-106388819D01*
X68611714Y-106388819D02*
X68564095Y-106865009D01*
X68564095Y-106865009D02*
X68611714Y-106817390D01*
X68611714Y-106817390D02*
X68706952Y-106769771D01*
X68706952Y-106769771D02*
X68945047Y-106769771D01*
X68945047Y-106769771D02*
X69040285Y-106817390D01*
X69040285Y-106817390D02*
X69087904Y-106865009D01*
X69087904Y-106865009D02*
X69135523Y-106960247D01*
X69135523Y-106960247D02*
X69135523Y-107198342D01*
X69135523Y-107198342D02*
X69087904Y-107293580D01*
X69087904Y-107293580D02*
X69040285Y-107341200D01*
X69040285Y-107341200D02*
X68945047Y-107388819D01*
X68945047Y-107388819D02*
X68706952Y-107388819D01*
X68706952Y-107388819D02*
X68611714Y-107341200D01*
X68611714Y-107341200D02*
X68564095Y-107293580D01*
D11*
X84216035Y-93597000D02*
X84251750Y-93632714D01*
X84251750Y-93632714D02*
X84287464Y-93739857D01*
X84287464Y-93739857D02*
X84287464Y-93811285D01*
X84287464Y-93811285D02*
X84251750Y-93918428D01*
X84251750Y-93918428D02*
X84180321Y-93989857D01*
X84180321Y-93989857D02*
X84108892Y-94025571D01*
X84108892Y-94025571D02*
X83966035Y-94061285D01*
X83966035Y-94061285D02*
X83858892Y-94061285D01*
X83858892Y-94061285D02*
X83716035Y-94025571D01*
X83716035Y-94025571D02*
X83644607Y-93989857D01*
X83644607Y-93989857D02*
X83573178Y-93918428D01*
X83573178Y-93918428D02*
X83537464Y-93811285D01*
X83537464Y-93811285D02*
X83537464Y-93739857D01*
X83537464Y-93739857D02*
X83573178Y-93632714D01*
X83573178Y-93632714D02*
X83608892Y-93597000D01*
X83537464Y-93347000D02*
X83537464Y-92882714D01*
X83537464Y-92882714D02*
X83823178Y-93132714D01*
X83823178Y-93132714D02*
X83823178Y-93025571D01*
X83823178Y-93025571D02*
X83858892Y-92954143D01*
X83858892Y-92954143D02*
X83894607Y-92918428D01*
X83894607Y-92918428D02*
X83966035Y-92882714D01*
X83966035Y-92882714D02*
X84144607Y-92882714D01*
X84144607Y-92882714D02*
X84216035Y-92918428D01*
X84216035Y-92918428D02*
X84251750Y-92954143D01*
X84251750Y-92954143D02*
X84287464Y-93025571D01*
X84287464Y-93025571D02*
X84287464Y-93239857D01*
X84287464Y-93239857D02*
X84251750Y-93311285D01*
X84251750Y-93311285D02*
X84216035Y-93347000D01*
D10*
X64890667Y-111868295D02*
X64624000Y-111487342D01*
X64433524Y-111868295D02*
X64433524Y-111068295D01*
X64433524Y-111068295D02*
X64738286Y-111068295D01*
X64738286Y-111068295D02*
X64814476Y-111106390D01*
X64814476Y-111106390D02*
X64852571Y-111144485D01*
X64852571Y-111144485D02*
X64890667Y-111220676D01*
X64890667Y-111220676D02*
X64890667Y-111334961D01*
X64890667Y-111334961D02*
X64852571Y-111411152D01*
X64852571Y-111411152D02*
X64814476Y-111449247D01*
X64814476Y-111449247D02*
X64738286Y-111487342D01*
X64738286Y-111487342D02*
X64433524Y-111487342D01*
X65614476Y-111068295D02*
X65233524Y-111068295D01*
X65233524Y-111068295D02*
X65195428Y-111449247D01*
X65195428Y-111449247D02*
X65233524Y-111411152D01*
X65233524Y-111411152D02*
X65309714Y-111373057D01*
X65309714Y-111373057D02*
X65500190Y-111373057D01*
X65500190Y-111373057D02*
X65576381Y-111411152D01*
X65576381Y-111411152D02*
X65614476Y-111449247D01*
X65614476Y-111449247D02*
X65652571Y-111525438D01*
X65652571Y-111525438D02*
X65652571Y-111715914D01*
X65652571Y-111715914D02*
X65614476Y-111792104D01*
X65614476Y-111792104D02*
X65576381Y-111830200D01*
X65576381Y-111830200D02*
X65500190Y-111868295D01*
X65500190Y-111868295D02*
X65309714Y-111868295D01*
X65309714Y-111868295D02*
X65233524Y-111830200D01*
X65233524Y-111830200D02*
X65195428Y-111792104D01*
D11*
X84216035Y-91565000D02*
X84251750Y-91600714D01*
X84251750Y-91600714D02*
X84287464Y-91707857D01*
X84287464Y-91707857D02*
X84287464Y-91779285D01*
X84287464Y-91779285D02*
X84251750Y-91886428D01*
X84251750Y-91886428D02*
X84180321Y-91957857D01*
X84180321Y-91957857D02*
X84108892Y-91993571D01*
X84108892Y-91993571D02*
X83966035Y-92029285D01*
X83966035Y-92029285D02*
X83858892Y-92029285D01*
X83858892Y-92029285D02*
X83716035Y-91993571D01*
X83716035Y-91993571D02*
X83644607Y-91957857D01*
X83644607Y-91957857D02*
X83573178Y-91886428D01*
X83573178Y-91886428D02*
X83537464Y-91779285D01*
X83537464Y-91779285D02*
X83537464Y-91707857D01*
X83537464Y-91707857D02*
X83573178Y-91600714D01*
X83573178Y-91600714D02*
X83608892Y-91565000D01*
X83608892Y-91279285D02*
X83573178Y-91243571D01*
X83573178Y-91243571D02*
X83537464Y-91172143D01*
X83537464Y-91172143D02*
X83537464Y-90993571D01*
X83537464Y-90993571D02*
X83573178Y-90922143D01*
X83573178Y-90922143D02*
X83608892Y-90886428D01*
X83608892Y-90886428D02*
X83680321Y-90850714D01*
X83680321Y-90850714D02*
X83751750Y-90850714D01*
X83751750Y-90850714D02*
X83858892Y-90886428D01*
X83858892Y-90886428D02*
X84287464Y-91315000D01*
X84287464Y-91315000D02*
X84287464Y-90850714D01*
D10*
X64382667Y-91751495D02*
X64116000Y-91370542D01*
X63925524Y-91751495D02*
X63925524Y-90951495D01*
X63925524Y-90951495D02*
X64230286Y-90951495D01*
X64230286Y-90951495D02*
X64306476Y-90989590D01*
X64306476Y-90989590D02*
X64344571Y-91027685D01*
X64344571Y-91027685D02*
X64382667Y-91103876D01*
X64382667Y-91103876D02*
X64382667Y-91218161D01*
X64382667Y-91218161D02*
X64344571Y-91294352D01*
X64344571Y-91294352D02*
X64306476Y-91332447D01*
X64306476Y-91332447D02*
X64230286Y-91370542D01*
X64230286Y-91370542D02*
X63925524Y-91370542D01*
X64687428Y-91027685D02*
X64725524Y-90989590D01*
X64725524Y-90989590D02*
X64801714Y-90951495D01*
X64801714Y-90951495D02*
X64992190Y-90951495D01*
X64992190Y-90951495D02*
X65068381Y-90989590D01*
X65068381Y-90989590D02*
X65106476Y-91027685D01*
X65106476Y-91027685D02*
X65144571Y-91103876D01*
X65144571Y-91103876D02*
X65144571Y-91180066D01*
X65144571Y-91180066D02*
X65106476Y-91294352D01*
X65106476Y-91294352D02*
X64649333Y-91751495D01*
X64649333Y-91751495D02*
X65144571Y-91751495D01*
D11*
X84964999Y-103210464D02*
X84714999Y-102853321D01*
X84536428Y-103210464D02*
X84536428Y-102460464D01*
X84536428Y-102460464D02*
X84822142Y-102460464D01*
X84822142Y-102460464D02*
X84893571Y-102496178D01*
X84893571Y-102496178D02*
X84929285Y-102531892D01*
X84929285Y-102531892D02*
X84964999Y-102603321D01*
X84964999Y-102603321D02*
X84964999Y-102710464D01*
X84964999Y-102710464D02*
X84929285Y-102781892D01*
X84929285Y-102781892D02*
X84893571Y-102817607D01*
X84893571Y-102817607D02*
X84822142Y-102853321D01*
X84822142Y-102853321D02*
X84536428Y-102853321D01*
X85679285Y-103210464D02*
X85250714Y-103210464D01*
X85464999Y-103210464D02*
X85464999Y-102460464D01*
X85464999Y-102460464D02*
X85393571Y-102567607D01*
X85393571Y-102567607D02*
X85322142Y-102639035D01*
X85322142Y-102639035D02*
X85250714Y-102674750D01*
X84190635Y-95629000D02*
X84226350Y-95664714D01*
X84226350Y-95664714D02*
X84262064Y-95771857D01*
X84262064Y-95771857D02*
X84262064Y-95843285D01*
X84262064Y-95843285D02*
X84226350Y-95950428D01*
X84226350Y-95950428D02*
X84154921Y-96021857D01*
X84154921Y-96021857D02*
X84083492Y-96057571D01*
X84083492Y-96057571D02*
X83940635Y-96093285D01*
X83940635Y-96093285D02*
X83833492Y-96093285D01*
X83833492Y-96093285D02*
X83690635Y-96057571D01*
X83690635Y-96057571D02*
X83619207Y-96021857D01*
X83619207Y-96021857D02*
X83547778Y-95950428D01*
X83547778Y-95950428D02*
X83512064Y-95843285D01*
X83512064Y-95843285D02*
X83512064Y-95771857D01*
X83512064Y-95771857D02*
X83547778Y-95664714D01*
X83547778Y-95664714D02*
X83583492Y-95629000D01*
X83762064Y-94986143D02*
X84262064Y-94986143D01*
X83476350Y-95164714D02*
X84012064Y-95343285D01*
X84012064Y-95343285D02*
X84012064Y-94879000D01*
D12*
X85693334Y-115010300D02*
X85764762Y-115034109D01*
X85764762Y-115034109D02*
X85883810Y-115034109D01*
X85883810Y-115034109D02*
X85931429Y-115010300D01*
X85931429Y-115010300D02*
X85955238Y-114986490D01*
X85955238Y-114986490D02*
X85979048Y-114938871D01*
X85979048Y-114938871D02*
X85979048Y-114891252D01*
X85979048Y-114891252D02*
X85955238Y-114843633D01*
X85955238Y-114843633D02*
X85931429Y-114819823D01*
X85931429Y-114819823D02*
X85883810Y-114796014D01*
X85883810Y-114796014D02*
X85788572Y-114772204D01*
X85788572Y-114772204D02*
X85740953Y-114748395D01*
X85740953Y-114748395D02*
X85717143Y-114724585D01*
X85717143Y-114724585D02*
X85693334Y-114676966D01*
X85693334Y-114676966D02*
X85693334Y-114629347D01*
X85693334Y-114629347D02*
X85717143Y-114581728D01*
X85717143Y-114581728D02*
X85740953Y-114557919D01*
X85740953Y-114557919D02*
X85788572Y-114534109D01*
X85788572Y-114534109D02*
X85907619Y-114534109D01*
X85907619Y-114534109D02*
X85979048Y-114557919D01*
X86145714Y-114534109D02*
X86264762Y-115034109D01*
X86264762Y-115034109D02*
X86360000Y-114676966D01*
X86360000Y-114676966D02*
X86455238Y-115034109D01*
X86455238Y-115034109D02*
X86574286Y-114534109D01*
X87026667Y-115034109D02*
X86740953Y-115034109D01*
X86883810Y-115034109D02*
X86883810Y-114534109D01*
X86883810Y-114534109D02*
X86836191Y-114605538D01*
X86836191Y-114605538D02*
X86788572Y-114653157D01*
X86788572Y-114653157D02*
X86740953Y-114676966D01*
D10*
X66211524Y-91802295D02*
X66211524Y-91002295D01*
X66211524Y-91002295D02*
X66402000Y-91002295D01*
X66402000Y-91002295D02*
X66516286Y-91040390D01*
X66516286Y-91040390D02*
X66592476Y-91116580D01*
X66592476Y-91116580D02*
X66630571Y-91192771D01*
X66630571Y-91192771D02*
X66668667Y-91345152D01*
X66668667Y-91345152D02*
X66668667Y-91459438D01*
X66668667Y-91459438D02*
X66630571Y-91611819D01*
X66630571Y-91611819D02*
X66592476Y-91688009D01*
X66592476Y-91688009D02*
X66516286Y-91764200D01*
X66516286Y-91764200D02*
X66402000Y-91802295D01*
X66402000Y-91802295D02*
X66211524Y-91802295D01*
X67430571Y-91802295D02*
X66973428Y-91802295D01*
X67202000Y-91802295D02*
X67202000Y-91002295D01*
X67202000Y-91002295D02*
X67125809Y-91116580D01*
X67125809Y-91116580D02*
X67049619Y-91192771D01*
X67049619Y-91192771D02*
X66973428Y-91230866D01*
X68500666Y-104610819D02*
X68500666Y-105325104D01*
X68500666Y-105325104D02*
X68453047Y-105467961D01*
X68453047Y-105467961D02*
X68357809Y-105563200D01*
X68357809Y-105563200D02*
X68214952Y-105610819D01*
X68214952Y-105610819D02*
X68119714Y-105610819D01*
X69500666Y-105610819D02*
X68929238Y-105610819D01*
X69214952Y-105610819D02*
X69214952Y-104610819D01*
X69214952Y-104610819D02*
X69119714Y-104753676D01*
X69119714Y-104753676D02*
X69024476Y-104848914D01*
X69024476Y-104848914D02*
X68929238Y-104896533D01*
X64433524Y-115551295D02*
X64433524Y-114751295D01*
X64433524Y-114751295D02*
X64624000Y-114751295D01*
X64624000Y-114751295D02*
X64738286Y-114789390D01*
X64738286Y-114789390D02*
X64814476Y-114865580D01*
X64814476Y-114865580D02*
X64852571Y-114941771D01*
X64852571Y-114941771D02*
X64890667Y-115094152D01*
X64890667Y-115094152D02*
X64890667Y-115208438D01*
X64890667Y-115208438D02*
X64852571Y-115360819D01*
X64852571Y-115360819D02*
X64814476Y-115437009D01*
X64814476Y-115437009D02*
X64738286Y-115513200D01*
X64738286Y-115513200D02*
X64624000Y-115551295D01*
X64624000Y-115551295D02*
X64433524Y-115551295D01*
X65195428Y-114827485D02*
X65233524Y-114789390D01*
X65233524Y-114789390D02*
X65309714Y-114751295D01*
X65309714Y-114751295D02*
X65500190Y-114751295D01*
X65500190Y-114751295D02*
X65576381Y-114789390D01*
X65576381Y-114789390D02*
X65614476Y-114827485D01*
X65614476Y-114827485D02*
X65652571Y-114903676D01*
X65652571Y-114903676D02*
X65652571Y-114979866D01*
X65652571Y-114979866D02*
X65614476Y-115094152D01*
X65614476Y-115094152D02*
X65157333Y-115551295D01*
X65157333Y-115551295D02*
X65652571Y-115551295D01*
X63366667Y-104248295D02*
X63100000Y-103867342D01*
X62909524Y-104248295D02*
X62909524Y-103448295D01*
X62909524Y-103448295D02*
X63214286Y-103448295D01*
X63214286Y-103448295D02*
X63290476Y-103486390D01*
X63290476Y-103486390D02*
X63328571Y-103524485D01*
X63328571Y-103524485D02*
X63366667Y-103600676D01*
X63366667Y-103600676D02*
X63366667Y-103714961D01*
X63366667Y-103714961D02*
X63328571Y-103791152D01*
X63328571Y-103791152D02*
X63290476Y-103829247D01*
X63290476Y-103829247D02*
X63214286Y-103867342D01*
X63214286Y-103867342D02*
X62909524Y-103867342D01*
X64052381Y-103714961D02*
X64052381Y-104248295D01*
X63861905Y-103410200D02*
X63671428Y-103981628D01*
X63671428Y-103981628D02*
X64166667Y-103981628D01*
X65398667Y-104248295D02*
X65132000Y-103867342D01*
X64941524Y-104248295D02*
X64941524Y-103448295D01*
X64941524Y-103448295D02*
X65246286Y-103448295D01*
X65246286Y-103448295D02*
X65322476Y-103486390D01*
X65322476Y-103486390D02*
X65360571Y-103524485D01*
X65360571Y-103524485D02*
X65398667Y-103600676D01*
X65398667Y-103600676D02*
X65398667Y-103714961D01*
X65398667Y-103714961D02*
X65360571Y-103791152D01*
X65360571Y-103791152D02*
X65322476Y-103829247D01*
X65322476Y-103829247D02*
X65246286Y-103867342D01*
X65246286Y-103867342D02*
X64941524Y-103867342D01*
X65665333Y-103448295D02*
X66198667Y-103448295D01*
X66198667Y-103448295D02*
X65855809Y-104248295D01*
D11*
X84190635Y-97661000D02*
X84226350Y-97696714D01*
X84226350Y-97696714D02*
X84262064Y-97803857D01*
X84262064Y-97803857D02*
X84262064Y-97875285D01*
X84262064Y-97875285D02*
X84226350Y-97982428D01*
X84226350Y-97982428D02*
X84154921Y-98053857D01*
X84154921Y-98053857D02*
X84083492Y-98089571D01*
X84083492Y-98089571D02*
X83940635Y-98125285D01*
X83940635Y-98125285D02*
X83833492Y-98125285D01*
X83833492Y-98125285D02*
X83690635Y-98089571D01*
X83690635Y-98089571D02*
X83619207Y-98053857D01*
X83619207Y-98053857D02*
X83547778Y-97982428D01*
X83547778Y-97982428D02*
X83512064Y-97875285D01*
X83512064Y-97875285D02*
X83512064Y-97803857D01*
X83512064Y-97803857D02*
X83547778Y-97696714D01*
X83547778Y-97696714D02*
X83583492Y-97661000D01*
X83512064Y-97018143D02*
X83512064Y-97161000D01*
X83512064Y-97161000D02*
X83547778Y-97232428D01*
X83547778Y-97232428D02*
X83583492Y-97268143D01*
X83583492Y-97268143D02*
X83690635Y-97339571D01*
X83690635Y-97339571D02*
X83833492Y-97375285D01*
X83833492Y-97375285D02*
X84119207Y-97375285D01*
X84119207Y-97375285D02*
X84190635Y-97339571D01*
X84190635Y-97339571D02*
X84226350Y-97303857D01*
X84226350Y-97303857D02*
X84262064Y-97232428D01*
X84262064Y-97232428D02*
X84262064Y-97089571D01*
X84262064Y-97089571D02*
X84226350Y-97018143D01*
X84226350Y-97018143D02*
X84190635Y-96982428D01*
X84190635Y-96982428D02*
X84119207Y-96946714D01*
X84119207Y-96946714D02*
X83940635Y-96946714D01*
X83940635Y-96946714D02*
X83869207Y-96982428D01*
X83869207Y-96982428D02*
X83833492Y-97018143D01*
X83833492Y-97018143D02*
X83797778Y-97089571D01*
X83797778Y-97089571D02*
X83797778Y-97232428D01*
X83797778Y-97232428D02*
X83833492Y-97303857D01*
X83833492Y-97303857D02*
X83869207Y-97339571D01*
X83869207Y-97339571D02*
X83940635Y-97375285D01*
D10*
X81238095Y-88954819D02*
X81238095Y-89764342D01*
X81238095Y-89764342D02*
X81285714Y-89859580D01*
X81285714Y-89859580D02*
X81333333Y-89907200D01*
X81333333Y-89907200D02*
X81428571Y-89954819D01*
X81428571Y-89954819D02*
X81619047Y-89954819D01*
X81619047Y-89954819D02*
X81714285Y-89907200D01*
X81714285Y-89907200D02*
X81761904Y-89859580D01*
X81761904Y-89859580D02*
X81809523Y-89764342D01*
X81809523Y-89764342D02*
X81809523Y-88954819D01*
X82238095Y-89050057D02*
X82285714Y-89002438D01*
X82285714Y-89002438D02*
X82380952Y-88954819D01*
X82380952Y-88954819D02*
X82619047Y-88954819D01*
X82619047Y-88954819D02*
X82714285Y-89002438D01*
X82714285Y-89002438D02*
X82761904Y-89050057D01*
X82761904Y-89050057D02*
X82809523Y-89145295D01*
X82809523Y-89145295D02*
X82809523Y-89240533D01*
X82809523Y-89240533D02*
X82761904Y-89383390D01*
X82761904Y-89383390D02*
X82190476Y-89954819D01*
X82190476Y-89954819D02*
X82809523Y-89954819D01*
X83312095Y-106372819D02*
X83312095Y-105372819D01*
X83312095Y-105849009D02*
X83883523Y-105849009D01*
X83883523Y-106372819D02*
X83883523Y-105372819D01*
X84883523Y-106372819D02*
X84312095Y-106372819D01*
X84597809Y-106372819D02*
X84597809Y-105372819D01*
X84597809Y-105372819D02*
X84502571Y-105515676D01*
X84502571Y-105515676D02*
X84407333Y-105610914D01*
X84407333Y-105610914D02*
X84312095Y-105658533D01*
X75438095Y-100800819D02*
X75438095Y-101610342D01*
X75438095Y-101610342D02*
X75485714Y-101705580D01*
X75485714Y-101705580D02*
X75533333Y-101753200D01*
X75533333Y-101753200D02*
X75628571Y-101800819D01*
X75628571Y-101800819D02*
X75819047Y-101800819D01*
X75819047Y-101800819D02*
X75914285Y-101753200D01*
X75914285Y-101753200D02*
X75961904Y-101705580D01*
X75961904Y-101705580D02*
X76009523Y-101610342D01*
X76009523Y-101610342D02*
X76009523Y-100800819D01*
X77009523Y-101800819D02*
X76438095Y-101800819D01*
X76723809Y-101800819D02*
X76723809Y-100800819D01*
X76723809Y-100800819D02*
X76628571Y-100943676D01*
X76628571Y-100943676D02*
X76533333Y-101038914D01*
X76533333Y-101038914D02*
X76438095Y-101086533D01*
D12*
X62556895Y-93573523D02*
X63204514Y-93573523D01*
X63204514Y-93573523D02*
X63280704Y-93535428D01*
X63280704Y-93535428D02*
X63318800Y-93497333D01*
X63318800Y-93497333D02*
X63356895Y-93421142D01*
X63356895Y-93421142D02*
X63356895Y-93268761D01*
X63356895Y-93268761D02*
X63318800Y-93192571D01*
X63318800Y-93192571D02*
X63280704Y-93154476D01*
X63280704Y-93154476D02*
X63204514Y-93116380D01*
X63204514Y-93116380D02*
X62556895Y-93116380D01*
X62556895Y-92811619D02*
X62556895Y-92316381D01*
X62556895Y-92316381D02*
X62861657Y-92583047D01*
X62861657Y-92583047D02*
X62861657Y-92468762D01*
X62861657Y-92468762D02*
X62899752Y-92392571D01*
X62899752Y-92392571D02*
X62937847Y-92354476D01*
X62937847Y-92354476D02*
X63014038Y-92316381D01*
X63014038Y-92316381D02*
X63204514Y-92316381D01*
X63204514Y-92316381D02*
X63280704Y-92354476D01*
X63280704Y-92354476D02*
X63318800Y-92392571D01*
X63318800Y-92392571D02*
X63356895Y-92468762D01*
X63356895Y-92468762D02*
X63356895Y-92697333D01*
X63356895Y-92697333D02*
X63318800Y-92773524D01*
X63318800Y-92773524D02*
X63280704Y-92811619D01*
D11*
X86996999Y-103139035D02*
X86961285Y-103174750D01*
X86961285Y-103174750D02*
X86854142Y-103210464D01*
X86854142Y-103210464D02*
X86782714Y-103210464D01*
X86782714Y-103210464D02*
X86675571Y-103174750D01*
X86675571Y-103174750D02*
X86604142Y-103103321D01*
X86604142Y-103103321D02*
X86568428Y-103031892D01*
X86568428Y-103031892D02*
X86532714Y-102889035D01*
X86532714Y-102889035D02*
X86532714Y-102781892D01*
X86532714Y-102781892D02*
X86568428Y-102639035D01*
X86568428Y-102639035D02*
X86604142Y-102567607D01*
X86604142Y-102567607D02*
X86675571Y-102496178D01*
X86675571Y-102496178D02*
X86782714Y-102460464D01*
X86782714Y-102460464D02*
X86854142Y-102460464D01*
X86854142Y-102460464D02*
X86961285Y-102496178D01*
X86961285Y-102496178D02*
X86996999Y-102531892D01*
X87711285Y-103210464D02*
X87282714Y-103210464D01*
X87496999Y-103210464D02*
X87496999Y-102460464D01*
X87496999Y-102460464D02*
X87425571Y-102567607D01*
X87425571Y-102567607D02*
X87354142Y-102639035D01*
X87354142Y-102639035D02*
X87282714Y-102674750D01*
D10*
X87937604Y-112274332D02*
X87975700Y-112312428D01*
X87975700Y-112312428D02*
X88013795Y-112426713D01*
X88013795Y-112426713D02*
X88013795Y-112502904D01*
X88013795Y-112502904D02*
X87975700Y-112617190D01*
X87975700Y-112617190D02*
X87899509Y-112693380D01*
X87899509Y-112693380D02*
X87823319Y-112731475D01*
X87823319Y-112731475D02*
X87670938Y-112769571D01*
X87670938Y-112769571D02*
X87556652Y-112769571D01*
X87556652Y-112769571D02*
X87404271Y-112731475D01*
X87404271Y-112731475D02*
X87328080Y-112693380D01*
X87328080Y-112693380D02*
X87251890Y-112617190D01*
X87251890Y-112617190D02*
X87213795Y-112502904D01*
X87213795Y-112502904D02*
X87213795Y-112426713D01*
X87213795Y-112426713D02*
X87251890Y-112312428D01*
X87251890Y-112312428D02*
X87289985Y-112274332D01*
X87213795Y-111550523D02*
X87213795Y-111931475D01*
X87213795Y-111931475D02*
X87594747Y-111969571D01*
X87594747Y-111969571D02*
X87556652Y-111931475D01*
X87556652Y-111931475D02*
X87518557Y-111855285D01*
X87518557Y-111855285D02*
X87518557Y-111664809D01*
X87518557Y-111664809D02*
X87556652Y-111588618D01*
X87556652Y-111588618D02*
X87594747Y-111550523D01*
X87594747Y-111550523D02*
X87670938Y-111512428D01*
X87670938Y-111512428D02*
X87861414Y-111512428D01*
X87861414Y-111512428D02*
X87937604Y-111550523D01*
X87937604Y-111550523D02*
X87975700Y-111588618D01*
X87975700Y-111588618D02*
X88013795Y-111664809D01*
X88013795Y-111664809D02*
X88013795Y-111855285D01*
X88013795Y-111855285D02*
X87975700Y-111931475D01*
X87975700Y-111931475D02*
X87937604Y-111969571D01*
X88008295Y-110242332D02*
X87627342Y-110508999D01*
X88008295Y-110699475D02*
X87208295Y-110699475D01*
X87208295Y-110699475D02*
X87208295Y-110394713D01*
X87208295Y-110394713D02*
X87246390Y-110318523D01*
X87246390Y-110318523D02*
X87284485Y-110280428D01*
X87284485Y-110280428D02*
X87360676Y-110242332D01*
X87360676Y-110242332D02*
X87474961Y-110242332D01*
X87474961Y-110242332D02*
X87551152Y-110280428D01*
X87551152Y-110280428D02*
X87589247Y-110318523D01*
X87589247Y-110318523D02*
X87627342Y-110394713D01*
X87627342Y-110394713D02*
X87627342Y-110699475D01*
X87208295Y-109556618D02*
X87208295Y-109708999D01*
X87208295Y-109708999D02*
X87246390Y-109785190D01*
X87246390Y-109785190D02*
X87284485Y-109823285D01*
X87284485Y-109823285D02*
X87398771Y-109899475D01*
X87398771Y-109899475D02*
X87551152Y-109937571D01*
X87551152Y-109937571D02*
X87855914Y-109937571D01*
X87855914Y-109937571D02*
X87932104Y-109899475D01*
X87932104Y-109899475D02*
X87970200Y-109861380D01*
X87970200Y-109861380D02*
X88008295Y-109785190D01*
X88008295Y-109785190D02*
X88008295Y-109632809D01*
X88008295Y-109632809D02*
X87970200Y-109556618D01*
X87970200Y-109556618D02*
X87932104Y-109518523D01*
X87932104Y-109518523D02*
X87855914Y-109480428D01*
X87855914Y-109480428D02*
X87665438Y-109480428D01*
X87665438Y-109480428D02*
X87589247Y-109518523D01*
X87589247Y-109518523D02*
X87551152Y-109556618D01*
X87551152Y-109556618D02*
X87513057Y-109632809D01*
X87513057Y-109632809D02*
X87513057Y-109785190D01*
X87513057Y-109785190D02*
X87551152Y-109861380D01*
X87551152Y-109861380D02*
X87589247Y-109899475D01*
X87589247Y-109899475D02*
X87665438Y-109937571D01*
D13*
%TO.C,U5*%
X66154000Y-112014000D02*
X66154000Y-109704000D01*
X68974000Y-112014000D02*
X68974000Y-114324000D01*
X66154000Y-109704000D02*
X66369000Y-109704000D01*
X66154000Y-112014000D02*
X66154000Y-114324000D01*
X68974000Y-114324000D02*
X68759000Y-114324000D01*
X66154000Y-114324000D02*
X66369000Y-114324000D01*
X66369000Y-114324000D02*
X66369000Y-116014000D01*
X68974000Y-112014000D02*
X68974000Y-109704000D01*
X68974000Y-109704000D02*
X68759000Y-109704000D01*
%TO.C,TP1*%
X68580000Y-86424000D02*
X70480000Y-86424000D01*
X68580000Y-88324000D02*
X68580000Y-86424000D01*
X70480000Y-86424000D02*
X70480000Y-88324000D01*
X70480000Y-88324000D02*
X68580000Y-88324000D01*
%TO.C,TP2*%
X79980000Y-86424000D02*
X81880000Y-86424000D01*
X79980000Y-88324000D02*
X79980000Y-86424000D01*
X81880000Y-86424000D02*
X81880000Y-88324000D01*
X81880000Y-88324000D02*
X79980000Y-88324000D01*
%TO.C,C3*%
X85971748Y-92737000D02*
X86494252Y-92737000D01*
X85971748Y-94207000D02*
X86494252Y-94207000D01*
%TO.C,R5*%
X62511000Y-110119936D02*
X62511000Y-110574064D01*
X63981000Y-110119936D02*
X63981000Y-110574064D01*
%TO.C,C2*%
X85971748Y-90705000D02*
X86494252Y-90705000D01*
X85971748Y-92175000D02*
X86494252Y-92175000D01*
%TO.C,R2*%
X65251000Y-88672936D02*
X65251000Y-89127064D01*
X63781000Y-88672936D02*
X63781000Y-89127064D01*
%TO.C,R1*%
X85825000Y-100356936D02*
X85825000Y-100811064D01*
X84355000Y-100356936D02*
X84355000Y-100811064D01*
%TO.C,C4*%
X85946348Y-94769000D02*
X86468852Y-94769000D01*
X85946348Y-96239000D02*
X86468852Y-96239000D01*
%TO.C,SW1*%
X87502000Y-116208000D02*
X84202000Y-116208000D01*
X87502000Y-115908000D02*
X87502000Y-116208000D01*
X87502000Y-113708000D02*
X87502000Y-113408000D01*
X87502000Y-113408000D02*
X84202000Y-113408000D01*
X86852000Y-116528000D02*
X86852000Y-116208000D01*
X86352000Y-116908000D02*
X86852000Y-116528000D01*
X86352000Y-116908000D02*
X85352000Y-116908000D01*
X85352000Y-116908000D02*
X84852000Y-116528000D01*
X84852000Y-116528000D02*
X84852000Y-116208000D01*
X84202000Y-116208000D02*
X84202000Y-115908000D01*
X84202000Y-113408000D02*
X84202000Y-113708000D01*
%TO.C,D1*%
X65842000Y-90751000D02*
X67762000Y-90751000D01*
X67762000Y-90751000D02*
X67762000Y-87891000D01*
X65842000Y-87891000D02*
X65842000Y-90751000D01*
%TO.C,J1*%
X70024000Y-116262000D02*
X82844000Y-116262000D01*
X70024000Y-116262000D02*
X70024000Y-107632000D01*
X70144000Y-116262000D02*
X70144000Y-107632000D01*
X70262095Y-116262000D02*
X70262095Y-107632000D01*
X70380190Y-116262000D02*
X70380190Y-107632000D01*
X70498285Y-116262000D02*
X70498285Y-107632000D01*
X70616380Y-116262000D02*
X70616380Y-107632000D01*
X70734475Y-116262000D02*
X70734475Y-107632000D01*
X70852570Y-116262000D02*
X70852570Y-107632000D01*
X70970665Y-116262000D02*
X70970665Y-107632000D01*
X71088760Y-116262000D02*
X71088760Y-107632000D01*
X71206855Y-116262000D02*
X71206855Y-107632000D01*
X71324950Y-116262000D02*
X71324950Y-107632000D01*
X71443045Y-116262000D02*
X71443045Y-107632000D01*
X71561140Y-116262000D02*
X71561140Y-107632000D01*
X71679235Y-116262000D02*
X71679235Y-107632000D01*
X71797330Y-116262000D02*
X71797330Y-107632000D01*
X71915425Y-116262000D02*
X71915425Y-107632000D01*
X72033520Y-116262000D02*
X72033520Y-107632000D01*
X72151615Y-116262000D02*
X72151615Y-107632000D01*
X72269710Y-116262000D02*
X72269710Y-107632000D01*
X72387805Y-116262000D02*
X72387805Y-107632000D01*
X72505900Y-116262000D02*
X72505900Y-107632000D01*
X72624000Y-116262000D02*
X72624000Y-107632000D01*
X75164000Y-116262000D02*
X75164000Y-107632000D01*
X77704000Y-116262000D02*
X77704000Y-107632000D01*
X80244000Y-116262000D02*
X80244000Y-107632000D01*
X82844000Y-116262000D02*
X82844000Y-107632000D01*
X70024000Y-107632000D02*
X82844000Y-107632000D01*
X70994000Y-107632000D02*
X70994000Y-107282000D01*
X71714000Y-107632000D02*
X71714000Y-107282000D01*
X73534000Y-107632000D02*
X73534000Y-107222000D01*
X74254000Y-107632000D02*
X74254000Y-107222000D01*
X76074000Y-107632000D02*
X76074000Y-107222000D01*
X76794000Y-107632000D02*
X76794000Y-107222000D01*
X78614000Y-107632000D02*
X78614000Y-107222000D01*
X79334000Y-107632000D02*
X79334000Y-107222000D01*
X81154000Y-107632000D02*
X81154000Y-107222000D01*
X81874000Y-107632000D02*
X81874000Y-107222000D01*
X70024000Y-106172000D02*
X70024000Y-105062000D01*
X70024000Y-105062000D02*
X71354000Y-105062000D01*
%TO.C,D2*%
X62286000Y-116024000D02*
X64206000Y-116024000D01*
X64206000Y-116024000D02*
X64206000Y-113164000D01*
X62286000Y-113164000D02*
X62286000Y-116024000D01*
%TO.C,R4*%
X64235000Y-101245936D02*
X64235000Y-101700064D01*
X62765000Y-101245936D02*
X62765000Y-101700064D01*
%TO.C,R7*%
X66267000Y-101261936D02*
X66267000Y-101716064D01*
X64797000Y-101261936D02*
X64797000Y-101716064D01*
%TO.C,C6*%
X86468852Y-98271000D02*
X85946348Y-98271000D01*
X86468852Y-96801000D02*
X85946348Y-96801000D01*
%TO.C,U2*%
X84957500Y-86780000D02*
X83157500Y-86780000D01*
X84957500Y-86780000D02*
X85757500Y-86780000D01*
X84957500Y-89900000D02*
X84157500Y-89900000D01*
X84957500Y-89900000D02*
X85757500Y-89900000D01*
%TO.C,U1*%
X69730000Y-102624000D02*
X69730000Y-103424000D01*
X69730000Y-103424000D02*
X70530000Y-103424000D01*
X69930000Y-90724000D02*
X83130000Y-90724000D01*
X69930000Y-103224000D02*
X69930000Y-90724000D01*
X70605000Y-90524000D02*
X69755000Y-90524000D01*
X82580000Y-90524000D02*
X83330000Y-90524000D01*
X83130000Y-90724000D02*
X83130000Y-103224000D01*
X83130000Y-103224000D02*
X69930000Y-103224000D01*
X83330000Y-90524000D02*
X83330000Y-91174000D01*
X83330000Y-102624000D02*
X83330000Y-103424000D01*
X83330000Y-103424000D02*
X82530000Y-103424000D01*
%TO.C,U3*%
X63480000Y-95899000D02*
X63480000Y-97849000D01*
X63480000Y-95899000D02*
X63480000Y-93949000D01*
X68600000Y-95899000D02*
X68600000Y-97849000D01*
X68600000Y-95899000D02*
X68600000Y-92449000D01*
%TO.C,C1*%
X86387000Y-100845252D02*
X86387000Y-100322748D01*
X87857000Y-100845252D02*
X87857000Y-100322748D01*
%TO.C,C5*%
X85082748Y-111406000D02*
X85605252Y-111406000D01*
X85082748Y-112876000D02*
X85605252Y-112876000D01*
%TO.C,R6*%
X85116936Y-109374000D02*
X85571064Y-109374000D01*
X85116936Y-110844000D02*
X85571064Y-110844000D01*
%TD*%
M02*
