%TF.GenerationSoftware,KiCad,Pcbnew,7.0.8*%
%TF.CreationDate,2023-10-29T23:41:36-05:00*%
%TF.ProjectId,CAN,43414e2e-6b69-4636-9164-5f7063625858,X1*%
%TF.SameCoordinates,Original*%
%TF.FileFunction,Paste,Top*%
%TF.FilePolarity,Positive*%
%FSLAX46Y46*%
G04 Gerber Fmt 4.6, Leading zero omitted, Abs format (unit mm)*
G04 Created by KiCad (PCBNEW 7.0.8) date 2023-10-29 23:41:36*
%MOMM*%
%LPD*%
G01*
G04 APERTURE LIST*
G04 Aperture macros list*
%AMRoundRect*
0 Rectangle with rounded corners*
0 $1 Rounding radius*
0 $2 $3 $4 $5 $6 $7 $8 $9 X,Y pos of 4 corners*
0 Add a 4 corners polygon primitive as box body*
4,1,4,$2,$3,$4,$5,$6,$7,$8,$9,$2,$3,0*
0 Add four circle primitives for the rounded corners*
1,1,$1+$1,$2,$3*
1,1,$1+$1,$4,$5*
1,1,$1+$1,$6,$7*
1,1,$1+$1,$8,$9*
0 Add four rect primitives between the rounded corners*
20,1,$1+$1,$2,$3,$4,$5,0*
20,1,$1+$1,$4,$5,$6,$7,0*
20,1,$1+$1,$6,$7,$8,$9,0*
20,1,$1+$1,$8,$9,$2,$3,0*%
%AMFreePoly0*
4,1,6,0.725000,-0.725000,-0.725000,-0.725000,-0.725000,0.125000,-0.125000,0.725000,0.725000,0.725000,0.725000,-0.725000,0.725000,-0.725000,$1*%
G04 Aperture macros list end*
%ADD10RoundRect,0.150000X0.150000X-0.662500X0.150000X0.662500X-0.150000X0.662500X-0.150000X-0.662500X0*%
%ADD11R,0.700000X1.150000*%
%ADD12R,0.380000X1.000000*%
%ADD13RoundRect,0.250000X-0.337500X-0.475000X0.337500X-0.475000X0.337500X0.475000X-0.337500X0.475000X0*%
%ADD14RoundRect,0.250000X-0.450000X0.350000X-0.450000X-0.350000X0.450000X-0.350000X0.450000X0.350000X0*%
%ADD15R,0.900000X1.700000*%
%ADD16RoundRect,0.250000X0.450000X-0.325000X0.450000X0.325000X-0.450000X0.325000X-0.450000X-0.325000X0*%
%ADD17RoundRect,0.250000X0.337500X0.475000X-0.337500X0.475000X-0.337500X-0.475000X0.337500X-0.475000X0*%
%ADD18RoundRect,0.150000X-0.512500X-0.150000X0.512500X-0.150000X0.512500X0.150000X-0.512500X0.150000X0*%
%ADD19R,0.800000X0.400000*%
%ADD20R,0.400000X0.800000*%
%ADD21FreePoly0,0.000000*%
%ADD22R,1.450000X1.450000*%
%ADD23R,0.700000X0.700000*%
%ADD24RoundRect,0.150000X-0.150000X0.825000X-0.150000X-0.825000X0.150000X-0.825000X0.150000X0.825000X0*%
%ADD25RoundRect,0.250000X0.475000X-0.337500X0.475000X0.337500X-0.475000X0.337500X-0.475000X-0.337500X0*%
%ADD26RoundRect,0.250000X-0.350000X-0.450000X0.350000X-0.450000X0.350000X0.450000X-0.350000X0.450000X0*%
G04 APERTURE END LIST*
D10*
%TO.C,U5*%
X66929000Y-108826500D03*
X68199000Y-108826500D03*
X68199000Y-115201500D03*
X66929000Y-115201500D03*
%TD*%
D11*
%TO.C,P1*%
X71810000Y-89254000D03*
D12*
X77980000Y-88414000D03*
X77480000Y-88414000D03*
X76980000Y-88414000D03*
X76480000Y-88414000D03*
X75980000Y-88414000D03*
X75480000Y-88414000D03*
X74980000Y-88414000D03*
X74480000Y-88414000D03*
X73980000Y-88414000D03*
X73480000Y-88414000D03*
X72980000Y-88414000D03*
X72480000Y-88414000D03*
%TD*%
D13*
%TO.C,C3*%
X85195500Y-93472000D03*
X87270500Y-93472000D03*
%TD*%
D14*
%TO.C,R5*%
X63246000Y-111347000D03*
X63246000Y-109347000D03*
%TD*%
D13*
%TO.C,C2*%
X85195500Y-91440000D03*
X87270500Y-91440000D03*
%TD*%
D14*
%TO.C,R2*%
X64516000Y-87900000D03*
X64516000Y-89900000D03*
%TD*%
%TO.C,R1*%
X85090000Y-99584000D03*
X85090000Y-101584000D03*
%TD*%
D13*
%TO.C,C4*%
X85170100Y-95504000D03*
X87245100Y-95504000D03*
%TD*%
D15*
%TO.C,SW1*%
X87552000Y-114808000D03*
X84152000Y-114808000D03*
%TD*%
D16*
%TO.C,D1*%
X66802000Y-89916000D03*
X66802000Y-87866000D03*
%TD*%
%TO.C,D2*%
X63246000Y-115189000D03*
X63246000Y-113139000D03*
%TD*%
D14*
%TO.C,R4*%
X63500000Y-100473000D03*
X63500000Y-102473000D03*
%TD*%
%TO.C,R7*%
X65532000Y-100489000D03*
X65532000Y-102489000D03*
%TD*%
D17*
%TO.C,C6*%
X87245100Y-97536000D03*
X85170100Y-97536000D03*
%TD*%
D18*
%TO.C,U2*%
X83820000Y-87390000D03*
X83820000Y-88340000D03*
X83820000Y-89290000D03*
X86095000Y-89290000D03*
X86095000Y-87390000D03*
%TD*%
D19*
%TO.C,U1*%
X70630000Y-93624000D03*
X70630000Y-94424000D03*
X70630000Y-95224000D03*
X70630000Y-96024000D03*
X70630000Y-96824000D03*
X70630000Y-97624000D03*
X70630000Y-98424000D03*
X70630000Y-99224000D03*
X70630000Y-100024000D03*
X70630000Y-100824000D03*
X70630000Y-101624000D03*
D20*
X71730000Y-102524000D03*
X72530000Y-102524000D03*
X73330000Y-102524000D03*
X74130000Y-102524000D03*
X74930000Y-102524000D03*
X75730000Y-102524000D03*
X76530000Y-102524000D03*
X77330000Y-102524000D03*
X78130000Y-102524000D03*
X78930000Y-102524000D03*
X79730000Y-102524000D03*
X80530000Y-102524000D03*
X81330000Y-102524000D03*
D19*
X82430000Y-101624000D03*
X82430000Y-100824000D03*
X82430000Y-100024000D03*
X82430000Y-99224000D03*
X82430000Y-98424000D03*
X82430000Y-97624000D03*
X82430000Y-96824000D03*
X82430000Y-96024000D03*
X82430000Y-95224000D03*
X82430000Y-94424000D03*
X82430000Y-93624000D03*
D20*
X81330000Y-92724000D03*
X80530000Y-92724000D03*
X79730000Y-92724000D03*
X78930000Y-92724000D03*
X78130000Y-92724000D03*
X77330000Y-92724000D03*
X76530000Y-92724000D03*
X75730000Y-92724000D03*
X74930000Y-92724000D03*
X74130000Y-92724000D03*
X73330000Y-92724000D03*
X72530000Y-92724000D03*
X71730000Y-92724000D03*
D21*
X74555000Y-95649000D03*
D22*
X74555000Y-97624000D03*
X74555000Y-99599000D03*
X76530000Y-95649000D03*
X76530000Y-97624000D03*
X76530000Y-99599000D03*
X78505000Y-95649000D03*
X78505000Y-97624000D03*
X78505000Y-99599000D03*
D23*
X82480000Y-92674000D03*
X82480000Y-102574000D03*
X70580000Y-102574000D03*
X70580000Y-92674000D03*
%TD*%
D24*
%TO.C,U3*%
X67945000Y-98374000D03*
X66675000Y-98374000D03*
X65405000Y-98374000D03*
X64135000Y-98374000D03*
X64135000Y-93424000D03*
X65405000Y-93424000D03*
X66675000Y-93424000D03*
X67945000Y-93424000D03*
%TD*%
D25*
%TO.C,C1*%
X87122000Y-101621500D03*
X87122000Y-99546500D03*
%TD*%
D13*
%TO.C,C5*%
X84306500Y-112141000D03*
X86381500Y-112141000D03*
%TD*%
D26*
%TO.C,R6*%
X84344000Y-110109000D03*
X86344000Y-110109000D03*
%TD*%
M02*
