  0
SECTION
  2
HEADER
  9
$ANGBASE
  50
0.0
  9
$ANGDIR
  70
1
  9
$MEASUREMENT
  70
0
  0
ENDSEC
  0
SECTION
  2
TABLES
  0
TABLE
  2
LTYPE
  70
4
  0
LTYPE
  5
40F
  2
CONTINUOUS
  70
0
  3
Solid line
  72
65
  73
0
  40
0.0
  0
LTYPE
  5
410
  2
DASHDOT
 70
0
  3
Dash Dot ____ _ ____ _
 72
65
 73
4
 40
2.0
 49
1.25
 49
-0.25
 49
0.25
 49
-0.25
  0
LTYPE
  5
411
  2
DASHED
 70
0
  3
Dashed __ __ __ __ __
 72
65
 73
2
 40
0.75
 49
0.5
 49
-0.25
  0
LTYPE
  5
43B
  2
DOTTED
 70
0
  3
Dotted .  .  .  .
 72
65
 73
2
 40
0.2
 49
0.0
 49
-0.2
  0
ENDTAB
  0
TABLE
  2
STYLE
  70
4
  0
STYLE
  2
KICAD
  70
0
  40
0
  41
1
  42
1
  50
0
  71
0
  3
isocp.shx
  0
STYLE
  2
KICADB
  70
0
  40
0
  41
1
  42
1
  50
0
  71
0
  3
isocp.shx
  0
STYLE
  2
KICADI
  70
0
  40
0
  41
1
  42
1
  50
15
  71
0
  3
isocp.shx
  0
STYLE
  2
KICADBI
  70
0
  40
0
  41
1
  42
1
  50
15
  71
0
  3
isocp.shx
  0
ENDTAB
  0
TABLE
  2
LAYER
  70
1
  0
LAYER
  2
BLACK
  70
0
  62
7
  6
CONTINUOUS
  0
ENDTAB
  0
ENDSEC
  0
SECTION
  2
ENTITIES
0
LINE
8
BLACK
6
CONTINUOUS
10
2.7748
20
-3.40016
11
2.77647
21
-3.40085
0
LINE
8
BLACK
6
CONTINUOUS
10
2.77647
20
-3.40085
11
2.77717
21
-3.40252
0
LINE
8
BLACK
6
CONTINUOUS
10
2.77717
20
-3.40252
11
2.77717
21
-3.47732
0
LINE
8
BLACK
6
CONTINUOUS
10
2.77717
20
-3.47732
11
2.77647
21
-3.47899
0
LINE
8
BLACK
6
CONTINUOUS
10
2.77647
20
-3.47899
11
2.7748
21
-3.47969
0
LINE
8
BLACK
6
CONTINUOUS
10
2.7748
20
-3.47969
11
2.7
21
-3.47969
0
LINE
8
BLACK
6
CONTINUOUS
10
2.7
20
-3.47969
11
2.69833
21
-3.47899
0
LINE
8
BLACK
6
CONTINUOUS
10
2.69833
20
-3.47899
11
2.69764
21
-3.47732
0
LINE
8
BLACK
6
CONTINUOUS
10
2.69764
20
-3.47732
11
2.69764
21
-3.40252
0
LINE
8
BLACK
6
CONTINUOUS
10
2.69764
20
-3.40252
11
2.69833
21
-3.40085
0
LINE
8
BLACK
6
CONTINUOUS
10
2.69833
20
-3.40085
11
2.7
21
-3.40016
0
LINE
8
BLACK
6
CONTINUOUS
10
2.7
20
-3.40016
11
2.7748
21
-3.40016
0
LINE
8
BLACK
6
CONTINUOUS
10
2.70236
20
-3.40488
11
2.70236
21
-3.47496
0
LINE
8
BLACK
6
CONTINUOUS
10
2.70236
20
-3.47496
11
2.77244
21
-3.47496
0
LINE
8
BLACK
6
CONTINUOUS
10
2.77244
20
-3.47496
11
2.77244
21
-3.40488
0
LINE
8
BLACK
6
CONTINUOUS
10
2.77244
20
-3.40488
11
2.70236
21
-3.40488
0
LINE
8
BLACK
6
CONTINUOUS
10
3.22362
20
-3.40016
11
3.22529
21
-3.40085
0
LINE
8
BLACK
6
CONTINUOUS
10
3.22529
20
-3.40085
11
3.22598
21
-3.40252
0
LINE
8
BLACK
6
CONTINUOUS
10
3.22598
20
-3.40252
11
3.22598
21
-3.47732
0
LINE
8
BLACK
6
CONTINUOUS
10
3.22598
20
-3.47732
11
3.22529
21
-3.47899
0
LINE
8
BLACK
6
CONTINUOUS
10
3.22529
20
-3.47899
11
3.22362
21
-3.47969
0
LINE
8
BLACK
6
CONTINUOUS
10
3.22362
20
-3.47969
11
3.14882
21
-3.47969
0
LINE
8
BLACK
6
CONTINUOUS
10
3.14882
20
-3.47969
11
3.14715
21
-3.47899
0
LINE
8
BLACK
6
CONTINUOUS
10
3.14715
20
-3.47899
11
3.14646
21
-3.47732
0
LINE
8
BLACK
6
CONTINUOUS
10
3.14646
20
-3.47732
11
3.14646
21
-3.40252
0
LINE
8
BLACK
6
CONTINUOUS
10
3.14646
20
-3.40252
11
3.14715
21
-3.40085
0
LINE
8
BLACK
6
CONTINUOUS
10
3.14715
20
-3.40085
11
3.14882
21
-3.40016
0
LINE
8
BLACK
6
CONTINUOUS
10
3.14882
20
-3.40016
11
3.22362
21
-3.40016
0
LINE
8
BLACK
6
CONTINUOUS
10
3.15118
20
-3.40488
11
3.15118
21
-3.47496
0
LINE
8
BLACK
6
CONTINUOUS
10
3.15118
20
-3.47496
11
3.22126
21
-3.47496
0
LINE
8
BLACK
6
CONTINUOUS
10
3.22126
20
-3.47496
11
3.22126
21
-3.40488
0
LINE
8
BLACK
6
CONTINUOUS
10
3.22126
20
-3.40488
11
3.15118
21
-3.40488
  0
ENDSEC
  0
EOF
