%TF.GenerationSoftware,KiCad,Pcbnew,7.0.7*%
%TF.CreationDate,2023-09-14T22:30:26+02:00*%
%TF.ProjectId,CAN,43414e2e-6b69-4636-9164-5f7063625858,X1*%
%TF.SameCoordinates,Original*%
%TF.FileFunction,Profile,NP*%
%FSLAX46Y46*%
G04 Gerber Fmt 4.6, Leading zero omitted, Abs format (unit mm)*
G04 Created by KiCad (PCBNEW 7.0.7) date 2023-09-14 22:30:26*
%MOMM*%
%LPD*%
G01*
G04 APERTURE LIST*
%TA.AperFunction,Profile*%
%ADD10C,0.050000*%
%TD*%
G04 APERTURE END LIST*
D10*
X88230000Y-90174000D02*
X88230000Y-116074000D01*
X62530000Y-116374000D02*
X87930000Y-116374000D01*
X79630000Y-88374000D02*
G75*
G03*
X79930000Y-88074000I0J300000D01*
G01*
X70530000Y-86674000D02*
G75*
G03*
X70230000Y-86374000I-300000J0D01*
G01*
X79930000Y-88074000D02*
X79930000Y-86674000D01*
X80230000Y-86374000D02*
G75*
G03*
X79930000Y-86674000I0J-300000D01*
G01*
X70230000Y-86374000D02*
X63530000Y-86374000D01*
X80230000Y-86374000D02*
X86930000Y-86374000D01*
X62230000Y-116074000D02*
G75*
G03*
X62530000Y-116374000I300000J0D01*
G01*
X79530000Y-88374000D02*
X79630000Y-88374000D01*
X63530000Y-86374000D02*
G75*
G03*
X63230000Y-86674000I0J-300000D01*
G01*
X63230000Y-89574000D02*
X63230000Y-86674000D01*
X62930000Y-89874000D02*
G75*
G03*
X63230000Y-89574000I0J300000D01*
G01*
X62530000Y-89874000D02*
G75*
G03*
X62230000Y-90174000I0J-300000D01*
G01*
X62530000Y-89874000D02*
X62930000Y-89874000D01*
X87230000Y-89574000D02*
X87230000Y-86674000D01*
X88230000Y-90174000D02*
G75*
G03*
X87930000Y-89874000I-300000J0D01*
G01*
X87230000Y-89574000D02*
G75*
G03*
X87530000Y-89874000I300000J0D01*
G01*
X87530000Y-89874000D02*
X87930000Y-89874000D01*
X87930000Y-116374000D02*
G75*
G03*
X88230000Y-116074000I0J300000D01*
G01*
X87230000Y-86674000D02*
G75*
G03*
X86930000Y-86374000I-300000J0D01*
G01*
X70830000Y-88374000D02*
X70930000Y-88374000D01*
X70530000Y-88074000D02*
X70530000Y-86674000D01*
X62230000Y-90174000D02*
X62230000Y-116074000D01*
X70530000Y-88074000D02*
G75*
G03*
X70830000Y-88374000I300000J0D01*
G01*
%TO.C,P1*%
X71880000Y-88374000D02*
X70930000Y-88374000D01*
X72180000Y-87714000D02*
X72180000Y-88074000D01*
X72480000Y-87414000D02*
X77980000Y-87414000D01*
X78280000Y-87714000D02*
X78280000Y-88074000D01*
X78580000Y-88374000D02*
X79530000Y-88374000D01*
X72480000Y-87414000D02*
G75*
G03*
X72180000Y-87714000I0J-300000D01*
G01*
X71880000Y-88374000D02*
G75*
G03*
X72180000Y-88074000I0J300000D01*
G01*
X78280000Y-87714000D02*
G75*
G03*
X77980000Y-87414000I-300000J0D01*
G01*
X78280000Y-88074000D02*
G75*
G03*
X78580000Y-88374000I300000J0D01*
G01*
%TD*%
M02*
