  0
SECTION
  2
HEADER
  9
$ANGBASE
  50
0.0
  9
$ANGDIR
  70
1
  9
$MEASUREMENT
  70
0
  0
ENDSEC
  0
SECTION
  2
TABLES
  0
TABLE
  2
LTYPE
  70
4
  0
LTYPE
  5
40F
  2
CONTINUOUS
  70
0
  3
Solid line
  72
65
  73
0
  40
0.0
  0
LTYPE
  5
410
  2
DASHDOT
 70
0
  3
Dash Dot ____ _ ____ _
 72
65
 73
4
 40
2.0
 49
1.25
 49
-0.25
 49
0.25
 49
-0.25
  0
LTYPE
  5
411
  2
DASHED
 70
0
  3
Dashed __ __ __ __ __
 72
65
 73
2
 40
0.75
 49
0.5
 49
-0.25
  0
LTYPE
  5
43B
  2
DOTTED
 70
0
  3
Dotted .  .  .  .
 72
65
 73
2
 40
0.2
 49
0.0
 49
-0.2
  0
ENDTAB
  0
TABLE
  2
STYLE
  70
4
  0
STYLE
  2
KICAD
  70
0
  40
0
  41
1
  42
1
  50
0
  71
0
  3
isocp.shx
  0
STYLE
  2
KICADB
  70
0
  40
0
  41
1
  42
1
  50
0
  71
0
  3
isocp.shx
  0
STYLE
  2
KICADI
  70
0
  40
0
  41
1
  42
1
  50
15
  71
0
  3
isocp.shx
  0
STYLE
  2
KICADBI
  70
0
  40
0
  41
1
  42
1
  50
15
  71
0
  3
isocp.shx
  0
ENDTAB
  0
TABLE
  2
LAYER
  70
1
  0
LAYER
  2
BLACK
  70
0
  62
7
  6
CONTINUOUS
  0
ENDTAB
  0
ENDSEC
  0
SECTION
  2
ENTITIES
0
LINE
8
BLACK
6
CONTINUOUS
10
3.11024
20
-3.53657
11
3.08268
21
-3.53657
0
LINE
8
BLACK
6
CONTINUOUS
10
3.08268
20
-3.53657
11
3.08268
21
-3.4913
0
LINE
8
BLACK
6
CONTINUOUS
10
3.08268
20
-3.4913
11
3.11024
21
-3.4913
0
LINE
8
BLACK
6
CONTINUOUS
10
3.11024
20
-3.4913
11
3.11024
21
-3.53657
0
LINE
8
BLACK
6
CONTINUOUS
10
2.86102
20
-3.50055
11
2.84606
21
-3.50055
0
LINE
8
BLACK
6
CONTINUOUS
10
2.84606
20
-3.50055
11
2.84606
21
-3.46118
0
LINE
8
BLACK
6
CONTINUOUS
10
2.84606
20
-3.46118
11
2.86102
21
-3.46118
0
LINE
8
BLACK
6
CONTINUOUS
10
2.86102
20
-3.46118
11
2.86102
21
-3.50055
0
LINE
8
BLACK
6
CONTINUOUS
10
2.88071
20
-3.50055
11
2.86575
21
-3.50055
0
LINE
8
BLACK
6
CONTINUOUS
10
2.86575
20
-3.50055
11
2.86575
21
-3.46118
0
LINE
8
BLACK
6
CONTINUOUS
10
2.86575
20
-3.46118
11
2.88071
21
-3.46118
0
LINE
8
BLACK
6
CONTINUOUS
10
2.88071
20
-3.46118
11
2.88071
21
-3.50055
0
LINE
8
BLACK
6
CONTINUOUS
10
2.90039
20
-3.50055
11
2.88543
21
-3.50055
0
LINE
8
BLACK
6
CONTINUOUS
10
2.88543
20
-3.50055
11
2.88543
21
-3.46118
0
LINE
8
BLACK
6
CONTINUOUS
10
2.88543
20
-3.46118
11
2.90039
21
-3.46118
0
LINE
8
BLACK
6
CONTINUOUS
10
2.90039
20
-3.46118
11
2.90039
21
-3.50055
0
LINE
8
BLACK
6
CONTINUOUS
10
2.92008
20
-3.50055
11
2.90512
21
-3.50055
0
LINE
8
BLACK
6
CONTINUOUS
10
2.90512
20
-3.50055
11
2.90512
21
-3.46118
0
LINE
8
BLACK
6
CONTINUOUS
10
2.90512
20
-3.46118
11
2.92008
21
-3.46118
0
LINE
8
BLACK
6
CONTINUOUS
10
2.92008
20
-3.46118
11
2.92008
21
-3.50055
0
LINE
8
BLACK
6
CONTINUOUS
10
2.93976
20
-3.50055
11
2.9248
21
-3.50055
0
LINE
8
BLACK
6
CONTINUOUS
10
2.9248
20
-3.50055
11
2.9248
21
-3.46118
0
LINE
8
BLACK
6
CONTINUOUS
10
2.9248
20
-3.46118
11
2.93976
21
-3.46118
0
LINE
8
BLACK
6
CONTINUOUS
10
2.93976
20
-3.46118
11
2.93976
21
-3.50055
0
LINE
8
BLACK
6
CONTINUOUS
10
2.99882
20
-3.50055
11
2.98386
21
-3.50055
0
LINE
8
BLACK
6
CONTINUOUS
10
2.98386
20
-3.50055
11
2.98386
21
-3.46118
0
LINE
8
BLACK
6
CONTINUOUS
10
2.98386
20
-3.46118
11
2.99882
21
-3.46118
0
LINE
8
BLACK
6
CONTINUOUS
10
2.99882
20
-3.46118
11
2.99882
21
-3.50055
0
LINE
8
BLACK
6
CONTINUOUS
10
3.0185
20
-3.50055
11
3.00354
21
-3.50055
0
LINE
8
BLACK
6
CONTINUOUS
10
3.00354
20
-3.50055
11
3.00354
21
-3.46118
0
LINE
8
BLACK
6
CONTINUOUS
10
3.00354
20
-3.46118
11
3.0185
21
-3.46118
0
LINE
8
BLACK
6
CONTINUOUS
10
3.0185
20
-3.46118
11
3.0185
21
-3.50055
0
LINE
8
BLACK
6
CONTINUOUS
10
3.03819
20
-3.50055
11
3.02323
21
-3.50055
0
LINE
8
BLACK
6
CONTINUOUS
10
3.02323
20
-3.50055
11
3.02323
21
-3.46118
0
LINE
8
BLACK
6
CONTINUOUS
10
3.02323
20
-3.46118
11
3.03819
21
-3.46118
0
LINE
8
BLACK
6
CONTINUOUS
10
3.03819
20
-3.46118
11
3.03819
21
-3.50055
0
LINE
8
BLACK
6
CONTINUOUS
10
3.05787
20
-3.50055
11
3.04291
21
-3.50055
0
LINE
8
BLACK
6
CONTINUOUS
10
3.04291
20
-3.50055
11
3.04291
21
-3.46118
0
LINE
8
BLACK
6
CONTINUOUS
10
3.04291
20
-3.46118
11
3.05787
21
-3.46118
0
LINE
8
BLACK
6
CONTINUOUS
10
3.05787
20
-3.46118
11
3.05787
21
-3.50055
0
LINE
8
BLACK
6
CONTINUOUS
10
3.07756
20
-3.50055
11
3.0626
21
-3.50055
0
LINE
8
BLACK
6
CONTINUOUS
10
3.0626
20
-3.50055
11
3.0626
21
-3.46118
0
LINE
8
BLACK
6
CONTINUOUS
10
3.0626
20
-3.46118
11
3.07756
21
-3.46118
0
LINE
8
BLACK
6
CONTINUOUS
10
3.07756
20
-3.46118
11
3.07756
21
-3.50055
  0
ENDSEC
  0
EOF
