  0
SECTION
  2
HEADER
  9
$ANGBASE
  50
0.0
  9
$ANGDIR
  70
1
  9
$MEASUREMENT
  70
0
  0
ENDSEC
  0
SECTION
  2
TABLES
  0
TABLE
  2
LTYPE
  70
4
  0
LTYPE
  5
40F
  2
CONTINUOUS
  70
0
  3
Solid line
  72
65
  73
0
  40
0.0
  0
LTYPE
  5
410
  2
DASHDOT
 70
0
  3
Dash Dot ____ _ ____ _
 72
65
 73
4
 40
2.0
 49
1.25
 49
-0.25
 49
0.25
 49
-0.25
  0
LTYPE
  5
411
  2
DASHED
 70
0
  3
Dashed __ __ __ __ __
 72
65
 73
2
 40
0.75
 49
0.5
 49
-0.25
  0
LTYPE
  5
43B
  2
DOTTED
 70
0
  3
Dotted .  .  .  .
 72
65
 73
2
 40
0.2
 49
0.0
 49
-0.2
  0
ENDTAB
  0
TABLE
  2
STYLE
  70
4
  0
STYLE
  2
KICAD
  70
0
  40
0
  41
1
  42
1
  50
0
  71
0
  3
isocp.shx
  0
STYLE
  2
KICADB
  70
0
  40
0
  41
1
  42
1
  50
0
  71
0
  3
isocp.shx
  0
STYLE
  2
KICADI
  70
0
  40
0
  41
1
  42
1
  50
15
  71
0
  3
isocp.shx
  0
STYLE
  2
KICADBI
  70
0
  40
0
  41
1
  42
1
  50
15
  71
0
  3
isocp.shx
  0
ENDTAB
  0
TABLE
  2
LAYER
  70
1
  0
LAYER
  2
BLACK
  70
0
  62
7
  6
CONTINUOUS
  0
ENDTAB
  0
ENDSEC
  0
SECTION
  2
ENTITIES
0
LINE
8
BLACK
6
CONTINUOUS
10
3.04817
20
-4.06664
11
3.05256
21
-4.06887
0
LINE
8
BLACK
6
CONTINUOUS
10
3.05256
20
-4.06887
11
3.05605
21
-4.07236
0
LINE
8
BLACK
6
CONTINUOUS
10
3.05605
20
-4.07236
11
3.05828
21
-4.07675
0
LINE
8
BLACK
6
CONTINUOUS
10
3.05828
20
-4.07675
11
3.05906
21
-4.08161
0
LINE
8
BLACK
6
CONTINUOUS
10
3.05906
20
-4.08161
11
3.05828
21
-4.08648
0
LINE
8
BLACK
6
CONTINUOUS
10
3.05828
20
-4.08648
11
3.05605
21
-4.09087
0
LINE
8
BLACK
6
CONTINUOUS
10
3.05605
20
-4.09087
11
3.05256
21
-4.09435
0
LINE
8
BLACK
6
CONTINUOUS
10
3.05256
20
-4.09435
11
3.04817
21
-4.09659
0
LINE
8
BLACK
6
CONTINUOUS
10
3.04817
20
-4.09659
11
3.04331
21
-4.09736
0
LINE
8
BLACK
6
CONTINUOUS
10
3.04331
20
-4.09736
11
3.03844
21
-4.09659
0
LINE
8
BLACK
6
CONTINUOUS
10
3.03844
20
-4.09659
11
3.03405
21
-4.09435
0
LINE
8
BLACK
6
CONTINUOUS
10
3.03405
20
-4.09435
11
3.03057
21
-4.09087
0
LINE
8
BLACK
6
CONTINUOUS
10
3.03057
20
-4.09087
11
3.02929
21
-4.08836
0
LINE
8
BLACK
6
CONTINUOUS
10
3.02929
20
-4.08836
11
2.9749
21
-4.14275
0
LINE
8
BLACK
6
CONTINUOUS
10
2.9749
20
-4.14275
11
2.9749
21
-4.23228
0
LINE
8
BLACK
6
CONTINUOUS
10
2.9749
20
-4.23228
11
2.97439
21
-4.23351
0
LINE
8
BLACK
6
CONTINUOUS
10
2.97439
20
-4.23351
11
2.97418
21
-4.23402
0
LINE
8
BLACK
6
CONTINUOUS
10
2.97418
20
-4.23402
11
2.84738
21
-4.36082
0
LINE
8
BLACK
6
CONTINUOUS
10
2.84738
20
-4.36082
11
2.84739
21
-4.36082
0
LINE
8
BLACK
6
CONTINUOUS
10
2.84739
20
-4.36082
11
2.84962
21
-4.36521
0
LINE
8
BLACK
6
CONTINUOUS
10
2.84962
20
-4.36521
11
2.85039
21
-4.37008
0
LINE
8
BLACK
6
CONTINUOUS
10
2.85039
20
-4.37008
11
2.84962
21
-4.37495
0
LINE
8
BLACK
6
CONTINUOUS
10
2.84962
20
-4.37495
11
2.84739
21
-4.37934
0
LINE
8
BLACK
6
CONTINUOUS
10
2.84739
20
-4.37934
11
2.8439
21
-4.38282
0
LINE
8
BLACK
6
CONTINUOUS
10
2.8439
20
-4.38282
11
2.83951
21
-4.38506
0
LINE
8
BLACK
6
CONTINUOUS
10
2.83951
20
-4.38506
11
2.83465
21
-4.38583
0
LINE
8
BLACK
6
CONTINUOUS
10
2.83465
20
-4.38583
11
2.82978
21
-4.38506
0
LINE
8
BLACK
6
CONTINUOUS
10
2.82978
20
-4.38506
11
2.82539
21
-4.38282
0
LINE
8
BLACK
6
CONTINUOUS
10
2.82539
20
-4.38282
11
2.82191
21
-4.37934
0
LINE
8
BLACK
6
CONTINUOUS
10
2.82191
20
-4.37934
11
2.81967
21
-4.37495
0
LINE
8
BLACK
6
CONTINUOUS
10
2.81967
20
-4.37495
11
2.8189
21
-4.37008
0
LINE
8
BLACK
6
CONTINUOUS
10
2.8189
20
-4.37008
11
2.81967
21
-4.36521
0
LINE
8
BLACK
6
CONTINUOUS
10
2.81967
20
-4.36521
11
2.82191
21
-4.36082
0
LINE
8
BLACK
6
CONTINUOUS
10
2.82191
20
-4.36082
11
2.82539
21
-4.35734
0
LINE
8
BLACK
6
CONTINUOUS
10
2.82539
20
-4.35734
11
2.82978
21
-4.3551
0
LINE
8
BLACK
6
CONTINUOUS
10
2.82978
20
-4.3551
11
2.83465
21
-4.35433
0
LINE
8
BLACK
6
CONTINUOUS
10
2.83465
20
-4.35433
11
2.83951
21
-4.3551
0
LINE
8
BLACK
6
CONTINUOUS
10
2.83951
20
-4.3551
11
2.8439
21
-4.35734
0
LINE
8
BLACK
6
CONTINUOUS
10
2.8439
20
-4.35734
11
2.8439
21
-4.35734
0
LINE
8
BLACK
6
CONTINUOUS
10
2.8439
20
-4.35734
11
2.96998
21
-4.23126
0
LINE
8
BLACK
6
CONTINUOUS
10
2.96998
20
-4.23126
11
2.96998
21
-4.14173
0
LINE
8
BLACK
6
CONTINUOUS
10
2.96998
20
-4.14173
11
2.9707
21
-4.13999
0
LINE
8
BLACK
6
CONTINUOUS
10
2.9707
20
-4.13999
11
2.9707
21
-4.13999
0
LINE
8
BLACK
6
CONTINUOUS
10
2.9707
20
-4.13999
11
3.02777
21
-4.08293
0
LINE
8
BLACK
6
CONTINUOUS
10
3.02777
20
-4.08293
11
3.02756
21
-4.08161
0
LINE
8
BLACK
6
CONTINUOUS
10
3.02756
20
-4.08161
11
3.02833
21
-4.07675
0
LINE
8
BLACK
6
CONTINUOUS
10
3.02833
20
-4.07675
11
3.03057
21
-4.07236
0
LINE
8
BLACK
6
CONTINUOUS
10
3.03057
20
-4.07236
11
3.03405
21
-4.06887
0
LINE
8
BLACK
6
CONTINUOUS
10
3.03405
20
-4.06887
11
3.03844
21
-4.06664
0
LINE
8
BLACK
6
CONTINUOUS
10
3.03844
20
-4.06664
11
3.04331
21
-4.06587
0
LINE
8
BLACK
6
CONTINUOUS
10
3.04331
20
-4.06587
11
3.04817
21
-4.06664
0
LINE
8
BLACK
6
CONTINUOUS
10
3.40037
20
-3.41201
11
3.40211
21
-3.41273
0
LINE
8
BLACK
6
CONTINUOUS
10
3.40211
20
-3.41273
11
3.41739
21
-3.42801
0
LINE
8
BLACK
6
CONTINUOUS
10
3.41739
20
-3.42801
11
3.41811
21
-3.42975
0
LINE
8
BLACK
6
CONTINUOUS
10
3.41811
20
-3.42975
11
3.41811
21
-3.98593
0
LINE
8
BLACK
6
CONTINUOUS
10
3.41811
20
-3.98593
11
3.41739
21
-3.98767
0
LINE
8
BLACK
6
CONTINUOUS
10
3.41739
20
-3.98767
11
3.3802
21
-4.02485
0
LINE
8
BLACK
6
CONTINUOUS
10
3.3802
20
-4.02485
11
3.37846
21
-4.02557
0
LINE
8
BLACK
6
CONTINUOUS
10
3.37846
20
-4.02557
11
3.04878
21
-4.02557
0
LINE
8
BLACK
6
CONTINUOUS
10
3.04878
20
-4.02557
11
2.92671
21
-4.14764
0
LINE
8
BLACK
6
CONTINUOUS
10
2.92671
20
-4.14764
11
2.95276
21
-4.14764
0
LINE
8
BLACK
6
CONTINUOUS
10
2.95276
20
-4.14764
11
2.95276
21
-4.21457
0
LINE
8
BLACK
6
CONTINUOUS
10
2.95276
20
-4.21457
11
2.88583
21
-4.21457
0
LINE
8
BLACK
6
CONTINUOUS
10
2.88583
20
-4.21457
11
2.88583
21
-4.14764
0
LINE
8
BLACK
6
CONTINUOUS
10
2.88583
20
-4.14764
11
2.91975
21
-4.14764
0
LINE
8
BLACK
6
CONTINUOUS
10
2.91975
20
-4.14764
11
3.04602
21
-4.02137
0
LINE
8
BLACK
6
CONTINUOUS
10
3.04602
20
-4.02137
11
3.04776
21
-4.02065
0
LINE
8
BLACK
6
CONTINUOUS
10
3.04776
20
-4.02065
11
3.37745
21
-4.02065
0
LINE
8
BLACK
6
CONTINUOUS
10
3.37745
20
-4.02065
11
3.41319
21
-3.98491
0
LINE
8
BLACK
6
CONTINUOUS
10
3.41319
20
-3.98491
11
3.41319
21
-3.43077
0
LINE
8
BLACK
6
CONTINUOUS
10
3.41319
20
-3.43077
11
3.39935
21
-3.41693
0
LINE
8
BLACK
6
CONTINUOUS
10
3.39935
20
-3.41693
11
3.33716
21
-3.41693
0
LINE
8
BLACK
6
CONTINUOUS
10
3.33716
20
-3.41693
11
3.31545
21
-3.43864
0
LINE
8
BLACK
6
CONTINUOUS
10
3.31545
20
-3.43864
11
3.31575
21
-3.44055
0
LINE
8
BLACK
6
CONTINUOUS
10
3.31575
20
-3.44055
11
3.31498
21
-3.44542
0
LINE
8
BLACK
6
CONTINUOUS
10
3.31498
20
-3.44542
11
3.31274
21
-3.44981
0
LINE
8
BLACK
6
CONTINUOUS
10
3.31274
20
-3.44981
11
3.30926
21
-3.45329
0
LINE
8
BLACK
6
CONTINUOUS
10
3.30926
20
-3.45329
11
3.30487
21
-3.45553
0
LINE
8
BLACK
6
CONTINUOUS
10
3.30487
20
-3.45553
11
3.3
21
-3.4563
0
LINE
8
BLACK
6
CONTINUOUS
10
3.3
20
-3.4563
11
3.29513
21
-3.45553
0
LINE
8
BLACK
6
CONTINUOUS
10
3.29513
20
-3.45553
11
3.29074
21
-3.45329
0
LINE
8
BLACK
6
CONTINUOUS
10
3.29074
20
-3.45329
11
3.29074
21
-3.45329
0
LINE
8
BLACK
6
CONTINUOUS
10
3.29074
20
-3.45329
11
3.19538
21
-3.54865
0
LINE
8
BLACK
6
CONTINUOUS
10
3.19538
20
-3.54865
11
3.19364
21
-3.54937
0
LINE
8
BLACK
6
CONTINUOUS
10
3.19364
20
-3.54937
11
3.06428
21
-3.54937
0
LINE
8
BLACK
6
CONTINUOUS
10
3.06428
20
-3.54937
11
3.06389
21
-3.55178
0
LINE
8
BLACK
6
CONTINUOUS
10
3.06389
20
-3.55178
11
3.06166
21
-3.55617
0
LINE
8
BLACK
6
CONTINUOUS
10
3.06166
20
-3.55617
11
3.05817
21
-3.55965
0
LINE
8
BLACK
6
CONTINUOUS
10
3.05817
20
-3.55965
11
3.05378
21
-3.56189
0
LINE
8
BLACK
6
CONTINUOUS
10
3.05378
20
-3.56189
11
3.04892
21
-3.56266
0
LINE
8
BLACK
6
CONTINUOUS
10
3.04892
20
-3.56266
11
3.04405
21
-3.56189
0
LINE
8
BLACK
6
CONTINUOUS
10
3.04405
20
-3.56189
11
3.03966
21
-3.55965
0
LINE
8
BLACK
6
CONTINUOUS
10
3.03966
20
-3.55965
11
3.03618
21
-3.55617
0
LINE
8
BLACK
6
CONTINUOUS
10
3.03618
20
-3.55617
11
3.03394
21
-3.55178
0
LINE
8
BLACK
6
CONTINUOUS
10
3.03394
20
-3.55178
11
3.03317
21
-3.54691
0
LINE
8
BLACK
6
CONTINUOUS
10
3.03317
20
-3.54691
11
3.03394
21
-3.54204
0
LINE
8
BLACK
6
CONTINUOUS
10
3.03394
20
-3.54204
11
3.03618
21
-3.53765
0
LINE
8
BLACK
6
CONTINUOUS
10
3.03618
20
-3.53765
11
3.03618
21
-3.53765
0
LINE
8
BLACK
6
CONTINUOUS
10
3.03618
20
-3.53765
11
3.00928
21
-3.51076
0
LINE
8
BLACK
6
CONTINUOUS
10
3.00928
20
-3.51076
11
3.00856
21
-3.50902
0
LINE
8
BLACK
6
CONTINUOUS
10
3.00856
20
-3.50902
11
3.00856
21
-3.50055
0
LINE
8
BLACK
6
CONTINUOUS
10
3.00856
20
-3.50055
11
3.00354
21
-3.50055
0
LINE
8
BLACK
6
CONTINUOUS
10
3.00354
20
-3.50055
11
3.00354
21
-3.46118
0
LINE
8
BLACK
6
CONTINUOUS
10
3.00354
20
-3.46118
11
3.00856
21
-3.46118
0
LINE
8
BLACK
6
CONTINUOUS
10
3.00856
20
-3.46118
11
3.00856
21
-3.45374
0
LINE
8
BLACK
6
CONTINUOUS
10
3.00856
20
-3.45374
11
3.00784
21
-3.45301
0
LINE
8
BLACK
6
CONTINUOUS
10
3.00784
20
-3.45301
11
2.91578
21
-3.45301
0
LINE
8
BLACK
6
CONTINUOUS
10
2.91578
20
-3.45301
11
2.91506
21
-3.45374
0
LINE
8
BLACK
6
CONTINUOUS
10
2.91506
20
-3.45374
11
2.91506
21
-3.46118
0
LINE
8
BLACK
6
CONTINUOUS
10
2.91506
20
-3.46118
11
2.92008
21
-3.46118
0
LINE
8
BLACK
6
CONTINUOUS
10
2.92008
20
-3.46118
11
2.92008
21
-3.50055
0
LINE
8
BLACK
6
CONTINUOUS
10
2.92008
20
-3.50055
11
2.90512
21
-3.50055
0
LINE
8
BLACK
6
CONTINUOUS
10
2.90512
20
-3.50055
11
2.90512
21
-3.46118
0
LINE
8
BLACK
6
CONTINUOUS
10
2.90512
20
-3.46118
11
2.91014
21
-3.46118
0
LINE
8
BLACK
6
CONTINUOUS
10
2.91014
20
-3.46118
11
2.91014
21
-3.45272
0
LINE
8
BLACK
6
CONTINUOUS
10
2.91014
20
-3.45272
11
2.91086
21
-3.45098
0
LINE
8
BLACK
6
CONTINUOUS
10
2.91086
20
-3.45098
11
2.91302
21
-3.44881
0
LINE
8
BLACK
6
CONTINUOUS
10
2.91302
20
-3.44881
11
2.91476
21
-3.44809
0
LINE
8
BLACK
6
CONTINUOUS
10
2.91476
20
-3.44809
11
3.00886
21
-3.44809
0
LINE
8
BLACK
6
CONTINUOUS
10
3.00886
20
-3.44809
11
3.0106
21
-3.44881
0
LINE
8
BLACK
6
CONTINUOUS
10
3.0106
20
-3.44881
11
3.01276
21
-3.45098
0
LINE
8
BLACK
6
CONTINUOUS
10
3.01276
20
-3.45098
11
3.01348
21
-3.45272
0
LINE
8
BLACK
6
CONTINUOUS
10
3.01348
20
-3.45272
11
3.01348
21
-3.46118
0
LINE
8
BLACK
6
CONTINUOUS
10
3.01348
20
-3.46118
11
3.0185
21
-3.46118
0
LINE
8
BLACK
6
CONTINUOUS
10
3.0185
20
-3.46118
11
3.0185
21
-3.50055
0
LINE
8
BLACK
6
CONTINUOUS
10
3.0185
20
-3.50055
11
3.01348
21
-3.50055
0
LINE
8
BLACK
6
CONTINUOUS
10
3.01348
20
-3.50055
11
3.01348
21
-3.508
0
LINE
8
BLACK
6
CONTINUOUS
10
3.01348
20
-3.508
11
3.03966
21
-3.53417
0
LINE
8
BLACK
6
CONTINUOUS
10
3.03966
20
-3.53417
11
3.03966
21
-3.53417
0
LINE
8
BLACK
6
CONTINUOUS
10
3.03966
20
-3.53417
11
3.04405
21
-3.53193
0
LINE
8
BLACK
6
CONTINUOUS
10
3.04405
20
-3.53193
11
3.04892
21
-3.53116
0
LINE
8
BLACK
6
CONTINUOUS
10
3.04892
20
-3.53116
11
3.05378
21
-3.53193
0
LINE
8
BLACK
6
CONTINUOUS
10
3.05378
20
-3.53193
11
3.05817
21
-3.53417
0
LINE
8
BLACK
6
CONTINUOUS
10
3.05817
20
-3.53417
11
3.06166
21
-3.53765
0
LINE
8
BLACK
6
CONTINUOUS
10
3.06166
20
-3.53765
11
3.06389
21
-3.54204
0
LINE
8
BLACK
6
CONTINUOUS
10
3.06389
20
-3.54204
11
3.06428
21
-3.54445
0
LINE
8
BLACK
6
CONTINUOUS
10
3.06428
20
-3.54445
11
3.19262
21
-3.54445
0
LINE
8
BLACK
6
CONTINUOUS
10
3.19262
20
-3.54445
11
3.28726
21
-3.44981
0
LINE
8
BLACK
6
CONTINUOUS
10
3.28726
20
-3.44981
11
3.28726
21
-3.44981
0
LINE
8
BLACK
6
CONTINUOUS
10
3.28726
20
-3.44981
11
3.28502
21
-3.44542
0
LINE
8
BLACK
6
CONTINUOUS
10
3.28502
20
-3.44542
11
3.28425
21
-3.44055
0
LINE
8
BLACK
6
CONTINUOUS
10
3.28425
20
-3.44055
11
3.28502
21
-3.43568
0
LINE
8
BLACK
6
CONTINUOUS
10
3.28502
20
-3.43568
11
3.28726
21
-3.43129
0
LINE
8
BLACK
6
CONTINUOUS
10
3.28726
20
-3.43129
11
3.29074
21
-3.42781
0
LINE
8
BLACK
6
CONTINUOUS
10
3.29074
20
-3.42781
11
3.29513
21
-3.42557
0
LINE
8
BLACK
6
CONTINUOUS
10
3.29513
20
-3.42557
11
3.3
21
-3.4248
0
LINE
8
BLACK
6
CONTINUOUS
10
3.3
20
-3.4248
11
3.30487
21
-3.42557
0
LINE
8
BLACK
6
CONTINUOUS
10
3.30487
20
-3.42557
11
3.30926
21
-3.42781
0
LINE
8
BLACK
6
CONTINUOUS
10
3.30926
20
-3.42781
11
3.31274
21
-3.43129
0
LINE
8
BLACK
6
CONTINUOUS
10
3.31274
20
-3.43129
11
3.31379
21
-3.43335
0
LINE
8
BLACK
6
CONTINUOUS
10
3.31379
20
-3.43335
11
3.3344
21
-3.41273
0
LINE
8
BLACK
6
CONTINUOUS
10
3.3344
20
-3.41273
11
3.33491
21
-3.41252
0
LINE
8
BLACK
6
CONTINUOUS
10
3.33491
20
-3.41252
11
3.33614
21
-3.41201
0
LINE
8
BLACK
6
CONTINUOUS
10
3.33614
20
-3.41201
11
3.40037
21
-3.41201
0
LINE
8
BLACK
6
CONTINUOUS
10
3.02963
20
-4.14928
11
3.03602
21
-4.15212
0
LINE
8
BLACK
6
CONTINUOUS
10
3.03602
20
-4.15212
11
3.04168
21
-4.15623
0
LINE
8
BLACK
6
CONTINUOUS
10
3.04168
20
-4.15623
11
3.04636
21
-4.16143
0
LINE
8
BLACK
6
CONTINUOUS
10
3.04636
20
-4.16143
11
3.04986
21
-4.16749
0
LINE
8
BLACK
6
CONTINUOUS
10
3.04986
20
-4.16749
11
3.05202
21
-4.17414
0
LINE
8
BLACK
6
CONTINUOUS
10
3.05202
20
-4.17414
11
3.05276
21
-4.1811
0
LINE
8
BLACK
6
CONTINUOUS
10
3.05276
20
-4.1811
11
3.05202
21
-4.18806
0
LINE
8
BLACK
6
CONTINUOUS
10
3.05202
20
-4.18806
11
3.04986
21
-4.19471
0
LINE
8
BLACK
6
CONTINUOUS
10
3.04986
20
-4.19471
11
3.04636
21
-4.20077
0
LINE
8
BLACK
6
CONTINUOUS
10
3.04636
20
-4.20077
11
3.04168
21
-4.20597
0
LINE
8
BLACK
6
CONTINUOUS
10
3.04168
20
-4.20597
11
3.03602
21
-4.21008
0
LINE
8
BLACK
6
CONTINUOUS
10
3.03602
20
-4.21008
11
3.02963
21
-4.21293
0
LINE
8
BLACK
6
CONTINUOUS
10
3.02963
20
-4.21293
11
3.02279
21
-4.21438
0
LINE
8
BLACK
6
CONTINUOUS
10
3.02279
20
-4.21438
11
3.01579
21
-4.21438
0
LINE
8
BLACK
6
CONTINUOUS
10
3.01579
20
-4.21438
11
3.00895
21
-4.21293
0
LINE
8
BLACK
6
CONTINUOUS
10
3.00895
20
-4.21293
11
3.00256
21
-4.21008
0
LINE
8
BLACK
6
CONTINUOUS
10
3.00256
20
-4.21008
11
2.9969
21
-4.20597
0
LINE
8
BLACK
6
CONTINUOUS
10
2.9969
20
-4.20597
11
2.99222
21
-4.20077
0
LINE
8
BLACK
6
CONTINUOUS
10
2.99222
20
-4.20077
11
2.98872
21
-4.19471
0
LINE
8
BLACK
6
CONTINUOUS
10
2.98872
20
-4.19471
11
2.98656
21
-4.18806
0
LINE
8
BLACK
6
CONTINUOUS
10
2.98656
20
-4.18806
11
2.98583
21
-4.1811
0
LINE
8
BLACK
6
CONTINUOUS
10
2.98583
20
-4.1811
11
2.98656
21
-4.17414
0
LINE
8
BLACK
6
CONTINUOUS
10
2.98656
20
-4.17414
11
2.98872
21
-4.16749
0
LINE
8
BLACK
6
CONTINUOUS
10
2.98872
20
-4.16749
11
2.99222
21
-4.16143
0
LINE
8
BLACK
6
CONTINUOUS
10
2.99222
20
-4.16143
11
2.9969
21
-4.15623
0
LINE
8
BLACK
6
CONTINUOUS
10
2.9969
20
-4.15623
11
3.00256
21
-4.15212
0
LINE
8
BLACK
6
CONTINUOUS
10
3.00256
20
-4.15212
11
3.00895
21
-4.14928
0
LINE
8
BLACK
6
CONTINUOUS
10
3.00895
20
-4.14928
11
3.01579
21
-4.14782
0
LINE
8
BLACK
6
CONTINUOUS
10
3.01579
20
-4.14782
11
3.02279
21
-4.14782
0
LINE
8
BLACK
6
CONTINUOUS
10
3.02279
20
-4.14782
11
3.02963
21
-4.14928
0
LINE
8
BLACK
6
CONTINUOUS
10
3.12963
20
-4.14928
11
3.13602
21
-4.15212
0
LINE
8
BLACK
6
CONTINUOUS
10
3.13602
20
-4.15212
11
3.14168
21
-4.15623
0
LINE
8
BLACK
6
CONTINUOUS
10
3.14168
20
-4.15623
11
3.14636
21
-4.16143
0
LINE
8
BLACK
6
CONTINUOUS
10
3.14636
20
-4.16143
11
3.14986
21
-4.16749
0
LINE
8
BLACK
6
CONTINUOUS
10
3.14986
20
-4.16749
11
3.15202
21
-4.17414
0
LINE
8
BLACK
6
CONTINUOUS
10
3.15202
20
-4.17414
11
3.15276
21
-4.1811
0
LINE
8
BLACK
6
CONTINUOUS
10
3.15276
20
-4.1811
11
3.15202
21
-4.18806
0
LINE
8
BLACK
6
CONTINUOUS
10
3.15202
20
-4.18806
11
3.14986
21
-4.19471
0
LINE
8
BLACK
6
CONTINUOUS
10
3.14986
20
-4.19471
11
3.14636
21
-4.20077
0
LINE
8
BLACK
6
CONTINUOUS
10
3.14636
20
-4.20077
11
3.14168
21
-4.20597
0
LINE
8
BLACK
6
CONTINUOUS
10
3.14168
20
-4.20597
11
3.13602
21
-4.21008
0
LINE
8
BLACK
6
CONTINUOUS
10
3.13602
20
-4.21008
11
3.12963
21
-4.21293
0
LINE
8
BLACK
6
CONTINUOUS
10
3.12963
20
-4.21293
11
3.12279
21
-4.21438
0
LINE
8
BLACK
6
CONTINUOUS
10
3.12279
20
-4.21438
11
3.11579
21
-4.21438
0
LINE
8
BLACK
6
CONTINUOUS
10
3.11579
20
-4.21438
11
3.10895
21
-4.21293
0
LINE
8
BLACK
6
CONTINUOUS
10
3.10895
20
-4.21293
11
3.10256
21
-4.21008
0
LINE
8
BLACK
6
CONTINUOUS
10
3.10256
20
-4.21008
11
3.0969
21
-4.20597
0
LINE
8
BLACK
6
CONTINUOUS
10
3.0969
20
-4.20597
11
3.09222
21
-4.20077
0
LINE
8
BLACK
6
CONTINUOUS
10
3.09222
20
-4.20077
11
3.08872
21
-4.19471
0
LINE
8
BLACK
6
CONTINUOUS
10
3.08872
20
-4.19471
11
3.08656
21
-4.18806
0
LINE
8
BLACK
6
CONTINUOUS
10
3.08656
20
-4.18806
11
3.08583
21
-4.1811
0
LINE
8
BLACK
6
CONTINUOUS
10
3.08583
20
-4.1811
11
3.08656
21
-4.17414
0
LINE
8
BLACK
6
CONTINUOUS
10
3.08656
20
-4.17414
11
3.08872
21
-4.16749
0
LINE
8
BLACK
6
CONTINUOUS
10
3.08872
20
-4.16749
11
3.09222
21
-4.16143
0
LINE
8
BLACK
6
CONTINUOUS
10
3.09222
20
-4.16143
11
3.0969
21
-4.15623
0
LINE
8
BLACK
6
CONTINUOUS
10
3.0969
20
-4.15623
11
3.10256
21
-4.15212
0
LINE
8
BLACK
6
CONTINUOUS
10
3.10256
20
-4.15212
11
3.10895
21
-4.14928
0
LINE
8
BLACK
6
CONTINUOUS
10
3.10895
20
-4.14928
11
3.11579
21
-4.14782
0
LINE
8
BLACK
6
CONTINUOUS
10
3.11579
20
-4.14782
11
3.12279
21
-4.14782
0
LINE
8
BLACK
6
CONTINUOUS
10
3.12279
20
-4.14782
11
3.12963
21
-4.14928
0
LINE
8
BLACK
6
CONTINUOUS
10
3.22963
20
-4.14928
11
3.23602
21
-4.15212
0
LINE
8
BLACK
6
CONTINUOUS
10
3.23602
20
-4.15212
11
3.24168
21
-4.15623
0
LINE
8
BLACK
6
CONTINUOUS
10
3.24168
20
-4.15623
11
3.24636
21
-4.16143
0
LINE
8
BLACK
6
CONTINUOUS
10
3.24636
20
-4.16143
11
3.24986
21
-4.16749
0
LINE
8
BLACK
6
CONTINUOUS
10
3.24986
20
-4.16749
11
3.25202
21
-4.17414
0
LINE
8
BLACK
6
CONTINUOUS
10
3.25202
20
-4.17414
11
3.25276
21
-4.1811
0
LINE
8
BLACK
6
CONTINUOUS
10
3.25276
20
-4.1811
11
3.25202
21
-4.18806
0
LINE
8
BLACK
6
CONTINUOUS
10
3.25202
20
-4.18806
11
3.24986
21
-4.19471
0
LINE
8
BLACK
6
CONTINUOUS
10
3.24986
20
-4.19471
11
3.24636
21
-4.20077
0
LINE
8
BLACK
6
CONTINUOUS
10
3.24636
20
-4.20077
11
3.24168
21
-4.20597
0
LINE
8
BLACK
6
CONTINUOUS
10
3.24168
20
-4.20597
11
3.23602
21
-4.21008
0
LINE
8
BLACK
6
CONTINUOUS
10
3.23602
20
-4.21008
11
3.22963
21
-4.21293
0
LINE
8
BLACK
6
CONTINUOUS
10
3.22963
20
-4.21293
11
3.22279
21
-4.21438
0
LINE
8
BLACK
6
CONTINUOUS
10
3.22279
20
-4.21438
11
3.21579
21
-4.21438
0
LINE
8
BLACK
6
CONTINUOUS
10
3.21579
20
-4.21438
11
3.20895
21
-4.21293
0
LINE
8
BLACK
6
CONTINUOUS
10
3.20895
20
-4.21293
11
3.20256
21
-4.21008
0
LINE
8
BLACK
6
CONTINUOUS
10
3.20256
20
-4.21008
11
3.1969
21
-4.20597
0
LINE
8
BLACK
6
CONTINUOUS
10
3.1969
20
-4.20597
11
3.19222
21
-4.20077
0
LINE
8
BLACK
6
CONTINUOUS
10
3.19222
20
-4.20077
11
3.18872
21
-4.19471
0
LINE
8
BLACK
6
CONTINUOUS
10
3.18872
20
-4.19471
11
3.18656
21
-4.18806
0
LINE
8
BLACK
6
CONTINUOUS
10
3.18656
20
-4.18806
11
3.18583
21
-4.1811
0
LINE
8
BLACK
6
CONTINUOUS
10
3.18583
20
-4.1811
11
3.18656
21
-4.17414
0
LINE
8
BLACK
6
CONTINUOUS
10
3.18656
20
-4.17414
11
3.18872
21
-4.16749
0
LINE
8
BLACK
6
CONTINUOUS
10
3.18872
20
-4.16749
11
3.19222
21
-4.16143
0
LINE
8
BLACK
6
CONTINUOUS
10
3.19222
20
-4.16143
11
3.1969
21
-4.15623
0
LINE
8
BLACK
6
CONTINUOUS
10
3.1969
20
-4.15623
11
3.20256
21
-4.15212
0
LINE
8
BLACK
6
CONTINUOUS
10
3.20256
20
-4.15212
11
3.20895
21
-4.14928
0
LINE
8
BLACK
6
CONTINUOUS
10
3.20895
20
-4.14928
11
3.21579
21
-4.14782
0
LINE
8
BLACK
6
CONTINUOUS
10
3.21579
20
-4.14782
11
3.22279
21
-4.14782
0
LINE
8
BLACK
6
CONTINUOUS
10
3.22279
20
-4.14782
11
3.22963
21
-4.14928
0
LINE
8
BLACK
6
CONTINUOUS
10
2.8872
20
-3.5353
11
2.88894
21
-3.53602
0
LINE
8
BLACK
6
CONTINUOUS
10
2.88894
20
-3.53602
11
2.94074
21
-3.58781
0
LINE
8
BLACK
6
CONTINUOUS
10
2.94074
20
-3.58781
11
2.94074
21
-3.58781
0
LINE
8
BLACK
6
CONTINUOUS
10
2.94074
20
-3.58781
11
2.94513
21
-3.58557
0
LINE
8
BLACK
6
CONTINUOUS
10
2.94513
20
-3.58557
11
2.95
21
-3.5848
0
LINE
8
BLACK
6
CONTINUOUS
10
2.95
20
-3.5848
11
2.95487
21
-3.58557
0
LINE
8
BLACK
6
CONTINUOUS
10
2.95487
20
-3.58557
11
2.95926
21
-3.58781
0
LINE
8
BLACK
6
CONTINUOUS
10
2.95926
20
-3.58781
11
2.96274
21
-3.59129
0
LINE
8
BLACK
6
CONTINUOUS
10
2.96274
20
-3.59129
11
2.96498
21
-3.59568
0
LINE
8
BLACK
6
CONTINUOUS
10
2.96498
20
-3.59568
11
2.96575
21
-3.60055
0
LINE
8
BLACK
6
CONTINUOUS
10
2.96575
20
-3.60055
11
2.96498
21
-3.60542
0
LINE
8
BLACK
6
CONTINUOUS
10
2.96498
20
-3.60542
11
2.96274
21
-3.60981
0
LINE
8
BLACK
6
CONTINUOUS
10
2.96274
20
-3.60981
11
2.95926
21
-3.61329
0
LINE
8
BLACK
6
CONTINUOUS
10
2.95926
20
-3.61329
11
2.95487
21
-3.61553
0
LINE
8
BLACK
6
CONTINUOUS
10
2.95487
20
-3.61553
11
2.95
21
-3.6163
0
LINE
8
BLACK
6
CONTINUOUS
10
2.95
20
-3.6163
11
2.94513
21
-3.61553
0
LINE
8
BLACK
6
CONTINUOUS
10
2.94513
20
-3.61553
11
2.94074
21
-3.61329
0
LINE
8
BLACK
6
CONTINUOUS
10
2.94074
20
-3.61329
11
2.93726
21
-3.60981
0
LINE
8
BLACK
6
CONTINUOUS
10
2.93726
20
-3.60981
11
2.93502
21
-3.60542
0
LINE
8
BLACK
6
CONTINUOUS
10
2.93502
20
-3.60542
11
2.93425
21
-3.60055
0
LINE
8
BLACK
6
CONTINUOUS
10
2.93425
20
-3.60055
11
2.93502
21
-3.59568
0
LINE
8
BLACK
6
CONTINUOUS
10
2.93502
20
-3.59568
11
2.93726
21
-3.59129
0
LINE
8
BLACK
6
CONTINUOUS
10
2.93726
20
-3.59129
11
2.93726
21
-3.59129
0
LINE
8
BLACK
6
CONTINUOUS
10
2.93726
20
-3.59129
11
2.88619
21
-3.54022
0
LINE
8
BLACK
6
CONTINUOUS
10
2.88619
20
-3.54022
11
2.66139
21
-3.54022
0
LINE
8
BLACK
6
CONTINUOUS
10
2.66139
20
-3.54022
11
2.53858
21
-3.66303
0
LINE
8
BLACK
6
CONTINUOUS
10
2.53858
20
-3.66303
11
2.53858
21
-3.69319
0
LINE
8
BLACK
6
CONTINUOUS
10
2.53858
20
-3.69319
11
2.80627
21
-3.96089
0
LINE
8
BLACK
6
CONTINUOUS
10
2.80627
20
-3.96089
11
3.16632
21
-3.96089
0
LINE
8
BLACK
6
CONTINUOUS
10
3.16632
20
-3.96089
11
3.16806
21
-3.96161
0
LINE
8
BLACK
6
CONTINUOUS
10
3.16806
20
-3.96161
11
3.19074
21
-3.98429
0
LINE
8
BLACK
6
CONTINUOUS
10
3.19074
20
-3.98429
11
3.19074
21
-3.98429
0
LINE
8
BLACK
6
CONTINUOUS
10
3.19074
20
-3.98429
11
3.19513
21
-3.98205
0
LINE
8
BLACK
6
CONTINUOUS
10
3.19513
20
-3.98205
11
3.2
21
-3.98128
0
LINE
8
BLACK
6
CONTINUOUS
10
3.2
20
-3.98128
11
3.20487
21
-3.98205
0
LINE
8
BLACK
6
CONTINUOUS
10
3.20487
20
-3.98205
11
3.20926
21
-3.98429
0
LINE
8
BLACK
6
CONTINUOUS
10
3.20926
20
-3.98429
11
3.21274
21
-3.98777
0
LINE
8
BLACK
6
CONTINUOUS
10
3.21274
20
-3.98777
11
3.21498
21
-3.99216
0
LINE
8
BLACK
6
CONTINUOUS
10
3.21498
20
-3.99216
11
3.21575
21
-3.99703
0
LINE
8
BLACK
6
CONTINUOUS
10
3.21575
20
-3.99703
11
3.21498
21
-4.00189
0
LINE
8
BLACK
6
CONTINUOUS
10
3.21498
20
-4.00189
11
3.21274
21
-4.00628
0
LINE
8
BLACK
6
CONTINUOUS
10
3.21274
20
-4.00628
11
3.20926
21
-4.00977
0
LINE
8
BLACK
6
CONTINUOUS
10
3.20926
20
-4.00977
11
3.20487
21
-4.012
0
LINE
8
BLACK
6
CONTINUOUS
10
3.20487
20
-4.012
11
3.2
21
-4.01278
0
LINE
8
BLACK
6
CONTINUOUS
10
3.2
20
-4.01278
11
3.19513
21
-4.012
0
LINE
8
BLACK
6
CONTINUOUS
10
3.19513
20
-4.012
11
3.19074
21
-4.00977
0
LINE
8
BLACK
6
CONTINUOUS
10
3.19074
20
-4.00977
11
3.18726
21
-4.00628
0
LINE
8
BLACK
6
CONTINUOUS
10
3.18726
20
-4.00628
11
3.18502
21
-4.00189
0
LINE
8
BLACK
6
CONTINUOUS
10
3.18502
20
-4.00189
11
3.18425
21
-3.99703
0
LINE
8
BLACK
6
CONTINUOUS
10
3.18425
20
-3.99703
11
3.18502
21
-3.99216
0
LINE
8
BLACK
6
CONTINUOUS
10
3.18502
20
-3.99216
11
3.18726
21
-3.98777
0
LINE
8
BLACK
6
CONTINUOUS
10
3.18726
20
-3.98777
11
3.18726
21
-3.98777
0
LINE
8
BLACK
6
CONTINUOUS
10
3.18726
20
-3.98777
11
3.1653
21
-3.96581
0
LINE
8
BLACK
6
CONTINUOUS
10
3.1653
20
-3.96581
11
2.80525
21
-3.96581
0
LINE
8
BLACK
6
CONTINUOUS
10
2.80525
20
-3.96581
11
2.80351
21
-3.96509
0
LINE
8
BLACK
6
CONTINUOUS
10
2.80351
20
-3.96509
11
2.53438
21
-3.69595
0
LINE
8
BLACK
6
CONTINUOUS
10
2.53438
20
-3.69595
11
2.53366
21
-3.69421
0
LINE
8
BLACK
6
CONTINUOUS
10
2.53366
20
-3.69421
11
2.53366
21
-3.66201
0
LINE
8
BLACK
6
CONTINUOUS
10
2.53366
20
-3.66201
11
2.53438
21
-3.66027
0
LINE
8
BLACK
6
CONTINUOUS
10
2.53438
20
-3.66027
11
2.53438
21
-3.66027
0
LINE
8
BLACK
6
CONTINUOUS
10
2.53438
20
-3.66027
11
2.65863
21
-3.53602
0
LINE
8
BLACK
6
CONTINUOUS
10
2.65863
20
-3.53602
11
2.65863
21
-3.53602
0
LINE
8
BLACK
6
CONTINUOUS
10
2.65863
20
-3.53602
11
2.66037
21
-3.5353
0
LINE
8
BLACK
6
CONTINUOUS
10
2.66037
20
-3.5353
11
2.8872
21
-3.5353
0
LINE
8
BLACK
6
CONTINUOUS
10
2.85
20
-3.54809
11
2.85174
21
-3.54881
0
LINE
8
BLACK
6
CONTINUOUS
10
2.85174
20
-3.54881
11
2.89074
21
-3.58781
0
LINE
8
BLACK
6
CONTINUOUS
10
2.89074
20
-3.58781
11
2.89074
21
-3.58781
0
LINE
8
BLACK
6
CONTINUOUS
10
2.89074
20
-3.58781
11
2.89513
21
-3.58557
0
LINE
8
BLACK
6
CONTINUOUS
10
2.89513
20
-3.58557
11
2.9
21
-3.5848
0
LINE
8
BLACK
6
CONTINUOUS
10
2.9
20
-3.5848
11
2.90487
21
-3.58557
0
LINE
8
BLACK
6
CONTINUOUS
10
2.90487
20
-3.58557
11
2.90926
21
-3.58781
0
LINE
8
BLACK
6
CONTINUOUS
10
2.90926
20
-3.58781
11
2.91274
21
-3.59129
0
LINE
8
BLACK
6
CONTINUOUS
10
2.91274
20
-3.59129
11
2.91498
21
-3.59568
0
LINE
8
BLACK
6
CONTINUOUS
10
2.91498
20
-3.59568
11
2.91575
21
-3.60055
0
LINE
8
BLACK
6
CONTINUOUS
10
2.91575
20
-3.60055
11
2.91498
21
-3.60542
0
LINE
8
BLACK
6
CONTINUOUS
10
2.91498
20
-3.60542
11
2.91274
21
-3.60981
0
LINE
8
BLACK
6
CONTINUOUS
10
2.91274
20
-3.60981
11
2.90926
21
-3.61329
0
LINE
8
BLACK
6
CONTINUOUS
10
2.90926
20
-3.61329
11
2.90487
21
-3.61553
0
LINE
8
BLACK
6
CONTINUOUS
10
2.90487
20
-3.61553
11
2.9
21
-3.6163
0
LINE
8
BLACK
6
CONTINUOUS
10
2.9
20
-3.6163
11
2.89513
21
-3.61553
0
LINE
8
BLACK
6
CONTINUOUS
10
2.89513
20
-3.61553
11
2.89074
21
-3.61329
0
LINE
8
BLACK
6
CONTINUOUS
10
2.89074
20
-3.61329
11
2.88726
21
-3.60981
0
LINE
8
BLACK
6
CONTINUOUS
10
2.88726
20
-3.60981
11
2.88502
21
-3.60542
0
LINE
8
BLACK
6
CONTINUOUS
10
2.88502
20
-3.60542
11
2.88425
21
-3.60055
0
LINE
8
BLACK
6
CONTINUOUS
10
2.88425
20
-3.60055
11
2.88502
21
-3.59568
0
LINE
8
BLACK
6
CONTINUOUS
10
2.88502
20
-3.59568
11
2.88726
21
-3.59129
0
LINE
8
BLACK
6
CONTINUOUS
10
2.88726
20
-3.59129
11
2.88726
21
-3.59129
0
LINE
8
BLACK
6
CONTINUOUS
10
2.88726
20
-3.59129
11
2.84898
21
-3.55301
0
LINE
8
BLACK
6
CONTINUOUS
10
2.84898
20
-3.55301
11
2.66669
21
-3.55301
0
LINE
8
BLACK
6
CONTINUOUS
10
2.66669
20
-3.55301
11
2.55138
21
-3.66833
0
LINE
8
BLACK
6
CONTINUOUS
10
2.55138
20
-3.66833
11
2.55138
21
-3.68789
0
LINE
8
BLACK
6
CONTINUOUS
10
2.55138
20
-3.68789
11
2.81157
21
-3.94809
0
LINE
8
BLACK
6
CONTINUOUS
10
2.81157
20
-3.94809
11
3.18464
21
-3.94809
0
LINE
8
BLACK
6
CONTINUOUS
10
3.18464
20
-3.94809
11
3.18502
21
-3.94568
0
LINE
8
BLACK
6
CONTINUOUS
10
3.18502
20
-3.94568
11
3.18726
21
-3.94129
0
LINE
8
BLACK
6
CONTINUOUS
10
3.18726
20
-3.94129
11
3.19074
21
-3.93781
0
LINE
8
BLACK
6
CONTINUOUS
10
3.19074
20
-3.93781
11
3.19513
21
-3.93557
0
LINE
8
BLACK
6
CONTINUOUS
10
3.19513
20
-3.93557
11
3.2
21
-3.9348
0
LINE
8
BLACK
6
CONTINUOUS
10
3.2
20
-3.9348
11
3.20487
21
-3.93557
0
LINE
8
BLACK
6
CONTINUOUS
10
3.20487
20
-3.93557
11
3.20926
21
-3.93781
0
LINE
8
BLACK
6
CONTINUOUS
10
3.20926
20
-3.93781
11
3.21274
21
-3.94129
0
LINE
8
BLACK
6
CONTINUOUS
10
3.21274
20
-3.94129
11
3.21498
21
-3.94568
0
LINE
8
BLACK
6
CONTINUOUS
10
3.21498
20
-3.94568
11
3.21575
21
-3.95055
0
LINE
8
BLACK
6
CONTINUOUS
10
3.21575
20
-3.95055
11
3.21498
21
-3.95542
0
LINE
8
BLACK
6
CONTINUOUS
10
3.21498
20
-3.95542
11
3.21274
21
-3.95981
0
LINE
8
BLACK
6
CONTINUOUS
10
3.21274
20
-3.95981
11
3.20926
21
-3.96329
0
LINE
8
BLACK
6
CONTINUOUS
10
3.20926
20
-3.96329
11
3.20487
21
-3.96553
0
LINE
8
BLACK
6
CONTINUOUS
10
3.20487
20
-3.96553
11
3.2
21
-3.9663
0
LINE
8
BLACK
6
CONTINUOUS
10
3.2
20
-3.9663
11
3.19513
21
-3.96553
0
LINE
8
BLACK
6
CONTINUOUS
10
3.19513
20
-3.96553
11
3.19074
21
-3.96329
0
LINE
8
BLACK
6
CONTINUOUS
10
3.19074
20
-3.96329
11
3.18726
21
-3.95981
0
LINE
8
BLACK
6
CONTINUOUS
10
3.18726
20
-3.95981
11
3.18502
21
-3.95542
0
LINE
8
BLACK
6
CONTINUOUS
10
3.18502
20
-3.95542
11
3.18464
21
-3.95301
0
LINE
8
BLACK
6
CONTINUOUS
10
3.18464
20
-3.95301
11
2.81055
21
-3.95301
0
LINE
8
BLACK
6
CONTINUOUS
10
2.81055
20
-3.95301
11
2.80881
21
-3.95229
0
LINE
8
BLACK
6
CONTINUOUS
10
2.80881
20
-3.95229
11
2.54718
21
-3.69065
0
LINE
8
BLACK
6
CONTINUOUS
10
2.54718
20
-3.69065
11
2.54646
21
-3.68891
0
LINE
8
BLACK
6
CONTINUOUS
10
2.54646
20
-3.68891
11
2.54646
21
-3.66731
0
LINE
8
BLACK
6
CONTINUOUS
10
2.54646
20
-3.66731
11
2.54718
21
-3.66557
0
LINE
8
BLACK
6
CONTINUOUS
10
2.54718
20
-3.66557
11
2.54718
21
-3.66557
0
LINE
8
BLACK
6
CONTINUOUS
10
2.54718
20
-3.66557
11
2.66393
21
-3.54881
0
LINE
8
BLACK
6
CONTINUOUS
10
2.66393
20
-3.54881
11
2.66567
21
-3.54809
0
LINE
8
BLACK
6
CONTINUOUS
10
2.66567
20
-3.54809
11
2.85
21
-3.54809
0
LINE
8
BLACK
6
CONTINUOUS
10
3.39443
20
-3.42557
11
3.39882
21
-3.42781
0
LINE
8
BLACK
6
CONTINUOUS
10
3.39882
20
-3.42781
11
3.40231
21
-3.43129
0
LINE
8
BLACK
6
CONTINUOUS
10
3.40231
20
-3.43129
11
3.40454
21
-3.43568
0
LINE
8
BLACK
6
CONTINUOUS
10
3.40454
20
-3.43568
11
3.40531
21
-3.44055
0
LINE
8
BLACK
6
CONTINUOUS
10
3.40531
20
-3.44055
11
3.40454
21
-3.44542
0
LINE
8
BLACK
6
CONTINUOUS
10
3.40454
20
-3.44542
11
3.40231
21
-3.44981
0
LINE
8
BLACK
6
CONTINUOUS
10
3.40231
20
-3.44981
11
3.39882
21
-3.45329
0
LINE
8
BLACK
6
CONTINUOUS
10
3.39882
20
-3.45329
11
3.39443
21
-3.45553
0
LINE
8
BLACK
6
CONTINUOUS
10
3.39443
20
-3.45553
11
3.38957
21
-3.4563
0
LINE
8
BLACK
6
CONTINUOUS
10
3.38957
20
-3.4563
11
3.3847
21
-3.45553
0
LINE
8
BLACK
6
CONTINUOUS
10
3.3847
20
-3.45553
11
3.38031
21
-3.45329
0
LINE
8
BLACK
6
CONTINUOUS
10
3.38031
20
-3.45329
11
3.38031
21
-3.45329
0
LINE
8
BLACK
6
CONTINUOUS
10
3.38031
20
-3.45329
11
3.15375
21
-3.67985
0
LINE
8
BLACK
6
CONTINUOUS
10
3.15375
20
-3.67985
11
3.15201
21
-3.68057
0
LINE
8
BLACK
6
CONTINUOUS
10
3.15201
20
-3.68057
11
2.59036
21
-3.68057
0
LINE
8
BLACK
6
CONTINUOUS
10
2.59036
20
-3.68057
11
2.58998
21
-3.68298
0
LINE
8
BLACK
6
CONTINUOUS
10
2.58998
20
-3.68298
11
2.58774
21
-3.68737
0
LINE
8
BLACK
6
CONTINUOUS
10
2.58774
20
-3.68737
11
2.58426
21
-3.69085
0
LINE
8
BLACK
6
CONTINUOUS
10
2.58426
20
-3.69085
11
2.57987
21
-3.69309
0
LINE
8
BLACK
6
CONTINUOUS
10
2.57987
20
-3.69309
11
2.575
21
-3.69386
0
LINE
8
BLACK
6
CONTINUOUS
10
2.575
20
-3.69386
11
2.57013
21
-3.69309
0
LINE
8
BLACK
6
CONTINUOUS
10
2.57013
20
-3.69309
11
2.56574
21
-3.69085
0
LINE
8
BLACK
6
CONTINUOUS
10
2.56574
20
-3.69085
11
2.56226
21
-3.68737
0
LINE
8
BLACK
6
CONTINUOUS
10
2.56226
20
-3.68737
11
2.56002
21
-3.68298
0
LINE
8
BLACK
6
CONTINUOUS
10
2.56002
20
-3.68298
11
2.55925
21
-3.67811
0
LINE
8
BLACK
6
CONTINUOUS
10
2.55925
20
-3.67811
11
2.56002
21
-3.67324
0
LINE
8
BLACK
6
CONTINUOUS
10
2.56002
20
-3.67324
11
2.56226
21
-3.66885
0
LINE
8
BLACK
6
CONTINUOUS
10
2.56226
20
-3.66885
11
2.56574
21
-3.66537
0
LINE
8
BLACK
6
CONTINUOUS
10
2.56574
20
-3.66537
11
2.57013
21
-3.66313
0
LINE
8
BLACK
6
CONTINUOUS
10
2.57013
20
-3.66313
11
2.575
21
-3.66236
0
LINE
8
BLACK
6
CONTINUOUS
10
2.575
20
-3.66236
11
2.57987
21
-3.66313
0
LINE
8
BLACK
6
CONTINUOUS
10
2.57987
20
-3.66313
11
2.58426
21
-3.66537
0
LINE
8
BLACK
6
CONTINUOUS
10
2.58426
20
-3.66537
11
2.58774
21
-3.66885
0
LINE
8
BLACK
6
CONTINUOUS
10
2.58774
20
-3.66885
11
2.58998
21
-3.67324
0
LINE
8
BLACK
6
CONTINUOUS
10
2.58998
20
-3.67324
11
2.59036
21
-3.67565
0
LINE
8
BLACK
6
CONTINUOUS
10
2.59036
20
-3.67565
11
3.15099
21
-3.67565
0
LINE
8
BLACK
6
CONTINUOUS
10
3.15099
20
-3.67565
11
3.37683
21
-3.44981
0
LINE
8
BLACK
6
CONTINUOUS
10
3.37683
20
-3.44981
11
3.37683
21
-3.44981
0
LINE
8
BLACK
6
CONTINUOUS
10
3.37683
20
-3.44981
11
3.37459
21
-3.44542
0
LINE
8
BLACK
6
CONTINUOUS
10
3.37459
20
-3.44542
11
3.37382
21
-3.44055
0
LINE
8
BLACK
6
CONTINUOUS
10
3.37382
20
-3.44055
11
3.37459
21
-3.43568
0
LINE
8
BLACK
6
CONTINUOUS
10
3.37459
20
-3.43568
11
3.37683
21
-3.43129
0
LINE
8
BLACK
6
CONTINUOUS
10
3.37683
20
-3.43129
11
3.38031
21
-3.42781
0
LINE
8
BLACK
6
CONTINUOUS
10
3.38031
20
-3.42781
11
3.3847
21
-3.42557
0
LINE
8
BLACK
6
CONTINUOUS
10
3.3847
20
-3.42557
11
3.38957
21
-3.4248
0
LINE
8
BLACK
6
CONTINUOUS
10
3.38957
20
-3.4248
11
3.39443
21
-3.42557
0
LINE
8
BLACK
6
CONTINUOUS
10
3.21575
20
-3.46945
11
3.16017
21
-3.46945
0
LINE
8
BLACK
6
CONTINUOUS
10
3.16017
20
-3.46945
11
3.11394
21
-3.51568
0
LINE
8
BLACK
6
CONTINUOUS
10
3.11394
20
-3.51568
11
3.1122
21
-3.5164
0
LINE
8
BLACK
6
CONTINUOUS
10
3.1122
20
-3.5164
11
3.11024
21
-3.5164
0
LINE
8
BLACK
6
CONTINUOUS
10
3.11024
20
-3.5164
11
3.11024
21
-3.53657
0
LINE
8
BLACK
6
CONTINUOUS
10
3.11024
20
-3.53657
11
3.08268
21
-3.53657
0
LINE
8
BLACK
6
CONTINUOUS
10
3.08268
20
-3.53657
11
3.08268
21
-3.49694
0
LINE
8
BLACK
6
CONTINUOUS
10
3.08268
20
-3.49694
11
3.07756
21
-3.49183
0
LINE
8
BLACK
6
CONTINUOUS
10
3.07756
20
-3.49183
11
3.07756
21
-3.50055
0
LINE
8
BLACK
6
CONTINUOUS
10
3.07756
20
-3.50055
11
3.0626
21
-3.50055
0
LINE
8
BLACK
6
CONTINUOUS
10
3.0626
20
-3.50055
11
3.0626
21
-3.46118
0
LINE
8
BLACK
6
CONTINUOUS
10
3.0626
20
-3.46118
11
3.07756
21
-3.46118
0
LINE
8
BLACK
6
CONTINUOUS
10
3.07756
20
-3.46118
11
3.07756
21
-3.48487
0
LINE
8
BLACK
6
CONTINUOUS
10
3.07756
20
-3.48487
11
3.08399
21
-3.4913
0
LINE
8
BLACK
6
CONTINUOUS
10
3.08399
20
-3.4913
11
3.11024
21
-3.4913
0
LINE
8
BLACK
6
CONTINUOUS
10
3.11024
20
-3.4913
11
3.11024
21
-3.51148
0
LINE
8
BLACK
6
CONTINUOUS
10
3.11024
20
-3.51148
11
3.11119
21
-3.51148
0
LINE
8
BLACK
6
CONTINUOUS
10
3.11119
20
-3.51148
11
3.15669
21
-3.46597
0
LINE
8
BLACK
6
CONTINUOUS
10
3.15669
20
-3.46597
11
3.15669
21
-3.41039
0
LINE
8
BLACK
6
CONTINUOUS
10
3.15669
20
-3.41039
11
3.21575
21
-3.41039
0
LINE
8
BLACK
6
CONTINUOUS
10
3.21575
20
-3.41039
11
3.21575
21
-3.46945
0
LINE
8
BLACK
6
CONTINUOUS
10
2.76693
20
-3.46265
11
2.78363
21
-3.47935
0
LINE
8
BLACK
6
CONTINUOUS
10
2.78363
20
-3.47935
11
2.84606
21
-3.47935
0
LINE
8
BLACK
6
CONTINUOUS
10
2.84606
20
-3.47935
11
2.84606
21
-3.46118
0
LINE
8
BLACK
6
CONTINUOUS
10
2.84606
20
-3.46118
11
2.86102
21
-3.46118
0
LINE
8
BLACK
6
CONTINUOUS
10
2.86102
20
-3.46118
11
2.86102
21
-3.50055
0
LINE
8
BLACK
6
CONTINUOUS
10
2.86102
20
-3.50055
11
2.84606
21
-3.50055
0
LINE
8
BLACK
6
CONTINUOUS
10
2.84606
20
-3.50055
11
2.84606
21
-3.48427
0
LINE
8
BLACK
6
CONTINUOUS
10
2.84606
20
-3.48427
11
2.78261
21
-3.48427
0
LINE
8
BLACK
6
CONTINUOUS
10
2.78261
20
-3.48427
11
2.78087
21
-3.48355
0
LINE
8
BLACK
6
CONTINUOUS
10
2.78087
20
-3.48355
11
2.78087
21
-3.48355
0
LINE
8
BLACK
6
CONTINUOUS
10
2.78087
20
-3.48355
11
2.76677
21
-3.46945
0
LINE
8
BLACK
6
CONTINUOUS
10
2.76677
20
-3.46945
11
2.70787
21
-3.46945
0
LINE
8
BLACK
6
CONTINUOUS
10
2.70787
20
-3.46945
11
2.70787
21
-3.41039
0
LINE
8
BLACK
6
CONTINUOUS
10
2.70787
20
-3.41039
11
2.76693
21
-3.41039
0
LINE
8
BLACK
6
CONTINUOUS
10
2.76693
20
-3.41039
11
2.76693
21
-3.46265
0
LINE
8
BLACK
6
CONTINUOUS
10
2.88071
20
-3.50055
11
2.86575
21
-3.50055
0
LINE
8
BLACK
6
CONTINUOUS
10
2.86575
20
-3.50055
11
2.86575
21
-3.46118
0
LINE
8
BLACK
6
CONTINUOUS
10
2.86575
20
-3.46118
11
2.88071
21
-3.46118
0
LINE
8
BLACK
6
CONTINUOUS
10
2.88071
20
-3.46118
11
2.88071
21
-3.50055
0
LINE
8
BLACK
6
CONTINUOUS
10
2.90039
20
-3.50055
11
2.88543
21
-3.50055
0
LINE
8
BLACK
6
CONTINUOUS
10
2.88543
20
-3.50055
11
2.88543
21
-3.46118
0
LINE
8
BLACK
6
CONTINUOUS
10
2.88543
20
-3.46118
11
2.90039
21
-3.46118
0
LINE
8
BLACK
6
CONTINUOUS
10
2.90039
20
-3.46118
11
2.90039
21
-3.50055
0
LINE
8
BLACK
6
CONTINUOUS
10
2.93976
20
-3.50055
11
2.9248
21
-3.50055
0
LINE
8
BLACK
6
CONTINUOUS
10
2.9248
20
-3.50055
11
2.9248
21
-3.46118
0
LINE
8
BLACK
6
CONTINUOUS
10
2.9248
20
-3.46118
11
2.93976
21
-3.46118
0
LINE
8
BLACK
6
CONTINUOUS
10
2.93976
20
-3.46118
11
2.93976
21
-3.50055
0
LINE
8
BLACK
6
CONTINUOUS
10
2.99882
20
-3.50055
11
2.98386
21
-3.50055
0
LINE
8
BLACK
6
CONTINUOUS
10
2.98386
20
-3.50055
11
2.98386
21
-3.46118
0
LINE
8
BLACK
6
CONTINUOUS
10
2.98386
20
-3.46118
11
2.99882
21
-3.46118
0
LINE
8
BLACK
6
CONTINUOUS
10
2.99882
20
-3.46118
11
2.99882
21
-3.50055
0
LINE
8
BLACK
6
CONTINUOUS
10
3.03819
20
-3.50055
11
3.02323
21
-3.50055
0
LINE
8
BLACK
6
CONTINUOUS
10
3.02323
20
-3.50055
11
3.02323
21
-3.46118
0
LINE
8
BLACK
6
CONTINUOUS
10
3.02323
20
-3.46118
11
3.03819
21
-3.46118
0
LINE
8
BLACK
6
CONTINUOUS
10
3.03819
20
-3.46118
11
3.03819
21
-3.50055
0
LINE
8
BLACK
6
CONTINUOUS
10
3.05787
20
-3.50055
11
3.04291
21
-3.50055
0
LINE
8
BLACK
6
CONTINUOUS
10
3.04291
20
-3.50055
11
3.04291
21
-3.46118
0
LINE
8
BLACK
6
CONTINUOUS
10
3.04291
20
-3.46118
11
3.05787
21
-3.46118
0
LINE
8
BLACK
6
CONTINUOUS
10
3.05787
20
-3.46118
11
3.05787
21
-3.50055
0
CIRCLE
8
BLACK
10
3.18622
20
-3.43992
40
0.00787402
0
CIRCLE
8
BLACK
10
2.7374
20
-3.43992
40
0.00787402
0
CIRCLE
8
BLACK
10
2.575
20
-3.67811
40
0.00787402
0
CIRCLE
8
BLACK
10
3.38957
20
-3.44055
40
0.00787402
0
CIRCLE
8
BLACK
10
3.04892
20
-3.54691
40
0.00787402
0
CIRCLE
8
BLACK
10
3.3
20
-3.44055
40
0.00787402
0
CIRCLE
8
BLACK
10
2.9
20
-3.60055
40
0.00787402
0
CIRCLE
8
BLACK
10
3.2
20
-3.95055
40
0.00787402
0
CIRCLE
8
BLACK
10
3.2
20
-3.99703
40
0.00787402
0
CIRCLE
8
BLACK
10
2.95
20
-3.60055
40
0.00787402
0
CIRCLE
8
BLACK
10
2.83465
20
-4.37008
40
0.00787402
0
CIRCLE
8
BLACK
10
3.04331
20
-4.08161
40
0.00787402
  0
ENDSEC
  0
EOF
