  0
SECTION
  2
HEADER
  9
$ANGBASE
  50
0.0
  9
$ANGDIR
  70
1
  9
$MEASUREMENT
  70
0
  0
ENDSEC
  0
SECTION
  2
TABLES
  0
TABLE
  2
LTYPE
  70
4
  0
LTYPE
  5
40F
  2
CONTINUOUS
  70
0
  3
Solid line
  72
65
  73
0
  40
0.0
  0
LTYPE
  5
410
  2
DASHDOT
 70
0
  3
Dash Dot ____ _ ____ _
 72
65
 73
4
 40
2.0
 49
1.25
 49
-0.25
 49
0.25
 49
-0.25
  0
LTYPE
  5
411
  2
DASHED
 70
0
  3
Dashed __ __ __ __ __
 72
65
 73
2
 40
0.75
 49
0.5
 49
-0.25
  0
LTYPE
  5
43B
  2
DOTTED
 70
0
  3
Dotted .  .  .  .
 72
65
 73
2
 40
0.2
 49
0.0
 49
-0.2
  0
ENDTAB
  0
TABLE
  2
STYLE
  70
4
  0
STYLE
  2
KICAD
  70
0
  40
0
  41
1
  42
1
  50
0
  71
0
  3
isocp.shx
  0
STYLE
  2
KICADB
  70
0
  40
0
  41
1
  42
1
  50
0
  71
0
  3
isocp.shx
  0
STYLE
  2
KICADI
  70
0
  40
0
  41
1
  42
1
  50
15
  71
0
  3
isocp.shx
  0
STYLE
  2
KICADBI
  70
0
  40
0
  41
1
  42
1
  50
15
  71
0
  3
isocp.shx
  0
ENDTAB
  0
TABLE
  2
LAYER
  70
1
  0
LAYER
  2
BLACK
  70
0
  62
7
  6
CONTINUOUS
  0
ENDTAB
  0
ENDSEC
  0
SECTION
  2
ENTITIES
0
LINE
8
BLACK
6
CONTINUOUS
10
2.72881
20
-4.51075
11
2.73185
21
-4.51278
0
LINE
8
BLACK
6
CONTINUOUS
10
2.73185
20
-4.51278
11
2.73387
21
-4.51581
0
LINE
8
BLACK
6
CONTINUOUS
10
2.73387
20
-4.51581
11
2.73459
21
-4.51939
0
LINE
8
BLACK
6
CONTINUOUS
10
2.73459
20
-4.51939
11
2.73459
21
-4.53809
0
LINE
8
BLACK
6
CONTINUOUS
10
2.73459
20
-4.53809
11
2.73387
21
-4.54167
0
LINE
8
BLACK
6
CONTINUOUS
10
2.73387
20
-4.54167
11
2.73185
21
-4.5447
0
LINE
8
BLACK
6
CONTINUOUS
10
2.73185
20
-4.5447
11
2.72881
21
-4.54673
0
LINE
8
BLACK
6
CONTINUOUS
10
2.72881
20
-4.54673
11
2.72524
21
-4.54744
0
LINE
8
BLACK
6
CONTINUOUS
10
2.72524
20
-4.54744
11
2.70555
21
-4.54744
0
LINE
8
BLACK
6
CONTINUOUS
10
2.70555
20
-4.54744
11
2.70197
21
-4.54673
0
LINE
8
BLACK
6
CONTINUOUS
10
2.70197
20
-4.54673
11
2.69894
21
-4.5447
0
LINE
8
BLACK
6
CONTINUOUS
10
2.69894
20
-4.5447
11
2.69691
21
-4.54167
0
LINE
8
BLACK
6
CONTINUOUS
10
2.69691
20
-4.54167
11
2.6962
21
-4.53809
0
LINE
8
BLACK
6
CONTINUOUS
10
2.6962
20
-4.53809
11
2.6962
21
-4.51939
0
LINE
8
BLACK
6
CONTINUOUS
10
2.6962
20
-4.51939
11
2.69691
21
-4.51581
0
LINE
8
BLACK
6
CONTINUOUS
10
2.69691
20
-4.51581
11
2.69894
21
-4.51278
0
LINE
8
BLACK
6
CONTINUOUS
10
2.69894
20
-4.51278
11
2.70197
21
-4.51075
0
LINE
8
BLACK
6
CONTINUOUS
10
2.70197
20
-4.51075
11
2.70555
21
-4.51004
0
LINE
8
BLACK
6
CONTINUOUS
10
2.70555
20
-4.51004
11
2.72524
21
-4.51004
0
LINE
8
BLACK
6
CONTINUOUS
10
2.72524
20
-4.51004
11
2.72881
21
-4.51075
0
LINE
8
BLACK
6
CONTINUOUS
10
2.80066
20
-4.51075
11
2.8037
21
-4.51278
0
LINE
8
BLACK
6
CONTINUOUS
10
2.8037
20
-4.51278
11
2.80573
21
-4.51581
0
LINE
8
BLACK
6
CONTINUOUS
10
2.80573
20
-4.51581
11
2.80644
21
-4.51939
0
LINE
8
BLACK
6
CONTINUOUS
10
2.80644
20
-4.51939
11
2.80644
21
-4.53809
0
LINE
8
BLACK
6
CONTINUOUS
10
2.80644
20
-4.53809
11
2.80573
21
-4.54167
0
LINE
8
BLACK
6
CONTINUOUS
10
2.80573
20
-4.54167
11
2.8037
21
-4.5447
0
LINE
8
BLACK
6
CONTINUOUS
10
2.8037
20
-4.5447
11
2.80066
21
-4.54673
0
LINE
8
BLACK
6
CONTINUOUS
10
2.80066
20
-4.54673
11
2.79709
21
-4.54744
0
LINE
8
BLACK
6
CONTINUOUS
10
2.79709
20
-4.54744
11
2.7774
21
-4.54744
0
LINE
8
BLACK
6
CONTINUOUS
10
2.7774
20
-4.54744
11
2.77382
21
-4.54673
0
LINE
8
BLACK
6
CONTINUOUS
10
2.77382
20
-4.54673
11
2.77079
21
-4.5447
0
LINE
8
BLACK
6
CONTINUOUS
10
2.77079
20
-4.5447
11
2.76876
21
-4.54167
0
LINE
8
BLACK
6
CONTINUOUS
10
2.76876
20
-4.54167
11
2.76805
21
-4.53809
0
LINE
8
BLACK
6
CONTINUOUS
10
2.76805
20
-4.53809
11
2.76805
21
-4.51939
0
LINE
8
BLACK
6
CONTINUOUS
10
2.76805
20
-4.51939
11
2.76876
21
-4.51581
0
LINE
8
BLACK
6
CONTINUOUS
10
2.76876
20
-4.51581
11
2.77079
21
-4.51278
0
LINE
8
BLACK
6
CONTINUOUS
10
2.77079
20
-4.51278
11
2.77382
21
-4.51075
0
LINE
8
BLACK
6
CONTINUOUS
10
2.77382
20
-4.51075
11
2.7774
21
-4.51004
0
LINE
8
BLACK
6
CONTINUOUS
10
2.7774
20
-4.51004
11
2.79709
21
-4.51004
0
LINE
8
BLACK
6
CONTINUOUS
10
2.79709
20
-4.51004
11
2.80066
21
-4.51075
0
LINE
8
BLACK
6
CONTINUOUS
10
2.80102
20
-4.4802
11
2.77346
21
-4.4802
0
LINE
8
BLACK
6
CONTINUOUS
10
2.77346
20
-4.4802
11
2.77346
21
-4.46248
0
LINE
8
BLACK
6
CONTINUOUS
10
2.77346
20
-4.46248
11
2.80102
21
-4.46248
0
LINE
8
BLACK
6
CONTINUOUS
10
2.80102
20
-4.46248
11
2.80102
21
-4.4802
0
LINE
8
BLACK
6
CONTINUOUS
10
2.72228
20
-4.45461
11
2.69472
21
-4.45461
0
LINE
8
BLACK
6
CONTINUOUS
10
2.69472
20
-4.45461
11
2.69472
21
-4.43689
0
LINE
8
BLACK
6
CONTINUOUS
10
2.69472
20
-4.43689
11
2.72228
21
-4.43689
0
LINE
8
BLACK
6
CONTINUOUS
10
2.72228
20
-4.43689
11
2.72228
21
-4.45461
0
LINE
8
BLACK
6
CONTINUOUS
10
2.80102
20
-4.42902
11
2.77346
21
-4.42902
0
LINE
8
BLACK
6
CONTINUOUS
10
2.77346
20
-4.42902
11
2.77346
21
-4.4113
0
LINE
8
BLACK
6
CONTINUOUS
10
2.77346
20
-4.4113
11
2.80102
21
-4.4113
0
LINE
8
BLACK
6
CONTINUOUS
10
2.80102
20
-4.4113
11
2.80102
21
-4.42902
0
LINE
8
BLACK
6
CONTINUOUS
10
2.80165
20
-4.36579
11
2.77409
21
-4.36579
0
LINE
8
BLACK
6
CONTINUOUS
10
2.77409
20
-4.36579
11
2.77409
21
-4.34807
0
LINE
8
BLACK
6
CONTINUOUS
10
2.77409
20
-4.34807
11
2.80165
21
-4.34807
0
LINE
8
BLACK
6
CONTINUOUS
10
2.80165
20
-4.34807
11
2.80165
21
-4.36579
0
LINE
8
BLACK
6
CONTINUOUS
10
2.72291
20
-4.3402
11
2.69535
21
-4.3402
0
LINE
8
BLACK
6
CONTINUOUS
10
2.69535
20
-4.3402
11
2.69535
21
-4.32248
0
LINE
8
BLACK
6
CONTINUOUS
10
2.69535
20
-4.32248
11
2.72291
21
-4.32248
0
LINE
8
BLACK
6
CONTINUOUS
10
2.72291
20
-4.32248
11
2.72291
21
-4.3402
0
LINE
8
BLACK
6
CONTINUOUS
10
2.80165
20
-4.31461
11
2.77409
21
-4.31461
0
LINE
8
BLACK
6
CONTINUOUS
10
2.77409
20
-4.31461
11
2.77409
21
-4.29689
0
LINE
8
BLACK
6
CONTINUOUS
10
2.77409
20
-4.29689
11
2.80165
21
-4.29689
0
LINE
8
BLACK
6
CONTINUOUS
10
2.80165
20
-4.29689
11
2.80165
21
-4.31461
0
LINE
8
BLACK
6
CONTINUOUS
10
2.72474
20
-4.2313
11
2.72777
21
-4.23333
0
LINE
8
BLACK
6
CONTINUOUS
10
2.72777
20
-4.23333
11
2.7298
21
-4.23636
0
LINE
8
BLACK
6
CONTINUOUS
10
2.7298
20
-4.23636
11
2.73051
21
-4.23994
0
LINE
8
BLACK
6
CONTINUOUS
10
2.73051
20
-4.23994
11
2.73051
21
-4.25864
0
LINE
8
BLACK
6
CONTINUOUS
10
2.73051
20
-4.25864
11
2.7298
21
-4.26222
0
LINE
8
BLACK
6
CONTINUOUS
10
2.7298
20
-4.26222
11
2.72777
21
-4.26525
0
LINE
8
BLACK
6
CONTINUOUS
10
2.72777
20
-4.26525
11
2.72474
21
-4.26728
0
LINE
8
BLACK
6
CONTINUOUS
10
2.72474
20
-4.26728
11
2.72116
21
-4.26799
0
LINE
8
BLACK
6
CONTINUOUS
10
2.72116
20
-4.26799
11
2.70148
21
-4.26799
0
LINE
8
BLACK
6
CONTINUOUS
10
2.70148
20
-4.26799
11
2.6979
21
-4.26728
0
LINE
8
BLACK
6
CONTINUOUS
10
2.6979
20
-4.26728
11
2.69486
21
-4.26525
0
LINE
8
BLACK
6
CONTINUOUS
10
2.69486
20
-4.26525
11
2.69284
21
-4.26222
0
LINE
8
BLACK
6
CONTINUOUS
10
2.69284
20
-4.26222
11
2.69213
21
-4.25864
0
LINE
8
BLACK
6
CONTINUOUS
10
2.69213
20
-4.25864
11
2.69213
21
-4.23994
0
LINE
8
BLACK
6
CONTINUOUS
10
2.69213
20
-4.23994
11
2.69284
21
-4.23636
0
LINE
8
BLACK
6
CONTINUOUS
10
2.69284
20
-4.23636
11
2.69486
21
-4.23333
0
LINE
8
BLACK
6
CONTINUOUS
10
2.69486
20
-4.23333
11
2.6979
21
-4.2313
0
LINE
8
BLACK
6
CONTINUOUS
10
2.6979
20
-4.2313
11
2.70148
21
-4.23059
0
LINE
8
BLACK
6
CONTINUOUS
10
2.70148
20
-4.23059
11
2.72116
21
-4.23059
0
LINE
8
BLACK
6
CONTINUOUS
10
2.72116
20
-4.23059
11
2.72474
21
-4.2313
0
LINE
8
BLACK
6
CONTINUOUS
10
2.79659
20
-4.2313
11
2.79962
21
-4.23333
0
LINE
8
BLACK
6
CONTINUOUS
10
2.79962
20
-4.23333
11
2.80165
21
-4.23636
0
LINE
8
BLACK
6
CONTINUOUS
10
2.80165
20
-4.23636
11
2.80236
21
-4.23994
0
LINE
8
BLACK
6
CONTINUOUS
10
2.80236
20
-4.23994
11
2.80236
21
-4.25864
0
LINE
8
BLACK
6
CONTINUOUS
10
2.80236
20
-4.25864
11
2.80165
21
-4.26222
0
LINE
8
BLACK
6
CONTINUOUS
10
2.80165
20
-4.26222
11
2.79962
21
-4.26525
0
LINE
8
BLACK
6
CONTINUOUS
10
2.79962
20
-4.26525
11
2.79659
21
-4.26728
0
LINE
8
BLACK
6
CONTINUOUS
10
2.79659
20
-4.26728
11
2.79301
21
-4.26799
0
LINE
8
BLACK
6
CONTINUOUS
10
2.79301
20
-4.26799
11
2.77333
21
-4.26799
0
LINE
8
BLACK
6
CONTINUOUS
10
2.77333
20
-4.26799
11
2.76975
21
-4.26728
0
LINE
8
BLACK
6
CONTINUOUS
10
2.76975
20
-4.26728
11
2.76672
21
-4.26525
0
LINE
8
BLACK
6
CONTINUOUS
10
2.76672
20
-4.26525
11
2.76469
21
-4.26222
0
LINE
8
BLACK
6
CONTINUOUS
10
2.76469
20
-4.26222
11
2.76398
21
-4.25864
0
LINE
8
BLACK
6
CONTINUOUS
10
2.76398
20
-4.25864
11
2.76398
21
-4.23994
0
LINE
8
BLACK
6
CONTINUOUS
10
2.76398
20
-4.23994
11
2.76469
21
-4.23636
0
LINE
8
BLACK
6
CONTINUOUS
10
2.76469
20
-4.23636
11
2.76672
21
-4.23333
0
LINE
8
BLACK
6
CONTINUOUS
10
2.76672
20
-4.23333
11
2.76975
21
-4.2313
0
LINE
8
BLACK
6
CONTINUOUS
10
2.76975
20
-4.2313
11
2.77333
21
-4.23059
0
LINE
8
BLACK
6
CONTINUOUS
10
2.77333
20
-4.23059
11
2.79301
21
-4.23059
0
LINE
8
BLACK
6
CONTINUOUS
10
2.79301
20
-4.23059
11
2.79659
21
-4.2313
0
LINE
8
BLACK
6
CONTINUOUS
10
2.79252
20
-4.05213
11
2.76496
21
-4.05213
0
LINE
8
BLACK
6
CONTINUOUS
10
2.76496
20
-4.05213
11
2.76496
21
-4.02457
0
LINE
8
BLACK
6
CONTINUOUS
10
2.76496
20
-4.02457
11
2.79252
21
-4.02457
0
LINE
8
BLACK
6
CONTINUOUS
10
2.79252
20
-4.02457
11
2.79252
21
-4.05213
0
LINE
8
BLACK
6
CONTINUOUS
10
2.83189
20
-4.05213
11
2.81614
21
-4.05213
0
LINE
8
BLACK
6
CONTINUOUS
10
2.81614
20
-4.05213
11
2.81614
21
-4.02063
0
LINE
8
BLACK
6
CONTINUOUS
10
2.81614
20
-4.02063
11
2.83189
21
-4.02063
0
LINE
8
BLACK
6
CONTINUOUS
10
2.83189
20
-4.02063
11
2.83189
21
-4.05213
0
LINE
8
BLACK
6
CONTINUOUS
10
2.86339
20
-4.05213
11
2.84764
21
-4.05213
0
LINE
8
BLACK
6
CONTINUOUS
10
2.84764
20
-4.05213
11
2.84764
21
-4.02063
0
LINE
8
BLACK
6
CONTINUOUS
10
2.84764
20
-4.02063
11
2.86339
21
-4.02063
0
LINE
8
BLACK
6
CONTINUOUS
10
2.86339
20
-4.02063
11
2.86339
21
-4.05213
0
LINE
8
BLACK
6
CONTINUOUS
10
2.89488
20
-4.05213
11
2.87913
21
-4.05213
0
LINE
8
BLACK
6
CONTINUOUS
10
2.87913
20
-4.05213
11
2.87913
21
-4.02063
0
LINE
8
BLACK
6
CONTINUOUS
10
2.87913
20
-4.02063
11
2.89488
21
-4.02063
0
LINE
8
BLACK
6
CONTINUOUS
10
2.89488
20
-4.02063
11
2.89488
21
-4.05213
0
LINE
8
BLACK
6
CONTINUOUS
10
2.92638
20
-4.05213
11
2.91063
21
-4.05213
0
LINE
8
BLACK
6
CONTINUOUS
10
2.91063
20
-4.05213
11
2.91063
21
-4.02063
0
LINE
8
BLACK
6
CONTINUOUS
10
2.91063
20
-4.02063
11
2.92638
21
-4.02063
0
LINE
8
BLACK
6
CONTINUOUS
10
2.92638
20
-4.02063
11
2.92638
21
-4.05213
0
LINE
8
BLACK
6
CONTINUOUS
10
2.95787
20
-4.05213
11
2.94213
21
-4.05213
0
LINE
8
BLACK
6
CONTINUOUS
10
2.94213
20
-4.05213
11
2.94213
21
-4.02063
0
LINE
8
BLACK
6
CONTINUOUS
10
2.94213
20
-4.02063
11
2.95787
21
-4.02063
0
LINE
8
BLACK
6
CONTINUOUS
10
2.95787
20
-4.02063
11
2.95787
21
-4.05213
0
LINE
8
BLACK
6
CONTINUOUS
10
2.98937
20
-4.05213
11
2.97362
21
-4.05213
0
LINE
8
BLACK
6
CONTINUOUS
10
2.97362
20
-4.05213
11
2.97362
21
-4.02063
0
LINE
8
BLACK
6
CONTINUOUS
10
2.97362
20
-4.02063
11
2.98937
21
-4.02063
0
LINE
8
BLACK
6
CONTINUOUS
10
2.98937
20
-4.02063
11
2.98937
21
-4.05213
0
LINE
8
BLACK
6
CONTINUOUS
10
3.02087
20
-4.05213
11
3.00512
21
-4.05213
0
LINE
8
BLACK
6
CONTINUOUS
10
3.00512
20
-4.05213
11
3.00512
21
-4.02063
0
LINE
8
BLACK
6
CONTINUOUS
10
3.00512
20
-4.02063
11
3.02087
21
-4.02063
0
LINE
8
BLACK
6
CONTINUOUS
10
3.02087
20
-4.02063
11
3.02087
21
-4.05213
0
LINE
8
BLACK
6
CONTINUOUS
10
3.05236
20
-4.05213
11
3.03661
21
-4.05213
0
LINE
8
BLACK
6
CONTINUOUS
10
3.03661
20
-4.05213
11
3.03661
21
-4.02063
0
LINE
8
BLACK
6
CONTINUOUS
10
3.03661
20
-4.02063
11
3.05236
21
-4.02063
0
LINE
8
BLACK
6
CONTINUOUS
10
3.05236
20
-4.02063
11
3.05236
21
-4.05213
0
LINE
8
BLACK
6
CONTINUOUS
10
3.08386
20
-4.05213
11
3.06811
21
-4.05213
0
LINE
8
BLACK
6
CONTINUOUS
10
3.06811
20
-4.05213
11
3.06811
21
-4.02063
0
LINE
8
BLACK
6
CONTINUOUS
10
3.06811
20
-4.02063
11
3.08386
21
-4.02063
0
LINE
8
BLACK
6
CONTINUOUS
10
3.08386
20
-4.02063
11
3.08386
21
-4.05213
0
LINE
8
BLACK
6
CONTINUOUS
10
3.11535
20
-4.05213
11
3.09961
21
-4.05213
0
LINE
8
BLACK
6
CONTINUOUS
10
3.09961
20
-4.05213
11
3.09961
21
-4.02063
0
LINE
8
BLACK
6
CONTINUOUS
10
3.09961
20
-4.02063
11
3.11535
21
-4.02063
0
LINE
8
BLACK
6
CONTINUOUS
10
3.11535
20
-4.02063
11
3.11535
21
-4.05213
0
LINE
8
BLACK
6
CONTINUOUS
10
3.14685
20
-4.05213
11
3.1311
21
-4.05213
0
LINE
8
BLACK
6
CONTINUOUS
10
3.1311
20
-4.05213
11
3.1311
21
-4.02063
0
LINE
8
BLACK
6
CONTINUOUS
10
3.1311
20
-4.02063
11
3.14685
21
-4.02063
0
LINE
8
BLACK
6
CONTINUOUS
10
3.14685
20
-4.02063
11
3.14685
21
-4.05213
0
LINE
8
BLACK
6
CONTINUOUS
10
3.17835
20
-4.05213
11
3.1626
21
-4.05213
0
LINE
8
BLACK
6
CONTINUOUS
10
3.1626
20
-4.05213
11
3.1626
21
-4.02063
0
LINE
8
BLACK
6
CONTINUOUS
10
3.1626
20
-4.02063
11
3.17835
21
-4.02063
0
LINE
8
BLACK
6
CONTINUOUS
10
3.17835
20
-4.02063
11
3.17835
21
-4.05213
0
LINE
8
BLACK
6
CONTINUOUS
10
3.20984
20
-4.05213
11
3.19409
21
-4.05213
0
LINE
8
BLACK
6
CONTINUOUS
10
3.19409
20
-4.05213
11
3.19409
21
-4.02063
0
LINE
8
BLACK
6
CONTINUOUS
10
3.19409
20
-4.02063
11
3.20984
21
-4.02063
0
LINE
8
BLACK
6
CONTINUOUS
10
3.20984
20
-4.02063
11
3.20984
21
-4.05213
0
LINE
8
BLACK
6
CONTINUOUS
10
3.26102
20
-4.05213
11
3.23346
21
-4.05213
0
LINE
8
BLACK
6
CONTINUOUS
10
3.23346
20
-4.05213
11
3.23346
21
-4.02457
0
LINE
8
BLACK
6
CONTINUOUS
10
3.23346
20
-4.02457
11
3.26102
21
-4.02457
0
LINE
8
BLACK
6
CONTINUOUS
10
3.26102
20
-4.02457
11
3.26102
21
-4.05213
0
LINE
8
BLACK
6
CONTINUOUS
10
2.79646
20
-4.00882
11
2.76496
21
-4.00882
0
LINE
8
BLACK
6
CONTINUOUS
10
2.76496
20
-4.00882
11
2.76496
21
-3.99307
0
LINE
8
BLACK
6
CONTINUOUS
10
2.76496
20
-3.99307
11
2.79646
21
-3.99307
0
LINE
8
BLACK
6
CONTINUOUS
10
2.79646
20
-3.99307
11
2.79646
21
-4.00882
0
LINE
8
BLACK
6
CONTINUOUS
10
3.26102
20
-4.00882
11
3.22953
21
-4.00882
0
LINE
8
BLACK
6
CONTINUOUS
10
3.22953
20
-4.00882
11
3.22953
21
-3.99307
0
LINE
8
BLACK
6
CONTINUOUS
10
3.22953
20
-3.99307
11
3.26102
21
-3.99307
0
LINE
8
BLACK
6
CONTINUOUS
10
3.26102
20
-3.99307
11
3.26102
21
-4.00882
0
LINE
8
BLACK
6
CONTINUOUS
10
2.79646
20
-3.97732
11
2.76496
21
-3.97732
0
LINE
8
BLACK
6
CONTINUOUS
10
2.76496
20
-3.97732
11
2.76496
21
-3.96157
0
LINE
8
BLACK
6
CONTINUOUS
10
2.76496
20
-3.96157
11
2.79646
21
-3.96157
0
LINE
8
BLACK
6
CONTINUOUS
10
2.79646
20
-3.96157
11
2.79646
21
-3.97732
0
LINE
8
BLACK
6
CONTINUOUS
10
3.26102
20
-3.97732
11
3.22953
21
-3.97732
0
LINE
8
BLACK
6
CONTINUOUS
10
3.22953
20
-3.97732
11
3.22953
21
-3.96157
0
LINE
8
BLACK
6
CONTINUOUS
10
3.22953
20
-3.96157
11
3.26102
21
-3.96157
0
LINE
8
BLACK
6
CONTINUOUS
10
3.26102
20
-3.96157
11
3.26102
21
-3.97732
0
LINE
8
BLACK
6
CONTINUOUS
10
2.96378
20
-3.94976
11
2.90669
21
-3.94976
0
LINE
8
BLACK
6
CONTINUOUS
10
2.90669
20
-3.94976
11
2.90669
21
-3.89268
0
LINE
8
BLACK
6
CONTINUOUS
10
2.90669
20
-3.89268
11
2.96378
21
-3.89268
0
LINE
8
BLACK
6
CONTINUOUS
10
2.96378
20
-3.89268
11
2.96378
21
-3.94976
0
LINE
8
BLACK
6
CONTINUOUS
10
3.04154
20
-3.94976
11
2.98445
21
-3.94976
0
LINE
8
BLACK
6
CONTINUOUS
10
2.98445
20
-3.94976
11
2.98445
21
-3.89268
0
LINE
8
BLACK
6
CONTINUOUS
10
2.98445
20
-3.89268
11
3.04154
21
-3.89268
0
LINE
8
BLACK
6
CONTINUOUS
10
3.04154
20
-3.89268
11
3.04154
21
-3.94976
0
LINE
8
BLACK
6
CONTINUOUS
10
3.11929
20
-3.94976
11
3.0622
21
-3.94976
0
LINE
8
BLACK
6
CONTINUOUS
10
3.0622
20
-3.94976
11
3.0622
21
-3.89268
0
LINE
8
BLACK
6
CONTINUOUS
10
3.0622
20
-3.89268
11
3.11929
21
-3.89268
0
LINE
8
BLACK
6
CONTINUOUS
10
3.11929
20
-3.89268
11
3.11929
21
-3.94976
0
LINE
8
BLACK
6
CONTINUOUS
10
2.79646
20
-3.94583
11
2.76496
21
-3.94583
0
LINE
8
BLACK
6
CONTINUOUS
10
2.76496
20
-3.94583
11
2.76496
21
-3.93008
0
LINE
8
BLACK
6
CONTINUOUS
10
2.76496
20
-3.93008
11
2.79646
21
-3.93008
0
LINE
8
BLACK
6
CONTINUOUS
10
2.79646
20
-3.93008
11
2.79646
21
-3.94583
0
LINE
8
BLACK
6
CONTINUOUS
10
3.26102
20
-3.94583
11
3.22953
21
-3.94583
0
LINE
8
BLACK
6
CONTINUOUS
10
3.22953
20
-3.94583
11
3.22953
21
-3.93008
0
LINE
8
BLACK
6
CONTINUOUS
10
3.22953
20
-3.93008
11
3.26102
21
-3.93008
0
LINE
8
BLACK
6
CONTINUOUS
10
3.26102
20
-3.93008
11
3.26102
21
-3.94583
0
LINE
8
BLACK
6
CONTINUOUS
10
2.79646
20
-3.91433
11
2.76496
21
-3.91433
0
LINE
8
BLACK
6
CONTINUOUS
10
2.76496
20
-3.91433
11
2.76496
21
-3.89858
0
LINE
8
BLACK
6
CONTINUOUS
10
2.76496
20
-3.89858
11
2.79646
21
-3.89858
0
LINE
8
BLACK
6
CONTINUOUS
10
2.79646
20
-3.89858
11
2.79646
21
-3.91433
0
LINE
8
BLACK
6
CONTINUOUS
10
3.26102
20
-3.91433
11
3.22953
21
-3.91433
0
LINE
8
BLACK
6
CONTINUOUS
10
3.22953
20
-3.91433
11
3.22953
21
-3.89858
0
LINE
8
BLACK
6
CONTINUOUS
10
3.22953
20
-3.89858
11
3.26102
21
-3.89858
0
LINE
8
BLACK
6
CONTINUOUS
10
3.26102
20
-3.89858
11
3.26102
21
-3.91433
0
LINE
8
BLACK
6
CONTINUOUS
10
2.53317
20
-3.83506
11
2.53508
21
-3.83634
0
LINE
8
BLACK
6
CONTINUOUS
10
2.53508
20
-3.83634
11
2.53636
21
-3.83825
0
LINE
8
BLACK
6
CONTINUOUS
10
2.53636
20
-3.83825
11
2.53681
21
-3.84051
0
LINE
8
BLACK
6
CONTINUOUS
10
2.53681
20
-3.84051
11
2.53681
21
-3.90547
0
LINE
8
BLACK
6
CONTINUOUS
10
2.53681
20
-3.90547
11
2.53636
21
-3.90773
0
LINE
8
BLACK
6
CONTINUOUS
10
2.53636
20
-3.90773
11
2.53508
21
-3.90965
0
LINE
8
BLACK
6
CONTINUOUS
10
2.53508
20
-3.90965
11
2.53317
21
-3.91093
0
LINE
8
BLACK
6
CONTINUOUS
10
2.53317
20
-3.91093
11
2.53091
21
-3.91138
0
LINE
8
BLACK
6
CONTINUOUS
10
2.53091
20
-3.91138
11
2.51909
21
-3.91138
0
LINE
8
BLACK
6
CONTINUOUS
10
2.51909
20
-3.91138
11
2.51683
21
-3.91093
0
LINE
8
BLACK
6
CONTINUOUS
10
2.51683
20
-3.91093
11
2.51492
21
-3.90965
0
LINE
8
BLACK
6
CONTINUOUS
10
2.51492
20
-3.90965
11
2.51364
21
-3.90773
0
LINE
8
BLACK
6
CONTINUOUS
10
2.51364
20
-3.90773
11
2.51319
21
-3.90547
0
LINE
8
BLACK
6
CONTINUOUS
10
2.51319
20
-3.90547
11
2.51319
21
-3.84051
0
LINE
8
BLACK
6
CONTINUOUS
10
2.51319
20
-3.84051
11
2.51364
21
-3.83825
0
LINE
8
BLACK
6
CONTINUOUS
10
2.51364
20
-3.83825
11
2.51492
21
-3.83634
0
LINE
8
BLACK
6
CONTINUOUS
10
2.51492
20
-3.83634
11
2.51683
21
-3.83506
0
LINE
8
BLACK
6
CONTINUOUS
10
2.51683
20
-3.83506
11
2.51909
21
-3.83461
0
LINE
8
BLACK
6
CONTINUOUS
10
2.51909
20
-3.83461
11
2.53091
21
-3.83461
0
LINE
8
BLACK
6
CONTINUOUS
10
2.53091
20
-3.83461
11
2.53317
21
-3.83506
0
LINE
8
BLACK
6
CONTINUOUS
10
2.58317
20
-3.83506
11
2.58508
21
-3.83634
0
LINE
8
BLACK
6
CONTINUOUS
10
2.58508
20
-3.83634
11
2.58636
21
-3.83825
0
LINE
8
BLACK
6
CONTINUOUS
10
2.58636
20
-3.83825
11
2.58681
21
-3.84051
0
LINE
8
BLACK
6
CONTINUOUS
10
2.58681
20
-3.84051
11
2.58681
21
-3.90547
0
LINE
8
BLACK
6
CONTINUOUS
10
2.58681
20
-3.90547
11
2.58636
21
-3.90773
0
LINE
8
BLACK
6
CONTINUOUS
10
2.58636
20
-3.90773
11
2.58508
21
-3.90965
0
LINE
8
BLACK
6
CONTINUOUS
10
2.58508
20
-3.90965
11
2.58317
21
-3.91093
0
LINE
8
BLACK
6
CONTINUOUS
10
2.58317
20
-3.91093
11
2.58091
21
-3.91138
0
LINE
8
BLACK
6
CONTINUOUS
10
2.58091
20
-3.91138
11
2.56909
21
-3.91138
0
LINE
8
BLACK
6
CONTINUOUS
10
2.56909
20
-3.91138
11
2.56683
21
-3.91093
0
LINE
8
BLACK
6
CONTINUOUS
10
2.56683
20
-3.91093
11
2.56492
21
-3.90965
0
LINE
8
BLACK
6
CONTINUOUS
10
2.56492
20
-3.90965
11
2.56364
21
-3.90773
0
LINE
8
BLACK
6
CONTINUOUS
10
2.56364
20
-3.90773
11
2.56319
21
-3.90547
0
LINE
8
BLACK
6
CONTINUOUS
10
2.56319
20
-3.90547
11
2.56319
21
-3.84051
0
LINE
8
BLACK
6
CONTINUOUS
10
2.56319
20
-3.84051
11
2.56364
21
-3.83825
0
LINE
8
BLACK
6
CONTINUOUS
10
2.56364
20
-3.83825
11
2.56492
21
-3.83634
0
LINE
8
BLACK
6
CONTINUOUS
10
2.56492
20
-3.83634
11
2.56683
21
-3.83506
0
LINE
8
BLACK
6
CONTINUOUS
10
2.56683
20
-3.83506
11
2.56909
21
-3.83461
0
LINE
8
BLACK
6
CONTINUOUS
10
2.56909
20
-3.83461
11
2.58091
21
-3.83461
0
LINE
8
BLACK
6
CONTINUOUS
10
2.58091
20
-3.83461
11
2.58317
21
-3.83506
0
LINE
8
BLACK
6
CONTINUOUS
10
2.63317
20
-3.83506
11
2.63508
21
-3.83634
0
LINE
8
BLACK
6
CONTINUOUS
10
2.63508
20
-3.83634
11
2.63636
21
-3.83825
0
LINE
8
BLACK
6
CONTINUOUS
10
2.63636
20
-3.83825
11
2.63681
21
-3.84051
0
LINE
8
BLACK
6
CONTINUOUS
10
2.63681
20
-3.84051
11
2.63681
21
-3.90547
0
LINE
8
BLACK
6
CONTINUOUS
10
2.63681
20
-3.90547
11
2.63636
21
-3.90773
0
LINE
8
BLACK
6
CONTINUOUS
10
2.63636
20
-3.90773
11
2.63508
21
-3.90965
0
LINE
8
BLACK
6
CONTINUOUS
10
2.63508
20
-3.90965
11
2.63317
21
-3.91093
0
LINE
8
BLACK
6
CONTINUOUS
10
2.63317
20
-3.91093
11
2.63091
21
-3.91138
0
LINE
8
BLACK
6
CONTINUOUS
10
2.63091
20
-3.91138
11
2.61909
21
-3.91138
0
LINE
8
BLACK
6
CONTINUOUS
10
2.61909
20
-3.91138
11
2.61683
21
-3.91093
0
LINE
8
BLACK
6
CONTINUOUS
10
2.61683
20
-3.91093
11
2.61492
21
-3.90965
0
LINE
8
BLACK
6
CONTINUOUS
10
2.61492
20
-3.90965
11
2.61364
21
-3.90773
0
LINE
8
BLACK
6
CONTINUOUS
10
2.61364
20
-3.90773
11
2.61319
21
-3.90547
0
LINE
8
BLACK
6
CONTINUOUS
10
2.61319
20
-3.90547
11
2.61319
21
-3.84051
0
LINE
8
BLACK
6
CONTINUOUS
10
2.61319
20
-3.84051
11
2.61364
21
-3.83825
0
LINE
8
BLACK
6
CONTINUOUS
10
2.61364
20
-3.83825
11
2.61492
21
-3.83634
0
LINE
8
BLACK
6
CONTINUOUS
10
2.61492
20
-3.83634
11
2.61683
21
-3.83506
0
LINE
8
BLACK
6
CONTINUOUS
10
2.61683
20
-3.83506
11
2.61909
21
-3.83461
0
LINE
8
BLACK
6
CONTINUOUS
10
2.61909
20
-3.83461
11
2.63091
21
-3.83461
0
LINE
8
BLACK
6
CONTINUOUS
10
2.63091
20
-3.83461
11
2.63317
21
-3.83506
0
LINE
8
BLACK
6
CONTINUOUS
10
2.68317
20
-3.83506
11
2.68508
21
-3.83634
0
LINE
8
BLACK
6
CONTINUOUS
10
2.68508
20
-3.83634
11
2.68636
21
-3.83825
0
LINE
8
BLACK
6
CONTINUOUS
10
2.68636
20
-3.83825
11
2.68681
21
-3.84051
0
LINE
8
BLACK
6
CONTINUOUS
10
2.68681
20
-3.84051
11
2.68681
21
-3.90547
0
LINE
8
BLACK
6
CONTINUOUS
10
2.68681
20
-3.90547
11
2.68636
21
-3.90773
0
LINE
8
BLACK
6
CONTINUOUS
10
2.68636
20
-3.90773
11
2.68508
21
-3.90965
0
LINE
8
BLACK
6
CONTINUOUS
10
2.68508
20
-3.90965
11
2.68317
21
-3.91093
0
LINE
8
BLACK
6
CONTINUOUS
10
2.68317
20
-3.91093
11
2.68091
21
-3.91138
0
LINE
8
BLACK
6
CONTINUOUS
10
2.68091
20
-3.91138
11
2.66909
21
-3.91138
0
LINE
8
BLACK
6
CONTINUOUS
10
2.66909
20
-3.91138
11
2.66683
21
-3.91093
0
LINE
8
BLACK
6
CONTINUOUS
10
2.66683
20
-3.91093
11
2.66492
21
-3.90965
0
LINE
8
BLACK
6
CONTINUOUS
10
2.66492
20
-3.90965
11
2.66364
21
-3.90773
0
LINE
8
BLACK
6
CONTINUOUS
10
2.66364
20
-3.90773
11
2.66319
21
-3.90547
0
LINE
8
BLACK
6
CONTINUOUS
10
2.66319
20
-3.90547
11
2.66319
21
-3.84051
0
LINE
8
BLACK
6
CONTINUOUS
10
2.66319
20
-3.84051
11
2.66364
21
-3.83825
0
LINE
8
BLACK
6
CONTINUOUS
10
2.66364
20
-3.83825
11
2.66492
21
-3.83634
0
LINE
8
BLACK
6
CONTINUOUS
10
2.66492
20
-3.83634
11
2.66683
21
-3.83506
0
LINE
8
BLACK
6
CONTINUOUS
10
2.66683
20
-3.83506
11
2.66909
21
-3.83461
0
LINE
8
BLACK
6
CONTINUOUS
10
2.66909
20
-3.83461
11
2.68091
21
-3.83461
0
LINE
8
BLACK
6
CONTINUOUS
10
2.68091
20
-3.83461
11
2.68317
21
-3.83506
0
LINE
8
BLACK
6
CONTINUOUS
10
2.79646
20
-3.88283
11
2.76496
21
-3.88283
0
LINE
8
BLACK
6
CONTINUOUS
10
2.76496
20
-3.88283
11
2.76496
21
-3.86709
0
LINE
8
BLACK
6
CONTINUOUS
10
2.76496
20
-3.86709
11
2.79646
21
-3.86709
0
LINE
8
BLACK
6
CONTINUOUS
10
2.79646
20
-3.86709
11
2.79646
21
-3.88283
0
LINE
8
BLACK
6
CONTINUOUS
10
3.26102
20
-3.88283
11
3.22953
21
-3.88283
0
LINE
8
BLACK
6
CONTINUOUS
10
3.22953
20
-3.88283
11
3.22953
21
-3.86709
0
LINE
8
BLACK
6
CONTINUOUS
10
3.22953
20
-3.86709
11
3.26102
21
-3.86709
0
LINE
8
BLACK
6
CONTINUOUS
10
3.26102
20
-3.86709
11
3.26102
21
-3.88283
0
LINE
8
BLACK
6
CONTINUOUS
10
2.96378
20
-3.87201
11
2.90669
21
-3.87201
0
LINE
8
BLACK
6
CONTINUOUS
10
2.90669
20
-3.87201
11
2.90669
21
-3.81492
0
LINE
8
BLACK
6
CONTINUOUS
10
2.90669
20
-3.81492
11
2.96378
21
-3.81492
0
LINE
8
BLACK
6
CONTINUOUS
10
2.96378
20
-3.81492
11
2.96378
21
-3.87201
0
LINE
8
BLACK
6
CONTINUOUS
10
3.04154
20
-3.87201
11
2.98445
21
-3.87201
0
LINE
8
BLACK
6
CONTINUOUS
10
2.98445
20
-3.87201
11
2.98445
21
-3.81492
0
LINE
8
BLACK
6
CONTINUOUS
10
2.98445
20
-3.81492
11
3.04154
21
-3.81492
0
LINE
8
BLACK
6
CONTINUOUS
10
3.04154
20
-3.81492
11
3.04154
21
-3.87201
0
LINE
8
BLACK
6
CONTINUOUS
10
3.11929
20
-3.87201
11
3.0622
21
-3.87201
0
LINE
8
BLACK
6
CONTINUOUS
10
3.0622
20
-3.87201
11
3.0622
21
-3.81492
0
LINE
8
BLACK
6
CONTINUOUS
10
3.0622
20
-3.81492
11
3.11929
21
-3.81492
0
LINE
8
BLACK
6
CONTINUOUS
10
3.11929
20
-3.81492
11
3.11929
21
-3.87201
0
LINE
8
BLACK
6
CONTINUOUS
10
2.79646
20
-3.85134
11
2.76496
21
-3.85134
0
LINE
8
BLACK
6
CONTINUOUS
10
2.76496
20
-3.85134
11
2.76496
21
-3.83559
0
LINE
8
BLACK
6
CONTINUOUS
10
2.76496
20
-3.83559
11
2.79646
21
-3.83559
0
LINE
8
BLACK
6
CONTINUOUS
10
2.79646
20
-3.83559
11
2.79646
21
-3.85134
0
LINE
8
BLACK
6
CONTINUOUS
10
3.26102
20
-3.85134
11
3.22953
21
-3.85134
0
LINE
8
BLACK
6
CONTINUOUS
10
3.22953
20
-3.85134
11
3.22953
21
-3.83559
0
LINE
8
BLACK
6
CONTINUOUS
10
3.22953
20
-3.83559
11
3.26102
21
-3.83559
0
LINE
8
BLACK
6
CONTINUOUS
10
3.26102
20
-3.83559
11
3.26102
21
-3.85134
0
LINE
8
BLACK
6
CONTINUOUS
10
2.79646
20
-3.81984
11
2.76496
21
-3.81984
0
LINE
8
BLACK
6
CONTINUOUS
10
2.76496
20
-3.81984
11
2.76496
21
-3.80409
0
LINE
8
BLACK
6
CONTINUOUS
10
2.76496
20
-3.80409
11
2.79646
21
-3.80409
0
LINE
8
BLACK
6
CONTINUOUS
10
2.79646
20
-3.80409
11
2.79646
21
-3.81984
0
LINE
8
BLACK
6
CONTINUOUS
10
3.26102
20
-3.81984
11
3.22953
21
-3.81984
0
LINE
8
BLACK
6
CONTINUOUS
10
3.22953
20
-3.81984
11
3.22953
21
-3.80409
0
LINE
8
BLACK
6
CONTINUOUS
10
3.22953
20
-3.80409
11
3.26102
21
-3.80409
0
LINE
8
BLACK
6
CONTINUOUS
10
3.26102
20
-3.80409
11
3.26102
21
-3.81984
0
LINE
8
BLACK
6
CONTINUOUS
10
3.38143
20
-3.77201
11
3.38447
21
-3.77404
0
LINE
8
BLACK
6
CONTINUOUS
10
3.38447
20
-3.77404
11
3.38649
21
-3.77707
0
LINE
8
BLACK
6
CONTINUOUS
10
3.38649
20
-3.77707
11
3.3872
21
-3.78065
0
LINE
8
BLACK
6
CONTINUOUS
10
3.3872
20
-3.78065
11
3.3872
21
-3.79935
0
LINE
8
BLACK
6
CONTINUOUS
10
3.3872
20
-3.79935
11
3.38649
21
-3.80293
0
LINE
8
BLACK
6
CONTINUOUS
10
3.38649
20
-3.80293
11
3.38447
21
-3.80596
0
LINE
8
BLACK
6
CONTINUOUS
10
3.38447
20
-3.80596
11
3.38143
21
-3.80799
0
LINE
8
BLACK
6
CONTINUOUS
10
3.38143
20
-3.80799
11
3.37785
21
-3.8087
0
LINE
8
BLACK
6
CONTINUOUS
10
3.37785
20
-3.8087
11
3.35423
21
-3.8087
0
LINE
8
BLACK
6
CONTINUOUS
10
3.35423
20
-3.8087
11
3.35065
21
-3.80799
0
LINE
8
BLACK
6
CONTINUOUS
10
3.35065
20
-3.80799
11
3.34762
21
-3.80596
0
LINE
8
BLACK
6
CONTINUOUS
10
3.34762
20
-3.80596
11
3.34559
21
-3.80293
0
LINE
8
BLACK
6
CONTINUOUS
10
3.34559
20
-3.80293
11
3.34488
21
-3.79935
0
LINE
8
BLACK
6
CONTINUOUS
10
3.34488
20
-3.79935
11
3.34488
21
-3.78065
0
LINE
8
BLACK
6
CONTINUOUS
10
3.34488
20
-3.78065
11
3.34559
21
-3.77707
0
LINE
8
BLACK
6
CONTINUOUS
10
3.34559
20
-3.77707
11
3.34762
21
-3.77404
0
LINE
8
BLACK
6
CONTINUOUS
10
3.34762
20
-3.77404
11
3.35065
21
-3.77201
0
LINE
8
BLACK
6
CONTINUOUS
10
3.35065
20
-3.77201
11
3.35423
21
-3.7713
0
LINE
8
BLACK
6
CONTINUOUS
10
3.35423
20
-3.7713
11
3.37785
21
-3.7713
0
LINE
8
BLACK
6
CONTINUOUS
10
3.37785
20
-3.7713
11
3.38143
21
-3.77201
0
LINE
8
BLACK
6
CONTINUOUS
10
3.44935
20
-3.77201
11
3.45238
21
-3.77404
0
LINE
8
BLACK
6
CONTINUOUS
10
3.45238
20
-3.77404
11
3.45441
21
-3.77707
0
LINE
8
BLACK
6
CONTINUOUS
10
3.45441
20
-3.77707
11
3.45512
21
-3.78065
0
LINE
8
BLACK
6
CONTINUOUS
10
3.45512
20
-3.78065
11
3.45512
21
-3.79935
0
LINE
8
BLACK
6
CONTINUOUS
10
3.45512
20
-3.79935
11
3.45441
21
-3.80293
0
LINE
8
BLACK
6
CONTINUOUS
10
3.45441
20
-3.80293
11
3.45238
21
-3.80596
0
LINE
8
BLACK
6
CONTINUOUS
10
3.45238
20
-3.80596
11
3.44935
21
-3.80799
0
LINE
8
BLACK
6
CONTINUOUS
10
3.44935
20
-3.80799
11
3.44577
21
-3.8087
0
LINE
8
BLACK
6
CONTINUOUS
10
3.44577
20
-3.8087
11
3.42215
21
-3.8087
0
LINE
8
BLACK
6
CONTINUOUS
10
3.42215
20
-3.8087
11
3.41857
21
-3.80799
0
LINE
8
BLACK
6
CONTINUOUS
10
3.41857
20
-3.80799
11
3.41553
21
-3.80596
0
LINE
8
BLACK
6
CONTINUOUS
10
3.41553
20
-3.80596
11
3.41351
21
-3.80293
0
LINE
8
BLACK
6
CONTINUOUS
10
3.41351
20
-3.80293
11
3.4128
21
-3.79935
0
LINE
8
BLACK
6
CONTINUOUS
10
3.4128
20
-3.79935
11
3.4128
21
-3.78065
0
LINE
8
BLACK
6
CONTINUOUS
10
3.4128
20
-3.78065
11
3.41351
21
-3.77707
0
LINE
8
BLACK
6
CONTINUOUS
10
3.41351
20
-3.77707
11
3.41553
21
-3.77404
0
LINE
8
BLACK
6
CONTINUOUS
10
3.41553
20
-3.77404
11
3.41857
21
-3.77201
0
LINE
8
BLACK
6
CONTINUOUS
10
3.41857
20
-3.77201
11
3.42215
21
-3.7713
0
LINE
8
BLACK
6
CONTINUOUS
10
3.42215
20
-3.7713
11
3.44577
21
-3.7713
0
LINE
8
BLACK
6
CONTINUOUS
10
3.44577
20
-3.7713
11
3.44935
21
-3.77201
0
LINE
8
BLACK
6
CONTINUOUS
10
2.96378
20
-3.79425
11
2.90669
21
-3.79425
0
LINE
8
BLACK
6
CONTINUOUS
10
2.90669
20
-3.79425
11
2.90669
21
-3.76079
0
LINE
8
BLACK
6
CONTINUOUS
10
2.90669
20
-3.76079
11
2.93031
21
-3.73717
0
LINE
8
BLACK
6
CONTINUOUS
10
2.93031
20
-3.73717
11
2.96378
21
-3.73717
0
LINE
8
BLACK
6
CONTINUOUS
10
2.96378
20
-3.73717
11
2.96378
21
-3.79425
0
LINE
8
BLACK
6
CONTINUOUS
10
3.04154
20
-3.79425
11
2.98445
21
-3.79425
0
LINE
8
BLACK
6
CONTINUOUS
10
2.98445
20
-3.79425
11
2.98445
21
-3.73717
0
LINE
8
BLACK
6
CONTINUOUS
10
2.98445
20
-3.73717
11
3.04154
21
-3.73717
0
LINE
8
BLACK
6
CONTINUOUS
10
3.04154
20
-3.73717
11
3.04154
21
-3.79425
0
LINE
8
BLACK
6
CONTINUOUS
10
3.11929
20
-3.79425
11
3.0622
21
-3.79425
0
LINE
8
BLACK
6
CONTINUOUS
10
3.0622
20
-3.79425
11
3.0622
21
-3.73717
0
LINE
8
BLACK
6
CONTINUOUS
10
3.0622
20
-3.73717
11
3.11929
21
-3.73717
0
LINE
8
BLACK
6
CONTINUOUS
10
3.11929
20
-3.73717
11
3.11929
21
-3.79425
0
LINE
8
BLACK
6
CONTINUOUS
10
2.79646
20
-3.78835
11
2.76496
21
-3.78835
0
LINE
8
BLACK
6
CONTINUOUS
10
2.76496
20
-3.78835
11
2.76496
21
-3.7726
0
LINE
8
BLACK
6
CONTINUOUS
10
2.76496
20
-3.7726
11
2.79646
21
-3.7726
0
LINE
8
BLACK
6
CONTINUOUS
10
2.79646
20
-3.7726
11
2.79646
21
-3.78835
0
LINE
8
BLACK
6
CONTINUOUS
10
3.26102
20
-3.78835
11
3.22953
21
-3.78835
0
LINE
8
BLACK
6
CONTINUOUS
10
3.22953
20
-3.78835
11
3.22953
21
-3.7726
0
LINE
8
BLACK
6
CONTINUOUS
10
3.22953
20
-3.7726
11
3.26102
21
-3.7726
0
LINE
8
BLACK
6
CONTINUOUS
10
3.26102
20
-3.7726
11
3.26102
21
-3.78835
0
LINE
8
BLACK
6
CONTINUOUS
10
2.79646
20
-3.75685
11
2.76496
21
-3.75685
0
LINE
8
BLACK
6
CONTINUOUS
10
2.76496
20
-3.75685
11
2.76496
21
-3.7411
0
LINE
8
BLACK
6
CONTINUOUS
10
2.76496
20
-3.7411
11
2.79646
21
-3.7411
0
LINE
8
BLACK
6
CONTINUOUS
10
2.79646
20
-3.7411
11
2.79646
21
-3.75685
0
LINE
8
BLACK
6
CONTINUOUS
10
3.26102
20
-3.75685
11
3.22953
21
-3.75685
0
LINE
8
BLACK
6
CONTINUOUS
10
3.22953
20
-3.75685
11
3.22953
21
-3.7411
0
LINE
8
BLACK
6
CONTINUOUS
10
3.22953
20
-3.7411
11
3.26102
21
-3.7411
0
LINE
8
BLACK
6
CONTINUOUS
10
3.26102
20
-3.7411
11
3.26102
21
-3.75685
0
LINE
8
BLACK
6
CONTINUOUS
10
3.38143
20
-3.70201
11
3.38447
21
-3.70404
0
LINE
8
BLACK
6
CONTINUOUS
10
3.38447
20
-3.70404
11
3.38649
21
-3.70707
0
LINE
8
BLACK
6
CONTINUOUS
10
3.38649
20
-3.70707
11
3.3872
21
-3.71065
0
LINE
8
BLACK
6
CONTINUOUS
10
3.3872
20
-3.71065
11
3.3872
21
-3.72935
0
LINE
8
BLACK
6
CONTINUOUS
10
3.3872
20
-3.72935
11
3.38649
21
-3.73293
0
LINE
8
BLACK
6
CONTINUOUS
10
3.38649
20
-3.73293
11
3.38447
21
-3.73596
0
LINE
8
BLACK
6
CONTINUOUS
10
3.38447
20
-3.73596
11
3.38143
21
-3.73799
0
LINE
8
BLACK
6
CONTINUOUS
10
3.38143
20
-3.73799
11
3.37785
21
-3.7387
0
LINE
8
BLACK
6
CONTINUOUS
10
3.37785
20
-3.7387
11
3.35423
21
-3.7387
0
LINE
8
BLACK
6
CONTINUOUS
10
3.35423
20
-3.7387
11
3.35065
21
-3.73799
0
LINE
8
BLACK
6
CONTINUOUS
10
3.35065
20
-3.73799
11
3.34762
21
-3.73596
0
LINE
8
BLACK
6
CONTINUOUS
10
3.34762
20
-3.73596
11
3.34559
21
-3.73293
0
LINE
8
BLACK
6
CONTINUOUS
10
3.34559
20
-3.73293
11
3.34488
21
-3.72935
0
LINE
8
BLACK
6
CONTINUOUS
10
3.34488
20
-3.72935
11
3.34488
21
-3.71065
0
LINE
8
BLACK
6
CONTINUOUS
10
3.34488
20
-3.71065
11
3.34559
21
-3.70707
0
LINE
8
BLACK
6
CONTINUOUS
10
3.34559
20
-3.70707
11
3.34762
21
-3.70404
0
LINE
8
BLACK
6
CONTINUOUS
10
3.34762
20
-3.70404
11
3.35065
21
-3.70201
0
LINE
8
BLACK
6
CONTINUOUS
10
3.35065
20
-3.70201
11
3.35423
21
-3.7013
0
LINE
8
BLACK
6
CONTINUOUS
10
3.35423
20
-3.7013
11
3.37785
21
-3.7013
0
LINE
8
BLACK
6
CONTINUOUS
10
3.37785
20
-3.7013
11
3.38143
21
-3.70201
0
LINE
8
BLACK
6
CONTINUOUS
10
3.44935
20
-3.70201
11
3.45238
21
-3.70404
0
LINE
8
BLACK
6
CONTINUOUS
10
3.45238
20
-3.70404
11
3.45441
21
-3.70707
0
LINE
8
BLACK
6
CONTINUOUS
10
3.45441
20
-3.70707
11
3.45512
21
-3.71065
0
LINE
8
BLACK
6
CONTINUOUS
10
3.45512
20
-3.71065
11
3.45512
21
-3.72935
0
LINE
8
BLACK
6
CONTINUOUS
10
3.45512
20
-3.72935
11
3.45441
21
-3.73293
0
LINE
8
BLACK
6
CONTINUOUS
10
3.45441
20
-3.73293
11
3.45238
21
-3.73596
0
LINE
8
BLACK
6
CONTINUOUS
10
3.45238
20
-3.73596
11
3.44935
21
-3.73799
0
LINE
8
BLACK
6
CONTINUOUS
10
3.44935
20
-3.73799
11
3.44577
21
-3.7387
0
LINE
8
BLACK
6
CONTINUOUS
10
3.44577
20
-3.7387
11
3.42215
21
-3.7387
0
LINE
8
BLACK
6
CONTINUOUS
10
3.42215
20
-3.7387
11
3.41857
21
-3.73799
0
LINE
8
BLACK
6
CONTINUOUS
10
3.41857
20
-3.73799
11
3.41553
21
-3.73596
0
LINE
8
BLACK
6
CONTINUOUS
10
3.41553
20
-3.73596
11
3.41351
21
-3.73293
0
LINE
8
BLACK
6
CONTINUOUS
10
3.41351
20
-3.73293
11
3.4128
21
-3.72935
0
LINE
8
BLACK
6
CONTINUOUS
10
3.4128
20
-3.72935
11
3.4128
21
-3.71065
0
LINE
8
BLACK
6
CONTINUOUS
10
3.4128
20
-3.71065
11
3.41351
21
-3.70707
0
LINE
8
BLACK
6
CONTINUOUS
10
3.41351
20
-3.70707
11
3.41553
21
-3.70404
0
LINE
8
BLACK
6
CONTINUOUS
10
3.41553
20
-3.70404
11
3.41857
21
-3.70201
0
LINE
8
BLACK
6
CONTINUOUS
10
3.41857
20
-3.70201
11
3.42215
21
-3.7013
0
LINE
8
BLACK
6
CONTINUOUS
10
3.42215
20
-3.7013
11
3.44577
21
-3.7013
0
LINE
8
BLACK
6
CONTINUOUS
10
3.44577
20
-3.7013
11
3.44935
21
-3.70201
0
LINE
8
BLACK
6
CONTINUOUS
10
2.79646
20
-3.72535
11
2.76496
21
-3.72535
0
LINE
8
BLACK
6
CONTINUOUS
10
2.76496
20
-3.72535
11
2.76496
21
-3.70961
0
LINE
8
BLACK
6
CONTINUOUS
10
2.76496
20
-3.70961
11
2.79646
21
-3.70961
0
LINE
8
BLACK
6
CONTINUOUS
10
2.79646
20
-3.70961
11
2.79646
21
-3.72535
0
LINE
8
BLACK
6
CONTINUOUS
10
3.26102
20
-3.72535
11
3.22953
21
-3.72535
0
LINE
8
BLACK
6
CONTINUOUS
10
3.22953
20
-3.72535
11
3.22953
21
-3.70961
0
LINE
8
BLACK
6
CONTINUOUS
10
3.22953
20
-3.70961
11
3.26102
21
-3.70961
0
LINE
8
BLACK
6
CONTINUOUS
10
3.26102
20
-3.70961
11
3.26102
21
-3.72535
0
LINE
8
BLACK
6
CONTINUOUS
10
2.53317
20
-3.64017
11
2.53508
21
-3.64145
0
LINE
8
BLACK
6
CONTINUOUS
10
2.53508
20
-3.64145
11
2.53636
21
-3.64337
0
LINE
8
BLACK
6
CONTINUOUS
10
2.53636
20
-3.64337
11
2.53681
21
-3.64563
0
LINE
8
BLACK
6
CONTINUOUS
10
2.53681
20
-3.64563
11
2.53681
21
-3.71059
0
LINE
8
BLACK
6
CONTINUOUS
10
2.53681
20
-3.71059
11
2.53636
21
-3.71285
0
LINE
8
BLACK
6
CONTINUOUS
10
2.53636
20
-3.71285
11
2.53508
21
-3.71477
0
LINE
8
BLACK
6
CONTINUOUS
10
2.53508
20
-3.71477
11
2.53317
21
-3.71605
0
LINE
8
BLACK
6
CONTINUOUS
10
2.53317
20
-3.71605
11
2.53091
21
-3.7165
0
LINE
8
BLACK
6
CONTINUOUS
10
2.53091
20
-3.7165
11
2.51909
21
-3.7165
0
LINE
8
BLACK
6
CONTINUOUS
10
2.51909
20
-3.7165
11
2.51683
21
-3.71605
0
LINE
8
BLACK
6
CONTINUOUS
10
2.51683
20
-3.71605
11
2.51492
21
-3.71477
0
LINE
8
BLACK
6
CONTINUOUS
10
2.51492
20
-3.71477
11
2.51364
21
-3.71285
0
LINE
8
BLACK
6
CONTINUOUS
10
2.51364
20
-3.71285
11
2.51319
21
-3.71059
0
LINE
8
BLACK
6
CONTINUOUS
10
2.51319
20
-3.71059
11
2.51319
21
-3.64563
0
LINE
8
BLACK
6
CONTINUOUS
10
2.51319
20
-3.64563
11
2.51364
21
-3.64337
0
LINE
8
BLACK
6
CONTINUOUS
10
2.51364
20
-3.64337
11
2.51492
21
-3.64145
0
LINE
8
BLACK
6
CONTINUOUS
10
2.51492
20
-3.64145
11
2.51683
21
-3.64017
0
LINE
8
BLACK
6
CONTINUOUS
10
2.51683
20
-3.64017
11
2.51909
21
-3.63972
0
LINE
8
BLACK
6
CONTINUOUS
10
2.51909
20
-3.63972
11
2.53091
21
-3.63972
0
LINE
8
BLACK
6
CONTINUOUS
10
2.53091
20
-3.63972
11
2.53317
21
-3.64017
0
LINE
8
BLACK
6
CONTINUOUS
10
2.58317
20
-3.64017
11
2.58508
21
-3.64145
0
LINE
8
BLACK
6
CONTINUOUS
10
2.58508
20
-3.64145
11
2.58636
21
-3.64337
0
LINE
8
BLACK
6
CONTINUOUS
10
2.58636
20
-3.64337
11
2.58681
21
-3.64563
0
LINE
8
BLACK
6
CONTINUOUS
10
2.58681
20
-3.64563
11
2.58681
21
-3.71059
0
LINE
8
BLACK
6
CONTINUOUS
10
2.58681
20
-3.71059
11
2.58636
21
-3.71285
0
LINE
8
BLACK
6
CONTINUOUS
10
2.58636
20
-3.71285
11
2.58508
21
-3.71477
0
LINE
8
BLACK
6
CONTINUOUS
10
2.58508
20
-3.71477
11
2.58317
21
-3.71605
0
LINE
8
BLACK
6
CONTINUOUS
10
2.58317
20
-3.71605
11
2.58091
21
-3.7165
0
LINE
8
BLACK
6
CONTINUOUS
10
2.58091
20
-3.7165
11
2.56909
21
-3.7165
0
LINE
8
BLACK
6
CONTINUOUS
10
2.56909
20
-3.7165
11
2.56683
21
-3.71605
0
LINE
8
BLACK
6
CONTINUOUS
10
2.56683
20
-3.71605
11
2.56492
21
-3.71477
0
LINE
8
BLACK
6
CONTINUOUS
10
2.56492
20
-3.71477
11
2.56364
21
-3.71285
0
LINE
8
BLACK
6
CONTINUOUS
10
2.56364
20
-3.71285
11
2.56319
21
-3.71059
0
LINE
8
BLACK
6
CONTINUOUS
10
2.56319
20
-3.71059
11
2.56319
21
-3.64563
0
LINE
8
BLACK
6
CONTINUOUS
10
2.56319
20
-3.64563
11
2.56364
21
-3.64337
0
LINE
8
BLACK
6
CONTINUOUS
10
2.56364
20
-3.64337
11
2.56492
21
-3.64145
0
LINE
8
BLACK
6
CONTINUOUS
10
2.56492
20
-3.64145
11
2.56683
21
-3.64017
0
LINE
8
BLACK
6
CONTINUOUS
10
2.56683
20
-3.64017
11
2.56909
21
-3.63972
0
LINE
8
BLACK
6
CONTINUOUS
10
2.56909
20
-3.63972
11
2.58091
21
-3.63972
0
LINE
8
BLACK
6
CONTINUOUS
10
2.58091
20
-3.63972
11
2.58317
21
-3.64017
0
LINE
8
BLACK
6
CONTINUOUS
10
2.63317
20
-3.64017
11
2.63508
21
-3.64145
0
LINE
8
BLACK
6
CONTINUOUS
10
2.63508
20
-3.64145
11
2.63636
21
-3.64337
0
LINE
8
BLACK
6
CONTINUOUS
10
2.63636
20
-3.64337
11
2.63681
21
-3.64563
0
LINE
8
BLACK
6
CONTINUOUS
10
2.63681
20
-3.64563
11
2.63681
21
-3.71059
0
LINE
8
BLACK
6
CONTINUOUS
10
2.63681
20
-3.71059
11
2.63636
21
-3.71285
0
LINE
8
BLACK
6
CONTINUOUS
10
2.63636
20
-3.71285
11
2.63508
21
-3.71477
0
LINE
8
BLACK
6
CONTINUOUS
10
2.63508
20
-3.71477
11
2.63317
21
-3.71605
0
LINE
8
BLACK
6
CONTINUOUS
10
2.63317
20
-3.71605
11
2.63091
21
-3.7165
0
LINE
8
BLACK
6
CONTINUOUS
10
2.63091
20
-3.7165
11
2.61909
21
-3.7165
0
LINE
8
BLACK
6
CONTINUOUS
10
2.61909
20
-3.7165
11
2.61683
21
-3.71605
0
LINE
8
BLACK
6
CONTINUOUS
10
2.61683
20
-3.71605
11
2.61492
21
-3.71477
0
LINE
8
BLACK
6
CONTINUOUS
10
2.61492
20
-3.71477
11
2.61364
21
-3.71285
0
LINE
8
BLACK
6
CONTINUOUS
10
2.61364
20
-3.71285
11
2.61319
21
-3.71059
0
LINE
8
BLACK
6
CONTINUOUS
10
2.61319
20
-3.71059
11
2.61319
21
-3.64563
0
LINE
8
BLACK
6
CONTINUOUS
10
2.61319
20
-3.64563
11
2.61364
21
-3.64337
0
LINE
8
BLACK
6
CONTINUOUS
10
2.61364
20
-3.64337
11
2.61492
21
-3.64145
0
LINE
8
BLACK
6
CONTINUOUS
10
2.61492
20
-3.64145
11
2.61683
21
-3.64017
0
LINE
8
BLACK
6
CONTINUOUS
10
2.61683
20
-3.64017
11
2.61909
21
-3.63972
0
LINE
8
BLACK
6
CONTINUOUS
10
2.61909
20
-3.63972
11
2.63091
21
-3.63972
0
LINE
8
BLACK
6
CONTINUOUS
10
2.63091
20
-3.63972
11
2.63317
21
-3.64017
0
LINE
8
BLACK
6
CONTINUOUS
10
2.68317
20
-3.64017
11
2.68508
21
-3.64145
0
LINE
8
BLACK
6
CONTINUOUS
10
2.68508
20
-3.64145
11
2.68636
21
-3.64337
0
LINE
8
BLACK
6
CONTINUOUS
10
2.68636
20
-3.64337
11
2.68681
21
-3.64563
0
LINE
8
BLACK
6
CONTINUOUS
10
2.68681
20
-3.64563
11
2.68681
21
-3.71059
0
LINE
8
BLACK
6
CONTINUOUS
10
2.68681
20
-3.71059
11
2.68636
21
-3.71285
0
LINE
8
BLACK
6
CONTINUOUS
10
2.68636
20
-3.71285
11
2.68508
21
-3.71477
0
LINE
8
BLACK
6
CONTINUOUS
10
2.68508
20
-3.71477
11
2.68317
21
-3.71605
0
LINE
8
BLACK
6
CONTINUOUS
10
2.68317
20
-3.71605
11
2.68091
21
-3.7165
0
LINE
8
BLACK
6
CONTINUOUS
10
2.68091
20
-3.7165
11
2.66909
21
-3.7165
0
LINE
8
BLACK
6
CONTINUOUS
10
2.66909
20
-3.7165
11
2.66683
21
-3.71605
0
LINE
8
BLACK
6
CONTINUOUS
10
2.66683
20
-3.71605
11
2.66492
21
-3.71477
0
LINE
8
BLACK
6
CONTINUOUS
10
2.66492
20
-3.71477
11
2.66364
21
-3.71285
0
LINE
8
BLACK
6
CONTINUOUS
10
2.66364
20
-3.71285
11
2.66319
21
-3.71059
0
LINE
8
BLACK
6
CONTINUOUS
10
2.66319
20
-3.71059
11
2.66319
21
-3.64563
0
LINE
8
BLACK
6
CONTINUOUS
10
2.66319
20
-3.64563
11
2.66364
21
-3.64337
0
LINE
8
BLACK
6
CONTINUOUS
10
2.66364
20
-3.64337
11
2.66492
21
-3.64145
0
LINE
8
BLACK
6
CONTINUOUS
10
2.66492
20
-3.64145
11
2.66683
21
-3.64017
0
LINE
8
BLACK
6
CONTINUOUS
10
2.66683
20
-3.64017
11
2.66909
21
-3.63972
0
LINE
8
BLACK
6
CONTINUOUS
10
2.66909
20
-3.63972
11
2.68091
21
-3.63972
0
LINE
8
BLACK
6
CONTINUOUS
10
2.68091
20
-3.63972
11
2.68317
21
-3.64017
0
LINE
8
BLACK
6
CONTINUOUS
10
2.79646
20
-3.69386
11
2.76496
21
-3.69386
0
LINE
8
BLACK
6
CONTINUOUS
10
2.76496
20
-3.69386
11
2.76496
21
-3.67811
0
LINE
8
BLACK
6
CONTINUOUS
10
2.76496
20
-3.67811
11
2.79646
21
-3.67811
0
LINE
8
BLACK
6
CONTINUOUS
10
2.79646
20
-3.67811
11
2.79646
21
-3.69386
0
LINE
8
BLACK
6
CONTINUOUS
10
3.26102
20
-3.69386
11
3.22953
21
-3.69386
0
LINE
8
BLACK
6
CONTINUOUS
10
3.22953
20
-3.69386
11
3.22953
21
-3.67811
0
LINE
8
BLACK
6
CONTINUOUS
10
3.22953
20
-3.67811
11
3.26102
21
-3.67811
0
LINE
8
BLACK
6
CONTINUOUS
10
3.26102
20
-3.67811
11
3.26102
21
-3.69386
0
LINE
8
BLACK
6
CONTINUOUS
10
3.38143
20
-3.63201
11
3.38447
21
-3.63404
0
LINE
8
BLACK
6
CONTINUOUS
10
3.38447
20
-3.63404
11
3.38649
21
-3.63707
0
LINE
8
BLACK
6
CONTINUOUS
10
3.38649
20
-3.63707
11
3.3872
21
-3.64065
0
LINE
8
BLACK
6
CONTINUOUS
10
3.3872
20
-3.64065
11
3.3872
21
-3.65935
0
LINE
8
BLACK
6
CONTINUOUS
10
3.3872
20
-3.65935
11
3.38649
21
-3.66293
0
LINE
8
BLACK
6
CONTINUOUS
10
3.38649
20
-3.66293
11
3.38447
21
-3.66596
0
LINE
8
BLACK
6
CONTINUOUS
10
3.38447
20
-3.66596
11
3.38143
21
-3.66799
0
LINE
8
BLACK
6
CONTINUOUS
10
3.38143
20
-3.66799
11
3.37785
21
-3.6687
0
LINE
8
BLACK
6
CONTINUOUS
10
3.37785
20
-3.6687
11
3.35423
21
-3.6687
0
LINE
8
BLACK
6
CONTINUOUS
10
3.35423
20
-3.6687
11
3.35065
21
-3.66799
0
LINE
8
BLACK
6
CONTINUOUS
10
3.35065
20
-3.66799
11
3.34762
21
-3.66596
0
LINE
8
BLACK
6
CONTINUOUS
10
3.34762
20
-3.66596
11
3.34559
21
-3.66293
0
LINE
8
BLACK
6
CONTINUOUS
10
3.34559
20
-3.66293
11
3.34488
21
-3.65935
0
LINE
8
BLACK
6
CONTINUOUS
10
3.34488
20
-3.65935
11
3.34488
21
-3.64065
0
LINE
8
BLACK
6
CONTINUOUS
10
3.34488
20
-3.64065
11
3.34559
21
-3.63707
0
LINE
8
BLACK
6
CONTINUOUS
10
3.34559
20
-3.63707
11
3.34762
21
-3.63404
0
LINE
8
BLACK
6
CONTINUOUS
10
3.34762
20
-3.63404
11
3.35065
21
-3.63201
0
LINE
8
BLACK
6
CONTINUOUS
10
3.35065
20
-3.63201
11
3.35423
21
-3.6313
0
LINE
8
BLACK
6
CONTINUOUS
10
3.35423
20
-3.6313
11
3.37785
21
-3.6313
0
LINE
8
BLACK
6
CONTINUOUS
10
3.37785
20
-3.6313
11
3.38143
21
-3.63201
0
LINE
8
BLACK
6
CONTINUOUS
10
3.44935
20
-3.63201
11
3.45238
21
-3.63404
0
LINE
8
BLACK
6
CONTINUOUS
10
3.45238
20
-3.63404
11
3.45441
21
-3.63707
0
LINE
8
BLACK
6
CONTINUOUS
10
3.45441
20
-3.63707
11
3.45512
21
-3.64065
0
LINE
8
BLACK
6
CONTINUOUS
10
3.45512
20
-3.64065
11
3.45512
21
-3.65935
0
LINE
8
BLACK
6
CONTINUOUS
10
3.45512
20
-3.65935
11
3.45441
21
-3.66293
0
LINE
8
BLACK
6
CONTINUOUS
10
3.45441
20
-3.66293
11
3.45238
21
-3.66596
0
LINE
8
BLACK
6
CONTINUOUS
10
3.45238
20
-3.66596
11
3.44935
21
-3.66799
0
LINE
8
BLACK
6
CONTINUOUS
10
3.44935
20
-3.66799
11
3.44577
21
-3.6687
0
LINE
8
BLACK
6
CONTINUOUS
10
3.44577
20
-3.6687
11
3.42215
21
-3.6687
0
LINE
8
BLACK
6
CONTINUOUS
10
3.42215
20
-3.6687
11
3.41857
21
-3.66799
0
LINE
8
BLACK
6
CONTINUOUS
10
3.41857
20
-3.66799
11
3.41553
21
-3.66596
0
LINE
8
BLACK
6
CONTINUOUS
10
3.41553
20
-3.66596
11
3.41351
21
-3.66293
0
LINE
8
BLACK
6
CONTINUOUS
10
3.41351
20
-3.66293
11
3.4128
21
-3.65935
0
LINE
8
BLACK
6
CONTINUOUS
10
3.4128
20
-3.65935
11
3.4128
21
-3.64065
0
LINE
8
BLACK
6
CONTINUOUS
10
3.4128
20
-3.64065
11
3.41351
21
-3.63707
0
LINE
8
BLACK
6
CONTINUOUS
10
3.41351
20
-3.63707
11
3.41553
21
-3.63404
0
LINE
8
BLACK
6
CONTINUOUS
10
3.41553
20
-3.63404
11
3.41857
21
-3.63201
0
LINE
8
BLACK
6
CONTINUOUS
10
3.41857
20
-3.63201
11
3.42215
21
-3.6313
0
LINE
8
BLACK
6
CONTINUOUS
10
3.42215
20
-3.6313
11
3.44577
21
-3.6313
0
LINE
8
BLACK
6
CONTINUOUS
10
3.44577
20
-3.6313
11
3.44935
21
-3.63201
0
LINE
8
BLACK
6
CONTINUOUS
10
2.83189
20
-3.6663
11
2.81614
21
-3.6663
0
LINE
8
BLACK
6
CONTINUOUS
10
2.81614
20
-3.6663
11
2.81614
21
-3.6348
0
LINE
8
BLACK
6
CONTINUOUS
10
2.81614
20
-3.6348
11
2.83189
21
-3.6348
0
LINE
8
BLACK
6
CONTINUOUS
10
2.83189
20
-3.6348
11
2.83189
21
-3.6663
0
LINE
8
BLACK
6
CONTINUOUS
10
2.86339
20
-3.6663
11
2.84764
21
-3.6663
0
LINE
8
BLACK
6
CONTINUOUS
10
2.84764
20
-3.6663
11
2.84764
21
-3.6348
0
LINE
8
BLACK
6
CONTINUOUS
10
2.84764
20
-3.6348
11
2.86339
21
-3.6348
0
LINE
8
BLACK
6
CONTINUOUS
10
2.86339
20
-3.6348
11
2.86339
21
-3.6663
0
LINE
8
BLACK
6
CONTINUOUS
10
2.89488
20
-3.6663
11
2.87913
21
-3.6663
0
LINE
8
BLACK
6
CONTINUOUS
10
2.87913
20
-3.6663
11
2.87913
21
-3.6348
0
LINE
8
BLACK
6
CONTINUOUS
10
2.87913
20
-3.6348
11
2.89488
21
-3.6348
0
LINE
8
BLACK
6
CONTINUOUS
10
2.89488
20
-3.6348
11
2.89488
21
-3.6663
0
LINE
8
BLACK
6
CONTINUOUS
10
2.92638
20
-3.6663
11
2.91063
21
-3.6663
0
LINE
8
BLACK
6
CONTINUOUS
10
2.91063
20
-3.6663
11
2.91063
21
-3.6348
0
LINE
8
BLACK
6
CONTINUOUS
10
2.91063
20
-3.6348
11
2.92638
21
-3.6348
0
LINE
8
BLACK
6
CONTINUOUS
10
2.92638
20
-3.6348
11
2.92638
21
-3.6663
0
LINE
8
BLACK
6
CONTINUOUS
10
2.95787
20
-3.6663
11
2.94213
21
-3.6663
0
LINE
8
BLACK
6
CONTINUOUS
10
2.94213
20
-3.6663
11
2.94213
21
-3.6348
0
LINE
8
BLACK
6
CONTINUOUS
10
2.94213
20
-3.6348
11
2.95787
21
-3.6348
0
LINE
8
BLACK
6
CONTINUOUS
10
2.95787
20
-3.6348
11
2.95787
21
-3.6663
0
LINE
8
BLACK
6
CONTINUOUS
10
2.98937
20
-3.6663
11
2.97362
21
-3.6663
0
LINE
8
BLACK
6
CONTINUOUS
10
2.97362
20
-3.6663
11
2.97362
21
-3.6348
0
LINE
8
BLACK
6
CONTINUOUS
10
2.97362
20
-3.6348
11
2.98937
21
-3.6348
0
LINE
8
BLACK
6
CONTINUOUS
10
2.98937
20
-3.6348
11
2.98937
21
-3.6663
0
LINE
8
BLACK
6
CONTINUOUS
10
3.02087
20
-3.6663
11
3.00512
21
-3.6663
0
LINE
8
BLACK
6
CONTINUOUS
10
3.00512
20
-3.6663
11
3.00512
21
-3.6348
0
LINE
8
BLACK
6
CONTINUOUS
10
3.00512
20
-3.6348
11
3.02087
21
-3.6348
0
LINE
8
BLACK
6
CONTINUOUS
10
3.02087
20
-3.6348
11
3.02087
21
-3.6663
0
LINE
8
BLACK
6
CONTINUOUS
10
3.05236
20
-3.6663
11
3.03661
21
-3.6663
0
LINE
8
BLACK
6
CONTINUOUS
10
3.03661
20
-3.6663
11
3.03661
21
-3.6348
0
LINE
8
BLACK
6
CONTINUOUS
10
3.03661
20
-3.6348
11
3.05236
21
-3.6348
0
LINE
8
BLACK
6
CONTINUOUS
10
3.05236
20
-3.6348
11
3.05236
21
-3.6663
0
LINE
8
BLACK
6
CONTINUOUS
10
3.08386
20
-3.6663
11
3.06811
21
-3.6663
0
LINE
8
BLACK
6
CONTINUOUS
10
3.06811
20
-3.6663
11
3.06811
21
-3.6348
0
LINE
8
BLACK
6
CONTINUOUS
10
3.06811
20
-3.6348
11
3.08386
21
-3.6348
0
LINE
8
BLACK
6
CONTINUOUS
10
3.08386
20
-3.6348
11
3.08386
21
-3.6663
0
LINE
8
BLACK
6
CONTINUOUS
10
3.11535
20
-3.6663
11
3.09961
21
-3.6663
0
LINE
8
BLACK
6
CONTINUOUS
10
3.09961
20
-3.6663
11
3.09961
21
-3.6348
0
LINE
8
BLACK
6
CONTINUOUS
10
3.09961
20
-3.6348
11
3.11535
21
-3.6348
0
LINE
8
BLACK
6
CONTINUOUS
10
3.11535
20
-3.6348
11
3.11535
21
-3.6663
0
LINE
8
BLACK
6
CONTINUOUS
10
3.14685
20
-3.6663
11
3.1311
21
-3.6663
0
LINE
8
BLACK
6
CONTINUOUS
10
3.1311
20
-3.6663
11
3.1311
21
-3.6348
0
LINE
8
BLACK
6
CONTINUOUS
10
3.1311
20
-3.6348
11
3.14685
21
-3.6348
0
LINE
8
BLACK
6
CONTINUOUS
10
3.14685
20
-3.6348
11
3.14685
21
-3.6663
0
LINE
8
BLACK
6
CONTINUOUS
10
3.17835
20
-3.6663
11
3.1626
21
-3.6663
0
LINE
8
BLACK
6
CONTINUOUS
10
3.1626
20
-3.6663
11
3.1626
21
-3.6348
0
LINE
8
BLACK
6
CONTINUOUS
10
3.1626
20
-3.6348
11
3.17835
21
-3.6348
0
LINE
8
BLACK
6
CONTINUOUS
10
3.17835
20
-3.6348
11
3.17835
21
-3.6663
0
LINE
8
BLACK
6
CONTINUOUS
10
3.20984
20
-3.6663
11
3.19409
21
-3.6663
0
LINE
8
BLACK
6
CONTINUOUS
10
3.19409
20
-3.6663
11
3.19409
21
-3.6348
0
LINE
8
BLACK
6
CONTINUOUS
10
3.19409
20
-3.6348
11
3.20984
21
-3.6348
0
LINE
8
BLACK
6
CONTINUOUS
10
3.20984
20
-3.6348
11
3.20984
21
-3.6663
0
LINE
8
BLACK
6
CONTINUOUS
10
2.79252
20
-3.66236
11
2.76496
21
-3.66236
0
LINE
8
BLACK
6
CONTINUOUS
10
2.76496
20
-3.66236
11
2.76496
21
-3.6348
0
LINE
8
BLACK
6
CONTINUOUS
10
2.76496
20
-3.6348
11
2.79252
21
-3.6348
0
LINE
8
BLACK
6
CONTINUOUS
10
2.79252
20
-3.6348
11
2.79252
21
-3.66236
0
LINE
8
BLACK
6
CONTINUOUS
10
3.26102
20
-3.66236
11
3.23346
21
-3.66236
0
LINE
8
BLACK
6
CONTINUOUS
10
3.23346
20
-3.66236
11
3.23346
21
-3.6348
0
LINE
8
BLACK
6
CONTINUOUS
10
3.23346
20
-3.6348
11
3.26102
21
-3.6348
0
LINE
8
BLACK
6
CONTINUOUS
10
3.26102
20
-3.6348
11
3.26102
21
-3.66236
0
LINE
8
BLACK
6
CONTINUOUS
10
3.38143
20
-3.56201
11
3.38447
21
-3.56404
0
LINE
8
BLACK
6
CONTINUOUS
10
3.38447
20
-3.56404
11
3.38649
21
-3.56707
0
LINE
8
BLACK
6
CONTINUOUS
10
3.38649
20
-3.56707
11
3.3872
21
-3.57065
0
LINE
8
BLACK
6
CONTINUOUS
10
3.3872
20
-3.57065
11
3.3872
21
-3.58935
0
LINE
8
BLACK
6
CONTINUOUS
10
3.3872
20
-3.58935
11
3.38649
21
-3.59293
0
LINE
8
BLACK
6
CONTINUOUS
10
3.38649
20
-3.59293
11
3.38447
21
-3.59596
0
LINE
8
BLACK
6
CONTINUOUS
10
3.38447
20
-3.59596
11
3.38143
21
-3.59799
0
LINE
8
BLACK
6
CONTINUOUS
10
3.38143
20
-3.59799
11
3.37785
21
-3.5987
0
LINE
8
BLACK
6
CONTINUOUS
10
3.37785
20
-3.5987
11
3.35423
21
-3.5987
0
LINE
8
BLACK
6
CONTINUOUS
10
3.35423
20
-3.5987
11
3.35065
21
-3.59799
0
LINE
8
BLACK
6
CONTINUOUS
10
3.35065
20
-3.59799
11
3.34762
21
-3.59596
0
LINE
8
BLACK
6
CONTINUOUS
10
3.34762
20
-3.59596
11
3.34559
21
-3.59293
0
LINE
8
BLACK
6
CONTINUOUS
10
3.34559
20
-3.59293
11
3.34488
21
-3.58935
0
LINE
8
BLACK
6
CONTINUOUS
10
3.34488
20
-3.58935
11
3.34488
21
-3.57065
0
LINE
8
BLACK
6
CONTINUOUS
10
3.34488
20
-3.57065
11
3.34559
21
-3.56707
0
LINE
8
BLACK
6
CONTINUOUS
10
3.34559
20
-3.56707
11
3.34762
21
-3.56404
0
LINE
8
BLACK
6
CONTINUOUS
10
3.34762
20
-3.56404
11
3.35065
21
-3.56201
0
LINE
8
BLACK
6
CONTINUOUS
10
3.35065
20
-3.56201
11
3.35423
21
-3.5613
0
LINE
8
BLACK
6
CONTINUOUS
10
3.35423
20
-3.5613
11
3.37785
21
-3.5613
0
LINE
8
BLACK
6
CONTINUOUS
10
3.37785
20
-3.5613
11
3.38143
21
-3.56201
0
LINE
8
BLACK
6
CONTINUOUS
10
3.44935
20
-3.56201
11
3.45238
21
-3.56404
0
LINE
8
BLACK
6
CONTINUOUS
10
3.45238
20
-3.56404
11
3.45441
21
-3.56707
0
LINE
8
BLACK
6
CONTINUOUS
10
3.45441
20
-3.56707
11
3.45512
21
-3.57065
0
LINE
8
BLACK
6
CONTINUOUS
10
3.45512
20
-3.57065
11
3.45512
21
-3.58935
0
LINE
8
BLACK
6
CONTINUOUS
10
3.45512
20
-3.58935
11
3.45441
21
-3.59293
0
LINE
8
BLACK
6
CONTINUOUS
10
3.45441
20
-3.59293
11
3.45238
21
-3.59596
0
LINE
8
BLACK
6
CONTINUOUS
10
3.45238
20
-3.59596
11
3.44935
21
-3.59799
0
LINE
8
BLACK
6
CONTINUOUS
10
3.44935
20
-3.59799
11
3.44577
21
-3.5987
0
LINE
8
BLACK
6
CONTINUOUS
10
3.44577
20
-3.5987
11
3.42215
21
-3.5987
0
LINE
8
BLACK
6
CONTINUOUS
10
3.42215
20
-3.5987
11
3.41857
21
-3.59799
0
LINE
8
BLACK
6
CONTINUOUS
10
3.41857
20
-3.59799
11
3.41553
21
-3.59596
0
LINE
8
BLACK
6
CONTINUOUS
10
3.41553
20
-3.59596
11
3.41351
21
-3.59293
0
LINE
8
BLACK
6
CONTINUOUS
10
3.41351
20
-3.59293
11
3.4128
21
-3.58935
0
LINE
8
BLACK
6
CONTINUOUS
10
3.4128
20
-3.58935
11
3.4128
21
-3.57065
0
LINE
8
BLACK
6
CONTINUOUS
10
3.4128
20
-3.57065
11
3.41351
21
-3.56707
0
LINE
8
BLACK
6
CONTINUOUS
10
3.41351
20
-3.56707
11
3.41553
21
-3.56404
0
LINE
8
BLACK
6
CONTINUOUS
10
3.41553
20
-3.56404
11
3.41857
21
-3.56201
0
LINE
8
BLACK
6
CONTINUOUS
10
3.41857
20
-3.56201
11
3.42215
21
-3.5613
0
LINE
8
BLACK
6
CONTINUOUS
10
3.42215
20
-3.5613
11
3.44577
21
-3.5613
0
LINE
8
BLACK
6
CONTINUOUS
10
3.44577
20
-3.5613
11
3.44935
21
-3.56201
0
LINE
8
BLACK
6
CONTINUOUS
10
2.69452
20
-3.50756
11
2.69756
21
-3.50959
0
LINE
8
BLACK
6
CONTINUOUS
10
2.69756
20
-3.50959
11
2.69958
21
-3.51262
0
LINE
8
BLACK
6
CONTINUOUS
10
2.69958
20
-3.51262
11
2.7003
21
-3.5162
0
LINE
8
BLACK
6
CONTINUOUS
10
2.7003
20
-3.5162
11
2.7003
21
-3.5349
0
LINE
8
BLACK
6
CONTINUOUS
10
2.7003
20
-3.5349
11
2.69958
21
-3.53848
0
LINE
8
BLACK
6
CONTINUOUS
10
2.69958
20
-3.53848
11
2.69756
21
-3.54151
0
LINE
8
BLACK
6
CONTINUOUS
10
2.69756
20
-3.54151
11
2.69452
21
-3.54354
0
LINE
8
BLACK
6
CONTINUOUS
10
2.69452
20
-3.54354
11
2.69094
21
-3.54425
0
LINE
8
BLACK
6
CONTINUOUS
10
2.69094
20
-3.54425
11
2.67126
21
-3.54425
0
LINE
8
BLACK
6
CONTINUOUS
10
2.67126
20
-3.54425
11
2.66768
21
-3.54354
0
LINE
8
BLACK
6
CONTINUOUS
10
2.66768
20
-3.54354
11
2.66465
21
-3.54151
0
LINE
8
BLACK
6
CONTINUOUS
10
2.66465
20
-3.54151
11
2.66262
21
-3.53848
0
LINE
8
BLACK
6
CONTINUOUS
10
2.66262
20
-3.53848
11
2.66191
21
-3.5349
0
LINE
8
BLACK
6
CONTINUOUS
10
2.66191
20
-3.5349
11
2.66191
21
-3.5162
0
LINE
8
BLACK
6
CONTINUOUS
10
2.66191
20
-3.5162
11
2.66262
21
-3.51262
0
LINE
8
BLACK
6
CONTINUOUS
10
2.66262
20
-3.51262
11
2.66465
21
-3.50959
0
LINE
8
BLACK
6
CONTINUOUS
10
2.66465
20
-3.50959
11
2.66768
21
-3.50756
0
LINE
8
BLACK
6
CONTINUOUS
10
2.66768
20
-3.50756
11
2.67126
21
-3.50685
0
LINE
8
BLACK
6
CONTINUOUS
10
2.67126
20
-3.50685
11
2.69094
21
-3.50685
0
LINE
8
BLACK
6
CONTINUOUS
10
2.69094
20
-3.50685
11
2.69452
21
-3.50756
0
LINE
8
BLACK
6
CONTINUOUS
10
2.76637
20
-3.50756
11
2.76941
21
-3.50959
0
LINE
8
BLACK
6
CONTINUOUS
10
2.76941
20
-3.50959
11
2.77143
21
-3.51262
0
LINE
8
BLACK
6
CONTINUOUS
10
2.77143
20
-3.51262
11
2.77215
21
-3.5162
0
LINE
8
BLACK
6
CONTINUOUS
10
2.77215
20
-3.5162
11
2.77215
21
-3.5349
0
LINE
8
BLACK
6
CONTINUOUS
10
2.77215
20
-3.5349
11
2.77143
21
-3.53848
0
LINE
8
BLACK
6
CONTINUOUS
10
2.77143
20
-3.53848
11
2.76941
21
-3.54151
0
LINE
8
BLACK
6
CONTINUOUS
10
2.76941
20
-3.54151
11
2.76637
21
-3.54354
0
LINE
8
BLACK
6
CONTINUOUS
10
2.76637
20
-3.54354
11
2.7628
21
-3.54425
0
LINE
8
BLACK
6
CONTINUOUS
10
2.7628
20
-3.54425
11
2.74311
21
-3.54425
0
LINE
8
BLACK
6
CONTINUOUS
10
2.74311
20
-3.54425
11
2.73953
21
-3.54354
0
LINE
8
BLACK
6
CONTINUOUS
10
2.73953
20
-3.54354
11
2.7365
21
-3.54151
0
LINE
8
BLACK
6
CONTINUOUS
10
2.7365
20
-3.54151
11
2.73447
21
-3.53848
0
LINE
8
BLACK
6
CONTINUOUS
10
2.73447
20
-3.53848
11
2.73376
21
-3.5349
0
LINE
8
BLACK
6
CONTINUOUS
10
2.73376
20
-3.5349
11
2.73376
21
-3.5162
0
LINE
8
BLACK
6
CONTINUOUS
10
2.73376
20
-3.5162
11
2.73447
21
-3.51262
0
LINE
8
BLACK
6
CONTINUOUS
10
2.73447
20
-3.51262
11
2.7365
21
-3.50959
0
LINE
8
BLACK
6
CONTINUOUS
10
2.7365
20
-3.50959
11
2.73953
21
-3.50756
0
LINE
8
BLACK
6
CONTINUOUS
10
2.73953
20
-3.50756
11
2.74311
21
-3.50685
0
LINE
8
BLACK
6
CONTINUOUS
10
2.74311
20
-3.50685
11
2.7628
21
-3.50685
0
LINE
8
BLACK
6
CONTINUOUS
10
2.7628
20
-3.50685
11
2.76637
21
-3.50756
0
LINE
8
BLACK
6
CONTINUOUS
10
2.84094
20
-3.53657
11
2.81339
21
-3.53657
0
LINE
8
BLACK
6
CONTINUOUS
10
2.81339
20
-3.53657
11
2.81339
21
-3.4913
0
LINE
8
BLACK
6
CONTINUOUS
10
2.81339
20
-3.4913
11
2.84094
21
-3.4913
0
LINE
8
BLACK
6
CONTINUOUS
10
2.84094
20
-3.4913
11
2.84094
21
-3.53657
0
LINE
8
BLACK
6
CONTINUOUS
10
3.32244
20
-3.50399
11
3.32435
21
-3.50527
0
LINE
8
BLACK
6
CONTINUOUS
10
3.32435
20
-3.50527
11
3.32563
21
-3.50719
0
LINE
8
BLACK
6
CONTINUOUS
10
3.32563
20
-3.50719
11
3.32608
21
-3.50945
0
LINE
8
BLACK
6
CONTINUOUS
10
3.32608
20
-3.50945
11
3.32608
21
-3.52126
0
LINE
8
BLACK
6
CONTINUOUS
10
3.32608
20
-3.52126
11
3.32563
21
-3.52352
0
LINE
8
BLACK
6
CONTINUOUS
10
3.32563
20
-3.52352
11
3.32435
21
-3.52544
0
LINE
8
BLACK
6
CONTINUOUS
10
3.32435
20
-3.52544
11
3.32244
21
-3.52672
0
LINE
8
BLACK
6
CONTINUOUS
10
3.32244
20
-3.52672
11
3.32018
21
-3.52717
0
LINE
8
BLACK
6
CONTINUOUS
10
3.32018
20
-3.52717
11
3.27982
21
-3.52717
0
LINE
8
BLACK
6
CONTINUOUS
10
3.27982
20
-3.52717
11
3.27756
21
-3.52672
0
LINE
8
BLACK
6
CONTINUOUS
10
3.27756
20
-3.52672
11
3.27565
21
-3.52544
0
LINE
8
BLACK
6
CONTINUOUS
10
3.27565
20
-3.52544
11
3.27437
21
-3.52352
0
LINE
8
BLACK
6
CONTINUOUS
10
3.27437
20
-3.52352
11
3.27392
21
-3.52126
0
LINE
8
BLACK
6
CONTINUOUS
10
3.27392
20
-3.52126
11
3.27392
21
-3.50945
0
LINE
8
BLACK
6
CONTINUOUS
10
3.27392
20
-3.50945
11
3.27437
21
-3.50719
0
LINE
8
BLACK
6
CONTINUOUS
10
3.27437
20
-3.50719
11
3.27565
21
-3.50527
0
LINE
8
BLACK
6
CONTINUOUS
10
3.27565
20
-3.50527
11
3.27756
21
-3.50399
0
LINE
8
BLACK
6
CONTINUOUS
10
3.27756
20
-3.50399
11
3.27982
21
-3.50354
0
LINE
8
BLACK
6
CONTINUOUS
10
3.27982
20
-3.50354
11
3.32018
21
-3.50354
0
LINE
8
BLACK
6
CONTINUOUS
10
3.32018
20
-3.50354
11
3.32244
21
-3.50399
0
LINE
8
BLACK
6
CONTINUOUS
10
3.412
20
-3.50399
11
3.41392
21
-3.50527
0
LINE
8
BLACK
6
CONTINUOUS
10
3.41392
20
-3.50527
11
3.4152
21
-3.50719
0
LINE
8
BLACK
6
CONTINUOUS
10
3.4152
20
-3.50719
11
3.41565
21
-3.50945
0
LINE
8
BLACK
6
CONTINUOUS
10
3.41565
20
-3.50945
11
3.41565
21
-3.52126
0
LINE
8
BLACK
6
CONTINUOUS
10
3.41565
20
-3.52126
11
3.4152
21
-3.52352
0
LINE
8
BLACK
6
CONTINUOUS
10
3.4152
20
-3.52352
11
3.41392
21
-3.52544
0
LINE
8
BLACK
6
CONTINUOUS
10
3.41392
20
-3.52544
11
3.412
21
-3.52672
0
LINE
8
BLACK
6
CONTINUOUS
10
3.412
20
-3.52672
11
3.40974
21
-3.52717
0
LINE
8
BLACK
6
CONTINUOUS
10
3.40974
20
-3.52717
11
3.36939
21
-3.52717
0
LINE
8
BLACK
6
CONTINUOUS
10
3.36939
20
-3.52717
11
3.36713
21
-3.52672
0
LINE
8
BLACK
6
CONTINUOUS
10
3.36713
20
-3.52672
11
3.36521
21
-3.52544
0
LINE
8
BLACK
6
CONTINUOUS
10
3.36521
20
-3.52544
11
3.36393
21
-3.52352
0
LINE
8
BLACK
6
CONTINUOUS
10
3.36393
20
-3.52352
11
3.36348
21
-3.52126
0
LINE
8
BLACK
6
CONTINUOUS
10
3.36348
20
-3.52126
11
3.36348
21
-3.50945
0
LINE
8
BLACK
6
CONTINUOUS
10
3.36348
20
-3.50945
11
3.36393
21
-3.50719
0
LINE
8
BLACK
6
CONTINUOUS
10
3.36393
20
-3.50719
11
3.36521
21
-3.50527
0
LINE
8
BLACK
6
CONTINUOUS
10
3.36521
20
-3.50527
11
3.36713
21
-3.50399
0
LINE
8
BLACK
6
CONTINUOUS
10
3.36713
20
-3.50399
11
3.36939
21
-3.50354
0
LINE
8
BLACK
6
CONTINUOUS
10
3.36939
20
-3.50354
11
3.40974
21
-3.50354
0
LINE
8
BLACK
6
CONTINUOUS
10
3.40974
20
-3.50354
11
3.412
21
-3.50399
0
LINE
8
BLACK
6
CONTINUOUS
10
2.86102
20
-3.50055
11
2.84606
21
-3.50055
0
LINE
8
BLACK
6
CONTINUOUS
10
2.84606
20
-3.50055
11
2.84606
21
-3.46118
0
LINE
8
BLACK
6
CONTINUOUS
10
2.84606
20
-3.46118
11
2.86102
21
-3.46118
0
LINE
8
BLACK
6
CONTINUOUS
10
2.86102
20
-3.46118
11
2.86102
21
-3.50055
0
LINE
8
BLACK
6
CONTINUOUS
10
2.88071
20
-3.50055
11
2.86575
21
-3.50055
0
LINE
8
BLACK
6
CONTINUOUS
10
2.86575
20
-3.50055
11
2.86575
21
-3.46118
0
LINE
8
BLACK
6
CONTINUOUS
10
2.86575
20
-3.46118
11
2.88071
21
-3.46118
0
LINE
8
BLACK
6
CONTINUOUS
10
2.88071
20
-3.46118
11
2.88071
21
-3.50055
0
LINE
8
BLACK
6
CONTINUOUS
10
2.90039
20
-3.50055
11
2.88543
21
-3.50055
0
LINE
8
BLACK
6
CONTINUOUS
10
2.88543
20
-3.50055
11
2.88543
21
-3.46118
0
LINE
8
BLACK
6
CONTINUOUS
10
2.88543
20
-3.46118
11
2.90039
21
-3.46118
0
LINE
8
BLACK
6
CONTINUOUS
10
2.90039
20
-3.46118
11
2.90039
21
-3.50055
0
LINE
8
BLACK
6
CONTINUOUS
10
2.92008
20
-3.50055
11
2.90512
21
-3.50055
0
LINE
8
BLACK
6
CONTINUOUS
10
2.90512
20
-3.50055
11
2.90512
21
-3.46118
0
LINE
8
BLACK
6
CONTINUOUS
10
2.90512
20
-3.46118
11
2.92008
21
-3.46118
0
LINE
8
BLACK
6
CONTINUOUS
10
2.92008
20
-3.46118
11
2.92008
21
-3.50055
0
LINE
8
BLACK
6
CONTINUOUS
10
2.93976
20
-3.50055
11
2.9248
21
-3.50055
0
LINE
8
BLACK
6
CONTINUOUS
10
2.9248
20
-3.50055
11
2.9248
21
-3.46118
0
LINE
8
BLACK
6
CONTINUOUS
10
2.9248
20
-3.46118
11
2.93976
21
-3.46118
0
LINE
8
BLACK
6
CONTINUOUS
10
2.93976
20
-3.46118
11
2.93976
21
-3.50055
0
LINE
8
BLACK
6
CONTINUOUS
10
2.95945
20
-3.50055
11
2.94449
21
-3.50055
0
LINE
8
BLACK
6
CONTINUOUS
10
2.94449
20
-3.50055
11
2.94449
21
-3.46118
0
LINE
8
BLACK
6
CONTINUOUS
10
2.94449
20
-3.46118
11
2.95945
21
-3.46118
0
LINE
8
BLACK
6
CONTINUOUS
10
2.95945
20
-3.46118
11
2.95945
21
-3.50055
0
LINE
8
BLACK
6
CONTINUOUS
10
2.97913
20
-3.50055
11
2.96417
21
-3.50055
0
LINE
8
BLACK
6
CONTINUOUS
10
2.96417
20
-3.50055
11
2.96417
21
-3.46118
0
LINE
8
BLACK
6
CONTINUOUS
10
2.96417
20
-3.46118
11
2.97913
21
-3.46118
0
LINE
8
BLACK
6
CONTINUOUS
10
2.97913
20
-3.46118
11
2.97913
21
-3.50055
0
LINE
8
BLACK
6
CONTINUOUS
10
2.99882
20
-3.50055
11
2.98386
21
-3.50055
0
LINE
8
BLACK
6
CONTINUOUS
10
2.98386
20
-3.50055
11
2.98386
21
-3.46118
0
LINE
8
BLACK
6
CONTINUOUS
10
2.98386
20
-3.46118
11
2.99882
21
-3.46118
0
LINE
8
BLACK
6
CONTINUOUS
10
2.99882
20
-3.46118
11
2.99882
21
-3.50055
0
LINE
8
BLACK
6
CONTINUOUS
10
3.0185
20
-3.50055
11
3.00354
21
-3.50055
0
LINE
8
BLACK
6
CONTINUOUS
10
3.00354
20
-3.50055
11
3.00354
21
-3.46118
0
LINE
8
BLACK
6
CONTINUOUS
10
3.00354
20
-3.46118
11
3.0185
21
-3.46118
0
LINE
8
BLACK
6
CONTINUOUS
10
3.0185
20
-3.46118
11
3.0185
21
-3.50055
0
LINE
8
BLACK
6
CONTINUOUS
10
3.03819
20
-3.50055
11
3.02323
21
-3.50055
0
LINE
8
BLACK
6
CONTINUOUS
10
3.02323
20
-3.50055
11
3.02323
21
-3.46118
0
LINE
8
BLACK
6
CONTINUOUS
10
3.02323
20
-3.46118
11
3.03819
21
-3.46118
0
LINE
8
BLACK
6
CONTINUOUS
10
3.03819
20
-3.46118
11
3.03819
21
-3.50055
0
LINE
8
BLACK
6
CONTINUOUS
10
3.05787
20
-3.50055
11
3.04291
21
-3.50055
0
LINE
8
BLACK
6
CONTINUOUS
10
3.04291
20
-3.50055
11
3.04291
21
-3.46118
0
LINE
8
BLACK
6
CONTINUOUS
10
3.04291
20
-3.46118
11
3.05787
21
-3.46118
0
LINE
8
BLACK
6
CONTINUOUS
10
3.05787
20
-3.46118
11
3.05787
21
-3.50055
0
LINE
8
BLACK
6
CONTINUOUS
10
3.07756
20
-3.50055
11
3.0626
21
-3.50055
0
LINE
8
BLACK
6
CONTINUOUS
10
3.0626
20
-3.50055
11
3.0626
21
-3.46118
0
LINE
8
BLACK
6
CONTINUOUS
10
3.0626
20
-3.46118
11
3.07756
21
-3.46118
0
LINE
8
BLACK
6
CONTINUOUS
10
3.07756
20
-3.46118
11
3.07756
21
-3.50055
0
LINE
8
BLACK
6
CONTINUOUS
10
3.32244
20
-3.46659
11
3.32435
21
-3.46787
0
LINE
8
BLACK
6
CONTINUOUS
10
3.32435
20
-3.46787
11
3.32563
21
-3.46979
0
LINE
8
BLACK
6
CONTINUOUS
10
3.32563
20
-3.46979
11
3.32608
21
-3.47205
0
LINE
8
BLACK
6
CONTINUOUS
10
3.32608
20
-3.47205
11
3.32608
21
-3.48386
0
LINE
8
BLACK
6
CONTINUOUS
10
3.32608
20
-3.48386
11
3.32563
21
-3.48612
0
LINE
8
BLACK
6
CONTINUOUS
10
3.32563
20
-3.48612
11
3.32435
21
-3.48803
0
LINE
8
BLACK
6
CONTINUOUS
10
3.32435
20
-3.48803
11
3.32244
21
-3.48931
0
LINE
8
BLACK
6
CONTINUOUS
10
3.32244
20
-3.48931
11
3.32018
21
-3.48976
0
LINE
8
BLACK
6
CONTINUOUS
10
3.32018
20
-3.48976
11
3.27982
21
-3.48976
0
LINE
8
BLACK
6
CONTINUOUS
10
3.27982
20
-3.48976
11
3.27756
21
-3.48931
0
LINE
8
BLACK
6
CONTINUOUS
10
3.27756
20
-3.48931
11
3.27565
21
-3.48803
0
LINE
8
BLACK
6
CONTINUOUS
10
3.27565
20
-3.48803
11
3.27437
21
-3.48612
0
LINE
8
BLACK
6
CONTINUOUS
10
3.27437
20
-3.48612
11
3.27392
21
-3.48386
0
LINE
8
BLACK
6
CONTINUOUS
10
3.27392
20
-3.48386
11
3.27392
21
-3.47205
0
LINE
8
BLACK
6
CONTINUOUS
10
3.27392
20
-3.47205
11
3.27437
21
-3.46979
0
LINE
8
BLACK
6
CONTINUOUS
10
3.27437
20
-3.46979
11
3.27565
21
-3.46787
0
LINE
8
BLACK
6
CONTINUOUS
10
3.27565
20
-3.46787
11
3.27756
21
-3.46659
0
LINE
8
BLACK
6
CONTINUOUS
10
3.27756
20
-3.46659
11
3.27982
21
-3.46614
0
LINE
8
BLACK
6
CONTINUOUS
10
3.27982
20
-3.46614
11
3.32018
21
-3.46614
0
LINE
8
BLACK
6
CONTINUOUS
10
3.32018
20
-3.46614
11
3.32244
21
-3.46659
0
LINE
8
BLACK
6
CONTINUOUS
10
3.32244
20
-3.42919
11
3.32435
21
-3.43047
0
LINE
8
BLACK
6
CONTINUOUS
10
3.32435
20
-3.43047
11
3.32563
21
-3.43239
0
LINE
8
BLACK
6
CONTINUOUS
10
3.32563
20
-3.43239
11
3.32608
21
-3.43465
0
LINE
8
BLACK
6
CONTINUOUS
10
3.32608
20
-3.43465
11
3.32608
21
-3.44646
0
LINE
8
BLACK
6
CONTINUOUS
10
3.32608
20
-3.44646
11
3.32563
21
-3.44872
0
LINE
8
BLACK
6
CONTINUOUS
10
3.32563
20
-3.44872
11
3.32435
21
-3.45063
0
LINE
8
BLACK
6
CONTINUOUS
10
3.32435
20
-3.45063
11
3.32244
21
-3.45191
0
LINE
8
BLACK
6
CONTINUOUS
10
3.32244
20
-3.45191
11
3.32018
21
-3.45236
0
LINE
8
BLACK
6
CONTINUOUS
10
3.32018
20
-3.45236
11
3.27982
21
-3.45236
0
LINE
8
BLACK
6
CONTINUOUS
10
3.27982
20
-3.45236
11
3.27756
21
-3.45191
0
LINE
8
BLACK
6
CONTINUOUS
10
3.27756
20
-3.45191
11
3.27565
21
-3.45063
0
LINE
8
BLACK
6
CONTINUOUS
10
3.27565
20
-3.45063
11
3.27437
21
-3.44872
0
LINE
8
BLACK
6
CONTINUOUS
10
3.27437
20
-3.44872
11
3.27392
21
-3.44646
0
LINE
8
BLACK
6
CONTINUOUS
10
3.27392
20
-3.44646
11
3.27392
21
-3.43465
0
LINE
8
BLACK
6
CONTINUOUS
10
3.27392
20
-3.43465
11
3.27437
21
-3.43239
0
LINE
8
BLACK
6
CONTINUOUS
10
3.27437
20
-3.43239
11
3.27565
21
-3.43047
0
LINE
8
BLACK
6
CONTINUOUS
10
3.27565
20
-3.43047
11
3.27756
21
-3.42919
0
LINE
8
BLACK
6
CONTINUOUS
10
3.27756
20
-3.42919
11
3.27982
21
-3.42874
0
LINE
8
BLACK
6
CONTINUOUS
10
3.27982
20
-3.42874
11
3.32018
21
-3.42874
0
LINE
8
BLACK
6
CONTINUOUS
10
3.32018
20
-3.42874
11
3.32244
21
-3.42919
0
LINE
8
BLACK
6
CONTINUOUS
10
3.412
20
-3.42919
11
3.41392
21
-3.43047
0
LINE
8
BLACK
6
CONTINUOUS
10
3.41392
20
-3.43047
11
3.4152
21
-3.43239
0
LINE
8
BLACK
6
CONTINUOUS
10
3.4152
20
-3.43239
11
3.41565
21
-3.43465
0
LINE
8
BLACK
6
CONTINUOUS
10
3.41565
20
-3.43465
11
3.41565
21
-3.44646
0
LINE
8
BLACK
6
CONTINUOUS
10
3.41565
20
-3.44646
11
3.4152
21
-3.44872
0
LINE
8
BLACK
6
CONTINUOUS
10
3.4152
20
-3.44872
11
3.41392
21
-3.45063
0
LINE
8
BLACK
6
CONTINUOUS
10
3.41392
20
-3.45063
11
3.412
21
-3.45191
0
LINE
8
BLACK
6
CONTINUOUS
10
3.412
20
-3.45191
11
3.40974
21
-3.45236
0
LINE
8
BLACK
6
CONTINUOUS
10
3.40974
20
-3.45236
11
3.36939
21
-3.45236
0
LINE
8
BLACK
6
CONTINUOUS
10
3.36939
20
-3.45236
11
3.36713
21
-3.45191
0
LINE
8
BLACK
6
CONTINUOUS
10
3.36713
20
-3.45191
11
3.36521
21
-3.45063
0
LINE
8
BLACK
6
CONTINUOUS
10
3.36521
20
-3.45063
11
3.36393
21
-3.44872
0
LINE
8
BLACK
6
CONTINUOUS
10
3.36393
20
-3.44872
11
3.36348
21
-3.44646
0
LINE
8
BLACK
6
CONTINUOUS
10
3.36348
20
-3.44646
11
3.36348
21
-3.43465
0
LINE
8
BLACK
6
CONTINUOUS
10
3.36348
20
-3.43465
11
3.36393
21
-3.43239
0
LINE
8
BLACK
6
CONTINUOUS
10
3.36393
20
-3.43239
11
3.36521
21
-3.43047
0
LINE
8
BLACK
6
CONTINUOUS
10
3.36521
20
-3.43047
11
3.36713
21
-3.42919
0
LINE
8
BLACK
6
CONTINUOUS
10
3.36713
20
-3.42919
11
3.36939
21
-3.42874
0
LINE
8
BLACK
6
CONTINUOUS
10
3.36939
20
-3.42874
11
3.40974
21
-3.42874
0
LINE
8
BLACK
6
CONTINUOUS
10
3.40974
20
-3.42874
11
3.412
21
-3.42919
  0
ENDSEC
  0
EOF
