  0
SECTION
  2
HEADER
  9
$ANGBASE
  50
0.0
  9
$ANGDIR
  70
1
  9
$MEASUREMENT
  70
0
  0
ENDSEC
  0
SECTION
  2
TABLES
  0
TABLE
  2
LTYPE
  70
4
  0
LTYPE
  5
40F
  2
CONTINUOUS
  70
0
  3
Solid line
  72
65
  73
0
  40
0.0
  0
LTYPE
  5
410
  2
DASHDOT
 70
0
  3
Dash Dot ____ _ ____ _
 72
65
 73
4
 40
2.0
 49
1.25
 49
-0.25
 49
0.25
 49
-0.25
  0
LTYPE
  5
411
  2
DASHED
 70
0
  3
Dashed __ __ __ __ __
 72
65
 73
2
 40
0.75
 49
0.5
 49
-0.25
  0
LTYPE
  5
43B
  2
DOTTED
 70
0
  3
Dotted .  .  .  .
 72
65
 73
2
 40
0.2
 49
0.0
 49
-0.2
  0
ENDTAB
  0
TABLE
  2
STYLE
  70
4
  0
STYLE
  2
KICAD
  70
0
  40
0
  41
1
  42
1
  50
0
  71
0
  3
isocp.shx
  0
STYLE
  2
KICADB
  70
0
  40
0
  41
1
  42
1
  50
0
  71
0
  3
isocp.shx
  0
STYLE
  2
KICADI
  70
0
  40
0
  41
1
  42
1
  50
15
  71
0
  3
isocp.shx
  0
STYLE
  2
KICADBI
  70
0
  40
0
  41
1
  42
1
  50
15
  71
0
  3
isocp.shx
  0
ENDTAB
  0
TABLE
  2
LAYER
  70
1
  0
LAYER
  2
BLACK
  70
0
  62
7
  6
CONTINUOUS
  0
ENDTAB
  0
ENDSEC
  0
SECTION
  2
ENTITIES
0
LINE
8
BLACK
6
CONTINUOUS
10
2.76693
20
-3.464
11
2.81339
21
-3.51046
0
LINE
8
BLACK
6
CONTINUOUS
10
2.81339
20
-3.51046
11
2.81339
21
-3.4913
0
LINE
8
BLACK
6
CONTINUOUS
10
2.81339
20
-3.4913
11
2.84094
21
-3.4913
0
LINE
8
BLACK
6
CONTINUOUS
10
2.84094
20
-3.4913
11
2.84094
21
-3.49668
0
LINE
8
BLACK
6
CONTINUOUS
10
2.84094
20
-3.49668
11
2.84606
21
-3.49156
0
LINE
8
BLACK
6
CONTINUOUS
10
2.84606
20
-3.49156
11
2.84606
21
-3.46118
0
LINE
8
BLACK
6
CONTINUOUS
10
2.84606
20
-3.46118
11
2.86102
21
-3.46118
0
LINE
8
BLACK
6
CONTINUOUS
10
2.86102
20
-3.46118
11
2.86102
21
-3.50055
0
LINE
8
BLACK
6
CONTINUOUS
10
2.86102
20
-3.50055
11
2.84606
21
-3.50055
0
LINE
8
BLACK
6
CONTINUOUS
10
2.84606
20
-3.50055
11
2.84606
21
-3.49852
0
LINE
8
BLACK
6
CONTINUOUS
10
2.84606
20
-3.49852
11
2.84094
21
-3.50364
0
LINE
8
BLACK
6
CONTINUOUS
10
2.84094
20
-3.50364
11
2.84094
21
-3.53657
0
LINE
8
BLACK
6
CONTINUOUS
10
2.84094
20
-3.53657
11
2.81339
21
-3.53657
0
LINE
8
BLACK
6
CONTINUOUS
10
2.81339
20
-3.53657
11
2.81339
21
-3.5164
0
LINE
8
BLACK
6
CONTINUOUS
10
2.81339
20
-3.5164
11
2.81216
21
-3.51589
0
LINE
8
BLACK
6
CONTINUOUS
10
2.81216
20
-3.51589
11
2.81165
21
-3.51568
0
LINE
8
BLACK
6
CONTINUOUS
10
2.81165
20
-3.51568
11
2.76542
21
-3.46945
0
LINE
8
BLACK
6
CONTINUOUS
10
2.76542
20
-3.46945
11
2.71135
21
-3.46945
0
LINE
8
BLACK
6
CONTINUOUS
10
2.71135
20
-3.46945
11
2.68356
21
-3.49724
0
LINE
8
BLACK
6
CONTINUOUS
10
2.68356
20
-3.49724
11
2.68356
21
-3.50685
0
LINE
8
BLACK
6
CONTINUOUS
10
2.68356
20
-3.50685
11
2.69094
21
-3.50685
0
LINE
8
BLACK
6
CONTINUOUS
10
2.69094
20
-3.50685
11
2.69452
21
-3.50756
0
LINE
8
BLACK
6
CONTINUOUS
10
2.69452
20
-3.50756
11
2.69756
21
-3.50959
0
LINE
8
BLACK
6
CONTINUOUS
10
2.69756
20
-3.50959
11
2.69958
21
-3.51262
0
LINE
8
BLACK
6
CONTINUOUS
10
2.69958
20
-3.51262
11
2.7003
21
-3.5162
0
LINE
8
BLACK
6
CONTINUOUS
10
2.7003
20
-3.5162
11
2.7003
21
-3.5349
0
LINE
8
BLACK
6
CONTINUOUS
10
2.7003
20
-3.5349
11
2.69958
21
-3.53848
0
LINE
8
BLACK
6
CONTINUOUS
10
2.69958
20
-3.53848
11
2.69756
21
-3.54151
0
LINE
8
BLACK
6
CONTINUOUS
10
2.69756
20
-3.54151
11
2.69452
21
-3.54354
0
LINE
8
BLACK
6
CONTINUOUS
10
2.69452
20
-3.54354
11
2.69094
21
-3.54425
0
LINE
8
BLACK
6
CONTINUOUS
10
2.69094
20
-3.54425
11
2.68356
21
-3.54425
0
LINE
8
BLACK
6
CONTINUOUS
10
2.68356
20
-3.54425
11
2.68356
21
-3.54993
0
LINE
8
BLACK
6
CONTINUOUS
10
2.68356
20
-3.54993
11
2.76844
21
-3.6348
0
LINE
8
BLACK
6
CONTINUOUS
10
2.76844
20
-3.6348
11
2.79252
21
-3.6348
0
LINE
8
BLACK
6
CONTINUOUS
10
2.79252
20
-3.6348
11
2.79252
21
-3.64612
0
LINE
8
BLACK
6
CONTINUOUS
10
2.79252
20
-3.64612
11
2.81614
21
-3.64612
0
LINE
8
BLACK
6
CONTINUOUS
10
2.81614
20
-3.64612
11
2.81614
21
-3.6348
0
LINE
8
BLACK
6
CONTINUOUS
10
2.81614
20
-3.6348
11
2.83189
21
-3.6348
0
LINE
8
BLACK
6
CONTINUOUS
10
2.83189
20
-3.6348
11
2.83189
21
-3.64809
0
LINE
8
BLACK
6
CONTINUOUS
10
2.83189
20
-3.64809
11
2.84764
21
-3.64809
0
LINE
8
BLACK
6
CONTINUOUS
10
2.84764
20
-3.64809
11
2.84764
21
-3.6348
0
LINE
8
BLACK
6
CONTINUOUS
10
2.84764
20
-3.6348
11
2.86339
21
-3.6348
0
LINE
8
BLACK
6
CONTINUOUS
10
2.86339
20
-3.6348
11
2.86339
21
-3.64809
0
LINE
8
BLACK
6
CONTINUOUS
10
2.86339
20
-3.64809
11
2.87913
21
-3.64809
0
LINE
8
BLACK
6
CONTINUOUS
10
2.87913
20
-3.64809
11
2.87913
21
-3.6348
0
LINE
8
BLACK
6
CONTINUOUS
10
2.87913
20
-3.6348
11
2.89488
21
-3.6348
0
LINE
8
BLACK
6
CONTINUOUS
10
2.89488
20
-3.6348
11
2.89488
21
-3.64809
0
LINE
8
BLACK
6
CONTINUOUS
10
2.89488
20
-3.64809
11
2.91063
21
-3.64809
0
LINE
8
BLACK
6
CONTINUOUS
10
2.91063
20
-3.64809
11
2.91063
21
-3.6348
0
LINE
8
BLACK
6
CONTINUOUS
10
2.91063
20
-3.6348
11
2.92638
21
-3.6348
0
LINE
8
BLACK
6
CONTINUOUS
10
2.92638
20
-3.6348
11
2.92638
21
-3.64809
0
LINE
8
BLACK
6
CONTINUOUS
10
2.92638
20
-3.64809
11
2.94213
21
-3.64809
0
LINE
8
BLACK
6
CONTINUOUS
10
2.94213
20
-3.64809
11
2.94213
21
-3.6348
0
LINE
8
BLACK
6
CONTINUOUS
10
2.94213
20
-3.6348
11
2.95787
21
-3.6348
0
LINE
8
BLACK
6
CONTINUOUS
10
2.95787
20
-3.6348
11
2.95787
21
-3.64809
0
LINE
8
BLACK
6
CONTINUOUS
10
2.95787
20
-3.64809
11
2.97362
21
-3.64809
0
LINE
8
BLACK
6
CONTINUOUS
10
2.97362
20
-3.64809
11
2.97362
21
-3.6348
0
LINE
8
BLACK
6
CONTINUOUS
10
2.97362
20
-3.6348
11
2.98937
21
-3.6348
0
LINE
8
BLACK
6
CONTINUOUS
10
2.98937
20
-3.6348
11
2.98937
21
-3.64809
0
LINE
8
BLACK
6
CONTINUOUS
10
2.98937
20
-3.64809
11
3.00512
21
-3.64809
0
LINE
8
BLACK
6
CONTINUOUS
10
3.00512
20
-3.64809
11
3.00512
21
-3.6348
0
LINE
8
BLACK
6
CONTINUOUS
10
3.00512
20
-3.6348
11
3.02087
21
-3.6348
0
LINE
8
BLACK
6
CONTINUOUS
10
3.02087
20
-3.6348
11
3.02087
21
-3.64809
0
LINE
8
BLACK
6
CONTINUOUS
10
3.02087
20
-3.64809
11
3.03661
21
-3.64809
0
LINE
8
BLACK
6
CONTINUOUS
10
3.03661
20
-3.64809
11
3.03661
21
-3.6348
0
LINE
8
BLACK
6
CONTINUOUS
10
3.03661
20
-3.6348
11
3.05236
21
-3.6348
0
LINE
8
BLACK
6
CONTINUOUS
10
3.05236
20
-3.6348
11
3.05236
21
-3.64809
0
LINE
8
BLACK
6
CONTINUOUS
10
3.05236
20
-3.64809
11
3.06811
21
-3.64809
0
LINE
8
BLACK
6
CONTINUOUS
10
3.06811
20
-3.64809
11
3.06811
21
-3.6348
0
LINE
8
BLACK
6
CONTINUOUS
10
3.06811
20
-3.6348
11
3.08386
21
-3.6348
0
LINE
8
BLACK
6
CONTINUOUS
10
3.08386
20
-3.6348
11
3.08386
21
-3.64809
0
LINE
8
BLACK
6
CONTINUOUS
10
3.08386
20
-3.64809
11
3.09961
21
-3.64809
0
LINE
8
BLACK
6
CONTINUOUS
10
3.09961
20
-3.64809
11
3.09961
21
-3.6348
0
LINE
8
BLACK
6
CONTINUOUS
10
3.09961
20
-3.6348
11
3.11535
21
-3.6348
0
LINE
8
BLACK
6
CONTINUOUS
10
3.11535
20
-3.6348
11
3.11535
21
-3.64809
0
LINE
8
BLACK
6
CONTINUOUS
10
3.11535
20
-3.64809
11
3.1311
21
-3.64809
0
LINE
8
BLACK
6
CONTINUOUS
10
3.1311
20
-3.64809
11
3.1311
21
-3.6348
0
LINE
8
BLACK
6
CONTINUOUS
10
3.1311
20
-3.6348
11
3.14685
21
-3.6348
0
LINE
8
BLACK
6
CONTINUOUS
10
3.14685
20
-3.6348
11
3.14685
21
-3.64809
0
LINE
8
BLACK
6
CONTINUOUS
10
3.14685
20
-3.64809
11
3.1626
21
-3.64809
0
LINE
8
BLACK
6
CONTINUOUS
10
3.1626
20
-3.64809
11
3.1626
21
-3.6348
0
LINE
8
BLACK
6
CONTINUOUS
10
3.1626
20
-3.6348
11
3.17835
21
-3.6348
0
LINE
8
BLACK
6
CONTINUOUS
10
3.17835
20
-3.6348
11
3.17835
21
-3.64809
0
LINE
8
BLACK
6
CONTINUOUS
10
3.17835
20
-3.64809
11
3.19409
21
-3.64809
0
LINE
8
BLACK
6
CONTINUOUS
10
3.19409
20
-3.64809
11
3.19409
21
-3.6348
0
LINE
8
BLACK
6
CONTINUOUS
10
3.19409
20
-3.6348
11
3.20984
21
-3.6348
0
LINE
8
BLACK
6
CONTINUOUS
10
3.20984
20
-3.6348
11
3.20984
21
-3.64809
0
LINE
8
BLACK
6
CONTINUOUS
10
3.20984
20
-3.64809
11
3.23346
21
-3.64809
0
LINE
8
BLACK
6
CONTINUOUS
10
3.23346
20
-3.64809
11
3.23346
21
-3.6348
0
LINE
8
BLACK
6
CONTINUOUS
10
3.23346
20
-3.6348
11
3.26102
21
-3.6348
0
LINE
8
BLACK
6
CONTINUOUS
10
3.26102
20
-3.6348
11
3.26102
21
-3.64612
0
LINE
8
BLACK
6
CONTINUOUS
10
3.26102
20
-3.64612
11
3.29491
21
-3.64612
0
LINE
8
BLACK
6
CONTINUOUS
10
3.29491
20
-3.64612
11
3.30652
21
-3.63451
0
LINE
8
BLACK
6
CONTINUOUS
10
3.30652
20
-3.63451
11
3.1843
21
-3.51229
0
LINE
8
BLACK
6
CONTINUOUS
10
3.1843
20
-3.51229
11
3.18358
21
-3.51055
0
LINE
8
BLACK
6
CONTINUOUS
10
3.18358
20
-3.51055
11
3.1843
21
-3.50881
0
LINE
8
BLACK
6
CONTINUOUS
10
3.1843
20
-3.50881
11
3.1843
21
-3.50881
0
LINE
8
BLACK
6
CONTINUOUS
10
3.1843
20
-3.50881
11
3.2169
21
-3.47621
0
LINE
8
BLACK
6
CONTINUOUS
10
3.2169
20
-3.47621
11
3.21841
21
-3.47559
0
LINE
8
BLACK
6
CONTINUOUS
10
3.21841
20
-3.47559
11
3.21227
21
-3.46945
0
LINE
8
BLACK
6
CONTINUOUS
10
3.21227
20
-3.46945
11
3.16017
21
-3.46945
0
LINE
8
BLACK
6
CONTINUOUS
10
3.16017
20
-3.46945
11
3.13658
21
-3.49304
0
LINE
8
BLACK
6
CONTINUOUS
10
3.13658
20
-3.49304
11
3.13484
21
-3.49376
0
LINE
8
BLACK
6
CONTINUOUS
10
3.13484
20
-3.49376
11
3.07756
21
-3.49376
0
LINE
8
BLACK
6
CONTINUOUS
10
3.07756
20
-3.49376
11
3.07756
21
-3.50055
0
LINE
8
BLACK
6
CONTINUOUS
10
3.07756
20
-3.50055
11
3.0626
21
-3.50055
0
LINE
8
BLACK
6
CONTINUOUS
10
3.0626
20
-3.50055
11
3.0626
21
-3.46118
0
LINE
8
BLACK
6
CONTINUOUS
10
3.0626
20
-3.46118
11
3.07756
21
-3.46118
0
LINE
8
BLACK
6
CONTINUOUS
10
3.07756
20
-3.46118
11
3.07756
21
-3.48884
0
LINE
8
BLACK
6
CONTINUOUS
10
3.07756
20
-3.48884
11
3.13382
21
-3.48884
0
LINE
8
BLACK
6
CONTINUOUS
10
3.13382
20
-3.48884
11
3.15669
21
-3.46597
0
LINE
8
BLACK
6
CONTINUOUS
10
3.15669
20
-3.46597
11
3.15669
21
-3.41039
0
LINE
8
BLACK
6
CONTINUOUS
10
3.15669
20
-3.41039
11
3.21575
21
-3.41039
0
LINE
8
BLACK
6
CONTINUOUS
10
3.21575
20
-3.41039
11
3.21575
21
-3.46597
0
LINE
8
BLACK
6
CONTINUOUS
10
3.21575
20
-3.46597
11
3.22527
21
-3.47549
0
LINE
8
BLACK
6
CONTINUOUS
10
3.22527
20
-3.47549
11
3.27392
21
-3.47549
0
LINE
8
BLACK
6
CONTINUOUS
10
3.27392
20
-3.47549
11
3.27392
21
-3.47205
0
LINE
8
BLACK
6
CONTINUOUS
10
3.27392
20
-3.47205
11
3.27437
21
-3.46979
0
LINE
8
BLACK
6
CONTINUOUS
10
3.27437
20
-3.46979
11
3.27565
21
-3.46787
0
LINE
8
BLACK
6
CONTINUOUS
10
3.27565
20
-3.46787
11
3.27756
21
-3.46659
0
LINE
8
BLACK
6
CONTINUOUS
10
3.27756
20
-3.46659
11
3.27982
21
-3.46614
0
LINE
8
BLACK
6
CONTINUOUS
10
3.27982
20
-3.46614
11
3.32018
21
-3.46614
0
LINE
8
BLACK
6
CONTINUOUS
10
3.32018
20
-3.46614
11
3.32244
21
-3.46659
0
LINE
8
BLACK
6
CONTINUOUS
10
3.32244
20
-3.46659
11
3.32435
21
-3.46787
0
LINE
8
BLACK
6
CONTINUOUS
10
3.32435
20
-3.46787
11
3.32563
21
-3.46979
0
LINE
8
BLACK
6
CONTINUOUS
10
3.32563
20
-3.46979
11
3.32608
21
-3.47205
0
LINE
8
BLACK
6
CONTINUOUS
10
3.32608
20
-3.47205
11
3.32608
21
-3.48386
0
LINE
8
BLACK
6
CONTINUOUS
10
3.32608
20
-3.48386
11
3.32563
21
-3.48612
0
LINE
8
BLACK
6
CONTINUOUS
10
3.32563
20
-3.48612
11
3.32435
21
-3.48803
0
LINE
8
BLACK
6
CONTINUOUS
10
3.32435
20
-3.48803
11
3.32244
21
-3.48931
0
LINE
8
BLACK
6
CONTINUOUS
10
3.32244
20
-3.48931
11
3.32018
21
-3.48976
0
LINE
8
BLACK
6
CONTINUOUS
10
3.32018
20
-3.48976
11
3.27982
21
-3.48976
0
LINE
8
BLACK
6
CONTINUOUS
10
3.27982
20
-3.48976
11
3.27756
21
-3.48931
0
LINE
8
BLACK
6
CONTINUOUS
10
3.27756
20
-3.48931
11
3.27565
21
-3.48803
0
LINE
8
BLACK
6
CONTINUOUS
10
3.27565
20
-3.48803
11
3.27437
21
-3.48612
0
LINE
8
BLACK
6
CONTINUOUS
10
3.27437
20
-3.48612
11
3.27392
21
-3.48386
0
LINE
8
BLACK
6
CONTINUOUS
10
3.27392
20
-3.48386
11
3.27392
21
-3.48041
0
LINE
8
BLACK
6
CONTINUOUS
10
3.27392
20
-3.48041
11
3.22425
21
-3.48041
0
LINE
8
BLACK
6
CONTINUOUS
10
3.22425
20
-3.48041
11
3.21966
21
-3.48041
0
LINE
8
BLACK
6
CONTINUOUS
10
3.21966
20
-3.48041
11
3.18952
21
-3.51055
0
LINE
8
BLACK
6
CONTINUOUS
10
3.18952
20
-3.51055
11
3.31174
21
-3.63277
0
LINE
8
BLACK
6
CONTINUOUS
10
3.31174
20
-3.63277
11
3.31246
21
-3.63451
0
LINE
8
BLACK
6
CONTINUOUS
10
3.31246
20
-3.63451
11
3.31246
21
-3.84754
0
LINE
8
BLACK
6
CONTINUOUS
10
3.31246
20
-3.84754
11
3.37294
21
-3.84754
0
LINE
8
BLACK
6
CONTINUOUS
10
3.37294
20
-3.84754
11
3.41513
21
-3.80535
0
LINE
8
BLACK
6
CONTINUOUS
10
3.41513
20
-3.80535
11
3.41351
21
-3.80293
0
LINE
8
BLACK
6
CONTINUOUS
10
3.41351
20
-3.80293
11
3.4128
21
-3.79935
0
LINE
8
BLACK
6
CONTINUOUS
10
3.4128
20
-3.79935
11
3.4128
21
-3.78065
0
LINE
8
BLACK
6
CONTINUOUS
10
3.4128
20
-3.78065
11
3.41351
21
-3.77707
0
LINE
8
BLACK
6
CONTINUOUS
10
3.41351
20
-3.77707
11
3.41553
21
-3.77404
0
LINE
8
BLACK
6
CONTINUOUS
10
3.41553
20
-3.77404
11
3.41857
21
-3.77201
0
LINE
8
BLACK
6
CONTINUOUS
10
3.41857
20
-3.77201
11
3.42215
21
-3.7713
0
LINE
8
BLACK
6
CONTINUOUS
10
3.42215
20
-3.7713
11
3.4315
21
-3.7713
0
LINE
8
BLACK
6
CONTINUOUS
10
3.4315
20
-3.7713
11
3.4315
21
-3.7387
0
LINE
8
BLACK
6
CONTINUOUS
10
3.4315
20
-3.7387
11
3.42215
21
-3.7387
0
LINE
8
BLACK
6
CONTINUOUS
10
3.42215
20
-3.7387
11
3.41857
21
-3.73799
0
LINE
8
BLACK
6
CONTINUOUS
10
3.41857
20
-3.73799
11
3.41553
21
-3.73596
0
LINE
8
BLACK
6
CONTINUOUS
10
3.41553
20
-3.73596
11
3.41351
21
-3.73293
0
LINE
8
BLACK
6
CONTINUOUS
10
3.41351
20
-3.73293
11
3.4128
21
-3.72935
0
LINE
8
BLACK
6
CONTINUOUS
10
3.4128
20
-3.72935
11
3.4128
21
-3.71065
0
LINE
8
BLACK
6
CONTINUOUS
10
3.4128
20
-3.71065
11
3.41351
21
-3.70707
0
LINE
8
BLACK
6
CONTINUOUS
10
3.41351
20
-3.70707
11
3.41553
21
-3.70404
0
LINE
8
BLACK
6
CONTINUOUS
10
3.41553
20
-3.70404
11
3.41857
21
-3.70201
0
LINE
8
BLACK
6
CONTINUOUS
10
3.41857
20
-3.70201
11
3.42215
21
-3.7013
0
LINE
8
BLACK
6
CONTINUOUS
10
3.42215
20
-3.7013
11
3.4315
21
-3.7013
0
LINE
8
BLACK
6
CONTINUOUS
10
3.4315
20
-3.7013
11
3.4315
21
-3.6687
0
LINE
8
BLACK
6
CONTINUOUS
10
3.4315
20
-3.6687
11
3.42215
21
-3.6687
0
LINE
8
BLACK
6
CONTINUOUS
10
3.42215
20
-3.6687
11
3.41857
21
-3.66799
0
LINE
8
BLACK
6
CONTINUOUS
10
3.41857
20
-3.66799
11
3.41553
21
-3.66596
0
LINE
8
BLACK
6
CONTINUOUS
10
3.41553
20
-3.66596
11
3.41351
21
-3.66293
0
LINE
8
BLACK
6
CONTINUOUS
10
3.41351
20
-3.66293
11
3.4128
21
-3.65935
0
LINE
8
BLACK
6
CONTINUOUS
10
3.4128
20
-3.65935
11
3.4128
21
-3.64065
0
LINE
8
BLACK
6
CONTINUOUS
10
3.4128
20
-3.64065
11
3.41351
21
-3.63707
0
LINE
8
BLACK
6
CONTINUOUS
10
3.41351
20
-3.63707
11
3.41553
21
-3.63404
0
LINE
8
BLACK
6
CONTINUOUS
10
3.41553
20
-3.63404
11
3.41857
21
-3.63201
0
LINE
8
BLACK
6
CONTINUOUS
10
3.41857
20
-3.63201
11
3.42215
21
-3.6313
0
LINE
8
BLACK
6
CONTINUOUS
10
3.42215
20
-3.6313
11
3.4315
21
-3.6313
0
LINE
8
BLACK
6
CONTINUOUS
10
3.4315
20
-3.6313
11
3.4315
21
-3.5987
0
LINE
8
BLACK
6
CONTINUOUS
10
3.4315
20
-3.5987
11
3.42215
21
-3.5987
0
LINE
8
BLACK
6
CONTINUOUS
10
3.42215
20
-3.5987
11
3.41857
21
-3.59799
0
LINE
8
BLACK
6
CONTINUOUS
10
3.41857
20
-3.59799
11
3.41553
21
-3.59596
0
LINE
8
BLACK
6
CONTINUOUS
10
3.41553
20
-3.59596
11
3.41351
21
-3.59293
0
LINE
8
BLACK
6
CONTINUOUS
10
3.41351
20
-3.59293
11
3.4128
21
-3.58935
0
LINE
8
BLACK
6
CONTINUOUS
10
3.4128
20
-3.58935
11
3.4128
21
-3.57065
0
LINE
8
BLACK
6
CONTINUOUS
10
3.4128
20
-3.57065
11
3.41351
21
-3.56707
0
LINE
8
BLACK
6
CONTINUOUS
10
3.41351
20
-3.56707
11
3.41553
21
-3.56404
0
LINE
8
BLACK
6
CONTINUOUS
10
3.41553
20
-3.56404
11
3.41857
21
-3.56201
0
LINE
8
BLACK
6
CONTINUOUS
10
3.41857
20
-3.56201
11
3.42215
21
-3.5613
0
LINE
8
BLACK
6
CONTINUOUS
10
3.42215
20
-3.5613
11
3.44577
21
-3.5613
0
LINE
8
BLACK
6
CONTINUOUS
10
3.44577
20
-3.5613
11
3.44935
21
-3.56201
0
LINE
8
BLACK
6
CONTINUOUS
10
3.44935
20
-3.56201
11
3.45238
21
-3.56404
0
LINE
8
BLACK
6
CONTINUOUS
10
3.45238
20
-3.56404
11
3.45441
21
-3.56707
0
LINE
8
BLACK
6
CONTINUOUS
10
3.45441
20
-3.56707
11
3.45512
21
-3.57065
0
LINE
8
BLACK
6
CONTINUOUS
10
3.45512
20
-3.57065
11
3.45512
21
-3.58935
0
LINE
8
BLACK
6
CONTINUOUS
10
3.45512
20
-3.58935
11
3.45441
21
-3.59293
0
LINE
8
BLACK
6
CONTINUOUS
10
3.45441
20
-3.59293
11
3.45238
21
-3.59596
0
LINE
8
BLACK
6
CONTINUOUS
10
3.45238
20
-3.59596
11
3.44935
21
-3.59799
0
LINE
8
BLACK
6
CONTINUOUS
10
3.44935
20
-3.59799
11
3.44577
21
-3.5987
0
LINE
8
BLACK
6
CONTINUOUS
10
3.44577
20
-3.5987
11
3.43642
21
-3.5987
0
LINE
8
BLACK
6
CONTINUOUS
10
3.43642
20
-3.5987
11
3.43642
21
-3.6313
0
LINE
8
BLACK
6
CONTINUOUS
10
3.43642
20
-3.6313
11
3.44577
21
-3.6313
0
LINE
8
BLACK
6
CONTINUOUS
10
3.44577
20
-3.6313
11
3.44935
21
-3.63201
0
LINE
8
BLACK
6
CONTINUOUS
10
3.44935
20
-3.63201
11
3.45238
21
-3.63404
0
LINE
8
BLACK
6
CONTINUOUS
10
3.45238
20
-3.63404
11
3.45441
21
-3.63707
0
LINE
8
BLACK
6
CONTINUOUS
10
3.45441
20
-3.63707
11
3.45512
21
-3.64065
0
LINE
8
BLACK
6
CONTINUOUS
10
3.45512
20
-3.64065
11
3.45512
21
-3.65935
0
LINE
8
BLACK
6
CONTINUOUS
10
3.45512
20
-3.65935
11
3.45441
21
-3.66293
0
LINE
8
BLACK
6
CONTINUOUS
10
3.45441
20
-3.66293
11
3.45238
21
-3.66596
0
LINE
8
BLACK
6
CONTINUOUS
10
3.45238
20
-3.66596
11
3.44935
21
-3.66799
0
LINE
8
BLACK
6
CONTINUOUS
10
3.44935
20
-3.66799
11
3.44577
21
-3.6687
0
LINE
8
BLACK
6
CONTINUOUS
10
3.44577
20
-3.6687
11
3.43642
21
-3.6687
0
LINE
8
BLACK
6
CONTINUOUS
10
3.43642
20
-3.6687
11
3.43642
21
-3.7013
0
LINE
8
BLACK
6
CONTINUOUS
10
3.43642
20
-3.7013
11
3.44577
21
-3.7013
0
LINE
8
BLACK
6
CONTINUOUS
10
3.44577
20
-3.7013
11
3.44935
21
-3.70201
0
LINE
8
BLACK
6
CONTINUOUS
10
3.44935
20
-3.70201
11
3.45238
21
-3.70404
0
LINE
8
BLACK
6
CONTINUOUS
10
3.45238
20
-3.70404
11
3.45441
21
-3.70707
0
LINE
8
BLACK
6
CONTINUOUS
10
3.45441
20
-3.70707
11
3.45512
21
-3.71065
0
LINE
8
BLACK
6
CONTINUOUS
10
3.45512
20
-3.71065
11
3.45512
21
-3.72935
0
LINE
8
BLACK
6
CONTINUOUS
10
3.45512
20
-3.72935
11
3.45441
21
-3.73293
0
LINE
8
BLACK
6
CONTINUOUS
10
3.45441
20
-3.73293
11
3.45238
21
-3.73596
0
LINE
8
BLACK
6
CONTINUOUS
10
3.45238
20
-3.73596
11
3.44935
21
-3.73799
0
LINE
8
BLACK
6
CONTINUOUS
10
3.44935
20
-3.73799
11
3.44577
21
-3.7387
0
LINE
8
BLACK
6
CONTINUOUS
10
3.44577
20
-3.7387
11
3.43642
21
-3.7387
0
LINE
8
BLACK
6
CONTINUOUS
10
3.43642
20
-3.7387
11
3.43642
21
-3.7713
0
LINE
8
BLACK
6
CONTINUOUS
10
3.43642
20
-3.7713
11
3.44577
21
-3.7713
0
LINE
8
BLACK
6
CONTINUOUS
10
3.44577
20
-3.7713
11
3.44935
21
-3.77201
0
LINE
8
BLACK
6
CONTINUOUS
10
3.44935
20
-3.77201
11
3.45238
21
-3.77404
0
LINE
8
BLACK
6
CONTINUOUS
10
3.45238
20
-3.77404
11
3.45441
21
-3.77707
0
LINE
8
BLACK
6
CONTINUOUS
10
3.45441
20
-3.77707
11
3.45512
21
-3.78065
0
LINE
8
BLACK
6
CONTINUOUS
10
3.45512
20
-3.78065
11
3.45512
21
-3.79935
0
LINE
8
BLACK
6
CONTINUOUS
10
3.45512
20
-3.79935
11
3.45441
21
-3.80293
0
LINE
8
BLACK
6
CONTINUOUS
10
3.45441
20
-3.80293
11
3.45238
21
-3.80596
0
LINE
8
BLACK
6
CONTINUOUS
10
3.45238
20
-3.80596
11
3.44935
21
-3.80799
0
LINE
8
BLACK
6
CONTINUOUS
10
3.44935
20
-3.80799
11
3.44577
21
-3.8087
0
LINE
8
BLACK
6
CONTINUOUS
10
3.44577
20
-3.8087
11
3.42215
21
-3.8087
0
LINE
8
BLACK
6
CONTINUOUS
10
3.42215
20
-3.8087
11
3.4193
21
-3.80814
0
LINE
8
BLACK
6
CONTINUOUS
10
3.4193
20
-3.80814
11
3.3757
21
-3.85174
0
LINE
8
BLACK
6
CONTINUOUS
10
3.3757
20
-3.85174
11
3.37396
21
-3.85246
0
LINE
8
BLACK
6
CONTINUOUS
10
3.37396
20
-3.85246
11
3.31246
21
-3.85246
0
LINE
8
BLACK
6
CONTINUOUS
10
3.31246
20
-3.85246
11
3.31246
21
-3.97
0
LINE
8
BLACK
6
CONTINUOUS
10
3.31246
20
-3.97
11
3.31246
21
-3.97
0
LINE
8
BLACK
6
CONTINUOUS
10
3.31246
20
-3.97
11
3.31174
21
-3.97174
0
LINE
8
BLACK
6
CONTINUOUS
10
3.31174
20
-3.97174
11
3.28246
21
-4.00102
0
LINE
8
BLACK
6
CONTINUOUS
10
3.28246
20
-4.00102
11
3.28246
21
-4.00559
0
LINE
8
BLACK
6
CONTINUOUS
10
3.28246
20
-4.00559
11
3.28174
21
-4.00733
0
LINE
8
BLACK
6
CONTINUOUS
10
3.28174
20
-4.00733
11
3.26102
21
-4.02805
0
LINE
8
BLACK
6
CONTINUOUS
10
3.26102
20
-4.02805
11
3.26102
21
-4.05213
0
LINE
8
BLACK
6
CONTINUOUS
10
3.26102
20
-4.05213
11
3.2497
21
-4.05213
0
LINE
8
BLACK
6
CONTINUOUS
10
3.2497
20
-4.05213
11
3.2497
21
-4.15315
0
LINE
8
BLACK
6
CONTINUOUS
10
3.2497
20
-4.15315
11
3.24898
21
-4.15489
0
LINE
8
BLACK
6
CONTINUOUS
10
3.24898
20
-4.15489
11
3.24451
21
-4.15937
0
LINE
8
BLACK
6
CONTINUOUS
10
3.24451
20
-4.15937
11
3.24636
21
-4.16143
0
LINE
8
BLACK
6
CONTINUOUS
10
3.24636
20
-4.16143
11
3.24986
21
-4.16749
0
LINE
8
BLACK
6
CONTINUOUS
10
3.24986
20
-4.16749
11
3.25202
21
-4.17414
0
LINE
8
BLACK
6
CONTINUOUS
10
3.25202
20
-4.17414
11
3.25276
21
-4.1811
0
LINE
8
BLACK
6
CONTINUOUS
10
3.25276
20
-4.1811
11
3.25202
21
-4.18806
0
LINE
8
BLACK
6
CONTINUOUS
10
3.25202
20
-4.18806
11
3.24986
21
-4.19471
0
LINE
8
BLACK
6
CONTINUOUS
10
3.24986
20
-4.19471
11
3.24636
21
-4.20077
0
LINE
8
BLACK
6
CONTINUOUS
10
3.24636
20
-4.20077
11
3.24168
21
-4.20597
0
LINE
8
BLACK
6
CONTINUOUS
10
3.24168
20
-4.20597
11
3.23602
21
-4.21008
0
LINE
8
BLACK
6
CONTINUOUS
10
3.23602
20
-4.21008
11
3.22963
21
-4.21293
0
LINE
8
BLACK
6
CONTINUOUS
10
3.22963
20
-4.21293
11
3.22279
21
-4.21438
0
LINE
8
BLACK
6
CONTINUOUS
10
3.22279
20
-4.21438
11
3.21579
21
-4.21438
0
LINE
8
BLACK
6
CONTINUOUS
10
3.21579
20
-4.21438
11
3.20895
21
-4.21293
0
LINE
8
BLACK
6
CONTINUOUS
10
3.20895
20
-4.21293
11
3.20256
21
-4.21008
0
LINE
8
BLACK
6
CONTINUOUS
10
3.20256
20
-4.21008
11
3.19748
21
-4.20639
0
LINE
8
BLACK
6
CONTINUOUS
10
3.19748
20
-4.20639
11
2.84751
21
-4.55637
0
LINE
8
BLACK
6
CONTINUOUS
10
2.84751
20
-4.55637
11
2.84577
21
-4.55709
0
LINE
8
BLACK
6
CONTINUOUS
10
2.84577
20
-4.55709
11
2.74128
21
-4.55709
0
LINE
8
BLACK
6
CONTINUOUS
10
2.74128
20
-4.55709
11
2.73954
21
-4.55637
0
LINE
8
BLACK
6
CONTINUOUS
10
2.73954
20
-4.55637
11
2.72947
21
-4.54629
0
LINE
8
BLACK
6
CONTINUOUS
10
2.72947
20
-4.54629
11
2.72881
21
-4.54673
0
LINE
8
BLACK
6
CONTINUOUS
10
2.72881
20
-4.54673
11
2.72524
21
-4.54744
0
LINE
8
BLACK
6
CONTINUOUS
10
2.72524
20
-4.54744
11
2.70555
21
-4.54744
0
LINE
8
BLACK
6
CONTINUOUS
10
2.70555
20
-4.54744
11
2.70197
21
-4.54673
0
LINE
8
BLACK
6
CONTINUOUS
10
2.70197
20
-4.54673
11
2.69894
21
-4.5447
0
LINE
8
BLACK
6
CONTINUOUS
10
2.69894
20
-4.5447
11
2.69691
21
-4.54167
0
LINE
8
BLACK
6
CONTINUOUS
10
2.69691
20
-4.54167
11
2.6962
21
-4.53809
0
LINE
8
BLACK
6
CONTINUOUS
10
2.6962
20
-4.53809
11
2.6962
21
-4.51939
0
LINE
8
BLACK
6
CONTINUOUS
10
2.6962
20
-4.51939
11
2.69691
21
-4.51581
0
LINE
8
BLACK
6
CONTINUOUS
10
2.69691
20
-4.51581
11
2.69894
21
-4.51278
0
LINE
8
BLACK
6
CONTINUOUS
10
2.69894
20
-4.51278
11
2.70197
21
-4.51075
0
LINE
8
BLACK
6
CONTINUOUS
10
2.70197
20
-4.51075
11
2.70555
21
-4.51004
0
LINE
8
BLACK
6
CONTINUOUS
10
2.70555
20
-4.51004
11
2.70604
21
-4.51004
0
LINE
8
BLACK
6
CONTINUOUS
10
2.70604
20
-4.51004
11
2.70604
21
-4.45461
0
LINE
8
BLACK
6
CONTINUOUS
10
2.70604
20
-4.45461
11
2.69472
21
-4.45461
0
LINE
8
BLACK
6
CONTINUOUS
10
2.69472
20
-4.45461
11
2.69472
21
-4.43689
0
LINE
8
BLACK
6
CONTINUOUS
10
2.69472
20
-4.43689
11
2.70604
21
-4.43689
0
LINE
8
BLACK
6
CONTINUOUS
10
2.70604
20
-4.43689
11
2.70604
21
-4.3402
0
LINE
8
BLACK
6
CONTINUOUS
10
2.70604
20
-4.3402
11
2.69535
21
-4.3402
0
LINE
8
BLACK
6
CONTINUOUS
10
2.69535
20
-4.3402
11
2.69535
21
-4.32248
0
LINE
8
BLACK
6
CONTINUOUS
10
2.69535
20
-4.32248
11
2.70667
21
-4.32248
0
LINE
8
BLACK
6
CONTINUOUS
10
2.70667
20
-4.32248
11
2.70667
21
-4.26799
0
LINE
8
BLACK
6
CONTINUOUS
10
2.70667
20
-4.26799
11
2.70148
21
-4.26799
0
LINE
8
BLACK
6
CONTINUOUS
10
2.70148
20
-4.26799
11
2.6979
21
-4.26728
0
LINE
8
BLACK
6
CONTINUOUS
10
2.6979
20
-4.26728
11
2.69486
21
-4.26525
0
LINE
8
BLACK
6
CONTINUOUS
10
2.69486
20
-4.26525
11
2.69284
21
-4.26222
0
LINE
8
BLACK
6
CONTINUOUS
10
2.69284
20
-4.26222
11
2.69213
21
-4.25864
0
LINE
8
BLACK
6
CONTINUOUS
10
2.69213
20
-4.25864
11
2.69213
21
-4.23994
0
LINE
8
BLACK
6
CONTINUOUS
10
2.69213
20
-4.23994
11
2.69284
21
-4.23636
0
LINE
8
BLACK
6
CONTINUOUS
10
2.69284
20
-4.23636
11
2.69486
21
-4.23333
0
LINE
8
BLACK
6
CONTINUOUS
10
2.69486
20
-4.23333
11
2.6979
21
-4.2313
0
LINE
8
BLACK
6
CONTINUOUS
10
2.6979
20
-4.2313
11
2.70148
21
-4.23059
0
LINE
8
BLACK
6
CONTINUOUS
10
2.70148
20
-4.23059
11
2.72116
21
-4.23059
0
LINE
8
BLACK
6
CONTINUOUS
10
2.72116
20
-4.23059
11
2.72474
21
-4.2313
0
LINE
8
BLACK
6
CONTINUOUS
10
2.72474
20
-4.2313
11
2.72777
21
-4.23333
0
LINE
8
BLACK
6
CONTINUOUS
10
2.72777
20
-4.23333
11
2.7298
21
-4.23636
0
LINE
8
BLACK
6
CONTINUOUS
10
2.7298
20
-4.23636
11
2.73051
21
-4.23994
0
LINE
8
BLACK
6
CONTINUOUS
10
2.73051
20
-4.23994
11
2.73051
21
-4.25864
0
LINE
8
BLACK
6
CONTINUOUS
10
2.73051
20
-4.25864
11
2.7298
21
-4.26222
0
LINE
8
BLACK
6
CONTINUOUS
10
2.7298
20
-4.26222
11
2.72777
21
-4.26525
0
LINE
8
BLACK
6
CONTINUOUS
10
2.72777
20
-4.26525
11
2.72474
21
-4.26728
0
LINE
8
BLACK
6
CONTINUOUS
10
2.72474
20
-4.26728
11
2.72116
21
-4.26799
0
LINE
8
BLACK
6
CONTINUOUS
10
2.72116
20
-4.26799
11
2.71159
21
-4.26799
0
LINE
8
BLACK
6
CONTINUOUS
10
2.71159
20
-4.26799
11
2.71159
21
-4.32248
0
LINE
8
BLACK
6
CONTINUOUS
10
2.71159
20
-4.32248
11
2.72291
21
-4.32248
0
LINE
8
BLACK
6
CONTINUOUS
10
2.72291
20
-4.32248
11
2.72291
21
-4.3402
0
LINE
8
BLACK
6
CONTINUOUS
10
2.72291
20
-4.3402
11
2.71096
21
-4.3402
0
LINE
8
BLACK
6
CONTINUOUS
10
2.71096
20
-4.3402
11
2.71096
21
-4.43689
0
LINE
8
BLACK
6
CONTINUOUS
10
2.71096
20
-4.43689
11
2.72228
21
-4.43689
0
LINE
8
BLACK
6
CONTINUOUS
10
2.72228
20
-4.43689
11
2.72228
21
-4.45461
0
LINE
8
BLACK
6
CONTINUOUS
10
2.72228
20
-4.45461
11
2.71096
21
-4.45461
0
LINE
8
BLACK
6
CONTINUOUS
10
2.71096
20
-4.45461
11
2.71096
21
-4.51004
0
LINE
8
BLACK
6
CONTINUOUS
10
2.71096
20
-4.51004
11
2.72524
21
-4.51004
0
LINE
8
BLACK
6
CONTINUOUS
10
2.72524
20
-4.51004
11
2.72881
21
-4.51075
0
LINE
8
BLACK
6
CONTINUOUS
10
2.72881
20
-4.51075
11
2.73185
21
-4.51278
0
LINE
8
BLACK
6
CONTINUOUS
10
2.73185
20
-4.51278
11
2.73387
21
-4.51581
0
LINE
8
BLACK
6
CONTINUOUS
10
2.73387
20
-4.51581
11
2.73459
21
-4.51939
0
LINE
8
BLACK
6
CONTINUOUS
10
2.73459
20
-4.51939
11
2.73459
21
-4.53809
0
LINE
8
BLACK
6
CONTINUOUS
10
2.73459
20
-4.53809
11
2.73387
21
-4.54167
0
LINE
8
BLACK
6
CONTINUOUS
10
2.73387
20
-4.54167
11
2.73304
21
-4.54291
0
LINE
8
BLACK
6
CONTINUOUS
10
2.73304
20
-4.54291
11
2.7423
21
-4.55217
0
LINE
8
BLACK
6
CONTINUOUS
10
2.7423
20
-4.55217
11
2.84475
21
-4.55217
0
LINE
8
BLACK
6
CONTINUOUS
10
2.84475
20
-4.55217
11
3.19408
21
-4.20284
0
LINE
8
BLACK
6
CONTINUOUS
10
3.19408
20
-4.20284
11
3.19222
21
-4.20077
0
LINE
8
BLACK
6
CONTINUOUS
10
3.19222
20
-4.20077
11
3.18872
21
-4.19471
0
LINE
8
BLACK
6
CONTINUOUS
10
3.18872
20
-4.19471
11
3.18656
21
-4.18806
0
LINE
8
BLACK
6
CONTINUOUS
10
3.18656
20
-4.18806
11
3.18583
21
-4.1811
0
LINE
8
BLACK
6
CONTINUOUS
10
3.18583
20
-4.1811
11
3.18656
21
-4.17414
0
LINE
8
BLACK
6
CONTINUOUS
10
3.18656
20
-4.17414
11
3.18872
21
-4.16749
0
LINE
8
BLACK
6
CONTINUOUS
10
3.18872
20
-4.16749
11
3.19222
21
-4.16143
0
LINE
8
BLACK
6
CONTINUOUS
10
3.19222
20
-4.16143
11
3.1969
21
-4.15623
0
LINE
8
BLACK
6
CONTINUOUS
10
3.1969
20
-4.15623
11
3.20256
21
-4.15212
0
LINE
8
BLACK
6
CONTINUOUS
10
3.20256
20
-4.15212
11
3.20895
21
-4.14928
0
LINE
8
BLACK
6
CONTINUOUS
10
3.20895
20
-4.14928
11
3.21579
21
-4.14782
0
LINE
8
BLACK
6
CONTINUOUS
10
3.21579
20
-4.14782
11
3.22279
21
-4.14782
0
LINE
8
BLACK
6
CONTINUOUS
10
3.22279
20
-4.14782
11
3.22963
21
-4.14928
0
LINE
8
BLACK
6
CONTINUOUS
10
3.22963
20
-4.14928
11
3.23602
21
-4.15212
0
LINE
8
BLACK
6
CONTINUOUS
10
3.23602
20
-4.15212
11
3.2411
21
-4.15581
0
LINE
8
BLACK
6
CONTINUOUS
10
3.2411
20
-4.15581
11
3.24478
21
-4.15213
0
LINE
8
BLACK
6
CONTINUOUS
10
3.24478
20
-4.15213
11
3.24478
21
-4.05213
0
LINE
8
BLACK
6
CONTINUOUS
10
3.24478
20
-4.05213
11
3.23346
21
-4.05213
0
LINE
8
BLACK
6
CONTINUOUS
10
3.23346
20
-4.05213
11
3.23346
21
-4.02457
0
LINE
8
BLACK
6
CONTINUOUS
10
3.23346
20
-4.02457
11
3.25754
21
-4.02457
0
LINE
8
BLACK
6
CONTINUOUS
10
3.25754
20
-4.02457
11
3.27754
21
-4.00457
0
LINE
8
BLACK
6
CONTINUOUS
10
3.27754
20
-4.00457
11
3.27754
21
-4
0
LINE
8
BLACK
6
CONTINUOUS
10
3.27754
20
-4
11
3.27826
21
-3.99826
0
LINE
8
BLACK
6
CONTINUOUS
10
3.27826
20
-3.99826
11
3.30754
21
-3.96898
0
LINE
8
BLACK
6
CONTINUOUS
10
3.30754
20
-3.96898
11
3.30754
21
-3.85
0
LINE
8
BLACK
6
CONTINUOUS
10
3.30754
20
-3.85
11
3.30754
21
-3.64045
0
LINE
8
BLACK
6
CONTINUOUS
10
3.30754
20
-3.64045
11
3.29767
21
-3.65032
0
LINE
8
BLACK
6
CONTINUOUS
10
3.29767
20
-3.65032
11
3.29593
21
-3.65104
0
LINE
8
BLACK
6
CONTINUOUS
10
3.29593
20
-3.65104
11
3.26102
21
-3.65104
0
LINE
8
BLACK
6
CONTINUOUS
10
3.26102
20
-3.65104
11
3.26102
21
-3.66236
0
LINE
8
BLACK
6
CONTINUOUS
10
3.26102
20
-3.66236
11
3.23346
21
-3.66236
0
LINE
8
BLACK
6
CONTINUOUS
10
3.23346
20
-3.66236
11
3.23346
21
-3.65301
0
LINE
8
BLACK
6
CONTINUOUS
10
3.23346
20
-3.65301
11
3.20984
21
-3.65301
0
LINE
8
BLACK
6
CONTINUOUS
10
3.20984
20
-3.65301
11
3.20984
21
-3.6663
0
LINE
8
BLACK
6
CONTINUOUS
10
3.20984
20
-3.6663
11
3.19409
21
-3.6663
0
LINE
8
BLACK
6
CONTINUOUS
10
3.19409
20
-3.6663
11
3.19409
21
-3.65301
0
LINE
8
BLACK
6
CONTINUOUS
10
3.19409
20
-3.65301
11
3.17835
21
-3.65301
0
LINE
8
BLACK
6
CONTINUOUS
10
3.17835
20
-3.65301
11
3.17835
21
-3.6663
0
LINE
8
BLACK
6
CONTINUOUS
10
3.17835
20
-3.6663
11
3.1626
21
-3.6663
0
LINE
8
BLACK
6
CONTINUOUS
10
3.1626
20
-3.6663
11
3.1626
21
-3.65301
0
LINE
8
BLACK
6
CONTINUOUS
10
3.1626
20
-3.65301
11
3.14685
21
-3.65301
0
LINE
8
BLACK
6
CONTINUOUS
10
3.14685
20
-3.65301
11
3.14685
21
-3.6663
0
LINE
8
BLACK
6
CONTINUOUS
10
3.14685
20
-3.6663
11
3.1311
21
-3.6663
0
LINE
8
BLACK
6
CONTINUOUS
10
3.1311
20
-3.6663
11
3.1311
21
-3.65301
0
LINE
8
BLACK
6
CONTINUOUS
10
3.1311
20
-3.65301
11
3.11535
21
-3.65301
0
LINE
8
BLACK
6
CONTINUOUS
10
3.11535
20
-3.65301
11
3.11535
21
-3.6663
0
LINE
8
BLACK
6
CONTINUOUS
10
3.11535
20
-3.6663
11
3.09961
21
-3.6663
0
LINE
8
BLACK
6
CONTINUOUS
10
3.09961
20
-3.6663
11
3.09961
21
-3.65301
0
LINE
8
BLACK
6
CONTINUOUS
10
3.09961
20
-3.65301
11
3.08386
21
-3.65301
0
LINE
8
BLACK
6
CONTINUOUS
10
3.08386
20
-3.65301
11
3.08386
21
-3.6663
0
LINE
8
BLACK
6
CONTINUOUS
10
3.08386
20
-3.6663
11
3.06811
21
-3.6663
0
LINE
8
BLACK
6
CONTINUOUS
10
3.06811
20
-3.6663
11
3.06811
21
-3.65301
0
LINE
8
BLACK
6
CONTINUOUS
10
3.06811
20
-3.65301
11
3.05236
21
-3.65301
0
LINE
8
BLACK
6
CONTINUOUS
10
3.05236
20
-3.65301
11
3.05236
21
-3.6663
0
LINE
8
BLACK
6
CONTINUOUS
10
3.05236
20
-3.6663
11
3.03661
21
-3.6663
0
LINE
8
BLACK
6
CONTINUOUS
10
3.03661
20
-3.6663
11
3.03661
21
-3.65301
0
LINE
8
BLACK
6
CONTINUOUS
10
3.03661
20
-3.65301
11
3.02087
21
-3.65301
0
LINE
8
BLACK
6
CONTINUOUS
10
3.02087
20
-3.65301
11
3.02087
21
-3.6663
0
LINE
8
BLACK
6
CONTINUOUS
10
3.02087
20
-3.6663
11
3.00512
21
-3.6663
0
LINE
8
BLACK
6
CONTINUOUS
10
3.00512
20
-3.6663
11
3.00512
21
-3.65301
0
LINE
8
BLACK
6
CONTINUOUS
10
3.00512
20
-3.65301
11
2.98937
21
-3.65301
0
LINE
8
BLACK
6
CONTINUOUS
10
2.98937
20
-3.65301
11
2.98937
21
-3.6663
0
LINE
8
BLACK
6
CONTINUOUS
10
2.98937
20
-3.6663
11
2.97362
21
-3.6663
0
LINE
8
BLACK
6
CONTINUOUS
10
2.97362
20
-3.6663
11
2.97362
21
-3.65301
0
LINE
8
BLACK
6
CONTINUOUS
10
2.97362
20
-3.65301
11
2.95787
21
-3.65301
0
LINE
8
BLACK
6
CONTINUOUS
10
2.95787
20
-3.65301
11
2.95787
21
-3.6663
0
LINE
8
BLACK
6
CONTINUOUS
10
2.95787
20
-3.6663
11
2.94213
21
-3.6663
0
LINE
8
BLACK
6
CONTINUOUS
10
2.94213
20
-3.6663
11
2.94213
21
-3.65301
0
LINE
8
BLACK
6
CONTINUOUS
10
2.94213
20
-3.65301
11
2.92638
21
-3.65301
0
LINE
8
BLACK
6
CONTINUOUS
10
2.92638
20
-3.65301
11
2.92638
21
-3.6663
0
LINE
8
BLACK
6
CONTINUOUS
10
2.92638
20
-3.6663
11
2.91063
21
-3.6663
0
LINE
8
BLACK
6
CONTINUOUS
10
2.91063
20
-3.6663
11
2.91063
21
-3.65301
0
LINE
8
BLACK
6
CONTINUOUS
10
2.91063
20
-3.65301
11
2.89488
21
-3.65301
0
LINE
8
BLACK
6
CONTINUOUS
10
2.89488
20
-3.65301
11
2.89488
21
-3.6663
0
LINE
8
BLACK
6
CONTINUOUS
10
2.89488
20
-3.6663
11
2.87913
21
-3.6663
0
LINE
8
BLACK
6
CONTINUOUS
10
2.87913
20
-3.6663
11
2.87913
21
-3.65301
0
LINE
8
BLACK
6
CONTINUOUS
10
2.87913
20
-3.65301
11
2.86339
21
-3.65301
0
LINE
8
BLACK
6
CONTINUOUS
10
2.86339
20
-3.65301
11
2.86339
21
-3.6663
0
LINE
8
BLACK
6
CONTINUOUS
10
2.86339
20
-3.6663
11
2.84764
21
-3.6663
0
LINE
8
BLACK
6
CONTINUOUS
10
2.84764
20
-3.6663
11
2.84764
21
-3.65301
0
LINE
8
BLACK
6
CONTINUOUS
10
2.84764
20
-3.65301
11
2.83189
21
-3.65301
0
LINE
8
BLACK
6
CONTINUOUS
10
2.83189
20
-3.65301
11
2.83189
21
-3.65888
0
LINE
8
BLACK
6
CONTINUOUS
10
2.83189
20
-3.65888
11
2.92024
21
-3.74724
0
LINE
8
BLACK
6
CONTINUOUS
10
2.92024
20
-3.74724
11
2.93031
21
-3.73717
0
LINE
8
BLACK
6
CONTINUOUS
10
2.93031
20
-3.73717
11
2.96378
21
-3.73717
0
LINE
8
BLACK
6
CONTINUOUS
10
2.96378
20
-3.73717
11
2.96378
21
-3.76325
0
LINE
8
BLACK
6
CONTINUOUS
10
2.96378
20
-3.76325
11
2.98445
21
-3.76325
0
LINE
8
BLACK
6
CONTINUOUS
10
2.98445
20
-3.76325
11
2.98445
21
-3.73717
0
LINE
8
BLACK
6
CONTINUOUS
10
2.98445
20
-3.73717
11
3.04154
21
-3.73717
0
LINE
8
BLACK
6
CONTINUOUS
10
3.04154
20
-3.73717
11
3.04154
21
-3.76325
0
LINE
8
BLACK
6
CONTINUOUS
10
3.04154
20
-3.76325
11
3.0622
21
-3.76325
0
LINE
8
BLACK
6
CONTINUOUS
10
3.0622
20
-3.76325
11
3.0622
21
-3.73717
0
LINE
8
BLACK
6
CONTINUOUS
10
3.0622
20
-3.73717
11
3.11929
21
-3.73717
0
LINE
8
BLACK
6
CONTINUOUS
10
3.11929
20
-3.73717
11
3.11929
21
-3.79425
0
LINE
8
BLACK
6
CONTINUOUS
10
3.11929
20
-3.79425
11
3.09321
21
-3.79425
0
LINE
8
BLACK
6
CONTINUOUS
10
3.09321
20
-3.79425
11
3.09321
21
-3.81492
0
LINE
8
BLACK
6
CONTINUOUS
10
3.09321
20
-3.81492
11
3.11929
21
-3.81492
0
LINE
8
BLACK
6
CONTINUOUS
10
3.11929
20
-3.81492
11
3.11929
21
-3.87201
0
LINE
8
BLACK
6
CONTINUOUS
10
3.11929
20
-3.87201
11
3.09321
21
-3.87201
0
LINE
8
BLACK
6
CONTINUOUS
10
3.09321
20
-3.87201
11
3.09321
21
-3.89268
0
LINE
8
BLACK
6
CONTINUOUS
10
3.09321
20
-3.89268
11
3.11929
21
-3.89268
0
LINE
8
BLACK
6
CONTINUOUS
10
3.11929
20
-3.89268
11
3.11929
21
-3.94976
0
LINE
8
BLACK
6
CONTINUOUS
10
3.11929
20
-3.94976
11
3.0622
21
-3.94976
0
LINE
8
BLACK
6
CONTINUOUS
10
3.0622
20
-3.94976
11
3.0622
21
-3.92368
0
LINE
8
BLACK
6
CONTINUOUS
10
3.0622
20
-3.92368
11
3.04154
21
-3.92368
0
LINE
8
BLACK
6
CONTINUOUS
10
3.04154
20
-3.92368
11
3.04154
21
-3.94976
0
LINE
8
BLACK
6
CONTINUOUS
10
3.04154
20
-3.94976
11
2.98445
21
-3.94976
0
LINE
8
BLACK
6
CONTINUOUS
10
2.98445
20
-3.94976
11
2.98445
21
-3.92368
0
LINE
8
BLACK
6
CONTINUOUS
10
2.98445
20
-3.92368
11
2.96378
21
-3.92368
0
LINE
8
BLACK
6
CONTINUOUS
10
2.96378
20
-3.92368
11
2.96378
21
-3.94976
0
LINE
8
BLACK
6
CONTINUOUS
10
2.96378
20
-3.94976
11
2.91017
21
-3.94976
0
LINE
8
BLACK
6
CONTINUOUS
10
2.91017
20
-3.94976
11
2.88947
21
-3.97047
0
LINE
8
BLACK
6
CONTINUOUS
10
2.88947
20
-3.97047
11
2.88947
21
-4.02063
0
LINE
8
BLACK
6
CONTINUOUS
10
2.88947
20
-4.02063
11
2.89488
21
-4.02063
0
LINE
8
BLACK
6
CONTINUOUS
10
2.89488
20
-4.02063
11
2.89488
21
-4.05213
0
LINE
8
BLACK
6
CONTINUOUS
10
2.89488
20
-4.05213
11
2.87913
21
-4.05213
0
LINE
8
BLACK
6
CONTINUOUS
10
2.87913
20
-4.05213
11
2.87913
21
-4.02063
0
LINE
8
BLACK
6
CONTINUOUS
10
2.87913
20
-4.02063
11
2.88058
21
-4.02063
0
LINE
8
BLACK
6
CONTINUOUS
10
2.88058
20
-4.02063
11
2.86335
21
-4.00341
0
LINE
8
BLACK
6
CONTINUOUS
10
2.86335
20
-4.00341
11
2.80102
21
-4.00341
0
LINE
8
BLACK
6
CONTINUOUS
10
2.80102
20
-4.00341
11
2.79646
21
-4.00797
0
LINE
8
BLACK
6
CONTINUOUS
10
2.79646
20
-4.00797
11
2.79646
21
-4.00882
0
LINE
8
BLACK
6
CONTINUOUS
10
2.79646
20
-4.00882
11
2.79561
21
-4.00882
0
LINE
8
BLACK
6
CONTINUOUS
10
2.79561
20
-4.00882
11
2.7812
21
-4.02322
0
LINE
8
BLACK
6
CONTINUOUS
10
2.7812
20
-4.02322
11
2.7812
21
-4.02457
0
LINE
8
BLACK
6
CONTINUOUS
10
2.7812
20
-4.02457
11
2.79252
21
-4.02457
0
LINE
8
BLACK
6
CONTINUOUS
10
2.79252
20
-4.02457
11
2.79252
21
-4.05213
0
LINE
8
BLACK
6
CONTINUOUS
10
2.79252
20
-4.05213
11
2.76496
21
-4.05213
0
LINE
8
BLACK
6
CONTINUOUS
10
2.76496
20
-4.05213
11
2.76496
21
-4.02457
0
LINE
8
BLACK
6
CONTINUOUS
10
2.76496
20
-4.02457
11
2.77628
21
-4.02457
0
LINE
8
BLACK
6
CONTINUOUS
10
2.77628
20
-4.02457
11
2.77628
21
-4.0222
0
LINE
8
BLACK
6
CONTINUOUS
10
2.77628
20
-4.0222
11
2.777
21
-4.02046
0
LINE
8
BLACK
6
CONTINUOUS
10
2.777
20
-4.02046
11
2.777
21
-4.02046
0
LINE
8
BLACK
6
CONTINUOUS
10
2.777
20
-4.02046
11
2.78865
21
-4.00882
0
LINE
8
BLACK
6
CONTINUOUS
10
2.78865
20
-4.00882
11
2.76496
21
-4.00882
0
LINE
8
BLACK
6
CONTINUOUS
10
2.76496
20
-4.00882
11
2.76496
21
-3.99307
0
LINE
8
BLACK
6
CONTINUOUS
10
2.76496
20
-3.99307
11
2.79646
21
-3.99307
0
LINE
8
BLACK
6
CONTINUOUS
10
2.79646
20
-3.99307
11
2.79646
21
-3.99848
0
LINE
8
BLACK
6
CONTINUOUS
10
2.79646
20
-3.99848
11
2.8
21
-3.99848
0
LINE
8
BLACK
6
CONTINUOUS
10
2.8
20
-3.99848
11
2.86437
21
-3.99848
0
LINE
8
BLACK
6
CONTINUOUS
10
2.86437
20
-3.99848
11
2.86611
21
-3.9992
0
LINE
8
BLACK
6
CONTINUOUS
10
2.86611
20
-3.9992
11
2.88455
21
-4.01764
0
LINE
8
BLACK
6
CONTINUOUS
10
2.88455
20
-4.01764
11
2.88455
21
-3.96945
0
LINE
8
BLACK
6
CONTINUOUS
10
2.88455
20
-3.96945
11
2.88527
21
-3.96771
0
LINE
8
BLACK
6
CONTINUOUS
10
2.88527
20
-3.96771
11
2.88527
21
-3.96771
0
LINE
8
BLACK
6
CONTINUOUS
10
2.88527
20
-3.96771
11
2.90669
21
-3.94628
0
LINE
8
BLACK
6
CONTINUOUS
10
2.90669
20
-3.94628
11
2.90669
21
-3.89268
0
LINE
8
BLACK
6
CONTINUOUS
10
2.90669
20
-3.89268
11
2.93278
21
-3.89268
0
LINE
8
BLACK
6
CONTINUOUS
10
2.93278
20
-3.89268
11
2.93278
21
-3.87201
0
LINE
8
BLACK
6
CONTINUOUS
10
2.93278
20
-3.87201
11
2.90669
21
-3.87201
0
LINE
8
BLACK
6
CONTINUOUS
10
2.90669
20
-3.87201
11
2.90669
21
-3.81492
0
LINE
8
BLACK
6
CONTINUOUS
10
2.90669
20
-3.81492
11
2.93278
21
-3.81492
0
LINE
8
BLACK
6
CONTINUOUS
10
2.93278
20
-3.81492
11
2.93278
21
-3.79425
0
LINE
8
BLACK
6
CONTINUOUS
10
2.93278
20
-3.79425
11
2.90669
21
-3.79425
0
LINE
8
BLACK
6
CONTINUOUS
10
2.90669
20
-3.79425
11
2.90669
21
-3.76079
0
LINE
8
BLACK
6
CONTINUOUS
10
2.90669
20
-3.76079
11
2.91676
21
-3.75072
0
LINE
8
BLACK
6
CONTINUOUS
10
2.91676
20
-3.75072
11
2.83189
21
-3.66584
0
LINE
8
BLACK
6
CONTINUOUS
10
2.83189
20
-3.66584
11
2.83189
21
-3.6663
0
LINE
8
BLACK
6
CONTINUOUS
10
2.83189
20
-3.6663
11
2.81614
21
-3.6663
0
LINE
8
BLACK
6
CONTINUOUS
10
2.81614
20
-3.6663
11
2.81614
21
-3.65104
0
LINE
8
BLACK
6
CONTINUOUS
10
2.81614
20
-3.65104
11
2.79252
21
-3.65104
0
LINE
8
BLACK
6
CONTINUOUS
10
2.79252
20
-3.65104
11
2.79252
21
-3.66236
0
LINE
8
BLACK
6
CONTINUOUS
10
2.79252
20
-3.66236
11
2.78317
21
-3.66236
0
LINE
8
BLACK
6
CONTINUOUS
10
2.78317
20
-3.66236
11
2.78317
21
-3.67811
0
LINE
8
BLACK
6
CONTINUOUS
10
2.78317
20
-3.67811
11
2.79646
21
-3.67811
0
LINE
8
BLACK
6
CONTINUOUS
10
2.79646
20
-3.67811
11
2.79646
21
-3.69386
0
LINE
8
BLACK
6
CONTINUOUS
10
2.79646
20
-3.69386
11
2.78317
21
-3.69386
0
LINE
8
BLACK
6
CONTINUOUS
10
2.78317
20
-3.69386
11
2.78317
21
-3.70961
0
LINE
8
BLACK
6
CONTINUOUS
10
2.78317
20
-3.70961
11
2.79646
21
-3.70961
0
LINE
8
BLACK
6
CONTINUOUS
10
2.79646
20
-3.70961
11
2.79646
21
-3.72535
0
LINE
8
BLACK
6
CONTINUOUS
10
2.79646
20
-3.72535
11
2.76496
21
-3.72535
0
LINE
8
BLACK
6
CONTINUOUS
10
2.76496
20
-3.72535
11
2.76496
21
-3.70961
0
LINE
8
BLACK
6
CONTINUOUS
10
2.76496
20
-3.70961
11
2.77825
21
-3.70961
0
LINE
8
BLACK
6
CONTINUOUS
10
2.77825
20
-3.70961
11
2.77825
21
-3.69386
0
LINE
8
BLACK
6
CONTINUOUS
10
2.77825
20
-3.69386
11
2.76496
21
-3.69386
0
LINE
8
BLACK
6
CONTINUOUS
10
2.76496
20
-3.69386
11
2.76496
21
-3.67811
0
LINE
8
BLACK
6
CONTINUOUS
10
2.76496
20
-3.67811
11
2.77825
21
-3.67811
0
LINE
8
BLACK
6
CONTINUOUS
10
2.77825
20
-3.67811
11
2.77825
21
-3.66236
0
LINE
8
BLACK
6
CONTINUOUS
10
2.77825
20
-3.66236
11
2.76496
21
-3.66236
0
LINE
8
BLACK
6
CONTINUOUS
10
2.76496
20
-3.66236
11
2.76496
21
-3.63828
0
LINE
8
BLACK
6
CONTINUOUS
10
2.76496
20
-3.63828
11
2.75853
21
-3.63185
0
LINE
8
BLACK
6
CONTINUOUS
10
2.75853
20
-3.63185
11
2.66339
21
-3.63185
0
LINE
8
BLACK
6
CONTINUOUS
10
2.66339
20
-3.63185
11
2.63681
21
-3.65843
0
LINE
8
BLACK
6
CONTINUOUS
10
2.63681
20
-3.65843
11
2.63681
21
-3.71059
0
LINE
8
BLACK
6
CONTINUOUS
10
2.63681
20
-3.71059
11
2.63636
21
-3.71285
0
LINE
8
BLACK
6
CONTINUOUS
10
2.63636
20
-3.71285
11
2.63508
21
-3.71477
0
LINE
8
BLACK
6
CONTINUOUS
10
2.63508
20
-3.71477
11
2.63317
21
-3.71605
0
LINE
8
BLACK
6
CONTINUOUS
10
2.63317
20
-3.71605
11
2.63091
21
-3.7165
0
LINE
8
BLACK
6
CONTINUOUS
10
2.63091
20
-3.7165
11
2.61909
21
-3.7165
0
LINE
8
BLACK
6
CONTINUOUS
10
2.61909
20
-3.7165
11
2.61683
21
-3.71605
0
LINE
8
BLACK
6
CONTINUOUS
10
2.61683
20
-3.71605
11
2.61492
21
-3.71477
0
LINE
8
BLACK
6
CONTINUOUS
10
2.61492
20
-3.71477
11
2.61364
21
-3.71285
0
LINE
8
BLACK
6
CONTINUOUS
10
2.61364
20
-3.71285
11
2.61319
21
-3.71059
0
LINE
8
BLACK
6
CONTINUOUS
10
2.61319
20
-3.71059
11
2.61319
21
-3.64563
0
LINE
8
BLACK
6
CONTINUOUS
10
2.61319
20
-3.64563
11
2.61364
21
-3.64337
0
LINE
8
BLACK
6
CONTINUOUS
10
2.61364
20
-3.64337
11
2.61492
21
-3.64145
0
LINE
8
BLACK
6
CONTINUOUS
10
2.61492
20
-3.64145
11
2.61683
21
-3.64017
0
LINE
8
BLACK
6
CONTINUOUS
10
2.61683
20
-3.64017
11
2.61909
21
-3.63972
0
LINE
8
BLACK
6
CONTINUOUS
10
2.61909
20
-3.63972
11
2.63091
21
-3.63972
0
LINE
8
BLACK
6
CONTINUOUS
10
2.63091
20
-3.63972
11
2.63317
21
-3.64017
0
LINE
8
BLACK
6
CONTINUOUS
10
2.63317
20
-3.64017
11
2.63508
21
-3.64145
0
LINE
8
BLACK
6
CONTINUOUS
10
2.63508
20
-3.64145
11
2.63636
21
-3.64337
0
LINE
8
BLACK
6
CONTINUOUS
10
2.63636
20
-3.64337
11
2.63681
21
-3.64563
0
LINE
8
BLACK
6
CONTINUOUS
10
2.63681
20
-3.64563
11
2.63681
21
-3.65147
0
LINE
8
BLACK
6
CONTINUOUS
10
2.63681
20
-3.65147
11
2.66063
21
-3.62765
0
LINE
8
BLACK
6
CONTINUOUS
10
2.66063
20
-3.62765
11
2.66063
21
-3.62765
0
LINE
8
BLACK
6
CONTINUOUS
10
2.66063
20
-3.62765
11
2.66237
21
-3.62693
0
LINE
8
BLACK
6
CONTINUOUS
10
2.66237
20
-3.62693
11
2.75361
21
-3.62693
0
LINE
8
BLACK
6
CONTINUOUS
10
2.75361
20
-3.62693
11
2.67936
21
-3.55268
0
LINE
8
BLACK
6
CONTINUOUS
10
2.67936
20
-3.55268
11
2.67864
21
-3.55094
0
LINE
8
BLACK
6
CONTINUOUS
10
2.67864
20
-3.55094
11
2.67864
21
-3.55094
0
LINE
8
BLACK
6
CONTINUOUS
10
2.67864
20
-3.55094
11
2.67864
21
-3.54425
0
LINE
8
BLACK
6
CONTINUOUS
10
2.67864
20
-3.54425
11
2.67126
21
-3.54425
0
LINE
8
BLACK
6
CONTINUOUS
10
2.67126
20
-3.54425
11
2.66768
21
-3.54354
0
LINE
8
BLACK
6
CONTINUOUS
10
2.66768
20
-3.54354
11
2.66465
21
-3.54151
0
LINE
8
BLACK
6
CONTINUOUS
10
2.66465
20
-3.54151
11
2.66262
21
-3.53848
0
LINE
8
BLACK
6
CONTINUOUS
10
2.66262
20
-3.53848
11
2.66191
21
-3.5349
0
LINE
8
BLACK
6
CONTINUOUS
10
2.66191
20
-3.5349
11
2.66191
21
-3.5162
0
LINE
8
BLACK
6
CONTINUOUS
10
2.66191
20
-3.5162
11
2.66262
21
-3.51262
0
LINE
8
BLACK
6
CONTINUOUS
10
2.66262
20
-3.51262
11
2.66465
21
-3.50959
0
LINE
8
BLACK
6
CONTINUOUS
10
2.66465
20
-3.50959
11
2.66768
21
-3.50756
0
LINE
8
BLACK
6
CONTINUOUS
10
2.66768
20
-3.50756
11
2.67126
21
-3.50685
0
LINE
8
BLACK
6
CONTINUOUS
10
2.67126
20
-3.50685
11
2.67864
21
-3.50685
0
LINE
8
BLACK
6
CONTINUOUS
10
2.67864
20
-3.50685
11
2.67864
21
-3.49622
0
LINE
8
BLACK
6
CONTINUOUS
10
2.67864
20
-3.49622
11
2.67936
21
-3.49448
0
LINE
8
BLACK
6
CONTINUOUS
10
2.67936
20
-3.49448
11
2.70787
21
-3.46597
0
LINE
8
BLACK
6
CONTINUOUS
10
2.70787
20
-3.46597
11
2.70787
21
-3.41039
0
LINE
8
BLACK
6
CONTINUOUS
10
2.70787
20
-3.41039
11
2.76693
21
-3.41039
0
LINE
8
BLACK
6
CONTINUOUS
10
2.76693
20
-3.41039
11
2.76693
21
-3.464
0
LINE
8
BLACK
6
CONTINUOUS
10
2.96378
20
-3.84593
11
2.96378
21
-3.87201
0
LINE
8
BLACK
6
CONTINUOUS
10
2.96378
20
-3.87201
11
2.9377
21
-3.87201
0
LINE
8
BLACK
6
CONTINUOUS
10
2.9377
20
-3.87201
11
2.9377
21
-3.89268
0
LINE
8
BLACK
6
CONTINUOUS
10
2.9377
20
-3.89268
11
2.96378
21
-3.89268
0
LINE
8
BLACK
6
CONTINUOUS
10
2.96378
20
-3.89268
11
2.96378
21
-3.91876
0
LINE
8
BLACK
6
CONTINUOUS
10
2.96378
20
-3.91876
11
2.98445
21
-3.91876
0
LINE
8
BLACK
6
CONTINUOUS
10
2.98445
20
-3.91876
11
2.98445
21
-3.89268
0
LINE
8
BLACK
6
CONTINUOUS
10
2.98445
20
-3.89268
11
3.01053
21
-3.89268
0
LINE
8
BLACK
6
CONTINUOUS
10
3.01053
20
-3.89268
11
3.01053
21
-3.87201
0
LINE
8
BLACK
6
CONTINUOUS
10
3.01053
20
-3.87201
11
2.98445
21
-3.87201
0
LINE
8
BLACK
6
CONTINUOUS
10
2.98445
20
-3.87201
11
2.98445
21
-3.84593
0
LINE
8
BLACK
6
CONTINUOUS
10
2.98445
20
-3.84593
11
2.96378
21
-3.84593
0
LINE
8
BLACK
6
CONTINUOUS
10
3.04154
20
-3.84593
11
3.04154
21
-3.87201
0
LINE
8
BLACK
6
CONTINUOUS
10
3.04154
20
-3.87201
11
3.01545
21
-3.87201
0
LINE
8
BLACK
6
CONTINUOUS
10
3.01545
20
-3.87201
11
3.01545
21
-3.89268
0
LINE
8
BLACK
6
CONTINUOUS
10
3.01545
20
-3.89268
11
3.04154
21
-3.89268
0
LINE
8
BLACK
6
CONTINUOUS
10
3.04154
20
-3.89268
11
3.04154
21
-3.91876
0
LINE
8
BLACK
6
CONTINUOUS
10
3.04154
20
-3.91876
11
3.0622
21
-3.91876
0
LINE
8
BLACK
6
CONTINUOUS
10
3.0622
20
-3.91876
11
3.0622
21
-3.89268
0
LINE
8
BLACK
6
CONTINUOUS
10
3.0622
20
-3.89268
11
3.08829
21
-3.89268
0
LINE
8
BLACK
6
CONTINUOUS
10
3.08829
20
-3.89268
11
3.08829
21
-3.87201
0
LINE
8
BLACK
6
CONTINUOUS
10
3.08829
20
-3.87201
11
3.0622
21
-3.87201
0
LINE
8
BLACK
6
CONTINUOUS
10
3.0622
20
-3.87201
11
3.0622
21
-3.84593
0
LINE
8
BLACK
6
CONTINUOUS
10
3.0622
20
-3.84593
11
3.04154
21
-3.84593
0
LINE
8
BLACK
6
CONTINUOUS
10
2.96378
20
-3.76817
11
2.96378
21
-3.79425
0
LINE
8
BLACK
6
CONTINUOUS
10
2.96378
20
-3.79425
11
2.9377
21
-3.79425
0
LINE
8
BLACK
6
CONTINUOUS
10
2.9377
20
-3.79425
11
2.9377
21
-3.81492
0
LINE
8
BLACK
6
CONTINUOUS
10
2.9377
20
-3.81492
11
2.96378
21
-3.81492
0
LINE
8
BLACK
6
CONTINUOUS
10
2.96378
20
-3.81492
11
2.96378
21
-3.841
0
LINE
8
BLACK
6
CONTINUOUS
10
2.96378
20
-3.841
11
2.98445
21
-3.841
0
LINE
8
BLACK
6
CONTINUOUS
10
2.98445
20
-3.841
11
2.98445
21
-3.81492
0
LINE
8
BLACK
6
CONTINUOUS
10
2.98445
20
-3.81492
11
3.01053
21
-3.81492
0
LINE
8
BLACK
6
CONTINUOUS
10
3.01053
20
-3.81492
11
3.01053
21
-3.79425
0
LINE
8
BLACK
6
CONTINUOUS
10
3.01053
20
-3.79425
11
2.98445
21
-3.79425
0
LINE
8
BLACK
6
CONTINUOUS
10
2.98445
20
-3.79425
11
2.98445
21
-3.76817
0
LINE
8
BLACK
6
CONTINUOUS
10
2.98445
20
-3.76817
11
2.96378
21
-3.76817
0
LINE
8
BLACK
6
CONTINUOUS
10
3.04154
20
-3.76817
11
3.04154
21
-3.79425
0
LINE
8
BLACK
6
CONTINUOUS
10
3.04154
20
-3.79425
11
3.01545
21
-3.79425
0
LINE
8
BLACK
6
CONTINUOUS
10
3.01545
20
-3.79425
11
3.01545
21
-3.81492
0
LINE
8
BLACK
6
CONTINUOUS
10
3.01545
20
-3.81492
11
3.04154
21
-3.81492
0
LINE
8
BLACK
6
CONTINUOUS
10
3.04154
20
-3.81492
11
3.04154
21
-3.841
0
LINE
8
BLACK
6
CONTINUOUS
10
3.04154
20
-3.841
11
3.0622
21
-3.841
0
LINE
8
BLACK
6
CONTINUOUS
10
3.0622
20
-3.841
11
3.0622
21
-3.81492
0
LINE
8
BLACK
6
CONTINUOUS
10
3.0622
20
-3.81492
11
3.08829
21
-3.81492
0
LINE
8
BLACK
6
CONTINUOUS
10
3.08829
20
-3.81492
11
3.08829
21
-3.79425
0
LINE
8
BLACK
6
CONTINUOUS
10
3.08829
20
-3.79425
11
3.0622
21
-3.79425
0
LINE
8
BLACK
6
CONTINUOUS
10
3.0622
20
-3.79425
11
3.0622
21
-3.76817
0
LINE
8
BLACK
6
CONTINUOUS
10
3.0622
20
-3.76817
11
3.04154
21
-3.76817
0
LINE
8
BLACK
6
CONTINUOUS
10
2.58317
20
-3.83506
11
2.58508
21
-3.83634
0
LINE
8
BLACK
6
CONTINUOUS
10
2.58508
20
-3.83634
11
2.58636
21
-3.83825
0
LINE
8
BLACK
6
CONTINUOUS
10
2.58636
20
-3.83825
11
2.58681
21
-3.84051
0
LINE
8
BLACK
6
CONTINUOUS
10
2.58681
20
-3.84051
11
2.58681
21
-3.90547
0
LINE
8
BLACK
6
CONTINUOUS
10
2.58681
20
-3.90547
11
2.58636
21
-3.90773
0
LINE
8
BLACK
6
CONTINUOUS
10
2.58636
20
-3.90773
11
2.58508
21
-3.90965
0
LINE
8
BLACK
6
CONTINUOUS
10
2.58508
20
-3.90965
11
2.58317
21
-3.91093
0
LINE
8
BLACK
6
CONTINUOUS
10
2.58317
20
-3.91093
11
2.58091
21
-3.91138
0
LINE
8
BLACK
6
CONTINUOUS
10
2.58091
20
-3.91138
11
2.57746
21
-3.91138
0
LINE
8
BLACK
6
CONTINUOUS
10
2.57746
20
-3.91138
11
2.57746
21
-4.06938
0
LINE
8
BLACK
6
CONTINUOUS
10
2.57746
20
-4.06938
11
2.75853
21
-4.25045
0
LINE
8
BLACK
6
CONTINUOUS
10
2.75853
20
-4.25045
11
2.75853
21
-4.25045
0
LINE
8
BLACK
6
CONTINUOUS
10
2.75853
20
-4.25045
11
2.75925
21
-4.25219
0
LINE
8
BLACK
6
CONTINUOUS
10
2.75925
20
-4.25219
11
2.75925
21
-4.38869
0
LINE
8
BLACK
6
CONTINUOUS
10
2.75925
20
-4.38869
11
2.78187
21
-4.4113
0
LINE
8
BLACK
6
CONTINUOUS
10
2.78187
20
-4.4113
11
2.80102
21
-4.4113
0
LINE
8
BLACK
6
CONTINUOUS
10
2.80102
20
-4.4113
11
2.80102
21
-4.42902
0
LINE
8
BLACK
6
CONTINUOUS
10
2.80102
20
-4.42902
11
2.78187
21
-4.42902
0
LINE
8
BLACK
6
CONTINUOUS
10
2.78187
20
-4.42902
11
2.76874
21
-4.44214
0
LINE
8
BLACK
6
CONTINUOUS
10
2.76874
20
-4.44214
11
2.76874
21
-4.50676
0
LINE
8
BLACK
6
CONTINUOUS
10
2.76874
20
-4.50676
11
2.77317
21
-4.51119
0
LINE
8
BLACK
6
CONTINUOUS
10
2.77317
20
-4.51119
11
2.77382
21
-4.51075
0
LINE
8
BLACK
6
CONTINUOUS
10
2.77382
20
-4.51075
11
2.7774
21
-4.51004
0
LINE
8
BLACK
6
CONTINUOUS
10
2.7774
20
-4.51004
11
2.79709
21
-4.51004
0
LINE
8
BLACK
6
CONTINUOUS
10
2.79709
20
-4.51004
11
2.80066
21
-4.51075
0
LINE
8
BLACK
6
CONTINUOUS
10
2.80066
20
-4.51075
11
2.8037
21
-4.51278
0
LINE
8
BLACK
6
CONTINUOUS
10
2.8037
20
-4.51278
11
2.80573
21
-4.51581
0
LINE
8
BLACK
6
CONTINUOUS
10
2.80573
20
-4.51581
11
2.80644
21
-4.51939
0
LINE
8
BLACK
6
CONTINUOUS
10
2.80644
20
-4.51939
11
2.80644
21
-4.52628
0
LINE
8
BLACK
6
CONTINUOUS
10
2.80644
20
-4.52628
11
2.84819
21
-4.52628
0
LINE
8
BLACK
6
CONTINUOUS
10
2.84819
20
-4.52628
11
3.11683
21
-4.25764
0
LINE
8
BLACK
6
CONTINUOUS
10
3.11683
20
-4.25764
11
3.11683
21
-4.21438
0
LINE
8
BLACK
6
CONTINUOUS
10
3.11683
20
-4.21438
11
3.11579
21
-4.21438
0
LINE
8
BLACK
6
CONTINUOUS
10
3.11579
20
-4.21438
11
3.10895
21
-4.21293
0
LINE
8
BLACK
6
CONTINUOUS
10
3.10895
20
-4.21293
11
3.10256
21
-4.21008
0
LINE
8
BLACK
6
CONTINUOUS
10
3.10256
20
-4.21008
11
3.0969
21
-4.20597
0
LINE
8
BLACK
6
CONTINUOUS
10
3.0969
20
-4.20597
11
3.09222
21
-4.20077
0
LINE
8
BLACK
6
CONTINUOUS
10
3.09222
20
-4.20077
11
3.08872
21
-4.19471
0
LINE
8
BLACK
6
CONTINUOUS
10
3.08872
20
-4.19471
11
3.08656
21
-4.18806
0
LINE
8
BLACK
6
CONTINUOUS
10
3.08656
20
-4.18806
11
3.08583
21
-4.1811
0
LINE
8
BLACK
6
CONTINUOUS
10
3.08583
20
-4.1811
11
3.08656
21
-4.17414
0
LINE
8
BLACK
6
CONTINUOUS
10
3.08656
20
-4.17414
11
3.08872
21
-4.16749
0
LINE
8
BLACK
6
CONTINUOUS
10
3.08872
20
-4.16749
11
3.09222
21
-4.16143
0
LINE
8
BLACK
6
CONTINUOUS
10
3.09222
20
-4.16143
11
3.0969
21
-4.15623
0
LINE
8
BLACK
6
CONTINUOUS
10
3.0969
20
-4.15623
11
3.10256
21
-4.15212
0
LINE
8
BLACK
6
CONTINUOUS
10
3.10256
20
-4.15212
11
3.10895
21
-4.14928
0
LINE
8
BLACK
6
CONTINUOUS
10
3.10895
20
-4.14928
11
3.11579
21
-4.14782
0
LINE
8
BLACK
6
CONTINUOUS
10
3.11579
20
-4.14782
11
3.12279
21
-4.14782
0
LINE
8
BLACK
6
CONTINUOUS
10
3.12279
20
-4.14782
11
3.12963
21
-4.14928
0
LINE
8
BLACK
6
CONTINUOUS
10
3.12963
20
-4.14928
11
3.13602
21
-4.15212
0
LINE
8
BLACK
6
CONTINUOUS
10
3.13602
20
-4.15212
11
3.14168
21
-4.15623
0
LINE
8
BLACK
6
CONTINUOUS
10
3.14168
20
-4.15623
11
3.14636
21
-4.16143
0
LINE
8
BLACK
6
CONTINUOUS
10
3.14636
20
-4.16143
11
3.14986
21
-4.16749
0
LINE
8
BLACK
6
CONTINUOUS
10
3.14986
20
-4.16749
11
3.15202
21
-4.17414
0
LINE
8
BLACK
6
CONTINUOUS
10
3.15202
20
-4.17414
11
3.15276
21
-4.1811
0
LINE
8
BLACK
6
CONTINUOUS
10
3.15276
20
-4.1811
11
3.15202
21
-4.18806
0
LINE
8
BLACK
6
CONTINUOUS
10
3.15202
20
-4.18806
11
3.14986
21
-4.19471
0
LINE
8
BLACK
6
CONTINUOUS
10
3.14986
20
-4.19471
11
3.14636
21
-4.20077
0
LINE
8
BLACK
6
CONTINUOUS
10
3.14636
20
-4.20077
11
3.14168
21
-4.20597
0
LINE
8
BLACK
6
CONTINUOUS
10
3.14168
20
-4.20597
11
3.13602
21
-4.21008
0
LINE
8
BLACK
6
CONTINUOUS
10
3.13602
20
-4.21008
11
3.12963
21
-4.21293
0
LINE
8
BLACK
6
CONTINUOUS
10
3.12963
20
-4.21293
11
3.12279
21
-4.21438
0
LINE
8
BLACK
6
CONTINUOUS
10
3.12279
20
-4.21438
11
3.12175
21
-4.21438
0
LINE
8
BLACK
6
CONTINUOUS
10
3.12175
20
-4.21438
11
3.12175
21
-4.25866
0
LINE
8
BLACK
6
CONTINUOUS
10
3.12175
20
-4.25866
11
3.12103
21
-4.2604
0
LINE
8
BLACK
6
CONTINUOUS
10
3.12103
20
-4.2604
11
2.85095
21
-4.53048
0
LINE
8
BLACK
6
CONTINUOUS
10
2.85095
20
-4.53048
11
2.84921
21
-4.5312
0
LINE
8
BLACK
6
CONTINUOUS
10
2.84921
20
-4.5312
11
2.80644
21
-4.5312
0
LINE
8
BLACK
6
CONTINUOUS
10
2.80644
20
-4.5312
11
2.80644
21
-4.53809
0
LINE
8
BLACK
6
CONTINUOUS
10
2.80644
20
-4.53809
11
2.80573
21
-4.54167
0
LINE
8
BLACK
6
CONTINUOUS
10
2.80573
20
-4.54167
11
2.8037
21
-4.5447
0
LINE
8
BLACK
6
CONTINUOUS
10
2.8037
20
-4.5447
11
2.80066
21
-4.54673
0
LINE
8
BLACK
6
CONTINUOUS
10
2.80066
20
-4.54673
11
2.79709
21
-4.54744
0
LINE
8
BLACK
6
CONTINUOUS
10
2.79709
20
-4.54744
11
2.7774
21
-4.54744
0
LINE
8
BLACK
6
CONTINUOUS
10
2.7774
20
-4.54744
11
2.77382
21
-4.54673
0
LINE
8
BLACK
6
CONTINUOUS
10
2.77382
20
-4.54673
11
2.77079
21
-4.5447
0
LINE
8
BLACK
6
CONTINUOUS
10
2.77079
20
-4.5447
11
2.76876
21
-4.54167
0
LINE
8
BLACK
6
CONTINUOUS
10
2.76876
20
-4.54167
11
2.76805
21
-4.53809
0
LINE
8
BLACK
6
CONTINUOUS
10
2.76805
20
-4.53809
11
2.76805
21
-4.51939
0
LINE
8
BLACK
6
CONTINUOUS
10
2.76805
20
-4.51939
11
2.76876
21
-4.51581
0
LINE
8
BLACK
6
CONTINUOUS
10
2.76876
20
-4.51581
11
2.76959
21
-4.51457
0
LINE
8
BLACK
6
CONTINUOUS
10
2.76959
20
-4.51457
11
2.76454
21
-4.50952
0
LINE
8
BLACK
6
CONTINUOUS
10
2.76454
20
-4.50952
11
2.76382
21
-4.50778
0
LINE
8
BLACK
6
CONTINUOUS
10
2.76382
20
-4.50778
11
2.76382
21
-4.44112
0
LINE
8
BLACK
6
CONTINUOUS
10
2.76382
20
-4.44112
11
2.76454
21
-4.43938
0
LINE
8
BLACK
6
CONTINUOUS
10
2.76454
20
-4.43938
11
2.76454
21
-4.43938
0
LINE
8
BLACK
6
CONTINUOUS
10
2.76454
20
-4.43938
11
2.77491
21
-4.42902
0
LINE
8
BLACK
6
CONTINUOUS
10
2.77491
20
-4.42902
11
2.77346
21
-4.42902
0
LINE
8
BLACK
6
CONTINUOUS
10
2.77346
20
-4.42902
11
2.77346
21
-4.4113
0
LINE
8
BLACK
6
CONTINUOUS
10
2.77346
20
-4.4113
11
2.77491
21
-4.4113
0
LINE
8
BLACK
6
CONTINUOUS
10
2.77491
20
-4.4113
11
2.75505
21
-4.39144
0
LINE
8
BLACK
6
CONTINUOUS
10
2.75505
20
-4.39144
11
2.75433
21
-4.3897
0
LINE
8
BLACK
6
CONTINUOUS
10
2.75433
20
-4.3897
11
2.75433
21
-4.25321
0
LINE
8
BLACK
6
CONTINUOUS
10
2.75433
20
-4.25321
11
2.57326
21
-4.07213
0
LINE
8
BLACK
6
CONTINUOUS
10
2.57326
20
-4.07213
11
2.57254
21
-4.07039
0
LINE
8
BLACK
6
CONTINUOUS
10
2.57254
20
-4.07039
11
2.57254
21
-4.07039
0
LINE
8
BLACK
6
CONTINUOUS
10
2.57254
20
-4.07039
11
2.57254
21
-3.91138
0
LINE
8
BLACK
6
CONTINUOUS
10
2.57254
20
-3.91138
11
2.56909
21
-3.91138
0
LINE
8
BLACK
6
CONTINUOUS
10
2.56909
20
-3.91138
11
2.56683
21
-3.91093
0
LINE
8
BLACK
6
CONTINUOUS
10
2.56683
20
-3.91093
11
2.56492
21
-3.90965
0
LINE
8
BLACK
6
CONTINUOUS
10
2.56492
20
-3.90965
11
2.56364
21
-3.90773
0
LINE
8
BLACK
6
CONTINUOUS
10
2.56364
20
-3.90773
11
2.56319
21
-3.90547
0
LINE
8
BLACK
6
CONTINUOUS
10
2.56319
20
-3.90547
11
2.56319
21
-3.84051
0
LINE
8
BLACK
6
CONTINUOUS
10
2.56319
20
-3.84051
11
2.56364
21
-3.83825
0
LINE
8
BLACK
6
CONTINUOUS
10
2.56364
20
-3.83825
11
2.56492
21
-3.83634
0
LINE
8
BLACK
6
CONTINUOUS
10
2.56492
20
-3.83634
11
2.56683
21
-3.83506
0
LINE
8
BLACK
6
CONTINUOUS
10
2.56683
20
-3.83506
11
2.56909
21
-3.83461
0
LINE
8
BLACK
6
CONTINUOUS
10
2.56909
20
-3.83461
11
2.58091
21
-3.83461
0
LINE
8
BLACK
6
CONTINUOUS
10
2.58091
20
-3.83461
11
2.58317
21
-3.83506
0
LINE
8
BLACK
6
CONTINUOUS
10
2.80165
20
-4.36579
11
2.80021
21
-4.36579
0
LINE
8
BLACK
6
CONTINUOUS
10
2.80021
20
-4.36579
11
2.81665
21
-4.38222
0
LINE
8
BLACK
6
CONTINUOUS
10
2.81665
20
-4.38222
11
2.81902
21
-4.38222
0
LINE
8
BLACK
6
CONTINUOUS
10
2.81902
20
-4.38222
11
2.82191
21
-4.37934
0
LINE
8
BLACK
6
CONTINUOUS
10
2.82191
20
-4.37934
11
2.82191
21
-4.37934
0
LINE
8
BLACK
6
CONTINUOUS
10
2.82191
20
-4.37934
11
2.81967
21
-4.37495
0
LINE
8
BLACK
6
CONTINUOUS
10
2.81967
20
-4.37495
11
2.8189
21
-4.37008
0
LINE
8
BLACK
6
CONTINUOUS
10
2.8189
20
-4.37008
11
2.81967
21
-4.36521
0
LINE
8
BLACK
6
CONTINUOUS
10
2.81967
20
-4.36521
11
2.82191
21
-4.36082
0
LINE
8
BLACK
6
CONTINUOUS
10
2.82191
20
-4.36082
11
2.82539
21
-4.35734
0
LINE
8
BLACK
6
CONTINUOUS
10
2.82539
20
-4.35734
11
2.82978
21
-4.3551
0
LINE
8
BLACK
6
CONTINUOUS
10
2.82978
20
-4.3551
11
2.83465
21
-4.35433
0
LINE
8
BLACK
6
CONTINUOUS
10
2.83465
20
-4.35433
11
2.83951
21
-4.3551
0
LINE
8
BLACK
6
CONTINUOUS
10
2.83951
20
-4.3551
11
2.8439
21
-4.35734
0
LINE
8
BLACK
6
CONTINUOUS
10
2.8439
20
-4.35734
11
2.84739
21
-4.36082
0
LINE
8
BLACK
6
CONTINUOUS
10
2.84739
20
-4.36082
11
2.84962
21
-4.36521
0
LINE
8
BLACK
6
CONTINUOUS
10
2.84962
20
-4.36521
11
2.85039
21
-4.37008
0
LINE
8
BLACK
6
CONTINUOUS
10
2.85039
20
-4.37008
11
2.84962
21
-4.37495
0
LINE
8
BLACK
6
CONTINUOUS
10
2.84962
20
-4.37495
11
2.84739
21
-4.37934
0
LINE
8
BLACK
6
CONTINUOUS
10
2.84739
20
-4.37934
11
2.8439
21
-4.38282
0
LINE
8
BLACK
6
CONTINUOUS
10
2.8439
20
-4.38282
11
2.83951
21
-4.38506
0
LINE
8
BLACK
6
CONTINUOUS
10
2.83951
20
-4.38506
11
2.83465
21
-4.38583
0
LINE
8
BLACK
6
CONTINUOUS
10
2.83465
20
-4.38583
11
2.82978
21
-4.38506
0
LINE
8
BLACK
6
CONTINUOUS
10
2.82978
20
-4.38506
11
2.82539
21
-4.38282
0
LINE
8
BLACK
6
CONTINUOUS
10
2.82539
20
-4.38282
11
2.82539
21
-4.38282
0
LINE
8
BLACK
6
CONTINUOUS
10
2.82539
20
-4.38282
11
2.82178
21
-4.38642
0
LINE
8
BLACK
6
CONTINUOUS
10
2.82178
20
-4.38642
11
2.82004
21
-4.38715
0
LINE
8
BLACK
6
CONTINUOUS
10
2.82004
20
-4.38715
11
2.81809
21
-4.38715
0
LINE
8
BLACK
6
CONTINUOUS
10
2.81809
20
-4.38715
11
2.81809
21
-4.44295
0
LINE
8
BLACK
6
CONTINUOUS
10
2.81809
20
-4.44295
11
2.81737
21
-4.44469
0
LINE
8
BLACK
6
CONTINUOUS
10
2.81737
20
-4.44469
11
2.79958
21
-4.46248
0
LINE
8
BLACK
6
CONTINUOUS
10
2.79958
20
-4.46248
11
2.80102
21
-4.46248
0
LINE
8
BLACK
6
CONTINUOUS
10
2.80102
20
-4.46248
11
2.80102
21
-4.4802
0
LINE
8
BLACK
6
CONTINUOUS
10
2.80102
20
-4.4802
11
2.77346
21
-4.4802
0
LINE
8
BLACK
6
CONTINUOUS
10
2.77346
20
-4.4802
11
2.77346
21
-4.46248
0
LINE
8
BLACK
6
CONTINUOUS
10
2.77346
20
-4.46248
11
2.79262
21
-4.46248
0
LINE
8
BLACK
6
CONTINUOUS
10
2.79262
20
-4.46248
11
2.81317
21
-4.44193
0
LINE
8
BLACK
6
CONTINUOUS
10
2.81317
20
-4.44193
11
2.81317
21
-4.3857
0
LINE
8
BLACK
6
CONTINUOUS
10
2.81317
20
-4.3857
11
2.79325
21
-4.36579
0
LINE
8
BLACK
6
CONTINUOUS
10
2.79325
20
-4.36579
11
2.77409
21
-4.36579
0
LINE
8
BLACK
6
CONTINUOUS
10
2.77409
20
-4.36579
11
2.77409
21
-4.34807
0
LINE
8
BLACK
6
CONTINUOUS
10
2.77409
20
-4.34807
11
2.80165
21
-4.34807
0
LINE
8
BLACK
6
CONTINUOUS
10
2.80165
20
-4.34807
11
2.80165
21
-4.36579
0
LINE
8
BLACK
6
CONTINUOUS
10
2.63317
20
-3.83506
11
2.63508
21
-3.83634
0
LINE
8
BLACK
6
CONTINUOUS
10
2.63508
20
-3.83634
11
2.63636
21
-3.83825
0
LINE
8
BLACK
6
CONTINUOUS
10
2.63636
20
-3.83825
11
2.63681
21
-3.84051
0
LINE
8
BLACK
6
CONTINUOUS
10
2.63681
20
-3.84051
11
2.63681
21
-3.90547
0
LINE
8
BLACK
6
CONTINUOUS
10
2.63681
20
-3.90547
11
2.63636
21
-3.90773
0
LINE
8
BLACK
6
CONTINUOUS
10
2.63636
20
-3.90773
11
2.63508
21
-3.90965
0
LINE
8
BLACK
6
CONTINUOUS
10
2.63508
20
-3.90965
11
2.63317
21
-3.91093
0
LINE
8
BLACK
6
CONTINUOUS
10
2.63317
20
-3.91093
11
2.63091
21
-3.91138
0
LINE
8
BLACK
6
CONTINUOUS
10
2.63091
20
-3.91138
11
2.62746
21
-3.91138
0
LINE
8
BLACK
6
CONTINUOUS
10
2.62746
20
-3.91138
11
2.62746
21
-4.0901
0
LINE
8
BLACK
6
CONTINUOUS
10
2.62746
20
-4.0901
11
2.7691
21
-4.23174
0
LINE
8
BLACK
6
CONTINUOUS
10
2.7691
20
-4.23174
11
2.76975
21
-4.2313
0
LINE
8
BLACK
6
CONTINUOUS
10
2.76975
20
-4.2313
11
2.77333
21
-4.23059
0
LINE
8
BLACK
6
CONTINUOUS
10
2.77333
20
-4.23059
11
2.79301
21
-4.23059
0
LINE
8
BLACK
6
CONTINUOUS
10
2.79301
20
-4.23059
11
2.79659
21
-4.2313
0
LINE
8
BLACK
6
CONTINUOUS
10
2.79659
20
-4.2313
11
2.79962
21
-4.23333
0
LINE
8
BLACK
6
CONTINUOUS
10
2.79962
20
-4.23333
11
2.80165
21
-4.23636
0
LINE
8
BLACK
6
CONTINUOUS
10
2.80165
20
-4.23636
11
2.80236
21
-4.23994
0
LINE
8
BLACK
6
CONTINUOUS
10
2.80236
20
-4.23994
11
2.80236
21
-4.24683
0
LINE
8
BLACK
6
CONTINUOUS
10
2.80236
20
-4.24683
11
2.95008
21
-4.24683
0
LINE
8
BLACK
6
CONTINUOUS
10
2.95008
20
-4.24683
11
2.99408
21
-4.20284
0
LINE
8
BLACK
6
CONTINUOUS
10
2.99408
20
-4.20284
11
2.99222
21
-4.20077
0
LINE
8
BLACK
6
CONTINUOUS
10
2.99222
20
-4.20077
11
2.98872
21
-4.19471
0
LINE
8
BLACK
6
CONTINUOUS
10
2.98872
20
-4.19471
11
2.98656
21
-4.18806
0
LINE
8
BLACK
6
CONTINUOUS
10
2.98656
20
-4.18806
11
2.98583
21
-4.1811
0
LINE
8
BLACK
6
CONTINUOUS
10
2.98583
20
-4.1811
11
2.98656
21
-4.17414
0
LINE
8
BLACK
6
CONTINUOUS
10
2.98656
20
-4.17414
11
2.98872
21
-4.16749
0
LINE
8
BLACK
6
CONTINUOUS
10
2.98872
20
-4.16749
11
2.99222
21
-4.16143
0
LINE
8
BLACK
6
CONTINUOUS
10
2.99222
20
-4.16143
11
2.9969
21
-4.15623
0
LINE
8
BLACK
6
CONTINUOUS
10
2.9969
20
-4.15623
11
3.00256
21
-4.15212
0
LINE
8
BLACK
6
CONTINUOUS
10
3.00256
20
-4.15212
11
3.00895
21
-4.14928
0
LINE
8
BLACK
6
CONTINUOUS
10
3.00895
20
-4.14928
11
3.01579
21
-4.14782
0
LINE
8
BLACK
6
CONTINUOUS
10
3.01579
20
-4.14782
11
3.02279
21
-4.14782
0
LINE
8
BLACK
6
CONTINUOUS
10
3.02279
20
-4.14782
11
3.02963
21
-4.14928
0
LINE
8
BLACK
6
CONTINUOUS
10
3.02963
20
-4.14928
11
3.03602
21
-4.15212
0
LINE
8
BLACK
6
CONTINUOUS
10
3.03602
20
-4.15212
11
3.04168
21
-4.15623
0
LINE
8
BLACK
6
CONTINUOUS
10
3.04168
20
-4.15623
11
3.04636
21
-4.16143
0
LINE
8
BLACK
6
CONTINUOUS
10
3.04636
20
-4.16143
11
3.04986
21
-4.16749
0
LINE
8
BLACK
6
CONTINUOUS
10
3.04986
20
-4.16749
11
3.05202
21
-4.17414
0
LINE
8
BLACK
6
CONTINUOUS
10
3.05202
20
-4.17414
11
3.05276
21
-4.1811
0
LINE
8
BLACK
6
CONTINUOUS
10
3.05276
20
-4.1811
11
3.05202
21
-4.18806
0
LINE
8
BLACK
6
CONTINUOUS
10
3.05202
20
-4.18806
11
3.04986
21
-4.19471
0
LINE
8
BLACK
6
CONTINUOUS
10
3.04986
20
-4.19471
11
3.04636
21
-4.20077
0
LINE
8
BLACK
6
CONTINUOUS
10
3.04636
20
-4.20077
11
3.04168
21
-4.20597
0
LINE
8
BLACK
6
CONTINUOUS
10
3.04168
20
-4.20597
11
3.03602
21
-4.21008
0
LINE
8
BLACK
6
CONTINUOUS
10
3.03602
20
-4.21008
11
3.02963
21
-4.21293
0
LINE
8
BLACK
6
CONTINUOUS
10
3.02963
20
-4.21293
11
3.02279
21
-4.21438
0
LINE
8
BLACK
6
CONTINUOUS
10
3.02279
20
-4.21438
11
3.01579
21
-4.21438
0
LINE
8
BLACK
6
CONTINUOUS
10
3.01579
20
-4.21438
11
3.00895
21
-4.21293
0
LINE
8
BLACK
6
CONTINUOUS
10
3.00895
20
-4.21293
11
3.00256
21
-4.21008
0
LINE
8
BLACK
6
CONTINUOUS
10
3.00256
20
-4.21008
11
2.99748
21
-4.20639
0
LINE
8
BLACK
6
CONTINUOUS
10
2.99748
20
-4.20639
11
2.95284
21
-4.25103
0
LINE
8
BLACK
6
CONTINUOUS
10
2.95284
20
-4.25103
11
2.9511
21
-4.25175
0
LINE
8
BLACK
6
CONTINUOUS
10
2.9511
20
-4.25175
11
2.80236
21
-4.25175
0
LINE
8
BLACK
6
CONTINUOUS
10
2.80236
20
-4.25175
11
2.80236
21
-4.25864
0
LINE
8
BLACK
6
CONTINUOUS
10
2.80236
20
-4.25864
11
2.80165
21
-4.26222
0
LINE
8
BLACK
6
CONTINUOUS
10
2.80165
20
-4.26222
11
2.79962
21
-4.26525
0
LINE
8
BLACK
6
CONTINUOUS
10
2.79962
20
-4.26525
11
2.79659
21
-4.26728
0
LINE
8
BLACK
6
CONTINUOUS
10
2.79659
20
-4.26728
11
2.79301
21
-4.26799
0
LINE
8
BLACK
6
CONTINUOUS
10
2.79301
20
-4.26799
11
2.79033
21
-4.26799
0
LINE
8
BLACK
6
CONTINUOUS
10
2.79033
20
-4.26799
11
2.79033
21
-4.29689
0
LINE
8
BLACK
6
CONTINUOUS
10
2.79033
20
-4.29689
11
2.80165
21
-4.29689
0
LINE
8
BLACK
6
CONTINUOUS
10
2.80165
20
-4.29689
11
2.80165
21
-4.31461
0
LINE
8
BLACK
6
CONTINUOUS
10
2.80165
20
-4.31461
11
2.77409
21
-4.31461
0
LINE
8
BLACK
6
CONTINUOUS
10
2.77409
20
-4.31461
11
2.77409
21
-4.29689
0
LINE
8
BLACK
6
CONTINUOUS
10
2.77409
20
-4.29689
11
2.78541
21
-4.29689
0
LINE
8
BLACK
6
CONTINUOUS
10
2.78541
20
-4.29689
11
2.78541
21
-4.26799
0
LINE
8
BLACK
6
CONTINUOUS
10
2.78541
20
-4.26799
11
2.77333
21
-4.26799
0
LINE
8
BLACK
6
CONTINUOUS
10
2.77333
20
-4.26799
11
2.76975
21
-4.26728
0
LINE
8
BLACK
6
CONTINUOUS
10
2.76975
20
-4.26728
11
2.76672
21
-4.26525
0
LINE
8
BLACK
6
CONTINUOUS
10
2.76672
20
-4.26525
11
2.76469
21
-4.26222
0
LINE
8
BLACK
6
CONTINUOUS
10
2.76469
20
-4.26222
11
2.76398
21
-4.25864
0
LINE
8
BLACK
6
CONTINUOUS
10
2.76398
20
-4.25864
11
2.76398
21
-4.23994
0
LINE
8
BLACK
6
CONTINUOUS
10
2.76398
20
-4.23994
11
2.76469
21
-4.23636
0
LINE
8
BLACK
6
CONTINUOUS
10
2.76469
20
-4.23636
11
2.76552
21
-4.23512
0
LINE
8
BLACK
6
CONTINUOUS
10
2.76552
20
-4.23512
11
2.62326
21
-4.09286
0
LINE
8
BLACK
6
CONTINUOUS
10
2.62326
20
-4.09286
11
2.62254
21
-4.09112
0
LINE
8
BLACK
6
CONTINUOUS
10
2.62254
20
-4.09112
11
2.62254
21
-4.09112
0
LINE
8
BLACK
6
CONTINUOUS
10
2.62254
20
-4.09112
11
2.62254
21
-3.91138
0
LINE
8
BLACK
6
CONTINUOUS
10
2.62254
20
-3.91138
11
2.61909
21
-3.91138
0
LINE
8
BLACK
6
CONTINUOUS
10
2.61909
20
-3.91138
11
2.61683
21
-3.91093
0
LINE
8
BLACK
6
CONTINUOUS
10
2.61683
20
-3.91093
11
2.61492
21
-3.90965
0
LINE
8
BLACK
6
CONTINUOUS
10
2.61492
20
-3.90965
11
2.61364
21
-3.90773
0
LINE
8
BLACK
6
CONTINUOUS
10
2.61364
20
-3.90773
11
2.61319
21
-3.90547
0
LINE
8
BLACK
6
CONTINUOUS
10
2.61319
20
-3.90547
11
2.61319
21
-3.84051
0
LINE
8
BLACK
6
CONTINUOUS
10
2.61319
20
-3.84051
11
2.61364
21
-3.83825
0
LINE
8
BLACK
6
CONTINUOUS
10
2.61364
20
-3.83825
11
2.61492
21
-3.83634
0
LINE
8
BLACK
6
CONTINUOUS
10
2.61492
20
-3.83634
11
2.61683
21
-3.83506
0
LINE
8
BLACK
6
CONTINUOUS
10
2.61683
20
-3.83506
11
2.61909
21
-3.83461
0
LINE
8
BLACK
6
CONTINUOUS
10
2.61909
20
-3.83461
11
2.63091
21
-3.83461
0
LINE
8
BLACK
6
CONTINUOUS
10
2.63091
20
-3.83461
11
2.63317
21
-3.83506
0
LINE
8
BLACK
6
CONTINUOUS
10
2.95276
20
-4.21457
11
2.88583
21
-4.21457
0
LINE
8
BLACK
6
CONTINUOUS
10
2.88583
20
-4.21457
11
2.88583
21
-4.14764
0
LINE
8
BLACK
6
CONTINUOUS
10
2.88583
20
-4.14764
11
2.95276
21
-4.14764
0
LINE
8
BLACK
6
CONTINUOUS
10
2.95276
20
-4.14764
11
2.95276
21
-4.21457
0
LINE
8
BLACK
6
CONTINUOUS
10
2.53317
20
-3.64017
11
2.53508
21
-3.64145
0
LINE
8
BLACK
6
CONTINUOUS
10
2.53508
20
-3.64145
11
2.53636
21
-3.64337
0
LINE
8
BLACK
6
CONTINUOUS
10
2.53636
20
-3.64337
11
2.53681
21
-3.64563
0
LINE
8
BLACK
6
CONTINUOUS
10
2.53681
20
-3.64563
11
2.53681
21
-3.69779
0
LINE
8
BLACK
6
CONTINUOUS
10
2.53681
20
-3.69779
11
2.56339
21
-3.72437
0
LINE
8
BLACK
6
CONTINUOUS
10
2.56339
20
-3.72437
11
2.62628
21
-3.72437
0
LINE
8
BLACK
6
CONTINUOUS
10
2.62628
20
-3.72437
11
2.62802
21
-3.72509
0
LINE
8
BLACK
6
CONTINUOUS
10
2.62802
20
-3.72509
11
2.70174
21
-3.79881
0
LINE
8
BLACK
6
CONTINUOUS
10
2.70174
20
-3.79881
11
2.70174
21
-3.79881
0
LINE
8
BLACK
6
CONTINUOUS
10
2.70174
20
-3.79881
11
2.70246
21
-3.80055
0
LINE
8
BLACK
6
CONTINUOUS
10
2.70246
20
-3.80055
11
2.70246
21
-4.09662
0
LINE
8
BLACK
6
CONTINUOUS
10
2.70246
20
-4.09662
11
2.71755
21
-4.11171
0
LINE
8
BLACK
6
CONTINUOUS
10
2.71755
20
-4.11171
11
3.12337
21
-4.11171
0
LINE
8
BLACK
6
CONTINUOUS
10
3.12337
20
-4.11171
11
3.16801
21
-4.06707
0
LINE
8
BLACK
6
CONTINUOUS
10
3.16801
20
-4.06707
11
3.16801
21
-4.05213
0
LINE
8
BLACK
6
CONTINUOUS
10
3.16801
20
-4.05213
11
3.1626
21
-4.05213
0
LINE
8
BLACK
6
CONTINUOUS
10
3.1626
20
-4.05213
11
3.1626
21
-4.02063
0
LINE
8
BLACK
6
CONTINUOUS
10
3.1626
20
-4.02063
11
3.17835
21
-4.02063
0
LINE
8
BLACK
6
CONTINUOUS
10
3.17835
20
-4.02063
11
3.17835
21
-4.05213
0
LINE
8
BLACK
6
CONTINUOUS
10
3.17835
20
-4.05213
11
3.17293
21
-4.05213
0
LINE
8
BLACK
6
CONTINUOUS
10
3.17293
20
-4.05213
11
3.17293
21
-4.06809
0
LINE
8
BLACK
6
CONTINUOUS
10
3.17293
20
-4.06809
11
3.17221
21
-4.06983
0
LINE
8
BLACK
6
CONTINUOUS
10
3.17221
20
-4.06983
11
3.12613
21
-4.11591
0
LINE
8
BLACK
6
CONTINUOUS
10
3.12613
20
-4.11591
11
3.12439
21
-4.11663
0
LINE
8
BLACK
6
CONTINUOUS
10
3.12439
20
-4.11663
11
2.71654
21
-4.11663
0
LINE
8
BLACK
6
CONTINUOUS
10
2.71654
20
-4.11663
11
2.7148
21
-4.11591
0
LINE
8
BLACK
6
CONTINUOUS
10
2.7148
20
-4.11591
11
2.69826
21
-4.09938
0
LINE
8
BLACK
6
CONTINUOUS
10
2.69826
20
-4.09938
11
2.69754
21
-4.09764
0
LINE
8
BLACK
6
CONTINUOUS
10
2.69754
20
-4.09764
11
2.69754
21
-3.80157
0
LINE
8
BLACK
6
CONTINUOUS
10
2.69754
20
-3.80157
11
2.62526
21
-3.72929
0
LINE
8
BLACK
6
CONTINUOUS
10
2.62526
20
-3.72929
11
2.56237
21
-3.72929
0
LINE
8
BLACK
6
CONTINUOUS
10
2.56237
20
-3.72929
11
2.56063
21
-3.72857
0
LINE
8
BLACK
6
CONTINUOUS
10
2.56063
20
-3.72857
11
2.53681
21
-3.70475
0
LINE
8
BLACK
6
CONTINUOUS
10
2.53681
20
-3.70475
11
2.53681
21
-3.71059
0
LINE
8
BLACK
6
CONTINUOUS
10
2.53681
20
-3.71059
11
2.53636
21
-3.71285
0
LINE
8
BLACK
6
CONTINUOUS
10
2.53636
20
-3.71285
11
2.53508
21
-3.71477
0
LINE
8
BLACK
6
CONTINUOUS
10
2.53508
20
-3.71477
11
2.53317
21
-3.71605
0
LINE
8
BLACK
6
CONTINUOUS
10
2.53317
20
-3.71605
11
2.53091
21
-3.7165
0
LINE
8
BLACK
6
CONTINUOUS
10
2.53091
20
-3.7165
11
2.51909
21
-3.7165
0
LINE
8
BLACK
6
CONTINUOUS
10
2.51909
20
-3.7165
11
2.51683
21
-3.71605
0
LINE
8
BLACK
6
CONTINUOUS
10
2.51683
20
-3.71605
11
2.51492
21
-3.71477
0
LINE
8
BLACK
6
CONTINUOUS
10
2.51492
20
-3.71477
11
2.51364
21
-3.71285
0
LINE
8
BLACK
6
CONTINUOUS
10
2.51364
20
-3.71285
11
2.51319
21
-3.71059
0
LINE
8
BLACK
6
CONTINUOUS
10
2.51319
20
-3.71059
11
2.51319
21
-3.64563
0
LINE
8
BLACK
6
CONTINUOUS
10
2.51319
20
-3.64563
11
2.51364
21
-3.64337
0
LINE
8
BLACK
6
CONTINUOUS
10
2.51364
20
-3.64337
11
2.51492
21
-3.64145
0
LINE
8
BLACK
6
CONTINUOUS
10
2.51492
20
-3.64145
11
2.51683
21
-3.64017
0
LINE
8
BLACK
6
CONTINUOUS
10
2.51683
20
-3.64017
11
2.51909
21
-3.63972
0
LINE
8
BLACK
6
CONTINUOUS
10
2.51909
20
-3.63972
11
2.53091
21
-3.63972
0
LINE
8
BLACK
6
CONTINUOUS
10
2.53091
20
-3.63972
11
2.53317
21
-3.64017
0
LINE
8
BLACK
6
CONTINUOUS
10
2.68317
20
-3.64017
11
2.68508
21
-3.64145
0
LINE
8
BLACK
6
CONTINUOUS
10
2.68508
20
-3.64145
11
2.68636
21
-3.64337
0
LINE
8
BLACK
6
CONTINUOUS
10
2.68636
20
-3.64337
11
2.68681
21
-3.64563
0
LINE
8
BLACK
6
CONTINUOUS
10
2.68681
20
-3.64563
11
2.68681
21
-3.68644
0
LINE
8
BLACK
6
CONTINUOUS
10
2.68681
20
-3.68644
11
2.71454
21
-3.71417
0
LINE
8
BLACK
6
CONTINUOUS
10
2.71454
20
-3.71417
11
2.71526
21
-3.71591
0
LINE
8
BLACK
6
CONTINUOUS
10
2.71526
20
-3.71591
11
2.71526
21
-4.08973
0
LINE
8
BLACK
6
CONTINUOUS
10
2.71526
20
-4.08973
11
2.72759
21
-4.10207
0
LINE
8
BLACK
6
CONTINUOUS
10
2.72759
20
-4.10207
11
3.11938
21
-4.10207
0
LINE
8
BLACK
6
CONTINUOUS
10
3.11938
20
-4.10207
11
3.13652
21
-4.08493
0
LINE
8
BLACK
6
CONTINUOUS
10
3.13652
20
-4.08493
11
3.13652
21
-4.05213
0
LINE
8
BLACK
6
CONTINUOUS
10
3.13652
20
-4.05213
11
3.1311
21
-4.05213
0
LINE
8
BLACK
6
CONTINUOUS
10
3.1311
20
-4.05213
11
3.1311
21
-4.02063
0
LINE
8
BLACK
6
CONTINUOUS
10
3.1311
20
-4.02063
11
3.14685
21
-4.02063
0
LINE
8
BLACK
6
CONTINUOUS
10
3.14685
20
-4.02063
11
3.14685
21
-4.05213
0
LINE
8
BLACK
6
CONTINUOUS
10
3.14685
20
-4.05213
11
3.14144
21
-4.05213
0
LINE
8
BLACK
6
CONTINUOUS
10
3.14144
20
-4.05213
11
3.14144
21
-4.08595
0
LINE
8
BLACK
6
CONTINUOUS
10
3.14144
20
-4.08595
11
3.14072
21
-4.08769
0
LINE
8
BLACK
6
CONTINUOUS
10
3.14072
20
-4.08769
11
3.12213
21
-4.10627
0
LINE
8
BLACK
6
CONTINUOUS
10
3.12213
20
-4.10627
11
3.12039
21
-4.10699
0
LINE
8
BLACK
6
CONTINUOUS
10
3.12039
20
-4.10699
11
2.72657
21
-4.10699
0
LINE
8
BLACK
6
CONTINUOUS
10
2.72657
20
-4.10699
11
2.72483
21
-4.10627
0
LINE
8
BLACK
6
CONTINUOUS
10
2.72483
20
-4.10627
11
2.71106
21
-4.09249
0
LINE
8
BLACK
6
CONTINUOUS
10
2.71106
20
-4.09249
11
2.71033
21
-4.09075
0
LINE
8
BLACK
6
CONTINUOUS
10
2.71033
20
-4.09075
11
2.71033
21
-4.09075
0
LINE
8
BLACK
6
CONTINUOUS
10
2.71033
20
-4.09075
11
2.71033
21
-3.71692
0
LINE
8
BLACK
6
CONTINUOUS
10
2.71033
20
-3.71692
11
2.68681
21
-3.6934
0
LINE
8
BLACK
6
CONTINUOUS
10
2.68681
20
-3.6934
11
2.68681
21
-3.71059
0
LINE
8
BLACK
6
CONTINUOUS
10
2.68681
20
-3.71059
11
2.68636
21
-3.71285
0
LINE
8
BLACK
6
CONTINUOUS
10
2.68636
20
-3.71285
11
2.68508
21
-3.71477
0
LINE
8
BLACK
6
CONTINUOUS
10
2.68508
20
-3.71477
11
2.68317
21
-3.71605
0
LINE
8
BLACK
6
CONTINUOUS
10
2.68317
20
-3.71605
11
2.68091
21
-3.7165
0
LINE
8
BLACK
6
CONTINUOUS
10
2.68091
20
-3.7165
11
2.66909
21
-3.7165
0
LINE
8
BLACK
6
CONTINUOUS
10
2.66909
20
-3.7165
11
2.66683
21
-3.71605
0
LINE
8
BLACK
6
CONTINUOUS
10
2.66683
20
-3.71605
11
2.66492
21
-3.71477
0
LINE
8
BLACK
6
CONTINUOUS
10
2.66492
20
-3.71477
11
2.66364
21
-3.71285
0
LINE
8
BLACK
6
CONTINUOUS
10
2.66364
20
-3.71285
11
2.66319
21
-3.71059
0
LINE
8
BLACK
6
CONTINUOUS
10
2.66319
20
-3.71059
11
2.66319
21
-3.64563
0
LINE
8
BLACK
6
CONTINUOUS
10
2.66319
20
-3.64563
11
2.66364
21
-3.64337
0
LINE
8
BLACK
6
CONTINUOUS
10
2.66364
20
-3.64337
11
2.66492
21
-3.64145
0
LINE
8
BLACK
6
CONTINUOUS
10
2.66492
20
-3.64145
11
2.66683
21
-3.64017
0
LINE
8
BLACK
6
CONTINUOUS
10
2.66683
20
-3.64017
11
2.66909
21
-3.63972
0
LINE
8
BLACK
6
CONTINUOUS
10
2.66909
20
-3.63972
11
2.68091
21
-3.63972
0
LINE
8
BLACK
6
CONTINUOUS
10
2.68091
20
-3.63972
11
2.68317
21
-3.64017
0
LINE
8
BLACK
6
CONTINUOUS
10
3.05236
20
-4.05213
11
3.04577
21
-4.05213
0
LINE
8
BLACK
6
CONTINUOUS
10
3.04577
20
-4.05213
11
3.04577
21
-4.06626
0
LINE
8
BLACK
6
CONTINUOUS
10
3.04577
20
-4.06626
11
3.04817
21
-4.06664
0
LINE
8
BLACK
6
CONTINUOUS
10
3.04817
20
-4.06664
11
3.05256
21
-4.06887
0
LINE
8
BLACK
6
CONTINUOUS
10
3.05256
20
-4.06887
11
3.05605
21
-4.07236
0
LINE
8
BLACK
6
CONTINUOUS
10
3.05605
20
-4.07236
11
3.05828
21
-4.07675
0
LINE
8
BLACK
6
CONTINUOUS
10
3.05828
20
-4.07675
11
3.05906
21
-4.08161
0
LINE
8
BLACK
6
CONTINUOUS
10
3.05906
20
-4.08161
11
3.05828
21
-4.08648
0
LINE
8
BLACK
6
CONTINUOUS
10
3.05828
20
-4.08648
11
3.05605
21
-4.09087
0
LINE
8
BLACK
6
CONTINUOUS
10
3.05605
20
-4.09087
11
3.05256
21
-4.09435
0
LINE
8
BLACK
6
CONTINUOUS
10
3.05256
20
-4.09435
11
3.04817
21
-4.09659
0
LINE
8
BLACK
6
CONTINUOUS
10
3.04817
20
-4.09659
11
3.04331
21
-4.09736
0
LINE
8
BLACK
6
CONTINUOUS
10
3.04331
20
-4.09736
11
3.03844
21
-4.09659
0
LINE
8
BLACK
6
CONTINUOUS
10
3.03844
20
-4.09659
11
3.03405
21
-4.09435
0
LINE
8
BLACK
6
CONTINUOUS
10
3.03405
20
-4.09435
11
3.03057
21
-4.09087
0
LINE
8
BLACK
6
CONTINUOUS
10
3.03057
20
-4.09087
11
3.02833
21
-4.08648
0
LINE
8
BLACK
6
CONTINUOUS
10
3.02833
20
-4.08648
11
3.02756
21
-4.08161
0
LINE
8
BLACK
6
CONTINUOUS
10
3.02756
20
-4.08161
11
3.02833
21
-4.07675
0
LINE
8
BLACK
6
CONTINUOUS
10
3.02833
20
-4.07675
11
3.03057
21
-4.07236
0
LINE
8
BLACK
6
CONTINUOUS
10
3.03057
20
-4.07236
11
3.03405
21
-4.06887
0
LINE
8
BLACK
6
CONTINUOUS
10
3.03405
20
-4.06887
11
3.03844
21
-4.06664
0
LINE
8
BLACK
6
CONTINUOUS
10
3.03844
20
-4.06664
11
3.04085
21
-4.06626
0
LINE
8
BLACK
6
CONTINUOUS
10
3.04085
20
-4.06626
11
3.04085
21
-4.05213
0
LINE
8
BLACK
6
CONTINUOUS
10
3.04085
20
-4.05213
11
3.03661
21
-4.05213
0
LINE
8
BLACK
6
CONTINUOUS
10
3.03661
20
-4.05213
11
3.03661
21
-4.02063
0
LINE
8
BLACK
6
CONTINUOUS
10
3.03661
20
-4.02063
11
3.05236
21
-4.02063
0
LINE
8
BLACK
6
CONTINUOUS
10
3.05236
20
-4.02063
11
3.05236
21
-4.05213
0
LINE
8
BLACK
6
CONTINUOUS
10
2.83189
20
-4.05213
11
2.81614
21
-4.05213
0
LINE
8
BLACK
6
CONTINUOUS
10
2.81614
20
-4.05213
11
2.81614
21
-4.02063
0
LINE
8
BLACK
6
CONTINUOUS
10
2.81614
20
-4.02063
11
2.83189
21
-4.02063
0
LINE
8
BLACK
6
CONTINUOUS
10
2.83189
20
-4.02063
11
2.83189
21
-4.05213
0
LINE
8
BLACK
6
CONTINUOUS
10
2.86339
20
-4.05213
11
2.84764
21
-4.05213
0
LINE
8
BLACK
6
CONTINUOUS
10
2.84764
20
-4.05213
11
2.84764
21
-4.02063
0
LINE
8
BLACK
6
CONTINUOUS
10
2.84764
20
-4.02063
11
2.86339
21
-4.02063
0
LINE
8
BLACK
6
CONTINUOUS
10
2.86339
20
-4.02063
11
2.86339
21
-4.05213
0
LINE
8
BLACK
6
CONTINUOUS
10
2.92638
20
-4.05213
11
2.91063
21
-4.05213
0
LINE
8
BLACK
6
CONTINUOUS
10
2.91063
20
-4.05213
11
2.91063
21
-4.02063
0
LINE
8
BLACK
6
CONTINUOUS
10
2.91063
20
-4.02063
11
2.92638
21
-4.02063
0
LINE
8
BLACK
6
CONTINUOUS
10
2.92638
20
-4.02063
11
2.92638
21
-4.05213
0
LINE
8
BLACK
6
CONTINUOUS
10
2.95787
20
-4.05213
11
2.94213
21
-4.05213
0
LINE
8
BLACK
6
CONTINUOUS
10
2.94213
20
-4.05213
11
2.94213
21
-4.02063
0
LINE
8
BLACK
6
CONTINUOUS
10
2.94213
20
-4.02063
11
2.95787
21
-4.02063
0
LINE
8
BLACK
6
CONTINUOUS
10
2.95787
20
-4.02063
11
2.95787
21
-4.05213
0
LINE
8
BLACK
6
CONTINUOUS
10
2.98937
20
-4.05213
11
2.97362
21
-4.05213
0
LINE
8
BLACK
6
CONTINUOUS
10
2.97362
20
-4.05213
11
2.97362
21
-4.02063
0
LINE
8
BLACK
6
CONTINUOUS
10
2.97362
20
-4.02063
11
2.98937
21
-4.02063
0
LINE
8
BLACK
6
CONTINUOUS
10
2.98937
20
-4.02063
11
2.98937
21
-4.05213
0
LINE
8
BLACK
6
CONTINUOUS
10
3.02087
20
-4.05213
11
3.00512
21
-4.05213
0
LINE
8
BLACK
6
CONTINUOUS
10
3.00512
20
-4.05213
11
3.00512
21
-4.02063
0
LINE
8
BLACK
6
CONTINUOUS
10
3.00512
20
-4.02063
11
3.02087
21
-4.02063
0
LINE
8
BLACK
6
CONTINUOUS
10
3.02087
20
-4.02063
11
3.02087
21
-4.05213
0
LINE
8
BLACK
6
CONTINUOUS
10
3.08386
20
-4.05213
11
3.06811
21
-4.05213
0
LINE
8
BLACK
6
CONTINUOUS
10
3.06811
20
-4.05213
11
3.06811
21
-4.02063
0
LINE
8
BLACK
6
CONTINUOUS
10
3.06811
20
-4.02063
11
3.08386
21
-4.02063
0
LINE
8
BLACK
6
CONTINUOUS
10
3.08386
20
-4.02063
11
3.08386
21
-4.05213
0
LINE
8
BLACK
6
CONTINUOUS
10
3.11535
20
-4.05213
11
3.09961
21
-4.05213
0
LINE
8
BLACK
6
CONTINUOUS
10
3.09961
20
-4.05213
11
3.09961
21
-4.02063
0
LINE
8
BLACK
6
CONTINUOUS
10
3.09961
20
-4.02063
11
3.11535
21
-4.02063
0
LINE
8
BLACK
6
CONTINUOUS
10
3.11535
20
-4.02063
11
3.11535
21
-4.05213
0
LINE
8
BLACK
6
CONTINUOUS
10
3.20984
20
-4.05213
11
3.19409
21
-4.05213
0
LINE
8
BLACK
6
CONTINUOUS
10
3.19409
20
-4.05213
11
3.19409
21
-4.02063
0
LINE
8
BLACK
6
CONTINUOUS
10
3.19409
20
-4.02063
11
3.20984
21
-4.02063
0
LINE
8
BLACK
6
CONTINUOUS
10
3.20984
20
-4.02063
11
3.20984
21
-4.05213
0
LINE
8
BLACK
6
CONTINUOUS
10
3.26102
20
-3.97732
11
3.22953
21
-3.97732
0
LINE
8
BLACK
6
CONTINUOUS
10
3.22953
20
-3.97732
11
3.22953
21
-3.9745
0
LINE
8
BLACK
6
CONTINUOUS
10
3.22953
20
-3.9745
11
3.21393
21
-3.9901
0
LINE
8
BLACK
6
CONTINUOUS
10
3.21393
20
-3.9901
11
3.21498
21
-3.99216
0
LINE
8
BLACK
6
CONTINUOUS
10
3.21498
20
-3.99216
11
3.21575
21
-3.99703
0
LINE
8
BLACK
6
CONTINUOUS
10
3.21575
20
-3.99703
11
3.21498
21
-4.00189
0
LINE
8
BLACK
6
CONTINUOUS
10
3.21498
20
-4.00189
11
3.21274
21
-4.00628
0
LINE
8
BLACK
6
CONTINUOUS
10
3.21274
20
-4.00628
11
3.20926
21
-4.00977
0
LINE
8
BLACK
6
CONTINUOUS
10
3.20926
20
-4.00977
11
3.20487
21
-4.012
0
LINE
8
BLACK
6
CONTINUOUS
10
3.20487
20
-4.012
11
3.2
21
-4.01278
0
LINE
8
BLACK
6
CONTINUOUS
10
3.2
20
-4.01278
11
3.19513
21
-4.012
0
LINE
8
BLACK
6
CONTINUOUS
10
3.19513
20
-4.012
11
3.19074
21
-4.00977
0
LINE
8
BLACK
6
CONTINUOUS
10
3.19074
20
-4.00977
11
3.18726
21
-4.00628
0
LINE
8
BLACK
6
CONTINUOUS
10
3.18726
20
-4.00628
11
3.18502
21
-4.00189
0
LINE
8
BLACK
6
CONTINUOUS
10
3.18502
20
-4.00189
11
3.18425
21
-3.99703
0
LINE
8
BLACK
6
CONTINUOUS
10
3.18425
20
-3.99703
11
3.18502
21
-3.99216
0
LINE
8
BLACK
6
CONTINUOUS
10
3.18502
20
-3.99216
11
3.18726
21
-3.98777
0
LINE
8
BLACK
6
CONTINUOUS
10
3.18726
20
-3.98777
11
3.19074
21
-3.98429
0
LINE
8
BLACK
6
CONTINUOUS
10
3.19074
20
-3.98429
11
3.19513
21
-3.98205
0
LINE
8
BLACK
6
CONTINUOUS
10
3.19513
20
-3.98205
11
3.2
21
-3.98128
0
LINE
8
BLACK
6
CONTINUOUS
10
3.2
20
-3.98128
11
3.20487
21
-3.98205
0
LINE
8
BLACK
6
CONTINUOUS
10
3.20487
20
-3.98205
11
3.20926
21
-3.98429
0
LINE
8
BLACK
6
CONTINUOUS
10
3.20926
20
-3.98429
11
3.21102
21
-3.98605
0
LINE
8
BLACK
6
CONTINUOUS
10
3.21102
20
-3.98605
11
3.22936
21
-3.96771
0
LINE
8
BLACK
6
CONTINUOUS
10
3.22936
20
-3.96771
11
3.22953
21
-3.96764
0
LINE
8
BLACK
6
CONTINUOUS
10
3.22953
20
-3.96764
11
3.22953
21
-3.96157
0
LINE
8
BLACK
6
CONTINUOUS
10
3.22953
20
-3.96157
11
3.26102
21
-3.96157
0
LINE
8
BLACK
6
CONTINUOUS
10
3.26102
20
-3.96157
11
3.26102
21
-3.97732
0
LINE
8
BLACK
6
CONTINUOUS
10
3.26102
20
-4.00882
11
3.22953
21
-4.00882
0
LINE
8
BLACK
6
CONTINUOUS
10
3.22953
20
-4.00882
11
3.22953
21
-3.99307
0
LINE
8
BLACK
6
CONTINUOUS
10
3.22953
20
-3.99307
11
3.26102
21
-3.99307
0
LINE
8
BLACK
6
CONTINUOUS
10
3.26102
20
-3.99307
11
3.26102
21
-4.00882
0
LINE
8
BLACK
6
CONTINUOUS
10
2.79646
20
-3.97732
11
2.76496
21
-3.97732
0
LINE
8
BLACK
6
CONTINUOUS
10
2.76496
20
-3.97732
11
2.76496
21
-3.96157
0
LINE
8
BLACK
6
CONTINUOUS
10
2.76496
20
-3.96157
11
2.79646
21
-3.96157
0
LINE
8
BLACK
6
CONTINUOUS
10
2.79646
20
-3.96157
11
2.79646
21
-3.97732
0
LINE
8
BLACK
6
CONTINUOUS
10
3.26102
20
-3.94583
11
3.22953
21
-3.94583
0
LINE
8
BLACK
6
CONTINUOUS
10
3.22953
20
-3.94583
11
3.22953
21
-3.94041
0
LINE
8
BLACK
6
CONTINUOUS
10
3.22953
20
-3.94041
11
3.21362
21
-3.94041
0
LINE
8
BLACK
6
CONTINUOUS
10
3.21362
20
-3.94041
11
3.21274
21
-3.94129
0
LINE
8
BLACK
6
CONTINUOUS
10
3.21274
20
-3.94129
11
3.21274
21
-3.94129
0
LINE
8
BLACK
6
CONTINUOUS
10
3.21274
20
-3.94129
11
3.21498
21
-3.94568
0
LINE
8
BLACK
6
CONTINUOUS
10
3.21498
20
-3.94568
11
3.21575
21
-3.95055
0
LINE
8
BLACK
6
CONTINUOUS
10
3.21575
20
-3.95055
11
3.21498
21
-3.95542
0
LINE
8
BLACK
6
CONTINUOUS
10
3.21498
20
-3.95542
11
3.21274
21
-3.95981
0
LINE
8
BLACK
6
CONTINUOUS
10
3.21274
20
-3.95981
11
3.20926
21
-3.96329
0
LINE
8
BLACK
6
CONTINUOUS
10
3.20926
20
-3.96329
11
3.20487
21
-3.96553
0
LINE
8
BLACK
6
CONTINUOUS
10
3.20487
20
-3.96553
11
3.2
21
-3.9663
0
LINE
8
BLACK
6
CONTINUOUS
10
3.2
20
-3.9663
11
3.19513
21
-3.96553
0
LINE
8
BLACK
6
CONTINUOUS
10
3.19513
20
-3.96553
11
3.19074
21
-3.96329
0
LINE
8
BLACK
6
CONTINUOUS
10
3.19074
20
-3.96329
11
3.18726
21
-3.95981
0
LINE
8
BLACK
6
CONTINUOUS
10
3.18726
20
-3.95981
11
3.18502
21
-3.95542
0
LINE
8
BLACK
6
CONTINUOUS
10
3.18502
20
-3.95542
11
3.18425
21
-3.95055
0
LINE
8
BLACK
6
CONTINUOUS
10
3.18425
20
-3.95055
11
3.18502
21
-3.94568
0
LINE
8
BLACK
6
CONTINUOUS
10
3.18502
20
-3.94568
11
3.18726
21
-3.94129
0
LINE
8
BLACK
6
CONTINUOUS
10
3.18726
20
-3.94129
11
3.19074
21
-3.93781
0
LINE
8
BLACK
6
CONTINUOUS
10
3.19074
20
-3.93781
11
3.19513
21
-3.93557
0
LINE
8
BLACK
6
CONTINUOUS
10
3.19513
20
-3.93557
11
3.2
21
-3.9348
0
LINE
8
BLACK
6
CONTINUOUS
10
3.2
20
-3.9348
11
3.20487
21
-3.93557
0
LINE
8
BLACK
6
CONTINUOUS
10
3.20487
20
-3.93557
11
3.20926
21
-3.93781
0
LINE
8
BLACK
6
CONTINUOUS
10
3.20926
20
-3.93781
11
3.20926
21
-3.93781
0
LINE
8
BLACK
6
CONTINUOUS
10
3.20926
20
-3.93781
11
3.21086
21
-3.93621
0
LINE
8
BLACK
6
CONTINUOUS
10
3.21086
20
-3.93621
11
3.2126
21
-3.93549
0
LINE
8
BLACK
6
CONTINUOUS
10
3.2126
20
-3.93549
11
3.22953
21
-3.93549
0
LINE
8
BLACK
6
CONTINUOUS
10
3.22953
20
-3.93549
11
3.22953
21
-3.93008
0
LINE
8
BLACK
6
CONTINUOUS
10
3.22953
20
-3.93008
11
3.26102
21
-3.93008
0
LINE
8
BLACK
6
CONTINUOUS
10
3.26102
20
-3.93008
11
3.26102
21
-3.94583
0
LINE
8
BLACK
6
CONTINUOUS
10
2.79646
20
-3.94583
11
2.76496
21
-3.94583
0
LINE
8
BLACK
6
CONTINUOUS
10
2.76496
20
-3.94583
11
2.76496
21
-3.93008
0
LINE
8
BLACK
6
CONTINUOUS
10
2.76496
20
-3.93008
11
2.79646
21
-3.93008
0
LINE
8
BLACK
6
CONTINUOUS
10
2.79646
20
-3.93008
11
2.79646
21
-3.94583
0
LINE
8
BLACK
6
CONTINUOUS
10
2.79646
20
-3.91433
11
2.76496
21
-3.91433
0
LINE
8
BLACK
6
CONTINUOUS
10
2.76496
20
-3.91433
11
2.76496
21
-3.89858
0
LINE
8
BLACK
6
CONTINUOUS
10
2.76496
20
-3.89858
11
2.79646
21
-3.89858
0
LINE
8
BLACK
6
CONTINUOUS
10
2.79646
20
-3.89858
11
2.79646
21
-3.91433
0
LINE
8
BLACK
6
CONTINUOUS
10
3.26102
20
-3.91433
11
3.22953
21
-3.91433
0
LINE
8
BLACK
6
CONTINUOUS
10
3.22953
20
-3.91433
11
3.22953
21
-3.89858
0
LINE
8
BLACK
6
CONTINUOUS
10
3.22953
20
-3.89858
11
3.26102
21
-3.89858
0
LINE
8
BLACK
6
CONTINUOUS
10
3.26102
20
-3.89858
11
3.26102
21
-3.91433
0
LINE
8
BLACK
6
CONTINUOUS
10
2.53317
20
-3.83506
11
2.53508
21
-3.83634
0
LINE
8
BLACK
6
CONTINUOUS
10
2.53508
20
-3.83634
11
2.53636
21
-3.83825
0
LINE
8
BLACK
6
CONTINUOUS
10
2.53636
20
-3.83825
11
2.53681
21
-3.84051
0
LINE
8
BLACK
6
CONTINUOUS
10
2.53681
20
-3.84051
11
2.53681
21
-3.90547
0
LINE
8
BLACK
6
CONTINUOUS
10
2.53681
20
-3.90547
11
2.53636
21
-3.90773
0
LINE
8
BLACK
6
CONTINUOUS
10
2.53636
20
-3.90773
11
2.53508
21
-3.90965
0
LINE
8
BLACK
6
CONTINUOUS
10
2.53508
20
-3.90965
11
2.53317
21
-3.91093
0
LINE
8
BLACK
6
CONTINUOUS
10
2.53317
20
-3.91093
11
2.53091
21
-3.91138
0
LINE
8
BLACK
6
CONTINUOUS
10
2.53091
20
-3.91138
11
2.51909
21
-3.91138
0
LINE
8
BLACK
6
CONTINUOUS
10
2.51909
20
-3.91138
11
2.51683
21
-3.91093
0
LINE
8
BLACK
6
CONTINUOUS
10
2.51683
20
-3.91093
11
2.51492
21
-3.90965
0
LINE
8
BLACK
6
CONTINUOUS
10
2.51492
20
-3.90965
11
2.51364
21
-3.90773
0
LINE
8
BLACK
6
CONTINUOUS
10
2.51364
20
-3.90773
11
2.51319
21
-3.90547
0
LINE
8
BLACK
6
CONTINUOUS
10
2.51319
20
-3.90547
11
2.51319
21
-3.84051
0
LINE
8
BLACK
6
CONTINUOUS
10
2.51319
20
-3.84051
11
2.51364
21
-3.83825
0
LINE
8
BLACK
6
CONTINUOUS
10
2.51364
20
-3.83825
11
2.51492
21
-3.83634
0
LINE
8
BLACK
6
CONTINUOUS
10
2.51492
20
-3.83634
11
2.51683
21
-3.83506
0
LINE
8
BLACK
6
CONTINUOUS
10
2.51683
20
-3.83506
11
2.51909
21
-3.83461
0
LINE
8
BLACK
6
CONTINUOUS
10
2.51909
20
-3.83461
11
2.53091
21
-3.83461
0
LINE
8
BLACK
6
CONTINUOUS
10
2.53091
20
-3.83461
11
2.53317
21
-3.83506
0
LINE
8
BLACK
6
CONTINUOUS
10
2.68317
20
-3.83506
11
2.68508
21
-3.83634
0
LINE
8
BLACK
6
CONTINUOUS
10
2.68508
20
-3.83634
11
2.68636
21
-3.83825
0
LINE
8
BLACK
6
CONTINUOUS
10
2.68636
20
-3.83825
11
2.68681
21
-3.84051
0
LINE
8
BLACK
6
CONTINUOUS
10
2.68681
20
-3.84051
11
2.68681
21
-3.90547
0
LINE
8
BLACK
6
CONTINUOUS
10
2.68681
20
-3.90547
11
2.68636
21
-3.90773
0
LINE
8
BLACK
6
CONTINUOUS
10
2.68636
20
-3.90773
11
2.68508
21
-3.90965
0
LINE
8
BLACK
6
CONTINUOUS
10
2.68508
20
-3.90965
11
2.68317
21
-3.91093
0
LINE
8
BLACK
6
CONTINUOUS
10
2.68317
20
-3.91093
11
2.68091
21
-3.91138
0
LINE
8
BLACK
6
CONTINUOUS
10
2.68091
20
-3.91138
11
2.66909
21
-3.91138
0
LINE
8
BLACK
6
CONTINUOUS
10
2.66909
20
-3.91138
11
2.66683
21
-3.91093
0
LINE
8
BLACK
6
CONTINUOUS
10
2.66683
20
-3.91093
11
2.66492
21
-3.90965
0
LINE
8
BLACK
6
CONTINUOUS
10
2.66492
20
-3.90965
11
2.66364
21
-3.90773
0
LINE
8
BLACK
6
CONTINUOUS
10
2.66364
20
-3.90773
11
2.66319
21
-3.90547
0
LINE
8
BLACK
6
CONTINUOUS
10
2.66319
20
-3.90547
11
2.66319
21
-3.84051
0
LINE
8
BLACK
6
CONTINUOUS
10
2.66319
20
-3.84051
11
2.66364
21
-3.83825
0
LINE
8
BLACK
6
CONTINUOUS
10
2.66364
20
-3.83825
11
2.66492
21
-3.83634
0
LINE
8
BLACK
6
CONTINUOUS
10
2.66492
20
-3.83634
11
2.66683
21
-3.83506
0
LINE
8
BLACK
6
CONTINUOUS
10
2.66683
20
-3.83506
11
2.66909
21
-3.83461
0
LINE
8
BLACK
6
CONTINUOUS
10
2.66909
20
-3.83461
11
2.68091
21
-3.83461
0
LINE
8
BLACK
6
CONTINUOUS
10
2.68091
20
-3.83461
11
2.68317
21
-3.83506
0
LINE
8
BLACK
6
CONTINUOUS
10
2.79646
20
-3.88283
11
2.76496
21
-3.88283
0
LINE
8
BLACK
6
CONTINUOUS
10
2.76496
20
-3.88283
11
2.76496
21
-3.86709
0
LINE
8
BLACK
6
CONTINUOUS
10
2.76496
20
-3.86709
11
2.79646
21
-3.86709
0
LINE
8
BLACK
6
CONTINUOUS
10
2.79646
20
-3.86709
11
2.79646
21
-3.88283
0
LINE
8
BLACK
6
CONTINUOUS
10
3.26102
20
-3.88283
11
3.22953
21
-3.88283
0
LINE
8
BLACK
6
CONTINUOUS
10
3.22953
20
-3.88283
11
3.22953
21
-3.86709
0
LINE
8
BLACK
6
CONTINUOUS
10
3.22953
20
-3.86709
11
3.26102
21
-3.86709
0
LINE
8
BLACK
6
CONTINUOUS
10
3.26102
20
-3.86709
11
3.26102
21
-3.88283
0
LINE
8
BLACK
6
CONTINUOUS
10
2.79646
20
-3.85134
11
2.76496
21
-3.85134
0
LINE
8
BLACK
6
CONTINUOUS
10
2.76496
20
-3.85134
11
2.76496
21
-3.83559
0
LINE
8
BLACK
6
CONTINUOUS
10
2.76496
20
-3.83559
11
2.79646
21
-3.83559
0
LINE
8
BLACK
6
CONTINUOUS
10
2.79646
20
-3.83559
11
2.79646
21
-3.85134
0
LINE
8
BLACK
6
CONTINUOUS
10
3.26102
20
-3.85134
11
3.22953
21
-3.85134
0
LINE
8
BLACK
6
CONTINUOUS
10
3.22953
20
-3.85134
11
3.22953
21
-3.83559
0
LINE
8
BLACK
6
CONTINUOUS
10
3.22953
20
-3.83559
11
3.26102
21
-3.83559
0
LINE
8
BLACK
6
CONTINUOUS
10
3.26102
20
-3.83559
11
3.26102
21
-3.85134
0
LINE
8
BLACK
6
CONTINUOUS
10
2.79646
20
-3.81984
11
2.76496
21
-3.81984
0
LINE
8
BLACK
6
CONTINUOUS
10
2.76496
20
-3.81984
11
2.76496
21
-3.80409
0
LINE
8
BLACK
6
CONTINUOUS
10
2.76496
20
-3.80409
11
2.79646
21
-3.80409
0
LINE
8
BLACK
6
CONTINUOUS
10
2.79646
20
-3.80409
11
2.79646
21
-3.81984
0
LINE
8
BLACK
6
CONTINUOUS
10
3.26102
20
-3.81984
11
3.22953
21
-3.81984
0
LINE
8
BLACK
6
CONTINUOUS
10
3.22953
20
-3.81984
11
3.22953
21
-3.80409
0
LINE
8
BLACK
6
CONTINUOUS
10
3.22953
20
-3.80409
11
3.26102
21
-3.80409
0
LINE
8
BLACK
6
CONTINUOUS
10
3.26102
20
-3.80409
11
3.26102
21
-3.81984
0
LINE
8
BLACK
6
CONTINUOUS
10
3.39443
20
-3.42557
11
3.39882
21
-3.42781
0
LINE
8
BLACK
6
CONTINUOUS
10
3.39882
20
-3.42781
11
3.39975
21
-3.42874
0
LINE
8
BLACK
6
CONTINUOUS
10
3.39975
20
-3.42874
11
3.40974
21
-3.42874
0
LINE
8
BLACK
6
CONTINUOUS
10
3.40974
20
-3.42874
11
3.412
21
-3.42919
0
LINE
8
BLACK
6
CONTINUOUS
10
3.412
20
-3.42919
11
3.41392
21
-3.43047
0
LINE
8
BLACK
6
CONTINUOUS
10
3.41392
20
-3.43047
11
3.4152
21
-3.43239
0
LINE
8
BLACK
6
CONTINUOUS
10
3.4152
20
-3.43239
11
3.41565
21
-3.43465
0
LINE
8
BLACK
6
CONTINUOUS
10
3.41565
20
-3.43465
11
3.41565
21
-3.44646
0
LINE
8
BLACK
6
CONTINUOUS
10
3.41565
20
-3.44646
11
3.4152
21
-3.44872
0
LINE
8
BLACK
6
CONTINUOUS
10
3.4152
20
-3.44872
11
3.41392
21
-3.45063
0
LINE
8
BLACK
6
CONTINUOUS
10
3.41392
20
-3.45063
11
3.412
21
-3.45191
0
LINE
8
BLACK
6
CONTINUOUS
10
3.412
20
-3.45191
11
3.40974
21
-3.45236
0
LINE
8
BLACK
6
CONTINUOUS
10
3.40974
20
-3.45236
11
3.39975
21
-3.45236
0
LINE
8
BLACK
6
CONTINUOUS
10
3.39975
20
-3.45236
11
3.39882
21
-3.45329
0
LINE
8
BLACK
6
CONTINUOUS
10
3.39882
20
-3.45329
11
3.39443
21
-3.45553
0
LINE
8
BLACK
6
CONTINUOUS
10
3.39443
20
-3.45553
11
3.38957
21
-3.4563
0
LINE
8
BLACK
6
CONTINUOUS
10
3.38957
20
-3.4563
11
3.3847
21
-3.45553
0
LINE
8
BLACK
6
CONTINUOUS
10
3.3847
20
-3.45553
11
3.38031
21
-3.45329
0
LINE
8
BLACK
6
CONTINUOUS
10
3.38031
20
-3.45329
11
3.38031
21
-3.45329
0
LINE
8
BLACK
6
CONTINUOUS
10
3.38031
20
-3.45329
11
3.35876
21
-3.47484
0
LINE
8
BLACK
6
CONTINUOUS
10
3.35876
20
-3.47484
11
3.35876
21
-3.52566
0
LINE
8
BLACK
6
CONTINUOUS
10
3.35876
20
-3.52566
11
3.36499
21
-3.53189
0
LINE
8
BLACK
6
CONTINUOUS
10
3.36499
20
-3.53189
11
3.38
21
-3.53189
0
LINE
8
BLACK
6
CONTINUOUS
10
3.38
20
-3.53189
11
3.38174
21
-3.53261
0
LINE
8
BLACK
6
CONTINUOUS
10
3.38174
20
-3.53261
11
3.39613
21
-3.547
0
LINE
8
BLACK
6
CONTINUOUS
10
3.39613
20
-3.547
11
3.39685
21
-3.54874
0
LINE
8
BLACK
6
CONTINUOUS
10
3.39685
20
-3.54874
11
3.39685
21
-3.62165
0
LINE
8
BLACK
6
CONTINUOUS
10
3.39685
20
-3.62165
11
3.39613
21
-3.62339
0
LINE
8
BLACK
6
CONTINUOUS
10
3.39613
20
-3.62339
11
3.38487
21
-3.63465
0
LINE
8
BLACK
6
CONTINUOUS
10
3.38487
20
-3.63465
11
3.38649
21
-3.63707
0
LINE
8
BLACK
6
CONTINUOUS
10
3.38649
20
-3.63707
11
3.3872
21
-3.64065
0
LINE
8
BLACK
6
CONTINUOUS
10
3.3872
20
-3.64065
11
3.3872
21
-3.65935
0
LINE
8
BLACK
6
CONTINUOUS
10
3.3872
20
-3.65935
11
3.38649
21
-3.66293
0
LINE
8
BLACK
6
CONTINUOUS
10
3.38649
20
-3.66293
11
3.38447
21
-3.66596
0
LINE
8
BLACK
6
CONTINUOUS
10
3.38447
20
-3.66596
11
3.38143
21
-3.66799
0
LINE
8
BLACK
6
CONTINUOUS
10
3.38143
20
-3.66799
11
3.37785
21
-3.6687
0
LINE
8
BLACK
6
CONTINUOUS
10
3.37785
20
-3.6687
11
3.3685
21
-3.6687
0
LINE
8
BLACK
6
CONTINUOUS
10
3.3685
20
-3.6687
11
3.3685
21
-3.7013
0
LINE
8
BLACK
6
CONTINUOUS
10
3.3685
20
-3.7013
11
3.37785
21
-3.7013
0
LINE
8
BLACK
6
CONTINUOUS
10
3.37785
20
-3.7013
11
3.38143
21
-3.70201
0
LINE
8
BLACK
6
CONTINUOUS
10
3.38143
20
-3.70201
11
3.38447
21
-3.70404
0
LINE
8
BLACK
6
CONTINUOUS
10
3.38447
20
-3.70404
11
3.38649
21
-3.70707
0
LINE
8
BLACK
6
CONTINUOUS
10
3.38649
20
-3.70707
11
3.3872
21
-3.71065
0
LINE
8
BLACK
6
CONTINUOUS
10
3.3872
20
-3.71065
11
3.3872
21
-3.72935
0
LINE
8
BLACK
6
CONTINUOUS
10
3.3872
20
-3.72935
11
3.38649
21
-3.73293
0
LINE
8
BLACK
6
CONTINUOUS
10
3.38649
20
-3.73293
11
3.38447
21
-3.73596
0
LINE
8
BLACK
6
CONTINUOUS
10
3.38447
20
-3.73596
11
3.38143
21
-3.73799
0
LINE
8
BLACK
6
CONTINUOUS
10
3.38143
20
-3.73799
11
3.37785
21
-3.7387
0
LINE
8
BLACK
6
CONTINUOUS
10
3.37785
20
-3.7387
11
3.3685
21
-3.7387
0
LINE
8
BLACK
6
CONTINUOUS
10
3.3685
20
-3.7387
11
3.3685
21
-3.7713
0
LINE
8
BLACK
6
CONTINUOUS
10
3.3685
20
-3.7713
11
3.37785
21
-3.7713
0
LINE
8
BLACK
6
CONTINUOUS
10
3.37785
20
-3.7713
11
3.38143
21
-3.77201
0
LINE
8
BLACK
6
CONTINUOUS
10
3.38143
20
-3.77201
11
3.38447
21
-3.77404
0
LINE
8
BLACK
6
CONTINUOUS
10
3.38447
20
-3.77404
11
3.38649
21
-3.77707
0
LINE
8
BLACK
6
CONTINUOUS
10
3.38649
20
-3.77707
11
3.3872
21
-3.78065
0
LINE
8
BLACK
6
CONTINUOUS
10
3.3872
20
-3.78065
11
3.3872
21
-3.79935
0
LINE
8
BLACK
6
CONTINUOUS
10
3.3872
20
-3.79935
11
3.38649
21
-3.80293
0
LINE
8
BLACK
6
CONTINUOUS
10
3.38649
20
-3.80293
11
3.38447
21
-3.80596
0
LINE
8
BLACK
6
CONTINUOUS
10
3.38447
20
-3.80596
11
3.38143
21
-3.80799
0
LINE
8
BLACK
6
CONTINUOUS
10
3.38143
20
-3.80799
11
3.37785
21
-3.8087
0
LINE
8
BLACK
6
CONTINUOUS
10
3.37785
20
-3.8087
11
3.35423
21
-3.8087
0
LINE
8
BLACK
6
CONTINUOUS
10
3.35423
20
-3.8087
11
3.35065
21
-3.80799
0
LINE
8
BLACK
6
CONTINUOUS
10
3.35065
20
-3.80799
11
3.34762
21
-3.80596
0
LINE
8
BLACK
6
CONTINUOUS
10
3.34762
20
-3.80596
11
3.34559
21
-3.80293
0
LINE
8
BLACK
6
CONTINUOUS
10
3.34559
20
-3.80293
11
3.34488
21
-3.79935
0
LINE
8
BLACK
6
CONTINUOUS
10
3.34488
20
-3.79935
11
3.34488
21
-3.78065
0
LINE
8
BLACK
6
CONTINUOUS
10
3.34488
20
-3.78065
11
3.34559
21
-3.77707
0
LINE
8
BLACK
6
CONTINUOUS
10
3.34559
20
-3.77707
11
3.34762
21
-3.77404
0
LINE
8
BLACK
6
CONTINUOUS
10
3.34762
20
-3.77404
11
3.35065
21
-3.77201
0
LINE
8
BLACK
6
CONTINUOUS
10
3.35065
20
-3.77201
11
3.35423
21
-3.7713
0
LINE
8
BLACK
6
CONTINUOUS
10
3.35423
20
-3.7713
11
3.36358
21
-3.7713
0
LINE
8
BLACK
6
CONTINUOUS
10
3.36358
20
-3.7713
11
3.36358
21
-3.7387
0
LINE
8
BLACK
6
CONTINUOUS
10
3.36358
20
-3.7387
11
3.35423
21
-3.7387
0
LINE
8
BLACK
6
CONTINUOUS
10
3.35423
20
-3.7387
11
3.35065
21
-3.73799
0
LINE
8
BLACK
6
CONTINUOUS
10
3.35065
20
-3.73799
11
3.34762
21
-3.73596
0
LINE
8
BLACK
6
CONTINUOUS
10
3.34762
20
-3.73596
11
3.34559
21
-3.73293
0
LINE
8
BLACK
6
CONTINUOUS
10
3.34559
20
-3.73293
11
3.34488
21
-3.72935
0
LINE
8
BLACK
6
CONTINUOUS
10
3.34488
20
-3.72935
11
3.34488
21
-3.71065
0
LINE
8
BLACK
6
CONTINUOUS
10
3.34488
20
-3.71065
11
3.34559
21
-3.70707
0
LINE
8
BLACK
6
CONTINUOUS
10
3.34559
20
-3.70707
11
3.34762
21
-3.70404
0
LINE
8
BLACK
6
CONTINUOUS
10
3.34762
20
-3.70404
11
3.35065
21
-3.70201
0
LINE
8
BLACK
6
CONTINUOUS
10
3.35065
20
-3.70201
11
3.35423
21
-3.7013
0
LINE
8
BLACK
6
CONTINUOUS
10
3.35423
20
-3.7013
11
3.36358
21
-3.7013
0
LINE
8
BLACK
6
CONTINUOUS
10
3.36358
20
-3.7013
11
3.36358
21
-3.6687
0
LINE
8
BLACK
6
CONTINUOUS
10
3.36358
20
-3.6687
11
3.35423
21
-3.6687
0
LINE
8
BLACK
6
CONTINUOUS
10
3.35423
20
-3.6687
11
3.35065
21
-3.66799
0
LINE
8
BLACK
6
CONTINUOUS
10
3.35065
20
-3.66799
11
3.34762
21
-3.66596
0
LINE
8
BLACK
6
CONTINUOUS
10
3.34762
20
-3.66596
11
3.34559
21
-3.66293
0
LINE
8
BLACK
6
CONTINUOUS
10
3.34559
20
-3.66293
11
3.34488
21
-3.65935
0
LINE
8
BLACK
6
CONTINUOUS
10
3.34488
20
-3.65935
11
3.34488
21
-3.64065
0
LINE
8
BLACK
6
CONTINUOUS
10
3.34488
20
-3.64065
11
3.34559
21
-3.63707
0
LINE
8
BLACK
6
CONTINUOUS
10
3.34559
20
-3.63707
11
3.34762
21
-3.63404
0
LINE
8
BLACK
6
CONTINUOUS
10
3.34762
20
-3.63404
11
3.35065
21
-3.63201
0
LINE
8
BLACK
6
CONTINUOUS
10
3.35065
20
-3.63201
11
3.35423
21
-3.6313
0
LINE
8
BLACK
6
CONTINUOUS
10
3.35423
20
-3.6313
11
3.37785
21
-3.6313
0
LINE
8
BLACK
6
CONTINUOUS
10
3.37785
20
-3.6313
11
3.3807
21
-3.63186
0
LINE
8
BLACK
6
CONTINUOUS
10
3.3807
20
-3.63186
11
3.39193
21
-3.62063
0
LINE
8
BLACK
6
CONTINUOUS
10
3.39193
20
-3.62063
11
3.39193
21
-3.54976
0
LINE
8
BLACK
6
CONTINUOUS
10
3.39193
20
-3.54976
11
3.37898
21
-3.53681
0
LINE
8
BLACK
6
CONTINUOUS
10
3.37898
20
-3.53681
11
3.36397
21
-3.53681
0
LINE
8
BLACK
6
CONTINUOUS
10
3.36397
20
-3.53681
11
3.36223
21
-3.53609
0
LINE
8
BLACK
6
CONTINUOUS
10
3.36223
20
-3.53609
11
3.35456
21
-3.52842
0
LINE
8
BLACK
6
CONTINUOUS
10
3.35456
20
-3.52842
11
3.35384
21
-3.52668
0
LINE
8
BLACK
6
CONTINUOUS
10
3.35384
20
-3.52668
11
3.35384
21
-3.47382
0
LINE
8
BLACK
6
CONTINUOUS
10
3.35384
20
-3.47382
11
3.35456
21
-3.47208
0
LINE
8
BLACK
6
CONTINUOUS
10
3.35456
20
-3.47208
11
3.37428
21
-3.45236
0
LINE
8
BLACK
6
CONTINUOUS
10
3.37428
20
-3.45236
11
3.36939
21
-3.45236
0
LINE
8
BLACK
6
CONTINUOUS
10
3.36939
20
-3.45236
11
3.36713
21
-3.45191
0
LINE
8
BLACK
6
CONTINUOUS
10
3.36713
20
-3.45191
11
3.36521
21
-3.45063
0
LINE
8
BLACK
6
CONTINUOUS
10
3.36521
20
-3.45063
11
3.36393
21
-3.44872
0
LINE
8
BLACK
6
CONTINUOUS
10
3.36393
20
-3.44872
11
3.36348
21
-3.44646
0
LINE
8
BLACK
6
CONTINUOUS
10
3.36348
20
-3.44646
11
3.36348
21
-3.43465
0
LINE
8
BLACK
6
CONTINUOUS
10
3.36348
20
-3.43465
11
3.36393
21
-3.43239
0
LINE
8
BLACK
6
CONTINUOUS
10
3.36393
20
-3.43239
11
3.36521
21
-3.43047
0
LINE
8
BLACK
6
CONTINUOUS
10
3.36521
20
-3.43047
11
3.36713
21
-3.42919
0
LINE
8
BLACK
6
CONTINUOUS
10
3.36713
20
-3.42919
11
3.36939
21
-3.42874
0
LINE
8
BLACK
6
CONTINUOUS
10
3.36939
20
-3.42874
11
3.37938
21
-3.42874
0
LINE
8
BLACK
6
CONTINUOUS
10
3.37938
20
-3.42874
11
3.38031
21
-3.42781
0
LINE
8
BLACK
6
CONTINUOUS
10
3.38031
20
-3.42781
11
3.3847
21
-3.42557
0
LINE
8
BLACK
6
CONTINUOUS
10
3.3847
20
-3.42557
11
3.38957
21
-3.4248
0
LINE
8
BLACK
6
CONTINUOUS
10
3.38957
20
-3.4248
11
3.39443
21
-3.42557
0
LINE
8
BLACK
6
CONTINUOUS
10
2.79646
20
-3.78835
11
2.76496
21
-3.78835
0
LINE
8
BLACK
6
CONTINUOUS
10
2.76496
20
-3.78835
11
2.76496
21
-3.7726
0
LINE
8
BLACK
6
CONTINUOUS
10
2.76496
20
-3.7726
11
2.79646
21
-3.7726
0
LINE
8
BLACK
6
CONTINUOUS
10
2.79646
20
-3.7726
11
2.79646
21
-3.78835
0
LINE
8
BLACK
6
CONTINUOUS
10
3.26102
20
-3.78835
11
3.22953
21
-3.78835
0
LINE
8
BLACK
6
CONTINUOUS
10
3.22953
20
-3.78835
11
3.22953
21
-3.7726
0
LINE
8
BLACK
6
CONTINUOUS
10
3.22953
20
-3.7726
11
3.26102
21
-3.7726
0
LINE
8
BLACK
6
CONTINUOUS
10
3.26102
20
-3.7726
11
3.26102
21
-3.78835
0
LINE
8
BLACK
6
CONTINUOUS
10
2.79646
20
-3.75685
11
2.76496
21
-3.75685
0
LINE
8
BLACK
6
CONTINUOUS
10
2.76496
20
-3.75685
11
2.76496
21
-3.7411
0
LINE
8
BLACK
6
CONTINUOUS
10
2.76496
20
-3.7411
11
2.79646
21
-3.7411
0
LINE
8
BLACK
6
CONTINUOUS
10
2.79646
20
-3.7411
11
2.79646
21
-3.75685
0
LINE
8
BLACK
6
CONTINUOUS
10
3.26102
20
-3.75685
11
3.22953
21
-3.75685
0
LINE
8
BLACK
6
CONTINUOUS
10
3.22953
20
-3.75685
11
3.22953
21
-3.7411
0
LINE
8
BLACK
6
CONTINUOUS
10
3.22953
20
-3.7411
11
3.26102
21
-3.7411
0
LINE
8
BLACK
6
CONTINUOUS
10
3.26102
20
-3.7411
11
3.26102
21
-3.75685
0
LINE
8
BLACK
6
CONTINUOUS
10
3.26102
20
-3.72535
11
3.22953
21
-3.72535
0
LINE
8
BLACK
6
CONTINUOUS
10
3.22953
20
-3.72535
11
3.22953
21
-3.70961
0
LINE
8
BLACK
6
CONTINUOUS
10
3.22953
20
-3.70961
11
3.26102
21
-3.70961
0
LINE
8
BLACK
6
CONTINUOUS
10
3.26102
20
-3.70961
11
3.26102
21
-3.72535
0
LINE
8
BLACK
6
CONTINUOUS
10
2.58317
20
-3.64017
11
2.58508
21
-3.64145
0
LINE
8
BLACK
6
CONTINUOUS
10
2.58508
20
-3.64145
11
2.58636
21
-3.64337
0
LINE
8
BLACK
6
CONTINUOUS
10
2.58636
20
-3.64337
11
2.58681
21
-3.64563
0
LINE
8
BLACK
6
CONTINUOUS
10
2.58681
20
-3.64563
11
2.58681
21
-3.66792
0
LINE
8
BLACK
6
CONTINUOUS
10
2.58681
20
-3.66792
11
2.58774
21
-3.66885
0
LINE
8
BLACK
6
CONTINUOUS
10
2.58774
20
-3.66885
11
2.58998
21
-3.67324
0
LINE
8
BLACK
6
CONTINUOUS
10
2.58998
20
-3.67324
11
2.59075
21
-3.67811
0
LINE
8
BLACK
6
CONTINUOUS
10
2.59075
20
-3.67811
11
2.58998
21
-3.68298
0
LINE
8
BLACK
6
CONTINUOUS
10
2.58998
20
-3.68298
11
2.58774
21
-3.68737
0
LINE
8
BLACK
6
CONTINUOUS
10
2.58774
20
-3.68737
11
2.58681
21
-3.6883
0
LINE
8
BLACK
6
CONTINUOUS
10
2.58681
20
-3.6883
11
2.58681
21
-3.71059
0
LINE
8
BLACK
6
CONTINUOUS
10
2.58681
20
-3.71059
11
2.58636
21
-3.71285
0
LINE
8
BLACK
6
CONTINUOUS
10
2.58636
20
-3.71285
11
2.58508
21
-3.71477
0
LINE
8
BLACK
6
CONTINUOUS
10
2.58508
20
-3.71477
11
2.58317
21
-3.71605
0
LINE
8
BLACK
6
CONTINUOUS
10
2.58317
20
-3.71605
11
2.58091
21
-3.7165
0
LINE
8
BLACK
6
CONTINUOUS
10
2.58091
20
-3.7165
11
2.56909
21
-3.7165
0
LINE
8
BLACK
6
CONTINUOUS
10
2.56909
20
-3.7165
11
2.56683
21
-3.71605
0
LINE
8
BLACK
6
CONTINUOUS
10
2.56683
20
-3.71605
11
2.56492
21
-3.71477
0
LINE
8
BLACK
6
CONTINUOUS
10
2.56492
20
-3.71477
11
2.56364
21
-3.71285
0
LINE
8
BLACK
6
CONTINUOUS
10
2.56364
20
-3.71285
11
2.56319
21
-3.71059
0
LINE
8
BLACK
6
CONTINUOUS
10
2.56319
20
-3.71059
11
2.56319
21
-3.6883
0
LINE
8
BLACK
6
CONTINUOUS
10
2.56319
20
-3.6883
11
2.56226
21
-3.68737
0
LINE
8
BLACK
6
CONTINUOUS
10
2.56226
20
-3.68737
11
2.56002
21
-3.68298
0
LINE
8
BLACK
6
CONTINUOUS
10
2.56002
20
-3.68298
11
2.55925
21
-3.67811
0
LINE
8
BLACK
6
CONTINUOUS
10
2.55925
20
-3.67811
11
2.56002
21
-3.67324
0
LINE
8
BLACK
6
CONTINUOUS
10
2.56002
20
-3.67324
11
2.56226
21
-3.66885
0
LINE
8
BLACK
6
CONTINUOUS
10
2.56226
20
-3.66885
11
2.56319
21
-3.66792
0
LINE
8
BLACK
6
CONTINUOUS
10
2.56319
20
-3.66792
11
2.56319
21
-3.64563
0
LINE
8
BLACK
6
CONTINUOUS
10
2.56319
20
-3.64563
11
2.56364
21
-3.64337
0
LINE
8
BLACK
6
CONTINUOUS
10
2.56364
20
-3.64337
11
2.56492
21
-3.64145
0
LINE
8
BLACK
6
CONTINUOUS
10
2.56492
20
-3.64145
11
2.56683
21
-3.64017
0
LINE
8
BLACK
6
CONTINUOUS
10
2.56683
20
-3.64017
11
2.56909
21
-3.63972
0
LINE
8
BLACK
6
CONTINUOUS
10
2.56909
20
-3.63972
11
2.58091
21
-3.63972
0
LINE
8
BLACK
6
CONTINUOUS
10
2.58091
20
-3.63972
11
2.58317
21
-3.64017
0
LINE
8
BLACK
6
CONTINUOUS
10
3.26102
20
-3.69386
11
3.22953
21
-3.69386
0
LINE
8
BLACK
6
CONTINUOUS
10
3.22953
20
-3.69386
11
3.22953
21
-3.67811
0
LINE
8
BLACK
6
CONTINUOUS
10
3.22953
20
-3.67811
11
3.26102
21
-3.67811
0
LINE
8
BLACK
6
CONTINUOUS
10
3.26102
20
-3.67811
11
3.26102
21
-3.69386
0
LINE
8
BLACK
6
CONTINUOUS
10
2.95945
20
-3.50055
11
2.95443
21
-3.50055
0
LINE
8
BLACK
6
CONTINUOUS
10
2.95443
20
-3.50055
11
2.95443
21
-3.51061
0
LINE
8
BLACK
6
CONTINUOUS
10
2.95443
20
-3.51061
11
2.95371
21
-3.51235
0
LINE
8
BLACK
6
CONTINUOUS
10
2.95371
20
-3.51235
11
2.93967
21
-3.52639
0
LINE
8
BLACK
6
CONTINUOUS
10
2.93967
20
-3.52639
11
2.93967
21
-3.56335
0
LINE
8
BLACK
6
CONTINUOUS
10
2.93967
20
-3.56335
11
2.93894
21
-3.56509
0
LINE
8
BLACK
6
CONTINUOUS
10
2.93894
20
-3.56509
11
2.91274
21
-3.59129
0
LINE
8
BLACK
6
CONTINUOUS
10
2.91274
20
-3.59129
11
2.91274
21
-3.59129
0
LINE
8
BLACK
6
CONTINUOUS
10
2.91274
20
-3.59129
11
2.91498
21
-3.59568
0
LINE
8
BLACK
6
CONTINUOUS
10
2.91498
20
-3.59568
11
2.91575
21
-3.60055
0
LINE
8
BLACK
6
CONTINUOUS
10
2.91575
20
-3.60055
11
2.91498
21
-3.60542
0
LINE
8
BLACK
6
CONTINUOUS
10
2.91498
20
-3.60542
11
2.91274
21
-3.60981
0
LINE
8
BLACK
6
CONTINUOUS
10
2.91274
20
-3.60981
11
2.90926
21
-3.61329
0
LINE
8
BLACK
6
CONTINUOUS
10
2.90926
20
-3.61329
11
2.90487
21
-3.61553
0
LINE
8
BLACK
6
CONTINUOUS
10
2.90487
20
-3.61553
11
2.9
21
-3.6163
0
LINE
8
BLACK
6
CONTINUOUS
10
2.9
20
-3.6163
11
2.89513
21
-3.61553
0
LINE
8
BLACK
6
CONTINUOUS
10
2.89513
20
-3.61553
11
2.89074
21
-3.61329
0
LINE
8
BLACK
6
CONTINUOUS
10
2.89074
20
-3.61329
11
2.88726
21
-3.60981
0
LINE
8
BLACK
6
CONTINUOUS
10
2.88726
20
-3.60981
11
2.88502
21
-3.60542
0
LINE
8
BLACK
6
CONTINUOUS
10
2.88502
20
-3.60542
11
2.88425
21
-3.60055
0
LINE
8
BLACK
6
CONTINUOUS
10
2.88425
20
-3.60055
11
2.88502
21
-3.59568
0
LINE
8
BLACK
6
CONTINUOUS
10
2.88502
20
-3.59568
11
2.88726
21
-3.59129
0
LINE
8
BLACK
6
CONTINUOUS
10
2.88726
20
-3.59129
11
2.89074
21
-3.58781
0
LINE
8
BLACK
6
CONTINUOUS
10
2.89074
20
-3.58781
11
2.89513
21
-3.58557
0
LINE
8
BLACK
6
CONTINUOUS
10
2.89513
20
-3.58557
11
2.9
21
-3.5848
0
LINE
8
BLACK
6
CONTINUOUS
10
2.9
20
-3.5848
11
2.90487
21
-3.58557
0
LINE
8
BLACK
6
CONTINUOUS
10
2.90487
20
-3.58557
11
2.90926
21
-3.58781
0
LINE
8
BLACK
6
CONTINUOUS
10
2.90926
20
-3.58781
11
2.90926
21
-3.58781
0
LINE
8
BLACK
6
CONTINUOUS
10
2.90926
20
-3.58781
11
2.93474
21
-3.56233
0
LINE
8
BLACK
6
CONTINUOUS
10
2.93474
20
-3.56233
11
2.93474
21
-3.52537
0
LINE
8
BLACK
6
CONTINUOUS
10
2.93474
20
-3.52537
11
2.93546
21
-3.52363
0
LINE
8
BLACK
6
CONTINUOUS
10
2.93546
20
-3.52363
11
2.94951
21
-3.50959
0
LINE
8
BLACK
6
CONTINUOUS
10
2.94951
20
-3.50959
11
2.94951
21
-3.50055
0
LINE
8
BLACK
6
CONTINUOUS
10
2.94951
20
-3.50055
11
2.94449
21
-3.50055
0
LINE
8
BLACK
6
CONTINUOUS
10
2.94449
20
-3.50055
11
2.94449
21
-3.46118
0
LINE
8
BLACK
6
CONTINUOUS
10
2.94449
20
-3.46118
11
2.95945
21
-3.46118
0
LINE
8
BLACK
6
CONTINUOUS
10
2.95945
20
-3.46118
11
2.95945
21
-3.50055
0
LINE
8
BLACK
6
CONTINUOUS
10
2.97913
20
-3.50055
11
2.97411
21
-3.50055
0
LINE
8
BLACK
6
CONTINUOUS
10
2.97411
20
-3.50055
11
2.97411
21
-3.50902
0
LINE
8
BLACK
6
CONTINUOUS
10
2.97411
20
-3.50902
11
2.97348
21
-3.51055
0
LINE
8
BLACK
6
CONTINUOUS
10
2.97348
20
-3.51055
11
2.97339
21
-3.51076
0
LINE
8
BLACK
6
CONTINUOUS
10
2.97339
20
-3.51076
11
2.95246
21
-3.53169
0
LINE
8
BLACK
6
CONTINUOUS
10
2.95246
20
-3.53169
11
2.95246
21
-3.58519
0
LINE
8
BLACK
6
CONTINUOUS
10
2.95246
20
-3.58519
11
2.95487
21
-3.58557
0
LINE
8
BLACK
6
CONTINUOUS
10
2.95487
20
-3.58557
11
2.95926
21
-3.58781
0
LINE
8
BLACK
6
CONTINUOUS
10
2.95926
20
-3.58781
11
2.96274
21
-3.59129
0
LINE
8
BLACK
6
CONTINUOUS
10
2.96274
20
-3.59129
11
2.96498
21
-3.59568
0
LINE
8
BLACK
6
CONTINUOUS
10
2.96498
20
-3.59568
11
2.96575
21
-3.60055
0
LINE
8
BLACK
6
CONTINUOUS
10
2.96575
20
-3.60055
11
2.96498
21
-3.60542
0
LINE
8
BLACK
6
CONTINUOUS
10
2.96498
20
-3.60542
11
2.96274
21
-3.60981
0
LINE
8
BLACK
6
CONTINUOUS
10
2.96274
20
-3.60981
11
2.95926
21
-3.61329
0
LINE
8
BLACK
6
CONTINUOUS
10
2.95926
20
-3.61329
11
2.95487
21
-3.61553
0
LINE
8
BLACK
6
CONTINUOUS
10
2.95487
20
-3.61553
11
2.95
21
-3.6163
0
LINE
8
BLACK
6
CONTINUOUS
10
2.95
20
-3.6163
11
2.94513
21
-3.61553
0
LINE
8
BLACK
6
CONTINUOUS
10
2.94513
20
-3.61553
11
2.94074
21
-3.61329
0
LINE
8
BLACK
6
CONTINUOUS
10
2.94074
20
-3.61329
11
2.93726
21
-3.60981
0
LINE
8
BLACK
6
CONTINUOUS
10
2.93726
20
-3.60981
11
2.93502
21
-3.60542
0
LINE
8
BLACK
6
CONTINUOUS
10
2.93502
20
-3.60542
11
2.93425
21
-3.60055
0
LINE
8
BLACK
6
CONTINUOUS
10
2.93425
20
-3.60055
11
2.93502
21
-3.59568
0
LINE
8
BLACK
6
CONTINUOUS
10
2.93502
20
-3.59568
11
2.93726
21
-3.59129
0
LINE
8
BLACK
6
CONTINUOUS
10
2.93726
20
-3.59129
11
2.94074
21
-3.58781
0
LINE
8
BLACK
6
CONTINUOUS
10
2.94074
20
-3.58781
11
2.94513
21
-3.58557
0
LINE
8
BLACK
6
CONTINUOUS
10
2.94513
20
-3.58557
11
2.94754
21
-3.58519
0
LINE
8
BLACK
6
CONTINUOUS
10
2.94754
20
-3.58519
11
2.94754
21
-3.53067
0
LINE
8
BLACK
6
CONTINUOUS
10
2.94754
20
-3.53067
11
2.94826
21
-3.52893
0
LINE
8
BLACK
6
CONTINUOUS
10
2.94826
20
-3.52893
11
2.96919
21
-3.508
0
LINE
8
BLACK
6
CONTINUOUS
10
2.96919
20
-3.508
11
2.96919
21
-3.50055
0
LINE
8
BLACK
6
CONTINUOUS
10
2.96919
20
-3.50055
11
2.96417
21
-3.50055
0
LINE
8
BLACK
6
CONTINUOUS
10
2.96417
20
-3.50055
11
2.96417
21
-3.46118
0
LINE
8
BLACK
6
CONTINUOUS
10
2.96417
20
-3.46118
11
2.97913
21
-3.46118
0
LINE
8
BLACK
6
CONTINUOUS
10
2.97913
20
-3.46118
11
2.97913
21
-3.50055
0
LINE
8
BLACK
6
CONTINUOUS
10
3.30487
20
-3.42557
11
3.30926
21
-3.42781
0
LINE
8
BLACK
6
CONTINUOUS
10
3.30926
20
-3.42781
11
3.31019
21
-3.42874
0
LINE
8
BLACK
6
CONTINUOUS
10
3.31019
20
-3.42874
11
3.32018
21
-3.42874
0
LINE
8
BLACK
6
CONTINUOUS
10
3.32018
20
-3.42874
11
3.32244
21
-3.42919
0
LINE
8
BLACK
6
CONTINUOUS
10
3.32244
20
-3.42919
11
3.32435
21
-3.43047
0
LINE
8
BLACK
6
CONTINUOUS
10
3.32435
20
-3.43047
11
3.32563
21
-3.43239
0
LINE
8
BLACK
6
CONTINUOUS
10
3.32563
20
-3.43239
11
3.32608
21
-3.43465
0
LINE
8
BLACK
6
CONTINUOUS
10
3.32608
20
-3.43465
11
3.32608
21
-3.44646
0
LINE
8
BLACK
6
CONTINUOUS
10
3.32608
20
-3.44646
11
3.32563
21
-3.44872
0
LINE
8
BLACK
6
CONTINUOUS
10
3.32563
20
-3.44872
11
3.3247
21
-3.45012
0
LINE
8
BLACK
6
CONTINUOUS
10
3.3247
20
-3.45012
11
3.33816
21
-3.46358
0
LINE
8
BLACK
6
CONTINUOUS
10
3.33816
20
-3.46358
11
3.33888
21
-3.46532
0
LINE
8
BLACK
6
CONTINUOUS
10
3.33888
20
-3.46532
11
3.33888
21
-3.49059
0
LINE
8
BLACK
6
CONTINUOUS
10
3.33888
20
-3.49059
11
3.33816
21
-3.49233
0
LINE
8
BLACK
6
CONTINUOUS
10
3.33816
20
-3.49233
11
3.3247
21
-3.50579
0
LINE
8
BLACK
6
CONTINUOUS
10
3.3247
20
-3.50579
11
3.32563
21
-3.50719
0
LINE
8
BLACK
6
CONTINUOUS
10
3.32563
20
-3.50719
11
3.32608
21
-3.50945
0
LINE
8
BLACK
6
CONTINUOUS
10
3.32608
20
-3.50945
11
3.32608
21
-3.52126
0
LINE
8
BLACK
6
CONTINUOUS
10
3.32608
20
-3.52126
11
3.32563
21
-3.52352
0
LINE
8
BLACK
6
CONTINUOUS
10
3.32563
20
-3.52352
11
3.32435
21
-3.52544
0
LINE
8
BLACK
6
CONTINUOUS
10
3.32435
20
-3.52544
11
3.32244
21
-3.52672
0
LINE
8
BLACK
6
CONTINUOUS
10
3.32244
20
-3.52672
11
3.32018
21
-3.52717
0
LINE
8
BLACK
6
CONTINUOUS
10
3.32018
20
-3.52717
11
3.31669
21
-3.52717
0
LINE
8
BLACK
6
CONTINUOUS
10
3.31669
20
-3.52717
11
3.35139
21
-3.56186
0
LINE
8
BLACK
6
CONTINUOUS
10
3.35139
20
-3.56186
11
3.35423
21
-3.5613
0
LINE
8
BLACK
6
CONTINUOUS
10
3.35423
20
-3.5613
11
3.37785
21
-3.5613
0
LINE
8
BLACK
6
CONTINUOUS
10
3.37785
20
-3.5613
11
3.38143
21
-3.56201
0
LINE
8
BLACK
6
CONTINUOUS
10
3.38143
20
-3.56201
11
3.38447
21
-3.56404
0
LINE
8
BLACK
6
CONTINUOUS
10
3.38447
20
-3.56404
11
3.38649
21
-3.56707
0
LINE
8
BLACK
6
CONTINUOUS
10
3.38649
20
-3.56707
11
3.3872
21
-3.57065
0
LINE
8
BLACK
6
CONTINUOUS
10
3.3872
20
-3.57065
11
3.3872
21
-3.58935
0
LINE
8
BLACK
6
CONTINUOUS
10
3.3872
20
-3.58935
11
3.38649
21
-3.59293
0
LINE
8
BLACK
6
CONTINUOUS
10
3.38649
20
-3.59293
11
3.38447
21
-3.59596
0
LINE
8
BLACK
6
CONTINUOUS
10
3.38447
20
-3.59596
11
3.38143
21
-3.59799
0
LINE
8
BLACK
6
CONTINUOUS
10
3.38143
20
-3.59799
11
3.37785
21
-3.5987
0
LINE
8
BLACK
6
CONTINUOUS
10
3.37785
20
-3.5987
11
3.35423
21
-3.5987
0
LINE
8
BLACK
6
CONTINUOUS
10
3.35423
20
-3.5987
11
3.35065
21
-3.59799
0
LINE
8
BLACK
6
CONTINUOUS
10
3.35065
20
-3.59799
11
3.34762
21
-3.59596
0
LINE
8
BLACK
6
CONTINUOUS
10
3.34762
20
-3.59596
11
3.34559
21
-3.59293
0
LINE
8
BLACK
6
CONTINUOUS
10
3.34559
20
-3.59293
11
3.34488
21
-3.58935
0
LINE
8
BLACK
6
CONTINUOUS
10
3.34488
20
-3.58935
11
3.34488
21
-3.57065
0
LINE
8
BLACK
6
CONTINUOUS
10
3.34488
20
-3.57065
11
3.34559
21
-3.56707
0
LINE
8
BLACK
6
CONTINUOUS
10
3.34559
20
-3.56707
11
3.34721
21
-3.56465
0
LINE
8
BLACK
6
CONTINUOUS
10
3.34721
20
-3.56465
11
3.30973
21
-3.52717
0
LINE
8
BLACK
6
CONTINUOUS
10
3.30973
20
-3.52717
11
3.27982
21
-3.52717
0
LINE
8
BLACK
6
CONTINUOUS
10
3.27982
20
-3.52717
11
3.27756
21
-3.52672
0
LINE
8
BLACK
6
CONTINUOUS
10
3.27756
20
-3.52672
11
3.27565
21
-3.52544
0
LINE
8
BLACK
6
CONTINUOUS
10
3.27565
20
-3.52544
11
3.27437
21
-3.52352
0
LINE
8
BLACK
6
CONTINUOUS
10
3.27437
20
-3.52352
11
3.27392
21
-3.52126
0
LINE
8
BLACK
6
CONTINUOUS
10
3.27392
20
-3.52126
11
3.27392
21
-3.50945
0
LINE
8
BLACK
6
CONTINUOUS
10
3.27392
20
-3.50945
11
3.27437
21
-3.50719
0
LINE
8
BLACK
6
CONTINUOUS
10
3.27437
20
-3.50719
11
3.27565
21
-3.50527
0
LINE
8
BLACK
6
CONTINUOUS
10
3.27565
20
-3.50527
11
3.27756
21
-3.50399
0
LINE
8
BLACK
6
CONTINUOUS
10
3.27756
20
-3.50399
11
3.27982
21
-3.50354
0
LINE
8
BLACK
6
CONTINUOUS
10
3.27982
20
-3.50354
11
3.31553
21
-3.50354
0
LINE
8
BLACK
6
CONTINUOUS
10
3.31553
20
-3.50354
11
3.33081
21
-3.48826
0
LINE
8
BLACK
6
CONTINUOUS
10
3.33081
20
-3.48826
11
3.33081
21
-3.46764
0
LINE
8
BLACK
6
CONTINUOUS
10
3.33081
20
-3.46764
11
3.31553
21
-3.45236
0
LINE
8
BLACK
6
CONTINUOUS
10
3.31553
20
-3.45236
11
3.31019
21
-3.45236
0
LINE
8
BLACK
6
CONTINUOUS
10
3.31019
20
-3.45236
11
3.30926
21
-3.45329
0
LINE
8
BLACK
6
CONTINUOUS
10
3.30926
20
-3.45329
11
3.30487
21
-3.45553
0
LINE
8
BLACK
6
CONTINUOUS
10
3.30487
20
-3.45553
11
3.3
21
-3.4563
0
LINE
8
BLACK
6
CONTINUOUS
10
3.3
20
-3.4563
11
3.29513
21
-3.45553
0
LINE
8
BLACK
6
CONTINUOUS
10
3.29513
20
-3.45553
11
3.29074
21
-3.45329
0
LINE
8
BLACK
6
CONTINUOUS
10
3.29074
20
-3.45329
11
3.28981
21
-3.45236
0
LINE
8
BLACK
6
CONTINUOUS
10
3.28981
20
-3.45236
11
3.27982
21
-3.45236
0
LINE
8
BLACK
6
CONTINUOUS
10
3.27982
20
-3.45236
11
3.27756
21
-3.45191
0
LINE
8
BLACK
6
CONTINUOUS
10
3.27756
20
-3.45191
11
3.27565
21
-3.45063
0
LINE
8
BLACK
6
CONTINUOUS
10
3.27565
20
-3.45063
11
3.27437
21
-3.44872
0
LINE
8
BLACK
6
CONTINUOUS
10
3.27437
20
-3.44872
11
3.27392
21
-3.44646
0
LINE
8
BLACK
6
CONTINUOUS
10
3.27392
20
-3.44646
11
3.27392
21
-3.43465
0
LINE
8
BLACK
6
CONTINUOUS
10
3.27392
20
-3.43465
11
3.27437
21
-3.43239
0
LINE
8
BLACK
6
CONTINUOUS
10
3.27437
20
-3.43239
11
3.27565
21
-3.43047
0
LINE
8
BLACK
6
CONTINUOUS
10
3.27565
20
-3.43047
11
3.27756
21
-3.42919
0
LINE
8
BLACK
6
CONTINUOUS
10
3.27756
20
-3.42919
11
3.27982
21
-3.42874
0
LINE
8
BLACK
6
CONTINUOUS
10
3.27982
20
-3.42874
11
3.28981
21
-3.42874
0
LINE
8
BLACK
6
CONTINUOUS
10
3.28981
20
-3.42874
11
3.29074
21
-3.42781
0
LINE
8
BLACK
6
CONTINUOUS
10
3.29074
20
-3.42781
11
3.29513
21
-3.42557
0
LINE
8
BLACK
6
CONTINUOUS
10
3.29513
20
-3.42557
11
3.3
21
-3.4248
0
LINE
8
BLACK
6
CONTINUOUS
10
3.3
20
-3.4248
11
3.30487
21
-3.42557
0
LINE
8
BLACK
6
CONTINUOUS
10
3.00886
20
-3.44809
11
3.0106
21
-3.44881
0
LINE
8
BLACK
6
CONTINUOUS
10
3.0106
20
-3.44881
11
3.01276
21
-3.45098
0
LINE
8
BLACK
6
CONTINUOUS
10
3.01276
20
-3.45098
11
3.01348
21
-3.45272
0
LINE
8
BLACK
6
CONTINUOUS
10
3.01348
20
-3.45272
11
3.01348
21
-3.46118
0
LINE
8
BLACK
6
CONTINUOUS
10
3.01348
20
-3.46118
11
3.0185
21
-3.46118
0
LINE
8
BLACK
6
CONTINUOUS
10
3.0185
20
-3.46118
11
3.0185
21
-3.50055
0
LINE
8
BLACK
6
CONTINUOUS
10
3.0185
20
-3.50055
11
3.01161
21
-3.50055
0
LINE
8
BLACK
6
CONTINUOUS
10
3.01161
20
-3.50055
11
3.01161
21
-3.50613
0
LINE
8
BLACK
6
CONTINUOUS
10
3.01161
20
-3.50613
11
3.03966
21
-3.53417
0
LINE
8
BLACK
6
CONTINUOUS
10
3.03966
20
-3.53417
11
3.03966
21
-3.53417
0
LINE
8
BLACK
6
CONTINUOUS
10
3.03966
20
-3.53417
11
3.04405
21
-3.53193
0
LINE
8
BLACK
6
CONTINUOUS
10
3.04405
20
-3.53193
11
3.04892
21
-3.53116
0
LINE
8
BLACK
6
CONTINUOUS
10
3.04892
20
-3.53116
11
3.05378
21
-3.53193
0
LINE
8
BLACK
6
CONTINUOUS
10
3.05378
20
-3.53193
11
3.05817
21
-3.53417
0
LINE
8
BLACK
6
CONTINUOUS
10
3.05817
20
-3.53417
11
3.06166
21
-3.53765
0
LINE
8
BLACK
6
CONTINUOUS
10
3.06166
20
-3.53765
11
3.06389
21
-3.54204
0
LINE
8
BLACK
6
CONTINUOUS
10
3.06389
20
-3.54204
11
3.06467
21
-3.54691
0
LINE
8
BLACK
6
CONTINUOUS
10
3.06467
20
-3.54691
11
3.06389
21
-3.55178
0
LINE
8
BLACK
6
CONTINUOUS
10
3.06389
20
-3.55178
11
3.06166
21
-3.55617
0
LINE
8
BLACK
6
CONTINUOUS
10
3.06166
20
-3.55617
11
3.05817
21
-3.55965
0
LINE
8
BLACK
6
CONTINUOUS
10
3.05817
20
-3.55965
11
3.05378
21
-3.56189
0
LINE
8
BLACK
6
CONTINUOUS
10
3.05378
20
-3.56189
11
3.04892
21
-3.56266
0
LINE
8
BLACK
6
CONTINUOUS
10
3.04892
20
-3.56266
11
3.04405
21
-3.56189
0
LINE
8
BLACK
6
CONTINUOUS
10
3.04405
20
-3.56189
11
3.03966
21
-3.55965
0
LINE
8
BLACK
6
CONTINUOUS
10
3.03966
20
-3.55965
11
3.03618
21
-3.55617
0
LINE
8
BLACK
6
CONTINUOUS
10
3.03618
20
-3.55617
11
3.03394
21
-3.55178
0
LINE
8
BLACK
6
CONTINUOUS
10
3.03394
20
-3.55178
11
3.03317
21
-3.54691
0
LINE
8
BLACK
6
CONTINUOUS
10
3.03317
20
-3.54691
11
3.03394
21
-3.54204
0
LINE
8
BLACK
6
CONTINUOUS
10
3.03394
20
-3.54204
11
3.03618
21
-3.53765
0
LINE
8
BLACK
6
CONTINUOUS
10
3.03618
20
-3.53765
11
3.03618
21
-3.53765
0
LINE
8
BLACK
6
CONTINUOUS
10
3.03618
20
-3.53765
11
3.00741
21
-3.50889
0
LINE
8
BLACK
6
CONTINUOUS
10
3.00741
20
-3.50889
11
3.00669
21
-3.50715
0
LINE
8
BLACK
6
CONTINUOUS
10
3.00669
20
-3.50715
11
3.00669
21
-3.50715
0
LINE
8
BLACK
6
CONTINUOUS
10
3.00669
20
-3.50715
11
3.00669
21
-3.50055
0
LINE
8
BLACK
6
CONTINUOUS
10
3.00669
20
-3.50055
11
3.00354
21
-3.50055
0
LINE
8
BLACK
6
CONTINUOUS
10
3.00354
20
-3.50055
11
3.00354
21
-3.46118
0
LINE
8
BLACK
6
CONTINUOUS
10
3.00354
20
-3.46118
11
3.00856
21
-3.46118
0
LINE
8
BLACK
6
CONTINUOUS
10
3.00856
20
-3.46118
11
3.00856
21
-3.45374
0
LINE
8
BLACK
6
CONTINUOUS
10
3.00856
20
-3.45374
11
3.00784
21
-3.45301
0
LINE
8
BLACK
6
CONTINUOUS
10
3.00784
20
-3.45301
11
2.91578
21
-3.45301
0
LINE
8
BLACK
6
CONTINUOUS
10
2.91578
20
-3.45301
11
2.91506
21
-3.45374
0
LINE
8
BLACK
6
CONTINUOUS
10
2.91506
20
-3.45374
11
2.91506
21
-3.46118
0
LINE
8
BLACK
6
CONTINUOUS
10
2.91506
20
-3.46118
11
2.92008
21
-3.46118
0
LINE
8
BLACK
6
CONTINUOUS
10
2.92008
20
-3.46118
11
2.92008
21
-3.50055
0
LINE
8
BLACK
6
CONTINUOUS
10
2.92008
20
-3.50055
11
2.90512
21
-3.50055
0
LINE
8
BLACK
6
CONTINUOUS
10
2.90512
20
-3.50055
11
2.90512
21
-3.46118
0
LINE
8
BLACK
6
CONTINUOUS
10
2.90512
20
-3.46118
11
2.91014
21
-3.46118
0
LINE
8
BLACK
6
CONTINUOUS
10
2.91014
20
-3.46118
11
2.91014
21
-3.45272
0
LINE
8
BLACK
6
CONTINUOUS
10
2.91014
20
-3.45272
11
2.91086
21
-3.45098
0
LINE
8
BLACK
6
CONTINUOUS
10
2.91086
20
-3.45098
11
2.91302
21
-3.44881
0
LINE
8
BLACK
6
CONTINUOUS
10
2.91302
20
-3.44881
11
2.91476
21
-3.44809
0
LINE
8
BLACK
6
CONTINUOUS
10
2.91476
20
-3.44809
11
3.00886
21
-3.44809
0
LINE
8
BLACK
6
CONTINUOUS
10
2.93976
20
-3.50055
11
2.93474
21
-3.50055
0
LINE
8
BLACK
6
CONTINUOUS
10
2.93474
20
-3.50055
11
2.93474
21
-3.50547
0
LINE
8
BLACK
6
CONTINUOUS
10
2.93474
20
-3.50547
11
2.93474
21
-3.50547
0
LINE
8
BLACK
6
CONTINUOUS
10
2.93474
20
-3.50547
11
2.93402
21
-3.50721
0
LINE
8
BLACK
6
CONTINUOUS
10
2.93402
20
-3.50721
11
2.89574
21
-3.5455
0
LINE
8
BLACK
6
CONTINUOUS
10
2.89574
20
-3.5455
11
2.894
21
-3.54622
0
LINE
8
BLACK
6
CONTINUOUS
10
2.894
20
-3.54622
11
2.77116
21
-3.54622
0
LINE
8
BLACK
6
CONTINUOUS
10
2.77116
20
-3.54622
11
2.76942
21
-3.5455
0
LINE
8
BLACK
6
CONTINUOUS
10
2.76942
20
-3.5455
11
2.76703
21
-3.5431
0
LINE
8
BLACK
6
CONTINUOUS
10
2.76703
20
-3.5431
11
2.76637
21
-3.54354
0
LINE
8
BLACK
6
CONTINUOUS
10
2.76637
20
-3.54354
11
2.7628
21
-3.54425
0
LINE
8
BLACK
6
CONTINUOUS
10
2.7628
20
-3.54425
11
2.74311
21
-3.54425
0
LINE
8
BLACK
6
CONTINUOUS
10
2.74311
20
-3.54425
11
2.73953
21
-3.54354
0
LINE
8
BLACK
6
CONTINUOUS
10
2.73953
20
-3.54354
11
2.7365
21
-3.54151
0
LINE
8
BLACK
6
CONTINUOUS
10
2.7365
20
-3.54151
11
2.73447
21
-3.53848
0
LINE
8
BLACK
6
CONTINUOUS
10
2.73447
20
-3.53848
11
2.73376
21
-3.5349
0
LINE
8
BLACK
6
CONTINUOUS
10
2.73376
20
-3.5349
11
2.73376
21
-3.5162
0
LINE
8
BLACK
6
CONTINUOUS
10
2.73376
20
-3.5162
11
2.73447
21
-3.51262
0
LINE
8
BLACK
6
CONTINUOUS
10
2.73447
20
-3.51262
11
2.7365
21
-3.50959
0
LINE
8
BLACK
6
CONTINUOUS
10
2.7365
20
-3.50959
11
2.73953
21
-3.50756
0
LINE
8
BLACK
6
CONTINUOUS
10
2.73953
20
-3.50756
11
2.74311
21
-3.50685
0
LINE
8
BLACK
6
CONTINUOUS
10
2.74311
20
-3.50685
11
2.7628
21
-3.50685
0
LINE
8
BLACK
6
CONTINUOUS
10
2.7628
20
-3.50685
11
2.76637
21
-3.50756
0
LINE
8
BLACK
6
CONTINUOUS
10
2.76637
20
-3.50756
11
2.76941
21
-3.50959
0
LINE
8
BLACK
6
CONTINUOUS
10
2.76941
20
-3.50959
11
2.77143
21
-3.51262
0
LINE
8
BLACK
6
CONTINUOUS
10
2.77143
20
-3.51262
11
2.77215
21
-3.5162
0
LINE
8
BLACK
6
CONTINUOUS
10
2.77215
20
-3.5162
11
2.77215
21
-3.5349
0
LINE
8
BLACK
6
CONTINUOUS
10
2.77215
20
-3.5349
11
2.77143
21
-3.53848
0
LINE
8
BLACK
6
CONTINUOUS
10
2.77143
20
-3.53848
11
2.7706
21
-3.53972
0
LINE
8
BLACK
6
CONTINUOUS
10
2.7706
20
-3.53972
11
2.77218
21
-3.5413
0
LINE
8
BLACK
6
CONTINUOUS
10
2.77218
20
-3.5413
11
2.89298
21
-3.5413
0
LINE
8
BLACK
6
CONTINUOUS
10
2.89298
20
-3.5413
11
2.92982
21
-3.50445
0
LINE
8
BLACK
6
CONTINUOUS
10
2.92982
20
-3.50445
11
2.92982
21
-3.50055
0
LINE
8
BLACK
6
CONTINUOUS
10
2.92982
20
-3.50055
11
2.9248
21
-3.50055
0
LINE
8
BLACK
6
CONTINUOUS
10
2.9248
20
-3.50055
11
2.9248
21
-3.46118
0
LINE
8
BLACK
6
CONTINUOUS
10
2.9248
20
-3.46118
11
2.93976
21
-3.46118
0
LINE
8
BLACK
6
CONTINUOUS
10
2.93976
20
-3.46118
11
2.93976
21
-3.50055
0
LINE
8
BLACK
6
CONTINUOUS
10
3.412
20
-3.50399
11
3.41392
21
-3.50527
0
LINE
8
BLACK
6
CONTINUOUS
10
3.41392
20
-3.50527
11
3.4152
21
-3.50719
0
LINE
8
BLACK
6
CONTINUOUS
10
3.4152
20
-3.50719
11
3.41565
21
-3.50945
0
LINE
8
BLACK
6
CONTINUOUS
10
3.41565
20
-3.50945
11
3.41565
21
-3.52126
0
LINE
8
BLACK
6
CONTINUOUS
10
3.41565
20
-3.52126
11
3.4152
21
-3.52352
0
LINE
8
BLACK
6
CONTINUOUS
10
3.4152
20
-3.52352
11
3.41392
21
-3.52544
0
LINE
8
BLACK
6
CONTINUOUS
10
3.41392
20
-3.52544
11
3.412
21
-3.52672
0
LINE
8
BLACK
6
CONTINUOUS
10
3.412
20
-3.52672
11
3.40974
21
-3.52717
0
LINE
8
BLACK
6
CONTINUOUS
10
3.40974
20
-3.52717
11
3.36939
21
-3.52717
0
LINE
8
BLACK
6
CONTINUOUS
10
3.36939
20
-3.52717
11
3.36713
21
-3.52672
0
LINE
8
BLACK
6
CONTINUOUS
10
3.36713
20
-3.52672
11
3.36521
21
-3.52544
0
LINE
8
BLACK
6
CONTINUOUS
10
3.36521
20
-3.52544
11
3.36393
21
-3.52352
0
LINE
8
BLACK
6
CONTINUOUS
10
3.36393
20
-3.52352
11
3.36348
21
-3.52126
0
LINE
8
BLACK
6
CONTINUOUS
10
3.36348
20
-3.52126
11
3.36348
21
-3.50945
0
LINE
8
BLACK
6
CONTINUOUS
10
3.36348
20
-3.50945
11
3.36393
21
-3.50719
0
LINE
8
BLACK
6
CONTINUOUS
10
3.36393
20
-3.50719
11
3.36521
21
-3.50527
0
LINE
8
BLACK
6
CONTINUOUS
10
3.36521
20
-3.50527
11
3.36713
21
-3.50399
0
LINE
8
BLACK
6
CONTINUOUS
10
3.36713
20
-3.50399
11
3.36939
21
-3.50354
0
LINE
8
BLACK
6
CONTINUOUS
10
3.36939
20
-3.50354
11
3.40974
21
-3.50354
0
LINE
8
BLACK
6
CONTINUOUS
10
3.40974
20
-3.50354
11
3.412
21
-3.50399
0
LINE
8
BLACK
6
CONTINUOUS
10
2.88071
20
-3.50055
11
2.86575
21
-3.50055
0
LINE
8
BLACK
6
CONTINUOUS
10
2.86575
20
-3.50055
11
2.86575
21
-3.46118
0
LINE
8
BLACK
6
CONTINUOUS
10
2.86575
20
-3.46118
11
2.88071
21
-3.46118
0
LINE
8
BLACK
6
CONTINUOUS
10
2.88071
20
-3.46118
11
2.88071
21
-3.50055
0
LINE
8
BLACK
6
CONTINUOUS
10
2.90039
20
-3.50055
11
2.88543
21
-3.50055
0
LINE
8
BLACK
6
CONTINUOUS
10
2.88543
20
-3.50055
11
2.88543
21
-3.46118
0
LINE
8
BLACK
6
CONTINUOUS
10
2.88543
20
-3.46118
11
2.90039
21
-3.46118
0
LINE
8
BLACK
6
CONTINUOUS
10
2.90039
20
-3.46118
11
2.90039
21
-3.50055
0
LINE
8
BLACK
6
CONTINUOUS
10
2.99882
20
-3.50055
11
2.98386
21
-3.50055
0
LINE
8
BLACK
6
CONTINUOUS
10
2.98386
20
-3.50055
11
2.98386
21
-3.46118
0
LINE
8
BLACK
6
CONTINUOUS
10
2.98386
20
-3.46118
11
2.99882
21
-3.46118
0
LINE
8
BLACK
6
CONTINUOUS
10
2.99882
20
-3.46118
11
2.99882
21
-3.50055
0
LINE
8
BLACK
6
CONTINUOUS
10
3.03819
20
-3.50055
11
3.02323
21
-3.50055
0
LINE
8
BLACK
6
CONTINUOUS
10
3.02323
20
-3.50055
11
3.02323
21
-3.46118
0
LINE
8
BLACK
6
CONTINUOUS
10
3.02323
20
-3.46118
11
3.03819
21
-3.46118
0
LINE
8
BLACK
6
CONTINUOUS
10
3.03819
20
-3.46118
11
3.03819
21
-3.50055
0
LINE
8
BLACK
6
CONTINUOUS
10
3.05787
20
-3.50055
11
3.04291
21
-3.50055
0
LINE
8
BLACK
6
CONTINUOUS
10
3.04291
20
-3.50055
11
3.04291
21
-3.46118
0
LINE
8
BLACK
6
CONTINUOUS
10
3.04291
20
-3.46118
11
3.05787
21
-3.46118
0
LINE
8
BLACK
6
CONTINUOUS
10
3.05787
20
-3.46118
11
3.05787
21
-3.50055
0
CIRCLE
8
BLACK
10
3.18622
20
-3.43992
40
0.00787402
0
CIRCLE
8
BLACK
10
2.7374
20
-3.43992
40
0.00787402
0
CIRCLE
8
BLACK
10
2.575
20
-3.67811
40
0.00787402
0
CIRCLE
8
BLACK
10
3.38957
20
-3.44055
40
0.00787402
0
CIRCLE
8
BLACK
10
3.04892
20
-3.54691
40
0.00787402
0
CIRCLE
8
BLACK
10
3.3
20
-3.44055
40
0.00787402
0
CIRCLE
8
BLACK
10
2.9
20
-3.60055
40
0.00787402
0
CIRCLE
8
BLACK
10
3.2
20
-3.95055
40
0.00787402
0
CIRCLE
8
BLACK
10
3.2
20
-3.99703
40
0.00787402
0
CIRCLE
8
BLACK
10
2.95
20
-3.60055
40
0.00787402
0
CIRCLE
8
BLACK
10
2.83465
20
-4.37008
40
0.00787402
0
CIRCLE
8
BLACK
10
3.04331
20
-4.08161
40
0.00787402
  0
ENDSEC
  0
EOF
