  0
SECTION
  2
HEADER
  9
$ANGBASE
  50
0.0
  9
$ANGDIR
  70
1
  9
$MEASUREMENT
  70
0
  0
ENDSEC
  0
SECTION
  2
TABLES
  0
TABLE
  2
LTYPE
  70
4
  0
LTYPE
  5
40F
  2
CONTINUOUS
  70
0
  3
Solid line
  72
65
  73
0
  40
0.0
  0
LTYPE
  5
410
  2
DASHDOT
 70
0
  3
Dash Dot ____ _ ____ _
 72
65
 73
4
 40
2.0
 49
1.25
 49
-0.25
 49
0.25
 49
-0.25
  0
LTYPE
  5
411
  2
DASHED
 70
0
  3
Dashed __ __ __ __ __
 72
65
 73
2
 40
0.75
 49
0.5
 49
-0.25
  0
LTYPE
  5
43B
  2
DOTTED
 70
0
  3
Dotted .  .  .  .
 72
65
 73
2
 40
0.2
 49
0.0
 49
-0.2
  0
ENDTAB
  0
TABLE
  2
STYLE
  70
4
  0
STYLE
  2
KICAD
  70
0
  40
0
  41
1
  42
1
  50
0
  71
0
  3
isocp.shx
  0
STYLE
  2
KICADB
  70
0
  40
0
  41
1
  42
1
  50
0
  71
0
  3
isocp.shx
  0
STYLE
  2
KICADI
  70
0
  40
0
  41
1
  42
1
  50
15
  71
0
  3
isocp.shx
  0
STYLE
  2
KICADBI
  70
0
  40
0
  41
1
  42
1
  50
15
  71
0
  3
isocp.shx
  0
ENDTAB
  0
TABLE
  2
LAYER
  70
1
  0
LAYER
  2
BLACK
  70
0
  62
7
  6
CONTINUOUS
  0
ENDTAB
  0
ENDSEC
  0
SECTION
  2
ENTITIES
0
LINE
8
BLACK
6
CONTINUOUS
10
2.76496
20
-3.39957
11
2.76891
21
-3.40019
0
LINE
8
BLACK
6
CONTINUOUS
10
2.76891
20
-3.40019
11
2.77248
21
-3.40201
0
LINE
8
BLACK
6
CONTINUOUS
10
2.77248
20
-3.40201
11
2.77531
21
-3.40484
0
LINE
8
BLACK
6
CONTINUOUS
10
2.77531
20
-3.40484
11
2.77713
21
-3.40841
0
LINE
8
BLACK
6
CONTINUOUS
10
2.77713
20
-3.40841
11
2.77776
21
-3.41236
0
LINE
8
BLACK
6
CONTINUOUS
10
2.77776
20
-3.41236
11
2.77776
21
-3.46748
0
LINE
8
BLACK
6
CONTINUOUS
10
2.77776
20
-3.46748
11
2.77776
21
-3.4692
0
LINE
8
BLACK
6
CONTINUOUS
10
2.77776
20
-3.4692
11
2.77882
21
-3.47246
0
LINE
8
BLACK
6
CONTINUOUS
10
2.77882
20
-3.47246
11
2.78083
21
-3.47523
0
LINE
8
BLACK
6
CONTINUOUS
10
2.78083
20
-3.47523
11
2.78361
21
-3.47725
0
LINE
8
BLACK
6
CONTINUOUS
10
2.78361
20
-3.47725
11
2.78687
21
-3.47831
0
LINE
8
BLACK
6
CONTINUOUS
10
2.78687
20
-3.47831
11
2.78858
21
-3.47831
0
LINE
8
BLACK
6
CONTINUOUS
10
2.78858
20
-3.47831
11
2.79252
21
-3.47831
0
LINE
8
BLACK
6
CONTINUOUS
10
2.79252
20
-3.47831
11
2.82992
21
-3.47831
0
LINE
8
BLACK
6
CONTINUOUS
10
2.82992
20
-3.47831
11
2.83164
21
-3.47831
0
LINE
8
BLACK
6
CONTINUOUS
10
2.83164
20
-3.47831
11
2.8349
21
-3.47725
0
LINE
8
BLACK
6
CONTINUOUS
10
2.8349
20
-3.47725
11
2.83767
21
-3.47523
0
LINE
8
BLACK
6
CONTINUOUS
10
2.83767
20
-3.47523
11
2.83969
21
-3.47246
0
LINE
8
BLACK
6
CONTINUOUS
10
2.83969
20
-3.47246
11
2.84075
21
-3.4692
0
LINE
8
BLACK
6
CONTINUOUS
10
2.84075
20
-3.4692
11
2.84075
21
-3.46748
0
LINE
8
BLACK
6
CONTINUOUS
10
2.84075
20
-3.46748
11
2.84075
21
-3.45331
0
LINE
8
BLACK
6
CONTINUOUS
10
2.84075
20
-3.45331
11
2.84137
21
-3.44935
0
LINE
8
BLACK
6
CONTINUOUS
10
2.84137
20
-3.44935
11
2.84319
21
-3.44579
0
LINE
8
BLACK
6
CONTINUOUS
10
2.84319
20
-3.44579
11
2.84602
21
-3.44296
0
LINE
8
BLACK
6
CONTINUOUS
10
2.84602
20
-3.44296
11
2.84959
21
-3.44114
0
LINE
8
BLACK
6
CONTINUOUS
10
2.84959
20
-3.44114
11
2.85354
21
-3.44051
0
LINE
8
BLACK
6
CONTINUOUS
10
2.85354
20
-3.44051
11
3.07008
21
-3.44051
0
LINE
8
BLACK
6
CONTINUOUS
10
3.07008
20
-3.44051
11
3.07403
21
-3.44114
0
LINE
8
BLACK
6
CONTINUOUS
10
3.07403
20
-3.44114
11
3.0776
21
-3.44296
0
LINE
8
BLACK
6
CONTINUOUS
10
3.0776
20
-3.44296
11
3.08043
21
-3.44579
0
LINE
8
BLACK
6
CONTINUOUS
10
3.08043
20
-3.44579
11
3.08225
21
-3.44935
0
LINE
8
BLACK
6
CONTINUOUS
10
3.08225
20
-3.44935
11
3.08287
21
-3.45331
0
LINE
8
BLACK
6
CONTINUOUS
10
3.08287
20
-3.45331
11
3.08287
21
-3.46748
0
LINE
8
BLACK
6
CONTINUOUS
10
3.08287
20
-3.46748
11
3.08287
21
-3.4692
0
LINE
8
BLACK
6
CONTINUOUS
10
3.08287
20
-3.4692
11
3.08393
21
-3.47246
0
LINE
8
BLACK
6
CONTINUOUS
10
3.08393
20
-3.47246
11
3.08595
21
-3.47523
0
LINE
8
BLACK
6
CONTINUOUS
10
3.08595
20
-3.47523
11
3.08872
21
-3.47725
0
LINE
8
BLACK
6
CONTINUOUS
10
3.08872
20
-3.47725
11
3.09199
21
-3.47831
0
LINE
8
BLACK
6
CONTINUOUS
10
3.09199
20
-3.47831
11
3.0937
21
-3.47831
0
LINE
8
BLACK
6
CONTINUOUS
10
3.0937
20
-3.47831
11
3.1311
21
-3.47831
0
LINE
8
BLACK
6
CONTINUOUS
10
3.1311
20
-3.47831
11
3.13504
21
-3.47831
0
LINE
8
BLACK
6
CONTINUOUS
10
3.13504
20
-3.47831
11
3.13675
21
-3.47831
0
LINE
8
BLACK
6
CONTINUOUS
10
3.13675
20
-3.47831
11
3.14002
21
-3.47725
0
LINE
8
BLACK
6
CONTINUOUS
10
3.14002
20
-3.47725
11
3.14279
21
-3.47523
0
LINE
8
BLACK
6
CONTINUOUS
10
3.14279
20
-3.47523
11
3.14481
21
-3.47246
0
LINE
8
BLACK
6
CONTINUOUS
10
3.14481
20
-3.47246
11
3.14587
21
-3.4692
0
LINE
8
BLACK
6
CONTINUOUS
10
3.14587
20
-3.4692
11
3.14587
21
-3.46748
0
LINE
8
BLACK
6
CONTINUOUS
10
3.14587
20
-3.46748
11
3.14587
21
-3.41236
0
LINE
8
BLACK
6
CONTINUOUS
10
3.14587
20
-3.41236
11
3.14649
21
-3.40841
0
LINE
8
BLACK
6
CONTINUOUS
10
3.14649
20
-3.40841
11
3.14831
21
-3.40484
0
LINE
8
BLACK
6
CONTINUOUS
10
3.14831
20
-3.40484
11
3.15114
21
-3.40201
0
LINE
8
BLACK
6
CONTINUOUS
10
3.15114
20
-3.40201
11
3.15471
21
-3.40019
0
LINE
8
BLACK
6
CONTINUOUS
10
3.15471
20
-3.40019
11
3.15866
21
-3.39957
0
LINE
8
BLACK
6
CONTINUOUS
10
3.15866
20
-3.39957
11
3.42244
21
-3.39957
0
LINE
8
BLACK
6
CONTINUOUS
10
3.42244
20
-3.39957
11
3.42639
21
-3.40019
0
LINE
8
BLACK
6
CONTINUOUS
10
3.42639
20
-3.40019
11
3.42996
21
-3.40201
0
LINE
8
BLACK
6
CONTINUOUS
10
3.42996
20
-3.40201
11
3.43279
21
-3.40484
0
LINE
8
BLACK
6
CONTINUOUS
10
3.43279
20
-3.40484
11
3.43461
21
-3.40841
0
LINE
8
BLACK
6
CONTINUOUS
10
3.43461
20
-3.40841
11
3.43524
21
-3.41236
0
LINE
8
BLACK
6
CONTINUOUS
10
3.43524
20
-3.41236
11
3.43524
21
-3.52654
0
LINE
8
BLACK
6
CONTINUOUS
10
3.43524
20
-3.52654
11
3.43524
21
-3.52654
0
LINE
8
BLACK
6
CONTINUOUS
10
3.43524
20
-3.52654
11
3.43524
21
-3.52825
0
LINE
8
BLACK
6
CONTINUOUS
10
3.43524
20
-3.52825
11
3.4363
21
-3.53151
0
LINE
8
BLACK
6
CONTINUOUS
10
3.4363
20
-3.53151
11
3.43831
21
-3.53429
0
LINE
8
BLACK
6
CONTINUOUS
10
3.43831
20
-3.53429
11
3.44109
21
-3.5363
0
LINE
8
BLACK
6
CONTINUOUS
10
3.44109
20
-3.5363
11
3.44435
21
-3.53736
0
LINE
8
BLACK
6
CONTINUOUS
10
3.44435
20
-3.53736
11
3.44606
21
-3.53736
0
LINE
8
BLACK
6
CONTINUOUS
10
3.44606
20
-3.53736
11
3.46181
21
-3.53736
0
LINE
8
BLACK
6
CONTINUOUS
10
3.46181
20
-3.53736
11
3.46576
21
-3.53799
0
LINE
8
BLACK
6
CONTINUOUS
10
3.46576
20
-3.53799
11
3.46933
21
-3.53981
0
LINE
8
BLACK
6
CONTINUOUS
10
3.46933
20
-3.53981
11
3.47216
21
-3.54264
0
LINE
8
BLACK
6
CONTINUOUS
10
3.47216
20
-3.54264
11
3.47398
21
-3.5462
0
LINE
8
BLACK
6
CONTINUOUS
10
3.47398
20
-3.5462
11
3.47461
21
-3.55016
0
LINE
8
BLACK
6
CONTINUOUS
10
3.47461
20
-3.55016
11
3.47461
21
-4.56984
0
LINE
8
BLACK
6
CONTINUOUS
10
3.47461
20
-4.56984
11
3.47398
21
-4.5738
0
LINE
8
BLACK
6
CONTINUOUS
10
3.47398
20
-4.5738
11
3.47216
21
-4.57736
0
LINE
8
BLACK
6
CONTINUOUS
10
3.47216
20
-4.57736
11
3.46933
21
-4.58019
0
LINE
8
BLACK
6
CONTINUOUS
10
3.46933
20
-4.58019
11
3.46576
21
-4.58201
0
LINE
8
BLACK
6
CONTINUOUS
10
3.46576
20
-4.58201
11
3.46181
21
-4.58264
0
LINE
8
BLACK
6
CONTINUOUS
10
3.46181
20
-4.58264
11
2.46181
21
-4.58264
0
LINE
8
BLACK
6
CONTINUOUS
10
2.46181
20
-4.58264
11
2.45786
21
-4.58201
0
LINE
8
BLACK
6
CONTINUOUS
10
2.45786
20
-4.58201
11
2.45429
21
-4.58019
0
LINE
8
BLACK
6
CONTINUOUS
10
2.45429
20
-4.58019
11
2.45146
21
-4.57736
0
LINE
8
BLACK
6
CONTINUOUS
10
2.45146
20
-4.57736
11
2.44964
21
-4.5738
0
LINE
8
BLACK
6
CONTINUOUS
10
2.44964
20
-4.5738
11
2.44902
21
-4.56984
0
LINE
8
BLACK
6
CONTINUOUS
10
2.44902
20
-4.56984
11
2.44902
21
-3.55016
0
LINE
8
BLACK
6
CONTINUOUS
10
2.44902
20
-3.55016
11
2.44964
21
-3.5462
0
LINE
8
BLACK
6
CONTINUOUS
10
2.44964
20
-3.5462
11
2.45146
21
-3.54264
0
LINE
8
BLACK
6
CONTINUOUS
10
2.45146
20
-3.54264
11
2.45429
21
-3.53981
0
LINE
8
BLACK
6
CONTINUOUS
10
2.45429
20
-3.53981
11
2.45786
21
-3.53799
0
LINE
8
BLACK
6
CONTINUOUS
10
2.45786
20
-3.53799
11
2.46181
21
-3.53736
0
LINE
8
BLACK
6
CONTINUOUS
10
2.46181
20
-3.53736
11
2.47756
21
-3.53736
0
LINE
8
BLACK
6
CONTINUOUS
10
2.47756
20
-3.53736
11
2.47927
21
-3.53736
0
LINE
8
BLACK
6
CONTINUOUS
10
2.47927
20
-3.53736
11
2.48254
21
-3.5363
0
LINE
8
BLACK
6
CONTINUOUS
10
2.48254
20
-3.5363
11
2.48531
21
-3.53429
0
LINE
8
BLACK
6
CONTINUOUS
10
2.48531
20
-3.53429
11
2.48733
21
-3.53151
0
LINE
8
BLACK
6
CONTINUOUS
10
2.48733
20
-3.53151
11
2.48839
21
-3.52825
0
LINE
8
BLACK
6
CONTINUOUS
10
2.48839
20
-3.52825
11
2.48839
21
-3.52654
0
LINE
8
BLACK
6
CONTINUOUS
10
2.48839
20
-3.52654
11
2.48839
21
-3.52654
0
LINE
8
BLACK
6
CONTINUOUS
10
2.48839
20
-3.52654
11
2.48839
21
-3.41236
0
LINE
8
BLACK
6
CONTINUOUS
10
2.48839
20
-3.41236
11
2.48901
21
-3.40841
0
LINE
8
BLACK
6
CONTINUOUS
10
2.48901
20
-3.40841
11
2.49083
21
-3.40484
0
LINE
8
BLACK
6
CONTINUOUS
10
2.49083
20
-3.40484
11
2.49366
21
-3.40201
0
LINE
8
BLACK
6
CONTINUOUS
10
2.49366
20
-3.40201
11
2.49723
21
-3.40019
0
LINE
8
BLACK
6
CONTINUOUS
10
2.49723
20
-3.40019
11
2.50118
21
-3.39957
0
LINE
8
BLACK
6
CONTINUOUS
10
2.50118
20
-3.39957
11
2.76496
21
-3.39957
0
LINE
8
BLACK
6
CONTINUOUS
10
2.50118
20
-3.40154
11
2.49947
21
-3.40154
0
LINE
8
BLACK
6
CONTINUOUS
10
2.49947
20
-3.40154
11
2.4962
21
-3.4026
0
LINE
8
BLACK
6
CONTINUOUS
10
2.4962
20
-3.4026
11
2.49343
21
-3.40461
0
LINE
8
BLACK
6
CONTINUOUS
10
2.49343
20
-3.40461
11
2.49141
21
-3.40739
0
LINE
8
BLACK
6
CONTINUOUS
10
2.49141
20
-3.40739
11
2.49035
21
-3.41065
0
LINE
8
BLACK
6
CONTINUOUS
10
2.49035
20
-3.41065
11
2.49035
21
-3.41236
0
LINE
8
BLACK
6
CONTINUOUS
10
2.49035
20
-3.41236
11
2.49035
21
-3.52654
0
LINE
8
BLACK
6
CONTINUOUS
10
2.49035
20
-3.52654
11
2.49035
21
-3.52654
0
LINE
8
BLACK
6
CONTINUOUS
10
2.49035
20
-3.52654
11
2.48973
21
-3.53049
0
LINE
8
BLACK
6
CONTINUOUS
10
2.48973
20
-3.53049
11
2.48791
21
-3.53406
0
LINE
8
BLACK
6
CONTINUOUS
10
2.48791
20
-3.53406
11
2.48508
21
-3.53689
0
LINE
8
BLACK
6
CONTINUOUS
10
2.48508
20
-3.53689
11
2.48151
21
-3.5387
0
LINE
8
BLACK
6
CONTINUOUS
10
2.48151
20
-3.5387
11
2.47756
21
-3.53933
0
LINE
8
BLACK
6
CONTINUOUS
10
2.47756
20
-3.53933
11
2.46181
21
-3.53933
0
LINE
8
BLACK
6
CONTINUOUS
10
2.46181
20
-3.53933
11
2.4601
21
-3.53933
0
LINE
8
BLACK
6
CONTINUOUS
10
2.4601
20
-3.53933
11
2.45683
21
-3.54039
0
LINE
8
BLACK
6
CONTINUOUS
10
2.45683
20
-3.54039
11
2.45406
21
-3.54241
0
LINE
8
BLACK
6
CONTINUOUS
10
2.45406
20
-3.54241
11
2.45204
21
-3.54518
0
LINE
8
BLACK
6
CONTINUOUS
10
2.45204
20
-3.54518
11
2.45098
21
-3.54844
0
LINE
8
BLACK
6
CONTINUOUS
10
2.45098
20
-3.54844
11
2.45098
21
-3.55016
0
LINE
8
BLACK
6
CONTINUOUS
10
2.45098
20
-3.55016
11
2.45098
21
-4.56984
0
LINE
8
BLACK
6
CONTINUOUS
10
2.45098
20
-4.56984
11
2.45098
21
-4.57156
0
LINE
8
BLACK
6
CONTINUOUS
10
2.45098
20
-4.57156
11
2.45204
21
-4.57482
0
LINE
8
BLACK
6
CONTINUOUS
10
2.45204
20
-4.57482
11
2.45406
21
-4.57759
0
LINE
8
BLACK
6
CONTINUOUS
10
2.45406
20
-4.57759
11
2.45683
21
-4.57961
0
LINE
8
BLACK
6
CONTINUOUS
10
2.45683
20
-4.57961
11
2.4601
21
-4.58067
0
LINE
8
BLACK
6
CONTINUOUS
10
2.4601
20
-4.58067
11
2.46181
21
-4.58067
0
LINE
8
BLACK
6
CONTINUOUS
10
2.46181
20
-4.58067
11
3.46181
21
-4.58067
0
LINE
8
BLACK
6
CONTINUOUS
10
3.46181
20
-4.58067
11
3.46353
21
-4.58067
0
LINE
8
BLACK
6
CONTINUOUS
10
3.46353
20
-4.58067
11
3.46679
21
-4.57961
0
LINE
8
BLACK
6
CONTINUOUS
10
3.46679
20
-4.57961
11
3.46956
21
-4.57759
0
LINE
8
BLACK
6
CONTINUOUS
10
3.46956
20
-4.57759
11
3.47158
21
-4.57482
0
LINE
8
BLACK
6
CONTINUOUS
10
3.47158
20
-4.57482
11
3.47264
21
-4.57156
0
LINE
8
BLACK
6
CONTINUOUS
10
3.47264
20
-4.57156
11
3.47264
21
-4.56984
0
LINE
8
BLACK
6
CONTINUOUS
10
3.47264
20
-4.56984
11
3.47264
21
-3.55016
0
LINE
8
BLACK
6
CONTINUOUS
10
3.47264
20
-3.55016
11
3.47264
21
-3.54844
0
LINE
8
BLACK
6
CONTINUOUS
10
3.47264
20
-3.54844
11
3.47158
21
-3.54518
0
LINE
8
BLACK
6
CONTINUOUS
10
3.47158
20
-3.54518
11
3.46956
21
-3.54241
0
LINE
8
BLACK
6
CONTINUOUS
10
3.46956
20
-3.54241
11
3.46679
21
-3.54039
0
LINE
8
BLACK
6
CONTINUOUS
10
3.46679
20
-3.54039
11
3.46353
21
-3.53933
0
LINE
8
BLACK
6
CONTINUOUS
10
3.46353
20
-3.53933
11
3.46181
21
-3.53933
0
LINE
8
BLACK
6
CONTINUOUS
10
3.46181
20
-3.53933
11
3.44606
21
-3.53933
0
LINE
8
BLACK
6
CONTINUOUS
10
3.44606
20
-3.53933
11
3.44211
21
-3.5387
0
LINE
8
BLACK
6
CONTINUOUS
10
3.44211
20
-3.5387
11
3.43854
21
-3.53689
0
LINE
8
BLACK
6
CONTINUOUS
10
3.43854
20
-3.53689
11
3.43571
21
-3.53406
0
LINE
8
BLACK
6
CONTINUOUS
10
3.43571
20
-3.53406
11
3.43389
21
-3.53049
0
LINE
8
BLACK
6
CONTINUOUS
10
3.43389
20
-3.53049
11
3.43327
21
-3.52654
0
LINE
8
BLACK
6
CONTINUOUS
10
3.43327
20
-3.52654
11
3.43327
21
-3.52654
0
LINE
8
BLACK
6
CONTINUOUS
10
3.43327
20
-3.52654
11
3.43327
21
-3.41236
0
LINE
8
BLACK
6
CONTINUOUS
10
3.43327
20
-3.41236
11
3.43327
21
-3.41065
0
LINE
8
BLACK
6
CONTINUOUS
10
3.43327
20
-3.41065
11
3.43221
21
-3.40739
0
LINE
8
BLACK
6
CONTINUOUS
10
3.43221
20
-3.40739
11
3.43019
21
-3.40461
0
LINE
8
BLACK
6
CONTINUOUS
10
3.43019
20
-3.40461
11
3.42742
21
-3.4026
0
LINE
8
BLACK
6
CONTINUOUS
10
3.42742
20
-3.4026
11
3.42416
21
-3.40154
0
LINE
8
BLACK
6
CONTINUOUS
10
3.42416
20
-3.40154
11
3.42244
21
-3.40154
0
LINE
8
BLACK
6
CONTINUOUS
10
3.42244
20
-3.40154
11
3.15866
21
-3.40154
0
LINE
8
BLACK
6
CONTINUOUS
10
3.15866
20
-3.40154
11
3.15695
21
-3.40154
0
LINE
8
BLACK
6
CONTINUOUS
10
3.15695
20
-3.40154
11
3.15368
21
-3.4026
0
LINE
8
BLACK
6
CONTINUOUS
10
3.15368
20
-3.4026
11
3.15091
21
-3.40461
0
LINE
8
BLACK
6
CONTINUOUS
10
3.15091
20
-3.40461
11
3.14889
21
-3.40739
0
LINE
8
BLACK
6
CONTINUOUS
10
3.14889
20
-3.40739
11
3.14783
21
-3.41065
0
LINE
8
BLACK
6
CONTINUOUS
10
3.14783
20
-3.41065
11
3.14783
21
-3.41236
0
LINE
8
BLACK
6
CONTINUOUS
10
3.14783
20
-3.41236
11
3.14783
21
-3.46748
0
LINE
8
BLACK
6
CONTINUOUS
10
3.14783
20
-3.46748
11
3.14721
21
-3.47143
0
LINE
8
BLACK
6
CONTINUOUS
10
3.14721
20
-3.47143
11
3.14539
21
-3.475
0
LINE
8
BLACK
6
CONTINUOUS
10
3.14539
20
-3.475
11
3.14256
21
-3.47783
0
LINE
8
BLACK
6
CONTINUOUS
10
3.14256
20
-3.47783
11
3.13899
21
-3.47965
0
LINE
8
BLACK
6
CONTINUOUS
10
3.13899
20
-3.47965
11
3.13504
21
-3.48028
0
LINE
8
BLACK
6
CONTINUOUS
10
3.13504
20
-3.48028
11
3.1311
21
-3.48028
0
LINE
8
BLACK
6
CONTINUOUS
10
3.1311
20
-3.48028
11
3.0937
21
-3.48028
0
LINE
8
BLACK
6
CONTINUOUS
10
3.0937
20
-3.48028
11
3.08975
21
-3.47965
0
LINE
8
BLACK
6
CONTINUOUS
10
3.08975
20
-3.47965
11
3.08618
21
-3.47783
0
LINE
8
BLACK
6
CONTINUOUS
10
3.08618
20
-3.47783
11
3.08335
21
-3.475
0
LINE
8
BLACK
6
CONTINUOUS
10
3.08335
20
-3.475
11
3.08153
21
-3.47143
0
LINE
8
BLACK
6
CONTINUOUS
10
3.08153
20
-3.47143
11
3.08091
21
-3.46748
0
LINE
8
BLACK
6
CONTINUOUS
10
3.08091
20
-3.46748
11
3.08091
21
-3.45331
0
LINE
8
BLACK
6
CONTINUOUS
10
3.08091
20
-3.45331
11
3.08091
21
-3.45159
0
LINE
8
BLACK
6
CONTINUOUS
10
3.08091
20
-3.45159
11
3.07985
21
-3.44833
0
LINE
8
BLACK
6
CONTINUOUS
10
3.07985
20
-3.44833
11
3.07783
21
-3.44556
0
LINE
8
BLACK
6
CONTINUOUS
10
3.07783
20
-3.44556
11
3.07506
21
-3.44354
0
LINE
8
BLACK
6
CONTINUOUS
10
3.07506
20
-3.44354
11
3.07179
21
-3.44248
0
LINE
8
BLACK
6
CONTINUOUS
10
3.07179
20
-3.44248
11
3.07008
21
-3.44248
0
LINE
8
BLACK
6
CONTINUOUS
10
3.07008
20
-3.44248
11
2.85354
21
-3.44248
0
LINE
8
BLACK
6
CONTINUOUS
10
2.85354
20
-3.44248
11
2.85183
21
-3.44248
0
LINE
8
BLACK
6
CONTINUOUS
10
2.85183
20
-3.44248
11
2.84857
21
-3.44354
0
LINE
8
BLACK
6
CONTINUOUS
10
2.84857
20
-3.44354
11
2.84579
21
-3.44556
0
LINE
8
BLACK
6
CONTINUOUS
10
2.84579
20
-3.44556
11
2.84378
21
-3.44833
0
LINE
8
BLACK
6
CONTINUOUS
10
2.84378
20
-3.44833
11
2.84272
21
-3.45159
0
LINE
8
BLACK
6
CONTINUOUS
10
2.84272
20
-3.45159
11
2.84272
21
-3.45331
0
LINE
8
BLACK
6
CONTINUOUS
10
2.84272
20
-3.45331
11
2.84272
21
-3.46748
0
LINE
8
BLACK
6
CONTINUOUS
10
2.84272
20
-3.46748
11
2.84209
21
-3.47143
0
LINE
8
BLACK
6
CONTINUOUS
10
2.84209
20
-3.47143
11
2.84027
21
-3.475
0
LINE
8
BLACK
6
CONTINUOUS
10
2.84027
20
-3.475
11
2.83744
21
-3.47783
0
LINE
8
BLACK
6
CONTINUOUS
10
2.83744
20
-3.47783
11
2.83388
21
-3.47965
0
LINE
8
BLACK
6
CONTINUOUS
10
2.83388
20
-3.47965
11
2.82992
21
-3.48028
0
LINE
8
BLACK
6
CONTINUOUS
10
2.82992
20
-3.48028
11
2.79252
21
-3.48028
0
LINE
8
BLACK
6
CONTINUOUS
10
2.79252
20
-3.48028
11
2.78858
21
-3.48028
0
LINE
8
BLACK
6
CONTINUOUS
10
2.78858
20
-3.48028
11
2.78463
21
-3.47965
0
LINE
8
BLACK
6
CONTINUOUS
10
2.78463
20
-3.47965
11
2.78106
21
-3.47783
0
LINE
8
BLACK
6
CONTINUOUS
10
2.78106
20
-3.47783
11
2.77823
21
-3.475
0
LINE
8
BLACK
6
CONTINUOUS
10
2.77823
20
-3.475
11
2.77641
21
-3.47143
0
LINE
8
BLACK
6
CONTINUOUS
10
2.77641
20
-3.47143
11
2.77579
21
-3.46748
0
LINE
8
BLACK
6
CONTINUOUS
10
2.77579
20
-3.46748
11
2.77579
21
-3.41236
0
LINE
8
BLACK
6
CONTINUOUS
10
2.77579
20
-3.41236
11
2.77579
21
-3.41065
0
LINE
8
BLACK
6
CONTINUOUS
10
2.77579
20
-3.41065
11
2.77473
21
-3.40739
0
LINE
8
BLACK
6
CONTINUOUS
10
2.77473
20
-3.40739
11
2.77271
21
-3.40461
0
LINE
8
BLACK
6
CONTINUOUS
10
2.77271
20
-3.40461
11
2.76994
21
-3.4026
0
LINE
8
BLACK
6
CONTINUOUS
10
2.76994
20
-3.4026
11
2.76668
21
-3.40154
0
LINE
8
BLACK
6
CONTINUOUS
10
2.76668
20
-3.40154
11
2.76496
21
-3.40154
0
LINE
8
BLACK
6
CONTINUOUS
10
2.76496
20
-3.40154
11
2.50118
21
-3.40154
  0
ENDSEC
  0
EOF
