%TF.GenerationSoftware,KiCad,Pcbnew,7.0.8*%
%TF.CreationDate,2023-10-29T23:41:36-05:00*%
%TF.ProjectId,CAN,43414e2e-6b69-4636-9164-5f7063625858,X1*%
%TF.SameCoordinates,Original*%
%TF.FileFunction,Copper,L1,Top*%
%TF.FilePolarity,Positive*%
%FSLAX46Y46*%
G04 Gerber Fmt 4.6, Leading zero omitted, Abs format (unit mm)*
G04 Created by KiCad (PCBNEW 7.0.8) date 2023-10-29 23:41:36*
%MOMM*%
%LPD*%
G01*
G04 APERTURE LIST*
G04 Aperture macros list*
%AMRoundRect*
0 Rectangle with rounded corners*
0 $1 Rounding radius*
0 $2 $3 $4 $5 $6 $7 $8 $9 X,Y pos of 4 corners*
0 Add a 4 corners polygon primitive as box body*
4,1,4,$2,$3,$4,$5,$6,$7,$8,$9,$2,$3,0*
0 Add four circle primitives for the rounded corners*
1,1,$1+$1,$2,$3*
1,1,$1+$1,$4,$5*
1,1,$1+$1,$6,$7*
1,1,$1+$1,$8,$9*
0 Add four rect primitives between the rounded corners*
20,1,$1+$1,$2,$3,$4,$5,0*
20,1,$1+$1,$4,$5,$6,$7,0*
20,1,$1+$1,$6,$7,$8,$9,0*
20,1,$1+$1,$8,$9,$2,$3,0*%
%AMFreePoly0*
4,1,6,0.725000,-0.725000,-0.725000,-0.725000,-0.725000,0.125000,-0.125000,0.725000,0.725000,0.725000,0.725000,-0.725000,0.725000,-0.725000,$1*%
G04 Aperture macros list end*
%TA.AperFunction,SMDPad,CuDef*%
%ADD10RoundRect,0.150000X0.150000X-0.662500X0.150000X0.662500X-0.150000X0.662500X-0.150000X-0.662500X0*%
%TD*%
%TA.AperFunction,SMDPad,CuDef*%
%ADD11R,0.700000X1.150000*%
%TD*%
%TA.AperFunction,SMDPad,CuDef*%
%ADD12R,0.380000X1.000000*%
%TD*%
%TA.AperFunction,SMDPad,CuDef*%
%ADD13R,1.500000X1.500000*%
%TD*%
%TA.AperFunction,SMDPad,CuDef*%
%ADD14RoundRect,0.250000X-0.337500X-0.475000X0.337500X-0.475000X0.337500X0.475000X-0.337500X0.475000X0*%
%TD*%
%TA.AperFunction,SMDPad,CuDef*%
%ADD15RoundRect,0.250000X-0.450000X0.350000X-0.450000X-0.350000X0.450000X-0.350000X0.450000X0.350000X0*%
%TD*%
%TA.AperFunction,SMDPad,CuDef*%
%ADD16R,0.900000X1.700000*%
%TD*%
%TA.AperFunction,SMDPad,CuDef*%
%ADD17RoundRect,0.250000X0.450000X-0.325000X0.450000X0.325000X-0.450000X0.325000X-0.450000X-0.325000X0*%
%TD*%
%TA.AperFunction,ComponentPad*%
%ADD18R,1.700000X1.700000*%
%TD*%
%TA.AperFunction,ComponentPad*%
%ADD19O,1.700000X1.700000*%
%TD*%
%TA.AperFunction,SMDPad,CuDef*%
%ADD20RoundRect,0.250000X0.337500X0.475000X-0.337500X0.475000X-0.337500X-0.475000X0.337500X-0.475000X0*%
%TD*%
%TA.AperFunction,SMDPad,CuDef*%
%ADD21RoundRect,0.150000X-0.512500X-0.150000X0.512500X-0.150000X0.512500X0.150000X-0.512500X0.150000X0*%
%TD*%
%TA.AperFunction,SMDPad,CuDef*%
%ADD22R,0.800000X0.400000*%
%TD*%
%TA.AperFunction,SMDPad,CuDef*%
%ADD23R,0.400000X0.800000*%
%TD*%
%TA.AperFunction,SMDPad,CuDef*%
%ADD24FreePoly0,0.000000*%
%TD*%
%TA.AperFunction,SMDPad,CuDef*%
%ADD25R,1.450000X1.450000*%
%TD*%
%TA.AperFunction,SMDPad,CuDef*%
%ADD26R,0.700000X0.700000*%
%TD*%
%TA.AperFunction,SMDPad,CuDef*%
%ADD27RoundRect,0.150000X-0.150000X0.825000X-0.150000X-0.825000X0.150000X-0.825000X0.150000X0.825000X0*%
%TD*%
%TA.AperFunction,SMDPad,CuDef*%
%ADD28RoundRect,0.250000X0.475000X-0.337500X0.475000X0.337500X-0.475000X0.337500X-0.475000X-0.337500X0*%
%TD*%
%TA.AperFunction,SMDPad,CuDef*%
%ADD29RoundRect,0.250000X-0.350000X-0.450000X0.350000X-0.450000X0.350000X0.450000X-0.350000X0.450000X0*%
%TD*%
%TA.AperFunction,ViaPad*%
%ADD30C,0.800000*%
%TD*%
%TA.AperFunction,Conductor*%
%ADD31C,0.250000*%
%TD*%
%TA.AperFunction,Conductor*%
%ADD32C,0.125000*%
%TD*%
G04 APERTURE END LIST*
D10*
%TO.P,U5,4*%
%TO.N,/TERM*%
X66929000Y-108826500D03*
%TO.P,U5,3*%
%TO.N,GND*%
X68199000Y-108826500D03*
%TO.P,U5,2*%
%TO.N,Net-(R7-Pad2)*%
X68199000Y-115201500D03*
%TO.P,U5,1*%
%TO.N,CAN_H*%
X66929000Y-115201500D03*
%TD*%
D11*
%TO.P,P1,S1,SHIELD*%
%TO.N,GND*%
X71810000Y-89254000D03*
D12*
%TO.P,P1,A12,GND*%
X77980000Y-88414000D03*
%TO.P,P1,A11*%
%TO.N,N/C*%
X77480000Y-88414000D03*
%TO.P,P1,A10*%
X76980000Y-88414000D03*
%TO.P,P1,A9,VBUS*%
%TO.N,Net-(D1-A)*%
X76480000Y-88414000D03*
%TO.P,P1,A8*%
%TO.N,N/C*%
X75980000Y-88414000D03*
%TO.P,P1,A7,D-*%
%TO.N,/D-*%
X75480000Y-88414000D03*
%TO.P,P1,A6,D+*%
%TO.N,/D+*%
X74980000Y-88414000D03*
%TO.P,P1,A5,CC*%
%TO.N,Net-(P1-CC)*%
X74480000Y-88414000D03*
%TO.P,P1,A4,VBUS*%
%TO.N,Net-(D1-A)*%
X73980000Y-88414000D03*
%TO.P,P1,A3*%
%TO.N,N/C*%
X73480000Y-88414000D03*
%TO.P,P1,A2*%
X72980000Y-88414000D03*
%TO.P,P1,A1,GND*%
%TO.N,GND*%
X72480000Y-88414000D03*
%TD*%
D13*
%TO.P,TP1,1,1*%
%TO.N,GND*%
X69530000Y-87374000D03*
%TD*%
%TO.P,TP2,1,1*%
%TO.N,GND*%
X80930000Y-87374000D03*
%TD*%
D14*
%TO.P,C3,1*%
%TO.N,+3.3V*%
X85195500Y-93472000D03*
%TO.P,C3,2*%
%TO.N,GND*%
X87270500Y-93472000D03*
%TD*%
D15*
%TO.P,R5,2*%
%TO.N,Net-(D2-A)*%
X63246000Y-111347000D03*
%TO.P,R5,1*%
%TO.N,VBUS*%
X63246000Y-109347000D03*
%TD*%
D14*
%TO.P,C2,1*%
%TO.N,VBUS*%
X85195500Y-91440000D03*
%TO.P,C2,2*%
%TO.N,GND*%
X87270500Y-91440000D03*
%TD*%
D15*
%TO.P,R2,1*%
%TO.N,Net-(P1-CC)*%
X64516000Y-87900000D03*
%TO.P,R2,2*%
%TO.N,GND*%
X64516000Y-89900000D03*
%TD*%
%TO.P,R1,1*%
%TO.N,+3.3V*%
X85090000Y-99584000D03*
%TO.P,R1,2*%
%TO.N,/EN*%
X85090000Y-101584000D03*
%TD*%
D14*
%TO.P,C4,1*%
%TO.N,+3.3V*%
X85170100Y-95504000D03*
%TO.P,C4,2*%
%TO.N,GND*%
X87245100Y-95504000D03*
%TD*%
D16*
%TO.P,SW1,1,1*%
%TO.N,GND*%
X87552000Y-114808000D03*
%TO.P,SW1,2,2*%
%TO.N,/EN*%
X84152000Y-114808000D03*
%TD*%
D17*
%TO.P,D1,1,K*%
%TO.N,VBUS*%
X66802000Y-89916000D03*
%TO.P,D1,2,A*%
%TO.N,Net-(D1-A)*%
X66802000Y-87866000D03*
%TD*%
D18*
%TO.P,J1,1,Pin_1*%
%TO.N,/GPIO6*%
X71354000Y-106172000D03*
D19*
%TO.P,J1,2,Pin_2*%
%TO.N,VBUS*%
X73894000Y-106172000D03*
%TO.P,J1,3,Pin_3*%
%TO.N,CAN_H*%
X76434000Y-106172000D03*
%TO.P,J1,4,Pin_4*%
%TO.N,CAN_L*%
X78974000Y-106172000D03*
%TO.P,J1,5,Pin_5*%
%TO.N,GND*%
X81514000Y-106172000D03*
%TD*%
D17*
%TO.P,D2,1,K*%
%TO.N,GND*%
X63246000Y-115189000D03*
%TO.P,D2,2,A*%
%TO.N,Net-(D2-A)*%
X63246000Y-113139000D03*
%TD*%
D15*
%TO.P,R4,1*%
%TO.N,Net-(U1-GPIO2{slash}ADC1_CH2)*%
X63500000Y-100473000D03*
%TO.P,R4,2*%
%TO.N,+3.3V*%
X63500000Y-102473000D03*
%TD*%
%TO.P,R7,1*%
%TO.N,CAN_L*%
X65532000Y-100489000D03*
%TO.P,R7,2*%
%TO.N,Net-(R7-Pad2)*%
X65532000Y-102489000D03*
%TD*%
D20*
%TO.P,C6,1*%
%TO.N,GND*%
X87245100Y-97536000D03*
%TO.P,C6,2*%
%TO.N,+3.3V*%
X85170100Y-97536000D03*
%TD*%
D21*
%TO.P,U2,1,VIN*%
%TO.N,VBUS*%
X83820000Y-87390000D03*
%TO.P,U2,2,GND*%
%TO.N,GND*%
X83820000Y-88340000D03*
%TO.P,U2,3,EN*%
%TO.N,VBUS*%
X83820000Y-89290000D03*
%TO.P,U2,4,NC*%
%TO.N,unconnected-(U2-NC-Pad4)*%
X86095000Y-89290000D03*
%TO.P,U2,5,VOUT*%
%TO.N,+3.3V*%
X86095000Y-87390000D03*
%TD*%
D22*
%TO.P,U1,1,GND*%
%TO.N,GND*%
X70630000Y-93624000D03*
%TO.P,U1,2,GND*%
X70630000Y-94424000D03*
%TO.P,U1,3,3V3*%
%TO.N,+3.3V*%
X70630000Y-95224000D03*
%TO.P,U1,4,NC*%
%TO.N,unconnected-(U1-NC-Pad4)*%
X70630000Y-96024000D03*
%TO.P,U1,5,GPIO2/ADC1_CH2*%
%TO.N,Net-(U1-GPIO2{slash}ADC1_CH2)*%
X70630000Y-96824000D03*
%TO.P,U1,6,GPIO3/ADC1_CH3*%
%TO.N,unconnected-(U1-GPIO3{slash}ADC1_CH3-Pad6)*%
X70630000Y-97624000D03*
%TO.P,U1,7,NC*%
%TO.N,unconnected-(U1-NC-Pad7)*%
X70630000Y-98424000D03*
%TO.P,U1,8,EN/CHIP_PU*%
%TO.N,/EN*%
X70630000Y-99224000D03*
%TO.P,U1,9,NC*%
%TO.N,unconnected-(U1-NC-Pad9)*%
X70630000Y-100024000D03*
%TO.P,U1,10,NC*%
%TO.N,unconnected-(U1-NC-Pad10)*%
X70630000Y-100824000D03*
%TO.P,U1,11,GND*%
%TO.N,GND*%
X70630000Y-101624000D03*
D23*
%TO.P,U1,12,GPIO0/ADC1_CH0/XTAL_32K_P*%
%TO.N,unconnected-(U1-GPIO0{slash}ADC1_CH0{slash}XTAL_32K_P-Pad12)*%
X71730000Y-102524000D03*
%TO.P,U1,13,GPIO1/ADC1_CH1/XTAL_32K_N*%
%TO.N,unconnected-(U1-GPIO1{slash}ADC1_CH1{slash}XTAL_32K_N-Pad13)*%
X72530000Y-102524000D03*
%TO.P,U1,14,GND*%
%TO.N,GND*%
X73330000Y-102524000D03*
%TO.P,U1,15,NC*%
%TO.N,unconnected-(U1-NC-Pad15)*%
X74130000Y-102524000D03*
%TO.P,U1,16,GPIO10*%
%TO.N,unconnected-(U1-GPIO10-Pad16)*%
X74930000Y-102524000D03*
%TO.P,U1,17,NC*%
%TO.N,unconnected-(U1-NC-Pad17)*%
X75730000Y-102524000D03*
%TO.P,U1,18,GPIO4/ADC1_CH4*%
%TO.N,unconnected-(U1-GPIO4{slash}ADC1_CH4-Pad18)*%
X76530000Y-102524000D03*
%TO.P,U1,19,GPIO5/ADC2_CH0*%
%TO.N,/TERM*%
X77330000Y-102524000D03*
%TO.P,U1,20,GPIO6*%
%TO.N,/GPIO6*%
X78130000Y-102524000D03*
%TO.P,U1,21,GPIO7*%
%TO.N,unconnected-(U1-GPIO7-Pad21)*%
X78930000Y-102524000D03*
%TO.P,U1,22,GPIO8*%
%TO.N,/CAN_TX*%
X79730000Y-102524000D03*
%TO.P,U1,23,GPIO9*%
%TO.N,/CAN_RX*%
X80530000Y-102524000D03*
%TO.P,U1,24,NC*%
%TO.N,unconnected-(U1-NC-Pad24)*%
X81330000Y-102524000D03*
D22*
%TO.P,U1,25,NC*%
%TO.N,unconnected-(U1-NC-Pad25)*%
X82430000Y-101624000D03*
%TO.P,U1,26,GPIO18/USB_D-*%
%TO.N,/D-*%
X82430000Y-100824000D03*
%TO.P,U1,27,GPIO19/USB_D+*%
%TO.N,/D+*%
X82430000Y-100024000D03*
%TO.P,U1,28,NC*%
%TO.N,unconnected-(U1-NC-Pad28)*%
X82430000Y-99224000D03*
%TO.P,U1,29,NC*%
%TO.N,unconnected-(U1-NC-Pad29)*%
X82430000Y-98424000D03*
%TO.P,U1,30,GPIO20/U0RXD*%
%TO.N,/RXD*%
X82430000Y-97624000D03*
%TO.P,U1,31,GPIO21/U0TXD*%
%TO.N,/TXD*%
X82430000Y-96824000D03*
%TO.P,U1,32,NC*%
%TO.N,unconnected-(U1-NC-Pad32)*%
X82430000Y-96024000D03*
%TO.P,U1,33,NC*%
%TO.N,unconnected-(U1-NC-Pad33)*%
X82430000Y-95224000D03*
%TO.P,U1,34,NC*%
%TO.N,unconnected-(U1-NC-Pad34)*%
X82430000Y-94424000D03*
%TO.P,U1,35,NC*%
%TO.N,unconnected-(U1-NC-Pad35)*%
X82430000Y-93624000D03*
D23*
%TO.P,U1,36,GND*%
%TO.N,GND*%
X81330000Y-92724000D03*
%TO.P,U1,37,GND*%
X80530000Y-92724000D03*
%TO.P,U1,38,GND*%
X79730000Y-92724000D03*
%TO.P,U1,39,GND*%
X78930000Y-92724000D03*
%TO.P,U1,40,GND*%
X78130000Y-92724000D03*
%TO.P,U1,41,GND*%
X77330000Y-92724000D03*
%TO.P,U1,42,GND*%
X76530000Y-92724000D03*
%TO.P,U1,43,GND*%
X75730000Y-92724000D03*
%TO.P,U1,44,GND*%
X74930000Y-92724000D03*
%TO.P,U1,45,GND*%
X74130000Y-92724000D03*
%TO.P,U1,46,GND*%
X73330000Y-92724000D03*
%TO.P,U1,47,GND*%
X72530000Y-92724000D03*
%TO.P,U1,48,GND*%
X71730000Y-92724000D03*
D24*
%TO.P,U1,49,GND*%
X74555000Y-95649000D03*
D25*
X74555000Y-97624000D03*
X74555000Y-99599000D03*
X76530000Y-95649000D03*
X76530000Y-97624000D03*
X76530000Y-99599000D03*
X78505000Y-95649000D03*
X78505000Y-97624000D03*
X78505000Y-99599000D03*
D26*
%TO.P,U1,50,GND*%
X82480000Y-92674000D03*
%TO.P,U1,51,GND*%
X82480000Y-102574000D03*
%TO.P,U1,52,GND*%
X70580000Y-102574000D03*
%TO.P,U1,53,GND*%
X70580000Y-92674000D03*
%TD*%
D27*
%TO.P,U3,8,Rs*%
%TO.N,Net-(U3-Rs)*%
X67945000Y-98374000D03*
%TO.P,U3,7,CANH*%
%TO.N,CAN_H*%
X66675000Y-98374000D03*
%TO.P,U3,6,CANL*%
%TO.N,CAN_L*%
X65405000Y-98374000D03*
%TO.P,U3,5,Vref*%
%TO.N,unconnected-(U3-Vref-Pad5)*%
X64135000Y-98374000D03*
%TO.P,U3,4,R*%
%TO.N,/CAN_RX*%
X64135000Y-93424000D03*
%TO.P,U3,3,VCC*%
%TO.N,+3.3V*%
X65405000Y-93424000D03*
%TO.P,U3,2,GND*%
%TO.N,GND*%
X66675000Y-93424000D03*
%TO.P,U3,1,D*%
%TO.N,/CAN_TX*%
X67945000Y-93424000D03*
%TD*%
D28*
%TO.P,C1,1*%
%TO.N,/EN*%
X87122000Y-101621500D03*
%TO.P,C1,2*%
%TO.N,GND*%
X87122000Y-99546500D03*
%TD*%
D14*
%TO.P,C5,1*%
%TO.N,GND*%
X84306500Y-112141000D03*
%TO.P,C5,2*%
%TO.N,/EN*%
X86381500Y-112141000D03*
%TD*%
D29*
%TO.P,R6,1*%
%TO.N,GND*%
X84344000Y-110109000D03*
%TO.P,R6,2*%
%TO.N,Net-(U3-Rs)*%
X86344000Y-110109000D03*
%TD*%
D30*
%TO.N,GND*%
X80930000Y-87374000D03*
X69530000Y-87374000D03*
X64516000Y-89900000D03*
X63405000Y-91948000D03*
%TO.N,VBUS*%
X66827400Y-89925000D03*
X83820000Y-87390000D03*
X63246000Y-109347000D03*
%TO.N,Net-(P1-CC)*%
X70559000Y-90043000D03*
X64516000Y-87900000D03*
%TO.N,/D+*%
X74676000Y-89592751D03*
X81280000Y-100344000D03*
%TO.N,/D-*%
X81280000Y-101524498D03*
X75692000Y-93726000D03*
X75571811Y-89674160D03*
%TO.N,Net-(P1-VCONN)*%
X76445640Y-90170000D03*
X65405000Y-91948000D03*
%TO.N,/TERM*%
X66929000Y-108826500D03*
X76703438Y-103578000D03*
%TO.N,Net-(D1-A)*%
X77724000Y-89662000D03*
X66827400Y-87875000D03*
X73147111Y-89413500D03*
%TO.N,/RXD*%
X81029072Y-97792048D03*
%TO.N,/TXD*%
X80264000Y-97282000D03*
%TO.N,CAN_H*%
X66929000Y-115201500D03*
%TO.N,+3.3V*%
X85195500Y-93472000D03*
X65405000Y-93424000D03*
X63500000Y-102473000D03*
X86095000Y-87390000D03*
X85090000Y-99584000D03*
X69342000Y-95250000D03*
%TO.N,/EN*%
X86381500Y-112141000D03*
X85090000Y-101584000D03*
X71678800Y-99263200D03*
%TO.N,Net-(U1-GPIO2{slash}ADC1_CH2)*%
X70630000Y-96824000D03*
X63500000Y-100473000D03*
%TO.N,/GPIO6*%
X77978000Y-103578000D03*
%TO.N,Net-(U3-Rs)*%
X86344000Y-110109000D03*
X67945000Y-98374000D03*
%TO.N,Net-(R7-Pad2)*%
X68199000Y-115201500D03*
X65532000Y-102489000D03*
%TD*%
D31*
%TO.N,GND*%
X82550000Y-90410752D02*
X83445624Y-91306376D01*
X83445624Y-91306376D02*
X84595248Y-92456000D01*
X82480000Y-92674000D02*
X82480000Y-92272000D01*
X82480000Y-92272000D02*
X83445624Y-91306376D01*
X81330000Y-92724000D02*
X82430000Y-92724000D01*
X82430000Y-92724000D02*
X82480000Y-92674000D01*
X80530000Y-92724000D02*
X81330000Y-92724000D01*
X79502000Y-92724000D02*
X79730000Y-92724000D01*
X78930000Y-92724000D02*
X79502000Y-92724000D01*
X79502000Y-92724000D02*
X80530000Y-92724000D01*
X78130000Y-92724000D02*
X78930000Y-92724000D01*
X77330000Y-92724000D02*
X78130000Y-92724000D01*
X76530000Y-92724000D02*
X77330000Y-92724000D01*
X76530000Y-92724000D02*
X75730000Y-92724000D01*
X74930000Y-92724000D02*
X75730000Y-92724000D01*
X74130000Y-92724000D02*
X74930000Y-92724000D01*
X73330000Y-92724000D02*
X74130000Y-92724000D01*
X72530000Y-92724000D02*
X73330000Y-92724000D01*
X71730000Y-92724000D02*
X72530000Y-92724000D01*
X70580000Y-92674000D02*
X71680000Y-92674000D01*
X71680000Y-92674000D02*
X71730000Y-92724000D01*
X70630000Y-93624000D02*
X70630000Y-92724000D01*
X70630000Y-92724000D02*
X70580000Y-92674000D01*
X70630000Y-94424000D02*
X70630000Y-93624000D01*
%TO.N,+3.3V*%
X69342000Y-95250000D02*
X69368000Y-95224000D01*
X69368000Y-95224000D02*
X70630000Y-95224000D01*
%TO.N,VBUS*%
X83820000Y-87390000D02*
X84596000Y-87390000D01*
X84596000Y-87390000D02*
X84836000Y-87630000D01*
X84836000Y-87630000D02*
X84836000Y-89018000D01*
X84836000Y-89018000D02*
X84564000Y-89290000D01*
X84564000Y-89290000D02*
X83820000Y-89290000D01*
%TO.N,GND*%
X83820000Y-88340000D02*
X83006750Y-88340000D01*
X83006750Y-88340000D02*
X82550000Y-88796750D01*
X82550000Y-88796750D02*
X82550000Y-90410752D01*
X84595248Y-92456000D02*
X86254500Y-92456000D01*
X86254500Y-92456000D02*
X87270500Y-93472000D01*
%TO.N,/GPIO6*%
X77978000Y-103578000D02*
X77978000Y-103411496D01*
X77978000Y-103411496D02*
X78130000Y-103259496D01*
X78130000Y-103259496D02*
X78130000Y-102524000D01*
D32*
%TO.N,CAN_L*%
X67056000Y-104140000D02*
X68834000Y-105918000D01*
X70739000Y-108204000D02*
X76840000Y-108204000D01*
X68834000Y-105918000D02*
X68834000Y-106299000D01*
X68834000Y-106299000D02*
X70739000Y-108204000D01*
X76840000Y-108204000D02*
X78700000Y-106344000D01*
X67056000Y-101092000D02*
X67056000Y-104140000D01*
X65532000Y-100489000D02*
X66453000Y-100489000D01*
X66453000Y-100489000D02*
X67056000Y-101092000D01*
%TO.N,CAN_H*%
X76160000Y-106344000D02*
X74464000Y-104648000D01*
X68834000Y-104648000D02*
X67818000Y-103632000D01*
X74464000Y-104648000D02*
X68834000Y-104648000D01*
X67818000Y-103632000D02*
X67818000Y-100330000D01*
X67818000Y-100330000D02*
X66675000Y-99187000D01*
X66675000Y-99187000D02*
X66675000Y-98374000D01*
%TO.N,/CAN_TX*%
X79730000Y-102524000D02*
X79730000Y-102494190D01*
X75692000Y-103632000D02*
X69596000Y-103632000D01*
X79730000Y-102494190D02*
X79197310Y-101961500D01*
X76167500Y-103156500D02*
X75692000Y-103632000D01*
X79197310Y-101961500D02*
X76262690Y-101961500D01*
X76262690Y-101961500D02*
X76167500Y-102056690D01*
X67945000Y-94869000D02*
X67945000Y-93424000D01*
X76167500Y-102056690D02*
X76167500Y-103156500D01*
X69596000Y-103632000D02*
X69342000Y-103378000D01*
X69342000Y-103378000D02*
X69342000Y-96266000D01*
X69342000Y-96266000D02*
X67945000Y-94869000D01*
%TO.N,/CAN_RX*%
X64135000Y-93424000D02*
X64135000Y-93712363D01*
X64135000Y-93712363D02*
X65084137Y-94661500D01*
X65084137Y-94661500D02*
X66707500Y-94661500D01*
X66707500Y-94661500D02*
X68580000Y-96534000D01*
X68580000Y-96534000D02*
X68580000Y-103378000D01*
X68580000Y-103378000D02*
X69342000Y-104140000D01*
X69342000Y-104140000D02*
X79719500Y-104140000D01*
X79719500Y-104140000D02*
X80530000Y-103329500D01*
X80530000Y-103329500D02*
X80530000Y-102524000D01*
%TO.N,/TERM*%
X77330000Y-102951438D02*
X77330000Y-102524000D01*
X76703438Y-103578000D02*
X77330000Y-102951438D01*
D31*
%TO.N,GND*%
X68199000Y-108826500D02*
X68199000Y-110236000D01*
X68199000Y-110236000D02*
X65405000Y-113030000D01*
X87245100Y-95504000D02*
X87245100Y-93497400D01*
X66675000Y-92059000D02*
X64516000Y-89900000D01*
X70580000Y-102574000D02*
X70580000Y-101674000D01*
X87245100Y-97536000D02*
X87245100Y-95504000D01*
X73330000Y-102524000D02*
X73330000Y-102286000D01*
X69530000Y-87378036D02*
X71405964Y-89254000D01*
X72530000Y-101624000D02*
X72599000Y-101555000D01*
X71810000Y-89254000D02*
X71810000Y-89084000D01*
X87630000Y-109728000D02*
X86868000Y-108966000D01*
X84582000Y-110347000D02*
X84344000Y-110109000D01*
X80930000Y-87374000D02*
X80930000Y-88124000D01*
X87552000Y-114808000D02*
X87630000Y-114730000D01*
X86868000Y-108966000D02*
X85487000Y-108966000D01*
X87122000Y-93620500D02*
X87270500Y-93472000D01*
X87245100Y-93497400D02*
X87270500Y-93472000D01*
D32*
X76530000Y-95649000D02*
X76530000Y-99599000D01*
D31*
X82480000Y-105104000D02*
X81240000Y-106344000D01*
X66675000Y-93424000D02*
X66675000Y-92059000D01*
X80930000Y-88124000D02*
X80450000Y-88604000D01*
X69530000Y-87374000D02*
X69530000Y-87378036D01*
X86172000Y-100496500D02*
X84557500Y-100496500D01*
X84306500Y-110146500D02*
X84344000Y-110109000D01*
X82480000Y-102574000D02*
X82480000Y-105104000D01*
X87270500Y-93472000D02*
X87270500Y-91440000D01*
X87122000Y-99546500D02*
X86172000Y-100496500D01*
X72599000Y-101555000D02*
X74555000Y-99599000D01*
X73330000Y-102286000D02*
X72599000Y-101555000D01*
X65341500Y-113093500D02*
X65405000Y-113030000D01*
X87122000Y-97659100D02*
X87245100Y-97536000D01*
X84344000Y-110109000D02*
X84344000Y-109448000D01*
X74554000Y-113030000D02*
X81240000Y-106344000D01*
X85487000Y-108966000D02*
X84344000Y-110109000D01*
X87122000Y-99546500D02*
X87122000Y-97659100D01*
X84344000Y-109448000D02*
X81240000Y-106344000D01*
X78170000Y-88604000D02*
X77980000Y-88414000D01*
X84306500Y-112141000D02*
X84306500Y-110146500D01*
X71405964Y-89254000D02*
X71810000Y-89254000D01*
X71810000Y-89084000D02*
X72480000Y-88414000D01*
X87630000Y-114730000D02*
X87630000Y-109728000D01*
X70580000Y-101674000D02*
X70630000Y-101624000D01*
X70630000Y-101624000D02*
X72530000Y-101624000D01*
X63246000Y-115189000D02*
X65341500Y-113093500D01*
D32*
X74555000Y-97624000D02*
X78505000Y-97624000D01*
D31*
X65405000Y-113030000D02*
X74554000Y-113030000D01*
X80450000Y-88604000D02*
X78170000Y-88604000D01*
X84557500Y-100496500D02*
X82480000Y-102574000D01*
%TO.N,VBUS*%
X83820000Y-87390000D02*
X84002726Y-87390000D01*
X83855500Y-89290000D02*
X83820000Y-89290000D01*
X85195500Y-91440000D02*
X85195500Y-90665500D01*
X85195500Y-90665500D02*
X83820000Y-89290000D01*
D32*
%TO.N,Net-(P1-CC)*%
X74480000Y-88876107D02*
X74480000Y-88414000D01*
X70559000Y-90043000D02*
X73313107Y-90043000D01*
X73313107Y-90043000D02*
X74480000Y-88876107D01*
%TO.N,/D+*%
X81280000Y-100344000D02*
X81600000Y-100024000D01*
X74676000Y-89592751D02*
X74676000Y-89473380D01*
X74676000Y-89473380D02*
X74980000Y-89169380D01*
X81600000Y-100024000D02*
X82430000Y-100024000D01*
X74980000Y-89169380D02*
X74980000Y-88414000D01*
%TO.N,/D-*%
X75571811Y-89674160D02*
X75571811Y-89220811D01*
X82070000Y-100824000D02*
X81369502Y-101524498D01*
X75571811Y-89220811D02*
X75480000Y-89129000D01*
X82430000Y-100824000D02*
X82070000Y-100824000D01*
X75480000Y-89129000D02*
X75480000Y-88414000D01*
X81369502Y-101524498D02*
X81280000Y-101524498D01*
%TO.N,/TERM*%
X77300000Y-102554000D02*
X77330000Y-102524000D01*
D31*
%TO.N,Net-(D1-A)*%
X77090901Y-89662000D02*
X77079000Y-89650099D01*
X77724000Y-89662000D02*
X77090901Y-89662000D01*
X76712884Y-89270286D02*
X76699187Y-89270286D01*
X73488698Y-89413500D02*
X73147111Y-89413500D01*
X76699187Y-89270286D02*
X76480000Y-89051099D01*
X77079000Y-89636402D02*
X76712884Y-89270286D01*
X77079000Y-89650099D02*
X77079000Y-89636402D01*
X73980000Y-88414000D02*
X73980000Y-88922198D01*
X76480000Y-89051099D02*
X76480000Y-88414000D01*
X73980000Y-88922198D02*
X73488698Y-89413500D01*
D32*
%TO.N,/RXD*%
X82430000Y-97624000D02*
X81197120Y-97624000D01*
X81197120Y-97624000D02*
X81029072Y-97792048D01*
%TO.N,/TXD*%
X82430000Y-96824000D02*
X80722000Y-96824000D01*
X80722000Y-96824000D02*
X80264000Y-97282000D01*
%TO.N,CAN_L*%
X65532000Y-98501000D02*
X65405000Y-98374000D01*
X65532000Y-100489000D02*
X65532000Y-98501000D01*
D31*
%TO.N,+3.3V*%
X85090000Y-99584000D02*
X85090000Y-97616100D01*
X85170100Y-93497400D02*
X85195500Y-93472000D01*
X85195500Y-99478500D02*
X85090000Y-99584000D01*
X85170100Y-95504000D02*
X85170100Y-93497400D01*
X85170100Y-97536000D02*
X85170100Y-95504000D01*
X85090000Y-97616100D02*
X85170100Y-97536000D01*
%TO.N,/EN*%
X84152000Y-114663000D02*
X84152000Y-114808000D01*
X86381500Y-112141000D02*
X86381500Y-112433500D01*
X86381500Y-112433500D02*
X84152000Y-114663000D01*
X70669200Y-99263200D02*
X70630000Y-99224000D01*
X70630000Y-99224000D02*
X70795000Y-99224000D01*
X85090000Y-101584000D02*
X87084500Y-101584000D01*
X71678800Y-99263200D02*
X70669200Y-99263200D01*
X87084500Y-101584000D02*
X87122000Y-101621500D01*
%TO.N,unconnected-(U2-NC-Pad4)*%
X86095000Y-89165000D02*
X86106000Y-89154000D01*
%TO.N,Net-(D2-A)*%
X63246000Y-113139000D02*
X63246000Y-111347000D01*
%TD*%
%TA.AperFunction,Conductor*%
%TO.N,GND*%
G36*
X68230675Y-86394185D02*
G01*
X68276430Y-86446989D01*
X68286925Y-86511756D01*
X68280000Y-86576155D01*
X68280000Y-87124000D01*
X69656000Y-87124000D01*
X69723039Y-87143685D01*
X69768794Y-87196489D01*
X69780000Y-87248000D01*
X69780000Y-88624000D01*
X70327828Y-88624000D01*
X70327844Y-88623999D01*
X70387372Y-88617598D01*
X70387379Y-88617596D01*
X70522086Y-88567354D01*
X70522093Y-88567350D01*
X70637187Y-88481190D01*
X70679860Y-88424188D01*
X70735794Y-88382318D01*
X70779126Y-88374500D01*
X70861331Y-88374500D01*
X70928370Y-88394185D01*
X70974125Y-88446989D01*
X70984069Y-88516147D01*
X70977513Y-88541833D01*
X70966403Y-88571619D01*
X70966401Y-88571627D01*
X70960000Y-88631155D01*
X70960000Y-89054490D01*
X70940315Y-89121529D01*
X70887511Y-89167284D01*
X70818353Y-89177228D01*
X70810220Y-89175780D01*
X70653646Y-89142500D01*
X70464354Y-89142500D01*
X70431897Y-89149398D01*
X70279197Y-89181855D01*
X70279192Y-89181857D01*
X70106270Y-89258848D01*
X70106265Y-89258851D01*
X69953129Y-89370111D01*
X69826466Y-89510785D01*
X69731821Y-89674715D01*
X69731818Y-89674722D01*
X69676464Y-89845085D01*
X69673326Y-89854744D01*
X69653540Y-90043000D01*
X69673326Y-90231256D01*
X69673327Y-90231259D01*
X69731818Y-90411277D01*
X69731821Y-90411284D01*
X69826467Y-90575216D01*
X69940817Y-90702214D01*
X69953129Y-90715888D01*
X70106265Y-90827148D01*
X70106270Y-90827151D01*
X70279192Y-90904142D01*
X70279197Y-90904144D01*
X70464354Y-90943500D01*
X70464355Y-90943500D01*
X70653644Y-90943500D01*
X70653646Y-90943500D01*
X70838803Y-90904144D01*
X71011730Y-90827151D01*
X71164871Y-90715888D01*
X71226873Y-90647027D01*
X71286360Y-90610379D01*
X71319023Y-90606000D01*
X73272141Y-90606000D01*
X73280240Y-90606530D01*
X73313107Y-90610858D01*
X73350006Y-90606000D01*
X73350008Y-90606000D01*
X73460079Y-90591509D01*
X73556922Y-90551394D01*
X73597037Y-90534779D01*
X73685115Y-90467194D01*
X73685115Y-90467193D01*
X73696295Y-90458615D01*
X73696297Y-90458612D01*
X73714643Y-90444536D01*
X73734828Y-90418228D01*
X73740169Y-90412138D01*
X73890811Y-90261496D01*
X73952132Y-90228013D01*
X74021824Y-90232997D01*
X74064590Y-90262088D01*
X74065305Y-90261295D01*
X74070135Y-90265644D01*
X74223265Y-90376899D01*
X74223270Y-90376902D01*
X74396192Y-90453893D01*
X74396197Y-90453895D01*
X74581354Y-90493251D01*
X74581355Y-90493251D01*
X74770644Y-90493251D01*
X74770646Y-90493251D01*
X74955803Y-90453895D01*
X74987867Y-90439618D01*
X75057114Y-90430331D01*
X75111191Y-90452578D01*
X75113003Y-90453895D01*
X75119080Y-90458310D01*
X75119081Y-90458311D01*
X75292003Y-90535302D01*
X75292008Y-90535304D01*
X75477165Y-90574660D01*
X75567871Y-90574660D01*
X75634910Y-90594345D01*
X75675258Y-90636660D01*
X75713105Y-90702214D01*
X75839769Y-90842888D01*
X75992905Y-90954148D01*
X75992910Y-90954151D01*
X76165832Y-91031142D01*
X76165837Y-91031144D01*
X76350994Y-91070500D01*
X76350995Y-91070500D01*
X76540284Y-91070500D01*
X76540286Y-91070500D01*
X76725443Y-91031144D01*
X76898370Y-90954151D01*
X77051511Y-90842888D01*
X77178173Y-90702216D01*
X77258993Y-90562230D01*
X77309558Y-90514017D01*
X77378165Y-90500793D01*
X77416815Y-90510952D01*
X77444197Y-90523144D01*
X77629354Y-90562500D01*
X77629355Y-90562500D01*
X77818644Y-90562500D01*
X77818646Y-90562500D01*
X78003803Y-90523144D01*
X78176730Y-90446151D01*
X78329871Y-90334888D01*
X78456533Y-90194216D01*
X78551179Y-90030284D01*
X78609674Y-89850256D01*
X78629460Y-89662000D01*
X78609674Y-89473744D01*
X78558682Y-89316810D01*
X78556688Y-89246971D01*
X78577349Y-89204181D01*
X78613351Y-89156090D01*
X78613352Y-89156088D01*
X78663597Y-89021376D01*
X78663598Y-89021372D01*
X78669999Y-88961844D01*
X78670000Y-88961827D01*
X78670000Y-88604000D01*
X78652181Y-88586181D01*
X78618696Y-88524858D01*
X78623680Y-88455166D01*
X78665552Y-88399233D01*
X78731016Y-88374816D01*
X78739862Y-88374500D01*
X79680874Y-88374500D01*
X79747913Y-88394185D01*
X79780140Y-88424188D01*
X79822812Y-88481190D01*
X79937906Y-88567350D01*
X79937913Y-88567354D01*
X80072620Y-88617596D01*
X80072627Y-88617598D01*
X80132155Y-88623999D01*
X80132172Y-88624000D01*
X80680000Y-88624000D01*
X80680000Y-87624000D01*
X81180000Y-87624000D01*
X81180000Y-88624000D01*
X81727828Y-88624000D01*
X81727844Y-88623999D01*
X81787372Y-88617598D01*
X81787379Y-88617596D01*
X81922086Y-88567354D01*
X81922093Y-88567350D01*
X82037187Y-88481190D01*
X82037190Y-88481187D01*
X82123350Y-88366093D01*
X82123354Y-88366086D01*
X82173596Y-88231379D01*
X82173598Y-88231372D01*
X82179999Y-88171844D01*
X82180000Y-88171827D01*
X82180000Y-87624000D01*
X81180000Y-87624000D01*
X80680000Y-87624000D01*
X80680000Y-87248000D01*
X80699685Y-87180961D01*
X80752489Y-87135206D01*
X80804000Y-87124000D01*
X82180000Y-87124000D01*
X82180000Y-86576172D01*
X82179999Y-86576155D01*
X82173075Y-86511756D01*
X82185480Y-86442996D01*
X82233090Y-86391859D01*
X82296364Y-86374500D01*
X83083685Y-86374500D01*
X83150724Y-86394185D01*
X83196479Y-86446989D01*
X83206423Y-86516147D01*
X83177398Y-86579703D01*
X83118620Y-86617477D01*
X83118280Y-86617576D01*
X83047106Y-86638253D01*
X83047103Y-86638255D01*
X82905637Y-86721917D01*
X82905629Y-86721923D01*
X82789423Y-86838129D01*
X82789417Y-86838137D01*
X82705755Y-86979603D01*
X82705754Y-86979606D01*
X82659902Y-87137426D01*
X82659901Y-87137432D01*
X82657000Y-87174304D01*
X82657000Y-87605696D01*
X82659901Y-87642567D01*
X82659902Y-87642573D01*
X82705754Y-87800393D01*
X82705756Y-87800399D01*
X82706926Y-87802377D01*
X82707369Y-87804126D01*
X82708853Y-87807554D01*
X82708299Y-87807793D01*
X82724103Y-87870102D01*
X82708749Y-87922395D01*
X82709317Y-87922641D01*
X82707327Y-87927239D01*
X82706928Y-87928599D01*
X82706222Y-87929791D01*
X82706216Y-87929806D01*
X82660400Y-88087505D01*
X82660399Y-88087511D01*
X82660204Y-88089998D01*
X82660205Y-88090000D01*
X82925685Y-88090000D01*
X82988806Y-88107268D01*
X83047102Y-88141744D01*
X83088724Y-88153836D01*
X83204926Y-88187597D01*
X83204929Y-88187597D01*
X83204931Y-88187598D01*
X83217222Y-88188565D01*
X83241804Y-88190500D01*
X83241806Y-88190500D01*
X83377633Y-88190500D01*
X83428069Y-88201221D01*
X83542615Y-88252221D01*
X83595852Y-88297471D01*
X83616173Y-88364320D01*
X83597128Y-88431544D01*
X83544761Y-88477799D01*
X83492179Y-88489500D01*
X83241804Y-88489500D01*
X83204932Y-88492401D01*
X83204926Y-88492402D01*
X83047106Y-88538254D01*
X83047103Y-88538255D01*
X82988806Y-88572732D01*
X82925685Y-88590000D01*
X82660205Y-88590000D01*
X82660204Y-88590001D01*
X82660399Y-88592488D01*
X82660400Y-88592494D01*
X82706216Y-88750193D01*
X82706220Y-88750203D01*
X82706927Y-88751398D01*
X82707195Y-88752454D01*
X82709316Y-88757356D01*
X82708524Y-88757698D01*
X82724103Y-88819123D01*
X82708493Y-88872284D01*
X82708855Y-88872441D01*
X82707587Y-88875369D01*
X82706927Y-88877620D01*
X82705759Y-88879594D01*
X82705754Y-88879607D01*
X82659902Y-89037426D01*
X82659901Y-89037432D01*
X82657000Y-89074304D01*
X82657000Y-89505696D01*
X82659901Y-89542567D01*
X82659902Y-89542573D01*
X82705754Y-89700393D01*
X82705755Y-89700396D01*
X82705756Y-89700398D01*
X82712691Y-89712125D01*
X82780088Y-89826088D01*
X82789418Y-89841864D01*
X82789423Y-89841870D01*
X82905629Y-89958076D01*
X82905633Y-89958079D01*
X82905635Y-89958081D01*
X83047102Y-90041744D01*
X83088724Y-90053836D01*
X83204926Y-90087597D01*
X83204929Y-90087597D01*
X83204931Y-90087598D01*
X83217222Y-90088565D01*
X83241804Y-90090500D01*
X83241806Y-90090500D01*
X83684548Y-90090500D01*
X83751587Y-90110185D01*
X83772229Y-90126819D01*
X84149281Y-90503871D01*
X84182766Y-90565194D01*
X84177782Y-90634886D01*
X84173989Y-90643941D01*
X84173190Y-90645654D01*
X84173186Y-90645665D01*
X84173186Y-90645666D01*
X84118001Y-90812203D01*
X84118001Y-90812204D01*
X84118000Y-90812204D01*
X84107500Y-90914983D01*
X84107500Y-91965001D01*
X84107501Y-91965019D01*
X84118000Y-92067796D01*
X84118001Y-92067799D01*
X84140686Y-92136256D01*
X84173186Y-92234334D01*
X84237499Y-92338603D01*
X84269080Y-92389803D01*
X84266621Y-92391319D01*
X84287822Y-92443940D01*
X84274751Y-92512576D01*
X84268713Y-92521970D01*
X84269080Y-92522197D01*
X84265289Y-92528342D01*
X84265288Y-92528344D01*
X84232582Y-92581368D01*
X84173187Y-92677663D01*
X84173186Y-92677666D01*
X84118001Y-92844203D01*
X84118001Y-92844204D01*
X84118000Y-92844204D01*
X84107500Y-92946983D01*
X84107500Y-93997001D01*
X84107501Y-93997019D01*
X84118000Y-94099796D01*
X84118001Y-94099799D01*
X84173185Y-94266331D01*
X84173189Y-94266340D01*
X84259324Y-94405988D01*
X84277764Y-94473380D01*
X84256841Y-94540044D01*
X84241473Y-94558759D01*
X84239888Y-94560343D01*
X84147787Y-94709663D01*
X84147785Y-94709668D01*
X84119949Y-94793670D01*
X84092601Y-94876203D01*
X84092601Y-94876204D01*
X84092600Y-94876204D01*
X84082100Y-94978983D01*
X84082100Y-96029001D01*
X84082101Y-96029019D01*
X84092600Y-96131796D01*
X84092601Y-96131799D01*
X84147785Y-96298331D01*
X84147787Y-96298336D01*
X84177411Y-96346364D01*
X84223358Y-96420857D01*
X84243680Y-96453803D01*
X84241221Y-96455319D01*
X84262422Y-96507940D01*
X84249351Y-96576576D01*
X84243313Y-96585970D01*
X84243680Y-96586197D01*
X84239889Y-96592342D01*
X84239888Y-96592344D01*
X84207182Y-96645368D01*
X84147787Y-96741663D01*
X84147785Y-96741668D01*
X84139324Y-96767202D01*
X84092601Y-96908203D01*
X84092601Y-96908204D01*
X84092600Y-96908204D01*
X84082100Y-97010983D01*
X84082100Y-98061001D01*
X84082101Y-98061019D01*
X84092600Y-98163796D01*
X84092601Y-98163799D01*
X84147785Y-98330331D01*
X84147789Y-98330340D01*
X84228120Y-98460578D01*
X84246560Y-98527970D01*
X84225637Y-98594634D01*
X84187680Y-98631211D01*
X84171346Y-98641285D01*
X84047289Y-98765342D01*
X83955187Y-98914663D01*
X83955185Y-98914668D01*
X83934823Y-98976116D01*
X83900001Y-99081203D01*
X83900001Y-99081204D01*
X83900000Y-99081204D01*
X83889500Y-99183983D01*
X83889500Y-99984001D01*
X83889501Y-99984019D01*
X83900000Y-100086796D01*
X83900001Y-100086799D01*
X83940791Y-100209893D01*
X83955186Y-100253334D01*
X84003391Y-100331488D01*
X84047289Y-100402657D01*
X84140951Y-100496319D01*
X84174436Y-100557642D01*
X84169452Y-100627334D01*
X84140951Y-100671681D01*
X84047289Y-100765342D01*
X83955187Y-100914663D01*
X83955185Y-100914668D01*
X83934929Y-100975797D01*
X83900001Y-101081203D01*
X83900001Y-101081204D01*
X83900000Y-101081204D01*
X83889500Y-101183983D01*
X83889500Y-101984001D01*
X83889501Y-101984019D01*
X83900000Y-102086796D01*
X83900001Y-102086799D01*
X83955185Y-102253331D01*
X83955186Y-102253334D01*
X84047288Y-102402656D01*
X84171344Y-102526712D01*
X84320666Y-102618814D01*
X84487203Y-102673999D01*
X84589991Y-102684500D01*
X85590008Y-102684499D01*
X85590016Y-102684498D01*
X85590019Y-102684498D01*
X85646302Y-102678748D01*
X85692797Y-102673999D01*
X85859334Y-102618814D01*
X86008656Y-102526712D01*
X86008658Y-102526709D01*
X86014697Y-102522985D01*
X86082090Y-102504545D01*
X86148753Y-102525468D01*
X86167475Y-102540843D01*
X86178344Y-102551712D01*
X86327666Y-102643814D01*
X86494203Y-102698999D01*
X86596991Y-102709500D01*
X87647008Y-102709499D01*
X87647016Y-102709498D01*
X87647019Y-102709498D01*
X87703302Y-102703748D01*
X87749797Y-102698999D01*
X87916334Y-102643814D01*
X88040406Y-102567286D01*
X88107796Y-102548847D01*
X88174459Y-102569769D01*
X88219229Y-102623411D01*
X88229500Y-102672826D01*
X88229500Y-113339270D01*
X88209815Y-113406309D01*
X88157011Y-113452064D01*
X88092246Y-113462560D01*
X88049830Y-113458000D01*
X87802000Y-113458000D01*
X87802000Y-114934000D01*
X87782315Y-115001039D01*
X87729511Y-115046794D01*
X87678000Y-115058000D01*
X86602000Y-115058000D01*
X86602000Y-115705844D01*
X86608401Y-115765372D01*
X86608403Y-115765379D01*
X86658645Y-115900086D01*
X86658649Y-115900093D01*
X86744809Y-116015187D01*
X86744812Y-116015190D01*
X86859906Y-116101350D01*
X86859913Y-116101354D01*
X86945612Y-116133318D01*
X87001546Y-116175189D01*
X87025963Y-116240654D01*
X87011111Y-116308927D01*
X86961706Y-116358332D01*
X86902279Y-116373500D01*
X84803150Y-116373500D01*
X84736111Y-116353815D01*
X84690356Y-116301011D01*
X84680412Y-116231853D01*
X84709437Y-116168297D01*
X84759817Y-116133318D01*
X84844328Y-116101797D01*
X84844327Y-116101797D01*
X84844331Y-116101796D01*
X84959546Y-116015546D01*
X85045796Y-115900331D01*
X85096091Y-115765483D01*
X85102500Y-115705873D01*
X85102499Y-114648450D01*
X85122183Y-114581412D01*
X85138813Y-114560775D01*
X86296772Y-113402818D01*
X86358095Y-113369333D01*
X86384453Y-113366499D01*
X86685255Y-113366499D01*
X86752294Y-113386184D01*
X86798049Y-113438988D01*
X86807993Y-113508146D01*
X86778968Y-113571702D01*
X86759566Y-113589765D01*
X86744812Y-113600809D01*
X86744809Y-113600812D01*
X86658649Y-113715906D01*
X86658645Y-113715913D01*
X86608403Y-113850620D01*
X86608401Y-113850627D01*
X86602000Y-113910155D01*
X86602000Y-114558000D01*
X87302000Y-114558000D01*
X87302000Y-113458000D01*
X87220734Y-113458000D01*
X87153695Y-113438315D01*
X87107940Y-113385511D01*
X87097996Y-113316353D01*
X87127021Y-113252797D01*
X87155635Y-113228462D01*
X87187656Y-113208712D01*
X87311712Y-113084656D01*
X87403814Y-112935334D01*
X87458999Y-112768797D01*
X87469500Y-112666009D01*
X87469499Y-111615992D01*
X87458999Y-111513203D01*
X87403814Y-111346666D01*
X87311712Y-111197344D01*
X87300843Y-111186475D01*
X87267358Y-111125152D01*
X87272342Y-111055460D01*
X87282985Y-111033697D01*
X87286709Y-111027658D01*
X87286712Y-111027656D01*
X87378814Y-110878334D01*
X87433999Y-110711797D01*
X87444500Y-110609009D01*
X87444499Y-109608992D01*
X87438952Y-109554694D01*
X87433999Y-109506203D01*
X87433998Y-109506200D01*
X87378814Y-109339666D01*
X87286712Y-109190344D01*
X87162656Y-109066288D01*
X87013334Y-108974186D01*
X86846797Y-108919001D01*
X86846795Y-108919000D01*
X86744010Y-108908500D01*
X85943998Y-108908500D01*
X85943980Y-108908501D01*
X85841203Y-108919000D01*
X85841200Y-108919001D01*
X85674668Y-108974185D01*
X85674663Y-108974187D01*
X85525345Y-109066287D01*
X85431327Y-109160305D01*
X85370003Y-109193789D01*
X85300312Y-109188805D01*
X85255965Y-109160304D01*
X85162345Y-109066684D01*
X85013124Y-108974643D01*
X85013119Y-108974641D01*
X84846697Y-108919494D01*
X84846690Y-108919493D01*
X84743986Y-108909000D01*
X84594000Y-108909000D01*
X84594000Y-111260138D01*
X84574315Y-111327177D01*
X84557681Y-111347819D01*
X84556500Y-111349000D01*
X84556500Y-112267000D01*
X84536815Y-112334039D01*
X84484011Y-112379794D01*
X84432500Y-112391000D01*
X83219001Y-112391000D01*
X83219001Y-112665986D01*
X83229494Y-112768697D01*
X83284641Y-112935119D01*
X83284643Y-112935124D01*
X83376684Y-113084345D01*
X83500656Y-113208317D01*
X83578446Y-113256298D01*
X83625171Y-113308246D01*
X83636394Y-113377208D01*
X83608550Y-113441291D01*
X83556684Y-113478019D01*
X83459669Y-113514203D01*
X83459664Y-113514206D01*
X83344455Y-113600452D01*
X83344452Y-113600455D01*
X83258206Y-113715664D01*
X83258202Y-113715671D01*
X83207908Y-113850517D01*
X83201501Y-113910116D01*
X83201500Y-113910135D01*
X83201500Y-115705870D01*
X83201501Y-115705876D01*
X83207908Y-115765483D01*
X83258202Y-115900328D01*
X83258206Y-115900335D01*
X83344452Y-116015544D01*
X83344455Y-116015547D01*
X83459664Y-116101793D01*
X83459671Y-116101797D01*
X83544183Y-116133318D01*
X83600117Y-116175189D01*
X83624534Y-116240653D01*
X83609683Y-116308926D01*
X83560277Y-116358332D01*
X83500850Y-116373500D01*
X69020821Y-116373500D01*
X68953782Y-116353815D01*
X68908027Y-116301011D01*
X68898083Y-116231853D01*
X68914089Y-116186380D01*
X68939174Y-116143962D01*
X68950744Y-116124398D01*
X68996598Y-115966569D01*
X68999500Y-115929694D01*
X68999500Y-115649218D01*
X69016112Y-115587220D01*
X69026179Y-115569784D01*
X69084674Y-115389756D01*
X69104460Y-115201500D01*
X69084674Y-115013244D01*
X69026179Y-114833216D01*
X69026178Y-114833215D01*
X69026178Y-114833213D01*
X69016112Y-114815777D01*
X68999500Y-114753779D01*
X68999500Y-114473304D01*
X68996598Y-114436432D01*
X68996597Y-114436426D01*
X68950745Y-114278606D01*
X68950744Y-114278603D01*
X68950744Y-114278602D01*
X68867081Y-114137135D01*
X68867079Y-114137133D01*
X68867076Y-114137129D01*
X68750870Y-114020923D01*
X68750862Y-114020917D01*
X68609396Y-113937255D01*
X68609393Y-113937254D01*
X68451573Y-113891402D01*
X68451567Y-113891401D01*
X68414696Y-113888500D01*
X68414694Y-113888500D01*
X67983306Y-113888500D01*
X67983304Y-113888500D01*
X67946432Y-113891401D01*
X67946426Y-113891402D01*
X67788606Y-113937254D01*
X67788603Y-113937255D01*
X67647137Y-114020917D01*
X67640969Y-114025702D01*
X67639072Y-114023256D01*
X67590358Y-114049857D01*
X67520666Y-114044873D01*
X67488296Y-114024069D01*
X67487031Y-114025702D01*
X67480862Y-114020917D01*
X67339396Y-113937255D01*
X67339393Y-113937254D01*
X67181573Y-113891402D01*
X67181567Y-113891401D01*
X67144696Y-113888500D01*
X67144694Y-113888500D01*
X66713306Y-113888500D01*
X66713304Y-113888500D01*
X66676432Y-113891401D01*
X66676426Y-113891402D01*
X66518606Y-113937254D01*
X66518603Y-113937255D01*
X66377137Y-114020917D01*
X66377129Y-114020923D01*
X66260923Y-114137129D01*
X66260917Y-114137137D01*
X66177255Y-114278603D01*
X66177254Y-114278606D01*
X66131402Y-114436426D01*
X66131401Y-114436432D01*
X66128500Y-114473304D01*
X66128500Y-114753779D01*
X66111888Y-114815777D01*
X66101821Y-114833213D01*
X66043327Y-115013240D01*
X66043326Y-115013244D01*
X66023540Y-115201500D01*
X66043326Y-115389756D01*
X66043327Y-115389759D01*
X66101818Y-115569777D01*
X66101819Y-115569779D01*
X66101821Y-115569784D01*
X66111887Y-115587220D01*
X66128500Y-115649218D01*
X66128500Y-115929696D01*
X66131401Y-115966567D01*
X66131402Y-115966573D01*
X66177254Y-116124393D01*
X66177257Y-116124400D01*
X66213911Y-116186380D01*
X66231094Y-116254104D01*
X66208934Y-116320366D01*
X66154467Y-116364129D01*
X66107179Y-116373500D01*
X64168410Y-116373500D01*
X64101371Y-116353815D01*
X64055616Y-116301011D01*
X64045672Y-116231853D01*
X64074697Y-116168297D01*
X64103313Y-116143962D01*
X64164340Y-116106319D01*
X64164344Y-116106316D01*
X64288315Y-115982345D01*
X64380356Y-115833124D01*
X64380358Y-115833119D01*
X64435505Y-115666697D01*
X64435506Y-115666690D01*
X64445999Y-115563986D01*
X64446000Y-115563973D01*
X64446000Y-115439000D01*
X63120000Y-115439000D01*
X63052961Y-115419315D01*
X63007206Y-115366511D01*
X62996000Y-115315000D01*
X62996000Y-115063000D01*
X63015685Y-114995961D01*
X63068489Y-114950206D01*
X63120000Y-114939000D01*
X64445999Y-114939000D01*
X64445999Y-114814028D01*
X64445998Y-114814013D01*
X64435505Y-114711302D01*
X64380358Y-114544880D01*
X64380356Y-114544875D01*
X64288315Y-114395654D01*
X64164344Y-114271683D01*
X64164341Y-114271681D01*
X64161339Y-114269829D01*
X64159713Y-114268021D01*
X64158677Y-114267202D01*
X64158817Y-114267024D01*
X64114617Y-114217880D01*
X64103397Y-114148917D01*
X64131243Y-114084836D01*
X64161344Y-114058754D01*
X64164656Y-114056712D01*
X64288712Y-113932656D01*
X64380814Y-113783334D01*
X64435999Y-113616797D01*
X64446500Y-113514009D01*
X64446499Y-112763992D01*
X64435999Y-112661203D01*
X64380814Y-112494666D01*
X64288712Y-112345344D01*
X64286549Y-112343181D01*
X64285539Y-112341331D01*
X64284234Y-112339681D01*
X64284516Y-112339457D01*
X64253064Y-112281858D01*
X64258048Y-112212166D01*
X64284277Y-112171353D01*
X64284234Y-112171319D01*
X64284584Y-112170875D01*
X64286549Y-112167819D01*
X64288712Y-112165656D01*
X64380814Y-112016334D01*
X64422346Y-111891000D01*
X83219000Y-111891000D01*
X84056500Y-111891000D01*
X84056500Y-110964862D01*
X84076185Y-110897823D01*
X84092819Y-110877181D01*
X84094000Y-110876000D01*
X84094000Y-110359000D01*
X83244001Y-110359000D01*
X83244001Y-110608986D01*
X83254494Y-110711697D01*
X83309641Y-110878119D01*
X83309643Y-110878124D01*
X83405475Y-111033491D01*
X83402714Y-111035193D01*
X83423521Y-111086503D01*
X83410604Y-111155168D01*
X83387820Y-111186519D01*
X83376683Y-111197656D01*
X83284643Y-111346875D01*
X83284641Y-111346880D01*
X83229494Y-111513302D01*
X83229493Y-111513309D01*
X83219000Y-111616013D01*
X83219000Y-111891000D01*
X64422346Y-111891000D01*
X64435999Y-111849797D01*
X64446500Y-111747009D01*
X64446499Y-110946992D01*
X64435999Y-110844203D01*
X64380814Y-110677666D01*
X64288712Y-110528344D01*
X64195049Y-110434681D01*
X64161564Y-110373358D01*
X64166548Y-110303666D01*
X64195049Y-110259319D01*
X64288712Y-110165656D01*
X64380814Y-110016334D01*
X64435999Y-109849797D01*
X64446500Y-109747009D01*
X64446499Y-108946992D01*
X64435999Y-108844203D01*
X64430133Y-108826500D01*
X66023540Y-108826500D01*
X66043326Y-109014756D01*
X66043327Y-109014759D01*
X66101818Y-109194777D01*
X66101819Y-109194779D01*
X66101821Y-109194784D01*
X66111887Y-109212220D01*
X66128500Y-109274218D01*
X66128500Y-109554696D01*
X66131401Y-109591567D01*
X66131402Y-109591573D01*
X66177254Y-109749393D01*
X66177255Y-109749396D01*
X66260917Y-109890862D01*
X66260923Y-109890870D01*
X66377129Y-110007076D01*
X66377133Y-110007079D01*
X66377135Y-110007081D01*
X66518602Y-110090744D01*
X66560224Y-110102836D01*
X66676426Y-110136597D01*
X66676429Y-110136597D01*
X66676431Y-110136598D01*
X66688722Y-110137565D01*
X66713304Y-110139500D01*
X66713306Y-110139500D01*
X67144696Y-110139500D01*
X67163131Y-110138049D01*
X67181569Y-110136598D01*
X67181571Y-110136597D01*
X67181573Y-110136597D01*
X67223191Y-110124505D01*
X67339398Y-110090744D01*
X67480865Y-110007081D01*
X67480870Y-110007076D01*
X67487026Y-110002301D01*
X67488839Y-110004638D01*
X67537949Y-109977798D01*
X67607643Y-109982756D01*
X67639996Y-110003551D01*
X67641278Y-110001900D01*
X67647447Y-110006685D01*
X67788801Y-110090281D01*
X67946514Y-110136100D01*
X67946511Y-110136100D01*
X67948998Y-110136295D01*
X67949000Y-110136295D01*
X67949000Y-109076500D01*
X68449000Y-109076500D01*
X68449000Y-110136295D01*
X68449001Y-110136295D01*
X68451486Y-110136100D01*
X68609198Y-110090281D01*
X68750552Y-110006685D01*
X68750561Y-110006678D01*
X68866678Y-109890561D01*
X68866685Y-109890552D01*
X68885345Y-109859000D01*
X83244000Y-109859000D01*
X84094000Y-109859000D01*
X84094000Y-108909000D01*
X83944027Y-108909000D01*
X83944012Y-108909001D01*
X83841302Y-108919494D01*
X83674880Y-108974641D01*
X83674875Y-108974643D01*
X83525654Y-109066684D01*
X83401684Y-109190654D01*
X83309643Y-109339875D01*
X83309641Y-109339880D01*
X83254494Y-109506302D01*
X83254493Y-109506309D01*
X83244000Y-109609013D01*
X83244000Y-109859000D01*
X68885345Y-109859000D01*
X68950282Y-109749196D01*
X68950283Y-109749193D01*
X68996099Y-109591495D01*
X68996100Y-109591489D01*
X68999000Y-109554644D01*
X68999000Y-109076500D01*
X68449000Y-109076500D01*
X67949000Y-109076500D01*
X67949000Y-107516703D01*
X68449000Y-107516703D01*
X68449000Y-108576500D01*
X68999000Y-108576500D01*
X68999000Y-108098356D01*
X68996100Y-108061510D01*
X68996099Y-108061504D01*
X68950283Y-107903806D01*
X68950282Y-107903803D01*
X68866685Y-107762447D01*
X68866678Y-107762438D01*
X68750561Y-107646321D01*
X68750552Y-107646314D01*
X68609196Y-107562717D01*
X68609193Y-107562716D01*
X68451494Y-107516900D01*
X68451497Y-107516900D01*
X68449000Y-107516703D01*
X67949000Y-107516703D01*
X67946503Y-107516900D01*
X67788806Y-107562716D01*
X67788803Y-107562717D01*
X67647449Y-107646313D01*
X67641283Y-107651097D01*
X67639389Y-107648655D01*
X67590580Y-107675239D01*
X67520894Y-107670179D01*
X67488227Y-107649159D01*
X67487031Y-107650702D01*
X67480862Y-107645917D01*
X67377628Y-107584865D01*
X67339398Y-107562256D01*
X67339397Y-107562255D01*
X67339396Y-107562255D01*
X67339393Y-107562254D01*
X67181573Y-107516402D01*
X67181567Y-107516401D01*
X67144696Y-107513500D01*
X67144694Y-107513500D01*
X66713306Y-107513500D01*
X66713304Y-107513500D01*
X66676432Y-107516401D01*
X66676426Y-107516402D01*
X66518606Y-107562254D01*
X66518603Y-107562255D01*
X66377137Y-107645917D01*
X66377129Y-107645923D01*
X66260923Y-107762129D01*
X66260917Y-107762137D01*
X66177255Y-107903603D01*
X66177254Y-107903606D01*
X66131402Y-108061426D01*
X66131401Y-108061432D01*
X66128500Y-108098304D01*
X66128500Y-108378779D01*
X66111888Y-108440777D01*
X66101821Y-108458213D01*
X66049381Y-108619608D01*
X66043326Y-108638244D01*
X66023540Y-108826500D01*
X64430133Y-108826500D01*
X64380814Y-108677666D01*
X64288712Y-108528344D01*
X64164656Y-108404288D01*
X64068377Y-108344903D01*
X64015336Y-108312187D01*
X64015331Y-108312185D01*
X64013862Y-108311698D01*
X63848797Y-108257001D01*
X63848795Y-108257000D01*
X63746010Y-108246500D01*
X62745998Y-108246500D01*
X62745980Y-108246501D01*
X62643203Y-108257000D01*
X62643200Y-108257001D01*
X62476668Y-108312185D01*
X62476659Y-108312190D01*
X62419596Y-108347386D01*
X62352203Y-108365826D01*
X62285540Y-108344903D01*
X62240771Y-108291260D01*
X62230500Y-108241847D01*
X62230500Y-105832000D01*
X62528341Y-105832000D01*
X62548936Y-106067403D01*
X62548938Y-106067413D01*
X62610094Y-106295655D01*
X62610096Y-106295659D01*
X62610097Y-106295663D01*
X62646130Y-106372936D01*
X62709964Y-106509828D01*
X62709965Y-106509830D01*
X62845505Y-106703402D01*
X63012597Y-106870494D01*
X63206169Y-107006034D01*
X63206171Y-107006035D01*
X63420337Y-107105903D01*
X63648592Y-107167063D01*
X63825034Y-107182500D01*
X63942966Y-107182500D01*
X64119408Y-107167063D01*
X64347663Y-107105903D01*
X64561829Y-107006035D01*
X64755401Y-106870495D01*
X64922495Y-106703401D01*
X65058035Y-106509830D01*
X65157903Y-106295663D01*
X65219063Y-106067408D01*
X65239659Y-105832000D01*
X65219063Y-105596592D01*
X65157903Y-105368337D01*
X65058035Y-105154171D01*
X65058034Y-105154169D01*
X64922494Y-104960597D01*
X64755402Y-104793505D01*
X64561830Y-104657965D01*
X64561828Y-104657964D01*
X64454746Y-104608031D01*
X64347663Y-104558097D01*
X64347659Y-104558096D01*
X64347655Y-104558094D01*
X64119413Y-104496938D01*
X64119403Y-104496936D01*
X63942966Y-104481500D01*
X63825034Y-104481500D01*
X63648596Y-104496936D01*
X63648586Y-104496938D01*
X63420344Y-104558094D01*
X63420335Y-104558098D01*
X63206171Y-104657964D01*
X63206169Y-104657965D01*
X63012597Y-104793505D01*
X62845506Y-104960597D01*
X62845501Y-104960604D01*
X62709967Y-105154165D01*
X62709965Y-105154169D01*
X62610098Y-105368335D01*
X62610094Y-105368344D01*
X62548938Y-105596586D01*
X62548936Y-105596596D01*
X62528341Y-105831999D01*
X62528341Y-105832000D01*
X62230500Y-105832000D01*
X62230500Y-103361212D01*
X62250185Y-103294173D01*
X62302989Y-103248418D01*
X62372147Y-103238474D01*
X62435703Y-103267499D01*
X62451981Y-103286642D01*
X62452807Y-103285989D01*
X62457288Y-103291656D01*
X62581344Y-103415712D01*
X62730666Y-103507814D01*
X62897203Y-103562999D01*
X62999991Y-103573500D01*
X64000008Y-103573499D01*
X64000016Y-103573498D01*
X64000019Y-103573498D01*
X64056302Y-103567748D01*
X64102797Y-103562999D01*
X64269334Y-103507814D01*
X64418656Y-103415712D01*
X64420319Y-103414049D01*
X64421740Y-103413272D01*
X64424319Y-103411234D01*
X64424667Y-103411674D01*
X64481642Y-103380564D01*
X64551334Y-103385548D01*
X64595681Y-103414049D01*
X64613344Y-103431712D01*
X64762666Y-103523814D01*
X64929203Y-103578999D01*
X65031991Y-103589500D01*
X66032008Y-103589499D01*
X66032016Y-103589498D01*
X66032019Y-103589498D01*
X66088302Y-103583748D01*
X66134797Y-103578999D01*
X66301334Y-103523814D01*
X66303899Y-103522231D01*
X66305899Y-103521684D01*
X66307882Y-103520760D01*
X66308039Y-103521098D01*
X66371286Y-103503788D01*
X66437951Y-103524705D01*
X66482725Y-103578344D01*
X66493000Y-103627767D01*
X66493000Y-104099032D01*
X66492469Y-104107134D01*
X66488142Y-104139999D01*
X66488142Y-104140002D01*
X66492380Y-104172194D01*
X66492381Y-104172201D01*
X66507491Y-104286972D01*
X66539427Y-104364071D01*
X66564220Y-104423928D01*
X66564221Y-104423930D01*
X66620241Y-104496937D01*
X66654463Y-104541535D01*
X66680764Y-104561717D01*
X66686859Y-104567061D01*
X67481156Y-105361358D01*
X68234681Y-106114883D01*
X68268166Y-106176206D01*
X68271000Y-106202564D01*
X68271000Y-106258032D01*
X68270469Y-106266134D01*
X68266142Y-106298999D01*
X68266142Y-106299002D01*
X68270380Y-106331194D01*
X68270381Y-106331201D01*
X68271000Y-106335901D01*
X68285491Y-106445972D01*
X68294056Y-106466649D01*
X68304131Y-106490972D01*
X68342221Y-106582930D01*
X68376751Y-106627931D01*
X68432460Y-106700532D01*
X68432462Y-106700533D01*
X68432464Y-106700536D01*
X68451048Y-106714796D01*
X68458764Y-106720717D01*
X68464859Y-106726061D01*
X69389500Y-107650702D01*
X70311925Y-108573127D01*
X70317278Y-108579230D01*
X70317282Y-108579235D01*
X70337464Y-108605536D01*
X70365702Y-108627203D01*
X70365718Y-108627217D01*
X70431468Y-108677668D01*
X70455071Y-108695779D01*
X70592028Y-108752509D01*
X70665514Y-108762183D01*
X70738999Y-108771858D01*
X70739000Y-108771858D01*
X70739001Y-108771858D01*
X70751817Y-108770170D01*
X70771869Y-108767530D01*
X70779968Y-108767000D01*
X76799034Y-108767000D01*
X76807133Y-108767530D01*
X76840000Y-108771858D01*
X76876899Y-108767000D01*
X76876901Y-108767000D01*
X76986972Y-108752509D01*
X77083815Y-108712394D01*
X77123930Y-108695779D01*
X77212008Y-108628194D01*
X77212008Y-108628193D01*
X77223188Y-108619615D01*
X77223190Y-108619612D01*
X77241536Y-108605536D01*
X77261721Y-108579228D01*
X77267062Y-108573138D01*
X78369807Y-107470393D01*
X78431128Y-107436910D01*
X78500820Y-107441894D01*
X78509893Y-107445696D01*
X78510337Y-107445903D01*
X78510342Y-107445904D01*
X78510344Y-107445905D01*
X78565285Y-107460626D01*
X78738592Y-107507063D01*
X78926918Y-107523539D01*
X78973999Y-107527659D01*
X78974000Y-107527659D01*
X78974001Y-107527659D01*
X79013234Y-107524226D01*
X79209408Y-107507063D01*
X79437663Y-107445903D01*
X79651830Y-107346035D01*
X79845401Y-107210495D01*
X80012495Y-107043401D01*
X80142730Y-106857405D01*
X80197307Y-106813781D01*
X80266805Y-106806587D01*
X80329160Y-106838110D01*
X80345879Y-106857405D01*
X80475890Y-107043078D01*
X80642917Y-107210105D01*
X80836421Y-107345600D01*
X81050507Y-107445429D01*
X81050516Y-107445433D01*
X81264000Y-107502634D01*
X81264000Y-106607501D01*
X81371685Y-106656680D01*
X81478237Y-106672000D01*
X81549763Y-106672000D01*
X81656315Y-106656680D01*
X81764000Y-106607501D01*
X81764000Y-107502633D01*
X81977483Y-107445433D01*
X81977492Y-107445429D01*
X82191578Y-107345600D01*
X82385082Y-107210105D01*
X82552105Y-107043082D01*
X82687600Y-106849578D01*
X82787429Y-106635492D01*
X82787432Y-106635486D01*
X82844636Y-106422000D01*
X81947686Y-106422000D01*
X81973493Y-106381844D01*
X82014000Y-106243889D01*
X82014000Y-106100111D01*
X81973493Y-105962156D01*
X81947686Y-105922000D01*
X82844636Y-105922000D01*
X82844635Y-105921999D01*
X82820520Y-105832000D01*
X85128341Y-105832000D01*
X85148936Y-106067403D01*
X85148938Y-106067413D01*
X85210094Y-106295655D01*
X85210096Y-106295659D01*
X85210097Y-106295663D01*
X85246130Y-106372936D01*
X85309964Y-106509828D01*
X85309965Y-106509830D01*
X85445505Y-106703402D01*
X85612597Y-106870494D01*
X85806169Y-107006034D01*
X85806171Y-107006035D01*
X86020337Y-107105903D01*
X86248592Y-107167063D01*
X86425034Y-107182500D01*
X86542966Y-107182500D01*
X86719408Y-107167063D01*
X86947663Y-107105903D01*
X87161829Y-107006035D01*
X87355401Y-106870495D01*
X87522495Y-106703401D01*
X87658035Y-106509830D01*
X87757903Y-106295663D01*
X87819063Y-106067408D01*
X87839659Y-105832000D01*
X87819063Y-105596592D01*
X87757903Y-105368337D01*
X87658035Y-105154171D01*
X87658034Y-105154169D01*
X87522494Y-104960597D01*
X87355402Y-104793505D01*
X87161830Y-104657965D01*
X87161828Y-104657964D01*
X87054746Y-104608031D01*
X86947663Y-104558097D01*
X86947659Y-104558096D01*
X86947655Y-104558094D01*
X86719413Y-104496938D01*
X86719403Y-104496936D01*
X86542966Y-104481500D01*
X86425034Y-104481500D01*
X86248596Y-104496936D01*
X86248586Y-104496938D01*
X86020344Y-104558094D01*
X86020335Y-104558098D01*
X85806171Y-104657964D01*
X85806169Y-104657965D01*
X85612597Y-104793505D01*
X85445506Y-104960597D01*
X85445501Y-104960604D01*
X85309967Y-105154165D01*
X85309965Y-105154169D01*
X85210098Y-105368335D01*
X85210094Y-105368344D01*
X85148938Y-105596586D01*
X85148936Y-105596596D01*
X85128341Y-105831999D01*
X85128341Y-105832000D01*
X82820520Y-105832000D01*
X82787432Y-105708513D01*
X82787429Y-105708507D01*
X82687600Y-105494422D01*
X82687599Y-105494420D01*
X82552113Y-105300926D01*
X82552108Y-105300920D01*
X82385082Y-105133894D01*
X82191578Y-104998399D01*
X81977492Y-104898570D01*
X81977486Y-104898567D01*
X81764000Y-104841364D01*
X81764000Y-105736498D01*
X81656315Y-105687320D01*
X81549763Y-105672000D01*
X81478237Y-105672000D01*
X81371685Y-105687320D01*
X81264000Y-105736498D01*
X81264000Y-104841364D01*
X81263999Y-104841364D01*
X81050513Y-104898567D01*
X81050507Y-104898570D01*
X80836422Y-104998399D01*
X80836420Y-104998400D01*
X80642926Y-105133886D01*
X80642920Y-105133891D01*
X80475891Y-105300920D01*
X80475890Y-105300922D01*
X80345880Y-105486595D01*
X80291303Y-105530219D01*
X80221804Y-105537412D01*
X80159450Y-105505890D01*
X80142730Y-105486594D01*
X80012494Y-105300597D01*
X79845402Y-105133506D01*
X79845395Y-105133501D01*
X79651834Y-104997967D01*
X79651830Y-104997965D01*
X79571709Y-104960604D01*
X79526197Y-104939381D01*
X79473759Y-104893210D01*
X79454607Y-104826016D01*
X79474823Y-104759135D01*
X79527988Y-104713800D01*
X79578603Y-104703000D01*
X79678534Y-104703000D01*
X79686633Y-104703530D01*
X79719500Y-104707858D01*
X79756399Y-104703000D01*
X79756401Y-104703000D01*
X79866472Y-104688509D01*
X79964268Y-104648000D01*
X80003430Y-104631779D01*
X80068285Y-104582013D01*
X80102689Y-104555615D01*
X80102692Y-104555610D01*
X80121036Y-104541536D01*
X80141224Y-104515226D01*
X80146554Y-104509147D01*
X80899138Y-103756562D01*
X80905228Y-103751221D01*
X80931536Y-103731036D01*
X80954194Y-103701508D01*
X81021779Y-103613430D01*
X81044724Y-103558036D01*
X81068330Y-103501045D01*
X81112171Y-103446643D01*
X81178465Y-103424578D01*
X81182891Y-103424499D01*
X81577871Y-103424499D01*
X81577872Y-103424499D01*
X81637483Y-103418091D01*
X81772331Y-103367796D01*
X81772333Y-103367794D01*
X81780640Y-103364696D01*
X81781225Y-103366265D01*
X81839367Y-103353616D01*
X81879207Y-103365312D01*
X81879602Y-103364253D01*
X82022623Y-103417597D01*
X82022627Y-103417598D01*
X82082155Y-103423999D01*
X82082172Y-103424000D01*
X82230000Y-103424000D01*
X82230000Y-102824000D01*
X82730000Y-102824000D01*
X82730000Y-103424000D01*
X82877828Y-103424000D01*
X82877844Y-103423999D01*
X82937372Y-103417598D01*
X82937379Y-103417596D01*
X83072086Y-103367354D01*
X83072093Y-103367350D01*
X83187187Y-103281190D01*
X83187190Y-103281187D01*
X83273350Y-103166093D01*
X83273354Y-103166086D01*
X83323596Y-103031379D01*
X83323598Y-103031372D01*
X83329999Y-102971844D01*
X83330000Y-102971827D01*
X83330000Y-102824000D01*
X82730000Y-102824000D01*
X82230000Y-102824000D01*
X82230000Y-102448499D01*
X82249685Y-102381460D01*
X82302489Y-102335705D01*
X82354000Y-102324499D01*
X82877871Y-102324499D01*
X82877872Y-102324499D01*
X82877877Y-102324498D01*
X82877882Y-102324498D01*
X82879207Y-102324356D01*
X82885841Y-102324000D01*
X83330000Y-102324000D01*
X83330000Y-102176172D01*
X83329999Y-102176155D01*
X83323598Y-102116627D01*
X83305479Y-102068048D01*
X83300495Y-101998356D01*
X83305476Y-101981391D01*
X83324091Y-101931483D01*
X83330500Y-101871873D01*
X83330499Y-101376128D01*
X83324091Y-101316517D01*
X83315757Y-101294173D01*
X83305747Y-101267334D01*
X83300762Y-101197643D01*
X83305747Y-101180665D01*
X83324091Y-101131483D01*
X83330500Y-101071873D01*
X83330499Y-100576128D01*
X83324091Y-100516517D01*
X83305747Y-100467334D01*
X83300762Y-100397643D01*
X83305747Y-100380665D01*
X83324089Y-100331488D01*
X83324088Y-100331488D01*
X83324091Y-100331483D01*
X83330500Y-100271873D01*
X83330499Y-99776128D01*
X83324091Y-99716517D01*
X83320850Y-99707828D01*
X83305747Y-99667334D01*
X83300762Y-99597643D01*
X83305747Y-99580665D01*
X83324089Y-99531488D01*
X83324088Y-99531488D01*
X83324091Y-99531483D01*
X83330500Y-99471873D01*
X83330499Y-98976128D01*
X83324091Y-98916517D01*
X83323401Y-98914666D01*
X83305747Y-98867334D01*
X83300762Y-98797643D01*
X83305747Y-98780665D01*
X83324091Y-98731483D01*
X83330500Y-98671873D01*
X83330499Y-98176128D01*
X83324091Y-98116517D01*
X83305747Y-98067334D01*
X83300762Y-97997643D01*
X83305747Y-97980665D01*
X83324089Y-97931488D01*
X83324088Y-97931488D01*
X83324091Y-97931483D01*
X83330500Y-97871873D01*
X83330499Y-97376128D01*
X83324091Y-97316517D01*
X83305747Y-97267334D01*
X83300762Y-97197643D01*
X83305747Y-97180665D01*
X83324089Y-97131488D01*
X83324088Y-97131488D01*
X83324091Y-97131483D01*
X83330500Y-97071873D01*
X83330499Y-96576128D01*
X83324091Y-96516517D01*
X83305747Y-96467334D01*
X83300762Y-96397643D01*
X83305747Y-96380665D01*
X83324089Y-96331488D01*
X83324088Y-96331488D01*
X83324091Y-96331483D01*
X83330500Y-96271873D01*
X83330499Y-95776128D01*
X83324091Y-95716517D01*
X83305747Y-95667334D01*
X83300762Y-95597643D01*
X83305747Y-95580665D01*
X83324089Y-95531488D01*
X83324088Y-95531488D01*
X83324091Y-95531483D01*
X83330500Y-95471873D01*
X83330499Y-94976128D01*
X83324091Y-94916517D01*
X83312992Y-94886759D01*
X83305747Y-94867334D01*
X83300762Y-94797643D01*
X83305747Y-94780665D01*
X83310814Y-94767081D01*
X83324091Y-94731483D01*
X83330500Y-94671873D01*
X83330499Y-94176128D01*
X83324091Y-94116517D01*
X83317855Y-94099797D01*
X83305747Y-94067334D01*
X83300762Y-93997643D01*
X83305747Y-93980665D01*
X83324089Y-93931488D01*
X83324088Y-93931488D01*
X83324091Y-93931483D01*
X83330500Y-93871873D01*
X83330499Y-93376128D01*
X83324091Y-93316517D01*
X83305480Y-93266618D01*
X83300495Y-93196927D01*
X83305480Y-93179949D01*
X83323597Y-93131375D01*
X83323598Y-93131372D01*
X83329999Y-93071844D01*
X83330000Y-93071827D01*
X83330000Y-92924000D01*
X82885845Y-92924000D01*
X82879213Y-92923644D01*
X82877873Y-92923500D01*
X82877871Y-92923500D01*
X81982129Y-92923500D01*
X81982116Y-92923501D01*
X81980793Y-92923644D01*
X81974159Y-92924000D01*
X81530000Y-92924000D01*
X81530000Y-93368146D01*
X81529645Y-93374777D01*
X81529500Y-93376122D01*
X81529500Y-93871870D01*
X81529501Y-93871876D01*
X81535908Y-93931482D01*
X81549004Y-93966593D01*
X81554252Y-93980665D01*
X81554253Y-93980666D01*
X81559237Y-94050358D01*
X81554253Y-94067331D01*
X81535910Y-94116511D01*
X81535910Y-94116514D01*
X81535909Y-94116517D01*
X81529500Y-94176127D01*
X81529500Y-94176134D01*
X81529500Y-94176135D01*
X81529500Y-94671870D01*
X81529501Y-94671876D01*
X81535908Y-94731482D01*
X81536985Y-94734369D01*
X81554252Y-94780665D01*
X81554253Y-94780666D01*
X81559237Y-94850358D01*
X81554253Y-94867331D01*
X81535910Y-94916511D01*
X81535910Y-94916514D01*
X81535909Y-94916517D01*
X81529500Y-94976127D01*
X81529500Y-94976134D01*
X81529500Y-94976135D01*
X81529500Y-95471870D01*
X81529501Y-95471876D01*
X81535908Y-95531482D01*
X81549004Y-95566593D01*
X81554252Y-95580665D01*
X81554253Y-95580666D01*
X81559237Y-95650358D01*
X81554253Y-95667331D01*
X81535910Y-95716511D01*
X81535910Y-95716514D01*
X81535909Y-95716517D01*
X81529500Y-95776127D01*
X81529500Y-95776134D01*
X81529500Y-95776135D01*
X81529500Y-95776136D01*
X81529501Y-96137000D01*
X81509817Y-96204039D01*
X81457013Y-96249794D01*
X81405501Y-96261000D01*
X80762968Y-96261000D01*
X80754869Y-96260469D01*
X80734817Y-96257829D01*
X80722001Y-96256142D01*
X80721999Y-96256142D01*
X80689132Y-96260469D01*
X80685099Y-96261000D01*
X80602517Y-96271872D01*
X80575028Y-96275491D01*
X80575027Y-96275491D01*
X80438073Y-96332219D01*
X80428417Y-96339628D01*
X80407243Y-96355876D01*
X80342077Y-96381070D01*
X80331758Y-96381500D01*
X80169354Y-96381500D01*
X80136897Y-96388398D01*
X79984197Y-96420855D01*
X79984192Y-96420857D01*
X79811270Y-96497848D01*
X79811265Y-96497851D01*
X79658129Y-96609111D01*
X79531466Y-96749785D01*
X79436821Y-96913715D01*
X79436818Y-96913722D01*
X79385435Y-97071864D01*
X79378326Y-97093744D01*
X79358540Y-97282000D01*
X79378326Y-97470256D01*
X79378327Y-97470259D01*
X79436818Y-97650277D01*
X79436821Y-97650284D01*
X79531467Y-97814216D01*
X79658129Y-97954888D01*
X79811265Y-98066148D01*
X79811270Y-98066151D01*
X79984192Y-98143142D01*
X79984197Y-98143144D01*
X80167031Y-98182006D01*
X80228513Y-98215198D01*
X80248637Y-98241296D01*
X80296537Y-98324262D01*
X80423201Y-98464936D01*
X80576337Y-98576196D01*
X80576342Y-98576199D01*
X80749264Y-98653190D01*
X80749269Y-98653192D01*
X80934426Y-98692548D01*
X80934427Y-98692548D01*
X81123716Y-98692548D01*
X81123718Y-98692548D01*
X81308875Y-98653192D01*
X81361978Y-98629548D01*
X81431226Y-98620263D01*
X81494503Y-98649891D01*
X81531717Y-98709025D01*
X81535702Y-98729565D01*
X81535908Y-98731479D01*
X81535908Y-98731481D01*
X81535909Y-98731483D01*
X81554253Y-98780666D01*
X81559237Y-98850358D01*
X81554253Y-98867331D01*
X81535909Y-98916514D01*
X81535908Y-98916516D01*
X81529501Y-98976116D01*
X81529501Y-98976123D01*
X81529500Y-98976135D01*
X81529500Y-99323288D01*
X81509815Y-99390327D01*
X81457011Y-99436082D01*
X81387853Y-99446026D01*
X81379724Y-99444579D01*
X81374647Y-99443500D01*
X81374646Y-99443500D01*
X81185354Y-99443500D01*
X81152897Y-99450398D01*
X81000197Y-99482855D01*
X81000192Y-99482857D01*
X80827270Y-99559848D01*
X80827265Y-99559851D01*
X80674129Y-99671111D01*
X80547466Y-99811785D01*
X80452821Y-99975715D01*
X80452818Y-99975722D01*
X80394327Y-100155740D01*
X80394326Y-100155744D01*
X80374540Y-100344000D01*
X80394326Y-100532256D01*
X80394327Y-100532259D01*
X80452818Y-100712277D01*
X80452823Y-100712289D01*
X80545176Y-100872250D01*
X80561649Y-100940150D01*
X80545176Y-100996248D01*
X80452823Y-101156208D01*
X80452818Y-101156220D01*
X80407995Y-101294173D01*
X80394326Y-101336242D01*
X80380297Y-101469719D01*
X80375542Y-101514963D01*
X80348957Y-101579577D01*
X80291660Y-101619562D01*
X80265475Y-101625291D01*
X80222516Y-101629909D01*
X80173332Y-101648253D01*
X80103640Y-101653237D01*
X80086667Y-101648253D01*
X80037482Y-101629908D01*
X80037483Y-101629908D01*
X79977883Y-101623501D01*
X79977881Y-101623500D01*
X79977873Y-101623500D01*
X79977865Y-101623500D01*
X79708749Y-101623500D01*
X79641710Y-101603815D01*
X79610374Y-101574988D01*
X79598846Y-101559964D01*
X79598844Y-101559962D01*
X79598843Y-101559961D01*
X79569319Y-101537307D01*
X79567231Y-101535705D01*
X79481240Y-101469721D01*
X79441125Y-101453105D01*
X79344282Y-101412991D01*
X79344280Y-101412990D01*
X79228081Y-101397693D01*
X79228076Y-101397692D01*
X79197313Y-101393642D01*
X79197309Y-101393642D01*
X79178875Y-101396069D01*
X79164443Y-101397969D01*
X79156344Y-101398500D01*
X76303656Y-101398500D01*
X76295556Y-101397969D01*
X76281124Y-101396069D01*
X76262691Y-101393642D01*
X76262686Y-101393642D01*
X76231873Y-101397698D01*
X76231857Y-101397701D01*
X76115719Y-101412990D01*
X76115714Y-101412992D01*
X76018873Y-101453105D01*
X75978762Y-101469719D01*
X75978758Y-101469721D01*
X75890682Y-101537306D01*
X75861154Y-101559963D01*
X75861153Y-101559964D01*
X75849625Y-101574988D01*
X75793196Y-101616190D01*
X75751251Y-101623500D01*
X75482130Y-101623500D01*
X75482123Y-101623501D01*
X75422516Y-101629908D01*
X75373332Y-101648253D01*
X75303640Y-101653237D01*
X75286667Y-101648253D01*
X75237486Y-101629910D01*
X75237485Y-101629909D01*
X75237483Y-101629909D01*
X75177873Y-101623500D01*
X75177863Y-101623500D01*
X74682129Y-101623500D01*
X74682123Y-101623501D01*
X74622516Y-101629908D01*
X74573332Y-101648253D01*
X74503640Y-101653237D01*
X74486667Y-101648253D01*
X74437486Y-101629910D01*
X74437485Y-101629909D01*
X74437483Y-101629909D01*
X74377873Y-101623500D01*
X74377863Y-101623500D01*
X73882129Y-101623500D01*
X73882123Y-101623501D01*
X73822517Y-101629908D01*
X73772616Y-101648520D01*
X73702925Y-101653503D01*
X73685953Y-101648519D01*
X73637383Y-101630403D01*
X73637372Y-101630401D01*
X73577844Y-101624000D01*
X73530000Y-101624000D01*
X73530000Y-101781893D01*
X73510315Y-101848932D01*
X73505267Y-101856204D01*
X73486204Y-101881668D01*
X73486202Y-101881671D01*
X73446182Y-101988972D01*
X73404311Y-102044906D01*
X73338846Y-102069323D01*
X73270573Y-102054471D01*
X73221168Y-102005066D01*
X73213818Y-101988972D01*
X73173797Y-101881671D01*
X73173795Y-101881668D01*
X73154733Y-101856204D01*
X73130316Y-101790739D01*
X73130000Y-101781893D01*
X73130000Y-101624000D01*
X73082155Y-101624000D01*
X73022627Y-101630401D01*
X73022623Y-101630402D01*
X72974046Y-101648520D01*
X72904354Y-101653503D01*
X72887382Y-101648519D01*
X72837488Y-101629910D01*
X72837484Y-101629909D01*
X72837483Y-101629909D01*
X72777873Y-101623500D01*
X72777863Y-101623500D01*
X72282129Y-101623500D01*
X72282123Y-101623501D01*
X72222516Y-101629908D01*
X72173332Y-101648253D01*
X72103640Y-101653237D01*
X72086667Y-101648253D01*
X72037482Y-101629908D01*
X72037483Y-101629908D01*
X71977883Y-101623501D01*
X71977881Y-101623500D01*
X71977873Y-101623500D01*
X71977865Y-101623500D01*
X71654000Y-101623500D01*
X71586961Y-101603815D01*
X71541206Y-101551011D01*
X71530000Y-101499500D01*
X71530000Y-101376172D01*
X71529999Y-101376155D01*
X71523598Y-101316627D01*
X71505479Y-101268048D01*
X71500495Y-101198356D01*
X71505476Y-101181391D01*
X71524091Y-101131483D01*
X71530500Y-101071873D01*
X71530499Y-100576128D01*
X71524091Y-100516517D01*
X71505747Y-100467334D01*
X71500762Y-100397643D01*
X71505747Y-100380665D01*
X71524089Y-100331488D01*
X71524091Y-100331483D01*
X71530224Y-100274444D01*
X71556962Y-100209893D01*
X71614355Y-100170045D01*
X71653513Y-100163700D01*
X71773444Y-100163700D01*
X71773446Y-100163700D01*
X71958603Y-100124344D01*
X72131530Y-100047351D01*
X72284671Y-99936088D01*
X72411333Y-99795416D01*
X72505979Y-99631484D01*
X72564474Y-99451456D01*
X72584260Y-99263200D01*
X72564474Y-99074944D01*
X72505979Y-98894916D01*
X72411333Y-98730984D01*
X72284671Y-98590312D01*
X72284670Y-98590311D01*
X72131534Y-98479051D01*
X72131529Y-98479048D01*
X71958607Y-98402057D01*
X71958602Y-98402055D01*
X71812801Y-98371065D01*
X71773446Y-98362700D01*
X71654499Y-98362700D01*
X71587460Y-98343015D01*
X71541705Y-98290211D01*
X71530499Y-98238700D01*
X71530499Y-98176129D01*
X71530498Y-98176123D01*
X71524091Y-98116517D01*
X71505747Y-98067334D01*
X71500762Y-97997643D01*
X71505747Y-97980665D01*
X71524089Y-97931488D01*
X71524088Y-97931488D01*
X71524091Y-97931483D01*
X71530500Y-97871873D01*
X71530499Y-97376128D01*
X71524091Y-97316517D01*
X71505747Y-97267334D01*
X71500762Y-97197643D01*
X71505747Y-97180665D01*
X71524089Y-97131488D01*
X71524088Y-97131488D01*
X71524091Y-97131483D01*
X71530500Y-97071873D01*
X71530499Y-96874450D01*
X71530839Y-96867966D01*
X71532236Y-96854670D01*
X71535460Y-96824000D01*
X71532496Y-96795804D01*
X71530839Y-96780031D01*
X71530499Y-96773546D01*
X71530499Y-96576129D01*
X71530498Y-96576123D01*
X71524465Y-96520000D01*
X71524091Y-96516517D01*
X71505747Y-96467334D01*
X71500762Y-96397643D01*
X71505747Y-96380665D01*
X71524089Y-96331488D01*
X71524088Y-96331488D01*
X71524091Y-96331483D01*
X71530500Y-96271873D01*
X71530499Y-95776128D01*
X71524091Y-95716517D01*
X71505747Y-95667334D01*
X71500762Y-95597643D01*
X71505747Y-95580665D01*
X71524089Y-95531488D01*
X71524088Y-95531488D01*
X71524091Y-95531483D01*
X71530500Y-95471873D01*
X71530499Y-94976128D01*
X71524091Y-94916517D01*
X71505480Y-94866618D01*
X71500495Y-94796927D01*
X71505480Y-94779949D01*
X71523597Y-94731375D01*
X71523598Y-94731372D01*
X71529999Y-94671844D01*
X71530000Y-94671827D01*
X71530000Y-94624000D01*
X71372107Y-94624000D01*
X71305068Y-94604315D01*
X71297796Y-94599267D01*
X71272331Y-94580204D01*
X71272328Y-94580202D01*
X71137482Y-94529908D01*
X71137483Y-94529908D01*
X71077883Y-94523501D01*
X71077881Y-94523500D01*
X71077873Y-94523500D01*
X71077865Y-94523500D01*
X70554000Y-94523500D01*
X70486961Y-94503815D01*
X70441206Y-94451011D01*
X70430000Y-94399500D01*
X70430000Y-93824000D01*
X69730000Y-93824000D01*
X69730000Y-93871844D01*
X69736401Y-93931372D01*
X69736403Y-93931380D01*
X69754786Y-93980667D01*
X69759770Y-94050359D01*
X69754786Y-94067333D01*
X69736403Y-94116619D01*
X69736401Y-94116627D01*
X69730000Y-94176155D01*
X69730000Y-94258727D01*
X69710315Y-94325766D01*
X69657511Y-94371521D01*
X69588353Y-94381465D01*
X69580219Y-94380017D01*
X69527525Y-94368816D01*
X69436646Y-94349500D01*
X69247354Y-94349500D01*
X69197375Y-94360123D01*
X69062199Y-94388855D01*
X68918358Y-94452898D01*
X68849108Y-94462182D01*
X68785831Y-94432554D01*
X68748618Y-94373419D01*
X68744304Y-94329889D01*
X68745500Y-94314696D01*
X68745500Y-92924000D01*
X69730000Y-92924000D01*
X69730000Y-93071844D01*
X69736401Y-93131372D01*
X69736403Y-93131380D01*
X69754786Y-93180667D01*
X69759770Y-93250359D01*
X69754786Y-93267333D01*
X69736403Y-93316619D01*
X69736401Y-93316627D01*
X69730000Y-93376155D01*
X69730000Y-93424000D01*
X70330000Y-93424000D01*
X70330000Y-92924000D01*
X70830000Y-92924000D01*
X70830000Y-94224000D01*
X71530000Y-94224000D01*
X71530000Y-94176172D01*
X71529999Y-94176155D01*
X71523597Y-94116622D01*
X71523597Y-94116621D01*
X71505214Y-94067335D01*
X71500228Y-93997644D01*
X71505214Y-93980665D01*
X71523597Y-93931378D01*
X71523597Y-93931377D01*
X71529999Y-93871844D01*
X71530000Y-93871827D01*
X71530000Y-92924000D01*
X71930000Y-92924000D01*
X71930000Y-93624000D01*
X71977828Y-93624000D01*
X71977844Y-93623999D01*
X72037377Y-93617597D01*
X72037378Y-93617597D01*
X72086665Y-93599214D01*
X72156356Y-93594228D01*
X72173335Y-93599214D01*
X72222621Y-93617597D01*
X72282155Y-93623999D01*
X72282172Y-93624000D01*
X72330000Y-93624000D01*
X72330000Y-92924000D01*
X72730000Y-92924000D01*
X72730000Y-93624000D01*
X72777828Y-93624000D01*
X72777844Y-93623999D01*
X72837377Y-93617597D01*
X72837378Y-93617597D01*
X72886665Y-93599214D01*
X72956356Y-93594228D01*
X72973335Y-93599214D01*
X73022621Y-93617597D01*
X73082155Y-93623999D01*
X73082172Y-93624000D01*
X73130000Y-93624000D01*
X73130000Y-92924000D01*
X73530000Y-92924000D01*
X73530000Y-93624000D01*
X73577828Y-93624000D01*
X73577844Y-93623999D01*
X73637377Y-93617597D01*
X73637378Y-93617597D01*
X73686665Y-93599214D01*
X73756356Y-93594228D01*
X73773335Y-93599214D01*
X73822621Y-93617597D01*
X73882155Y-93623999D01*
X73882172Y-93624000D01*
X73930000Y-93624000D01*
X74330000Y-93624000D01*
X74377828Y-93624000D01*
X74377844Y-93623999D01*
X74437377Y-93617597D01*
X74437378Y-93617597D01*
X74486665Y-93599214D01*
X74556356Y-93594228D01*
X74573335Y-93599214D01*
X74622621Y-93617597D01*
X74622623Y-93617598D01*
X74677294Y-93623476D01*
X74741846Y-93650214D01*
X74781694Y-93707606D01*
X74787360Y-93733803D01*
X74806326Y-93914256D01*
X74806327Y-93914259D01*
X74864818Y-94094277D01*
X74864821Y-94094284D01*
X74959467Y-94258216D01*
X75070441Y-94381465D01*
X75086129Y-94398888D01*
X75239265Y-94510148D01*
X75239270Y-94510151D01*
X75412192Y-94587142D01*
X75412197Y-94587144D01*
X75597354Y-94626500D01*
X75597355Y-94626500D01*
X75786644Y-94626500D01*
X75786646Y-94626500D01*
X75971803Y-94587144D01*
X76144730Y-94510151D01*
X76297871Y-94398888D01*
X76424533Y-94258216D01*
X76519179Y-94094284D01*
X76577674Y-93914256D01*
X76596510Y-93735037D01*
X76623095Y-93670424D01*
X76680392Y-93630439D01*
X76719831Y-93624000D01*
X76777828Y-93624000D01*
X76777844Y-93623999D01*
X76837377Y-93617597D01*
X76837378Y-93617597D01*
X76886665Y-93599214D01*
X76956356Y-93594228D01*
X76973335Y-93599214D01*
X77022621Y-93617597D01*
X77082155Y-93623999D01*
X77082172Y-93624000D01*
X77130000Y-93624000D01*
X77130000Y-92924000D01*
X77530000Y-92924000D01*
X77530000Y-93624000D01*
X77577828Y-93624000D01*
X77577844Y-93623999D01*
X77637377Y-93617597D01*
X77637378Y-93617597D01*
X77686665Y-93599214D01*
X77756356Y-93594228D01*
X77773335Y-93599214D01*
X77822621Y-93617597D01*
X77882155Y-93623999D01*
X77882172Y-93624000D01*
X77930000Y-93624000D01*
X77930000Y-92924000D01*
X78330000Y-92924000D01*
X78330000Y-93624000D01*
X78377828Y-93624000D01*
X78377844Y-93623999D01*
X78437377Y-93617597D01*
X78437378Y-93617597D01*
X78486665Y-93599214D01*
X78556356Y-93594228D01*
X78573335Y-93599214D01*
X78622621Y-93617597D01*
X78682155Y-93623999D01*
X78682172Y-93624000D01*
X78730000Y-93624000D01*
X78730000Y-92924000D01*
X79130000Y-92924000D01*
X79130000Y-93624000D01*
X79177828Y-93624000D01*
X79177844Y-93623999D01*
X79237377Y-93617597D01*
X79237378Y-93617597D01*
X79286665Y-93599214D01*
X79356356Y-93594228D01*
X79373335Y-93599214D01*
X79422621Y-93617597D01*
X79482155Y-93623999D01*
X79482172Y-93624000D01*
X79530000Y-93624000D01*
X79530000Y-92924000D01*
X79930000Y-92924000D01*
X79930000Y-93624000D01*
X79977828Y-93624000D01*
X79977844Y-93623999D01*
X80037377Y-93617597D01*
X80037378Y-93617597D01*
X80086665Y-93599214D01*
X80156356Y-93594228D01*
X80173335Y-93599214D01*
X80222621Y-93617597D01*
X80282155Y-93623999D01*
X80282172Y-93624000D01*
X80330000Y-93624000D01*
X80330000Y-92924000D01*
X80730000Y-92924000D01*
X80730000Y-93624000D01*
X80777828Y-93624000D01*
X80777844Y-93623999D01*
X80837377Y-93617597D01*
X80837378Y-93617597D01*
X80886665Y-93599214D01*
X80956356Y-93594228D01*
X80973335Y-93599214D01*
X81022621Y-93617597D01*
X81082155Y-93623999D01*
X81082172Y-93624000D01*
X81130000Y-93624000D01*
X81130000Y-92924000D01*
X80730000Y-92924000D01*
X80330000Y-92924000D01*
X79930000Y-92924000D01*
X79530000Y-92924000D01*
X79130000Y-92924000D01*
X78730000Y-92924000D01*
X78330000Y-92924000D01*
X77930000Y-92924000D01*
X77530000Y-92924000D01*
X77130000Y-92924000D01*
X76130998Y-92924000D01*
X76080562Y-92913279D01*
X75971807Y-92864857D01*
X75971802Y-92864855D01*
X75826001Y-92833865D01*
X75786646Y-92825500D01*
X75597354Y-92825500D01*
X75564897Y-92832398D01*
X75412197Y-92864855D01*
X75412192Y-92864857D01*
X75303438Y-92913279D01*
X75253002Y-92924000D01*
X74330000Y-92924000D01*
X74330000Y-93624000D01*
X73930000Y-93624000D01*
X73930000Y-92924000D01*
X73530000Y-92924000D01*
X73130000Y-92924000D01*
X72730000Y-92924000D01*
X72330000Y-92924000D01*
X71930000Y-92924000D01*
X71530000Y-92924000D01*
X70830000Y-92924000D01*
X70330000Y-92924000D01*
X69730000Y-92924000D01*
X68745500Y-92924000D01*
X68745500Y-92533304D01*
X68743565Y-92508722D01*
X68742598Y-92496431D01*
X68724810Y-92435206D01*
X68721554Y-92424000D01*
X69730000Y-92424000D01*
X70330000Y-92424000D01*
X70330000Y-91824000D01*
X70830000Y-91824000D01*
X70830000Y-92424000D01*
X71346000Y-92424000D01*
X71413039Y-92443685D01*
X71458794Y-92496489D01*
X71463327Y-92517327D01*
X71470000Y-92524000D01*
X71530000Y-92524000D01*
X71530000Y-91824000D01*
X71930000Y-91824000D01*
X71930000Y-92524000D01*
X72330000Y-92524000D01*
X72330000Y-91824000D01*
X72730000Y-91824000D01*
X72730000Y-92524000D01*
X73130000Y-92524000D01*
X73130000Y-91824000D01*
X73530000Y-91824000D01*
X73530000Y-92524000D01*
X73930000Y-92524000D01*
X73930000Y-91824000D01*
X74330000Y-91824000D01*
X74330000Y-92524000D01*
X74730000Y-92524000D01*
X74730000Y-91824000D01*
X75130000Y-91824000D01*
X75130000Y-92524000D01*
X75530000Y-92524000D01*
X75530000Y-91824000D01*
X75930000Y-91824000D01*
X75930000Y-92524000D01*
X76330000Y-92524000D01*
X76330000Y-91824000D01*
X76730000Y-91824000D01*
X76730000Y-92524000D01*
X77130000Y-92524000D01*
X77130000Y-91824000D01*
X77530000Y-91824000D01*
X77530000Y-92524000D01*
X77930000Y-92524000D01*
X77930000Y-91824000D01*
X78330000Y-91824000D01*
X78330000Y-92524000D01*
X78730000Y-92524000D01*
X78730000Y-91824000D01*
X79130000Y-91824000D01*
X79130000Y-92524000D01*
X79530000Y-92524000D01*
X79530000Y-91824000D01*
X79930000Y-91824000D01*
X79930000Y-92524000D01*
X80330000Y-92524000D01*
X80330000Y-91824000D01*
X80730000Y-91824000D01*
X80730000Y-92524000D01*
X81130000Y-92524000D01*
X81130000Y-91824000D01*
X81530000Y-91824000D01*
X81530000Y-92524000D01*
X81590000Y-92524000D01*
X81599976Y-92514023D01*
X81609685Y-92480961D01*
X81662489Y-92435206D01*
X81714000Y-92424000D01*
X82230000Y-92424000D01*
X82230000Y-91824000D01*
X82730000Y-91824000D01*
X82730000Y-92424000D01*
X83330000Y-92424000D01*
X83330000Y-92276172D01*
X83329999Y-92276155D01*
X83323598Y-92216627D01*
X83323596Y-92216620D01*
X83273354Y-92081913D01*
X83273350Y-92081906D01*
X83187190Y-91966812D01*
X83187187Y-91966809D01*
X83072093Y-91880649D01*
X83072086Y-91880645D01*
X82937379Y-91830403D01*
X82937372Y-91830401D01*
X82877844Y-91824000D01*
X82730000Y-91824000D01*
X82230000Y-91824000D01*
X82082155Y-91824000D01*
X82022627Y-91830401D01*
X82022620Y-91830403D01*
X81879601Y-91883746D01*
X81878983Y-91882091D01*
X81821145Y-91894669D01*
X81780748Y-91882807D01*
X81780399Y-91883746D01*
X81637379Y-91830403D01*
X81637372Y-91830401D01*
X81577844Y-91824000D01*
X81530000Y-91824000D01*
X81130000Y-91824000D01*
X81082155Y-91824000D01*
X81022627Y-91830401D01*
X81022619Y-91830403D01*
X80973333Y-91848786D01*
X80903641Y-91853770D01*
X80886667Y-91848786D01*
X80837380Y-91830403D01*
X80837372Y-91830401D01*
X80777844Y-91824000D01*
X80730000Y-91824000D01*
X80330000Y-91824000D01*
X80282155Y-91824000D01*
X80222627Y-91830401D01*
X80222619Y-91830403D01*
X80173333Y-91848786D01*
X80103641Y-91853770D01*
X80086667Y-91848786D01*
X80037380Y-91830403D01*
X80037372Y-91830401D01*
X79977844Y-91824000D01*
X79930000Y-91824000D01*
X79530000Y-91824000D01*
X79482155Y-91824000D01*
X79422627Y-91830401D01*
X79422619Y-91830403D01*
X79373333Y-91848786D01*
X79303641Y-91853770D01*
X79286667Y-91848786D01*
X79237380Y-91830403D01*
X79237372Y-91830401D01*
X79177844Y-91824000D01*
X79130000Y-91824000D01*
X78730000Y-91824000D01*
X78682155Y-91824000D01*
X78622627Y-91830401D01*
X78622619Y-91830403D01*
X78573333Y-91848786D01*
X78503641Y-91853770D01*
X78486667Y-91848786D01*
X78437380Y-91830403D01*
X78437372Y-91830401D01*
X78377844Y-91824000D01*
X78330000Y-91824000D01*
X77930000Y-91824000D01*
X77882155Y-91824000D01*
X77822627Y-91830401D01*
X77822619Y-91830403D01*
X77773333Y-91848786D01*
X77703641Y-91853770D01*
X77686667Y-91848786D01*
X77637380Y-91830403D01*
X77637372Y-91830401D01*
X77577844Y-91824000D01*
X77530000Y-91824000D01*
X77130000Y-91824000D01*
X77082155Y-91824000D01*
X77022627Y-91830401D01*
X77022619Y-91830403D01*
X76973333Y-91848786D01*
X76903641Y-91853770D01*
X76886667Y-91848786D01*
X76837380Y-91830403D01*
X76837372Y-91830401D01*
X76777844Y-91824000D01*
X76730000Y-91824000D01*
X76330000Y-91824000D01*
X76282155Y-91824000D01*
X76222627Y-91830401D01*
X76222619Y-91830403D01*
X76173333Y-91848786D01*
X76103641Y-91853770D01*
X76086667Y-91848786D01*
X76037380Y-91830403D01*
X76037372Y-91830401D01*
X75977844Y-91824000D01*
X75930000Y-91824000D01*
X75530000Y-91824000D01*
X75482155Y-91824000D01*
X75422627Y-91830401D01*
X75422619Y-91830403D01*
X75373333Y-91848786D01*
X75303641Y-91853770D01*
X75286667Y-91848786D01*
X75237380Y-91830403D01*
X75237372Y-91830401D01*
X75177844Y-91824000D01*
X75130000Y-91824000D01*
X74730000Y-91824000D01*
X74682155Y-91824000D01*
X74622627Y-91830401D01*
X74622619Y-91830403D01*
X74573333Y-91848786D01*
X74503641Y-91853770D01*
X74486667Y-91848786D01*
X74437380Y-91830403D01*
X74437372Y-91830401D01*
X74377844Y-91824000D01*
X74330000Y-91824000D01*
X73930000Y-91824000D01*
X73882155Y-91824000D01*
X73822627Y-91830401D01*
X73822619Y-91830403D01*
X73773333Y-91848786D01*
X73703641Y-91853770D01*
X73686667Y-91848786D01*
X73637380Y-91830403D01*
X73637372Y-91830401D01*
X73577844Y-91824000D01*
X73530000Y-91824000D01*
X73130000Y-91824000D01*
X73082155Y-91824000D01*
X73022627Y-91830401D01*
X73022619Y-91830403D01*
X72973333Y-91848786D01*
X72903641Y-91853770D01*
X72886667Y-91848786D01*
X72837380Y-91830403D01*
X72837372Y-91830401D01*
X72777844Y-91824000D01*
X72730000Y-91824000D01*
X72330000Y-91824000D01*
X72282155Y-91824000D01*
X72222627Y-91830401D01*
X72222619Y-91830403D01*
X72173333Y-91848786D01*
X72103641Y-91853770D01*
X72086667Y-91848786D01*
X72037380Y-91830403D01*
X72037372Y-91830401D01*
X71977844Y-91824000D01*
X71930000Y-91824000D01*
X71530000Y-91824000D01*
X71482155Y-91824000D01*
X71422627Y-91830401D01*
X71422620Y-91830403D01*
X71279601Y-91883746D01*
X71278983Y-91882091D01*
X71221145Y-91894669D01*
X71180748Y-91882807D01*
X71180399Y-91883746D01*
X71037379Y-91830403D01*
X71037372Y-91830401D01*
X70977844Y-91824000D01*
X70830000Y-91824000D01*
X70330000Y-91824000D01*
X70182155Y-91824000D01*
X70122627Y-91830401D01*
X70122620Y-91830403D01*
X69987913Y-91880645D01*
X69987906Y-91880649D01*
X69872812Y-91966809D01*
X69872809Y-91966812D01*
X69786649Y-92081906D01*
X69786645Y-92081913D01*
X69736403Y-92216620D01*
X69736401Y-92216627D01*
X69730000Y-92276155D01*
X69730000Y-92424000D01*
X68721554Y-92424000D01*
X68696745Y-92338606D01*
X68696744Y-92338603D01*
X68696744Y-92338602D01*
X68613081Y-92197135D01*
X68613079Y-92197133D01*
X68613076Y-92197129D01*
X68496870Y-92080923D01*
X68496862Y-92080917D01*
X68418681Y-92034681D01*
X68355398Y-91997256D01*
X68355397Y-91997255D01*
X68355396Y-91997255D01*
X68355393Y-91997254D01*
X68197573Y-91951402D01*
X68197567Y-91951401D01*
X68160696Y-91948500D01*
X68160694Y-91948500D01*
X67729306Y-91948500D01*
X67729304Y-91948500D01*
X67692432Y-91951401D01*
X67692426Y-91951402D01*
X67534606Y-91997254D01*
X67534603Y-91997255D01*
X67393140Y-92080915D01*
X67386974Y-92085699D01*
X67385174Y-92083379D01*
X67335913Y-92110230D01*
X67266225Y-92105193D01*
X67233992Y-92084461D01*
X67232722Y-92086100D01*
X67226552Y-92081314D01*
X67085196Y-91997717D01*
X67085193Y-91997716D01*
X66927494Y-91951900D01*
X66927497Y-91951900D01*
X66925000Y-91951703D01*
X66925000Y-93550000D01*
X66905315Y-93617039D01*
X66852511Y-93662794D01*
X66801000Y-93674000D01*
X66549000Y-93674000D01*
X66481961Y-93654315D01*
X66436206Y-93601511D01*
X66425000Y-93550000D01*
X66425000Y-91951703D01*
X66422067Y-91948992D01*
X66363871Y-91936790D01*
X66314096Y-91887758D01*
X66299159Y-91840481D01*
X66290674Y-91759744D01*
X66232179Y-91579716D01*
X66137533Y-91415784D01*
X66010871Y-91275112D01*
X66010870Y-91275111D01*
X65857734Y-91163851D01*
X65857729Y-91163848D01*
X65684807Y-91086857D01*
X65684802Y-91086855D01*
X65499964Y-91047567D01*
X65438482Y-91014375D01*
X65404706Y-90953212D01*
X65409358Y-90883497D01*
X65438064Y-90838595D01*
X65558320Y-90718339D01*
X65562798Y-90712677D01*
X65564577Y-90714083D01*
X65608343Y-90674694D01*
X65677302Y-90663451D01*
X65741393Y-90691274D01*
X65759231Y-90709584D01*
X65759287Y-90709655D01*
X65759288Y-90709656D01*
X65883344Y-90833712D01*
X66032666Y-90925814D01*
X66199203Y-90980999D01*
X66301991Y-90991500D01*
X67302008Y-90991499D01*
X67302016Y-90991498D01*
X67302019Y-90991498D01*
X67358302Y-90985748D01*
X67404797Y-90980999D01*
X67571334Y-90925814D01*
X67720656Y-90833712D01*
X67844712Y-90709656D01*
X67936814Y-90560334D01*
X67991999Y-90393797D01*
X68002500Y-90291009D01*
X68002499Y-89540992D01*
X67998893Y-89505696D01*
X67991999Y-89438203D01*
X67991998Y-89438200D01*
X67969436Y-89370112D01*
X67936814Y-89271666D01*
X67844712Y-89122344D01*
X67720656Y-88998288D01*
X67717819Y-88996538D01*
X67716283Y-88994830D01*
X67714989Y-88993807D01*
X67715163Y-88993585D01*
X67671096Y-88944594D01*
X67659872Y-88875632D01*
X67687713Y-88811549D01*
X67717817Y-88785462D01*
X67720656Y-88783712D01*
X67844712Y-88659656D01*
X67936814Y-88510334D01*
X67991999Y-88343797D01*
X68002500Y-88241009D01*
X68002499Y-87624000D01*
X68280000Y-87624000D01*
X68280000Y-88171844D01*
X68286401Y-88231372D01*
X68286403Y-88231379D01*
X68336645Y-88366086D01*
X68336649Y-88366093D01*
X68422809Y-88481187D01*
X68422812Y-88481190D01*
X68537906Y-88567350D01*
X68537913Y-88567354D01*
X68672620Y-88617596D01*
X68672627Y-88617598D01*
X68732155Y-88623999D01*
X68732172Y-88624000D01*
X69280000Y-88624000D01*
X69280000Y-87624000D01*
X68280000Y-87624000D01*
X68002499Y-87624000D01*
X68002499Y-87490992D01*
X68000375Y-87470204D01*
X67991999Y-87388203D01*
X67991998Y-87388200D01*
X67936814Y-87221666D01*
X67844712Y-87072344D01*
X67720656Y-86948288D01*
X67609842Y-86879938D01*
X67571336Y-86856187D01*
X67571331Y-86856185D01*
X67569862Y-86855698D01*
X67404797Y-86801001D01*
X67404795Y-86801000D01*
X67302010Y-86790500D01*
X66301998Y-86790500D01*
X66301980Y-86790501D01*
X66199203Y-86801000D01*
X66199200Y-86801001D01*
X66032668Y-86856185D01*
X66032663Y-86856187D01*
X65883342Y-86948289D01*
X65759288Y-87072343D01*
X65754807Y-87078011D01*
X65753007Y-87076588D01*
X65709273Y-87115912D01*
X65640309Y-87127123D01*
X65576231Y-87099269D01*
X65561152Y-87083784D01*
X65434657Y-86957289D01*
X65434656Y-86957288D01*
X65285334Y-86865186D01*
X65118797Y-86810001D01*
X65118795Y-86810000D01*
X65016010Y-86799500D01*
X64015998Y-86799500D01*
X64015980Y-86799501D01*
X63913203Y-86810000D01*
X63913200Y-86810001D01*
X63746668Y-86865185D01*
X63746663Y-86865187D01*
X63597342Y-86957289D01*
X63473289Y-87081342D01*
X63473288Y-87081344D01*
X63460037Y-87102826D01*
X63408091Y-87149549D01*
X63339129Y-87160772D01*
X63275046Y-87132928D01*
X63236190Y-87074860D01*
X63230500Y-87037728D01*
X63230500Y-86683759D01*
X63232034Y-86664313D01*
X63232459Y-86661637D01*
X63241223Y-86617576D01*
X63247146Y-86587797D01*
X63258271Y-86555712D01*
X63266608Y-86539350D01*
X63270268Y-86533104D01*
X63299169Y-86489852D01*
X63314570Y-86471086D01*
X63327086Y-86458570D01*
X63345852Y-86443169D01*
X63389104Y-86414268D01*
X63395350Y-86410608D01*
X63411712Y-86402271D01*
X63443797Y-86391146D01*
X63505541Y-86378865D01*
X63517666Y-86376453D01*
X63520378Y-86376023D01*
X63539760Y-86374500D01*
X68163636Y-86374500D01*
X68230675Y-86394185D01*
G37*
%TD.AperFunction*%
%TA.AperFunction,Conductor*%
G36*
X70773039Y-101544184D02*
G01*
X70818794Y-101596988D01*
X70830000Y-101648499D01*
X70830000Y-102700000D01*
X70810315Y-102767039D01*
X70757511Y-102812794D01*
X70706000Y-102824000D01*
X70454000Y-102824000D01*
X70386961Y-102804315D01*
X70341206Y-102751511D01*
X70330000Y-102700000D01*
X70330000Y-101808000D01*
X70349685Y-101740961D01*
X70402489Y-101695206D01*
X70423327Y-101690672D01*
X70430000Y-101684000D01*
X70430000Y-101648499D01*
X70449685Y-101581460D01*
X70502489Y-101535705D01*
X70553997Y-101524499D01*
X70706001Y-101524499D01*
X70773039Y-101544184D01*
G37*
%TD.AperFunction*%
%TA.AperFunction,Conductor*%
G36*
X87314530Y-89788890D02*
G01*
X87314866Y-89789134D01*
X87391875Y-89845085D01*
X87482405Y-89874500D01*
X87529901Y-89874500D01*
X87920239Y-89874500D01*
X87939621Y-89876024D01*
X87942330Y-89876453D01*
X87968979Y-89881753D01*
X88016198Y-89891145D01*
X88048291Y-89902274D01*
X88064633Y-89910600D01*
X88070909Y-89914278D01*
X88114137Y-89943162D01*
X88132923Y-89958580D01*
X88145418Y-89971075D01*
X88160839Y-89989865D01*
X88189714Y-90033080D01*
X88193407Y-90039381D01*
X88201724Y-90055707D01*
X88212853Y-90087803D01*
X88227541Y-90161640D01*
X88227966Y-90164317D01*
X88229500Y-90183763D01*
X88229500Y-90244975D01*
X88209815Y-90312014D01*
X88157011Y-90357769D01*
X88087853Y-90367713D01*
X88040404Y-90350514D01*
X87927128Y-90280645D01*
X87927119Y-90280641D01*
X87760697Y-90225494D01*
X87760690Y-90225493D01*
X87657986Y-90215000D01*
X87520500Y-90215000D01*
X87520500Y-94660238D01*
X87500815Y-94727277D01*
X87495100Y-94734369D01*
X87495100Y-98677000D01*
X87475415Y-98744039D01*
X87422611Y-98789794D01*
X87372250Y-98800749D01*
X87372000Y-98801000D01*
X87372000Y-99672500D01*
X87352315Y-99739539D01*
X87299511Y-99785294D01*
X87248000Y-99796500D01*
X86996000Y-99796500D01*
X86928961Y-99776815D01*
X86883206Y-99724011D01*
X86872000Y-99672500D01*
X86872000Y-98543000D01*
X86891685Y-98475961D01*
X86944489Y-98430206D01*
X86994849Y-98419250D01*
X86995100Y-98419000D01*
X86995100Y-94315762D01*
X87014785Y-94248723D01*
X87020500Y-94241630D01*
X87020500Y-90215000D01*
X87017296Y-90211796D01*
X86961166Y-90195315D01*
X86915411Y-90142511D01*
X86905467Y-90073353D01*
X86934492Y-90009797D01*
X86965080Y-89984270D01*
X87009365Y-89958081D01*
X87125581Y-89841865D01*
X87134912Y-89826087D01*
X87185980Y-89778404D01*
X87254722Y-89765900D01*
X87314530Y-89788890D01*
G37*
%TD.AperFunction*%
%TA.AperFunction,Conductor*%
G36*
X64709039Y-89669685D02*
G01*
X64754794Y-89722489D01*
X64766000Y-89774000D01*
X64766000Y-90999999D01*
X64796157Y-90999999D01*
X64863196Y-91019684D01*
X64908951Y-91072488D01*
X64918895Y-91141646D01*
X64889870Y-91205202D01*
X64869042Y-91224317D01*
X64799129Y-91275111D01*
X64672466Y-91415785D01*
X64577821Y-91579715D01*
X64577818Y-91579722D01*
X64519327Y-91759740D01*
X64519326Y-91759744D01*
X64512573Y-91824000D01*
X64510893Y-91839980D01*
X64484308Y-91904595D01*
X64427010Y-91944579D01*
X64377846Y-91950636D01*
X64350698Y-91948500D01*
X64350694Y-91948500D01*
X63919306Y-91948500D01*
X63919304Y-91948500D01*
X63882432Y-91951401D01*
X63882426Y-91951402D01*
X63724606Y-91997254D01*
X63724603Y-91997255D01*
X63583137Y-92080917D01*
X63583129Y-92080923D01*
X63466923Y-92197129D01*
X63466917Y-92197137D01*
X63383255Y-92338603D01*
X63383254Y-92338606D01*
X63337402Y-92496426D01*
X63337401Y-92496432D01*
X63334500Y-92533304D01*
X63334500Y-94314696D01*
X63337401Y-94351567D01*
X63337402Y-94351573D01*
X63383254Y-94509393D01*
X63383255Y-94509396D01*
X63383256Y-94509398D01*
X63395386Y-94529908D01*
X63466917Y-94650862D01*
X63466923Y-94650870D01*
X63583129Y-94767076D01*
X63583133Y-94767079D01*
X63583135Y-94767081D01*
X63724602Y-94850744D01*
X63766224Y-94862836D01*
X63882426Y-94896597D01*
X63882429Y-94896597D01*
X63882431Y-94896598D01*
X63894722Y-94897565D01*
X63919304Y-94899500D01*
X63919306Y-94899500D01*
X64350696Y-94899500D01*
X64356500Y-94899043D01*
X64387569Y-94896598D01*
X64422112Y-94886562D01*
X64491981Y-94886759D01*
X64544391Y-94917956D01*
X64657073Y-95030638D01*
X64662414Y-95036728D01*
X64682601Y-95063036D01*
X64712127Y-95085692D01*
X64712129Y-95085694D01*
X64712137Y-95085700D01*
X64800206Y-95153279D01*
X64800208Y-95153280D01*
X64815025Y-95159416D01*
X64840321Y-95169894D01*
X64937165Y-95210009D01*
X65047236Y-95224500D01*
X65047241Y-95224500D01*
X65048829Y-95224709D01*
X65048847Y-95224711D01*
X65084137Y-95229357D01*
X65084138Y-95229357D01*
X65096734Y-95227698D01*
X65116998Y-95225030D01*
X65125097Y-95224500D01*
X66422936Y-95224500D01*
X66489975Y-95244185D01*
X66510617Y-95260819D01*
X67936617Y-96686819D01*
X67970102Y-96748142D01*
X67965118Y-96817834D01*
X67923246Y-96873767D01*
X67857782Y-96898184D01*
X67848936Y-96898500D01*
X67729304Y-96898500D01*
X67692432Y-96901401D01*
X67692426Y-96901402D01*
X67534606Y-96947254D01*
X67534603Y-96947255D01*
X67393137Y-97030917D01*
X67386969Y-97035702D01*
X67385072Y-97033256D01*
X67336358Y-97059857D01*
X67266666Y-97054873D01*
X67234296Y-97034069D01*
X67233031Y-97035702D01*
X67226862Y-97030917D01*
X67085396Y-96947255D01*
X67085393Y-96947254D01*
X66927573Y-96901402D01*
X66927567Y-96901401D01*
X66890696Y-96898500D01*
X66890694Y-96898500D01*
X66459306Y-96898500D01*
X66459304Y-96898500D01*
X66422432Y-96901401D01*
X66422426Y-96901402D01*
X66264606Y-96947254D01*
X66264603Y-96947255D01*
X66123137Y-97030917D01*
X66116969Y-97035702D01*
X66115072Y-97033256D01*
X66066358Y-97059857D01*
X65996666Y-97054873D01*
X65964296Y-97034069D01*
X65963031Y-97035702D01*
X65956862Y-97030917D01*
X65815396Y-96947255D01*
X65815393Y-96947254D01*
X65657573Y-96901402D01*
X65657567Y-96901401D01*
X65620696Y-96898500D01*
X65620694Y-96898500D01*
X65189306Y-96898500D01*
X65189304Y-96898500D01*
X65152432Y-96901401D01*
X65152426Y-96901402D01*
X64994606Y-96947254D01*
X64994603Y-96947255D01*
X64853137Y-97030917D01*
X64846969Y-97035702D01*
X64845072Y-97033256D01*
X64796358Y-97059857D01*
X64726666Y-97054873D01*
X64694296Y-97034069D01*
X64693031Y-97035702D01*
X64686862Y-97030917D01*
X64545396Y-96947255D01*
X64545393Y-96947254D01*
X64387573Y-96901402D01*
X64387567Y-96901401D01*
X64350696Y-96898500D01*
X64350694Y-96898500D01*
X63919306Y-96898500D01*
X63919304Y-96898500D01*
X63882432Y-96901401D01*
X63882426Y-96901402D01*
X63724606Y-96947254D01*
X63724603Y-96947255D01*
X63583137Y-97030917D01*
X63583129Y-97030923D01*
X63466923Y-97147129D01*
X63466917Y-97147137D01*
X63383255Y-97288603D01*
X63383254Y-97288606D01*
X63337402Y-97446426D01*
X63337401Y-97446432D01*
X63334500Y-97483304D01*
X63334500Y-99248500D01*
X63314815Y-99315539D01*
X63262011Y-99361294D01*
X63210501Y-99372500D01*
X62999999Y-99372500D01*
X62999980Y-99372501D01*
X62897203Y-99383000D01*
X62897200Y-99383001D01*
X62730668Y-99438185D01*
X62730663Y-99438187D01*
X62581342Y-99530289D01*
X62457288Y-99654343D01*
X62452807Y-99660011D01*
X62450666Y-99658318D01*
X62408069Y-99696619D01*
X62339104Y-99707828D01*
X62275028Y-99679972D01*
X62236183Y-99621896D01*
X62230500Y-99584787D01*
X62230500Y-90183759D01*
X62232034Y-90164313D01*
X62232459Y-90161637D01*
X62234774Y-90150000D01*
X63316001Y-90150000D01*
X63316001Y-90299986D01*
X63326494Y-90402697D01*
X63381641Y-90569119D01*
X63381643Y-90569124D01*
X63473684Y-90718345D01*
X63597654Y-90842315D01*
X63746875Y-90934356D01*
X63746880Y-90934358D01*
X63913302Y-90989505D01*
X63913309Y-90989506D01*
X64016019Y-90999999D01*
X64265999Y-90999999D01*
X64266000Y-90999998D01*
X64266000Y-90150000D01*
X63316001Y-90150000D01*
X62234774Y-90150000D01*
X62247146Y-90087797D01*
X62258271Y-90055712D01*
X62266608Y-90039350D01*
X62270268Y-90033104D01*
X62299169Y-89989852D01*
X62314570Y-89971086D01*
X62327086Y-89958570D01*
X62345852Y-89943169D01*
X62389104Y-89914268D01*
X62395350Y-89910608D01*
X62411712Y-89902271D01*
X62443797Y-89891146D01*
X62505541Y-89878865D01*
X62517666Y-89876453D01*
X62520378Y-89876023D01*
X62539760Y-89874500D01*
X62977594Y-89874500D01*
X62977595Y-89874500D01*
X63068125Y-89845085D01*
X63145134Y-89789134D01*
X63201085Y-89712125D01*
X63201085Y-89712124D01*
X63206821Y-89704230D01*
X63209279Y-89706016D01*
X63246225Y-89666904D01*
X63308727Y-89650000D01*
X64642000Y-89650000D01*
X64709039Y-89669685D01*
G37*
%TD.AperFunction*%
%TA.AperFunction,Conductor*%
G36*
X78367384Y-88290963D02*
G01*
X78441875Y-88345085D01*
X78484212Y-88358841D01*
X78494146Y-88362069D01*
X78551822Y-88401507D01*
X78579020Y-88465865D01*
X78567105Y-88534712D01*
X78519861Y-88586187D01*
X78455828Y-88604000D01*
X78294499Y-88604000D01*
X78227460Y-88584315D01*
X78181705Y-88531511D01*
X78170499Y-88480000D01*
X78170499Y-88391282D01*
X78190184Y-88324243D01*
X78242988Y-88278488D01*
X78312146Y-88268544D01*
X78367384Y-88290963D01*
G37*
%TD.AperFunction*%
%TD*%
M02*
