%TF.GenerationSoftware,KiCad,Pcbnew,7.0.6*%
%TF.CreationDate,2023-07-11T14:09:12+02:00*%
%TF.ProjectId,power-output,706f7765-722d-46f7-9574-7075742e6b69,X1*%
%TF.SameCoordinates,Original*%
%TF.FileFunction,Copper,L1,Top*%
%TF.FilePolarity,Positive*%
%FSLAX46Y46*%
G04 Gerber Fmt 4.6, Leading zero omitted, Abs format (unit mm)*
G04 Created by KiCad (PCBNEW 7.0.6) date 2023-07-11 14:09:12*
%MOMM*%
%LPD*%
G01*
G04 APERTURE LIST*
G04 Aperture macros list*
%AMRoundRect*
0 Rectangle with rounded corners*
0 $1 Rounding radius*
0 $2 $3 $4 $5 $6 $7 $8 $9 X,Y pos of 4 corners*
0 Add a 4 corners polygon primitive as box body*
4,1,4,$2,$3,$4,$5,$6,$7,$8,$9,$2,$3,0*
0 Add four circle primitives for the rounded corners*
1,1,$1+$1,$2,$3*
1,1,$1+$1,$4,$5*
1,1,$1+$1,$6,$7*
1,1,$1+$1,$8,$9*
0 Add four rect primitives between the rounded corners*
20,1,$1+$1,$2,$3,$4,$5,0*
20,1,$1+$1,$4,$5,$6,$7,0*
20,1,$1+$1,$6,$7,$8,$9,0*
20,1,$1+$1,$8,$9,$2,$3,0*%
G04 Aperture macros list end*
%TA.AperFunction,SMDPad,CuDef*%
%ADD10R,0.380000X1.000000*%
%TD*%
%TA.AperFunction,SMDPad,CuDef*%
%ADD11R,0.700000X1.150000*%
%TD*%
%TA.AperFunction,SMDPad,CuDef*%
%ADD12R,1.500000X1.500000*%
%TD*%
%TA.AperFunction,ComponentPad*%
%ADD13R,1.700000X1.700000*%
%TD*%
%TA.AperFunction,ComponentPad*%
%ADD14O,1.700000X1.700000*%
%TD*%
%TA.AperFunction,SMDPad,CuDef*%
%ADD15RoundRect,0.062500X-0.375000X-0.062500X0.375000X-0.062500X0.375000X0.062500X-0.375000X0.062500X0*%
%TD*%
%TA.AperFunction,SMDPad,CuDef*%
%ADD16RoundRect,0.062500X-0.062500X-0.375000X0.062500X-0.375000X0.062500X0.375000X-0.062500X0.375000X0*%
%TD*%
%TA.AperFunction,SMDPad,CuDef*%
%ADD17R,3.450000X3.450000*%
%TD*%
%TA.AperFunction,SMDPad,CuDef*%
%ADD18RoundRect,0.100000X-0.130000X-0.100000X0.130000X-0.100000X0.130000X0.100000X-0.130000X0.100000X0*%
%TD*%
%TA.AperFunction,SMDPad,CuDef*%
%ADD19RoundRect,0.100000X0.130000X0.100000X-0.130000X0.100000X-0.130000X-0.100000X0.130000X-0.100000X0*%
%TD*%
%TA.AperFunction,SMDPad,CuDef*%
%ADD20RoundRect,0.150000X-0.512500X-0.150000X0.512500X-0.150000X0.512500X0.150000X-0.512500X0.150000X0*%
%TD*%
%TA.AperFunction,SMDPad,CuDef*%
%ADD21RoundRect,0.062500X-0.275000X-0.062500X0.275000X-0.062500X0.275000X0.062500X-0.275000X0.062500X0*%
%TD*%
%TA.AperFunction,SMDPad,CuDef*%
%ADD22RoundRect,0.062500X-0.062500X-0.275000X0.062500X-0.275000X0.062500X0.275000X-0.062500X0.275000X0*%
%TD*%
%TA.AperFunction,SMDPad,CuDef*%
%ADD23R,1.450000X1.450000*%
%TD*%
%TA.AperFunction,SMDPad,CuDef*%
%ADD24RoundRect,0.150000X-0.825000X-0.150000X0.825000X-0.150000X0.825000X0.150000X-0.825000X0.150000X0*%
%TD*%
%TA.AperFunction,SMDPad,CuDef*%
%ADD25RoundRect,0.062500X-0.062500X0.337500X-0.062500X-0.337500X0.062500X-0.337500X0.062500X0.337500X0*%
%TD*%
%TA.AperFunction,SMDPad,CuDef*%
%ADD26RoundRect,0.062500X-0.337500X0.062500X-0.337500X-0.062500X0.337500X-0.062500X0.337500X0.062500X0*%
%TD*%
%TA.AperFunction,SMDPad,CuDef*%
%ADD27R,3.350000X3.350000*%
%TD*%
%TA.AperFunction,ViaPad*%
%ADD28C,0.800000*%
%TD*%
%TA.AperFunction,Conductor*%
%ADD29C,0.125000*%
%TD*%
%TA.AperFunction,Conductor*%
%ADD30C,0.250000*%
%TD*%
G04 APERTURE END LIST*
D10*
%TO.P,P1,A1,GND*%
%TO.N,GND*%
X137250000Y-129040000D03*
%TO.P,P1,A2*%
%TO.N,N/C*%
X137750000Y-129040000D03*
%TO.P,P1,A3*%
X138250000Y-129040000D03*
%TO.P,P1,A4,VBUS*%
%TO.N,VBUS*%
X138750000Y-129040000D03*
%TO.P,P1,A5,CC*%
%TO.N,/CC1*%
X139250000Y-129040000D03*
%TO.P,P1,A6,D+*%
%TO.N,/D+*%
X139750000Y-129040000D03*
%TO.P,P1,A7,D-*%
%TO.N,/D-*%
X140250000Y-129040000D03*
%TO.P,P1,A8*%
%TO.N,N/C*%
X140750000Y-129040000D03*
%TO.P,P1,A9,VBUS*%
%TO.N,VBUS*%
X141250000Y-129040000D03*
%TO.P,P1,A10*%
%TO.N,N/C*%
X141750000Y-129040000D03*
%TO.P,P1,A11*%
X142250000Y-129040000D03*
%TO.P,P1,A12,GND*%
%TO.N,GND*%
X142750000Y-129040000D03*
D11*
%TO.P,P1,S1,SHIELD*%
X136580000Y-129880000D03*
%TD*%
D12*
%TO.P,TP1,1,1*%
%TO.N,GND*%
X134300000Y-128000000D03*
%TD*%
%TO.P,TP3,1,1*%
%TO.N,GND*%
X145700000Y-128000000D03*
%TD*%
D13*
%TO.P,J1,1,Pin_1*%
%TO.N,VBUS*%
X133470000Y-145870000D03*
D14*
%TO.P,J1,2,Pin_2*%
%TO.N,GND*%
X136010000Y-145870000D03*
%TD*%
D15*
%TO.P,U4,1,VDDA*%
%TO.N,+3.3V*%
X142072500Y-147910000D03*
%TO.P,U4,2,LNA*%
%TO.N,unconnected-(U4-LNA-Pad2)*%
X142072500Y-148410000D03*
%TO.P,U4,3,VDD3P3*%
%TO.N,+3.3V*%
X142072500Y-148910000D03*
%TO.P,U4,4,VDD3P3*%
X142072500Y-149410000D03*
%TO.P,U4,5,VDD_RTC*%
%TO.N,unconnected-(U4-VDD_RTC-Pad5)*%
X142072500Y-149910000D03*
%TO.P,U4,6,TOUT*%
%TO.N,unconnected-(U4-TOUT-Pad6)*%
X142072500Y-150410000D03*
%TO.P,U4,7,CHIP_PU*%
%TO.N,unconnected-(U4-CHIP_PU-Pad7)*%
X142072500Y-150910000D03*
%TO.P,U4,8,XPD_DCDC*%
%TO.N,unconnected-(U4-XPD_DCDC-Pad8)*%
X142072500Y-151410000D03*
D16*
%TO.P,U4,9,MTMS*%
%TO.N,unconnected-(U4-MTMS-Pad9)*%
X142760000Y-152097500D03*
%TO.P,U4,10,MTDI*%
%TO.N,unconnected-(U4-MTDI-Pad10)*%
X143260000Y-152097500D03*
%TO.P,U4,11,VDDPST*%
%TO.N,+3.3V*%
X143760000Y-152097500D03*
%TO.P,U4,12,MTCK*%
%TO.N,unconnected-(U4-MTCK-Pad12)*%
X144260000Y-152097500D03*
%TO.P,U4,13,MTDO*%
%TO.N,unconnected-(U4-MTDO-Pad13)*%
X144760000Y-152097500D03*
%TO.P,U4,14,GPIO2*%
%TO.N,unconnected-(U4-GPIO2-Pad14)*%
X145260000Y-152097500D03*
%TO.P,U4,15,GPIO0*%
%TO.N,/INT*%
X145760000Y-152097500D03*
%TO.P,U4,16,GPIO4*%
%TO.N,/SDA*%
X146260000Y-152097500D03*
D15*
%TO.P,U4,17,VDDPST*%
%TO.N,+3.3V*%
X146947500Y-151410000D03*
%TO.P,U4,18,SDIO_DATA_2*%
%TO.N,unconnected-(U4-SDIO_DATA_2-Pad18)*%
X146947500Y-150910000D03*
%TO.P,U4,19,SDIO_DATA_3*%
%TO.N,unconnected-(U4-SDIO_DATA_3-Pad19)*%
X146947500Y-150410000D03*
%TO.P,U4,20,SDIO_CMD*%
%TO.N,unconnected-(U4-SDIO_CMD-Pad20)*%
X146947500Y-149910000D03*
%TO.P,U4,21,SDIO_CLK*%
%TO.N,unconnected-(U4-SDIO_CLK-Pad21)*%
X146947500Y-149410000D03*
%TO.P,U4,22,SDIO_DATA_0*%
%TO.N,unconnected-(U4-SDIO_DATA_0-Pad22)*%
X146947500Y-148910000D03*
%TO.P,U4,23,SDIO_DATA_1*%
%TO.N,unconnected-(U4-SDIO_DATA_1-Pad23)*%
X146947500Y-148410000D03*
%TO.P,U4,24,GPIO5*%
%TO.N,/SCL*%
X146947500Y-147910000D03*
D16*
%TO.P,U4,25,U0RXD*%
%TO.N,/RXD*%
X146260000Y-147222500D03*
%TO.P,U4,26,U0TXD*%
%TO.N,/TXD*%
X145760000Y-147222500D03*
%TO.P,U4,27,XTAL_OUT*%
%TO.N,unconnected-(U4-XTAL_OUT-Pad27)*%
X145260000Y-147222500D03*
%TO.P,U4,28,XTAL_IN*%
%TO.N,unconnected-(U4-XTAL_IN-Pad28)*%
X144760000Y-147222500D03*
%TO.P,U4,29,VDDD*%
%TO.N,+3.3V*%
X144260000Y-147222500D03*
%TO.P,U4,30,VDDA*%
X143760000Y-147222500D03*
%TO.P,U4,31,RES12K*%
%TO.N,unconnected-(U4-RES12K-Pad31)*%
X143260000Y-147222500D03*
%TO.P,U4,32,~{EXT_RSTB}*%
%TO.N,unconnected-(U4-~{EXT_RSTB}-Pad32)*%
X142760000Y-147222500D03*
D17*
%TO.P,U4,33,GND*%
%TO.N,GND*%
X144510000Y-149660000D03*
%TD*%
D18*
%TO.P,C4,1*%
%TO.N,+3.3V*%
X143685000Y-141500000D03*
%TO.P,C4,2*%
%TO.N,GND*%
X144325000Y-141500000D03*
%TD*%
%TO.P,C9,1*%
%TO.N,VBUS*%
X133280000Y-137910000D03*
%TO.P,C9,2*%
%TO.N,GND*%
X133920000Y-137910000D03*
%TD*%
D19*
%TO.P,C10,1*%
%TO.N,+5V*%
X129395000Y-127725000D03*
%TO.P,C10,2*%
%TO.N,GND*%
X128755000Y-127725000D03*
%TD*%
%TO.P,C1,1*%
%TO.N,+5V*%
X129395000Y-128500000D03*
%TO.P,C1,2*%
%TO.N,GND*%
X128755000Y-128500000D03*
%TD*%
D20*
%TO.P,U1,1,VIN*%
%TO.N,+5V*%
X148362500Y-128270000D03*
%TO.P,U1,2,GND*%
%TO.N,GND*%
X148362500Y-129220000D03*
%TO.P,U1,3,EN*%
%TO.N,+5V*%
X148362500Y-130170000D03*
%TO.P,U1,4,NC*%
%TO.N,unconnected-(U1-NC-Pad4)*%
X150637500Y-130170000D03*
%TO.P,U1,5,VOUT*%
%TO.N,+3.3V*%
X150637500Y-128270000D03*
%TD*%
D18*
%TO.P,C7,1*%
%TO.N,/VCONN*%
X128295000Y-137922000D03*
%TO.P,C7,2*%
%TO.N,GND*%
X128935000Y-137922000D03*
%TD*%
D19*
%TO.P,R4,1*%
%TO.N,/INT*%
X148875000Y-140710000D03*
%TO.P,R4,2*%
%TO.N,+3.3V*%
X148235000Y-140710000D03*
%TD*%
D18*
%TO.P,C8,1*%
%TO.N,/VCONN*%
X128295000Y-138730000D03*
%TO.P,C8,2*%
%TO.N,GND*%
X128935000Y-138730000D03*
%TD*%
D19*
%TO.P,C6,1*%
%TO.N,/CC1*%
X151265000Y-131670000D03*
%TO.P,C6,2*%
%TO.N,GND*%
X150625000Y-131670000D03*
%TD*%
D21*
%TO.P,U2,1,CC2*%
%TO.N,/CC1*%
X147828000Y-136414000D03*
%TO.P,U2,2,VBUS*%
%TO.N,VBUS*%
X147828000Y-136914000D03*
%TO.P,U2,3,VDD*%
%TO.N,+3.3V*%
X147828000Y-137414000D03*
D22*
%TO.P,U2,4,VDD*%
X148340500Y-138176500D03*
%TO.P,U2,5,INT_N*%
%TO.N,/INT*%
X148840500Y-138176500D03*
%TO.P,U2,6,SCL*%
%TO.N,/SCL*%
X149340500Y-138176500D03*
%TO.P,U2,7,SDA*%
%TO.N,/SDA*%
X149840500Y-138176500D03*
D21*
%TO.P,U2,8,GND*%
%TO.N,GND*%
X150353000Y-137414000D03*
%TO.P,U2,9,GND*%
X150353000Y-136914000D03*
%TO.P,U2,10,CC1*%
%TO.N,/CC1*%
X150353000Y-136414000D03*
D22*
%TO.P,U2,11,CC1*%
X149840500Y-135651500D03*
%TO.P,U2,12,VCONN*%
%TO.N,/VCONN*%
X149340500Y-135651500D03*
%TO.P,U2,13,VCONN*%
X148840500Y-135651500D03*
%TO.P,U2,14,CC2*%
%TO.N,/CC1*%
X148340500Y-135651500D03*
D23*
%TO.P,U2,15,GND*%
%TO.N,GND*%
X149090500Y-136914000D03*
%TD*%
D19*
%TO.P,R3,1*%
%TO.N,/SCL*%
X148860000Y-141480000D03*
%TO.P,R3,2*%
%TO.N,+3.3V*%
X148220000Y-141480000D03*
%TD*%
D24*
%TO.P,U3,1,OUT*%
%TO.N,+5V*%
X128975000Y-131920000D03*
%TO.P,U3,2,GND*%
%TO.N,GND*%
X128975000Y-133190000D03*
%TO.P,U3,3,GND*%
X128975000Y-134460000D03*
%TO.P,U3,4,NC*%
%TO.N,unconnected-(U3-NC-Pad4)*%
X128975000Y-135730000D03*
%TO.P,U3,5,NC*%
%TO.N,unconnected-(U3-NC-Pad5)*%
X133925000Y-135730000D03*
%TO.P,U3,6,GND*%
%TO.N,GND*%
X133925000Y-134460000D03*
%TO.P,U3,7,GND*%
X133925000Y-133190000D03*
%TO.P,U3,8,IN*%
%TO.N,VBUS*%
X133925000Y-131920000D03*
%TD*%
D19*
%TO.P,C5,1*%
%TO.N,/CC1*%
X151260000Y-132470000D03*
%TO.P,C5,2*%
%TO.N,GND*%
X150620000Y-132470000D03*
%TD*%
D25*
%TO.P,U5,1,~{DCD}*%
%TO.N,unconnected-(U5-~{DCD}-Pad1)*%
X141580000Y-133770000D03*
%TO.P,U5,2,~{RI}/CLK*%
%TO.N,unconnected-(U5-~{RI}{slash}CLK-Pad2)*%
X141080000Y-133770000D03*
%TO.P,U5,3,GND*%
%TO.N,GND*%
X140580000Y-133770000D03*
%TO.P,U5,4,D+*%
%TO.N,/D+*%
X140080000Y-133770000D03*
%TO.P,U5,5,D-*%
%TO.N,/D-*%
X139580000Y-133770000D03*
%TO.P,U5,6,VDD*%
%TO.N,+3.3V*%
X139080000Y-133770000D03*
%TO.P,U5,7,VREGIN*%
%TO.N,+5V*%
X138580000Y-133770000D03*
D26*
%TO.P,U5,8,VBUS*%
X137630000Y-134720000D03*
%TO.P,U5,9,~{RST}*%
%TO.N,unconnected-(U5-~{RST}-Pad9)*%
X137630000Y-135220000D03*
%TO.P,U5,10,NC*%
%TO.N,unconnected-(U5-NC-Pad10)*%
X137630000Y-135720000D03*
%TO.P,U5,11,~{SUSPEND}*%
%TO.N,unconnected-(U5-~{SUSPEND}-Pad11)*%
X137630000Y-136220000D03*
%TO.P,U5,12,SUSPEND*%
%TO.N,unconnected-(U5-SUSPEND-Pad12)*%
X137630000Y-136720000D03*
%TO.P,U5,13,CHREN*%
%TO.N,unconnected-(U5-CHREN-Pad13)*%
X137630000Y-137220000D03*
%TO.P,U5,14,CHR1*%
%TO.N,unconnected-(U5-CHR1-Pad14)*%
X137630000Y-137720000D03*
D25*
%TO.P,U5,15,CHR0*%
%TO.N,unconnected-(U5-CHR0-Pad15)*%
X138580000Y-138670000D03*
%TO.P,U5,16,~{WAKEUP}/GPIO.3*%
%TO.N,unconnected-(U5-~{WAKEUP}{slash}GPIO.3-Pad16)*%
X139080000Y-138670000D03*
%TO.P,U5,17,RS485/GPIO.2*%
%TO.N,unconnected-(U5-RS485{slash}GPIO.2-Pad17)*%
X139580000Y-138670000D03*
%TO.P,U5,18,~{RXT}/GPIO.1*%
%TO.N,unconnected-(U5-~{RXT}{slash}GPIO.1-Pad18)*%
X140080000Y-138670000D03*
%TO.P,U5,19,~{TXT}/GPIO.0*%
%TO.N,unconnected-(U5-~{TXT}{slash}GPIO.0-Pad19)*%
X140580000Y-138670000D03*
%TO.P,U5,20,GPIO.6*%
%TO.N,unconnected-(U5-GPIO.6-Pad20)*%
X141080000Y-138670000D03*
%TO.P,U5,21,GPIO.5*%
%TO.N,unconnected-(U5-GPIO.5-Pad21)*%
X141580000Y-138670000D03*
D26*
%TO.P,U5,22,GPIO.4*%
%TO.N,unconnected-(U5-GPIO.4-Pad22)*%
X142530000Y-137720000D03*
%TO.P,U5,23,~{CTS}*%
%TO.N,unconnected-(U5-~{CTS}-Pad23)*%
X142530000Y-137220000D03*
%TO.P,U5,24,~{RTS}*%
%TO.N,unconnected-(U5-~{RTS}-Pad24)*%
X142530000Y-136720000D03*
%TO.P,U5,25,RXD*%
%TO.N,/RXD*%
X142530000Y-136220000D03*
%TO.P,U5,26,TXD*%
%TO.N,/TXD*%
X142530000Y-135720000D03*
%TO.P,U5,27,~{DSR}*%
%TO.N,unconnected-(U5-~{DSR}-Pad27)*%
X142530000Y-135220000D03*
%TO.P,U5,28,~{DTR}*%
%TO.N,unconnected-(U5-~{DTR}-Pad28)*%
X142530000Y-134720000D03*
D27*
%TO.P,U5,29,GND*%
%TO.N,GND*%
X140080000Y-136220000D03*
%TD*%
D28*
%TO.N,+3.3V*%
X143549881Y-140762790D03*
%TO.N,/SCL*%
X147310000Y-141760000D03*
X146841590Y-143156000D03*
%TO.N,GND*%
X136540191Y-137489809D03*
X141770000Y-131740000D03*
X145700000Y-128000000D03*
X134300000Y-128000000D03*
X144530000Y-149680000D03*
%TO.N,VBUS*%
X133925000Y-131820500D03*
X145650000Y-135930000D03*
X137529469Y-130138723D03*
X132120000Y-137410000D03*
%TO.N,+3.3V*%
X137976137Y-133052000D03*
X145820353Y-137950353D03*
X141011969Y-139677601D03*
X147570000Y-138176500D03*
X150670000Y-128240000D03*
%TO.N,/INT*%
X148705500Y-139167500D03*
X145180000Y-153980000D03*
%TO.N,/SDA*%
X149691394Y-141584817D03*
X146276750Y-153264111D03*
X143800000Y-143240000D03*
X146965000Y-144215000D03*
%TO.N,/CC1*%
X143367767Y-134223935D03*
X149750000Y-133840000D03*
X142213638Y-132714849D03*
X147728000Y-135560000D03*
X136830000Y-131466210D03*
%TO.N,+5V*%
X136325000Y-133415000D03*
X148362500Y-130170000D03*
%TO.N,/VCONN*%
X128295000Y-139830000D03*
X147066000Y-134366000D03*
X141869023Y-130745415D03*
X144071105Y-132699895D03*
X146627145Y-130879145D03*
%TO.N,/TXD*%
X144910000Y-145640000D03*
X144440000Y-140260000D03*
%TO.N,/D+*%
X139480000Y-130670000D03*
X140912000Y-131064000D03*
%TD*%
D29*
%TO.N,+3.3V*%
X143760000Y-154307500D02*
X143760000Y-152097500D01*
X146947500Y-154332500D02*
X146939250Y-154324250D01*
X146939250Y-154324250D02*
X146939250Y-151418250D01*
X146939250Y-151418250D02*
X146947500Y-151410000D01*
X146947500Y-154332500D02*
X146800000Y-154480000D01*
X143932500Y-154480000D02*
X143760000Y-154307500D01*
X146800000Y-154480000D02*
X143932500Y-154480000D01*
%TO.N,/VCONN*%
X128295000Y-139830000D02*
X128295000Y-138730000D01*
%TO.N,+3.3V*%
X143549881Y-140762790D02*
X143549881Y-140769881D01*
X143549881Y-140769881D02*
X143685000Y-140905000D01*
X143685000Y-140905000D02*
X143685000Y-141500000D01*
%TO.N,/RXD*%
X142530000Y-136220000D02*
X142889619Y-136220000D01*
X142889619Y-136220000D02*
X143192500Y-136522881D01*
X142886904Y-140439284D02*
X142886904Y-140507880D01*
X143192500Y-136522881D02*
X143192500Y-140133688D01*
X143192500Y-140133688D02*
X142886904Y-140439284D01*
%TO.N,/INT*%
X148705500Y-139167500D02*
X148747500Y-139167500D01*
X148747500Y-139167500D02*
X148875000Y-139040000D01*
%TO.N,+3.3V*%
X142562881Y-141228513D02*
X141011969Y-139677601D01*
%TO.N,/SCL*%
X147581000Y-141760000D02*
X147990000Y-142169000D01*
X147310000Y-141760000D02*
X147581000Y-141760000D01*
X146947500Y-147910000D02*
X147627500Y-147230000D01*
X147627500Y-147230000D02*
X147627500Y-143941910D01*
X148621000Y-142169000D02*
X147990000Y-142169000D01*
X147627500Y-143941910D02*
X146841590Y-143156000D01*
%TO.N,GND*%
X150353000Y-141309506D02*
X150353000Y-137414000D01*
X144525000Y-134090000D02*
X142175000Y-131740000D01*
X134340191Y-137489809D02*
X136540191Y-137489809D01*
X146990000Y-129220000D02*
X146990000Y-130043363D01*
X140580000Y-133770000D02*
X140580000Y-133410381D01*
X128935000Y-138730000D02*
X128935000Y-137922000D01*
X146812000Y-142494000D02*
X149860000Y-142494000D01*
X144987500Y-135857880D02*
X144987500Y-138054417D01*
X128935000Y-137922000D02*
X131560000Y-135297000D01*
X144987500Y-138054417D02*
X145810000Y-138876917D01*
X149860000Y-142494000D02*
X150353894Y-142000106D01*
D30*
X128975000Y-133190000D02*
X128598249Y-133190000D01*
D29*
X140580000Y-133770000D02*
X140580000Y-135720000D01*
X145810000Y-138876917D02*
X145810000Y-141040000D01*
X148616637Y-131670000D02*
X150625000Y-131670000D01*
X145810000Y-141492000D02*
X146812000Y-142494000D01*
D30*
X128975000Y-134460000D02*
X128975000Y-133190000D01*
D29*
X131560000Y-135297000D02*
X131560000Y-134460000D01*
X138192500Y-138107500D02*
X137157881Y-138107500D01*
X150353000Y-136914000D02*
X149090500Y-136914000D01*
X134300000Y-128000000D02*
X134384352Y-128000000D01*
X137157881Y-138107500D02*
X136540191Y-137489809D01*
X146990000Y-130043363D02*
X148616637Y-131670000D01*
D30*
X128755000Y-129815000D02*
X128755000Y-128500000D01*
X128598249Y-133190000D02*
X127675000Y-132266751D01*
D29*
X144525000Y-134090000D02*
X144525000Y-135395380D01*
X134213363Y-134460000D02*
X133925000Y-134460000D01*
X144525000Y-135395380D02*
X144987500Y-135857880D01*
X150625000Y-131670000D02*
X150625000Y-132465000D01*
X144325000Y-141500000D02*
X145350000Y-141500000D01*
X136580000Y-129880000D02*
X136580000Y-129710000D01*
X144636033Y-129063967D02*
X145700000Y-128000000D01*
X140580000Y-135720000D02*
X140080000Y-136220000D01*
X150353894Y-141310400D02*
X150353000Y-141309506D01*
X136264352Y-129880000D02*
X136580000Y-129880000D01*
X135162500Y-135409137D02*
X134213363Y-134460000D01*
D30*
X128755000Y-127725000D02*
X128755000Y-128500000D01*
D29*
X145350000Y-141500000D02*
X145810000Y-141040000D01*
D30*
X127675000Y-130895000D02*
X128755000Y-129815000D01*
D29*
X150353894Y-142000106D02*
X150353894Y-141310400D01*
X150353000Y-137414000D02*
X150353000Y-136914000D01*
X150625000Y-132465000D02*
X150620000Y-132470000D01*
X141770000Y-132220381D02*
X141770000Y-131740000D01*
X144510000Y-149660000D02*
X144530000Y-149680000D01*
X142175000Y-131740000D02*
X141770000Y-131740000D01*
X142750000Y-129040000D02*
X142773967Y-129063967D01*
D30*
X133925000Y-134460000D02*
X131560000Y-134460000D01*
D29*
X146920000Y-129220000D02*
X145700000Y-128000000D01*
X135162500Y-136112119D02*
X135162500Y-135409137D01*
X148362500Y-129220000D02*
X146990000Y-129220000D01*
D30*
X127675000Y-132266751D02*
X127675000Y-130895000D01*
D29*
X133920000Y-137910000D02*
X134340191Y-137489809D01*
X145810000Y-141040000D02*
X145810000Y-141492000D01*
X136540191Y-137489809D02*
X135162500Y-136112119D01*
X142773967Y-129063967D02*
X144636033Y-129063967D01*
X146990000Y-129220000D02*
X146920000Y-129220000D01*
X134384352Y-128000000D02*
X136264352Y-129880000D01*
D30*
X131560000Y-134460000D02*
X128975000Y-134460000D01*
D29*
X140080000Y-136220000D02*
X138192500Y-138107500D01*
X140580000Y-133410381D02*
X141770000Y-132220381D01*
X136580000Y-129710000D02*
X137250000Y-129040000D01*
D30*
X128975000Y-133190000D02*
X133925000Y-133190000D01*
D29*
%TO.N,VBUS*%
X137192500Y-130167500D02*
X137192500Y-130717500D01*
X133925000Y-131820500D02*
X133925000Y-131920000D01*
X137529469Y-130138723D02*
X137548246Y-130157500D01*
X132780000Y-137410000D02*
X132120000Y-137410000D01*
X135440000Y-131920000D02*
X133925000Y-131920000D01*
X141250000Y-128325000D02*
X141202500Y-128277500D01*
X136642500Y-130717500D02*
X135440000Y-131920000D01*
X133280000Y-137910000D02*
X132780000Y-137410000D01*
X137192500Y-130717500D02*
X136642500Y-130717500D01*
X147530881Y-136914000D02*
X147828000Y-136914000D01*
X133470000Y-145870000D02*
X133280000Y-145680000D01*
X145650000Y-135930000D02*
X146546881Y-135930000D01*
X138750000Y-128325000D02*
X138750000Y-129040000D01*
X133280000Y-145680000D02*
X133280000Y-137910000D01*
X137548246Y-130157500D02*
X138347500Y-130157500D01*
X138347500Y-130157500D02*
X137202500Y-130157500D01*
X141250000Y-129040000D02*
X141250000Y-128325000D01*
X141202500Y-128277500D02*
X138797500Y-128277500D01*
X138797500Y-128277500D02*
X138750000Y-128325000D01*
X146546881Y-135930000D02*
X147530881Y-136914000D01*
X138750000Y-129755000D02*
X138347500Y-130157500D01*
X137202500Y-130157500D02*
X137192500Y-130167500D01*
X138750000Y-129040000D02*
X138750000Y-129755000D01*
%TO.N,+3.3V*%
X147570000Y-138176500D02*
X148340500Y-138176500D01*
X148235000Y-141465000D02*
X148220000Y-141480000D01*
X142072500Y-147012881D02*
X142072500Y-147910000D01*
X145820353Y-137950353D02*
X146046500Y-138176500D01*
X143760000Y-146825381D02*
X143457119Y-146522500D01*
X146046500Y-138176500D02*
X147570000Y-138176500D01*
X147828000Y-137414000D02*
X147828000Y-137664000D01*
X148235000Y-140710000D02*
X148235000Y-141465000D01*
X143760000Y-147222500D02*
X143760000Y-146825381D01*
X139080000Y-133770000D02*
X139080000Y-133185381D01*
X142562881Y-146522500D02*
X142072500Y-147012881D01*
X141675381Y-148910000D02*
X141372500Y-148607119D01*
X143457119Y-152797500D02*
X142562882Y-152797500D01*
X141372500Y-148607119D02*
X141372500Y-148212881D01*
X138946619Y-133052000D02*
X137976137Y-133052000D01*
X143760000Y-152097500D02*
X143760000Y-152494619D01*
X141675381Y-149410000D02*
X142072500Y-149410000D01*
X142562881Y-146522500D02*
X142562881Y-141228513D01*
X139080000Y-133185381D02*
X138946619Y-133052000D01*
X143457119Y-146522500D02*
X142562881Y-146522500D01*
X141675381Y-147910000D02*
X142072500Y-147910000D01*
X141372500Y-149712881D02*
X141675381Y-149410000D01*
X147730000Y-138787000D02*
X147730000Y-140205000D01*
X143760000Y-152494619D02*
X143457119Y-152797500D01*
X141372500Y-151607119D02*
X141372500Y-149712881D01*
X150637500Y-128270000D02*
X150640000Y-128270000D01*
X141372500Y-148212881D02*
X141675381Y-147910000D01*
X148340500Y-138176500D02*
X147730000Y-138787000D01*
X147730000Y-140205000D02*
X148235000Y-140710000D01*
X142072500Y-148910000D02*
X141675381Y-148910000D01*
X142072500Y-149410000D02*
X142072500Y-148910000D01*
X143760000Y-147222500D02*
X144260000Y-147222500D01*
X142562882Y-152797500D02*
X141372500Y-151607119D01*
X147828000Y-137664000D02*
X148340500Y-138176500D01*
X150640000Y-128270000D02*
X150670000Y-128240000D01*
%TO.N,/INT*%
X148875000Y-138211000D02*
X148840500Y-138176500D01*
X148875000Y-140710000D02*
X148875000Y-139040000D01*
X145180000Y-153423944D02*
X145180000Y-153980000D01*
X148875000Y-139040000D02*
X148875000Y-138211000D01*
X145760000Y-152843944D02*
X145180000Y-153423944D01*
X145760000Y-152097500D02*
X145760000Y-152843944D01*
%TO.N,/SCL*%
X149367500Y-138203500D02*
X149340500Y-138176500D01*
X148860000Y-141480000D02*
X149367500Y-140972500D01*
X148860000Y-141480000D02*
X148860000Y-141930000D01*
X148860000Y-141930000D02*
X148621000Y-142169000D01*
X149367500Y-140972500D02*
X149367500Y-138203500D01*
%TO.N,/SDA*%
X146260000Y-152097500D02*
X146260000Y-153247361D01*
X143800000Y-143240000D02*
X145990000Y-143240000D01*
X149840500Y-138176500D02*
X149840500Y-141435711D01*
X146260000Y-153247361D02*
X146276750Y-153264111D01*
X149840500Y-141435711D02*
X149691394Y-141584817D01*
X145990000Y-143240000D02*
X146965000Y-144215000D01*
%TO.N,/CC1*%
X139250000Y-129850000D02*
X139250000Y-129040000D01*
X151235000Y-133840000D02*
X151265000Y-133870000D01*
X149750000Y-133840000D02*
X150600000Y-133840000D01*
X151260000Y-132470000D02*
X151260000Y-133180000D01*
X149840500Y-135651500D02*
X150353000Y-136164000D01*
X142213638Y-133069806D02*
X143367767Y-134223935D01*
X151260000Y-132470000D02*
X151260000Y-131675000D01*
X151265000Y-133870000D02*
X151265000Y-134227000D01*
X148076000Y-135916000D02*
X147728000Y-135568000D01*
X137633790Y-131466210D02*
X139250000Y-129850000D01*
X136830000Y-131466210D02*
X137633790Y-131466210D01*
X150353000Y-136164000D02*
X150353000Y-136414000D01*
X151265000Y-134227000D02*
X149840500Y-135651500D01*
X142213638Y-132714849D02*
X142213638Y-133069806D01*
X147828000Y-136414000D02*
X147828000Y-136164000D01*
X151260000Y-133180000D02*
X150600000Y-133840000D01*
X147728000Y-135568000D02*
X147728000Y-135560000D01*
X148076000Y-135916000D02*
X148340500Y-135651500D01*
X151260000Y-131675000D02*
X151265000Y-131670000D01*
X147828000Y-136164000D02*
X148076000Y-135916000D01*
X150600000Y-133840000D02*
X151235000Y-133840000D01*
%TO.N,+5V*%
X148658363Y-130170000D02*
X149287500Y-129540863D01*
X138580000Y-133770000D02*
X137630000Y-134720000D01*
D30*
X135455000Y-132545000D02*
X136325000Y-133415000D01*
X129395000Y-128500000D02*
X129395000Y-127725000D01*
X128975000Y-131920000D02*
X129600000Y-132545000D01*
X136325000Y-133415000D02*
X137630000Y-134720000D01*
X129600000Y-132545000D02*
X135455000Y-132545000D01*
D29*
X148658363Y-128270000D02*
X148362500Y-128270000D01*
X149287500Y-129540863D02*
X149287500Y-128899137D01*
D30*
X129395000Y-131500000D02*
X128975000Y-131920000D01*
D29*
X148362500Y-130170000D02*
X148658363Y-130170000D01*
X149287500Y-128899137D02*
X148658363Y-128270000D01*
D30*
X129395000Y-128500000D02*
X129395000Y-131500000D01*
D29*
%TO.N,/VCONN*%
X148840500Y-134620000D02*
X147320000Y-134620000D01*
X147320000Y-134620000D02*
X147066000Y-134366000D01*
X148840500Y-135651500D02*
X148840500Y-134620000D01*
X128295000Y-137922000D02*
X128295000Y-138730000D01*
X148840500Y-135651500D02*
X149340500Y-135651500D01*
X148840500Y-133092500D02*
X146627145Y-130879145D01*
X143823503Y-132699895D02*
X141869023Y-130745415D01*
X144071105Y-132699895D02*
X143823503Y-132699895D01*
X148840500Y-134620000D02*
X148840500Y-133092500D01*
%TO.N,/RXD*%
X145370000Y-144660000D02*
X143160000Y-144660000D01*
X146260000Y-145550000D02*
X145370000Y-144660000D01*
X143160000Y-144660000D02*
X142887881Y-144387881D01*
X142887881Y-144387881D02*
X142887881Y-140507880D01*
X146260000Y-147222500D02*
X146260000Y-145550000D01*
%TO.N,/TXD*%
X142889619Y-135720000D02*
X142530000Y-135720000D01*
X145760000Y-146490000D02*
X144910000Y-145640000D01*
X144440000Y-137270381D02*
X142889619Y-135720000D01*
X144440000Y-140260000D02*
X144440000Y-137270381D01*
X145760000Y-147222500D02*
X145760000Y-146490000D01*
%TO.N,/D+*%
X140912000Y-131064000D02*
X140912000Y-131407620D01*
X140912000Y-131407620D02*
X140080000Y-132239620D01*
X139750000Y-130400000D02*
X139750000Y-129040000D01*
X140080000Y-132239620D02*
X140080000Y-133770000D01*
X139480000Y-130670000D02*
X139750000Y-130400000D01*
%TO.N,/D-*%
X140250000Y-131610000D02*
X139580000Y-132280000D01*
X140250000Y-129040000D02*
X140250000Y-131610000D01*
X139580000Y-132280000D02*
X139580000Y-133770000D01*
%TD*%
M02*
