%TF.GenerationSoftware,KiCad,Pcbnew,7.0.6*%
%TF.CreationDate,2023-07-11T14:09:12+02:00*%
%TF.ProjectId,power-output,706f7765-722d-46f7-9574-7075742e6b69,X1*%
%TF.SameCoordinates,Original*%
%TF.FileFunction,Paste,Top*%
%TF.FilePolarity,Positive*%
%FSLAX46Y46*%
G04 Gerber Fmt 4.6, Leading zero omitted, Abs format (unit mm)*
G04 Created by KiCad (PCBNEW 7.0.6) date 2023-07-11 14:09:12*
%MOMM*%
%LPD*%
G01*
G04 APERTURE LIST*
G04 Aperture macros list*
%AMRoundRect*
0 Rectangle with rounded corners*
0 $1 Rounding radius*
0 $2 $3 $4 $5 $6 $7 $8 $9 X,Y pos of 4 corners*
0 Add a 4 corners polygon primitive as box body*
4,1,4,$2,$3,$4,$5,$6,$7,$8,$9,$2,$3,0*
0 Add four circle primitives for the rounded corners*
1,1,$1+$1,$2,$3*
1,1,$1+$1,$4,$5*
1,1,$1+$1,$6,$7*
1,1,$1+$1,$8,$9*
0 Add four rect primitives between the rounded corners*
20,1,$1+$1,$2,$3,$4,$5,0*
20,1,$1+$1,$4,$5,$6,$7,0*
20,1,$1+$1,$6,$7,$8,$9,0*
20,1,$1+$1,$8,$9,$2,$3,0*%
G04 Aperture macros list end*
%ADD10R,0.380000X1.000000*%
%ADD11R,0.700000X1.150000*%
%ADD12RoundRect,0.232500X-0.232500X-0.232500X0.232500X-0.232500X0.232500X0.232500X-0.232500X0.232500X0*%
%ADD13RoundRect,0.062500X-0.375000X-0.062500X0.375000X-0.062500X0.375000X0.062500X-0.375000X0.062500X0*%
%ADD14RoundRect,0.062500X-0.062500X-0.375000X0.062500X-0.375000X0.062500X0.375000X-0.062500X0.375000X0*%
%ADD15RoundRect,0.079500X-0.079500X-0.100500X0.079500X-0.100500X0.079500X0.100500X-0.079500X0.100500X0*%
%ADD16RoundRect,0.079500X0.079500X0.100500X-0.079500X0.100500X-0.079500X-0.100500X0.079500X-0.100500X0*%
%ADD17RoundRect,0.150000X-0.512500X-0.150000X0.512500X-0.150000X0.512500X0.150000X-0.512500X0.150000X0*%
%ADD18RoundRect,0.145000X-0.145000X-0.145000X0.145000X-0.145000X0.145000X0.145000X-0.145000X0.145000X0*%
%ADD19RoundRect,0.062500X-0.275000X-0.062500X0.275000X-0.062500X0.275000X0.062500X-0.275000X0.062500X0*%
%ADD20RoundRect,0.062500X-0.062500X-0.275000X0.062500X-0.275000X0.062500X0.275000X-0.062500X0.275000X0*%
%ADD21RoundRect,0.150000X-0.825000X-0.150000X0.825000X-0.150000X0.825000X0.150000X-0.825000X0.150000X0*%
%ADD22RoundRect,0.225000X-0.225000X0.225000X-0.225000X-0.225000X0.225000X-0.225000X0.225000X0.225000X0*%
%ADD23RoundRect,0.062500X-0.062500X0.337500X-0.062500X-0.337500X0.062500X-0.337500X0.062500X0.337500X0*%
%ADD24RoundRect,0.062500X-0.337500X0.062500X-0.337500X-0.062500X0.337500X-0.062500X0.337500X0.062500X0*%
G04 APERTURE END LIST*
D10*
%TO.C,P1*%
X137250000Y-129040000D03*
X137750000Y-129040000D03*
X138250000Y-129040000D03*
X138750000Y-129040000D03*
X139250000Y-129040000D03*
X139750000Y-129040000D03*
X140250000Y-129040000D03*
X140750000Y-129040000D03*
X141250000Y-129040000D03*
X141750000Y-129040000D03*
X142250000Y-129040000D03*
X142750000Y-129040000D03*
D11*
X136580000Y-129880000D03*
%TD*%
D12*
%TO.C,U4*%
X143360000Y-148510000D03*
X143360000Y-149660000D03*
X143360000Y-150810000D03*
X144510000Y-148510000D03*
X144510000Y-149660000D03*
X144510000Y-150810000D03*
X145660000Y-148510000D03*
X145660000Y-149660000D03*
X145660000Y-150810000D03*
D13*
X142072500Y-147910000D03*
X142072500Y-148410000D03*
X142072500Y-148910000D03*
X142072500Y-149410000D03*
X142072500Y-149910000D03*
X142072500Y-150410000D03*
X142072500Y-150910000D03*
X142072500Y-151410000D03*
D14*
X142760000Y-152097500D03*
X143260000Y-152097500D03*
X143760000Y-152097500D03*
X144260000Y-152097500D03*
X144760000Y-152097500D03*
X145260000Y-152097500D03*
X145760000Y-152097500D03*
X146260000Y-152097500D03*
D13*
X146947500Y-151410000D03*
X146947500Y-150910000D03*
X146947500Y-150410000D03*
X146947500Y-149910000D03*
X146947500Y-149410000D03*
X146947500Y-148910000D03*
X146947500Y-148410000D03*
X146947500Y-147910000D03*
D14*
X146260000Y-147222500D03*
X145760000Y-147222500D03*
X145260000Y-147222500D03*
X144760000Y-147222500D03*
X144260000Y-147222500D03*
X143760000Y-147222500D03*
X143260000Y-147222500D03*
X142760000Y-147222500D03*
%TD*%
D15*
%TO.C,C4*%
X143660000Y-141500000D03*
X144350000Y-141500000D03*
%TD*%
%TO.C,C9*%
X133255000Y-137910000D03*
X133945000Y-137910000D03*
%TD*%
D16*
%TO.C,C10*%
X129420000Y-127725000D03*
X128730000Y-127725000D03*
%TD*%
%TO.C,C1*%
X129420000Y-128500000D03*
X128730000Y-128500000D03*
%TD*%
D17*
%TO.C,U1*%
X148362500Y-128270000D03*
X148362500Y-129220000D03*
X148362500Y-130170000D03*
X150637500Y-130170000D03*
X150637500Y-128270000D03*
%TD*%
D15*
%TO.C,C7*%
X128270000Y-137922000D03*
X128960000Y-137922000D03*
%TD*%
D16*
%TO.C,R4*%
X148900000Y-140710000D03*
X148210000Y-140710000D03*
%TD*%
D15*
%TO.C,C8*%
X128270000Y-138730000D03*
X128960000Y-138730000D03*
%TD*%
D16*
%TO.C,C6*%
X151290000Y-131670000D03*
X150600000Y-131670000D03*
%TD*%
D18*
%TO.C,U2*%
X148730500Y-136554000D03*
X148730500Y-137274000D03*
X149450500Y-136554000D03*
X149450500Y-137274000D03*
D19*
X147828000Y-136414000D03*
X147828000Y-136914000D03*
X147828000Y-137414000D03*
D20*
X148340500Y-138176500D03*
X148840500Y-138176500D03*
X149340500Y-138176500D03*
X149840500Y-138176500D03*
D19*
X150353000Y-137414000D03*
X150353000Y-136914000D03*
X150353000Y-136414000D03*
D20*
X149840500Y-135651500D03*
X149340500Y-135651500D03*
X148840500Y-135651500D03*
X148340500Y-135651500D03*
%TD*%
D16*
%TO.C,R3*%
X148885000Y-141480000D03*
X148195000Y-141480000D03*
%TD*%
D21*
%TO.C,U3*%
X128975000Y-131920000D03*
X128975000Y-133190000D03*
X128975000Y-134460000D03*
X128975000Y-135730000D03*
X133925000Y-135730000D03*
X133925000Y-134460000D03*
X133925000Y-133190000D03*
X133925000Y-131920000D03*
%TD*%
D16*
%TO.C,C5*%
X151285000Y-132470000D03*
X150595000Y-132470000D03*
%TD*%
D22*
%TO.C,U5*%
X141200000Y-135100000D03*
X140080000Y-135100000D03*
X138960000Y-135100000D03*
X141200000Y-136220000D03*
X140080000Y-136220000D03*
X138960000Y-136220000D03*
X141200000Y-137340000D03*
X140080000Y-137340000D03*
X138960000Y-137340000D03*
D23*
X141580000Y-133770000D03*
X141080000Y-133770000D03*
X140580000Y-133770000D03*
X140080000Y-133770000D03*
X139580000Y-133770000D03*
X139080000Y-133770000D03*
X138580000Y-133770000D03*
D24*
X137630000Y-134720000D03*
X137630000Y-135220000D03*
X137630000Y-135720000D03*
X137630000Y-136220000D03*
X137630000Y-136720000D03*
X137630000Y-137220000D03*
X137630000Y-137720000D03*
D23*
X138580000Y-138670000D03*
X139080000Y-138670000D03*
X139580000Y-138670000D03*
X140080000Y-138670000D03*
X140580000Y-138670000D03*
X141080000Y-138670000D03*
X141580000Y-138670000D03*
D24*
X142530000Y-137720000D03*
X142530000Y-137220000D03*
X142530000Y-136720000D03*
X142530000Y-136220000D03*
X142530000Y-135720000D03*
X142530000Y-135220000D03*
X142530000Y-134720000D03*
%TD*%
M02*
