%TF.GenerationSoftware,KiCad,Pcbnew,7.0.6*%
%TF.CreationDate,2023-07-11T14:09:12+02:00*%
%TF.ProjectId,power-output,706f7765-722d-46f7-9574-7075742e6b69,X1*%
%TF.SameCoordinates,Original*%
%TF.FileFunction,Copper,L2,Bot*%
%TF.FilePolarity,Positive*%
%FSLAX46Y46*%
G04 Gerber Fmt 4.6, Leading zero omitted, Abs format (unit mm)*
G04 Created by KiCad (PCBNEW 7.0.6) date 2023-07-11 14:09:12*
%MOMM*%
%LPD*%
G01*
G04 APERTURE LIST*
G04 Aperture macros list*
%AMRoundRect*
0 Rectangle with rounded corners*
0 $1 Rounding radius*
0 $2 $3 $4 $5 $6 $7 $8 $9 X,Y pos of 4 corners*
0 Add a 4 corners polygon primitive as box body*
4,1,4,$2,$3,$4,$5,$6,$7,$8,$9,$2,$3,0*
0 Add four circle primitives for the rounded corners*
1,1,$1+$1,$2,$3*
1,1,$1+$1,$4,$5*
1,1,$1+$1,$6,$7*
1,1,$1+$1,$8,$9*
0 Add four rect primitives between the rounded corners*
20,1,$1+$1,$2,$3,$4,$5,0*
20,1,$1+$1,$4,$5,$6,$7,0*
20,1,$1+$1,$6,$7,$8,$9,0*
20,1,$1+$1,$8,$9,$2,$3,0*%
G04 Aperture macros list end*
%TA.AperFunction,SMDPad,CuDef*%
%ADD10R,0.380000X1.000000*%
%TD*%
%TA.AperFunction,SMDPad,CuDef*%
%ADD11R,0.700000X1.150000*%
%TD*%
%TA.AperFunction,ComponentPad*%
%ADD12R,1.700000X1.700000*%
%TD*%
%TA.AperFunction,ComponentPad*%
%ADD13O,1.700000X1.700000*%
%TD*%
%TA.AperFunction,SMDPad,CuDef*%
%ADD14R,1.500000X1.500000*%
%TD*%
%TA.AperFunction,SMDPad,CuDef*%
%ADD15RoundRect,0.100000X0.100000X-0.130000X0.100000X0.130000X-0.100000X0.130000X-0.100000X-0.130000X0*%
%TD*%
%TA.AperFunction,SMDPad,CuDef*%
%ADD16RoundRect,0.100000X0.130000X0.100000X-0.130000X0.100000X-0.130000X-0.100000X0.130000X-0.100000X0*%
%TD*%
%TA.AperFunction,SMDPad,CuDef*%
%ADD17RoundRect,0.100000X-0.130000X-0.100000X0.130000X-0.100000X0.130000X0.100000X-0.130000X0.100000X0*%
%TD*%
%TA.AperFunction,ViaPad*%
%ADD18C,0.800000*%
%TD*%
%TA.AperFunction,Conductor*%
%ADD19C,0.125000*%
%TD*%
G04 APERTURE END LIST*
D10*
%TO.P,P1,B1,GND*%
%TO.N,GND*%
X142750000Y-129040000D03*
%TO.P,P1,B2*%
%TO.N,N/C*%
X142250000Y-129040000D03*
%TO.P,P1,B3*%
X141750000Y-129040000D03*
%TO.P,P1,B4,VBUS*%
%TO.N,VBUS*%
X141250000Y-129040000D03*
%TO.P,P1,B5,VCONN*%
%TO.N,/VCONN*%
X140750000Y-129040000D03*
%TO.P,P1,B8*%
%TO.N,N/C*%
X139250000Y-129040000D03*
%TO.P,P1,B9,VBUS*%
%TO.N,VBUS*%
X138750000Y-129040000D03*
%TO.P,P1,B10*%
%TO.N,N/C*%
X138250000Y-129040000D03*
%TO.P,P1,B11*%
X137750000Y-129040000D03*
%TO.P,P1,B12,GND*%
%TO.N,GND*%
X137250000Y-129040000D03*
D11*
%TO.P,P1,S1,SHIELD*%
X143420000Y-129880000D03*
%TD*%
D12*
%TO.P,J1,1,Pin_1*%
%TO.N,VBUS*%
X133470000Y-145870000D03*
D13*
%TO.P,J1,2,Pin_2*%
%TO.N,GND*%
X136010000Y-145870000D03*
%TD*%
D14*
%TO.P,TP2,1,1*%
%TO.N,GND*%
X134300000Y-128000000D03*
%TD*%
%TO.P,TP4,1,1*%
%TO.N,GND*%
X145700000Y-128000000D03*
%TD*%
D15*
%TO.P,C3,1*%
%TO.N,+3.3V*%
X139290000Y-141970000D03*
%TO.P,C3,2*%
%TO.N,GND*%
X139290000Y-141330000D03*
%TD*%
%TO.P,R2,1*%
%TO.N,/SDA*%
X140430000Y-141835000D03*
%TO.P,R2,2*%
%TO.N,+3.3V*%
X140430000Y-141195000D03*
%TD*%
D16*
%TO.P,C2,1*%
%TO.N,+3.3V*%
X140435000Y-140320000D03*
%TO.P,C2,2*%
%TO.N,GND*%
X139795000Y-140320000D03*
%TD*%
D17*
%TO.P,R1,1*%
%TO.N,/CC1*%
X143805000Y-131800000D03*
%TO.P,R1,2*%
%TO.N,GND*%
X144445000Y-131800000D03*
%TD*%
D18*
%TO.N,+3.3V*%
X143549881Y-140762790D03*
%TO.N,/SCL*%
X147310000Y-141760000D03*
X146841590Y-143156000D03*
%TO.N,GND*%
X136540191Y-137489809D03*
X141770000Y-131740000D03*
X145700000Y-128000000D03*
X134300000Y-128000000D03*
X144530000Y-149680000D03*
%TO.N,VBUS*%
X133925000Y-131820500D03*
X145650000Y-135930000D03*
X137529469Y-130138723D03*
X132120000Y-137410000D03*
%TO.N,+3.3V*%
X137976137Y-133052000D03*
X145820353Y-137950353D03*
X141011969Y-139677601D03*
X147570000Y-138176500D03*
X150670000Y-128240000D03*
%TO.N,/INT*%
X148705500Y-139167500D03*
X145180000Y-153980000D03*
%TO.N,/SDA*%
X149691394Y-141584817D03*
X146276750Y-153264111D03*
X143800000Y-143240000D03*
X146965000Y-144215000D03*
%TO.N,/CC1*%
X143367767Y-134223935D03*
X149750000Y-133840000D03*
X142213638Y-132714849D03*
X147728000Y-135560000D03*
X136830000Y-131466210D03*
%TO.N,+5V*%
X136325000Y-133415000D03*
X148362500Y-130170000D03*
%TO.N,/VCONN*%
X128295000Y-139830000D03*
X147066000Y-134366000D03*
X141869023Y-130745415D03*
X144071105Y-132699895D03*
X146627145Y-130879145D03*
%TO.N,/TXD*%
X144910000Y-145640000D03*
X144440000Y-140260000D03*
%TO.N,/D+*%
X139480000Y-130670000D03*
X140912000Y-131064000D03*
%TD*%
D19*
%TO.N,/CC1*%
X147340417Y-133703500D02*
X145198620Y-133703500D01*
%TO.N,/VCONN*%
X131830000Y-143768000D02*
X131830000Y-146455000D01*
X128295000Y-139830000D02*
X128295000Y-140233000D01*
X144804417Y-150342500D02*
X145829605Y-149317312D01*
X128295000Y-140233000D02*
X131830000Y-143768000D01*
X131830000Y-146455000D02*
X135717500Y-150342500D01*
X135717500Y-150342500D02*
X144804417Y-150342500D01*
X145829605Y-149317312D02*
X145829605Y-138877312D01*
X145829605Y-138877312D02*
X147066000Y-137640917D01*
X147066000Y-137640917D02*
X147066000Y-134366000D01*
%TO.N,/SDA*%
X149595183Y-141584817D02*
X149691394Y-141584817D01*
X146965000Y-144215000D02*
X149595183Y-141584817D01*
%TO.N,+3.3V*%
X143549881Y-140762790D02*
X142097158Y-140762790D01*
X142097158Y-140762790D02*
X141011969Y-139677601D01*
%TO.N,/INT*%
X148705500Y-139365500D02*
X150353894Y-141013894D01*
X148370000Y-152107778D02*
X146497778Y-153980000D01*
X148705500Y-139167500D02*
X148705500Y-139365500D01*
X150353894Y-141013894D02*
X150353894Y-141859234D01*
X150353894Y-141859234D02*
X148553128Y-143660000D01*
X148553128Y-143660000D02*
X148370000Y-143660000D01*
X148370000Y-143660000D02*
X148370000Y-152107778D01*
X146497778Y-153980000D02*
X145180000Y-153980000D01*
%TO.N,/SCL*%
X146841590Y-142228410D02*
X147310000Y-141760000D01*
X146841590Y-143156000D02*
X146841590Y-142228410D01*
%TO.N,VBUS*%
X138750000Y-129040000D02*
X138702500Y-129087500D01*
X138702500Y-129087500D02*
X138702500Y-129802500D01*
X138702500Y-129802500D02*
X138366277Y-130138723D01*
X138366277Y-130138723D02*
X137529469Y-130138723D01*
%TO.N,GND*%
X138040000Y-131740000D02*
X134300000Y-128000000D01*
X143420000Y-129880000D02*
X143420000Y-131200000D01*
X144445000Y-131800000D02*
X145700000Y-130545000D01*
X143420000Y-131200000D02*
X142880000Y-131740000D01*
X139290000Y-140825000D02*
X139795000Y-140320000D01*
X137226033Y-129063967D02*
X135363967Y-129063967D01*
X145700000Y-128000000D02*
X143820000Y-129880000D01*
X139795000Y-140320000D02*
X136660000Y-140320000D01*
X136010000Y-140970000D02*
X136010000Y-145870000D01*
X145700000Y-130545000D02*
X145700000Y-128000000D01*
X139290000Y-141330000D02*
X139290000Y-140825000D01*
X143420000Y-129710000D02*
X142750000Y-129040000D01*
X144530000Y-149680000D02*
X139820000Y-149680000D01*
X135363967Y-129063967D02*
X134300000Y-128000000D01*
X139820000Y-149680000D02*
X136010000Y-145870000D01*
X137250000Y-129040000D02*
X137226033Y-129063967D01*
X139795000Y-140320000D02*
X139370382Y-140320000D01*
X143820000Y-129880000D02*
X143420000Y-129880000D01*
X142880000Y-131740000D02*
X141770000Y-131740000D01*
X136660000Y-140320000D02*
X136010000Y-140970000D01*
X138890000Y-139839618D02*
X136540191Y-137489809D01*
X139370382Y-140320000D02*
X138890000Y-139839618D01*
X143420000Y-129880000D02*
X143420000Y-129710000D01*
X141770000Y-131740000D02*
X138040000Y-131740000D01*
%TO.N,VBUS*%
X141202500Y-128277500D02*
X141250000Y-128325000D01*
X137151542Y-135270000D02*
X144990000Y-135270000D01*
X135605000Y-133925000D02*
X132120000Y-137410000D01*
X138750000Y-128325000D02*
X138797500Y-128277500D01*
X138797500Y-128277500D02*
X141202500Y-128277500D01*
X135681542Y-133848458D02*
X135605000Y-133925000D01*
X135605000Y-133925000D02*
X135806542Y-133925000D01*
X144990000Y-135270000D02*
X145650000Y-135930000D01*
X135681542Y-133848458D02*
X135681542Y-133577042D01*
X141250000Y-128325000D02*
X141250000Y-129040000D01*
X135806542Y-133925000D02*
X137151542Y-135270000D01*
X135681542Y-133577042D02*
X133925000Y-131820500D01*
X138750000Y-129040000D02*
X138750000Y-128325000D01*
%TO.N,+3.3V*%
X146312500Y-135022500D02*
X146176435Y-134886435D01*
X140430000Y-140325000D02*
X140435000Y-140320000D01*
X140435000Y-140268790D02*
X141872249Y-138831541D01*
X150670000Y-135076500D02*
X147570000Y-138176500D01*
X140430000Y-141195000D02*
X140430000Y-140325000D01*
X142672854Y-139355936D02*
X142148459Y-138831541D01*
X150670000Y-128240000D02*
X150670000Y-135076500D01*
X137976137Y-133052000D02*
X138362000Y-133052000D01*
X140435000Y-140320000D02*
X140435000Y-140268790D01*
X145820353Y-137950353D02*
X146312500Y-137458206D01*
X146176435Y-134886435D02*
X140196435Y-134886435D01*
X139290000Y-141970000D02*
X139392652Y-141970000D01*
X144414770Y-139355936D02*
X145820353Y-137950353D01*
X140167652Y-141195000D02*
X140430000Y-141195000D01*
X139392652Y-141970000D02*
X140167652Y-141195000D01*
X138362000Y-133052000D02*
X140196435Y-134886435D01*
X141872249Y-138831541D02*
X142148459Y-138831541D01*
X146312500Y-137458206D02*
X146312500Y-135022500D01*
X142672854Y-139355936D02*
X144414770Y-139355936D01*
%TO.N,/SDA*%
X140430000Y-141835000D02*
X142395000Y-141835000D01*
X142395000Y-141835000D02*
X143800000Y-143240000D01*
X146276750Y-153264111D02*
X146276750Y-144903250D01*
X146276750Y-144903250D02*
X146965000Y-144215000D01*
%TO.N,/CC1*%
X147728000Y-135560000D02*
X148030000Y-135560000D01*
X144678185Y-134223935D02*
X143367767Y-134223935D01*
X141158083Y-132065000D02*
X141563083Y-132470000D01*
X141563083Y-132470000D02*
X141660000Y-132470000D01*
X143805000Y-131800000D02*
X143135000Y-132470000D01*
X141968789Y-132470000D02*
X141660000Y-132470000D01*
X143135000Y-132470000D02*
X141660000Y-132470000D01*
X147728000Y-135560000D02*
X147728000Y-134091083D01*
X142213638Y-132714849D02*
X141968789Y-132470000D01*
X147728000Y-134091083D02*
X147340417Y-133703500D01*
X137428790Y-132065000D02*
X141158083Y-132065000D01*
X145198620Y-133703500D02*
X144678185Y-134223935D01*
X136830000Y-131466210D02*
X137428790Y-132065000D01*
X148030000Y-135560000D02*
X149750000Y-133840000D01*
%TO.N,+5V*%
X145065151Y-133377349D02*
X141939221Y-133377349D01*
X148362500Y-130170000D02*
X148272500Y-130170000D01*
X148272500Y-130170000D02*
X145065151Y-133377349D01*
X140951872Y-132390000D02*
X137130000Y-132390000D01*
X136800140Y-132939860D02*
X136325000Y-133415000D01*
X137130000Y-132390000D02*
X136800140Y-132719860D01*
X141939221Y-133377349D02*
X140951872Y-132390000D01*
X136800140Y-132719860D02*
X136800140Y-132939860D01*
%TO.N,/VCONN*%
X140750000Y-129626392D02*
X140750000Y-129040000D01*
X141869023Y-130745415D02*
X140750000Y-129626392D01*
X144806395Y-132699895D02*
X144071105Y-132699895D01*
X146627145Y-130879145D02*
X144806395Y-132699895D01*
%TO.N,/TXD*%
X144910000Y-140730000D02*
X144440000Y-140260000D01*
X144910000Y-145640000D02*
X144910000Y-140730000D01*
%TO.N,/D+*%
X140518000Y-130670000D02*
X139480000Y-130670000D01*
X140912000Y-131064000D02*
X140518000Y-130670000D01*
%TD*%
M02*
