M48
; DRILL file {KiCad 7.0.6} date Di 11 Jul 2023 14:09:21
; FORMAT={-:-/ absolute / inch / decimal}
; #@! TF.CreationDate,2023-07-11T14:09:21+02:00
; #@! TF.GenerationSoftware,Kicad,Pcbnew,7.0.6
; #@! TF.FileFunction,Plated,1,2,PTH
FMAT,2
INCH
; #@! TA.AperFunction,Plated,PTH,ViaDrill
T1C0.0157
; #@! TA.AperFunction,Plated,PTH,ComponentDrill
T2C0.0394
%
G90
G05
T1
X5.051Y-5.5051
X5.2016Y-5.4098
X5.2726Y-5.1898
X5.2874Y-5.0394
X5.3671Y-5.2526
X5.3756Y-5.413
X5.387Y-5.1758
X5.4145Y-5.1236
X5.4321Y-5.2383
X5.4913Y-5.1445
X5.5477Y-5.16
X5.5517Y-5.4991
X5.5815Y-5.1866
X5.5854Y-5.1475
X5.599Y-5.225
X5.6444Y-5.2844
X5.6516Y-5.5418
X5.6614Y-5.6394
X5.6721Y-5.2244
X5.6866Y-5.522
X5.6902Y-5.8929
X5.7051Y-5.7339
X5.7157Y-6.0622
X5.7343Y-5.3516
X5.7362Y-5.0394
X5.741Y-5.4311
X5.7589Y-6.034
X5.7727Y-5.1527
X5.7812Y-5.6361
X5.786Y-5.6778
X5.79Y-5.29
X5.7996Y-5.5811
X5.8098Y-5.44
X5.8161Y-5.337
X5.841Y-5.1248
X5.8545Y-5.479
X5.8934Y-5.5742
X5.8957Y-5.2693
X5.9319Y-5.0488
T2
X5.2547Y-5.7429
X5.3547Y-5.7429
T0
M30
