M48
; DRILL file {KiCad 6.0.9} date Thu 15 Dec 2022 21:13:30 CET
; FORMAT={-:-/ absolute / inch / decimal}
; #@! TF.CreationDate,2022-12-15T21:13:30+01:00
; #@! TF.GenerationSoftware,Kicad,Pcbnew,6.0.9
; #@! TF.FileFunction,Plated,1,2,PTH
FMAT,2
INCH
; #@! TA.AperFunction,Plated,PTH,ViaDrill
T1C0.0118
; #@! TA.AperFunction,Plated,PTH,ViaDrill
T2C0.0157
%
G90
G05
T1
X5.27Y-5.0225
X5.27Y-5.0575
X5.305Y-5.0225
X5.305Y-5.0575
X5.7175Y-5.0225
X5.7175Y-5.0575
X5.755Y-5.0225
X5.755Y-5.0575
T2
X5.1309Y-5.6122
X5.313Y-5.1358
X5.3543Y-5.4774
X5.3642Y-5.8465
X5.375Y-5.6614
X5.4045Y-5.4488
X5.4331Y-5.4173
X5.4401Y-5.211
X5.4533Y-5.9021
X5.4739Y-5.1909
X5.4833Y-5.4774
X5.5295Y-5.1722
X5.6216Y-5.6127
X5.6412Y-5.3971
X5.6604Y-5.5935
X5.6781Y-5.4675
X5.7037Y-5.7854
X5.7057Y-5.5374
X5.7697Y-5.187
X5.8061Y-5.0709
X5.812Y-5.7539
X5.8524Y-5.188
X5.8927Y-5.1201
X5.9139Y-5.4493
T0
M30
