%TF.GenerationSoftware,KiCad,Pcbnew,6.0.9*%
%TF.CreationDate,2022-12-15T21:13:34+01:00*%
%TF.ProjectId,Expansion_Card,45787061-6e73-4696-9f6e-5f436172642e,X1*%
%TF.SameCoordinates,Original*%
%TF.FileFunction,AssemblyDrawing,Bot*%
%FSLAX46Y46*%
G04 Gerber Fmt 4.6, Leading zero omitted, Abs format (unit mm)*
G04 Created by KiCad (PCBNEW 6.0.9) date 2022-12-15 21:13:34*
%MOMM*%
%LPD*%
G01*
G04 APERTURE LIST*
%ADD10C,0.150000*%
G04 APERTURE END LIST*
D10*
%TO.C,TP2*%
X137633333Y-125702380D02*
X137061904Y-125702380D01*
X137347619Y-126702380D02*
X137347619Y-125702380D01*
X136347619Y-126654761D02*
X136442857Y-126702380D01*
X136633333Y-126702380D01*
X136728571Y-126654761D01*
X136776190Y-126559523D01*
X136776190Y-126178571D01*
X136728571Y-126083333D01*
X136633333Y-126035714D01*
X136442857Y-126035714D01*
X136347619Y-126083333D01*
X136300000Y-126178571D01*
X136300000Y-126273809D01*
X136776190Y-126369047D01*
X135919047Y-126654761D02*
X135823809Y-126702380D01*
X135633333Y-126702380D01*
X135538095Y-126654761D01*
X135490476Y-126559523D01*
X135490476Y-126511904D01*
X135538095Y-126416666D01*
X135633333Y-126369047D01*
X135776190Y-126369047D01*
X135871428Y-126321428D01*
X135919047Y-126226190D01*
X135919047Y-126178571D01*
X135871428Y-126083333D01*
X135776190Y-126035714D01*
X135633333Y-126035714D01*
X135538095Y-126083333D01*
X135204761Y-126035714D02*
X134823809Y-126035714D01*
X135061904Y-125702380D02*
X135061904Y-126559523D01*
X135014285Y-126654761D01*
X134919047Y-126702380D01*
X134823809Y-126702380D01*
X134490476Y-126702380D02*
X134490476Y-125702380D01*
X134109523Y-125702380D01*
X134014285Y-125750000D01*
X133966666Y-125797619D01*
X133919047Y-125892857D01*
X133919047Y-126035714D01*
X133966666Y-126130952D01*
X134014285Y-126178571D01*
X134109523Y-126226190D01*
X134490476Y-126226190D01*
X133347619Y-126702380D02*
X133442857Y-126654761D01*
X133490476Y-126607142D01*
X133538095Y-126511904D01*
X133538095Y-126226190D01*
X133490476Y-126130952D01*
X133442857Y-126083333D01*
X133347619Y-126035714D01*
X133204761Y-126035714D01*
X133109523Y-126083333D01*
X133061904Y-126130952D01*
X133014285Y-126226190D01*
X133014285Y-126511904D01*
X133061904Y-126607142D01*
X133109523Y-126654761D01*
X133204761Y-126702380D01*
X133347619Y-126702380D01*
X132585714Y-126702380D02*
X132585714Y-126035714D01*
X132585714Y-125702380D02*
X132633333Y-125750000D01*
X132585714Y-125797619D01*
X132538095Y-125750000D01*
X132585714Y-125702380D01*
X132585714Y-125797619D01*
X132109523Y-126035714D02*
X132109523Y-126702380D01*
X132109523Y-126130952D02*
X132061904Y-126083333D01*
X131966666Y-126035714D01*
X131823809Y-126035714D01*
X131728571Y-126083333D01*
X131680952Y-126178571D01*
X131680952Y-126702380D01*
X131347619Y-126035714D02*
X130966666Y-126035714D01*
X131204761Y-125702380D02*
X131204761Y-126559523D01*
X131157142Y-126654761D01*
X131061904Y-126702380D01*
X130966666Y-126702380D01*
X135561904Y-129102380D02*
X134990476Y-129102380D01*
X135276190Y-130102380D02*
X135276190Y-129102380D01*
X134657142Y-130102380D02*
X134657142Y-129102380D01*
X134276190Y-129102380D01*
X134180952Y-129150000D01*
X134133333Y-129197619D01*
X134085714Y-129292857D01*
X134085714Y-129435714D01*
X134133333Y-129530952D01*
X134180952Y-129578571D01*
X134276190Y-129626190D01*
X134657142Y-129626190D01*
X133704761Y-129197619D02*
X133657142Y-129150000D01*
X133561904Y-129102380D01*
X133323809Y-129102380D01*
X133228571Y-129150000D01*
X133180952Y-129197619D01*
X133133333Y-129292857D01*
X133133333Y-129388095D01*
X133180952Y-129530952D01*
X133752380Y-130102380D01*
X133133333Y-130102380D01*
%TO.C,TP4*%
X149033333Y-125702380D02*
X148461904Y-125702380D01*
X148747619Y-126702380D02*
X148747619Y-125702380D01*
X147747619Y-126654761D02*
X147842857Y-126702380D01*
X148033333Y-126702380D01*
X148128571Y-126654761D01*
X148176190Y-126559523D01*
X148176190Y-126178571D01*
X148128571Y-126083333D01*
X148033333Y-126035714D01*
X147842857Y-126035714D01*
X147747619Y-126083333D01*
X147700000Y-126178571D01*
X147700000Y-126273809D01*
X148176190Y-126369047D01*
X147319047Y-126654761D02*
X147223809Y-126702380D01*
X147033333Y-126702380D01*
X146938095Y-126654761D01*
X146890476Y-126559523D01*
X146890476Y-126511904D01*
X146938095Y-126416666D01*
X147033333Y-126369047D01*
X147176190Y-126369047D01*
X147271428Y-126321428D01*
X147319047Y-126226190D01*
X147319047Y-126178571D01*
X147271428Y-126083333D01*
X147176190Y-126035714D01*
X147033333Y-126035714D01*
X146938095Y-126083333D01*
X146604761Y-126035714D02*
X146223809Y-126035714D01*
X146461904Y-125702380D02*
X146461904Y-126559523D01*
X146414285Y-126654761D01*
X146319047Y-126702380D01*
X146223809Y-126702380D01*
X145890476Y-126702380D02*
X145890476Y-125702380D01*
X145509523Y-125702380D01*
X145414285Y-125750000D01*
X145366666Y-125797619D01*
X145319047Y-125892857D01*
X145319047Y-126035714D01*
X145366666Y-126130952D01*
X145414285Y-126178571D01*
X145509523Y-126226190D01*
X145890476Y-126226190D01*
X144747619Y-126702380D02*
X144842857Y-126654761D01*
X144890476Y-126607142D01*
X144938095Y-126511904D01*
X144938095Y-126226190D01*
X144890476Y-126130952D01*
X144842857Y-126083333D01*
X144747619Y-126035714D01*
X144604761Y-126035714D01*
X144509523Y-126083333D01*
X144461904Y-126130952D01*
X144414285Y-126226190D01*
X144414285Y-126511904D01*
X144461904Y-126607142D01*
X144509523Y-126654761D01*
X144604761Y-126702380D01*
X144747619Y-126702380D01*
X143985714Y-126702380D02*
X143985714Y-126035714D01*
X143985714Y-125702380D02*
X144033333Y-125750000D01*
X143985714Y-125797619D01*
X143938095Y-125750000D01*
X143985714Y-125702380D01*
X143985714Y-125797619D01*
X143509523Y-126035714D02*
X143509523Y-126702380D01*
X143509523Y-126130952D02*
X143461904Y-126083333D01*
X143366666Y-126035714D01*
X143223809Y-126035714D01*
X143128571Y-126083333D01*
X143080952Y-126178571D01*
X143080952Y-126702380D01*
X142747619Y-126035714D02*
X142366666Y-126035714D01*
X142604761Y-125702380D02*
X142604761Y-126559523D01*
X142557142Y-126654761D01*
X142461904Y-126702380D01*
X142366666Y-126702380D01*
X146961904Y-129102380D02*
X146390476Y-129102380D01*
X146676190Y-130102380D02*
X146676190Y-129102380D01*
X146057142Y-130102380D02*
X146057142Y-129102380D01*
X145676190Y-129102380D01*
X145580952Y-129150000D01*
X145533333Y-129197619D01*
X145485714Y-129292857D01*
X145485714Y-129435714D01*
X145533333Y-129530952D01*
X145580952Y-129578571D01*
X145676190Y-129626190D01*
X146057142Y-129626190D01*
X144628571Y-129435714D02*
X144628571Y-130102380D01*
X144866666Y-129054761D02*
X145104761Y-129769047D01*
X144485714Y-129769047D01*
%TD*%
M02*
