%TF.GenerationSoftware,KiCad,Pcbnew,6.0.9*%
%TF.CreationDate,2022-12-15T21:13:34+01:00*%
%TF.ProjectId,Expansion_Card,45787061-6e73-4696-9f6e-5f436172642e,X1*%
%TF.SameCoordinates,Original*%
%TF.FileFunction,Profile,NP*%
%FSLAX46Y46*%
G04 Gerber Fmt 4.6, Leading zero omitted, Abs format (unit mm)*
G04 Created by KiCad (PCBNEW 6.0.9) date 2022-12-15 21:13:34*
%MOMM*%
%LPD*%
G01*
G04 APERTURE LIST*
%TA.AperFunction,Profile*%
%ADD10C,0.050000*%
%TD*%
G04 APERTURE END LIST*
D10*
X153000000Y-130800000D02*
X153000000Y-156700000D01*
X127300000Y-157000000D02*
X152700000Y-157000000D01*
X144400000Y-129000000D02*
G75*
G03*
X144700000Y-128700000I0J300000D01*
G01*
X135300000Y-127300000D02*
G75*
G03*
X135000000Y-127000000I-300000J0D01*
G01*
X144700000Y-128700000D02*
X144700000Y-127300000D01*
X145000000Y-127000000D02*
G75*
G03*
X144700000Y-127300000I0J-300000D01*
G01*
X135000000Y-127000000D02*
X128300000Y-127000000D01*
X145000000Y-127000000D02*
X151700000Y-127000000D01*
X127000000Y-156700000D02*
G75*
G03*
X127300000Y-157000000I300000J0D01*
G01*
X144300000Y-129000000D02*
X144400000Y-129000000D01*
X128300000Y-127000000D02*
G75*
G03*
X128000000Y-127300000I0J-300000D01*
G01*
X128000000Y-130200000D02*
X128000000Y-127300000D01*
X127700000Y-130500000D02*
G75*
G03*
X128000000Y-130200000I0J300000D01*
G01*
X127300000Y-130500000D02*
G75*
G03*
X127000000Y-130800000I0J-300000D01*
G01*
X127300000Y-130500000D02*
X127700000Y-130500000D01*
X152000000Y-130200000D02*
X152000000Y-127300000D01*
X153000000Y-130800000D02*
G75*
G03*
X152700000Y-130500000I-300000J0D01*
G01*
X152000000Y-130200000D02*
G75*
G03*
X152300000Y-130500000I300000J0D01*
G01*
X152300000Y-130500000D02*
X152700000Y-130500000D01*
X127000000Y-130800000D02*
X127000000Y-156700000D01*
X135300000Y-128700000D02*
G75*
G03*
X135600000Y-129000000I300000J0D01*
G01*
X152000000Y-127300000D02*
G75*
G03*
X151700000Y-127000000I-300000J0D01*
G01*
X135600000Y-129000000D02*
X135700000Y-129000000D01*
X152700000Y-157000000D02*
G75*
G03*
X153000000Y-156700000I0J300000D01*
G01*
X135300000Y-128700000D02*
X135300000Y-127300000D01*
%TO.C,P1*%
X143050000Y-128340000D02*
G75*
G03*
X142750000Y-128040000I-300000J0D01*
G01*
X137250000Y-128040000D02*
G75*
G03*
X136950000Y-128340000I0J-300000D01*
G01*
X136650000Y-129000000D02*
G75*
G03*
X136950000Y-128700000I0J300000D01*
G01*
X143050000Y-128700000D02*
G75*
G03*
X143350000Y-129000000I300000J0D01*
G01*
X137250000Y-128040000D02*
X142750000Y-128040000D01*
X143350000Y-129000000D02*
X144300000Y-129000000D01*
X136650000Y-129000000D02*
X135700000Y-129000000D01*
X136950000Y-128340000D02*
X136950000Y-128700000D01*
X143050000Y-128340000D02*
X143050000Y-128700000D01*
%TD*%
M02*
