%TF.GenerationSoftware,KiCad,Pcbnew,6.0.9*%
%TF.CreationDate,2022-12-15T21:13:34+01:00*%
%TF.ProjectId,Expansion_Card,45787061-6e73-4696-9f6e-5f436172642e,X1*%
%TF.SameCoordinates,Original*%
%TF.FileFunction,Other,User*%
%FSLAX46Y46*%
G04 Gerber Fmt 4.6, Leading zero omitted, Abs format (unit mm)*
G04 Created by KiCad (PCBNEW 6.0.9) date 2022-12-15 21:13:34*
%MOMM*%
%LPD*%
G01*
G04 APERTURE LIST*
%ADD10C,0.050000*%
G04 APERTURE END LIST*
D10*
%TO.C,U3*%
X140625000Y-147900000D02*
X140625000Y-139700000D01*
X140625000Y-139700000D02*
X132425000Y-139700000D01*
X132425000Y-147900000D02*
X140625000Y-147900000D01*
X132425000Y-139700000D02*
X132425000Y-147900000D01*
%TO.C,U2*%
X150150000Y-133175000D02*
X143950000Y-133175000D01*
X143950000Y-139375000D02*
X150150000Y-139375000D01*
X143950000Y-133175000D02*
X143950000Y-139375000D01*
X150150000Y-139375000D02*
X150150000Y-133175000D01*
%TO.C,R23*%
X142875000Y-140100000D02*
X143575000Y-140100000D01*
X143575000Y-141500000D02*
X142875000Y-141500000D01*
X143575000Y-140100000D02*
X143575000Y-141500000D01*
X142875000Y-141500000D02*
X142875000Y-140100000D01*
%TO.C,R22*%
X137700000Y-148900000D02*
X137700000Y-149600000D01*
X136300000Y-149600000D02*
X136300000Y-148900000D01*
X137700000Y-149600000D02*
X136300000Y-149600000D01*
X136300000Y-148900000D02*
X137700000Y-148900000D01*
%TO.C,R21*%
X142750000Y-141500000D02*
X142050000Y-141500000D01*
X142050000Y-140100000D02*
X142750000Y-140100000D01*
X142050000Y-141500000D02*
X142050000Y-140100000D01*
X142750000Y-140100000D02*
X142750000Y-141500000D01*
%TO.C,R4*%
X143450000Y-139975000D02*
X142050000Y-139975000D01*
X142050000Y-139275000D02*
X143450000Y-139275000D01*
X143450000Y-139275000D02*
X143450000Y-139975000D01*
X142050000Y-139975000D02*
X142050000Y-139275000D01*
%TO.C,R3*%
X148500000Y-128350000D02*
X147100000Y-128350000D01*
X147100000Y-127650000D02*
X148500000Y-127650000D01*
X148500000Y-127650000D02*
X148500000Y-128350000D01*
X147100000Y-128350000D02*
X147100000Y-127650000D01*
%TO.C,R2*%
X150475000Y-130400000D02*
X150475000Y-129700000D01*
X151875000Y-129700000D02*
X151875000Y-130400000D01*
X150475000Y-129700000D02*
X151875000Y-129700000D01*
X151875000Y-130400000D02*
X150475000Y-130400000D01*
%TO.C,D2*%
X148600000Y-127650000D02*
X150000000Y-127650000D01*
X150000000Y-128350000D02*
X148600000Y-128350000D01*
X150000000Y-127650000D02*
X150000000Y-128350000D01*
X148600000Y-128350000D02*
X148600000Y-127650000D01*
%TO.C,D1*%
X151400000Y-130700000D02*
X152800000Y-130700000D01*
X152800000Y-131400000D02*
X151400000Y-131400000D01*
X152800000Y-130700000D02*
X152800000Y-131400000D01*
X151400000Y-131400000D02*
X151400000Y-130700000D01*
%TO.C,C19*%
X145725000Y-150055000D02*
X145725000Y-147225000D01*
X145725000Y-147225000D02*
X146575000Y-147225000D01*
X146575000Y-146275000D02*
X148675000Y-146275000D01*
X146575000Y-147225000D02*
X146575000Y-146275000D01*
X148675000Y-150905000D02*
X149525000Y-150055000D01*
X146575000Y-151975000D02*
X148675000Y-151975000D01*
X149525000Y-150055000D02*
X149525000Y-147225000D01*
X146575000Y-150905000D02*
X146575000Y-151975000D01*
X148675000Y-146275000D02*
X148675000Y-147225000D01*
X148675000Y-151975000D02*
X148675000Y-150905000D01*
X146575000Y-150905000D02*
X145725000Y-150055000D01*
X148675000Y-147225000D02*
X149525000Y-147225000D01*
%TO.C,C16*%
X134750000Y-134150000D02*
X134750000Y-133300000D01*
X138430000Y-136250000D02*
X137580000Y-137100000D01*
X139500000Y-134150000D02*
X138430000Y-134150000D01*
X133800000Y-134150000D02*
X134750000Y-134150000D01*
X138430000Y-136250000D02*
X139500000Y-136250000D01*
X137580000Y-133300000D02*
X134750000Y-133300000D01*
X139500000Y-136250000D02*
X139500000Y-134150000D01*
X138430000Y-134150000D02*
X137580000Y-133300000D01*
X134750000Y-136250000D02*
X133800000Y-136250000D01*
X133800000Y-136250000D02*
X133800000Y-134150000D01*
X134750000Y-137100000D02*
X134750000Y-136250000D01*
X137580000Y-137100000D02*
X134750000Y-137100000D01*
%TO.C,C15*%
X131625000Y-140025000D02*
X131625000Y-140875000D01*
X127945000Y-137925000D02*
X128795000Y-137075000D01*
X126875000Y-140025000D02*
X127945000Y-140025000D01*
X132575000Y-140025000D02*
X131625000Y-140025000D01*
X127945000Y-137925000D02*
X126875000Y-137925000D01*
X128795000Y-140875000D02*
X131625000Y-140875000D01*
X126875000Y-137925000D02*
X126875000Y-140025000D01*
X127945000Y-140025000D02*
X128795000Y-140875000D01*
X131625000Y-137925000D02*
X132575000Y-137925000D01*
X132575000Y-137925000D02*
X132575000Y-140025000D01*
X131625000Y-137075000D02*
X131625000Y-137925000D01*
X128795000Y-137075000D02*
X131625000Y-137075000D01*
%TO.C,C6*%
X148975000Y-143180000D02*
X148975000Y-140350000D01*
X148975000Y-140350000D02*
X149825000Y-140350000D01*
X149825000Y-139400000D02*
X151925000Y-139400000D01*
X149825000Y-140350000D02*
X149825000Y-139400000D01*
X151925000Y-144030000D02*
X152775000Y-143180000D01*
X149825000Y-145100000D02*
X151925000Y-145100000D01*
X152775000Y-143180000D02*
X152775000Y-140350000D01*
X149825000Y-144030000D02*
X149825000Y-145100000D01*
X151925000Y-139400000D02*
X151925000Y-140350000D01*
X151925000Y-145100000D02*
X151925000Y-144030000D01*
X149825000Y-144030000D02*
X148975000Y-143180000D01*
X151925000Y-140350000D02*
X152775000Y-140350000D01*
%TO.C,C5*%
X148675000Y-141820000D02*
X148675000Y-144650000D01*
X148675000Y-144650000D02*
X147825000Y-144650000D01*
X147825000Y-145600000D02*
X145725000Y-145600000D01*
X147825000Y-144650000D02*
X147825000Y-145600000D01*
X145725000Y-140970000D02*
X144875000Y-141820000D01*
X147825000Y-139900000D02*
X145725000Y-139900000D01*
X144875000Y-141820000D02*
X144875000Y-144650000D01*
X147825000Y-140970000D02*
X147825000Y-139900000D01*
X145725000Y-145600000D02*
X145725000Y-144650000D01*
X145725000Y-139900000D02*
X145725000Y-140970000D01*
X147825000Y-140970000D02*
X148675000Y-141820000D01*
X145725000Y-144650000D02*
X144875000Y-144650000D01*
%TO.C,C4*%
X141770000Y-148075000D02*
X144600000Y-148075000D01*
X144600000Y-148075000D02*
X144600000Y-148925000D01*
X145550000Y-148925000D02*
X145550000Y-151025000D01*
X144600000Y-148925000D02*
X145550000Y-148925000D01*
X140920000Y-151025000D02*
X141770000Y-151875000D01*
X139850000Y-148925000D02*
X139850000Y-151025000D01*
X141770000Y-151875000D02*
X144600000Y-151875000D01*
X140920000Y-148925000D02*
X139850000Y-148925000D01*
X145550000Y-151025000D02*
X144600000Y-151025000D01*
X139850000Y-151025000D02*
X140920000Y-151025000D01*
X140920000Y-148925000D02*
X141770000Y-148075000D01*
X144600000Y-151025000D02*
X144600000Y-151875000D01*
%TO.C,C3*%
X131655000Y-151050000D02*
X128825000Y-151050000D01*
X128825000Y-151050000D02*
X128825000Y-150200000D01*
X127875000Y-150200000D02*
X127875000Y-148100000D01*
X128825000Y-150200000D02*
X127875000Y-150200000D01*
X132505000Y-148100000D02*
X131655000Y-147250000D01*
X133575000Y-150200000D02*
X133575000Y-148100000D01*
X131655000Y-147250000D02*
X128825000Y-147250000D01*
X132505000Y-150200000D02*
X133575000Y-150200000D01*
X127875000Y-148100000D02*
X128825000Y-148100000D01*
X133575000Y-148100000D02*
X132505000Y-148100000D01*
X132505000Y-150200000D02*
X131655000Y-151050000D01*
X128825000Y-148100000D02*
X128825000Y-147250000D01*
%TO.C,R1*%
X134270000Y-133980000D02*
X132810000Y-133980000D01*
X132810000Y-131020000D02*
X134270000Y-131020000D01*
X134270000Y-131020000D02*
X134270000Y-133980000D01*
X132810000Y-133980000D02*
X132810000Y-131020000D01*
%TO.C,C2*%
X128800000Y-136782000D02*
X128800000Y-134822000D01*
X132200000Y-134822000D02*
X132200000Y-136782000D01*
X132200000Y-136782000D02*
X128800000Y-136782000D01*
X128800000Y-134822000D02*
X132200000Y-134822000D01*
%TO.C,U1*%
X132300000Y-130600000D02*
X132300000Y-134400000D01*
X132300000Y-134400000D02*
X128700000Y-134400000D01*
X128700000Y-134400000D02*
X128700000Y-130600000D01*
X128700000Y-130600000D02*
X132300000Y-130600000D01*
%TO.C,C1*%
X128800000Y-130178000D02*
X128800000Y-128218000D01*
X132200000Y-128218000D02*
X132200000Y-130178000D01*
X132200000Y-130178000D02*
X128800000Y-130178000D01*
X128800000Y-128218000D02*
X132200000Y-128218000D01*
%TO.C,P1*%
X144300000Y-130960000D02*
X135700000Y-130960000D01*
X135700000Y-130960000D02*
X135700000Y-127540000D01*
X144300000Y-130960000D02*
X144300000Y-127540000D01*
X144300000Y-127540000D02*
X135700000Y-127540000D01*
%TO.C,H1*%
X131150000Y-146500000D02*
G75*
G03*
X131150000Y-146500000I-2450000J0D01*
G01*
%TO.C,H2*%
X153750000Y-146500000D02*
G75*
G03*
X153750000Y-146500000I-2450000J0D01*
G01*
%TO.C,TP1*%
X133050000Y-126750000D02*
X135550000Y-126750000D01*
X135550000Y-129250000D02*
X135550000Y-126750000D01*
X133050000Y-126750000D02*
X133050000Y-129250000D01*
X135550000Y-129250000D02*
X133050000Y-129250000D01*
%TO.C,TP3*%
X146950000Y-129250000D02*
X146950000Y-126750000D01*
X144450000Y-126750000D02*
X146950000Y-126750000D01*
X146950000Y-129250000D02*
X144450000Y-129250000D01*
X144450000Y-126750000D02*
X144450000Y-129250000D01*
%TD*%
M02*
