%TF.GenerationSoftware,KiCad,Pcbnew,6.0.9*%
%TF.CreationDate,2022-12-15T21:13:34+01:00*%
%TF.ProjectId,Expansion_Card,45787061-6e73-4696-9f6e-5f436172642e,X1*%
%TF.SameCoordinates,Original*%
%TF.FileFunction,OtherDrawing,Comment*%
%FSLAX46Y46*%
G04 Gerber Fmt 4.6, Leading zero omitted, Abs format (unit mm)*
G04 Created by KiCad (PCBNEW 6.0.9) date 2022-12-15 21:13:34*
%MOMM*%
%LPD*%
G01*
G04 APERTURE LIST*
%ADD10C,0.080000*%
G04 APERTURE END LIST*
D10*
%TO.C,P1*%
X138285714Y-128266190D02*
X138285714Y-127766190D01*
X138476190Y-127766190D01*
X138523809Y-127790000D01*
X138547619Y-127813809D01*
X138571428Y-127861428D01*
X138571428Y-127932857D01*
X138547619Y-127980476D01*
X138523809Y-128004285D01*
X138476190Y-128028095D01*
X138285714Y-128028095D01*
X139071428Y-128218571D02*
X139047619Y-128242380D01*
X138976190Y-128266190D01*
X138928571Y-128266190D01*
X138857142Y-128242380D01*
X138809523Y-128194761D01*
X138785714Y-128147142D01*
X138761904Y-128051904D01*
X138761904Y-127980476D01*
X138785714Y-127885238D01*
X138809523Y-127837619D01*
X138857142Y-127790000D01*
X138928571Y-127766190D01*
X138976190Y-127766190D01*
X139047619Y-127790000D01*
X139071428Y-127813809D01*
X139452380Y-128004285D02*
X139523809Y-128028095D01*
X139547619Y-128051904D01*
X139571428Y-128099523D01*
X139571428Y-128170952D01*
X139547619Y-128218571D01*
X139523809Y-128242380D01*
X139476190Y-128266190D01*
X139285714Y-128266190D01*
X139285714Y-127766190D01*
X139452380Y-127766190D01*
X139500000Y-127790000D01*
X139523809Y-127813809D01*
X139547619Y-127861428D01*
X139547619Y-127909047D01*
X139523809Y-127956666D01*
X139500000Y-127980476D01*
X139452380Y-128004285D01*
X139285714Y-128004285D01*
X140166666Y-128004285D02*
X140333333Y-128004285D01*
X140404761Y-128266190D02*
X140166666Y-128266190D01*
X140166666Y-127766190D01*
X140404761Y-127766190D01*
X140833333Y-128266190D02*
X140833333Y-127766190D01*
X140833333Y-128242380D02*
X140785714Y-128266190D01*
X140690476Y-128266190D01*
X140642857Y-128242380D01*
X140619047Y-128218571D01*
X140595238Y-128170952D01*
X140595238Y-128028095D01*
X140619047Y-127980476D01*
X140642857Y-127956666D01*
X140690476Y-127932857D01*
X140785714Y-127932857D01*
X140833333Y-127956666D01*
X141285714Y-127932857D02*
X141285714Y-128337619D01*
X141261904Y-128385238D01*
X141238095Y-128409047D01*
X141190476Y-128432857D01*
X141119047Y-128432857D01*
X141071428Y-128409047D01*
X141285714Y-128242380D02*
X141238095Y-128266190D01*
X141142857Y-128266190D01*
X141095238Y-128242380D01*
X141071428Y-128218571D01*
X141047619Y-128170952D01*
X141047619Y-128028095D01*
X141071428Y-127980476D01*
X141095238Y-127956666D01*
X141142857Y-127932857D01*
X141238095Y-127932857D01*
X141285714Y-127956666D01*
X141714285Y-128242380D02*
X141666666Y-128266190D01*
X141571428Y-128266190D01*
X141523809Y-128242380D01*
X141500000Y-128194761D01*
X141500000Y-128004285D01*
X141523809Y-127956666D01*
X141571428Y-127932857D01*
X141666666Y-127932857D01*
X141714285Y-127956666D01*
X141738095Y-128004285D01*
X141738095Y-128051904D01*
X141500000Y-128099523D01*
%TD*%
M02*
