  0
SECTION
  2
HEADER
  9
$ANGBASE
  50
0.0
  9
$ANGDIR
  70
1
  9
$MEASUREMENT
  70
0
  0
ENDSEC
  0
SECTION
  2
TABLES
  0
TABLE
  2
LTYPE
  70
4
  0
LTYPE
  5
40F
  2
CONTINUOUS
  70
0
  3
Solid line
  72
65
  73
0
  40
0.0
  0
LTYPE
  5
410
  2
DASHDOT
 70
0
  3
Dash Dot ____ _ ____ _
 72
65
 73
4
 40
2.0
 49
1.25
 49
-0.25
 49
0.25
 49
-0.25
  0
LTYPE
  5
411
  2
DASHED
 70
0
  3
Dashed __ __ __ __ __
 72
65
 73
2
 40
0.75
 49
0.5
 49
-0.25
  0
LTYPE
  5
43B
  2
DOTTED
 70
0
  3
Dotted .  .  .  .
 72
65
 73
2
 40
0.2
 49
0.0
 49
-0.2
  0
ENDTAB
  0
TABLE
  2
STYLE
  70
4
  0
STYLE
  2
KICAD
  70
0
  40
0
  41
1
  42
1
  50
0
  71
0
  3
isocp.shx
  0
STYLE
  2
KICADB
  70
0
  40
0
  41
1
  42
1
  50
0
  71
0
  3
isocp.shx
  0
STYLE
  2
KICADI
  70
0
  40
0
  41
1
  42
1
  50
15
  71
0
  3
isocp.shx
  0
STYLE
  2
KICADBI
  70
0
  40
0
  41
1
  42
1
  50
15
  71
0
  3
isocp.shx
  0
ENDTAB
  0
TABLE
  2
LAYER
  70
1
  0
LAYER
  2
BLACK
  70
0
  62
7
  6
CONTINUOUS
  0
ENDTAB
  0
ENDSEC
  0
SECTION
  2
ENTITIES
0
LINE
8
BLACK
6
CONTINUOUS
10
5.38016
20
-5.07785
11
5.38331
21
-5.07735
0
LINE
8
BLACK
6
CONTINUOUS
10
5.38331
20
-5.07735
11
5.38636
21
-5.0758
0
LINE
8
BLACK
6
CONTINUOUS
10
5.38636
20
-5.0758
11
5.38879
21
-5.07337
0
LINE
8
BLACK
6
CONTINUOUS
10
5.38879
20
-5.07337
11
5.39035
21
-5.07032
0
LINE
8
BLACK
6
CONTINUOUS
10
5.39035
20
-5.07032
11
5.39085
21
-5.06716
0
LINE
8
BLACK
6
CONTINUOUS
10
5.39085
20
-5.06716
11
5.39075
21
-5.06693
0
LINE
8
BLACK
6
CONTINUOUS
10
5.39075
20
-5.06693
11
5.39075
21
-5.05276
0
LINE
8
BLACK
6
CONTINUOUS
10
5.39075
20
-5.05276
11
5.39137
21
-5.0488
0
LINE
8
BLACK
6
CONTINUOUS
10
5.39137
20
-5.0488
11
5.39319
21
-5.04524
0
LINE
8
BLACK
6
CONTINUOUS
10
5.39319
20
-5.04524
11
5.39602
21
-5.0424
0
LINE
8
BLACK
6
CONTINUOUS
10
5.39602
20
-5.0424
11
5.39959
21
-5.04059
0
LINE
8
BLACK
6
CONTINUOUS
10
5.39959
20
-5.04059
11
5.40354
21
-5.03996
0
LINE
8
BLACK
6
CONTINUOUS
10
5.40354
20
-5.03996
11
5.62008
21
-5.03996
0
LINE
8
BLACK
6
CONTINUOUS
10
5.62008
20
-5.03996
11
5.62403
21
-5.04059
0
LINE
8
BLACK
6
CONTINUOUS
10
5.62403
20
-5.04059
11
5.6276
21
-5.0424
0
LINE
8
BLACK
6
CONTINUOUS
10
5.6276
20
-5.0424
11
5.63043
21
-5.04524
0
LINE
8
BLACK
6
CONTINUOUS
10
5.63043
20
-5.04524
11
5.63225
21
-5.0488
0
LINE
8
BLACK
6
CONTINUOUS
10
5.63225
20
-5.0488
11
5.63287
21
-5.05276
0
LINE
8
BLACK
6
CONTINUOUS
10
5.63287
20
-5.05276
11
5.63287
21
-5.06693
0
LINE
8
BLACK
6
CONTINUOUS
10
5.63287
20
-5.06693
11
5.63278
21
-5.06716
0
LINE
8
BLACK
6
CONTINUOUS
10
5.63278
20
-5.06716
11
5.63328
21
-5.07032
0
LINE
8
BLACK
6
CONTINUOUS
10
5.63328
20
-5.07032
11
5.63483
21
-5.07337
0
LINE
8
BLACK
6
CONTINUOUS
10
5.63483
20
-5.07337
11
5.63726
21
-5.0758
0
LINE
8
BLACK
6
CONTINUOUS
10
5.63726
20
-5.0758
11
5.64031
21
-5.07735
0
LINE
8
BLACK
6
CONTINUOUS
10
5.64031
20
-5.07735
11
5.64347
21
-5.07785
0
LINE
8
BLACK
6
CONTINUOUS
10
5.64347
20
-5.07785
11
5.6437
21
-5.07776
0
LINE
8
BLACK
6
CONTINUOUS
10
5.6437
20
-5.07776
11
5.68504
21
-5.07776
0
LINE
8
BLACK
6
CONTINUOUS
10
5.68504
20
-5.07776
11
5.68528
21
-5.07785
0
LINE
8
BLACK
6
CONTINUOUS
10
5.68528
20
-5.07785
11
5.68843
21
-5.07735
0
LINE
8
BLACK
6
CONTINUOUS
10
5.68843
20
-5.07735
11
5.69148
21
-5.0758
0
LINE
8
BLACK
6
CONTINUOUS
10
5.69148
20
-5.0758
11
5.69391
21
-5.07337
0
LINE
8
BLACK
6
CONTINUOUS
10
5.69391
20
-5.07337
11
5.69546
21
-5.07032
0
LINE
8
BLACK
6
CONTINUOUS
10
5.69546
20
-5.07032
11
5.69596
21
-5.06716
0
LINE
8
BLACK
6
CONTINUOUS
10
5.69596
20
-5.06716
11
5.69587
21
-5.06693
0
LINE
8
BLACK
6
CONTINUOUS
10
5.69587
20
-5.06693
11
5.69587
21
-5.01181
0
LINE
8
BLACK
6
CONTINUOUS
10
5.69587
20
-5.01181
11
5.69649
21
-5.00786
0
LINE
8
BLACK
6
CONTINUOUS
10
5.69649
20
-5.00786
11
5.69831
21
-5.00429
0
LINE
8
BLACK
6
CONTINUOUS
10
5.69831
20
-5.00429
11
5.70114
21
-5.00146
0
LINE
8
BLACK
6
CONTINUOUS
10
5.70114
20
-5.00146
11
5.70471
21
-4.99964
0
LINE
8
BLACK
6
CONTINUOUS
10
5.70471
20
-4.99964
11
5.70866
21
-4.99902
0
LINE
8
BLACK
6
CONTINUOUS
10
5.70866
20
-4.99902
11
5.97244
21
-4.99902
0
LINE
8
BLACK
6
CONTINUOUS
10
5.97244
20
-4.99902
11
5.97639
21
-4.99964
0
LINE
8
BLACK
6
CONTINUOUS
10
5.97639
20
-4.99964
11
5.97996
21
-5.00146
0
LINE
8
BLACK
6
CONTINUOUS
10
5.97996
20
-5.00146
11
5.98279
21
-5.00429
0
LINE
8
BLACK
6
CONTINUOUS
10
5.98279
20
-5.00429
11
5.98461
21
-5.00786
0
LINE
8
BLACK
6
CONTINUOUS
10
5.98461
20
-5.00786
11
5.98524
21
-5.01181
0
LINE
8
BLACK
6
CONTINUOUS
10
5.98524
20
-5.01181
11
5.98524
21
-5.12598
0
LINE
8
BLACK
6
CONTINUOUS
10
5.98524
20
-5.12598
11
5.98514
21
-5.12622
0
LINE
8
BLACK
6
CONTINUOUS
10
5.98514
20
-5.12622
11
5.98564
21
-5.12937
0
LINE
8
BLACK
6
CONTINUOUS
10
5.98564
20
-5.12937
11
5.98719
21
-5.13243
0
LINE
8
BLACK
6
CONTINUOUS
10
5.98719
20
-5.13243
11
5.98962
21
-5.13485
0
LINE
8
BLACK
6
CONTINUOUS
10
5.98962
20
-5.13485
11
5.99268
21
-5.13641
0
LINE
8
BLACK
6
CONTINUOUS
10
5.99268
20
-5.13641
11
5.99583
21
-5.13691
0
LINE
8
BLACK
6
CONTINUOUS
10
5.99583
20
-5.13691
11
5.99606
21
-5.13681
0
LINE
8
BLACK
6
CONTINUOUS
10
5.99606
20
-5.13681
11
6.01181
21
-5.13681
0
LINE
8
BLACK
6
CONTINUOUS
10
6.01181
20
-5.13681
11
6.01577
21
-5.13744
0
LINE
8
BLACK
6
CONTINUOUS
10
6.01577
20
-5.13744
11
6.01933
21
-5.13925
0
LINE
8
BLACK
6
CONTINUOUS
10
6.01933
20
-5.13925
11
6.02216
21
-5.14209
0
LINE
8
BLACK
6
CONTINUOUS
10
6.02216
20
-5.14209
11
6.02398
21
-5.14565
0
LINE
8
BLACK
6
CONTINUOUS
10
6.02398
20
-5.14565
11
6.02461
21
-5.14961
0
LINE
8
BLACK
6
CONTINUOUS
10
6.02461
20
-5.14961
11
6.02461
21
-6.16929
0
LINE
8
BLACK
6
CONTINUOUS
10
6.02461
20
-6.16929
11
6.02398
21
-6.17325
0
LINE
8
BLACK
6
CONTINUOUS
10
6.02398
20
-6.17325
11
6.02216
21
-6.17681
0
LINE
8
BLACK
6
CONTINUOUS
10
6.02216
20
-6.17681
11
6.01933
21
-6.17964
0
LINE
8
BLACK
6
CONTINUOUS
10
6.01933
20
-6.17964
11
6.01577
21
-6.18146
0
LINE
8
BLACK
6
CONTINUOUS
10
6.01577
20
-6.18146
11
6.01181
21
-6.18209
0
LINE
8
BLACK
6
CONTINUOUS
10
6.01181
20
-6.18209
11
5.01181
21
-6.18209
0
LINE
8
BLACK
6
CONTINUOUS
10
5.01181
20
-6.18209
11
5.00786
21
-6.18146
0
LINE
8
BLACK
6
CONTINUOUS
10
5.00786
20
-6.18146
11
5.00429
21
-6.17964
0
LINE
8
BLACK
6
CONTINUOUS
10
5.00429
20
-6.17964
11
5.00146
21
-6.17681
0
LINE
8
BLACK
6
CONTINUOUS
10
5.00146
20
-6.17681
11
4.99964
21
-6.17325
0
LINE
8
BLACK
6
CONTINUOUS
10
4.99964
20
-6.17325
11
4.99902
21
-6.16929
0
LINE
8
BLACK
6
CONTINUOUS
10
4.99902
20
-6.16929
11
4.99902
21
-5.14961
0
LINE
8
BLACK
6
CONTINUOUS
10
4.99902
20
-5.14961
11
4.99964
21
-5.14565
0
LINE
8
BLACK
6
CONTINUOUS
10
4.99964
20
-5.14565
11
5.00146
21
-5.14209
0
LINE
8
BLACK
6
CONTINUOUS
10
5.00146
20
-5.14209
11
5.00429
21
-5.13925
0
LINE
8
BLACK
6
CONTINUOUS
10
5.00429
20
-5.13925
11
5.00786
21
-5.13744
0
LINE
8
BLACK
6
CONTINUOUS
10
5.00786
20
-5.13744
11
5.01181
21
-5.13681
0
LINE
8
BLACK
6
CONTINUOUS
10
5.01181
20
-5.13681
11
5.02756
21
-5.13681
0
LINE
8
BLACK
6
CONTINUOUS
10
5.02756
20
-5.13681
11
5.02779
21
-5.13691
0
LINE
8
BLACK
6
CONTINUOUS
10
5.02779
20
-5.13691
11
5.03095
21
-5.13641
0
LINE
8
BLACK
6
CONTINUOUS
10
5.03095
20
-5.13641
11
5.034
21
-5.13485
0
LINE
8
BLACK
6
CONTINUOUS
10
5.034
20
-5.13485
11
5.03643
21
-5.13243
0
LINE
8
BLACK
6
CONTINUOUS
10
5.03643
20
-5.13243
11
5.03798
21
-5.12937
0
LINE
8
BLACK
6
CONTINUOUS
10
5.03798
20
-5.12937
11
5.03848
21
-5.12622
0
LINE
8
BLACK
6
CONTINUOUS
10
5.03848
20
-5.12622
11
5.03839
21
-5.12598
0
LINE
8
BLACK
6
CONTINUOUS
10
5.03839
20
-5.12598
11
5.03839
21
-5.01181
0
LINE
8
BLACK
6
CONTINUOUS
10
5.03839
20
-5.01181
11
5.03901
21
-5.00786
0
LINE
8
BLACK
6
CONTINUOUS
10
5.03901
20
-5.00786
11
5.04083
21
-5.00429
0
LINE
8
BLACK
6
CONTINUOUS
10
5.04083
20
-5.00429
11
5.04366
21
-5.00146
0
LINE
8
BLACK
6
CONTINUOUS
10
5.04366
20
-5.00146
11
5.04723
21
-4.99964
0
LINE
8
BLACK
6
CONTINUOUS
10
5.04723
20
-4.99964
11
5.05118
21
-4.99902
0
LINE
8
BLACK
6
CONTINUOUS
10
5.05118
20
-4.99902
11
5.31496
21
-4.99902
0
LINE
8
BLACK
6
CONTINUOUS
10
5.31496
20
-4.99902
11
5.31891
21
-4.99964
0
LINE
8
BLACK
6
CONTINUOUS
10
5.31891
20
-4.99964
11
5.32248
21
-5.00146
0
LINE
8
BLACK
6
CONTINUOUS
10
5.32248
20
-5.00146
11
5.32531
21
-5.00429
0
LINE
8
BLACK
6
CONTINUOUS
10
5.32531
20
-5.00429
11
5.32713
21
-5.00786
0
LINE
8
BLACK
6
CONTINUOUS
10
5.32713
20
-5.00786
11
5.32776
21
-5.01181
0
LINE
8
BLACK
6
CONTINUOUS
10
5.32776
20
-5.01181
11
5.32776
21
-5.06693
0
LINE
8
BLACK
6
CONTINUOUS
10
5.32776
20
-5.06693
11
5.32766
21
-5.06716
0
LINE
8
BLACK
6
CONTINUOUS
10
5.32766
20
-5.06716
11
5.32816
21
-5.07032
0
LINE
8
BLACK
6
CONTINUOUS
10
5.32816
20
-5.07032
11
5.32971
21
-5.07337
0
LINE
8
BLACK
6
CONTINUOUS
10
5.32971
20
-5.07337
11
5.33214
21
-5.0758
0
LINE
8
BLACK
6
CONTINUOUS
10
5.33214
20
-5.0758
11
5.3352
21
-5.07735
0
LINE
8
BLACK
6
CONTINUOUS
10
5.3352
20
-5.07735
11
5.33835
21
-5.07785
0
LINE
8
BLACK
6
CONTINUOUS
10
5.33835
20
-5.07785
11
5.33858
21
-5.07776
0
LINE
8
BLACK
6
CONTINUOUS
10
5.33858
20
-5.07776
11
5.37992
21
-5.07776
0
LINE
8
BLACK
6
CONTINUOUS
10
5.37992
20
-5.07776
11
5.38016
21
-5.07785
0
LINE
8
BLACK
6
CONTINUOUS
10
5.70843
20
-5.00089
11
5.70527
21
-5.00139
0
LINE
8
BLACK
6
CONTINUOUS
10
5.70527
20
-5.00139
11
5.70222
21
-5.00294
0
LINE
8
BLACK
6
CONTINUOUS
10
5.70222
20
-5.00294
11
5.69979
21
-5.00537
0
LINE
8
BLACK
6
CONTINUOUS
10
5.69979
20
-5.00537
11
5.69824
21
-5.00842
0
LINE
8
BLACK
6
CONTINUOUS
10
5.69824
20
-5.00842
11
5.69774
21
-5.01158
0
LINE
8
BLACK
6
CONTINUOUS
10
5.69774
20
-5.01158
11
5.69783
21
-5.01181
0
LINE
8
BLACK
6
CONTINUOUS
10
5.69783
20
-5.01181
11
5.69783
21
-5.06693
0
LINE
8
BLACK
6
CONTINUOUS
10
5.69783
20
-5.06693
11
5.69721
21
-5.07088
0
LINE
8
BLACK
6
CONTINUOUS
10
5.69721
20
-5.07088
11
5.69539
21
-5.07445
0
LINE
8
BLACK
6
CONTINUOUS
10
5.69539
20
-5.07445
11
5.69256
21
-5.07728
0
LINE
8
BLACK
6
CONTINUOUS
10
5.69256
20
-5.07728
11
5.68899
21
-5.0791
0
LINE
8
BLACK
6
CONTINUOUS
10
5.68899
20
-5.0791
11
5.68504
21
-5.07972
0
LINE
8
BLACK
6
CONTINUOUS
10
5.68504
20
-5.07972
11
5.6437
21
-5.07972
0
LINE
8
BLACK
6
CONTINUOUS
10
5.6437
20
-5.07972
11
5.63975
21
-5.0791
0
LINE
8
BLACK
6
CONTINUOUS
10
5.63975
20
-5.0791
11
5.63618
21
-5.07728
0
LINE
8
BLACK
6
CONTINUOUS
10
5.63618
20
-5.07728
11
5.63335
21
-5.07445
0
LINE
8
BLACK
6
CONTINUOUS
10
5.63335
20
-5.07445
11
5.63153
21
-5.07088
0
LINE
8
BLACK
6
CONTINUOUS
10
5.63153
20
-5.07088
11
5.63091
21
-5.06693
0
LINE
8
BLACK
6
CONTINUOUS
10
5.63091
20
-5.06693
11
5.63091
21
-5.05276
0
LINE
8
BLACK
6
CONTINUOUS
10
5.63091
20
-5.05276
11
5.631
21
-5.05252
0
LINE
8
BLACK
6
CONTINUOUS
10
5.631
20
-5.05252
11
5.6305
21
-5.04937
0
LINE
8
BLACK
6
CONTINUOUS
10
5.6305
20
-5.04937
11
5.62895
21
-5.04631
0
LINE
8
BLACK
6
CONTINUOUS
10
5.62895
20
-5.04631
11
5.62652
21
-5.04389
0
LINE
8
BLACK
6
CONTINUOUS
10
5.62652
20
-5.04389
11
5.62347
21
-5.04233
0
LINE
8
BLACK
6
CONTINUOUS
10
5.62347
20
-5.04233
11
5.62031
21
-5.04183
0
LINE
8
BLACK
6
CONTINUOUS
10
5.62031
20
-5.04183
11
5.62008
21
-5.04193
0
LINE
8
BLACK
6
CONTINUOUS
10
5.62008
20
-5.04193
11
5.40354
21
-5.04193
0
LINE
8
BLACK
6
CONTINUOUS
10
5.40354
20
-5.04193
11
5.40331
21
-5.04183
0
LINE
8
BLACK
6
CONTINUOUS
10
5.40331
20
-5.04183
11
5.40016
21
-5.04233
0
LINE
8
BLACK
6
CONTINUOUS
10
5.40016
20
-5.04233
11
5.3971
21
-5.04389
0
LINE
8
BLACK
6
CONTINUOUS
10
5.3971
20
-5.04389
11
5.39468
21
-5.04631
0
LINE
8
BLACK
6
CONTINUOUS
10
5.39468
20
-5.04631
11
5.39312
21
-5.04937
0
LINE
8
BLACK
6
CONTINUOUS
10
5.39312
20
-5.04937
11
5.39262
21
-5.05252
0
LINE
8
BLACK
6
CONTINUOUS
10
5.39262
20
-5.05252
11
5.39272
21
-5.05276
0
LINE
8
BLACK
6
CONTINUOUS
10
5.39272
20
-5.05276
11
5.39272
21
-5.06693
0
LINE
8
BLACK
6
CONTINUOUS
10
5.39272
20
-5.06693
11
5.39209
21
-5.07088
0
LINE
8
BLACK
6
CONTINUOUS
10
5.39209
20
-5.07088
11
5.39027
21
-5.07445
0
LINE
8
BLACK
6
CONTINUOUS
10
5.39027
20
-5.07445
11
5.38744
21
-5.07728
0
LINE
8
BLACK
6
CONTINUOUS
10
5.38744
20
-5.07728
11
5.38388
21
-5.0791
0
LINE
8
BLACK
6
CONTINUOUS
10
5.38388
20
-5.0791
11
5.37992
21
-5.07972
0
LINE
8
BLACK
6
CONTINUOUS
10
5.37992
20
-5.07972
11
5.33858
21
-5.07972
0
LINE
8
BLACK
6
CONTINUOUS
10
5.33858
20
-5.07972
11
5.33463
21
-5.0791
0
LINE
8
BLACK
6
CONTINUOUS
10
5.33463
20
-5.0791
11
5.33106
21
-5.07728
0
LINE
8
BLACK
6
CONTINUOUS
10
5.33106
20
-5.07728
11
5.32823
21
-5.07445
0
LINE
8
BLACK
6
CONTINUOUS
10
5.32823
20
-5.07445
11
5.32641
21
-5.07088
0
LINE
8
BLACK
6
CONTINUOUS
10
5.32641
20
-5.07088
11
5.32579
21
-5.06693
0
LINE
8
BLACK
6
CONTINUOUS
10
5.32579
20
-5.06693
11
5.32579
21
-5.01181
0
LINE
8
BLACK
6
CONTINUOUS
10
5.32579
20
-5.01181
11
5.32589
21
-5.01158
0
LINE
8
BLACK
6
CONTINUOUS
10
5.32589
20
-5.01158
11
5.32539
21
-5.00842
0
LINE
8
BLACK
6
CONTINUOUS
10
5.32539
20
-5.00842
11
5.32383
21
-5.00537
0
LINE
8
BLACK
6
CONTINUOUS
10
5.32383
20
-5.00537
11
5.3214
21
-5.00294
0
LINE
8
BLACK
6
CONTINUOUS
10
5.3214
20
-5.00294
11
5.31835
21
-5.00139
0
LINE
8
BLACK
6
CONTINUOUS
10
5.31835
20
-5.00139
11
5.3152
21
-5.00089
0
LINE
8
BLACK
6
CONTINUOUS
10
5.3152
20
-5.00089
11
5.31496
21
-5.00098
0
LINE
8
BLACK
6
CONTINUOUS
10
5.31496
20
-5.00098
11
5.05118
21
-5.00098
0
LINE
8
BLACK
6
CONTINUOUS
10
5.05118
20
-5.00098
11
5.05095
21
-5.00089
0
LINE
8
BLACK
6
CONTINUOUS
10
5.05095
20
-5.00089
11
5.04779
21
-5.00139
0
LINE
8
BLACK
6
CONTINUOUS
10
5.04779
20
-5.00139
11
5.04474
21
-5.00294
0
LINE
8
BLACK
6
CONTINUOUS
10
5.04474
20
-5.00294
11
5.04231
21
-5.00537
0
LINE
8
BLACK
6
CONTINUOUS
10
5.04231
20
-5.00537
11
5.04076
21
-5.00842
0
LINE
8
BLACK
6
CONTINUOUS
10
5.04076
20
-5.00842
11
5.04026
21
-5.01158
0
LINE
8
BLACK
6
CONTINUOUS
10
5.04026
20
-5.01158
11
5.04035
21
-5.01181
0
LINE
8
BLACK
6
CONTINUOUS
10
5.04035
20
-5.01181
11
5.04035
21
-5.12598
0
LINE
8
BLACK
6
CONTINUOUS
10
5.04035
20
-5.12598
11
5.03973
21
-5.12994
0
LINE
8
BLACK
6
CONTINUOUS
10
5.03973
20
-5.12994
11
5.03791
21
-5.13351
0
LINE
8
BLACK
6
CONTINUOUS
10
5.03791
20
-5.13351
11
5.03508
21
-5.13634
0
LINE
8
BLACK
6
CONTINUOUS
10
5.03508
20
-5.13634
11
5.03151
21
-5.13815
0
LINE
8
BLACK
6
CONTINUOUS
10
5.03151
20
-5.13815
11
5.02756
21
-5.13878
0
LINE
8
BLACK
6
CONTINUOUS
10
5.02756
20
-5.13878
11
5.01181
21
-5.13878
0
LINE
8
BLACK
6
CONTINUOUS
10
5.01181
20
-5.13878
11
5.01158
21
-5.13868
0
LINE
8
BLACK
6
CONTINUOUS
10
5.01158
20
-5.13868
11
5.00842
21
-5.13918
0
LINE
8
BLACK
6
CONTINUOUS
10
5.00842
20
-5.13918
11
5.00537
21
-5.14074
0
LINE
8
BLACK
6
CONTINUOUS
10
5.00537
20
-5.14074
11
5.00294
21
-5.14316
0
LINE
8
BLACK
6
CONTINUOUS
10
5.00294
20
-5.14316
11
5.00139
21
-5.14622
0
LINE
8
BLACK
6
CONTINUOUS
10
5.00139
20
-5.14622
11
5.00089
21
-5.14937
0
LINE
8
BLACK
6
CONTINUOUS
10
5.00089
20
-5.14937
11
5.00098
21
-5.14961
0
LINE
8
BLACK
6
CONTINUOUS
10
5.00098
20
-5.14961
11
5.00098
21
-6.16929
0
LINE
8
BLACK
6
CONTINUOUS
10
5.00098
20
-6.16929
11
5.00089
21
-6.16953
0
LINE
8
BLACK
6
CONTINUOUS
10
5.00089
20
-6.16953
11
5.00139
21
-6.17268
0
LINE
8
BLACK
6
CONTINUOUS
10
5.00139
20
-6.17268
11
5.00294
21
-6.17573
0
LINE
8
BLACK
6
CONTINUOUS
10
5.00294
20
-6.17573
11
5.00537
21
-6.17816
0
LINE
8
BLACK
6
CONTINUOUS
10
5.00537
20
-6.17816
11
5.00842
21
-6.17972
0
LINE
8
BLACK
6
CONTINUOUS
10
5.00842
20
-6.17972
11
5.01158
21
-6.18022
0
LINE
8
BLACK
6
CONTINUOUS
10
5.01158
20
-6.18022
11
5.01181
21
-6.18012
0
LINE
8
BLACK
6
CONTINUOUS
10
5.01181
20
-6.18012
11
6.01181
21
-6.18012
0
LINE
8
BLACK
6
CONTINUOUS
10
6.01181
20
-6.18012
11
6.01205
21
-6.18022
0
LINE
8
BLACK
6
CONTINUOUS
10
6.01205
20
-6.18022
11
6.0152
21
-6.17972
0
LINE
8
BLACK
6
CONTINUOUS
10
6.0152
20
-6.17972
11
6.01825
21
-6.17816
0
LINE
8
BLACK
6
CONTINUOUS
10
6.01825
20
-6.17816
11
6.02068
21
-6.17573
0
LINE
8
BLACK
6
CONTINUOUS
10
6.02068
20
-6.17573
11
6.02224
21
-6.17268
0
LINE
8
BLACK
6
CONTINUOUS
10
6.02224
20
-6.17268
11
6.02274
21
-6.16953
0
LINE
8
BLACK
6
CONTINUOUS
10
6.02274
20
-6.16953
11
6.02264
21
-6.16929
0
LINE
8
BLACK
6
CONTINUOUS
10
6.02264
20
-6.16929
11
6.02264
21
-5.14961
0
LINE
8
BLACK
6
CONTINUOUS
10
6.02264
20
-5.14961
11
6.02274
21
-5.14937
0
LINE
8
BLACK
6
CONTINUOUS
10
6.02274
20
-5.14937
11
6.02224
21
-5.14622
0
LINE
8
BLACK
6
CONTINUOUS
10
6.02224
20
-5.14622
11
6.02068
21
-5.14316
0
LINE
8
BLACK
6
CONTINUOUS
10
6.02068
20
-5.14316
11
6.01825
21
-5.14074
0
LINE
8
BLACK
6
CONTINUOUS
10
6.01825
20
-5.14074
11
6.0152
21
-5.13918
0
LINE
8
BLACK
6
CONTINUOUS
10
6.0152
20
-5.13918
11
6.01205
21
-5.13868
0
LINE
8
BLACK
6
CONTINUOUS
10
6.01205
20
-5.13868
11
6.01181
21
-5.13878
0
LINE
8
BLACK
6
CONTINUOUS
10
6.01181
20
-5.13878
11
5.99606
21
-5.13878
0
LINE
8
BLACK
6
CONTINUOUS
10
5.99606
20
-5.13878
11
5.99211
21
-5.13815
0
LINE
8
BLACK
6
CONTINUOUS
10
5.99211
20
-5.13815
11
5.98854
21
-5.13634
0
LINE
8
BLACK
6
CONTINUOUS
10
5.98854
20
-5.13634
11
5.98571
21
-5.13351
0
LINE
8
BLACK
6
CONTINUOUS
10
5.98571
20
-5.13351
11
5.98389
21
-5.12994
0
LINE
8
BLACK
6
CONTINUOUS
10
5.98389
20
-5.12994
11
5.98327
21
-5.12598
0
LINE
8
BLACK
6
CONTINUOUS
10
5.98327
20
-5.12598
11
5.98327
21
-5.01181
0
LINE
8
BLACK
6
CONTINUOUS
10
5.98327
20
-5.01181
11
5.98337
21
-5.01158
0
LINE
8
BLACK
6
CONTINUOUS
10
5.98337
20
-5.01158
11
5.98287
21
-5.00842
0
LINE
8
BLACK
6
CONTINUOUS
10
5.98287
20
-5.00842
11
5.98131
21
-5.00537
0
LINE
8
BLACK
6
CONTINUOUS
10
5.98131
20
-5.00537
11
5.97888
21
-5.00294
0
LINE
8
BLACK
6
CONTINUOUS
10
5.97888
20
-5.00294
11
5.97583
21
-5.00139
0
LINE
8
BLACK
6
CONTINUOUS
10
5.97583
20
-5.00139
11
5.97268
21
-5.00089
0
LINE
8
BLACK
6
CONTINUOUS
10
5.97268
20
-5.00089
11
5.97244
21
-5.00098
0
LINE
8
BLACK
6
CONTINUOUS
10
5.97244
20
-5.00098
11
5.70866
21
-5.00098
0
LINE
8
BLACK
6
CONTINUOUS
10
5.70866
20
-5.00098
11
5.70843
21
-5.00089
  0
ENDSEC
  0
EOF
