%TF.GenerationSoftware,KiCad,Pcbnew,6.0.9*%
%TF.CreationDate,2022-12-15T21:13:34+01:00*%
%TF.ProjectId,Expansion_Card,45787061-6e73-4696-9f6e-5f436172642e,X1*%
%TF.SameCoordinates,Original*%
%TF.FileFunction,Copper,L1,Top*%
%TF.FilePolarity,Positive*%
%FSLAX46Y46*%
G04 Gerber Fmt 4.6, Leading zero omitted, Abs format (unit mm)*
G04 Created by KiCad (PCBNEW 6.0.9) date 2022-12-15 21:13:34*
%MOMM*%
%LPD*%
G01*
G04 APERTURE LIST*
G04 Aperture macros list*
%AMRoundRect*
0 Rectangle with rounded corners*
0 $1 Rounding radius*
0 $2 $3 $4 $5 $6 $7 $8 $9 X,Y pos of 4 corners*
0 Add a 4 corners polygon primitive as box body*
4,1,4,$2,$3,$4,$5,$6,$7,$8,$9,$2,$3,0*
0 Add four circle primitives for the rounded corners*
1,1,$1+$1,$2,$3*
1,1,$1+$1,$4,$5*
1,1,$1+$1,$6,$7*
1,1,$1+$1,$8,$9*
0 Add four rect primitives between the rounded corners*
20,1,$1+$1,$2,$3,$4,$5,0*
20,1,$1+$1,$4,$5,$6,$7,0*
20,1,$1+$1,$6,$7,$8,$9,0*
20,1,$1+$1,$8,$9,$2,$3,0*%
G04 Aperture macros list end*
%TA.AperFunction,SMDPad,CuDef*%
%ADD10RoundRect,0.062500X-0.337500X-0.062500X0.337500X-0.062500X0.337500X0.062500X-0.337500X0.062500X0*%
%TD*%
%TA.AperFunction,SMDPad,CuDef*%
%ADD11RoundRect,0.062500X-0.062500X-0.337500X0.062500X-0.337500X0.062500X0.337500X-0.062500X0.337500X0*%
%TD*%
%TA.AperFunction,SMDPad,CuDef*%
%ADD12R,5.300000X5.300000*%
%TD*%
%TA.AperFunction,SMDPad,CuDef*%
%ADD13R,3.350000X3.350000*%
%TD*%
%TA.AperFunction,SMDPad,CuDef*%
%ADD14RoundRect,0.100000X-0.100000X0.130000X-0.100000X-0.130000X0.100000X-0.130000X0.100000X0.130000X0*%
%TD*%
%TA.AperFunction,SMDPad,CuDef*%
%ADD15RoundRect,0.100000X0.130000X0.100000X-0.130000X0.100000X-0.130000X-0.100000X0.130000X-0.100000X0*%
%TD*%
%TA.AperFunction,SMDPad,CuDef*%
%ADD16RoundRect,0.100000X0.100000X-0.130000X0.100000X0.130000X-0.100000X0.130000X-0.100000X-0.130000X0*%
%TD*%
%TA.AperFunction,SMDPad,CuDef*%
%ADD17RoundRect,0.100000X-0.130000X-0.100000X0.130000X-0.100000X0.130000X0.100000X-0.130000X0.100000X0*%
%TD*%
%TA.AperFunction,SMDPad,CuDef*%
%ADD18R,1.600000X2.200000*%
%TD*%
%TA.AperFunction,SMDPad,CuDef*%
%ADD19R,2.200000X1.600000*%
%TD*%
%TA.AperFunction,SMDPad,CuDef*%
%ADD20RoundRect,0.200000X-0.275000X0.200000X-0.275000X-0.200000X0.275000X-0.200000X0.275000X0.200000X0*%
%TD*%
%TA.AperFunction,SMDPad,CuDef*%
%ADD21RoundRect,0.250000X0.250000X0.475000X-0.250000X0.475000X-0.250000X-0.475000X0.250000X-0.475000X0*%
%TD*%
%TA.AperFunction,SMDPad,CuDef*%
%ADD22R,0.650000X1.060000*%
%TD*%
%TA.AperFunction,SMDPad,CuDef*%
%ADD23R,0.700000X1.150000*%
%TD*%
%TA.AperFunction,SMDPad,CuDef*%
%ADD24R,0.380000X1.000000*%
%TD*%
%TA.AperFunction,SMDPad,CuDef*%
%ADD25R,1.500000X1.500000*%
%TD*%
%TA.AperFunction,ViaPad*%
%ADD26C,0.800000*%
%TD*%
%TA.AperFunction,ViaPad*%
%ADD27C,0.500000*%
%TD*%
%TA.AperFunction,Conductor*%
%ADD28C,0.250000*%
%TD*%
%TA.AperFunction,Conductor*%
%ADD29C,0.160000*%
%TD*%
%TA.AperFunction,Conductor*%
%ADD30C,0.200000*%
%TD*%
G04 APERTURE END LIST*
D10*
%TO.P,U3,1,VDDA*%
%TO.N,/VDD33A*%
X133075000Y-141050000D03*
%TO.P,U3,2,LNA_IN*%
%TO.N,unconnected-(U3-Pad2)*%
X133075000Y-141550000D03*
%TO.P,U3,3,VDDA3P3*%
%TO.N,/VDD33A*%
X133075000Y-142050000D03*
%TO.P,U3,4,VDDA3P3*%
X133075000Y-142550000D03*
%TO.P,U3,5,SENSOR_VP*%
%TO.N,unconnected-(U3-Pad5)*%
X133075000Y-143050000D03*
%TO.P,U3,6,SENSOR_CAPP*%
%TO.N,unconnected-(U3-Pad6)*%
X133075000Y-143550000D03*
%TO.P,U3,7,SENSOR_CAPN*%
%TO.N,unconnected-(U3-Pad7)*%
X133075000Y-144050000D03*
%TO.P,U3,8,SENSOR_VN*%
%TO.N,unconnected-(U3-Pad8)*%
X133075000Y-144550000D03*
%TO.P,U3,9,EN*%
%TO.N,Net-(U3-Pad9)*%
X133075000Y-145050000D03*
%TO.P,U3,10,IO34*%
%TO.N,unconnected-(U3-Pad10)*%
X133075000Y-145550000D03*
%TO.P,U3,11,IO35*%
%TO.N,unconnected-(U3-Pad11)*%
X133075000Y-146050000D03*
%TO.P,U3,12,IO32*%
%TO.N,unconnected-(U3-Pad12)*%
X133075000Y-146550000D03*
D11*
%TO.P,U3,13,IO33*%
%TO.N,unconnected-(U3-Pad13)*%
X133775000Y-147250000D03*
%TO.P,U3,14,IO25*%
%TO.N,unconnected-(U3-Pad14)*%
X134275000Y-147250000D03*
%TO.P,U3,15,IO26*%
%TO.N,unconnected-(U3-Pad15)*%
X134775000Y-147250000D03*
%TO.P,U3,16,IO27*%
%TO.N,unconnected-(U3-Pad16)*%
X135275000Y-147250000D03*
%TO.P,U3,17,IO14*%
%TO.N,unconnected-(U3-Pad17)*%
X135775000Y-147250000D03*
%TO.P,U3,18,IO12*%
%TO.N,Net-(U3-Pad18)*%
X136275000Y-147250000D03*
%TO.P,U3,19,VDD3P3_RTC*%
%TO.N,/VDD33A*%
X136775000Y-147250000D03*
%TO.P,U3,20,IO13*%
%TO.N,unconnected-(U3-Pad20)*%
X137275000Y-147250000D03*
%TO.P,U3,21,IO15*%
%TO.N,unconnected-(U3-Pad21)*%
X137775000Y-147250000D03*
%TO.P,U3,22,IO2*%
%TO.N,unconnected-(U3-Pad22)*%
X138275000Y-147250000D03*
%TO.P,U3,23,IO0*%
%TO.N,unconnected-(U3-Pad23)*%
X138775000Y-147250000D03*
%TO.P,U3,24,IO4*%
%TO.N,unconnected-(U3-Pad24)*%
X139275000Y-147250000D03*
D10*
%TO.P,U3,25,IO16*%
%TO.N,unconnected-(U3-Pad25)*%
X139975000Y-146550000D03*
%TO.P,U3,26,VDD_SDIO*%
%TO.N,unconnected-(U3-Pad26)*%
X139975000Y-146050000D03*
%TO.P,U3,27,IO17*%
%TO.N,unconnected-(U3-Pad27)*%
X139975000Y-145550000D03*
%TO.P,U3,28,SD2/IO9*%
%TO.N,unconnected-(U3-Pad28)*%
X139975000Y-145050000D03*
%TO.P,U3,29,SD3/IO10*%
%TO.N,unconnected-(U3-Pad29)*%
X139975000Y-144550000D03*
%TO.P,U3,30,CMD*%
%TO.N,unconnected-(U3-Pad30)*%
X139975000Y-144050000D03*
%TO.P,U3,31,CLK*%
%TO.N,unconnected-(U3-Pad31)*%
X139975000Y-143550000D03*
%TO.P,U3,32,SD0*%
%TO.N,unconnected-(U3-Pad32)*%
X139975000Y-143050000D03*
%TO.P,U3,33,SD1*%
%TO.N,unconnected-(U3-Pad33)*%
X139975000Y-142550000D03*
%TO.P,U3,34,IO5*%
%TO.N,unconnected-(U3-Pad34)*%
X139975000Y-142050000D03*
%TO.P,U3,35,IO18*%
%TO.N,unconnected-(U3-Pad35)*%
X139975000Y-141550000D03*
%TO.P,U3,36,IO23*%
%TO.N,unconnected-(U3-Pad36)*%
X139975000Y-141050000D03*
D11*
%TO.P,U3,37,VDD3P3_CPU*%
%TO.N,/VDD33A*%
X139275000Y-140350000D03*
%TO.P,U3,38,IO19*%
%TO.N,unconnected-(U3-Pad38)*%
X138775000Y-140350000D03*
%TO.P,U3,39,IO22*%
%TO.N,unconnected-(U3-Pad39)*%
X138275000Y-140350000D03*
%TO.P,U3,40,U0RXD/IO3*%
%TO.N,/RXD*%
X137775000Y-140350000D03*
%TO.P,U3,41,U0TXD/IO1*%
%TO.N,/TXD*%
X137275000Y-140350000D03*
%TO.P,U3,42,IO21*%
%TO.N,unconnected-(U3-Pad42)*%
X136775000Y-140350000D03*
%TO.P,U3,43,VDDA*%
%TO.N,/VDD33A*%
X136275000Y-140350000D03*
%TO.P,U3,44,XTAL_N_NC*%
%TO.N,unconnected-(U3-Pad44)*%
X135775000Y-140350000D03*
%TO.P,U3,45,XTAL_P_NC*%
%TO.N,unconnected-(U3-Pad45)*%
X135275000Y-140350000D03*
%TO.P,U3,46,VDDA*%
%TO.N,/VDD33A*%
X134775000Y-140350000D03*
%TO.P,U3,47,CAP2_NC*%
%TO.N,unconnected-(U3-Pad47)*%
X134275000Y-140350000D03*
%TO.P,U3,48,CAP1_NC*%
%TO.N,unconnected-(U3-Pad48)*%
X133775000Y-140350000D03*
D12*
%TO.P,U3,49,GND*%
%TO.N,GND*%
X136525000Y-143800000D03*
%TD*%
D10*
%TO.P,U2,1,~{DCD}*%
%TO.N,/~{DCD}*%
X144600000Y-134775000D03*
%TO.P,U2,2,~{RI}/CLK*%
%TO.N,/~{RI}*%
X144600000Y-135275000D03*
%TO.P,U2,3,GND*%
%TO.N,GND*%
X144600000Y-135775000D03*
%TO.P,U2,4,D+*%
%TO.N,/D+*%
X144600000Y-136275000D03*
%TO.P,U2,5,D-*%
%TO.N,/D-*%
X144600000Y-136775000D03*
%TO.P,U2,6,VDD*%
%TO.N,Net-(C5-Pad1)*%
X144600000Y-137275000D03*
%TO.P,U2,7,VREGIN*%
%TO.N,VBUS*%
X144600000Y-137775000D03*
D11*
%TO.P,U2,8,VBUS*%
X145550000Y-138725000D03*
%TO.P,U2,9,~{RST}*%
%TO.N,Net-(R4-Pad2)*%
X146050000Y-138725000D03*
%TO.P,U2,10,NC*%
%TO.N,unconnected-(U2-Pad10)*%
X146550000Y-138725000D03*
%TO.P,U2,11,~{SUSPEND}*%
%TO.N,/~{SUSPEND}*%
X147050000Y-138725000D03*
%TO.P,U2,12,SUSPEND*%
%TO.N,/SUSPEND*%
X147550000Y-138725000D03*
%TO.P,U2,13,CHREN*%
%TO.N,unconnected-(U2-Pad13)*%
X148050000Y-138725000D03*
%TO.P,U2,14,CHR1*%
%TO.N,unconnected-(U2-Pad14)*%
X148550000Y-138725000D03*
D10*
%TO.P,U2,15,CHR0*%
%TO.N,unconnected-(U2-Pad15)*%
X149500000Y-137775000D03*
%TO.P,U2,16,~{WAKEUP}/GPIO.3*%
%TO.N,/GPIO3*%
X149500000Y-137275000D03*
%TO.P,U2,17,RS485/GPIO.2*%
%TO.N,/GPIO2*%
X149500000Y-136775000D03*
%TO.P,U2,18,~{RXT}/GPIO.1*%
%TO.N,/GPIO1*%
X149500000Y-136275000D03*
%TO.P,U2,19,~{TXT}/GPIO.0*%
%TO.N,/GPIO0*%
X149500000Y-135775000D03*
%TO.P,U2,20,GPIO.6*%
%TO.N,/GPIO6*%
X149500000Y-135275000D03*
%TO.P,U2,21,GPIO.5*%
%TO.N,/GPIO5*%
X149500000Y-134775000D03*
D11*
%TO.P,U2,22,GPIO.4*%
%TO.N,/GPIO4*%
X148550000Y-133825000D03*
%TO.P,U2,23,~{CTS}*%
%TO.N,/~{CTS}*%
X148050000Y-133825000D03*
%TO.P,U2,24,~{RTS}*%
%TO.N,/~{RTS}*%
X147550000Y-133825000D03*
%TO.P,U2,25,RXD*%
%TO.N,/RXD*%
X147050000Y-133825000D03*
%TO.P,U2,26,TXD*%
%TO.N,/TXD*%
X146550000Y-133825000D03*
%TO.P,U2,27,~{DSR}*%
%TO.N,/~{DSR}*%
X146050000Y-133825000D03*
%TO.P,U2,28,~{DTR}*%
%TO.N,/~{DTR}*%
X145550000Y-133825000D03*
D13*
%TO.P,U2,29,GND*%
%TO.N,GND*%
X147050000Y-136275000D03*
%TD*%
D14*
%TO.P,R23,1*%
%TO.N,+3.3V*%
X143225000Y-140480000D03*
%TO.P,R23,2*%
%TO.N,Net-(U3-Pad18)*%
X143225000Y-141120000D03*
%TD*%
D15*
%TO.P,R22,1*%
%TO.N,/VDD33A*%
X137320000Y-149250000D03*
%TO.P,R22,2*%
%TO.N,Net-(U3-Pad9)*%
X136680000Y-149250000D03*
%TD*%
D16*
%TO.P,R21,1*%
%TO.N,/VDD33A*%
X142400000Y-141120000D03*
%TO.P,R21,2*%
%TO.N,+3.3V*%
X142400000Y-140480000D03*
%TD*%
D17*
%TO.P,R4,2*%
%TO.N,Net-(R4-Pad2)*%
X143070000Y-139625000D03*
%TO.P,R4,1*%
%TO.N,+3.3V*%
X142430000Y-139625000D03*
%TD*%
%TO.P,R3,2*%
%TO.N,Net-(D2-Pad2)*%
X148120000Y-128000000D03*
%TO.P,R3,1*%
%TO.N,GND*%
X147480000Y-128000000D03*
%TD*%
%TO.P,R2,1*%
%TO.N,GND*%
X150855000Y-130050000D03*
%TO.P,R2,2*%
%TO.N,Net-(D1-Pad2)*%
X151495000Y-130050000D03*
%TD*%
D15*
%TO.P,D2,1,K*%
%TO.N,/TXD*%
X149620000Y-128000000D03*
%TO.P,D2,2,A*%
%TO.N,Net-(D2-Pad2)*%
X148980000Y-128000000D03*
%TD*%
%TO.P,D1,1,K*%
%TO.N,/RXD*%
X152420000Y-131050000D03*
%TO.P,D1,2,A*%
%TO.N,Net-(D1-Pad2)*%
X151780000Y-131050000D03*
%TD*%
D18*
%TO.P,C19,1*%
%TO.N,Net-(U3-Pad9)*%
X147625000Y-150625000D03*
%TO.P,C19,2*%
%TO.N,GND*%
X147625000Y-147625000D03*
%TD*%
D19*
%TO.P,C16,2*%
%TO.N,GND*%
X135150000Y-135200000D03*
%TO.P,C16,1*%
%TO.N,/VDD33A*%
X138150000Y-135200000D03*
%TD*%
%TO.P,C15,2*%
%TO.N,GND*%
X131225000Y-138975000D03*
%TO.P,C15,1*%
%TO.N,/VDD33A*%
X128225000Y-138975000D03*
%TD*%
D18*
%TO.P,C6,1*%
%TO.N,Net-(C5-Pad1)*%
X150875000Y-143750000D03*
%TO.P,C6,2*%
%TO.N,GND*%
X150875000Y-140750000D03*
%TD*%
%TO.P,C5,1*%
%TO.N,Net-(C5-Pad1)*%
X146775000Y-141250000D03*
%TO.P,C5,2*%
%TO.N,GND*%
X146775000Y-144250000D03*
%TD*%
D19*
%TO.P,C4,1*%
%TO.N,GND*%
X141200000Y-149975000D03*
%TO.P,C4,2*%
%TO.N,VBUS*%
X144200000Y-149975000D03*
%TD*%
%TO.P,C3,1*%
%TO.N,GND*%
X132225000Y-149150000D03*
%TO.P,C3,2*%
%TO.N,VBUS*%
X129225000Y-149150000D03*
%TD*%
D20*
%TO.P,R1,1*%
%TO.N,Net-(P1-PadA5)*%
X133540000Y-131675000D03*
%TO.P,R1,2*%
%TO.N,GND*%
X133540000Y-133325000D03*
%TD*%
D21*
%TO.P,C2,1*%
%TO.N,+3V3*%
X131450000Y-135802000D03*
%TO.P,C2,2*%
%TO.N,GND*%
X129550000Y-135802000D03*
%TD*%
D22*
%TO.P,U1,1,VIN*%
%TO.N,VBUS*%
X131450000Y-131400000D03*
%TO.P,U1,2,GND*%
%TO.N,GND*%
X130500000Y-131400000D03*
%TO.P,U1,3,EN*%
%TO.N,VBUS*%
X129550000Y-131400000D03*
%TO.P,U1,4,NC*%
%TO.N,unconnected-(U1-Pad4)*%
X129550000Y-133600000D03*
%TO.P,U1,5,VOUT*%
%TO.N,+3V3*%
X131450000Y-133600000D03*
%TD*%
D21*
%TO.P,C1,2*%
%TO.N,GND*%
X129550000Y-129198000D03*
%TO.P,C1,1*%
%TO.N,VBUS*%
X131450000Y-129198000D03*
%TD*%
D23*
%TO.P,P1,S1,SHIELD*%
%TO.N,GND*%
X136580000Y-129880000D03*
D24*
%TO.P,P1,A12,GND*%
X142750000Y-129040000D03*
%TO.P,P1,A11*%
%TO.N,N/C*%
X142250000Y-129040000D03*
%TO.P,P1,A10*%
X141750000Y-129040000D03*
%TO.P,P1,A9,VBUS*%
%TO.N,VBUS*%
X141250000Y-129040000D03*
%TO.P,P1,A8*%
%TO.N,N/C*%
X140750000Y-129040000D03*
%TO.P,P1,A7,D-*%
%TO.N,/D-*%
X140250000Y-129040000D03*
%TO.P,P1,A6,D+*%
%TO.N,/D+*%
X139750000Y-129040000D03*
%TO.P,P1,A5,CC*%
%TO.N,Net-(P1-PadA5)*%
X139250000Y-129040000D03*
%TO.P,P1,A4,VBUS*%
%TO.N,VBUS*%
X138750000Y-129040000D03*
%TO.P,P1,A3*%
%TO.N,N/C*%
X138250000Y-129040000D03*
%TO.P,P1,A2*%
X137750000Y-129040000D03*
%TO.P,P1,A1,GND*%
%TO.N,GND*%
X137250000Y-129040000D03*
%TD*%
D25*
%TO.P,TP1,1,1*%
%TO.N,GND*%
X134300000Y-128000000D03*
%TD*%
%TO.P,TP3,1,1*%
%TO.N,GND*%
X145700000Y-128000000D03*
%TD*%
D26*
%TO.N,VBUS*%
X144875000Y-146950000D03*
%TO.N,GND*%
X138512820Y-149912820D03*
%TO.N,VBUS*%
X144225000Y-138875000D03*
X150212299Y-138412701D03*
%TO.N,Net-(C5-Pad1)*%
X143286883Y-137086335D03*
X144925000Y-140650000D03*
%TO.N,/RXD*%
X148651992Y-131775000D03*
X138000000Y-137600000D03*
%TO.N,/TXD*%
X146550000Y-131750000D03*
X137275000Y-138400500D03*
%TO.N,/VDD33A*%
X130325000Y-142550000D03*
%TO.N,Net-(U3-Pad18)*%
X136250000Y-148500000D03*
X143775000Y-142075000D03*
%TO.N,/VDD33A*%
X139275000Y-139125000D03*
X136000000Y-139125000D03*
%TO.N,GND*%
X147625000Y-146150000D03*
X136525000Y-143800000D03*
%TO.N,/VDD33A*%
X142787500Y-142562500D03*
%TO.N,GND*%
X147475000Y-128800000D03*
X149675000Y-130050000D03*
%TO.N,VBUS*%
X138179117Y-132359492D03*
X134950000Y-130450000D03*
%TO.N,/D-*%
X140449500Y-131374204D03*
X139037876Y-131848084D03*
D27*
%TO.N,GND*%
X133858000Y-127571500D03*
X133858000Y-128460500D03*
X146177000Y-127571500D03*
X146177000Y-128460500D03*
X134747000Y-127571500D03*
X145224500Y-128460500D03*
X145224500Y-127571500D03*
X134747000Y-128460500D03*
%TD*%
D28*
%TO.N,VBUS*%
X131400000Y-151325000D02*
X143800000Y-151325000D01*
X129225000Y-149150000D02*
X131400000Y-151325000D01*
X143800000Y-151325000D02*
X144200000Y-150925000D01*
X144200000Y-150925000D02*
X144200000Y-149975000D01*
%TO.N,GND*%
X141200000Y-149975000D02*
X140700000Y-150475000D01*
X140700000Y-150475000D02*
X133550000Y-150475000D01*
X133550000Y-150475000D02*
X132225000Y-149150000D01*
%TO.N,VBUS*%
X144200000Y-147625000D02*
X144875000Y-146950000D01*
X144200000Y-149975000D02*
X144200000Y-147625000D01*
%TO.N,GND*%
X138575000Y-149975000D02*
X138512820Y-149912820D01*
X141200000Y-149975000D02*
X138575000Y-149975000D01*
%TO.N,VBUS*%
X143013882Y-137838639D02*
X143013882Y-137775000D01*
X144225000Y-138875000D02*
X144050243Y-138875000D01*
X144050243Y-138875000D02*
X143013882Y-137838639D01*
%TO.N,Net-(U3-Pad9)*%
X136680000Y-149250000D02*
X136680000Y-149441041D01*
X136680000Y-149441041D02*
X137013959Y-149775000D01*
X137013959Y-149775000D02*
X137626041Y-149775000D01*
X144151396Y-145925000D02*
X146175000Y-145925000D01*
X137626041Y-149775000D02*
X138676041Y-148725000D01*
X146175000Y-145925000D02*
X146500000Y-146250000D01*
X146500000Y-149500000D02*
X147625000Y-150625000D01*
X138676041Y-148725000D02*
X141351396Y-148725000D01*
X141351396Y-148725000D02*
X144151396Y-145925000D01*
X146500000Y-146250000D02*
X146500000Y-149500000D01*
%TO.N,/VDD33A*%
X137320000Y-149250000D02*
X137320000Y-148306992D01*
X137320000Y-148306992D02*
X137351992Y-148275000D01*
%TO.N,Net-(U3-Pad9)*%
X136680000Y-149250000D02*
X134775000Y-149250000D01*
X134775000Y-149250000D02*
X132350000Y-146825000D01*
%TO.N,GND*%
X147625000Y-147625000D02*
X147975001Y-147975001D01*
X147975001Y-147975001D02*
X151910966Y-147975001D01*
X151910966Y-147975001D02*
X152800000Y-147085967D01*
X152800000Y-147085967D02*
X152800000Y-142675000D01*
X152800000Y-142675000D02*
X150875000Y-140750000D01*
X147050000Y-136275000D02*
X150875000Y-140100000D01*
X150875000Y-140100000D02*
X150875000Y-140750000D01*
%TO.N,Net-(C5-Pad1)*%
X150875000Y-143750000D02*
X149275000Y-143750000D01*
X149275000Y-143750000D02*
X146775000Y-141250000D01*
%TO.N,GND*%
X147050000Y-136275000D02*
X147050000Y-136276992D01*
D29*
%TO.N,VBUS*%
X138179117Y-132359492D02*
X138179117Y-132629117D01*
X138179117Y-132629117D02*
X142606883Y-137056883D01*
X142606883Y-137056883D02*
X142606883Y-137368001D01*
X142606883Y-137368001D02*
X143013882Y-137775000D01*
X143013882Y-137775000D02*
X144600000Y-137775000D01*
D28*
%TO.N,/VDD33A*%
X138150000Y-135200000D02*
X138275000Y-135200000D01*
X138275000Y-135200000D02*
X139275000Y-136200000D01*
%TO.N,GND*%
X133540000Y-135250173D02*
X133590173Y-135200000D01*
X133590173Y-135200000D02*
X135150000Y-135200000D01*
%TO.N,Net-(C5-Pad1)*%
X143475548Y-137275000D02*
X143286883Y-137086335D01*
X144600000Y-137275000D02*
X143475548Y-137275000D01*
X145525000Y-141250000D02*
X144925000Y-140650000D01*
X146775000Y-141250000D02*
X145525000Y-141250000D01*
%TO.N,GND*%
X146775000Y-144250000D02*
X146775000Y-145300000D01*
X146775000Y-145300000D02*
X147625000Y-146150000D01*
%TO.N,Net-(R4-Pad2)*%
X143070000Y-139625000D02*
X145823008Y-139625000D01*
X145823008Y-139625000D02*
X146050000Y-139398008D01*
%TO.N,+3.3V*%
X142430000Y-139625000D02*
X142430000Y-140450000D01*
X142430000Y-140450000D02*
X142400000Y-140480000D01*
%TO.N,Net-(R4-Pad2)*%
X146050000Y-139398008D02*
X146050000Y-138725000D01*
%TO.N,+3.3V*%
X143225000Y-140480000D02*
X142400000Y-140480000D01*
%TO.N,Net-(U3-Pad18)*%
X143775000Y-142075000D02*
X143775000Y-141670000D01*
X143775000Y-141670000D02*
X143225000Y-141120000D01*
%TO.N,/VDD33A*%
X141900000Y-141675000D02*
X142787500Y-142562500D01*
X140575000Y-140350000D02*
X141900000Y-141675000D01*
X141900000Y-141675000D02*
X142400000Y-141175000D01*
X142400000Y-141175000D02*
X142400000Y-141120000D01*
%TO.N,/RXD*%
X138000000Y-138700805D02*
X138000000Y-137600000D01*
X137775000Y-138925805D02*
X138000000Y-138700805D01*
X137775000Y-140350000D02*
X137775000Y-138925805D01*
%TO.N,/TXD*%
X137275000Y-140350000D02*
X137275000Y-138400500D01*
%TO.N,/VDD33A*%
X139275000Y-136200000D02*
X139275000Y-139125000D01*
%TO.N,GND*%
X131225000Y-138975000D02*
X131225000Y-137477000D01*
X131225000Y-137477000D02*
X130600000Y-136852000D01*
%TO.N,/VDD33A*%
X130325000Y-142550000D02*
X128225000Y-140450000D01*
X128225000Y-140450000D02*
X128225000Y-138975000D01*
X133075000Y-142550000D02*
X130325000Y-142550000D01*
%TO.N,Net-(U3-Pad18)*%
X136275000Y-148475000D02*
X136250000Y-148500000D01*
X136275000Y-147250000D02*
X136275000Y-148475000D01*
X143775000Y-142075000D02*
X143775000Y-142186041D01*
%TO.N,Net-(U3-Pad9)*%
X132350000Y-145326992D02*
X132626992Y-145050000D01*
X132350000Y-146825000D02*
X132350000Y-145326992D01*
X132626992Y-145050000D02*
X133075000Y-145050000D01*
%TO.N,/VDD33A*%
X135998008Y-139625000D02*
X135998008Y-139126992D01*
X135998008Y-139126992D02*
X136000000Y-139125000D01*
X139275000Y-139125000D02*
X139275000Y-140350000D01*
%TO.N,GND*%
X147625000Y-146150000D02*
X147625000Y-147625000D01*
%TO.N,/VDD33A*%
X133075000Y-140075000D02*
X133075000Y-141050000D01*
X133525000Y-139625000D02*
X133075000Y-140075000D01*
X142787500Y-142562500D02*
X144832500Y-144607500D01*
%TO.N,unconnected-(U3-Pad47)*%
X134325000Y-140400000D02*
X134325000Y-140575000D01*
X134275000Y-140350000D02*
X134325000Y-140400000D01*
%TO.N,/VDD33A*%
X141165000Y-148275000D02*
X144832500Y-144607500D01*
X139275000Y-140350000D02*
X140575000Y-140350000D01*
X136775000Y-147250000D02*
X136775000Y-147698008D01*
X136775000Y-147698008D02*
X137351992Y-148275000D01*
X137351992Y-148275000D02*
X141165000Y-148275000D01*
X133075000Y-142050000D02*
X133075000Y-142550000D01*
X134775000Y-139901992D02*
X134498008Y-139625000D01*
X134498008Y-139625000D02*
X133525000Y-139625000D01*
X136275000Y-139901992D02*
X135998008Y-139625000D01*
X136275000Y-139950000D02*
X136275000Y-139901992D01*
X135998008Y-139625000D02*
X135051992Y-139625000D01*
X135051992Y-139625000D02*
X134775000Y-139901992D01*
X134775000Y-139901992D02*
X134775000Y-140350000D01*
%TO.N,GND*%
X150855000Y-130050000D02*
X149675000Y-130050000D01*
X147475000Y-128800000D02*
X147475000Y-128005000D01*
X147475000Y-128005000D02*
X147480000Y-128000000D01*
%TO.N,/RXD*%
X147050000Y-133825000D02*
X147050000Y-133376992D01*
X147050000Y-133376992D02*
X148651992Y-131775000D01*
X148651992Y-131775000D02*
X151950000Y-131775000D01*
X151950000Y-131775000D02*
X152420000Y-131305000D01*
X152420000Y-131305000D02*
X152420000Y-131050000D01*
%TO.N,Net-(D1-Pad2)*%
X151780000Y-131050000D02*
X151780000Y-130335000D01*
X151780000Y-130335000D02*
X151495000Y-130050000D01*
%TO.N,/TXD*%
X149625000Y-128005000D02*
X149620000Y-128000000D01*
X149625000Y-128675000D02*
X149625000Y-128005000D01*
X146550000Y-131750000D02*
X149625000Y-128675000D01*
X146550000Y-133825000D02*
X146550000Y-131750000D01*
%TO.N,Net-(D2-Pad2)*%
X148980000Y-128000000D02*
X148120000Y-128000000D01*
%TO.N,GND*%
X147480000Y-128000000D02*
X145700000Y-128000000D01*
D29*
%TO.N,VBUS*%
X133500000Y-130450000D02*
X134950000Y-130450000D01*
X133487500Y-130437500D02*
X133500000Y-130450000D01*
X132248000Y-129198000D02*
X133487500Y-130437500D01*
X133487500Y-130437500D02*
X134365000Y-131315000D01*
D28*
X145550000Y-138725000D02*
X144600000Y-137775000D01*
D30*
%TO.N,/D-*%
X140250000Y-129040000D02*
X140250000Y-131174704D01*
X140250000Y-131174704D02*
X140449500Y-131374204D01*
X144600000Y-136775000D02*
X143964792Y-136775000D01*
X143964792Y-136775000D02*
X139037876Y-131848084D01*
%TO.N,/D+*%
X144600000Y-136275000D02*
X144187348Y-136275000D01*
X144187348Y-136275000D02*
X139750000Y-131837652D01*
X139750000Y-131837652D02*
X139750000Y-129040000D01*
D28*
%TO.N,GND*%
X144600000Y-135775000D02*
X146550000Y-135775000D01*
X146550000Y-135775000D02*
X147050000Y-136275000D01*
X147050000Y-136275000D02*
X147050000Y-136273008D01*
X147050000Y-136273008D02*
X142765000Y-131988008D01*
X142765000Y-131988008D02*
X142765000Y-129040000D01*
D29*
%TO.N,VBUS*%
X138750000Y-129040000D02*
X138750000Y-128290000D01*
X138780000Y-128260000D02*
X141220000Y-128260000D01*
X138750000Y-128290000D02*
X138780000Y-128260000D01*
X141250000Y-128290000D02*
X141250000Y-129040000D01*
X141220000Y-128260000D02*
X141250000Y-128290000D01*
D28*
%TO.N,GND*%
X136580000Y-129880000D02*
X137235000Y-129225000D01*
X137235000Y-129225000D02*
X137235000Y-129040000D01*
D29*
%TO.N,VBUS*%
X131450000Y-129198000D02*
X132248000Y-129198000D01*
X138750000Y-130665884D02*
X138750000Y-129040000D01*
X134365000Y-131315000D02*
X138100884Y-131315000D01*
X138100884Y-131315000D02*
X138750000Y-130665884D01*
%TO.N,*%
X138280000Y-129070000D02*
X138250000Y-129040000D01*
%TO.N,Net-(P1-PadA5)*%
X133540000Y-131675000D02*
X138250000Y-131675000D01*
X138250000Y-131675000D02*
X139250000Y-130675000D01*
X139250000Y-130675000D02*
X139250000Y-129040000D01*
D28*
%TO.N,GND*%
X136580000Y-129880000D02*
X135980000Y-129880000D01*
X135980000Y-129880000D02*
X134300000Y-128200000D01*
X134300000Y-128200000D02*
X134300000Y-128000000D01*
%TO.N,VBUS*%
X131450000Y-131400000D02*
X131450000Y-131955000D01*
X131150000Y-132255000D02*
X129850000Y-132255000D01*
X131450000Y-131955000D02*
X131150000Y-132255000D01*
X129850000Y-132255000D02*
X129550000Y-131955000D01*
X129550000Y-131955000D02*
X129550000Y-131400000D01*
%TO.N,+3V3*%
X131450000Y-135802000D02*
X131450000Y-133600000D01*
%TO.N,GND*%
X129550000Y-135802000D02*
X130600000Y-136852000D01*
X130600000Y-136852000D02*
X131938173Y-136852000D01*
X131938173Y-136852000D02*
X133540000Y-135250173D01*
X133540000Y-135250173D02*
X133540000Y-133325000D01*
X129550000Y-129198000D02*
X128900000Y-129848000D01*
X128900000Y-129848000D02*
X128900000Y-135152000D01*
X128900000Y-135152000D02*
X129550000Y-135802000D01*
X129550000Y-129198000D02*
X130500000Y-130148000D01*
X130500000Y-130148000D02*
X130500000Y-131400000D01*
%TO.N,VBUS*%
X131450000Y-129198000D02*
X131450000Y-131400000D01*
%TO.N,GND*%
X129550000Y-129198000D02*
X129911827Y-129198000D01*
X129911827Y-129198000D02*
X131109827Y-128000000D01*
X131109827Y-128000000D02*
X134300000Y-128000000D01*
%TD*%
M02*
